<svg xmlns="http://www.w3.org/2000/svg" viewBox="0 0 24 24"><path class="fn-svg-icon" fill-rule="evenodd" d="M19 15C20.1046 15 21 14.1046 21 13C21 11.8954 20.1046 11 19 11C17.8954 11 17 11.8954 17 13C17 14.1046 17.8954 15 19 15Z" clip-rule="evenodd"/><path class="fn-svg-icon" fill-rule="evenodd" d="M16 13C16 11.3431 17.3431 10 19 10 20.6569 10 22 11.3431 22 13 22 14.6569 20.6569 16 19 16 17.3431 16 16 14.6569 16 13ZM19 12C18.4477 12 18 12.4477 18 13 18 13.5523 18.4477 14 19 14 19.5523 14 20 13.5523 20 13 20 12.4477 19.5523 12 19 12ZM3 4C3 3.44772 3.44772 3 4 3H6C6.55228 3 7 3.44772 7 4 7 4.55228 6.55228 5 6 5H5V8C5 10.2091 6.79086 12 9 12 11.2091 12 13 10.2091 13 8V5H12C11.4477 5 11 4.55228 11 4 11 3.44772 11.4477 3 12 3H14C14.5523 3 15 3.44772 15 4V8C15 11.3137 12.3137 14 9 14 5.68629 14 3 11.3137 3 8V4Z" clip-rule="evenodd"/><path class="fn-svg-icon" fill-rule="evenodd" d="M9 12C9.55228 12 10 12.4477 10 13V15C10 17.2091 11.7909 19 14 19C16.2091 19 18 17.2091 18 15C18 14.4477 18.4477 14 19 14C19.5523 14 20 14.4477 20 15C20 18.3137 17.3137 21 14 21C10.6863 21 8 18.3137 8 15V13C8 12.4477 8.44772 12 9 12Z" clip-rule="evenodd"/></svg>
