<svg xmlns="http://www.w3.org/2000/svg" viewBox="0 0 24 24"><path class="fn-svg-icon" fill-rule="evenodd" d="M11 13C8.23858 13 6 15.2386 6 18V19H12C12.5523 19 13 19.4477 13 20C13 20.5523 12.5523 21 12 21H5C4.44772 21 4 20.5523 4 20V18C4 14.134 7.13401 11 11 11H12C12.5523 11 13 11.4477 13 12C13 12.5523 12.5523 13 12 13H11Z" clip-rule="evenodd"/><path class="fn-svg-icon" fill-rule="evenodd" d="M7 8C7 5.23858 9.23858 3 12 3 14.7614 3 17 5.23858 17 8 17 10.7614 14.7614 13 12 13 9.23858 13 7 10.7614 7 8ZM12 5C10.3431 5 9 6.34315 9 8 9 9.65685 10.3431 11 12 11 13.6569 11 15 9.65685 15 8 15 6.34315 13.6569 5 12 5ZM15 18C15 16.8954 15.8954 16 17 16H21C22.1046 16 23 16.8954 23 18V21C23 22.1046 22.1046 23 21 23H17C15.8954 23 15 22.1046 15 21V18ZM21 18H17V21H21V18Z" clip-rule="evenodd"/><path class="fn-svg-icon" fill-rule="evenodd" d="M16 15C16 13.3431 17.3431 12 19 12C20.6569 12 22 13.3431 22 15V17C22 17.5523 21.5523 18 21 18H17C16.4477 18 16 17.5523 16 17V15ZM19 14C18.4477 14 18 14.4477 18 15V16H20V15C20 14.4477 19.5523 14 19 14Z" clip-rule="evenodd"/></svg>
