<svg xmlns="http://www.w3.org/2000/svg" viewBox="0 0 24 24"><path class="fn-svg-icon" fill-rule="evenodd" d="M8 12C8 9.79086 9.79086 8 12 8C14.2091 8 16 9.79086 16 12C16 14.2091 14.2091 16 12 16C9.79086 16 8 14.2091 8 12ZM12 10C10.8954 10 10 10.8954 10 12C10 13.1046 10.8954 14 12 14C13.1046 14 14 13.1046 14 12C14 10.8954 13.1046 10 12 10Z" clip-rule="evenodd"/><path class="fn-svg-icon" fill-rule="evenodd" d="M12 6C12.5523 6 13 6.44772 13 7V9C13 9.55228 12.5523 10 12 10 11.4477 10 11 9.55228 11 9V7C11 6.44772 11.4477 6 12 6ZM7.10526 9.05341C7.3519 8.55926 7.95243 8.35862 8.44659 8.60526L9.44834 9.10526C9.94249 9.3519 10.1431 9.95244 9.8965 10.4466 9.64985 10.9407 9.04932 11.1414 8.55517 10.8947L7.55341 10.3947C7.05926 10.1481 6.85862 9.54757 7.10526 9.05341ZM16.8941 9.05216C17.1414 9.54596 16.9416 10.1468 16.4478 10.3941L15.4496 10.8941C14.9558 11.1414 14.355 10.9416 14.1076 10.4478 13.8603 9.95404 14.0601 9.35322 14.5539 9.10589L15.5522 8.60589C16.046 8.35855 16.6468 8.55835 16.8941 9.05216ZM14.1076 13.5522C14.355 13.0584 14.9558 12.8586 15.4496 13.1059L16.4478 13.6059C16.9416 13.8532 17.1414 14.454 16.8941 14.9478 16.6468 15.4416 16.046 15.6414 15.5522 15.3941L14.5539 14.8941C14.0601 14.6468 13.8603 14.046 14.1076 13.5522ZM9.8965 13.5534C10.1431 14.0476 9.94249 14.6481 9.44834 14.8947L8.44659 15.3947C7.95243 15.6414 7.3519 15.4407 7.10526 14.9466 6.85862 14.4524 7.05926 13.8519 7.55341 13.6053L8.55517 13.1053C9.04932 12.8586 9.64985 13.0593 9.8965 13.5534ZM12 14C12.5523 14 13 14.4477 13 15V17C13 17.5523 12.5523 18 12 18 11.4477 18 11 17.5523 11 17V15C11 14.4477 11.4477 14 12 14Z" clip-rule="evenodd"/><path class="fn-svg-icon" fill-rule="evenodd" d="M3 6C3 4.34315 4.34315 3 6 3H18C19.6569 3 21 4.34315 21 6V18C21 19.6569 19.6569 21 18 21H6C4.34315 21 3 19.6569 3 18V6ZM6 5C5.44772 5 5 5.44772 5 6V18C5 18.5523 5.44772 19 6 19H18C18.5523 19 19 18.5523 19 18V6C19 5.44772 18.5523 5 18 5H6Z" clip-rule="evenodd"/></svg>
