<svg xmlns="http://www.w3.org/2000/svg" viewBox="0 0 24 24"><path class="fn-svg-icon" fill-rule="evenodd" d="M12 13C12.5523 13 13 13.4477 13 14V19C13 19.5523 12.5523 20 12 20 11.4477 20 11 19.5523 11 19V14C11 13.4477 11.4477 13 12 13ZM12 6C12.5523 6 13 5.55228 13 5 13 4.44772 12.5523 4 12 4 11.4477 4 11 4.44772 11 5 11 5.55228 11.4477 6 12 6ZM12 9C12.5523 9 13 8.55228 13 8 13 7.44772 12.5523 7 12 7 11.4477 7 11 7.44772 11 8 11 8.55228 11.4477 9 12 9ZM12 12C12.5523 12 13 11.5523 13 11 13 10.4477 12.5523 10 12 10 11.4477 10 11 10.4477 11 11 11 11.5523 11.4477 12 12 12Z" clip-rule="evenodd"/><path class="fn-svg-icon" fill-rule="evenodd" d="M7.29289 14.2929C7.68342 13.9024 8.31658 13.9024 8.70711 14.2929L12 17.5858L15.2929 14.2929C15.6834 13.9024 16.3166 13.9024 16.7071 14.2929C17.0976 14.6834 17.0976 15.3166 16.7071 15.7071L12.7071 19.7071C12.3166 20.0976 11.6834 20.0976 11.2929 19.7071L7.29289 15.7071C6.90237 15.3166 6.90237 14.6834 7.29289 14.2929Z" clip-rule="evenodd"/></svg>
