<svg xmlns="http://www.w3.org/2000/svg" viewBox="0 0 24 24"><path class="fn-svg-icon" fill-rule="evenodd" d="M5 4C4.44772 4 4 4.44772 4 5V18.5858L6.29289 16.2929C6.48043 16.1054 6.73478 16 7 16H19C19.5523 16 20 15.5523 20 15V5C20 4.44772 19.5523 4 19 4H5ZM2 5C2 3.34315 3.34315 2 5 2H19C20.6569 2 22 3.34315 22 5V15C22 16.6569 20.6569 18 19 18H7.41421L3.70711 21.7071C3.42111 21.9931 2.99099 22.0787 2.61732 21.9239C2.24364 21.7691 2 21.4045 2 21V5Z" clip-rule="evenodd"/><path class="fn-svg-icon" fill-rule="evenodd" d="M7 8C7 7.44772 7.44772 7 8 7H16C16.5523 7 17 7.44772 17 8 17 8.55228 16.5523 9 16 9H8C7.44772 9 7 8.55228 7 8ZM7 12C7 11.4477 7.44772 11 8 11H13C13.5523 11 14 11.4477 14 12 14 12.5523 13.5523 13 13 13H8C7.44772 13 7 12.5523 7 12Z" clip-rule="evenodd"/></svg>
