<svg xmlns="http://www.w3.org/2000/svg" viewBox="0 0 24 24"><path class="fn-svg-icon" fill-rule="evenodd" d="M12.2929 2.29289C12.4804 2.10536 12.7348 2 13 2H21C21.5523 2 22 2.44772 22 3V7C22 7.55228 21.5523 8 21 8C20.4477 8 20 7.55228 20 7V4H13.4142L8 9.41421V20H13C13.5523 20 14 20.4477 14 21C14 21.5523 13.5523 22 13 22H7C6.44772 22 6 21.5523 6 21V9C6 8.73478 6.10536 8.48043 6.29289 8.29289L12.2929 2.29289Z" clip-rule="evenodd"/><path class="fn-svg-icon" fill-rule="evenodd" d="M18.5 14C18.2239 14 18 14.2239 18 14.5C18 14.7761 18.2239 15 18.5 15H19.5C20.8807 15 22 16.1193 22 17.5C22 18.8807 20.8807 20 19.5 20H17C16.4477 20 16 19.5523 16 19C16 18.4477 16.4477 18 17 18H19.5C19.7761 18 20 17.7761 20 17.5C20 17.2239 19.7761 17 19.5 17H18.5C17.1193 17 16 15.8807 16 14.5C16 13.1193 17.1193 12 18.5 12H21C21.5523 12 22 12.4477 22 13C22 13.5523 21.5523 14 21 14H18.5Z" clip-rule="evenodd"/><path class="fn-svg-icon" fill-rule="evenodd" d="M19 10C19.5523 10 20 10.4477 20 11V12C20 12.5523 19.5523 13 19 13 18.4477 13 18 12.5523 18 12V11C18 10.4477 18.4477 10 19 10ZM19 19C19.5523 19 20 19.4477 20 20V21C20 21.5523 19.5523 22 19 22 18.4477 22 18 21.5523 18 21V20C18 19.4477 18.4477 19 19 19ZM8 9H11C12.1046 9 13 8.10457 13 7V4M8.70711 2.29289C9.09763 2.68342 9.09763 3.31658 8.70711 3.70711L4 8.41421V21C4 21.5523 3.55228 22 3 22 2.44772 22 2 21.5523 2 21V8C2 7.73478 2.10536 7.48043 2.29289 7.29289L7.29289 2.29289C7.68342 1.90237 8.31658 1.90237 8.70711 2.29289ZM10 13C10 12.4477 10.4477 12 11 12H13C13.5523 12 14 12.4477 14 13 14 13.5523 13.5523 14 13 14H11C10.4477 14 10 13.5523 10 13ZM10 17C10 16.4477 10.4477 16 11 16H13C13.5523 16 14 16.4477 14 17 14 17.5523 13.5523 18 13 18H11C10.4477 18 10 17.5523 10 17Z" clip-rule="evenodd"/></svg>
