<svg xmlns="http://www.w3.org/2000/svg" viewBox="0 0 24 24"><path class="fn-svg-icon" fill-rule="evenodd" d="M8 4C7.44772 4 7 4.44772 7 5V7C7 7.55228 6.55228 8 6 8 5.44772 8 5 7.55228 5 7V5C5 3.34315 6.34315 2 8 2H16C17.6569 2 19 3.34315 19 5V7C19 7.55228 18.5523 8 18 8 17.4477 8 17 7.55228 17 7V5C17 4.44772 16.5523 4 16 4H8ZM12 12.5C12.8284 12.5 13.5 11.8284 13.5 11 13.5 10.1716 12.8284 9.5 12 9.5 11.1716 9.5 10.5 10.1716 10.5 11 10.5 11.8284 11.1716 12.5 12 12.5Z" clip-rule="evenodd"/><path class="fn-svg-icon" fill-rule="evenodd" d="M3 11C3 8.23858 5.23858 6 8 6H16C18.7614 6 21 8.23858 21 11V15.7639C21 16.9002 20.358 17.939 19.3416 18.4472L12.4472 21.8944C12.1657 22.0352 11.8343 22.0352 11.5528 21.8944L4.65836 18.4472C3.64201 17.939 3 16.9002 3 15.7639V11ZM8 8C6.34315 8 5 9.34315 5 11V15.7639C5 16.1427 5.214 16.489 5.55279 16.6584L12 19.882L18.4472 16.6584C18.786 16.489 19 16.1427 19 15.7639V11C19 9.34315 17.6569 8 16 8H8Z" clip-rule="evenodd"/><path class="fn-svg-icon" fill-rule="evenodd" d="M16 14C16.5523 14 17 14.4477 17 15V18.5858L20.7071 22.2929C21.0976 22.6834 21.0976 23.3166 20.7071 23.7071 20.3166 24.0976 19.6834 24.0976 19.2929 23.7071L15.2929 19.7071C15.1054 19.5196 15 19.2652 15 19V15C15 14.4477 15.4477 14 16 14ZM8 14C8.55228 14 9 14.4477 9 15V19C9 19.2652 8.89464 19.5196 8.70711 19.7071L4.70711 23.7071C4.31658 24.0976 3.68342 24.0976 3.29289 23.7071 2.90237 23.3166 2.90237 22.6834 3.29289 22.2929L7 18.5858V15C7 14.4477 7.44772 14 8 14Z" clip-rule="evenodd"/><path class="fn-svg-icon" fill-rule="evenodd" d="M3 15C3 14.4477 3.44772 14 4 14H20C20.5523 14 21 14.4477 21 15 21 15.5523 20.5523 16 20 16H4C3.44772 16 3 15.5523 3 15ZM12 2C12.5523 2 13 2.44772 13 3V7C13 7.55228 12.5523 8 12 8 11.4477 8 11 7.55228 11 7V3C11 2.44772 11.4477 2 12 2Z" clip-rule="evenodd"/><path class="fn-svg-icon" fill-rule="evenodd" d="M12 14C12.5523 14 13 14.4477 13 15V20C13 20.5523 12.5523 21 12 21C11.4477 21 11 20.5523 11 20V15C11 14.4477 11.4477 14 12 14Z" clip-rule="evenodd"/></svg>
