<svg xmlns="http://www.w3.org/2000/svg" viewBox="0 0 24 24"><path class="fn-svg-icon" fill-rule="evenodd" d="M9 17C9 16.4477 9.44772 16 10 16H19C19.5523 16 20 16.4477 20 17 20 17.5523 19.5523 18 19 18H10C9.44772 18 9 17.5523 9 17ZM9 7C9 6.44772 9.44772 6 10 6H19C19.5523 6 20 6.44772 20 7 20 7.55228 19.5523 8 19 8H10C9.44772 8 9 7.55228 9 7ZM5.5 18.5C6.32843 18.5 7 17.8284 7 17 7 16.1716 6.32843 15.5 5.5 15.5 4.67157 15.5 4 16.1716 4 17 4 17.8284 4.67157 18.5 5.5 18.5ZM5.5 13.5C6.32843 13.5 7 12.8284 7 12 7 11.1716 6.32843 10.5 5.5 10.5 4.67157 10.5 4 11.1716 4 12 4 12.8284 4.67157 13.5 5.5 13.5ZM5.5 8.5C6.32843 8.5 7 7.82843 7 7 7 6.17157 6.32843 5.5 5.5 5.5 4.67157 5.5 4 6.17157 4 7 4 7.82843 4.67157 8.5 5.5 8.5ZM9 12C9 11.4477 9.44772 11 10 11H19C19.5523 11 20 11.4477 20 12 20 12.5523 19.5523 13 19 13H10C9.44772 13 9 12.5523 9 12Z" clip-rule="evenodd"/></svg>
