<svg xmlns="http://www.w3.org/2000/svg" viewBox="0 0 24 24"><path class="fn-svg-icon" fill-rule="evenodd" d="M6 11C4.34315 11 3.00001 12.3431 3 14C3 14 3 14 3 14L3.00002 16C3.00002 16.5523 2.55231 17 2.00003 17C1.44774 17 1.00002 16.5523 1.00002 16L1 14C1 11.2386 3.23858 9 6 9H10C10.5523 9 11 9.44772 11 10C11 10.5523 10.5523 11 10 11H6Z" clip-rule="evenodd"/><path class="fn-svg-icon" fill-rule="evenodd" d="M3.00002 7C3.00002 4.79086 4.79088 3 7.00002 3 7.46512 3 7.91374 3.0798 8.33159 3.22727 8.85239 3.41109 9.12557 3.98229 8.94175 4.50309 8.75794 5.02389 8.18674 5.29707 7.66594 5.11325 7.45894 5.04019 7.23525 5 7.00002 5 5.89545 5 5.00002 5.89543 5.00002 7 5.00002 8.10457 5.89545 9 7.00002 9 7.5523 9 8.00002 9.44772 8.00002 10 8.00002 10.5523 7.5523 11 7.00002 11 4.79088 11 3.00002 9.20914 3.00002 7ZM13 10C13 9.44772 13.4477 9 14 9H18C20.7614 9 23 11.2386 23 14V16C23 16.5523 22.5523 17 22 17 21.4477 17 21 16.5523 21 16V14C21 12.3431 19.6569 11 18 11H14C13.4477 11 13 10.5523 13 10Z" clip-rule="evenodd"/><path class="fn-svg-icon" fill-rule="evenodd" d="M16.9988 5C16.7635 5 16.5398 5.04019 16.3328 5.11325C15.812 5.29707 15.2408 5.02389 15.057 4.50309C14.8732 3.98229 15.1464 3.41109 15.6672 3.22727C16.085 3.0798 16.5337 3 16.9988 3C19.2079 3 20.9988 4.79086 20.9988 7C20.9988 9.20914 19.2079 11 16.9988 11C16.4465 11 15.9988 10.5523 15.9988 10C15.9988 9.44772 16.4465 9 16.9988 9C18.1033 9 18.9988 8.10457 18.9988 7C18.9988 5.89543 18.1033 5 16.9988 5Z" clip-rule="evenodd"/><path class="fn-svg-icon" fill-rule="evenodd" d="M12 11C8.26669 11 7.00002 12.8 7.00002 14C7.00002 14.5523 6.5523 15 6.00002 15C5.44773 15 5.00002 14.5523 5.00002 14C5.00002 11.2 7.73335 9 12 9C16.2667 9 19 11.2 19 14C19 14.5523 18.5523 15 18 15C17.4477 15 17 14.5523 17 14C17 12.8 15.7334 11 12 11Z" clip-rule="evenodd"/><path class="fn-svg-icon" fill-rule="evenodd" d="M7.00002 6C7.00002 3.23858 9.2386 1 12 1 14.7614 1 17 3.23858 17 6 17 8.76142 14.7614 11 12 11 9.2386 11 7.00002 8.76142 7.00002 6ZM12 3C10.3432 3 9.00002 4.34315 9.00002 6 9.00002 7.65685 10.3432 9 12 9 13.6569 9 15 7.65685 15 6 15 4.34315 13.6569 3 12 3ZM18.3211 18.1759C18.7743 18.4915 18.8859 19.1148 18.5703 19.568 17.1267 21.6411 14.7228 23.0011 12.0011 23.0011 9.28328 23.0011 6.88233 21.6449 5.43812 19.5768L7.07787 18.4317C8.16402 19.987 9.96423 21.0011 12.0011 21.0011 14.0409 21.0011 15.8433 19.9842 16.929 18.4251 17.2446 17.9719 17.8679 17.8603 18.3211 18.1759Z" clip-rule="evenodd"/><path class="fn-svg-icon" fill-rule="evenodd" d="M19 21V18H16" clip-rule="evenodd"/><path class="fn-svg-icon" fill-rule="evenodd" d="M15 18C15 17.4477 15.4477 17 16 17H19C19.5523 17 20 17.4477 20 18V21C20 21.5523 19.5523 22 19 22 18.4477 22 18 21.5523 18 21V19H16C15.4477 19 15 18.5523 15 18ZM8.00002 18H5.00002V21" clip-rule="evenodd"/><path class="fn-svg-icon" fill-rule="evenodd" d="M4.00002 18C4.00002 17.4477 4.44773 17 5.00002 17H8.00002C8.5523 17 9.00002 17.4477 9.00002 18C9.00002 18.5523 8.5523 19 8.00002 19H6.00002V21C6.00002 21.5523 5.5523 22 5.00002 22C4.44773 22 4.00002 21.5523 4.00002 21V18Z" clip-rule="evenodd"/></svg>
