<svg xmlns="http://www.w3.org/2000/svg" viewBox="0 0 24 24"><path class="fn-svg-icon" fill-rule="evenodd" d="M1 5C1 3.89543 1.89543 3 3 3H21C22.1046 3 23 3.89543 23 5V19C23 20.1046 22.1046 21 21 21H3C1.89543 21 1 20.1046 1 19V5ZM21 5H3V19H21V5Z" clip-rule="evenodd"/><path class="fn-svg-icon" fill-rule="evenodd" d="M21 3C21.5523 3 22 3.44772 22 4V20C22 20.5523 21.5523 21 21 21 20.4477 21 20 20.5523 20 20V4C20 3.44772 20.4477 3 21 3ZM3 3C3.55228 3 4 3.44772 4 4V20C4 20.5523 3.55228 21 3 21 2.44772 21 2 20.5523 2 20V4C2 3.44772 2.44772 3 3 3Z" clip-rule="evenodd"/></svg>
