<svg xmlns="http://www.w3.org/2000/svg" viewBox="0 0 24 24"><path class="fn-svg-icon" fill-rule="evenodd" d="M12 3C12.5523 3 13 3.44772 13 4V10C13 10.5523 12.5523 11 12 11C11.4477 11 11 10.5523 11 10V4C11 3.44772 11.4477 3 12 3Z" clip-rule="evenodd"/><path class="fn-svg-icon" fill-rule="evenodd" d="M11.2929 2.29289C11.6834 1.90237 12.3166 1.90237 12.7071 2.29289L15.7071 5.29289C15.9931 5.57889 16.0787 6.00901 15.9239 6.38268 15.7691 6.75636 15.4045 7 15 7H9C8.59554 7 8.2309 6.75636 8.07612 6.38268 7.92134 6.00901 8.0069 5.57889 8.29289 5.29289L11.2929 2.29289ZM9 12C9.55228 12 10 12.4477 10 13 10 14.1046 10.8954 15 12 15 13.1046 15 14 14.1046 14 13 14 12.4477 14.4477 12 15 12 15.5523 12 16 12.4477 16 13 16 15.2091 14.2091 17 12 17 9.79086 17 8 15.2091 8 13 8 12.4477 8.44772 12 9 12Z" clip-rule="evenodd"/><path class="fn-svg-icon" fill-rule="evenodd" d="M6 5C5.44772 5 5 5.44772 5 6V18C5 18.5523 5.44772 19 6 19H18C18.5523 19 19 18.5523 19 18V6C19 5.44772 18.5523 5 18 5C17.4477 5 17 4.55228 17 4C17 3.44772 17.4477 3 18 3C19.6569 3 21 4.34315 21 6V18C21 19.6569 19.6569 21 18 21H6C4.34315 21 3 19.6569 3 18V6C3 4.34315 4.34315 3 6 3C6.55228 3 7 3.44772 7 4C7 4.55228 6.55228 5 6 5Z" clip-rule="evenodd"/><path class="fn-svg-icon" fill-rule="evenodd" d="M3 13C3 12.4477 3.44772 12 4 12H9C9.55228 12 10 12.4477 10 13 10 13.5523 9.55228 14 9 14H4C3.44772 14 3 13.5523 3 13ZM14 13C14 12.4477 14.4477 12 15 12H20C20.5523 12 21 12.4477 21 13 21 13.5523 20.5523 14 20 14H15C14.4477 14 14 13.5523 14 13Z" clip-rule="evenodd"/></svg>
