<svg xmlns="http://www.w3.org/2000/svg" viewBox="0 0 24 24"><path class="fn-svg-icon" fill-rule="evenodd" d="M14 9C14 8.44772 14.4477 8 15 8H18C19.1046 8 20 8.89543 20 10V12C20 13.1046 19.1046 14 18 14H16V16H19C19.5523 16 20 16.4477 20 17 20 17.5523 19.5523 18 19 18H15C14.4477 18 14 17.5523 14 17V14C14 12.8954 14.8954 12 16 12H18V10H15C14.4477 10 14 9.55228 14 9ZM5 6C5.55228 6 6 6.44772 6 7V17C6 17.5523 5.55228 18 5 18 4.44772 18 4 17.5523 4 17V7C4 6.44772 4.44772 6 5 6ZM11 6C11.5523 6 12 6.44772 12 7V17C12 17.5523 11.5523 18 11 18 10.4477 18 10 17.5523 10 17V7C10 6.44772 10.4477 6 11 6Z" clip-rule="evenodd"/><path class="fn-svg-icon" fill-rule="evenodd" d="M4 12C4 11.4477 4.44772 11 5 11H11C11.5523 11 12 11.4477 12 12C12 12.5523 11.5523 13 11 13H5C4.44772 13 4 12.5523 4 12Z" clip-rule="evenodd"/></svg>
