<svg xmlns="http://www.w3.org/2000/svg" viewBox="0 0 24 24"><path class="fn-svg-icon" fill-rule="evenodd" d="M3.47424 6.14935C3.76906 5.96714 4.1372 5.95058 4.44719 6.10557L10.4472 9.10557C10.6028 9.1834 10.7355 9.3005 10.832 9.4453L12.832 12.4453C12.9415 12.6096 13 12.8026 13 13V21C13 21.3466 12.8205 21.6684 12.5257 21.8507C12.2309 22.0329 11.8627 22.0494 11.5528 21.8944L3.55276 17.8944C3.21398 17.725 2.99997 17.3788 2.99997 17V7C2.99997 6.65342 3.17943 6.33156 3.47424 6.14935ZM4.99997 8.61803V16.382L11 19.382V13.3028L9.31523 10.7757L4.99997 8.61803Z" clip-rule="evenodd"/><path class="fn-svg-icon" fill-rule="evenodd" d="M7.55276 4.10557C7.83429 3.96481 8.16566 3.96481 8.44719 4.10557L14.4472 7.10557C14.6028 7.1834 14.7355 7.3005 14.832 7.4453L16.832 10.4453C16.9415 10.6096 17 10.8026 17 11V19C17 19.3788 16.786 19.725 16.4472 19.8944L12.4472 21.8944C11.9532 22.1414 11.3525 21.9412 11.1055 21.4472C10.8586 20.9532 11.0588 20.3526 11.5528 20.1056L15 18.382V11.3028L13.3152 8.77566L7.99997 6.11803L4.44719 7.89443C3.95321 8.14142 3.35254 7.94119 3.10555 7.44721C2.85856 6.95324 3.05878 6.35256 3.55276 6.10557L7.55276 4.10557Z" clip-rule="evenodd"/><path class="fn-svg-icon" fill-rule="evenodd" d="M11.5528 2.10557C11.8343 1.96481 12.1657 1.96481 12.4472 2.10557L18.4472 5.10557C18.6028 5.1834 18.7355 5.3005 18.832 5.4453L20.832 8.4453C20.9415 8.60957 21 8.80258 21 9V17C21 17.3788 20.786 17.725 20.4472 17.8944L16.4472 19.8944C15.9532 20.1414 15.3525 19.9412 15.1055 19.4472C14.8586 18.9532 15.0588 18.3526 15.5528 18.1056L19 16.382V9.30278L17.3152 6.77566L12 4.11803L8.44719 5.89443C7.95321 6.14142 7.35254 5.94119 7.10555 5.44721C6.85856 4.95324 7.05878 4.35256 7.55276 4.10557L11.5528 2.10557Z" clip-rule="evenodd"/><path class="fn-svg-icon" fill-rule="evenodd" d="M9.99998 9C10.5523 9 11 9.44772 11 10V11.382L12.4472 12.1056C12.9412 12.3526 13.1414 12.9532 12.8944 13.4472 12.6474 13.9412 12.0467 14.1414 11.5528 13.8944L9.55276 12.8944C9.21398 12.725 8.99998 12.3788 8.99998 12V10C8.99998 9.44772 9.44769 9 9.99998 9ZM14 7C14.5523 7 15 7.44772 15 8V9.38197L16.4472 10.1056C16.9412 10.3526 17.1414 10.9532 16.8944 11.4472 16.6474 11.9412 16.0467 12.1414 15.5528 11.8944L13.5528 10.8944C13.214 10.725 13 10.3788 13 10V8C13 7.44772 13.4477 7 14 7ZM18 5C18.5523 5 19 5.44772 19 6V7.38197L20.4472 8.10557C20.9412 8.35256 21.1414 8.95324 20.8944 9.44721 20.6474 9.94119 20.0467 10.1414 19.5528 9.89443L17.5528 8.89443C17.214 8.72504 17 8.37877 17 8V6C17 5.44772 17.4477 5 18 5Z" clip-rule="evenodd"/></svg>
