<svg xmlns="http://www.w3.org/2000/svg" viewBox="0 0 24 24"><path class="fn-svg-icon" fill-rule="evenodd" d="M14 4C14 3.44772 14.4477 3 15 3H19C19.5523 3 20 3.44772 20 4V9C20 9.55228 19.5523 10 19 10 18.4477 10 18 9.55228 18 9V5H15C14.4477 5 14 4.55228 14 4ZM4 4C4 3.44772 4.44772 3 5 3H9C9.55228 3 10 3.44772 10 4 10 4.55228 9.55228 5 9 5H6V19H11C11.5523 19 12 19.4477 12 20 12 20.5523 11.5523 21 11 21H5C4.44772 21 4 20.5523 4 20V4Z" clip-rule="evenodd"/><path class="fn-svg-icon" fill-rule="evenodd" d="M8 2C8 1.44772 8.44772 1 9 1H15C15.5523 1 16 1.44772 16 2V6C16 6.55228 15.5523 7 15 7H9C8.44772 7 8 6.55228 8 6V2ZM10 3V5H14V3H10ZM8 10C8 9.44772 8.44772 9 9 9H14C14.5523 9 15 9.44772 15 10 15 10.5523 14.5523 11 14 11H9C8.44772 11 8 10.5523 8 10ZM8 13C8 12.4477 8.44772 12 9 12H12C12.5523 12 13 12.4477 13 13 13 13.5523 12.5523 14 12 14H9C8.44772 14 8 13.5523 8 13ZM8 16C8 15.4477 8.44772 15 9 15H11C11.5523 15 12 15.4477 12 16 12 16.5523 11.5523 17 11 17H9C8.44772 17 8 16.5523 8 16ZM16.5 15C16.2239 15 16 15.2239 16 15.5 16 15.7761 16.2239 16 16.5 16H17.5C18.8807 16 20 17.1193 20 18.5 20 19.8807 18.8807 21 17.5 21H15C14.4477 21 14 20.5523 14 20 14 19.4477 14.4477 19 15 19H17.5C17.7761 19 18 18.7761 18 18.5 18 18.2239 17.7761 18 17.5 18H16.5C15.1193 18 14 16.8807 14 15.5 14 14.1193 15.1193 13 16.5 13H19C19.5523 13 20 13.4477 20 14 20 14.5523 19.5523 15 19 15H16.5Z" clip-rule="evenodd"/><path class="fn-svg-icon" fill-rule="evenodd" d="M17 11C17.5523 11 18 11.4477 18 12V13C18 13.5523 17.5523 14 17 14 16.4477 14 16 13.5523 16 13V12C16 11.4477 16.4477 11 17 11ZM17 20C17.5523 20 18 20.4477 18 21V22C18 22.5523 17.5523 23 17 23 16.4477 23 16 22.5523 16 22V21C16 20.4477 16.4477 20 17 20Z" clip-rule="evenodd"/></svg>
