<svg xmlns="http://www.w3.org/2000/svg" viewBox="0 0 24 24"><path class="fn-svg-icon" fill-rule="evenodd" d="M5 5C5 3.34315 6.34315 2 8 2H16C17.6569 2 19 3.34315 19 5V19C19 20.6569 17.6569 22 16 22H8C6.34315 22 5 20.6569 5 19V5ZM8 4C7.44772 4 7 4.44772 7 5V19C7 19.5523 7.44772 20 8 20H16C16.5523 20 17 19.5523 17 19V5C17 4.44772 16.5523 4 16 4H8Z" clip-rule="evenodd"/><path class="fn-svg-icon" fill-rule="evenodd" d="M7 3C7 2.44772 7.44772 2 8 2H8.76393C9.90025 2 10.939 2.64201 11.4472 3.65836L11.618 4H12.382L12.5528 3.65836C13.061 2.64201 14.0998 2 15.2361 2H16C16.5523 2 17 2.44772 17 3C17 3.55228 16.5523 4 16 4H15.2361C14.8573 4 14.511 4.214 14.3416 4.55279L13.8944 5.44721C13.725 5.786 13.3788 6 13 6H11C10.6212 6 10.275 5.786 10.1056 5.44721L9.65836 4.55279C9.48897 4.214 9.1427 4 8.76393 4H8C7.44772 4 7 3.55228 7 3Z" clip-rule="evenodd"/></svg>
