<svg xmlns="http://www.w3.org/2000/svg" viewBox="0 0 24 24"><path class="fn-svg-icon" fill-rule="evenodd" d="M21.4719 3.11842C21.7971 3.29245 22 3.63128 22 4.00005V18C22 18.3688 21.797 18.7077 21.4719 18.8817C21.1469 19.0557 20.7525 19.0367 20.4456 18.8323L20.4431 18.8306L20.4322 18.8234L20.3855 18.7928C20.3435 18.7654 20.2802 18.7245 20.1975 18.6719C20.0321 18.5667 19.7896 18.4151 19.4853 18.2326C18.8759 17.8671 18.0237 17.3802 17.052 16.8945C15.5287 16.1329 13.8167 15.4286 12.3155 15.139L12.9701 17.7575C13.0553 18.0983 12.9555 18.4588 12.7071 18.7072L10.7071 20.7072C10.4798 20.9344 10.1571 21.0386 9.83982 20.9871C9.52252 20.9356 9.24933 20.7348 9.10557 20.4473L6.38197 15H6C3.79086 15 2 13.2092 2 11C2 8.79091 3.79086 7.00005 6 7.00005H11C12.7439 7.00005 15.0593 6.10173 17.0519 5.10559C18.0236 4.61985 18.8758 4.13303 19.4853 3.76748C19.7895 3.58498 20.0321 3.43338 20.1975 3.32817C20.2802 3.27558 20.3435 3.23463 20.3855 3.20726L20.4322 3.17665L20.4431 3.16945L20.4454 3.16795L20.9274 3.14469M20 5.78561C19.4264 6.1179 18.7236 6.5059 17.9462 6.8945C15.9382 7.89836 13.2536 9.00005 11 9.00005H6C4.89543 9.00005 4 9.89548 4 11C4 12.1046 4.89543 13 6 13H7C7.37877 13 7.72504 13.214 7.89443 13.5528L10.274 18.3119L10.8925 17.6933L10.0299 14.2426C9.95517 13.9438 10.0223 13.6273 10.2118 13.3846C10.4013 13.1419 10.6921 13 11 13C13.2538 13 15.9384 14.1017 17.9464 15.1056C18.7236 15.4942 19.4264 15.8822 20 16.2145V5.78561ZM21.4719 3.11842C21.1469 2.94442 20.7522 2.96357 20.4454 3.16795L21.4719 3.11842Z" clip-rule="evenodd"/><path class="fn-svg-icon" fill-rule="evenodd" d="M11 7.00005C11.5523 7.00005 12 7.44776 12 8.00005V14C12 14.5523 11.5523 15 11 15C10.4477 15 10 14.5523 10 14V8.00005C10 7.44776 10.4477 7.00005 11 7.00005Z" clip-rule="evenodd"/></svg>
