<svg xmlns="http://www.w3.org/2000/svg" viewBox="0 0 24 24"><path class="fn-svg-icon" fill-rule="evenodd" d="M7.29289 4.29289C7.68342 3.90237 8.31658 3.90237 8.70711 4.29289L12 7.58579L15.2929 4.29289C15.6834 3.90237 16.3166 3.90237 16.7071 4.29289C17.0976 4.68342 17.0976 5.31658 16.7071 5.70711L12.7071 9.70711C12.3166 10.0976 11.6834 10.0976 11.2929 9.70711L7.29289 5.70711C6.90237 5.31658 6.90237 4.68342 7.29289 4.29289Z" clip-rule="evenodd"/><path class="fn-svg-icon" fill-rule="evenodd" d="M7.29289 9.29289C7.68342 8.90237 8.31658 8.90237 8.70711 9.29289L12 12.5858L15.2929 9.29289C15.6834 8.90237 16.3166 8.90237 16.7071 9.29289C17.0976 9.68342 17.0976 10.3166 16.7071 10.7071L12.7071 14.7071C12.3166 15.0976 11.6834 15.0976 11.2929 14.7071L7.29289 10.7071C6.90237 10.3166 6.90237 9.68342 7.29289 9.29289Z" clip-rule="evenodd"/><path class="fn-svg-icon" fill-rule="evenodd" d="M7.29289 14.2929C7.68342 13.9024 8.31658 13.9024 8.70711 14.2929L12 17.5858L15.2929 14.2929C15.6834 13.9024 16.3166 13.9024 16.7071 14.2929C17.0976 14.6834 17.0976 15.3166 16.7071 15.7071L12.7071 19.7071C12.3166 20.0976 11.6834 20.0976 11.2929 19.7071L7.29289 15.7071C6.90237 15.3166 6.90237 14.6834 7.29289 14.2929Z" clip-rule="evenodd"/></svg>
