<svg xmlns="http://www.w3.org/2000/svg" viewBox="0 0 24 24"><path class="fn-svg-icon" fill-rule="evenodd" d="M3 6C3 4.34315 4.34315 3 6 3H18C19.6569 3 21 4.34315 21 6V18C21 19.6569 19.6569 21 18 21H6C4.34315 21 3 19.6569 3 18V6ZM6 5C5.44772 5 5 5.44772 5 6V18C5 18.5523 5.44772 19 6 19H18C18.5523 19 19 18.5523 19 18V6C19 5.44772 18.5523 5 18 5H6Z" clip-rule="evenodd"/><path class="fn-svg-icon" fill-rule="evenodd" d="M15.5 10C16.3284 10 17 9.32843 17 8.5 17 7.67157 16.3284 7 15.5 7 14.6716 7 14 7.67157 14 8.5 14 9.32843 14.6716 10 15.5 10ZM8.80205 11.0198C9.18019 10.9434 9.56854 11.0914 9.8 11.4L12.2324 14.6432 14.4453 13.1679C14.684 13.0088 14.9794 12.9599 15.2567 13.0335 15.5339 13.1071 15.7662 13.2962 15.8944 13.5528L16.8944 15.5528C17.0494 15.8628 17.0329 16.2309 16.8507 16.5257 16.6684 16.8205 16.3466 17 16 17H12.0126C12.0047 17.0001 11.9968 17.0001 11.9889 17H8C7.69206 17 7.4013 16.8581 7.21179 16.6154 7.02229 16.3727 6.95517 16.0562 7.02986 15.7575L8.02986 11.7575C8.12342 11.3832 8.42392 11.0961 8.80205 11.0198Z" clip-rule="evenodd"/></svg>
