<svg xmlns="http://www.w3.org/2000/svg" viewBox="0 0 24 24"><path class="fn-svg-icon" fill-rule="evenodd" d="M12 16C12.5523 16 13 16.4477 13 17V22C13 22.5523 12.5523 23 12 23 11.4477 23 11 22.5523 11 22V17C11 16.4477 11.4477 16 12 16ZM16 14C16.5523 14 17 14.4477 17 15V20C17 20.5523 16.5523 21 16 21 15.4477 21 15 20.5523 15 20V15C15 14.4477 15.4477 14 16 14ZM8 14C8.55228 14 9 14.4477 9 15V20C9 20.5523 8.55228 21 8 21 7.44772 21 7 20.5523 7 20V15C7 14.4477 7.44772 14 8 14ZM21.4002 8.20084C21.8419 7.86921 22.4687 7.95837 22.8004 8.4 23.5534 9.40279 24 10.6507 24 12 24 14.4606 22.519 16.573 20.4039 17.4988 19.898 17.7202 19.3083 17.4896 19.0868 16.9836 18.8654 16.4777 19.096 15.888 19.602 15.6666 21.0155 15.0479 22 13.6378 22 12 22 11.0985 21.703 10.2693 21.2011 9.60096 20.8695 9.15933 20.9586 8.53248 21.4002 8.20084Z" clip-rule="evenodd"/><path class="fn-svg-icon" fill-rule="evenodd" d="M12 4C9.23858 4 7 6.23858 7 9C7 9.55228 6.55228 10 6 10H5C3.34315 10 2 11.3431 2 13C2 14.3975 2.95644 15.5741 4.25191 15.9062C4.78689 16.0434 5.10938 16.5883 4.97221 17.1233C4.83504 17.6582 4.29016 17.9807 3.75518 17.8436C1.5966 17.2901 0 15.3328 0 13C0 10.2386 2.23858 8 5 8H5.07089C5.55612 4.60771 8.47353 2 12 2C13.4327 2 14.7677 2.43152 15.8784 3.17187C16.3379 3.4782 16.4621 4.09906 16.1558 4.55861C15.8495 5.01815 15.2286 5.14235 14.7691 4.83602C13.9767 4.30785 13.0258 4 12 4Z" clip-rule="evenodd"/><path class="fn-svg-icon" fill-rule="evenodd" d="M20.7071 4.29289C21.0976 4.68342 21.0976 5.31658 20.7071 5.70711L14.7071 11.7071C14.3166 12.0976 13.6834 12.0976 13.2929 11.7071L11.2929 9.70711C10.9024 9.31658 10.9024 8.68342 11.2929 8.29289C11.6834 7.90237 12.3166 7.90237 12.7071 8.29289L14 9.58579L19.2929 4.29289C19.6834 3.90237 20.3166 3.90237 20.7071 4.29289Z" clip-rule="evenodd"/></svg>
