<svg xmlns="http://www.w3.org/2000/svg" viewBox="0 0 24 24"><path class="fn-svg-icon" fill-rule="evenodd" d="M3 4C3 3.44772 3.44772 3 4 3H20C20.5523 3 21 3.44772 21 4V14C21 15.6569 19.6569 17 18 17H6C4.34315 17 3 15.6569 3 14V4ZM5 5V14C5 14.5523 5.44772 15 6 15H18C18.5523 15 19 14.5523 19 14V5H5Z" clip-rule="evenodd"/><path class="fn-svg-icon" fill-rule="evenodd" d="M10.2425 15.0299C10.7783 15.1638 11.1041 15.7067 10.9701 16.2425L9.97014 20.2425C9.83619 20.7783 9.29326 21.1041 8.75746 20.9701 8.22167 20.8362 7.89591 20.2933 8.02986 19.7575L9.02986 15.7575C9.16381 15.2217 9.70674 14.8959 10.2425 15.0299ZM13.7575 15.0299C14.2933 14.8959 14.8362 15.2217 14.9701 15.7575L15.9701 19.7575C16.1041 20.2933 15.7783 20.8362 15.2425 20.9701 14.7067 21.1041 14.1638 20.7783 14.0299 20.2425L13.0299 16.2425C12.8959 15.7067 13.2217 15.1638 13.7575 15.0299ZM7 9C7 8.44772 7.44772 8 8 8H16C16.5523 8 17 8.44772 17 9 17 9.55228 16.5523 10 16 10H8C7.44772 10 7 9.55228 7 9ZM2 4C2 3.44772 2.44772 3 3 3H21C21.5523 3 22 3.44772 22 4V5C22 5.55228 21.5523 6 21 6H3C2.44772 6 2 5.55228 2 5V4Z" clip-rule="evenodd"/><path class="fn-svg-icon" fill-rule="evenodd" d="M6 20C6 19.4477 6.44772 19 7 19H17C17.5523 19 18 19.4477 18 20C18 20.5523 17.5523 21 17 21H7C6.44772 21 6 20.5523 6 20Z" clip-rule="evenodd"/></svg>
