<svg xmlns="http://www.w3.org/2000/svg" viewBox="0 0 24 24"><path class="fn-svg-icon" fill-rule="evenodd" d="M13.5528 8.10557C13.79 7.98696 14.0646 7.96745 14.3162 8.05132L20.3162 10.0513C20.7246 10.1874 21 10.5696 21 11V19C21 19.5523 20.5523 20 20 20C19.4477 20 19 19.5523 19 19V11.7208L14.0767 10.0797L10.4472 11.8944C9.95323 12.1414 9.35256 11.9412 9.10557 11.4472C8.85858 10.9532 9.05881 10.3526 9.55279 10.1056L13.5528 8.10557Z" clip-rule="evenodd"/><path class="fn-svg-icon" fill-rule="evenodd" d="M9.41529 10.1888C9.67606 10.0008 10.0113 9.94967 10.3162 10.0513L16.3162 12.0513C16.7246 12.1874 17 12.5696 17 13V21C17 21.3214 16.8455 21.6233 16.5847 21.8112C16.3239 21.9992 15.9887 22.0503 15.6838 21.9487L9.68377 19.9487C9.27543 19.8126 9 19.4304 9 19V11C9 10.6786 9.15452 10.3767 9.41529 10.1888ZM11 12.3874V18.2792L15 19.6126V13.7208L11 12.3874Z" clip-rule="evenodd"/><path class="fn-svg-icon" fill-rule="evenodd" d="M9.29289 2.29289C9.48043 2.10536 9.73478 2 10 2H18C18.5523 2 19 2.44772 19 3V6C19 6.55228 18.5523 7 18 7C17.4477 7 17 6.55228 17 6V4H10.4142L5 9.41421V20H7C7.55228 20 8 20.4477 8 21C8 21.5523 7.55228 22 7 22H4C3.44772 22 3 21.5523 3 21V9C3 8.73478 3.10536 8.48043 3.29289 8.29289L9.29289 2.29289Z" clip-rule="evenodd"/><path class="fn-svg-icon" fill-rule="evenodd" d="M5 9H8C9.10457 9 10 8.10457 10 7V4" clip-rule="evenodd"/></svg>
