<svg xmlns="http://www.w3.org/2000/svg" viewBox="0 0 24 24"><path class="fn-svg-icon" fill-rule="evenodd" d="M7.00004 19C8.10461 19 9.00004 18.1046 9.00004 17 9.00004 15.8954 8.10461 15 7.00004 15 5.89548 15 5.00004 15.8954 5.00004 17 5.00004 18.1046 5.89548 19 7.00004 19ZM5.83159 10.0972C6.2122 10.0332 6.60262 10 7.00005 10 10.866 10 14 13.134 14 17 14 17.3965 13.967 17.786 13.9033 18.1657 13.8119 18.7104 13.2962 19.0778 12.7516 18.9864 12.2069 18.895 11.8394 18.3794 11.9308 17.8347 11.9763 17.5639 12 17.2851 12 17 12 14.2386 9.76147 12 7.00005 12 6.71424 12 6.43479 12.0239 6.16336 12.0695 5.61873 12.1612 5.10294 11.7939 5.01133 11.2493 4.91971 10.7046 5.28695 10.1889 5.83159 10.0972Z" clip-rule="evenodd"/><path class="fn-svg-icon" fill-rule="evenodd" d="M5.91506 5.04845C6.27267 5.01637 6.63457 5 7.00004 5C13.6275 5 19 10.3726 19 17C19 17.3685 18.9834 17.7334 18.9508 18.0939C18.901 18.644 18.4148 19.0495 17.8648 18.9998C17.3147 18.95 16.9092 18.4638 16.9589 17.9137C16.9861 17.613 17 17.3083 17 17C17 11.4772 12.5229 7 7.00004 7C6.69432 7 6.39204 7.01369 6.09377 7.04045C5.54369 7.0898 5.05776 6.68388 5.00841 6.13381C4.95906 5.58373 5.36498 5.0978 5.91506 5.04845Z" clip-rule="evenodd"/></svg>
