<svg xmlns="http://www.w3.org/2000/svg" viewBox="0 0 24 24"><path class="fn-svg-icon" fill-rule="evenodd" d="M11.2929 2.29289C11.6834 1.90237 12.3166 1.90237 12.7071 2.29289L15.7071 5.29289C16.0976 5.68342 16.0976 6.31658 15.7071 6.70711 15.3166 7.09763 14.6834 7.09763 14.2929 6.70711L12 4.41421 9.70711 6.70711C9.31658 7.09763 8.68342 7.09763 8.29289 6.70711 7.90237 6.31658 7.90237 5.68342 8.29289 5.29289L11.2929 2.29289ZM8.29289 17.2929C8.68342 16.9024 9.31658 16.9024 9.70711 17.2929L12 19.5858 14.2929 17.2929C14.6834 16.9024 15.3166 16.9024 15.7071 17.2929 16.0976 17.6834 16.0976 18.3166 15.7071 18.7071L12.7071 21.7071C12.3166 22.0976 11.6834 22.0976 11.2929 21.7071L8.29289 18.7071C7.90237 18.3166 7.90237 17.6834 8.29289 17.2929ZM3 10C3 9.44772 3.44772 9 4 9H20C20.5523 9 21 9.44772 21 10 21 10.5523 20.5523 11 20 11H4C3.44772 11 3 10.5523 3 10ZM3 14C3 13.4477 3.44772 13 4 13H20C20.5523 13 21 13.4477 21 14 21 14.5523 20.5523 15 20 15H4C3.44772 15 3 14.5523 3 14Z" clip-rule="evenodd"/></svg>
