<svg xmlns="http://www.w3.org/2000/svg" viewBox="0 0 24 24"><path class="fn-svg-icon" fill-rule="evenodd" d="M10.4283 9.25633C10.8401 9.62427 10.8757 10.2564 10.5078 10.6683C10.1912 11.0226 10 11.4878 10 12C10 13.1046 10.8954 14 12 14C12.5143 14 12.9812 13.8072 13.3361 13.4883C13.7469 13.1191 14.3791 13.1529 14.7483 13.5637C15.1174 13.9745 15.0837 14.6067 14.6729 14.9759C13.9652 15.6118 13.0267 16 12 16C9.79086 16 8 14.2091 8 12C8 10.9775 8.38496 10.0425 9.01628 9.33585C9.38423 8.92399 10.0164 8.88838 10.4283 9.25633Z" clip-rule="evenodd"/><path class="fn-svg-icon" fill-rule="evenodd" d="M2.29289 2.29289C2.68342 1.90237 3.31658 1.90237 3.70711 2.29289L21.7071 20.2929C22.0976 20.6834 22.0976 21.3166 21.7071 21.7071 21.3166 22.0976 20.6834 22.0976 20.2929 21.7071L2.29289 3.70711C1.90237 3.31658 1.90237 2.68342 2.29289 2.29289ZM9.78696 4.22903C10.5065 4.07585 11.2447 4 12 4 16.4797 4 20.0928 6.64744 22.8682 11.5038 23.0512 11.824 23.0431 12.2189 22.8472 12.5313 21.9503 13.9613 21.2272 15.0146 20.6901 15.6478 20.3328 16.069 19.7017 16.1208 19.2806 15.7635 18.8594 15.4062 18.8076 14.7752 19.1649 14.354 19.5471 13.9034 20.099 13.1221 20.8286 11.9809 18.3331 7.864 15.3817 6 12 6 11.3794 6 10.781 6.06223 10.2034 6.18519 9.66324 6.3002 9.13211 5.95552 9.01711 5.41534 8.90211 4.87517 9.24678 4.34404 9.78696 4.22903Z" clip-rule="evenodd"/><path class="fn-svg-icon" fill-rule="evenodd" d="M6.95538 6.39467C7.28916 6.83468 7.20305 7.46196 6.76304 7.79574C5.94681 8.41492 4.75893 9.79204 3.18596 12.0431C5.67817 16.1432 8.62467 18 12 18C13.6171 18 15.1023 17.5777 16.4761 16.7276C16.9458 16.437 17.5621 16.5821 17.8527 17.0517C18.1433 17.5214 17.9982 18.1377 17.5285 18.4283C15.8383 19.4742 13.9886 20 12 20C7.52007 20 3.90695 17.3526 1.13176 12.4962C0.941655 12.1635 0.958358 11.7514 1.17477 11.4352C2.92549 8.87719 4.39089 7.08488 5.5543 6.20233C5.99431 5.86855 6.62159 5.95466 6.95538 6.39467Z" clip-rule="evenodd"/></svg>
