<svg xmlns="http://www.w3.org/2000/svg" viewBox="0 0 24 24"><path class="fn-svg-icon" fill-rule="evenodd" d="M7.02379 6.00028C7.49141 6.01141 7.88885 6.34521 7.98058 6.80388L9.32086 13.5053L10.0715 11.6286C10.2234 11.249 10.5911 11 11 11C11.4089 11 11.7766 11.249 11.9285 11.6286L13.3652 15.2205L14.2929 14.2929C14.6834 13.9024 15.3166 13.9024 15.7071 14.2929L17 15.5858L18.2929 14.2929C18.4804 14.1054 18.7348 14 19 14H21C21.5523 14 22 14.4477 22 15C22 15.5523 21.5523 16 21 16H19.4142L17.7071 17.7071C17.3166 18.0976 16.6834 18.0976 16.2929 17.7071L15 16.4142L13.7071 17.7071C13.4694 17.9448 13.1282 18.0472 12.7989 17.9796C12.4697 17.912 12.1964 17.6835 12.0715 17.3714L11 14.6926L9.92848 17.3714C9.76412 17.7823 9.34925 18.0363 8.90857 17.9958C8.46789 17.9554 8.10621 17.6301 8.01942 17.1961L6.89157 11.5568L5.97014 15.2425C5.85885 15.6877 5.45887 16 5 16H3C2.44772 16 2 15.5523 2 15C2 14.4477 2.44772 14 3 14H4.21922L6.02986 6.75746C6.1433 6.30367 6.55617 5.98916 7.02379 6.00028Z" clip-rule="evenodd"/><path class="fn-svg-icon" fill-rule="evenodd" d="M5 4C4.44772 4 4 4.44772 4 5V19C4 19.5523 4.44772 20 5 20H19C19.5523 20 20 19.5523 20 19V15C20 14.4477 20.4477 14 21 14C21.5523 14 22 14.4477 22 15V19C22 20.6569 20.6569 22 19 22H5C3.34315 22 2 20.6569 2 19V5C2 3.34315 3.34315 2 5 2H9C9.55228 2 10 2.44772 10 3C10 3.55228 9.55228 4 9 4H5Z" clip-rule="evenodd"/><path class="fn-svg-icon" fill-rule="evenodd" d="M15 1C15 0.447715 15.4477 0 16 0H20C20.5523 0 21 0.447715 21 1V3H23C23.5523 3 24 3.44772 24 4V8C24 8.55228 23.5523 9 23 9H21V11C21 11.5523 20.5523 12 20 12H16C15.4477 12 15 11.5523 15 11V9H13C12.4477 9 12 8.55228 12 8V4C12 3.44772 12.4477 3 13 3H15V1ZM17 2V4C17 4.55228 16.5523 5 16 5H14V7H16C16.5523 7 17 7.44772 17 8V10H19V8C19 7.44772 19.4477 7 20 7H22V5H20C19.4477 5 19 4.55228 19 4V2H17Z" clip-rule="evenodd"/></svg>
