<svg xmlns="http://www.w3.org/2000/svg" viewBox="0 0 24 24"><path class="fn-svg-icon" fill-rule="evenodd" d="M11.5939 2.08619C11.8524 1.97127 12.1476 1.97127 12.4061 2.08619L20.2184 5.55831C21.3018 6.03981 22 7.11418 22 8.29975V19C22 20.6569 20.6569 22 19 22H5C3.34315 22 2 20.6569 2 19V8.29975C2 7.11418 2.6982 6.03982 3.78158 5.55831L11.5939 2.08619ZM12 4.09432L4.59386 7.38593C4.23273 7.54644 4 7.90456 4 8.29975V19C4 19.5523 4.44772 20 5 20H19C19.5523 20 20 19.5523 20 19V8.29975C20 7.90456 19.7673 7.54644 19.4061 7.38593L12 4.09432Z" clip-rule="evenodd"/><path class="fn-svg-icon" fill-rule="evenodd" d="M11.5 11C11.2239 11 11 11.2239 11 11.5C11 11.7761 11.2239 12 11.5 12H12.5C13.8807 12 15 13.1193 15 14.5C15 15.8807 13.8807 17 12.5 17H10C9.44772 17 9 16.5523 9 16C9 15.4477 9.44772 15 10 15H12.5C12.7761 15 13 14.7761 13 14.5C13 14.2239 12.7761 14 12.5 14H11.5C10.1193 14 9 12.8807 9 11.5C9 10.1193 10.1193 9 11.5 9H14C14.5523 9 15 9.44772 15 10C15 10.5523 14.5523 11 14 11H11.5Z" clip-rule="evenodd"/><path class="fn-svg-icon" fill-rule="evenodd" d="M12 7C12.5523 7 13 7.44772 13 8V9C13 9.55228 12.5523 10 12 10 11.4477 10 11 9.55228 11 9V8C11 7.44772 11.4477 7 12 7ZM3.16795 8.4453C3.4743 7.98577 4.09517 7.8616 4.5547 8.16795L7.5547 10.1679C8.01423 10.4743 8.1384 11.0952 7.83205 11.5547 7.5257 12.0142 6.90483 12.1384 6.4453 11.8321L3.4453 9.83205C2.98577 9.5257 2.8616 8.90483 3.16795 8.4453ZM20.8321 8.4453C21.1384 8.90483 21.0142 9.5257 20.5547 9.83205L17.5547 11.8321C17.0952 12.1384 16.4743 12.0142 16.1679 11.5547 15.8616 11.0952 15.9858 10.4743 16.4453 10.1679L19.4453 8.16795C19.9048 7.8616 20.5257 7.98577 20.8321 8.4453ZM16.1679 17.4453C16.4743 16.9858 17.0952 16.8616 17.5547 17.1679L20.5547 19.1679C21.0142 19.4743 21.1384 20.0952 20.8321 20.5547 20.5257 21.0142 19.9048 21.1384 19.4453 20.8321L16.4453 18.8321C15.9858 18.5257 15.8616 17.9048 16.1679 17.4453ZM7.83205 17.4453C8.1384 17.9048 8.01423 18.5257 7.5547 18.8321L4.5547 20.8321C4.09517 21.1384 3.4743 21.0142 3.16795 20.5547 2.8616 20.0952 2.98577 19.4743 3.4453 19.1679L6.4453 17.1679C6.90483 16.8616 7.5257 16.9858 7.83205 17.4453ZM12 16C12.5523 16 13 16.4477 13 17V18C13 18.5523 12.5523 19 12 19 11.4477 19 11 18.5523 11 18V17C11 16.4477 11.4477 16 12 16Z" clip-rule="evenodd"/></svg>
