<svg xmlns="http://www.w3.org/2000/svg" viewBox="0 0 24 24"><path class="fn-svg-icon" fill-rule="evenodd" d="M6 13C4.34315 13 3 14.3431 3 16V17H6.00002C6.5523 17 7.00002 17.4477 7.00002 18C7.00002 18.5523 6.5523 19 6.00002 19H2C1.44772 19 1 18.5523 1 18V16C1 13.2386 3.23858 11 6 11H10C10.5523 11 11 11.4477 11 12C11 12.5523 10.5523 13 10 13H6Z" clip-rule="evenodd"/><path class="fn-svg-icon" fill-rule="evenodd" d="M3.00002 9C3.00002 6.79086 4.79088 5 7.00002 5 7.46512 5 7.91374 5.0798 8.33159 5.22727 8.85239 5.41109 9.12557 5.98229 8.94175 6.50309 8.75794 7.02389 8.18674 7.29707 7.66594 7.11325 7.45894 7.04019 7.23525 7 7.00002 7 5.89545 7 5.00002 7.89543 5.00002 9 5.00002 10.1046 5.89545 11 7.00002 11 7.5523 11 8.00002 11.4477 8.00002 12 8.00002 12.5523 7.5523 13 7.00002 13 4.79088 13 3.00002 11.2091 3.00002 9ZM13 12C13 11.4477 13.4477 11 14 11H18C20.7614 11 23 13.2386 23 16V18C23 18.5523 22.5523 19 22 19H18C17.4477 19 17 18.5523 17 18 17 17.4477 17.4477 17 18 17H21V16C21 14.3431 19.6569 13 18 13H14C13.4477 13 13 12.5523 13 12Z" clip-rule="evenodd"/><path class="fn-svg-icon" fill-rule="evenodd" d="M16.9988 7C16.7635 7 16.5398 7.04019 16.3328 7.11325C15.812 7.29707 15.2408 7.02389 15.057 6.50309C14.8732 5.98229 15.1464 5.41109 15.6672 5.22727C16.085 5.0798 16.5337 5 16.9988 5C19.2079 5 20.9988 6.79086 20.9988 9C20.9988 11.2091 19.2079 13 16.9988 13C16.4465 13 15.9988 12.5523 15.9988 12C15.9988 11.4477 16.4465 11 16.9988 11C18.1033 11 18.9988 10.1046 18.9988 9C18.9988 7.89543 18.1033 7 16.9988 7Z" clip-rule="evenodd"/><path class="fn-svg-icon" fill-rule="evenodd" d="M12 13C9.2386 13 7.00002 15.2386 7.00002 18V19H17L17 18C17 15.2386 14.7614 13 12 13ZM5.00002 18C5.00002 14.134 8.13403 11 12 11C15.866 11 19 14.134 19 18V20C19 20.5523 18.5523 21 18 21H6.00002C5.44773 21 5.00002 20.5523 5.00002 20V18Z" clip-rule="evenodd"/><path class="fn-svg-icon" fill-rule="evenodd" d="M7.00002 8C7.00002 5.23858 9.2386 3 12 3C14.7614 3 17 5.23858 17 8C17 10.7614 14.7614 13 12 13C9.2386 13 7.00002 10.7614 7.00002 8ZM12 5C10.3432 5 9.00002 6.34315 9.00002 8C9.00002 9.65685 10.3432 11 12 11C13.6569 11 15 9.65685 15 8C15 6.34315 13.6569 5 12 5Z" clip-rule="evenodd"/></svg>
