<svg xmlns="http://www.w3.org/2000/svg" viewBox="0 0 24 24"><path class="fn-svg-icon" fill-rule="evenodd" d="M3 6C3 4.34315 4.34315 3 6 3H18C19.6569 3 21 4.34315 21 6V18C21 19.6569 19.6569 21 18 21H6C4.34315 21 3 19.6569 3 18V6ZM6 5C5.44772 5 5 5.44772 5 6V18C5 18.5523 5.44772 19 6 19H18C18.5523 19 19 18.5523 19 18V6C19 5.44772 18.5523 5 18 5H6Z" clip-rule="evenodd"/><path class="fn-svg-icon" fill-rule="evenodd" d="M8 1C8.55228 1 9 1.44772 9 2V6C9 6.55228 8.55228 7 8 7 7.44772 7 7 6.55228 7 6V2C7 1.44772 7.44772 1 8 1ZM16 1C16.5523 1 17 1.44772 17 2V6C17 6.55228 16.5523 7 16 7 15.4477 7 15 6.55228 15 6V2C15 1.44772 15.4477 1 16 1ZM7 15.8C7 14.2536 8.2536 13 9.8 13H14.2C15.7464 13 17 14.2536 17 15.8V16C17 16.5523 16.5523 17 16 17H8C7.44772 17 7 16.5523 7 16V15.8ZM12 11C13.1046 11 14 10.1046 14 9 14 7.89543 13.1046 7 12 7 10.8954 7 10 7.89543 10 9 10 10.1046 10.8954 11 12 11Z" clip-rule="evenodd"/></svg>
