<svg xmlns="http://www.w3.org/2000/svg" viewBox="0 0 24 24"><path class="fn-svg-icon" fill-rule="evenodd" d="M14 11C14.5523 11 15 11.4477 15 12V18C15 18.5523 14.5523 19 14 19 13.4477 19 13 18.5523 13 18V12C13 11.4477 13.4477 11 14 11ZM18 5C18.5523 5 19 5.44772 19 6V18C19 18.5523 18.5523 19 18 19 17.4477 19 17 18.5523 17 18V6C17 5.44772 17.4477 5 18 5ZM10 8C10.5523 8 11 8.44772 11 9V18C11 18.5523 10.5523 19 10 19 9.44772 19 9 18.5523 9 18V9C9 8.44772 9.44772 8 10 8ZM6 14C6.55228 14 7 14.4477 7 15V18C7 18.5523 6.55228 19 6 19 5.44772 19 5 18.5523 5 18V15C5 14.4477 5.44772 14 6 14Z" clip-rule="evenodd"/></svg>
