<svg xmlns="http://www.w3.org/2000/svg" viewBox="0 0 24 24"><path class="fn-svg-icon" fill-rule="evenodd" d="M6 5C5.44772 5 5 5.44772 5 6V18C5 18.5523 5.44772 19 6 19H11C11.5523 19 12 19.4477 12 20C12 20.5523 11.5523 21 11 21H6C4.34315 21 3 19.6569 3 18V6C3 4.34315 4.34315 3 6 3H18C19.6569 3 21 4.34315 21 6V9C21 9.55228 20.5523 10 20 10C19.4477 10 19 9.55228 19 9V6C19 5.44772 18.5523 5 18 5H6Z" clip-rule="evenodd"/><path class="fn-svg-icon" fill-rule="evenodd" d="M3 10C3 9.44772 3.44772 9 4 9H13C13.5523 9 14 9.44772 14 10 14 10.5523 13.5523 11 13 11H4C3.44772 11 3 10.5523 3 10ZM15 1C15.5523 1 16 1.44772 16 2V6C16 6.55228 15.5523 7 15 7 14.4477 7 14 6.55228 14 6V2C14 1.44772 14.4477 1 15 1ZM9 1C9.55228 1 10 1.44772 10 2V6C10 6.55228 9.55228 7 9 7 8.44772 7 8 6.55228 8 6V2C8 1.44772 8.44772 1 9 1ZM16.5 14C16.2239 14 16 14.2239 16 14.5 16 14.7761 16.2239 15 16.5 15H17.5C18.8807 15 20 16.1193 20 17.5 20 18.8807 18.8807 20 17.5 20H15C14.4477 20 14 19.5523 14 19 14 18.4477 14.4477 18 15 18H17.5C17.7761 18 18 17.7761 18 17.5 18 17.2239 17.7761 17 17.5 17H16.5C15.1193 17 14 15.8807 14 14.5 14 13.1193 15.1193 12 16.5 12H19C19.5523 12 20 12.4477 20 13 20 13.5523 19.5523 14 19 14H16.5Z" clip-rule="evenodd"/><path class="fn-svg-icon" fill-rule="evenodd" d="M17 10C17.5523 10 18 10.4477 18 11V12C18 12.5523 17.5523 13 17 13 16.4477 13 16 12.5523 16 12V11C16 10.4477 16.4477 10 17 10ZM17 19C17.5523 19 18 19.4477 18 20V21C18 21.5523 17.5523 22 17 22 16.4477 22 16 21.5523 16 21V20C16 19.4477 16.4477 19 17 19Z" clip-rule="evenodd"/></svg>
