<svg xmlns="http://www.w3.org/2000/svg" viewBox="0 0 24 24"><path class="fn-svg-icon" fill-rule="evenodd" d="M2 12C2 6.47715 6.47715 2 12 2C16.3568 2 20.0603 4.78557 21.4318 8.66979C21.6157 9.19056 21.3426 9.7618 20.8218 9.94567C20.301 10.1296 19.7298 9.85644 19.5459 9.33567C18.4479 6.22588 15.4826 4 12 4C7.58172 4 4 7.58172 4 12C4 16.4183 7.58172 20 12 20C15.8065 20 18.9942 17.3405 19.8021 13.7774C19.9242 13.2388 20.4598 12.9011 20.9984 13.0232C21.5371 13.1454 21.8747 13.681 21.7526 14.2196C20.7427 18.6739 16.7609 22 12 22C6.47715 22 2 17.5228 2 12Z" clip-rule="evenodd"/><path class="fn-svg-icon" fill-rule="evenodd" d="M21 2C21.5523 2 22 2.44772 22 3V9C22 9.55228 21.5523 10 21 10H15C14.4477 10 14 9.55228 14 9C14 8.44772 14.4477 8 15 8H20V3C20 2.44772 20.4477 2 21 2Z" clip-rule="evenodd"/></svg>
