<svg xmlns="http://www.w3.org/2000/svg" viewBox="0 0 24 24"><path class="fn-svg-icon" fill-rule="evenodd" d="M12.0001 2C12.323 2 12.6261 2.15597 12.8138 2.41876L17.8138 9.41876C18.1348 9.86817 18.0307 10.4927 17.5813 10.8137C17.1319 11.1347 16.5073 11.0307 16.1863 10.5812L12.0001 4.72047L7.81379 10.5812C7.49278 11.0307 6.86823 11.1347 6.41882 10.8137C5.9694 10.4927 5.86531 9.86817 6.18632 9.41876L11.1863 2.41876C11.374 2.15597 11.6771 2 12.0001 2Z" clip-rule="evenodd"/><path class="fn-svg-icon" fill-rule="evenodd" d="M1.42843 11.5747C1.04346 10.2915 2.00436 9 3.34408 9H20.656C21.9958 9 22.9566 10.2915 22.5717 11.5747L20.3855 18.862C20.0048 20.131 18.8368 21 17.512 21H6.48811C5.16329 21 3.99532 20.131 3.61464 18.862L1.42843 11.5747ZM20.656 11H3.34408L5.53029 18.2873C5.65718 18.7103 6.04651 19 6.48811 19H17.512C17.9536 19 18.3429 18.7103 18.4698 18.2873L20.656 11Z" clip-rule="evenodd"/><path class="fn-svg-icon" fill-rule="evenodd" d="M12.0001 17C13.1046 17 14.0001 16.1046 14.0001 15C14.0001 13.8954 13.1046 13 12.0001 13C10.8955 13 10.0001 13.8954 10.0001 15C10.0001 16.1046 10.8955 17 12.0001 17Z" clip-rule="evenodd"/></svg>
