<svg xmlns="http://www.w3.org/2000/svg" viewBox="0 0 24 24"><path class="fn-svg-icon" fill-rule="evenodd" d="M6 12C6 11.4477 6.44772 11 7 11H10C10.5523 11 11 11.4477 11 12 11 12.5523 10.5523 13 10 13H7C6.44772 13 6 12.5523 6 12ZM10 16C10 15.4477 10.4477 15 11 15H14C14.5523 15 15 15.4477 15 16 15 16.5523 14.5523 17 14 17H11C10.4477 17 10 16.5523 10 16ZM10 8C10 7.44772 10.4477 7 11 7H13C13.5523 7 14 7.44772 14 8 14 8.55228 13.5523 9 13 9H11C10.4477 9 10 8.55228 10 8ZM7 17C7.55228 17 8 16.5523 8 16 8 15.4477 7.55228 15 7 15 6.44772 15 6 15.4477 6 16 6 16.5523 6.44772 17 7 17ZM14 13C14.5523 13 15 12.5523 15 12 15 11.4477 14.5523 11 14 11 13.4477 11 13 11.4477 13 12 13 12.5523 13.4477 13 14 13ZM7 9C7.55228 9 8 8.55228 8 8 8 7.44772 7.55228 7 7 7 6.44772 7 6 7.44772 6 8 6 8.55228 6.44772 9 7 9ZM17 9C17.5523 9 18 8.55228 18 8 18 7.44772 17.5523 7 17 7 16.4477 7 16 7.44772 16 8 16 8.55228 16.4477 9 17 9ZM17 12C17 11.4477 17.4477 11 18 11H20C20.5523 11 21 11.4477 21 12 21 12.5523 20.5523 13 20 13H18C17.4477 13 17 12.5523 17 12Z" clip-rule="evenodd"/><path class="fn-svg-icon" fill-rule="evenodd" d="M3 2C3.55228 2 4 2.44772 4 3V20H21C21.5523 20 22 20.4477 22 21C22 21.5523 21.5523 22 21 22H3C2.44772 22 2 21.5523 2 21V3C2 2.44772 2.44772 2 3 2Z" clip-rule="evenodd"/></svg>
