<svg xmlns="http://www.w3.org/2000/svg" viewBox="0 0 24 24"><path class="fn-svg-icon" fill-rule="evenodd" d="M10.2929 2.29289C10.4804 2.10536 10.7348 2 11 2H19C19.5523 2 20 2.44772 20 3V10C20 10.5523 19.5523 11 19 11C18.4477 11 18 10.5523 18 10V4H11.4142L6 9.41421V20H19C19.5523 20 20 20.4477 20 21C20 21.5523 19.5523 22 19 22H5C4.44772 22 4 21.5523 4 21V9C4 8.73478 4.10536 8.48043 4.29289 8.29289L10.2929 2.29289Z" clip-rule="evenodd"/><path class="fn-svg-icon" fill-rule="evenodd" d="M22 9L19 12L16 9H22Z" clip-rule="evenodd"/><path class="fn-svg-icon" fill-rule="evenodd" d="M15.0761 8.61732C15.2309 8.24364 15.5955 8 16 8H22C22.4045 8 22.7691 8.24364 22.9239 8.61732C23.0787 8.99099 22.9931 9.42111 22.7071 9.70711L19.7071 12.7071C19.3166 13.0976 18.6834 13.0976 18.2929 12.7071L15.2929 9.70711C15.0069 9.42111 14.9213 8.99099 15.0761 8.61732Z" clip-rule="evenodd"/><path class="fn-svg-icon" fill-rule="evenodd" d="M15.2929 13.2929C15.6834 12.9024 16.3166 12.9024 16.7071 13.2929L19 15.5858 21.2929 13.2929C21.6834 12.9024 22.3166 12.9024 22.7071 13.2929 23.0976 13.6834 23.0976 14.3166 22.7071 14.7071L19.7071 17.7071C19.3166 18.0976 18.6834 18.0976 18.2929 17.7071L15.2929 14.7071C14.9024 14.3166 14.9024 13.6834 15.2929 13.2929ZM6 9H9C10.1046 9 11 8.10457 11 7V4" clip-rule="evenodd"/></svg>
