<svg xmlns="http://www.w3.org/2000/svg" viewBox="0 0 24 24"><path class="fn-svg-icon" fill-rule="evenodd" d="M4 17C4 16.4477 4.44772 16 5 16H9C9.55228 16 10 16.4477 10 17V21C10 21.5523 9.55228 22 9 22H5C4.44772 22 4 21.5523 4 21V17ZM6 18V20H8V18H6ZM10.7071 9.29289C11.0976 9.68342 11.0976 10.3166 10.7071 10.7071L6.70711 14.7071C6.31658 15.0976 5.68342 15.0976 5.29289 14.7071L3.29289 12.7071C2.90237 12.3166 2.90237 11.6834 3.29289 11.2929 3.68342 10.9024 4.31658 10.9024 4.70711 11.2929L6 12.5858 9.29289 9.29289C9.68342 8.90237 10.3166 8.90237 10.7071 9.29289ZM10.7071 2.29289C11.0976 2.68342 11.0976 3.31658 10.7071 3.70711L6.70711 7.70711C6.31658 8.09763 5.68342 8.09763 5.29289 7.70711L3.29289 5.70711C2.90237 5.31658 2.90237 4.68342 3.29289 4.29289 3.68342 3.90237 4.31658 3.90237 4.70711 4.29289L6 5.58579 9.29289 2.29289C9.68342 1.90237 10.3166 1.90237 10.7071 2.29289ZM13 5C13 4.44772 13.4477 4 14 4H20C20.5523 4 21 4.44772 21 5 21 5.55228 20.5523 6 20 6H14C13.4477 6 13 5.55228 13 5ZM13 12C13 11.4477 13.4477 11 14 11H20C20.5523 11 21 11.4477 21 12 21 12.5523 20.5523 13 20 13H14C13.4477 13 13 12.5523 13 12ZM13 19C13 18.4477 13.4477 18 14 18H20C20.5523 18 21 18.4477 21 19 21 19.5523 20.5523 20 20 20H14C13.4477 20 13 19.5523 13 19Z" clip-rule="evenodd"/></svg>
