<svg xmlns="http://www.w3.org/2000/svg" viewBox="0 0 24 24"><path class="fn-svg-icon" fill-rule="evenodd" d="M11 6C11.5523 6 12 6.44772 12 7V12H13.446C13.9898 12 14.5233 12.1478 14.9895 12.4275L18.3468 14.4419C19.4036 15.076 19.9651 16.2919 19.7625 17.5076L19.2649 20.4932C19.0238 21.9398 17.7723 23 16.3057 23H11.1606C10.0841 23 9.09004 22.4231 8.55591 21.4884L5.47017 16.0884C5.04663 15.3472 5.17157 14.4142 5.77521 13.8106C6.41328 13.1725 7.41303 13.0735 8.16385 13.5741L10 14.7981V7C10 6.44772 10.4477 6 11 6ZM12 14V16C12 16.5523 11.5523 17 11 17H10C9.80257 17 9.60956 16.9416 9.4453 16.8321L7.43146 15.4895L10.2924 20.4961C10.4704 20.8077 10.8018 21 11.1606 21H16.3057C16.7946 21 17.2118 20.6466 17.2921 20.1644L17.7897 17.1788C17.8573 16.7736 17.6701 16.3683 17.3178 16.1569L13.9605 14.1425C13.8051 14.0493 13.6273 14 13.446 14H12Z" clip-rule="evenodd"/><path class="fn-svg-icon" fill-rule="evenodd" d="M6 7C6 4.23858 8.23857 2 11 2C13.7614 2 16 4.23858 16 7C16 7.90802 15.757 8.76233 15.3319 9.49821C15.0557 9.97644 14.444 10.1402 13.9658 9.86389C13.4876 9.58762 13.3239 8.97599 13.6001 8.49777C13.8543 8.05787 14 7.54747 14 7C14 5.34315 12.6569 4 11 4C9.34314 4 8 5.34315 8 7C8 7.54706 8.14551 8.05709 8.39928 8.49676C8.67536 8.97509 8.5114 9.58666 8.03307 9.86274C7.55474 10.1388 6.94318 9.97486 6.6671 9.49653C6.24258 8.76102 6 7.90732 6 7Z" clip-rule="evenodd"/></svg>
