<svg xmlns="http://www.w3.org/2000/svg" viewBox="0 0 24 24"><path class="fn-svg-icon" fill-rule="evenodd" d="M3 10C3 9.44772 3.44772 9 4 9H14C14.5523 9 15 9.44772 15 10C15 10.5523 14.5523 11 14 11H5V13H20C20.5523 13 21 13.4477 21 14V22C21 22.5523 20.5523 23 20 23H4C3.44772 23 3 22.5523 3 22V10ZM5 15V21H19V15H5Z" clip-rule="evenodd"/><path class="fn-svg-icon" fill-rule="evenodd" d="M11.4453 4.16795C11.7812 3.94402 12.2188 3.94402 12.5547 4.16795L15.5547 6.16795C15.8329 6.35342 16 6.66565 16 7V21C16 21.5523 15.5523 22 15 22C14.4477 22 14 21.5523 14 21V7.53518L12 6.20185L10 7.53518V21C10 21.5523 9.55228 22 9 22C8.44772 22 8 21.5523 8 21V7C8 6.66565 8.1671 6.35342 8.4453 6.16795L11.4453 4.16795Z" clip-rule="evenodd"/><path class="fn-svg-icon" fill-rule="evenodd" d="M12 2C12.5523 2 13 2.44772 13 3V5C13 5.55228 12.5523 6 12 6 11.4477 6 11 5.55228 11 5V3C11 2.44772 11.4477 2 12 2ZM3 18C3 17.4477 3.44772 17 4 17H20C20.5523 17 21 17.4477 21 18 21 18.5523 20.5523 19 20 19H4C3.44772 19 3 18.5523 3 18Z" clip-rule="evenodd"/></svg>
