<svg xmlns="http://www.w3.org/2000/svg" viewBox="0 0 24 24"><path class="fn-svg-icon" fill-rule="evenodd" d="M6 5C6 4.44772 6.44772 4 7 4H21C21.5523 4 22 4.44772 22 5 22 5.55228 21.5523 6 21 6H7C6.44772 6 6 5.55228 6 5ZM17 9C17 8.44772 17.4477 8 18 8H21C21.5523 8 22 8.44772 22 9 22 9.55228 21.5523 10 21 10H18C17.4477 10 17 9.55228 17 9ZM6 17C6 16.4477 6.44772 16 7 16H12C12.5523 16 13 16.4477 13 17 13 17.5523 12.5523 18 12 18H7C6.44772 18 6 17.5523 6 17ZM11 13C11 12.4477 11.4477 12 12 12H18C18.5523 12 19 12.4477 19 13 19 13.5523 18.5523 14 18 14H12C11.4477 14 11 13.5523 11 13Z" clip-rule="evenodd"/><path class="fn-svg-icon" fill-rule="evenodd" d="M3 2C3.55228 2 4 2.44772 4 3V20H21C21.5523 20 22 20.4477 22 21C22 21.5523 21.5523 22 21 22H3C2.44772 22 2 21.5523 2 21V3C2 2.44772 2.44772 2 3 2Z" clip-rule="evenodd"/></svg>
