<svg xmlns="http://www.w3.org/2000/svg" viewBox="0 0 24 24"><path class="fn-svg-icon" fill-rule="evenodd" d="M11 13C8.23858 13 6 15.2386 6 18V19H10C10.5523 19 11 19.4477 11 20C11 20.5523 10.5523 21 10 21H5C4.44772 21 4 20.5523 4 20V18C4 14.134 7.13401 11 11 11H12C12.5523 11 13 11.4477 13 12C13 12.5523 12.5523 13 12 13H11Z" clip-rule="evenodd"/><path class="fn-svg-icon" fill-rule="evenodd" d="M7 8C7 5.23858 9.23858 3 12 3 14.7614 3 17 5.23858 17 8 17 10.7614 14.7614 13 12 13 9.23858 13 7 10.7614 7 8ZM12 5C10.3431 5 9 6.34315 9 8 9 9.65685 10.3431 11 12 11 13.6569 11 15 9.65685 15 8 15 6.34315 13.6569 5 12 5ZM13 18C13 15.7909 14.7909 14 17 14 19.2091 14 21 15.7909 21 18 21 20.2091 19.2091 22 17 22 14.7909 22 13 20.2091 13 18ZM17 16C15.8954 16 15 16.8954 15 18 15 19.1046 15.8954 20 17 20 18.1046 20 19 19.1046 19 18 19 16.8954 18.1046 16 17 16Z" clip-rule="evenodd"/><path class="fn-svg-icon" fill-rule="evenodd" d="M19 18C19 17.4477 19.4477 17 20 17H21C21.5523 17 22 17.4477 22 18 22 18.5523 21.5523 19 21 19H20C19.4477 19 19 18.5523 19 18ZM12 18C12 17.4477 12.4477 17 13 17H14C14.5523 17 15 17.4477 15 18 15 18.5523 14.5523 19 14 19H13C12.4477 19 12 18.5523 12 18ZM17 20C17.5523 20 18 20.4477 18 21V22C18 22.5523 17.5523 23 17 23 16.4477 23 16 22.5523 16 22V21C16 20.4477 16.4477 20 17 20ZM17 13C17.5523 13 18 13.4477 18 14V15C18 15.5523 17.5523 16 17 16 16.4477 16 16 15.5523 16 15V14C16 13.4477 16.4477 13 17 13ZM20.7071 14.2929C21.0976 14.6834 21.0976 15.3166 20.7071 15.7071L20.2071 16.2071C19.8166 16.5976 19.1834 16.5976 18.7929 16.2071 18.4024 15.8166 18.4024 15.1834 18.7929 14.7929L19.2929 14.2929C19.6834 13.9024 20.3166 13.9024 20.7071 14.2929ZM13.2929 14.2929C13.6834 13.9024 14.3166 13.9024 14.7071 14.2929L15.2071 14.7929C15.5976 15.1834 15.5976 15.8166 15.2071 16.2071 14.8166 16.5976 14.1834 16.5976 13.7929 16.2071L13.2929 15.7071C12.9024 15.3166 12.9024 14.6834 13.2929 14.2929ZM18.7929 19.7929C19.1834 19.4024 19.8166 19.4024 20.2071 19.7929L20.7071 20.2929C21.0976 20.6834 21.0976 21.3166 20.7071 21.7071 20.3166 22.0976 19.6834 22.0976 19.2929 21.7071L18.7929 21.2071C18.4024 20.8166 18.4024 20.1834 18.7929 19.7929ZM15.2071 19.7929C15.5976 20.1834 15.5976 20.8166 15.2071 21.2071L14.7071 21.7071C14.3166 22.0976 13.6834 22.0976 13.2929 21.7071 12.9024 21.3166 12.9024 20.6834 13.2929 20.2929L13.7929 19.7929C14.1834 19.4024 14.8166 19.4024 15.2071 19.7929Z" clip-rule="evenodd"/></svg>
