<svg xmlns="http://www.w3.org/2000/svg" viewBox="0 0 24 24"><path class="fn-svg-icon" fill-rule="evenodd" d="M6 14C6 13.4477 6.44772 13 7 13H17C17.5523 13 18 13.4477 18 14V21C18 21.5523 17.5523 22 17 22H7C6.44772 22 6 21.5523 6 21V14ZM8 15V20H16V15H8Z" clip-rule="evenodd"/><path class="fn-svg-icon" fill-rule="evenodd" d="M5 9C4.44772 9 4 9.44772 4 10V15C4 15.5523 4.44772 16 5 16H7C7.55228 16 8 16.4477 8 17C8 17.5523 7.55228 18 7 18H5C3.34315 18 2 16.6569 2 15V10C2 8.34315 3.34315 7 5 7H19C20.6569 7 22 8.34315 22 10V15C22 16.6569 20.6569 18 19 18H17C16.4477 18 16 17.5523 16 17C16 16.4477 16.4477 16 17 16H19C19.5523 16 20 15.5523 20 15V10C20 9.44772 19.5523 9 19 9H5Z" clip-rule="evenodd"/><path class="fn-svg-icon" fill-rule="evenodd" d="M6 3C6 2.44772 6.44772 2 7 2H17C17.5523 2 18 2.44772 18 3V8C18 8.55228 17.5523 9 17 9H7C6.44772 9 6 8.55228 6 8V3ZM8 4V7H16V4H8ZM18 12C18.5523 12 19 11.5523 19 11 19 10.4477 18.5523 10 18 10 17.4477 10 17 10.4477 17 11 17 11.5523 17.4477 12 18 12Z" clip-rule="evenodd"/></svg>
