<svg xmlns="http://www.w3.org/2000/svg" viewBox="0 0 24 24"><path class="fn-svg-icon" fill-rule="evenodd" d="M2 5C2 3.34315 3.34315 2 5 2H19C20.6569 2 22 3.34315 22 5V19C22 20.6569 20.6569 22 19 22H5C3.34315 22 2 20.6569 2 19V5ZM5 4C4.44772 4 4 4.44772 4 5V19C4 19.5523 4.44772 20 5 20H19C19.5523 20 20 19.5523 20 19V5C20 4.44772 19.5523 4 19 4H5Z" clip-rule="evenodd"/><path class="fn-svg-icon" fill-rule="evenodd" d="M3 9C3 8.44772 3.44772 8 4 8H20C20.5523 8 21 8.44772 21 9C21 9.55228 20.5523 10 20 10H4C3.44772 10 3 9.55228 3 9Z" clip-rule="evenodd"/><path class="fn-svg-icon" fill-rule="evenodd" d="M9 2C9.55228 2 10 2.44772 10 3V21C10 21.5523 9.55228 22 9 22 8.44772 22 8 21.5523 8 21V3C8 2.44772 8.44772 2 9 2ZM15 2C15.5523 2 16 2.44772 16 3V21C16 21.5523 15.5523 22 15 22 14.4477 22 14 21.5523 14 21V3C14 2.44772 14.4477 2 15 2Z" clip-rule="evenodd"/><path class="fn-svg-icon" fill-rule="evenodd" d="M3 15C3 14.4477 3.44772 14 4 14H20C20.5523 14 21 14.4477 21 15C21 15.5523 20.5523 16 20 16H4C3.44772 16 3 15.5523 3 15Z" clip-rule="evenodd"/></svg>
