<svg xmlns="http://www.w3.org/2000/svg" viewBox="0 0 24 24"><path class="fn-svg-icon" fill-rule="evenodd" d="M6 5C5.44772 5 5 5.44772 5 6V18C5 18.5523 5.44772 19 6 19H18C18.5523 19 19 18.5523 19 18C19 17.4477 19.4477 17 20 17C20.5523 17 21 17.4477 21 18C21 19.6569 19.6569 21 18 21H6C4.34315 21 3 19.6569 3 18V6C3 4.34315 4.34315 3 6 3H18C19.6569 3 21 4.34315 21 6C21 6.55228 20.5523 7 20 7C19.4477 7 19 6.55228 19 6C19 5.44772 18.5523 5 18 5H6Z" clip-rule="evenodd"/><path class="fn-svg-icon" fill-rule="evenodd" d="M8 12C8 11.4477 8.44772 11 9 11H20C20.5523 11 21 11.4477 21 12C21 12.5523 20.5523 13 20 13H9C8.44772 13 8 12.5523 8 12Z" clip-rule="evenodd"/><path class="fn-svg-icon" fill-rule="evenodd" d="M17.2929 8.29289C17.6834 7.90237 18.3166 7.90237 18.7071 8.29289L21.7071 11.2929C22.0976 11.6834 22.0976 12.3166 21.7071 12.7071L18.7071 15.7071C18.3166 16.0976 17.6834 16.0976 17.2929 15.7071C16.9024 15.3166 16.9024 14.6834 17.2929 14.2929L19.5858 12L17.2929 9.70711C16.9024 9.31658 16.9024 8.68342 17.2929 8.29289Z" clip-rule="evenodd"/></svg>
