<svg xmlns="http://www.w3.org/2000/svg" viewBox="0 0 24 24"><path class="fn-svg-icon" fill-rule="evenodd" d="M3 2C3.55228 2 4 2.44772 4 3V20H21C21.5523 20 22 20.4477 22 21C22 21.5523 21.5523 22 21 22H3C2.44772 22 2 21.5523 2 21V3C2 2.44772 2.44772 2 3 2Z" clip-rule="evenodd"/><path class="fn-svg-icon" fill-rule="evenodd" d="M9 10C9.55228 10 10 10.4477 10 11V13C10 13.5523 9.55228 14 9 14 8.44772 14 8 13.5523 8 13V11C8 10.4477 8.44772 10 9 10ZM13 3C13.5523 3 14 3.44772 14 4V6C14 6.55228 13.5523 7 13 7 12.4477 7 12 6.55228 12 6V4C12 3.44772 12.4477 3 13 3ZM13 13C13.5523 13 14 13.4477 14 14V17C14 17.5523 13.5523 18 13 18 12.4477 18 12 17.5523 12 17V14C12 13.4477 12.4477 13 13 13ZM17 9C17.5523 9 18 9.44772 18 10V13C18 13.5523 17.5523 14 17 14 16.4477 14 16 13.5523 16 13V10C16 9.44772 16.4477 9 17 9ZM9 8C9.55228 8 10 7.55228 10 7 10 6.44772 9.55228 6 9 6 8.44772 6 8 6.44772 8 7 8 7.55228 8.44772 8 9 8ZM9 18C9.55228 18 10 17.5523 10 17 10 16.4477 9.55228 16 9 16 8.44772 16 8 16.4477 8 17 8 17.5523 8.44772 18 9 18ZM13 11C13.5523 11 14 10.5523 14 10 14 9.44772 13.5523 9 13 9 12.4477 9 12 9.44772 12 10 12 10.5523 12.4477 11 13 11ZM17 18C17.5523 18 18 17.5523 18 17 18 16.4477 17.5523 16 17 16 16.4477 16 16 16.4477 16 17 16 17.5523 16.4477 18 17 18Z" clip-rule="evenodd"/></svg>
