<svg xmlns="http://www.w3.org/2000/svg" fill="currentColor" viewBox="0 0 16 16"><path d="M8 4.594a.947.947 0 0 1-.719-.297A.988.988 0 0 1 7 3.594c0-.292.094-.531.281-.719A.973.973 0 0 1 8 2.594c.292 0 .531.094.719.281A.973.973 0 0 1 9 3.594c0 .27-.094.505-.281.703A.947.947 0 0 1 8 4.594Zm2.688-.063c.208-.125.374-.187.5-.187.229 0 .421.078.578.234a.785.785 0 0 1 .234.578c0 .25-.12.464-.36.64a3.107 3.107 0 0 1-.859.438 7.095 7.095 0 0 1-1 .266c-.333.063-.594.115-.781.156V8l1.531 3.906a.51.51 0 0 1 .063.281c0 .23-.078.422-.235.579a.75.75 0 0 1-.546.234c-.376 0-.626-.167-.75-.5l-1-2.5h-.157l-.968 2.5c-.125.333-.375.5-.75.5a.75.75 0 0 1-.547-.234.785.785 0 0 1-.235-.579c0-.124.021-.218.063-.28L7 8V6.656c-.188-.02-.448-.062-.781-.125a5.56 5.56 0 0 1-.985-.281 3.94 3.94 0 0 1-.859-.453C4.125 5.62 4 5.407 4 5.157c0-.23.078-.423.234-.579a.786.786 0 0 1 .579-.234c.125 0 .28.052.468.156.354.188.776.339 1.266.453.49.115.974.172 1.453.172.5 0 .98-.047 1.438-.14a4.352 4.352 0 0 0 1.25-.454ZM8 0c1.104 0 2.14.208 3.11.625a8.08 8.08 0 0 1 2.546 1.719 8.081 8.081 0 0 1 1.719 2.547C15.792 5.859 16 6.896 16 8s-.208 2.14-.625 3.11a8.082 8.082 0 0 1-1.719 2.546 8.082 8.082 0 0 1-2.547 1.719A7.785 7.785 0 0 1 8 16a7.785 7.785 0 0 1-3.11-.625 8.081 8.081 0 0 1-2.546-1.719A8.08 8.08 0 0 1 .625 11.11 7.786 7.786 0 0 1 0 8c0-1.104.208-2.14.625-3.11a8.08 8.08 0 0 1 1.719-2.546A8.08 8.08 0 0 1 4.89.625 7.785 7.785 0 0 1 8 0Zm0 15c.98 0 1.89-.182 2.734-.547a7.075 7.075 0 0 0 2.22-1.5 7.027 7.027 0 0 0 1.5-2.234C14.817 9.865 15 8.959 15 8c0-.98-.182-1.89-.547-2.734a7.075 7.075 0 0 0-1.5-2.22 7.074 7.074 0 0 0-2.219-1.5A6.82 6.82 0 0 0 8 1c-.958 0-1.865.182-2.719.547a7.026 7.026 0 0 0-2.234 1.5 7.074 7.074 0 0 0-1.5 2.219A6.819 6.819 0 0 0 1 8c0 .958.182 1.865.547 2.719a7.026 7.026 0 0 0 1.5 2.234 7.026 7.026 0 0 0 2.234 1.5C6.135 14.818 7.041 15 8 15Z"/></svg>