<svg xmlns="http://www.w3.org/2000/svg" fill="currentColor" viewBox="0 0 16 16"><path d="M1 2c0-.27.094-.505.281-.703A.947.947 0 0 1 2 1h2V0h1v1h6V0h1v1h2c.292 0 .531.099.719.297A.988.988 0 0 1 15 2v13a.974.974 0 0 1-.281.719A.974.974 0 0 1 14 16H2a.973.973 0 0 1-.719-.281A.974.974 0 0 1 1 15V2Zm1 2v11h12V4H2Zm2 7.5c0-.146.052-.266.156-.36A.503.503 0 0 1 4.5 11h8c.333 0 .5.167.5.5 0 .125-.047.24-.14.344a.462.462 0 0 1-.36.156h-8a.478.478 0 0 1-.344-.156A.478.478 0 0 1 4 11.5ZM3.5 9h5c.333 0 .5.167.5.5 0 .125-.047.24-.14.344A.462.462 0 0 1 8.5 10h-5a.478.478 0 0 1-.344-.156A.478.478 0 0 1 3 9.5c0-.146.052-.266.156-.36A.503.503 0 0 1 3.5 9ZM7 7.5c0-.146.052-.266.156-.36A.503.503 0 0 1 7.5 7h4c.333 0 .5.167.5.5 0 .125-.047.24-.14.344A.462.462 0 0 1 11.5 8h-4a.478.478 0 0 1-.344-.156A.478.478 0 0 1 7 7.5ZM11 2v1h1V2h-1ZM4 2v1h1V2H4Z"/></svg>