<svg xmlns="http://www.w3.org/2000/svg" fill="currentColor" viewBox="0 0 16 16"><path d="M7 8.5c0-.23.115-.432.344-.61.229-.176.547-.333.953-.468a7.82 7.82 0 0 1 1.437-.313A13.5 13.5 0 0 1 11.5 7c.625 0 1.208.036 1.75.11a7.828 7.828 0 0 1 1.422.312c.406.135.729.292.969.469S16 8.27 16 8.5v6c0 .208-.12.401-.36.578-.239.177-.562.334-.968.469a8.72 8.72 0 0 1-1.422.328A11.53 11.53 0 0 1 11.5 16c-.625 0-1.213-.042-1.766-.125a8.683 8.683 0 0 1-1.437-.328c-.406-.136-.724-.292-.953-.469-.23-.177-.344-.37-.344-.578v-6ZM4 0h7c.27 0 .505.094.703.281A.947.947 0 0 1 12 1H5v3a.947.947 0 0 1-.297.719A1.027 1.027 0 0 1 3.97 5H1v10h5v1H1a.973.973 0 0 1-.719-.281A.974.974 0 0 1 0 15V4l4-4Zm6.281 2.375 1.563 1.594L15 0l1 1-4.125 4.969-2.594-2.625 1-.969Zm.156 8.563h.032a8.113 8.113 0 0 0 1.547.046c.177-.01.349-.026.515-.046h.031c.709-.063 1.521-.24 2.438-.532v-.969a7.686 7.686 0 0 1-1.531.407A11.62 11.62 0 0 1 11.5 10c-.73 0-1.39-.052-1.984-.156A7.705 7.705 0 0 1 8 9.438v.968c.917.292 1.73.469 2.438.531ZM8 12.405c.917.292 1.73.469 2.438.531h.03a8.113 8.113 0 0 0 1.548.047c.177-.01.349-.026.515-.046h.031c.709-.063 1.521-.24 2.438-.532v-.969a7.68 7.68 0 0 1-1.531.407 11.62 11.62 0 0 1-1.969.156c-.73 0-1.39-.052-1.984-.156A7.698 7.698 0 0 1 8 11.438v.968Zm0 1v1c.917.292 1.73.469 2.438.531h.03a8.113 8.113 0 0 0 1.548.047c.177-.01.349-.026.515-.046h.031c.709-.063 1.521-.24 2.438-.532v-1c-.77.396-1.938.594-3.5.594-1.563 0-2.73-.198-3.5-.594ZM11.5 9c.75 0 1.39-.057 1.922-.172a10.38 10.38 0 0 0 1.234-.328c-.291-.125-.703-.24-1.234-.344C12.89 8.052 12.25 8 11.5 8s-1.39.052-1.922.156c-.531.104-.943.219-1.234.344.291.104.703.214 1.234.328C10.11 8.943 10.75 9 11.5 9Z"/></svg>