<svg xmlns="http://www.w3.org/2000/svg" fill="currentColor" viewBox="0 0 16 16"><path d="M9.143 5.679c0 .952-.333 1.761-1 2.428s-1.476 1-2.429 1c-.952 0-1.762-.333-2.428-1-.667-.667-1-1.476-1-2.428 0-.953.333-1.762 1-2.429.666-.667 1.476-1 2.428-1 .953 0 1.762.333 2.429 1 .667.667 1 1.476 1 2.429ZM5.714 7.964c.62 0 1.155-.226 1.607-.678.453-.453.679-.988.679-1.607a2.18 2.18 0 0 0-.679-1.625 2.226 2.226 0 0 0-1.607-.661c-.643 0-1.184.22-1.625.66-.44.441-.66.983-.66 1.626 0 .619.22 1.154.66 1.607.44.452.982.678 1.625.678Zm1.143 1.179c.62 0 1.208.119 1.768.357s1.048.56 1.464.964a4.43 4.43 0 0 1 1.34 3.214V16H0v-2.321a4.43 4.43 0 0 1 1.34-3.215A4.806 4.806 0 0 1 2.785 9.5a4.43 4.43 0 0 1 1.785-.357h2.286Zm3.429 4.536c0-.953-.334-1.762-1-2.429-.667-.667-1.476-1-2.429-1H4.571c-.952 0-1.761.333-2.428 1s-1 1.476-1 2.429v1.142h9.143V13.68Zm5.143-9.108c.38 0 .571.19.571.572a.575.575 0 0 1-.16.393.528.528 0 0 1-.411.178h-4.572a.546.546 0 0 1-.393-.178.546.546 0 0 1-.178-.393c0-.167.06-.304.178-.41a.575.575 0 0 1 .393-.162h4.572Zm0-2.285c.38 0 .571.19.571.571a.575.575 0 0 1-.16.393.528.528 0 0 1-.411.179h-4.572a.546.546 0 0 1-.393-.179.546.546 0 0 1-.178-.393c0-.167.06-.303.178-.41a.575.575 0 0 1 .393-.161h4.572Zm0-2.286c.38 0 .571.19.571.571a.575.575 0 0 1-.16.393.528.528 0 0 1-.411.179h-4.572a.546.546 0 0 1-.393-.179.546.546 0 0 1-.178-.393.53.53 0 0 1 .178-.41.575.575 0 0 1 .393-.161h4.572Z"/></svg>