<svg xmlns="http://www.w3.org/2000/svg" fill="currentColor" viewBox="0 0 16 16"><path d="M16 16H6v-2c0-.563.104-1.083.313-1.563A4.015 4.015 0 0 1 10 10h.999a2.893 2.893 0 0 1-2.125-.874A2.893 2.893 0 0 1 8 7c0-.833.292-1.542.875-2.125A2.893 2.893 0 0 1 11 4c.833 0 1.542.292 2.125.875S14 6.167 14 7s-.292 1.542-.875 2.125A2.893 2.893 0 0 1 11 10h1c.563 0 1.083.104 1.563.313a4.064 4.064 0 0 1 2.124 2.124c.209.48.313 1 .313 1.563v2ZM1 2h2.094c.208-.563.594-.896 1.156-1a1.98 1.98 0 0 1 .719-.719A1.967 1.967 0 0 1 6 0c.375 0 .719.094 1.031.281.313.188.552.427.719.719a1.423 1.423 0 0 1 1.156 1H11c.292 0 .531.094.719.281A.973.973 0 0 1 12 3H8.906c-.104.27-.234.505-.39.703-.157.198-.401.297-.735.297H4.22c-.334 0-.578-.099-.735-.297A2.677 2.677 0 0 1 3.094 3H1v12h4v1H1a.961.961 0 0 1-.703-.297A.961.961 0 0 1 0 15V3c0-.292.099-.531.297-.719A.988.988 0 0 1 1 2Zm6 13h8v-1c0-.833-.292-1.542-.875-2.125A2.893 2.893 0 0 0 12 11h-2c-.833 0-1.542.292-2.125.875A2.893 2.893 0 0 0 7 14v1Zm4-6a1.92 1.92 0 0 0 1.406-.594A1.92 1.92 0 0 0 13 7c0-.563-.198-1.036-.594-1.422A1.948 1.948 0 0 0 11 5c-.542 0-1.01.193-1.406.578C9.198 5.964 9 6.438 9 7c0 .542.198 1.01.594 1.406A1.92 1.92 0 0 0 11 9ZM4.5 3h3a.462.462 0 0 0 .36-.156A.503.503 0 0 0 8 2.5c0-.333-.167-.5-.5-.5H7a.973.973 0 0 0-.281-.719A.973.973 0 0 0 6 1a.988.988 0 0 0-.703.281A.947.947 0 0 0 5 2h-.5c-.333 0-.5.167-.5.5 0 .125.047.24.14.344A.462.462 0 0 0 4.5 3Zm-2 5h3c.333 0 .5.167.5.5 0 .125-.047.24-.14.344A.462.462 0 0 1 5.5 9h-3a.478.478 0 0 1-.344-.156A.478.478 0 0 1 2 8.5c0-.146.052-.266.156-.36A.503.503 0 0 1 2.5 8ZM2 6.5c0-.146.052-.266.156-.36A.503.503 0 0 1 2.5 6h3c.333 0 .5.167.5.5 0 .125-.047.24-.14.344A.462.462 0 0 1 5.5 7h-3a.478.478 0 0 1-.344-.156A.478.478 0 0 1 2 6.5Z"/></svg>