<svg xmlns="http://www.w3.org/2000/svg" fill="currentColor" viewBox="0 0 16 16"><path d="M0 7c0-.292.094-.531.281-.719A.973.973 0 0 1 1 6h.813a2.68 2.68 0 0 1 .171-.484c.073-.157.151-.318.235-.485l-.594-.562a1.043 1.043 0 0 1-.281-.719c0-.27.093-.5.281-.688l1.438-1.437a.935.935 0 0 1 .687-.281c.292 0 .531.093.719.281l.562.594c.167-.084.328-.162.485-.235A2.68 2.68 0 0 1 6 1.813V1c0-.292.094-.531.281-.719A.973.973 0 0 1 7 0h2c.292 0 .531.094.719.281A.973.973 0 0 1 10 1v.813c.167.062.328.125.484.187.157.063.308.135.454.219l.593-.594a.974.974 0 0 1 .719-.281c.27 0 .5.093.688.281l1.437 1.438a.935.935 0 0 1 .281.687c0 .27-.094.51-.281.719l-.594.593c.167.271.292.584.375.938H15c.292 0 .531.094.719.281A.973.973 0 0 1 16 7v2a.973.973 0 0 1-.281.719A.974.974 0 0 1 15 10h-.844a3.68 3.68 0 0 1-.375.938l.594.593c.188.209.281.448.281.719 0 .27-.094.5-.281.688l-1.438 1.437a.935.935 0 0 1-.687.281.974.974 0 0 1-.719-.281l-.594-.594a3.62 3.62 0 0 1-.453.219 22.56 22.56 0 0 1-.484.188V15a.974.974 0 0 1-.281.719A.973.973 0 0 1 9 16H7a.973.973 0 0 1-.719-.281A.974.974 0 0 1 6 15v-.813a2.683 2.683 0 0 1-.484-.171 19.641 19.641 0 0 1-.485-.235l-.562.594a.973.973 0 0 1-.719.281.94.94 0 0 1-.688-.281l-1.437-1.438a.935.935 0 0 1-.281-.687c0-.27.093-.51.281-.719l.594-.562a20.151 20.151 0 0 1-.235-.485A2.68 2.68 0 0 1 1.813 10H1a.973.973 0 0 1-.719-.281A.973.973 0 0 1 0 9V7Zm1 0v2h1.531c.063.208.12.39.172.547.052.156.11.307.172.453.063.167.14.338.234.516.094.177.204.39.329.64L2.343 12.25l1.406 1.406 1.094-1.094c.354.209.708.386 1.062.532.354.146.719.27 1.094.375V15h2v-1.563c.208-.062.39-.12.547-.171.156-.053.307-.1.453-.141.167-.083.344-.167.531-.25a8.68 8.68 0 0 0 .625-.313l1.094 1.094 1.406-1.406-1.094-1.125c.188-.354.35-.703.485-1.047s.265-.703.39-1.078H15V7h-1.563a9.505 9.505 0 0 0-.874-2.125l1.093-1.125-1.406-1.406-1.094 1.094a7.478 7.478 0 0 0-1.047-.516A9.907 9.907 0 0 0 9 2.562V1H7v1.531l-.516.172c-.156.052-.317.11-.484.172l-.563.25a5.519 5.519 0 0 0-.593.313L3.75 2.343 2.344 3.75l1.094 1.094A12.821 12.821 0 0 0 2.53 7H1Zm4.219 0 .093-.281a3.48 3.48 0 0 1 .22-.375c.083-.125.176-.24.28-.344.209-.208.396-.37.563-.484A3.49 3.49 0 0 1 7 5.187a3.55 3.55 0 0 1 1-.156c.354 0 .688.063 1 .188l.281.093.375.25c.125.084.24.178.344.282a.559.559 0 0 1 .156.156c.271.25.469.583.594 1 .125.313.188.646.188 1s-.063.688-.188 1a2.41 2.41 0 0 1-.594 1 .56.56 0 0 1-.156.156 2.25 2.25 0 0 1-.344.281l-.375.25-.281.094a2.665 2.665 0 0 1-1 .188 3.55 3.55 0 0 1-1-.156 3.454 3.454 0 0 1-.625-.329A4.164 4.164 0 0 1 5.812 10a2.249 2.249 0 0 1-.28-.344 3.496 3.496 0 0 1-.22-.375L5.22 9a2.667 2.667 0 0 1-.188-1c0-.354.063-.688.188-1Zm.812 1c0 .354.089.682.266.984A1.9 1.9 0 0 0 7 9.688c.292.187.625.28 1 .28.125 0 .292-.02.5-.062a2.42 2.42 0 0 0 .656-.328c.188-.135.354-.328.5-.578.188-.292.281-.625.281-1 0-.396-.093-.73-.28-1a1.843 1.843 0 0 0-.5-.578 2.42 2.42 0 0 0-.657-.328A2.69 2.69 0 0 0 8 6.03c-.375 0-.708.094-1 .282a1.897 1.897 0 0 0-.703.703c-.177.302-.266.63-.266.984Z"/></svg>