<svg xmlns="http://www.w3.org/2000/svg" fill="currentColor" viewBox="0 0 16 16"><path d="M2.016 3.01c0-.27.094-.504.28-.702a.944.944 0 0 1 .717-.296h2.089c.207-.54.592-.863 1.153-.967.166-.29.405-.535.717-.733A1.883 1.883 0 0 1 8 .016c.374 0 .717.099 1.029.296.311.198.55.442.716.733.562.104.946.426 1.154.967h2.088c.27 0 .504.099.701.296a.96.96 0 0 1 .296.702v11.976c0 .291-.098.53-.296.717a.985.985 0 0 1-.701.281H3.013a.97.97 0 0 1-.716-.28.972.972 0 0 1-.28-.718V3.01Zm10.97 11.976V3.01H10.9a1.7 1.7 0 0 1-.39.717c-.177.187-.42.281-.732.281H6.224c-.312 0-.556-.094-.733-.28a1.708 1.708 0 0 1-.39-.718H3.014v11.976h9.974ZM5.57 7.876l.655-.718 1.37 1.372 2.712-3.368.685.655-3.397 4.085-2.026-2.027Zm-.062 3.118h4.986c.333 0 .5.166.5.499 0 .125-.048.24-.141.343a.46.46 0 0 1-.359.156H5.507a.477.477 0 0 1-.343-.156.477.477 0 0 1-.156-.343c0-.146.052-.265.156-.359a.502.502 0 0 1 .343-.14Zm-.499 2.495a.46.46 0 0 1 .156-.359.501.501 0 0 1 .343-.14h4.986c.333 0 .5.166.5.499 0 .125-.048.24-.141.343a.46.46 0 0 1-.359.156H5.507a.477.477 0 0 1-.343-.156.477.477 0 0 1-.156-.343ZM6.504 3.01h2.992c.333 0 .499-.166.499-.499a.502.502 0 0 0-.14-.343.46.46 0 0 0-.359-.156h-.499a.986.986 0 0 0-.28-.702A.944.944 0 0 0 8 1.014c-.29 0-.53.099-.717.296a.986.986 0 0 0-.28.702h-.499a.46.46 0 0 0-.358.156.502.502 0 0 0-.14.343c0 .333.166.499.498.499Z"/></svg>