<svg xmlns="http://www.w3.org/2000/svg" fill="currentColor" viewBox="0 0 16 16"><path d="M15 1c.27 0 .505.094.703.281A.947.947 0 0 1 16 2v12c0 .27-.099.505-.297.703A.961.961 0 0 1 15 15H1a.947.947 0 0 1-.719-.297A.988.988 0 0 1 0 14V2c0-.292.094-.531.281-.719A.973.973 0 0 1 1 1h14Zm0 1H1v12h14V2ZM3.656 7.875 2 6.219l.531-.594L3.656 6.75 5.875 4l.563.531-2.782 3.344Zm0 5.125L2 11.312l.531-.562 1.125 1.125 2.219-2.781.563.562L3.655 13Zm8.844-3c.333 0 .5.167.5.5 0 .125-.047.24-.14.344a.462.462 0 0 1-.36.156h-4a.478.478 0 0 1-.344-.156A.478.478 0 0 1 8 10.5c0-.146.052-.266.156-.36A.503.503 0 0 1 8.5 10h4Zm0-5c.333 0 .5.167.5.5 0 .125-.047.24-.14.344A.462.462 0 0 1 12.5 6h-4a.478.478 0 0 1-.344-.156A.478.478 0 0 1 8 5.5c0-.146.052-.266.156-.36A.503.503 0 0 1 8.5 5h4Z"/></svg>