<svg xmlns="http://www.w3.org/2000/svg" fill="currentColor" viewBox="0 0 16 16"><path d="M2 3c0-.292.094-.531.281-.719A.973.973 0 0 1 3 2h2.094c.104-.25.255-.469.453-.656.198-.188.432-.302.703-.344a1.98 1.98 0 0 1 .719-.719A1.967 1.967 0 0 1 8 0c.375 0 .719.094 1.031.281.313.188.552.427.719.719.27.042.505.156.703.344.198.187.35.406.453.656H13c.292 0 .531.094.719.281A.973.973 0 0 1 14 3v12c0 .27-.094.505-.281.703A.947.947 0 0 1 13 16H3a.947.947 0 0 1-.719-.297A.988.988 0 0 1 2 15V3Zm1 12h10V3h-2.094c-.104.27-.234.505-.39.703-.157.198-.401.297-.735.297H6.22c-.334 0-.578-.099-.735-.297A2.677 2.677 0 0 1 5.094 3H3v12ZM8 5c.563 0 1.083.104 1.563.313a4.065 4.065 0 0 1 2.124 2.125c.209.479.313 1 .313 1.562 0 .563-.104 1.083-.313 1.563a4.064 4.064 0 0 1-2.124 2.124c-.48.209-1 .313-1.563.313a3.877 3.877 0 0 1-1.563-.313 4.064 4.064 0 0 1-2.125-2.124C4.104 10.082 4 9.563 4 9s.104-1.083.313-1.563a4.065 4.065 0 0 1 2.125-2.125A3.88 3.88 0 0 1 8 5ZM5 9c0 .833.292 1.542.875 2.125A2.893 2.893 0 0 0 8 12c.833 0 1.542-.292 2.125-.875A2.893 2.893 0 0 0 11 9c0-.833-.292-1.542-.875-2.125A2.893 2.893 0 0 0 8 6c-.833 0-1.542.292-2.125.875A2.893 2.893 0 0 0 5 9Zm3-2c.542 0 1.01.193 1.406.578.396.386.594.86.594 1.422a1.92 1.92 0 0 1-.594 1.406A1.922 1.922 0 0 1 8 11a1.92 1.92 0 0 1-1.406-.594A1.922 1.922 0 0 1 6 9c0-.563.198-1.036.594-1.422A1.948 1.948 0 0 1 8 7ZM6.5 3h3c.333 0 .5-.167.5-.5 0-.333-.167-.5-.5-.5H9a.973.973 0 0 0-.281-.719A.973.973 0 0 0 8 1a.973.973 0 0 0-.719.281A.973.973 0 0 0 7 2h-.5c-.333 0-.5.167-.5.5 0 .333.167.5.5.5ZM7 9c0 .27.094.505.281.703A.947.947 0 0 0 8 10a.947.947 0 0 0 .719-.297A.988.988 0 0 0 9 9a.973.973 0 0 0-.281-.719A.973.973 0 0 0 8 8a.973.973 0 0 0-.719.281A.973.973 0 0 0 7 9Z"/></svg>