<svg xmlns="http://www.w3.org/2000/svg" fill="currentColor" viewBox="0 0 16 16"><path d="M2 15V3c0-.292.099-.531.297-.719A.988.988 0 0 1 3 2h2.094c.208-.563.604-.896 1.187-1 .167-.292.401-.531.703-.719C7.286.094 7.625 0 8 0s.719.094 1.031.281c.313.188.552.427.719.719a1.424 1.424 0 0 1 1.156 1H13c.292 0 .531.094.719.281A.973.973 0 0 1 14 3v12c0 .27-.094.505-.281.703A.947.947 0 0 1 13 16H3a.961.961 0 0 1-.703-.297A.961.961 0 0 1 2 15Zm1 0h10V3h-2.094c-.104.27-.234.505-.39.703-.157.198-.401.297-.735.297H6.22c-.313 0-.573-.135-.782-.406a1.027 1.027 0 0 1-.218-.297A8.606 8.606 0 0 1 5.094 3H3v12ZM6 2.5c0 .125.047.24.14.344A.462.462 0 0 0 6.5 3h3a.462.462 0 0 0 .36-.156A.503.503 0 0 0 10 2.5c0-.333-.167-.5-.5-.5H9a.973.973 0 0 0-.281-.719A.973.973 0 0 0 8 1a.988.988 0 0 0-.703.281A.947.947 0 0 0 7 2h-.5c-.333 0-.5.167-.5.5Zm1 6c0-.146.052-.266.156-.36A.503.503 0 0 1 7.5 8h3c.333 0 .5.167.5.5 0 .125-.047.24-.14.344A.462.462 0 0 1 10.5 9h-3a.478.478 0 0 1-.344-.156A.478.478 0 0 1 7 8.5Zm0 2c0-.146.052-.266.156-.36A.503.503 0 0 1 7.5 10h3c.333 0 .5.167.5.5 0 .125-.047.24-.14.344a.462.462 0 0 1-.36.156h-3a.478.478 0 0 1-.344-.156A.478.478 0 0 1 7 10.5ZM7.5 6h3c.333 0 .5.167.5.5 0 .125-.047.24-.14.344A.462.462 0 0 1 10.5 7h-3a.478.478 0 0 1-.344-.156A.478.478 0 0 1 7 6.5c0-.146.052-.266.156-.36A.503.503 0 0 1 7.5 6Zm-2 2c.333 0 .5.167.5.5 0 .125-.047.24-.14.344A.462.462 0 0 1 5.5 9a.462.462 0 0 1-.36-.156A.503.503 0 0 1 5 8.5c0-.333.167-.5.5-.5ZM5 6.5c0-.333.167-.5.5-.5.333 0 .5.167.5.5 0 .125-.047.24-.14.344A.462.462 0 0 1 5.5 7a.462.462 0 0 1-.36-.156A.503.503 0 0 1 5 6.5Zm0 4c0-.333.167-.5.5-.5.333 0 .5.167.5.5 0 .125-.047.24-.14.344A.462.462 0 0 1 5.5 11a.462.462 0 0 1-.36-.156A.503.503 0 0 1 5 10.5Z"/></svg>