<svg xmlns="http://www.w3.org/2000/svg" fill="currentColor" viewBox="0 0 16 16"><path d="M13 9.969h1V14c0 .27-.094.505-.281.703A.947.947 0 0 1 13 15H1a.961.961 0 0 1-.703-.297A.961.961 0 0 1 0 14V2c0-.292.099-.531.297-.719A.988.988 0 0 1 1 1h4v1H1v12h12V9.969Zm2.719-7.156c.187.208.281.447.281.718 0 .271-.094.51-.281.719l-2.875 2.625a.478.478 0 0 1-.344.156.478.478 0 0 1-.344-.156.494.494 0 0 1 0-.719L14.5 4H13a5.88 5.88 0 0 0-2.344.469A5.893 5.893 0 0 0 8.75 5.766a6.21 6.21 0 0 0-1.281 1.921A5.81 5.81 0 0 0 7 10v.5c0 .333-.167.5-.5.5-.333 0-.5-.167-.5-.5v-.578c0-.073.01-.12.031-.14a6.49 6.49 0 0 1 .61-2.641A7.182 7.182 0 0 1 8.156 5a7.124 7.124 0 0 1 2.188-1.438A6.72 6.72 0 0 1 13 3.032h1.5L12.156.874a.494.494 0 0 1 0-.719A.478.478 0 0 1 12.5 0c.125 0 .24.052.344.156l2.875 2.656Z"/></svg>