<svg xmlns="http://www.w3.org/2000/svg" fill="currentColor" viewBox="0 0 16 16"><path d="m.183 13.57 8.292-8.405a.506.506 0 0 1 .366-.17c.133 0 .255.057.366.17l1.498 1.519c.267.247.267.506 0 .776l-8.257 8.37a.541.541 0 0 1-.4.169.506.506 0 0 1-.365-.169l-1.5-1.518c-.244-.247-.244-.495 0-.742ZM4.146 1.958 4.845 0l.7 1.958h1.964L5.944 3.274l.666 2.16-1.765-1.35-1.831 1.35.699-2.16-1.565-1.316h1.998Zm6.526 0h1.965l.7-1.958.698 1.958H16l-1.565 1.316.666 2.16-1.765-1.35-1.798 1.35.7-2.16-1.566-1.316Zm0 7.561h1.965l.7-1.958.698 1.958H16l-1.565 1.316.666 2.16-1.765-1.35-1.798 1.35.7-2.16-1.566-1.316Zm-9.357 4.422.733.776 6.027-6.11-.733-.776-6.027 6.11Z"/></svg>