<svg xmlns="http://www.w3.org/2000/svg" fill="currentColor" viewBox="0 0 16 16"><path d="M0 4.938c0-.271.099-.495.297-.672A1.02 1.02 0 0 1 1 4h2c.083-.292.203-.61.36-.953.156-.344.333-.667.53-.969a5.44 5.44 0 0 1 .594-.765C4.682 1.103 4.854 1 5 1h6c.188 0 .375.099.563.297.187.198.37.448.546.75.178.302.344.63.5.984.157.354.287.677.391.969h2a.99.99 0 0 1 .5.125c.125.063.24.156.344.281.104.125.156.302.156.532V8h-1V5h-2.719a8.898 8.898 0 0 0-.14-.5 3.363 3.363 0 0 0-.204-.5 10.662 10.662 0 0 0-.5-1.047A9.289 9.289 0 0 0 10.845 2H5.188c-.23.292-.428.61-.594.953-.167.344-.323.693-.469 1.047a3.356 3.356 0 0 0-.203.5c-.052.167-.11.333-.172.5H1v9h7v1H1a.938.938 0 0 1-.703-.313C.099 14.48 0 14.25 0 14V4.937ZM4 9a4.016 4.016 0 0 1 2.438-3.688A3.88 3.88 0 0 1 8 5c.938 0 1.76.281 2.469.844A3.97 3.97 0 0 1 11.875 8h-1.031a3.004 3.004 0 0 0-1.078-1.438A2.903 2.903 0 0 0 8 6c-.833 0-1.542.292-2.125.875A2.893 2.893 0 0 0 5 9c0 .833.292 1.542.875 2.125A2.893 2.893 0 0 0 8 12v1a3.877 3.877 0 0 1-1.563-.313 4.064 4.064 0 0 1-2.125-2.124C4.104 10.082 4 9.563 4 9Zm5 4v-1h3V9h1v3h3v1h-3v3h-1v-3H9Zm4.5-7c.333 0 .5.167.5.5 0 .333-.167.5-.5.5-.333 0-.5-.167-.5-.5 0-.333.167-.5.5-.5Z"/></svg>