<svg xmlns="http://www.w3.org/2000/svg" fill="currentColor" viewBox="0 0 16 16"><path d="M3.01 2.012v.998h.998v-.998H3.01Zm6.986 0v.998h.998v-.998h-.998ZM1.014 4.008v10.978H8v.998H1.014a.972.972 0 0 1-.717-.28.972.972 0 0 1-.28-.718V2.012a.97.97 0 0 1 .28-.717.971.971 0 0 1 .717-.281H3.01V.016h.998v.998h5.988V.016h.998v.998h1.996c.291 0 .53.094.717.28a.971.971 0 0 1 .281.718v3.992h-.998V4.008H1.014ZM3.01 6.004c.291 0 .53.094.717.28.188.188.281.427.281.718s-.093.53-.28.717A.971.971 0 0 1 3.01 8a.971.971 0 0 1-.717-.28.971.971 0 0 1-.28-.718.97.97 0 0 1 .28-.717.971.971 0 0 1 .717-.281Zm3.992 0c.291 0 .53.094.717.28.188.188.281.427.281.718s-.093.53-.28.717A.971.971 0 0 1 7.001 8a.971.971 0 0 1-.717-.28.971.971 0 0 1-.28-.718.97.97 0 0 1 .28-.717.971.971 0 0 1 .717-.281Zm2.994.998c0-.291.094-.53.28-.717a.972.972 0 0 1 .718-.281c.291 0 .53.094.717.28.188.188.281.427.281.718s-.093.53-.28.717a.972.972 0 0 1-.718.281.972.972 0 0 1-.717-.28.971.971 0 0 1-.28-.718ZM3.01 9.996c.291 0 .53.094.717.28.188.188.281.427.281.718s-.093.53-.28.717a.971.971 0 0 1-.718.281.971.971 0 0 1-.717-.28.972.972 0 0 1-.28-.718.97.97 0 0 1 .28-.717.971.971 0 0 1 .717-.281Zm3.992 0c.291 0 .53.094.717.28.188.188.281.427.281.718s-.093.53-.28.717a.971.971 0 0 1-.718.281.971.971 0 0 1-.717-.28.972.972 0 0 1-.28-.718.97.97 0 0 1 .28-.717.972.972 0 0 1 .717-.281Zm5.988 1.996h2.994v.998H12.99v2.994h-.998V12.99H8.998v-.998h2.994V8.998h.998v2.994Z"/></svg>