<svg xmlns="http://www.w3.org/2000/svg" fill="currentColor" viewBox="0 0 16 16"><path d="M1 2h2.094c.208-.542.594-.865 1.156-.969.167-.291.406-.536.719-.734A1.889 1.889 0 0 1 6 0c.375 0 .719.099 1.031.297.313.198.552.443.719.734.563.104.948.427 1.156.969H11c.292 0 .531.099.719.297A.988.988 0 0 1 12 3v4h-1V3H8.906a1.71 1.71 0 0 1-.39.719C8.339 3.906 8.094 4 7.78 4H4.22c-.313 0-.558-.094-.735-.281A1.71 1.71 0 0 1 3.094 3H1v12h6v1H1a.973.973 0 0 1-.719-.281A.974.974 0 0 1 0 15V3c0-.27.094-.505.281-.703A.947.947 0 0 1 1 2Zm8 10h3V9h1v3h3v1h-3v3h-1v-3H9v-1ZM4.219 7.187l1.375 1.375 2.718-3.374.688.656-3.406 4.093-2.032-2.03.657-.72ZM4.5 3h3c.333 0 .5-.156.5-.469a.541.541 0 0 0-.14-.375A.462.462 0 0 0 7.5 2H7a.988.988 0 0 0-.281-.703A.947.947 0 0 0 6 1a.947.947 0 0 0-.719.297A.988.988 0 0 0 5 2h-.5a.462.462 0 0 0-.36.156.541.541 0 0 0-.14.375c0 .313.167.469.5.469Zm-1 10h4c.333 0 .5.156.5.469 0 .146-.047.27-.14.375A.462.462 0 0 1 7.5 14h-4a.478.478 0 0 1-.344-.156A.478.478 0 0 1 3 13.5c0-.146.052-.266.156-.36A.503.503 0 0 1 3.5 13ZM3 11.5c0-.146.052-.266.156-.36A.503.503 0 0 1 3.5 11h4c.333 0 .5.156.5.469 0 .146-.047.27-.14.375A.462.462 0 0 1 7.5 12h-4a.478.478 0 0 1-.344-.156A.478.478 0 0 1 3 11.5Z"/></svg>