<svg xmlns="http://www.w3.org/2000/svg" fill="currentColor" viewBox="0 0 16 16"><path d="M0 12V2c0-.292.099-.531.297-.719A.988.988 0 0 1 1 1h14c.292 0 .531.094.719.281A.973.973 0 0 1 16 2v5h-1V2H1v10h7v1H1a.961.961 0 0 1-.703-.297A.961.961 0 0 1 0 12Zm8-1H2c0-1.125.25-1.906.75-2.344C3.25 8.22 4 8 5 8a1.92 1.92 0 0 1-1.406-.594A1.922 1.922 0 0 1 3 6c0-.563.198-1.036.594-1.422A1.948 1.948 0 0 1 5 4c.542 0 1.01.193 1.406.578C6.802 4.964 7 5.438 7 6a1.92 1.92 0 0 1-.594 1.406A1.922 1.922 0 0 1 5 8c1 0 1.75.219 2.25.656.5.438.75 1.219.75 2.344Zm4 1H9v-1h3V8h1v3h3v1h-3v3h-1v-3ZM9.5 6h3c.333 0 .5.167.5.5 0 .125-.047.24-.14.344A.462.462 0 0 1 12.5 7h-3a.478.478 0 0 1-.344-.156A.478.478 0 0 1 9 6.5c0-.146.052-.266.156-.36A.503.503 0 0 1 9.5 6Zm0-2h3c.333 0 .5.167.5.5 0 .125-.047.24-.14.344A.462.462 0 0 1 12.5 5h-3a.478.478 0 0 1-.344-.156A.478.478 0 0 1 9 4.5c0-.146.052-.266.156-.36A.503.503 0 0 1 9.5 4Z"/></svg>