<svg xmlns="http://www.w3.org/2000/svg" fill="currentColor" viewBox="0 0 16 16"><path d="M.232 5.006h4.522c.104 0 .177-.052.218-.156L6.812.172c.063-.104.135-.156.218-.156.084 0 .146.052.188.156l1.84 4.678c.041.104.104.156.187.156h4.522c.104 0 .177.052.218.156.042.104.021.187-.062.25l-3.587 2.744c-.062.062-.083.146-.062.25l.374.997-2.557 1.872-.967-.686c-.042-.042-.083-.063-.125-.063l-.03.031h-.032c-.02 0-.042.01-.062.032l-4.772 3.368c-.02.02-.063.031-.125.031a.239.239 0 0 1-.171-.078c-.052-.052-.058-.12-.016-.203l1.965-5.302c.041-.103.01-.187-.094-.249L.107 5.411c-.083-.062-.11-.145-.078-.249.031-.104.099-.156.203-.156Zm8.763 6.986h2.994V8.998h.998v2.994h2.994v.998h-2.994v2.994h-.998V12.99H8.995v-.998Z"/></svg>