<svg xmlns="http://www.w3.org/2000/svg" fill="currentColor" viewBox="0 0 16 16"><path d="M16 12v1h-3v3h-1v-3H9v-1h3V9h1v3h3ZM11 1c.417 0 .72.177.907.531.187.354.166.698-.063 1.032l-3.53 4.062c-.21.208-.313.438-.313.688V11l-3.125 2.844c-.146.104-.27.156-.375.156a.503.503 0 0 1-.344-.14.462.462 0 0 1-.156-.36V7.312c0-.27-.094-.5-.281-.687a173.42 173.42 0 0 0-1.781-2.031L.736 3.219C.37 2.802.189 2.583.189 2.563c-.23-.334-.25-.678-.062-1.032C.314 1.177.606 1 1 1h10ZM7.596 5.938l.14-.157c.094-.104.219-.25.375-.437a36.8 36.8 0 0 1 .547-.64c.208-.24.417-.485.625-.735.5-.584 1.073-1.24 1.719-1.969H1h.032l.25.297a113.831 113.831 0 0 0 2.296 2.64 444.737 444.737 0 0 1 .89 1A2 2 0 0 1 5 7.312v5.063l2-1.844V7.312c0-.52.198-.979.594-1.375Z"/></svg>