<svg xmlns="http://www.w3.org/2000/svg" fill="currentColor" viewBox="0 0 16 16"><path d="M0 14V2c0-.27.094-.505.281-.703A.947.947 0 0 1 1 1h14c.27 0 .505.099.703.297A.961.961 0 0 1 16 2v6h-1V2H1v12h6v1H1a.973.973 0 0 1-.719-.281A.974.974 0 0 1 0 14Zm9-2h3V9h1v3h3v1h-3v3h-1v-3H9v-1Zm-.5-7h4c.333 0 .5.167.5.5 0 .125-.047.24-.14.344A.462.462 0 0 1 12.5 6h-4a.478.478 0 0 1-.344-.156A.478.478 0 0 1 8 5.5c0-.146.052-.266.156-.36A.503.503 0 0 1 8.5 5Zm-5.969.656 1.125 1.125L5.875 4l.563.563-2.782 3.343L2 6.22l.531-.563Zm0 5.094 1.125 1.125 2.219-2.75.563.531L3.655 13 2 11.344l.531-.594Z"/></svg>