<svg xmlns="http://www.w3.org/2000/svg" fill="currentColor" viewBox="0 0 16 16"><path d="M0 14V2a.99.99 0 0 1 .125-.5 1.01 1.01 0 0 1 .297-.344C.557 1.052.75 1 1 1h5.625c.146 0 .27.052.375.156L7.75 2H15c.23 0 .417.052.563.156.145.104.25.219.312.344A.99.99 0 0 1 16 3v4h-1V4a1.399 1.399 0 0 0-.313-.703C14.521 3.099 14.293 3 14 3H7.219a.511.511 0 0 1-.375-.156l-.688-.688A.511.511 0 0 0 5.781 2H2c-.25 0-.443.052-.578.156a1.01 1.01 0 0 0-.297.344A.99.99 0 0 0 1 3v10c0 .27.052.469.156.594.104.125.219.219.344.281A.99.99 0 0 0 2 14h5v1H1a.99.99 0 0 1-.5-.125 1.01 1.01 0 0 1-.344-.297C.052 14.443 0 14.25 0 14Zm9-2h3V9h1v3h3v1h-3v3h-1v-3H9v-1Z"/></svg>