<svg xmlns="http://www.w3.org/2000/svg" fill="currentColor" viewBox="0 0 16 16"><path d="M9 14c0-.854-.286-1.568-.86-2.14C7.569 11.286 6.855 11 6 11H4c-.854 0-1.568.287-2.14.86C1.285 12.431 1 13.145 1 14v1h8v-1ZM5 9a1.92 1.92 0 0 0 1.406-.594A1.92 1.92 0 0 0 7 7c0-.563-.193-1.036-.578-1.422A1.933 1.933 0 0 0 5 5c-.563 0-1.036.193-1.422.578C3.193 5.964 3 6.438 3 7c0 .542.198 1.01.594 1.406A1.92 1.92 0 0 0 5 9Zm3-2c0 .854-.286 1.568-.86 2.14-.572.574-1.286.86-2.14.86h1a3.69 3.69 0 0 1 1.516.313c.468.208.911.49 1.328.843C9.614 11.99 10 12.937 10 14v2H0v-2c0-.563.104-1.083.313-1.563A4.015 4.015 0 0 1 4 10h1c-.854.001-1.568-.285-2.14-.858C2.285 8.568 2 7.854 2 7c0-.854.286-1.568.86-2.14C3.431 4.285 4.145 4 5 4c.854 0 1.568.286 2.14.86C7.715 5.431 8 6.145 8 7Zm8-4v1h-3v3h-1V4H9V3h3V0h1v3h3Z"/></svg>