<svg xmlns="http://www.w3.org/2000/svg" fill="currentColor" viewBox="0 0 16 16"><path d="M3.688 8c.291 0 .578-.099.859-.297.281-.198.422-.443.422-.734v-1c0-.292-.14-.532-.422-.719a1.534 1.534 0 0 0-.86-.281H0a4.504 4.504 0 0 1 1.578-2.14C2.318 2.275 3.188 2 4.188 2c.625 0 1.203.12 1.734.36.531.239 1 .562 1.406.968a4.432 4.432 0 0 1 1.297 3.14c0 .397-.063.803-.188 1.22l5.282 5.218c.187.209.281.443.281.703 0 .26-.094.485-.281.672L12.28 15.72a.9.9 0 0 1-.656.281.973.973 0 0 1-.719-.281l-5.094-5.125c-.395.208-.937.312-1.625.312-1 0-1.87-.276-2.609-.828A4.544 4.544 0 0 1 0 8h3.688ZM1.78 4.031h1.907c.27 0 .541.052.812.157.27.104.516.24.734.406.22.166.396.37.532.61.135.239.203.494.203.765v1c0 .333-.125.677-.375 1.031a2.54 2.54 0 0 1-.875.703 2.3 2.3 0 0 1-1.032.266H1.782c.667.625 1.469.937 2.407.937.083 0 .229-.02.437-.062.208-.042.49-.104.844-.188l.593-.25L11.625 15 13 13.625 7.312 7.969l.157-.563a2.91 2.91 0 0 0 .125-.5 3.4 3.4 0 0 0-.969-2.875 3.65 3.65 0 0 0-1.094-.75A3.236 3.236 0 0 0 4.188 3c-.938 0-1.74.344-2.407 1.031ZM9 4h3V1h1v3h3v1h-3v3h-1V5H9V4Z"/></svg>