<svg xmlns="http://www.w3.org/2000/svg" fill="currentColor" viewBox="0 0 16 16"><path d="M3 7V2.281c0-.375.167-.604.5-.687L7.531.062c.104-.02.177-.03.219-.03C7.813.01 7.833 0 7.813 0c.083 0 .135.01.156.031l7.437 1.844c.396.083.594.333.594.75v10.75c0 .146-.01.23-.031.25-.042.167-.104.281-.188.344-.02.02-.073.031-.156.031h-.156a2.166 2.166 0 0 0-.25-.063 1.708 1.708 0 0 0-.219-.093V3.438c0-.396-.188-.636-.563-.72L8 1.064h-.063c-.02-.021-.052-.032-.093-.032.02 0 0 .01-.063.032-.041 0-.114.01-.218.03l-2.75 1.063 7.625 1.906c.374.084.562.334.562.75V15.25c0 .23-.073.406-.219.531a.724.724 0 0 1-.531.219h-.125L8 14.812v-1.03l4 1.155V5L4 3v4H3Zm-3 6v-1h3V9h1v3h3v1H4v3H3v-3H0Z"/></svg>