<svg xmlns="http://www.w3.org/2000/svg" fill="currentColor" viewBox="0 0 16 16"><path d="M.016 12.491V3.447l3.4-1.716 6.798 3.4v1.933a2.558 2.558 0 0 0-.452.156 7.676 7.676 0 0 1-.358.156c-.125.083-.24.146-.343.187V5.848l-5.645-2.87-2.277 1.155v7.672l5.676 2.838.25-.125c.02-.02.083-.031.187-.031l.25.437.373.499-1.06.499L.016 12.49ZM6.815.016l6.799 3.43v3.712a2.875 2.875 0 0 0-.593-.172 13.165 13.165 0 0 0-.53-.078V4.133L6.815 1.295l-.873.436-1.248-.623L6.815.016ZM8.998 12.99v-.998h2.994V8.998h.998v2.994h2.994v.998H12.99v2.994h-.998V12.99H8.998Zm-3.306-1.653v1.466l-3.4-1.684V9.684l3.4 1.653Z"/></svg>