<svg xmlns="http://www.w3.org/2000/svg" fill="currentColor" viewBox="0 0 16 16"><path d="M0 6V5h1V4H0V3h1V1c0-.27.094-.505.281-.703A.947.947 0 0 1 2 0h12c.27 0 .505.099.703.297A.961.961 0 0 1 15 1c.27 0 .505.099.703.297A.961.961 0 0 1 16 2v2a.947.947 0 0 1-.297.719A.988.988 0 0 1 15 5v1c.27 0 .505.099.703.297A.961.961 0 0 1 16 7v2a.947.947 0 0 1-.297.719A.988.988 0 0 1 15 10v1c.27 0 .505.099.703.297A.961.961 0 0 1 16 12v2a.947.947 0 0 1-.297.719A.988.988 0 0 1 15 15a.947.947 0 0 1-.297.719A.988.988 0 0 1 14 16H2a.973.973 0 0 1-.719-.281A.974.974 0 0 1 1 15v-2H0v-1h1v-1H0v-1h1V6H0Zm2-3h1v1H2v1h1v1H2v4h1v1H2v1h1v1H2v2h12V1H2v2Zm2 4.625c0-.688.104-1.302.313-1.844.208-.541.494-1.01.859-1.406a3.62 3.62 0 0 1 1.312-.906 4.3 4.3 0 0 1 1.641-.313c1.125 0 2.016.339 2.672 1.016.656.677.984 1.578.984 2.703 0 .438-.062.849-.187 1.234a3.076 3.076 0 0 1-.547 1.016c-.24.292-.521.526-.844.703a2.205 2.205 0 0 1-1.078.266c-.417 0-.677-.209-.781-.625-.417.416-.74.625-.969.625-.48 0-.88-.193-1.203-.578-.323-.386-.484-.933-.484-1.641a3.6 3.6 0 0 1 .156-1.047 3.78 3.78 0 0 1 .437-.953 2.42 2.42 0 0 1 .672-.703c.26-.177.547-.266.86-.266.104 0 .244.052.421.157.177.104.38.312.61.625l.094-.625h1l-.657 3.75c-.02.02-.031.093-.031.218 0 .104.083.156.25.156.375 0 .724-.234 1.047-.703a2.768 2.768 0 0 0 .484-1.609c0-.938-.265-1.667-.797-2.188-.53-.52-1.234-.78-2.109-.78-.458 0-.896.088-1.313.265-.416.177-.77.432-1.062.766a3.988 3.988 0 0 0-.703 1.171 4.094 4.094 0 0 0-.266 1.516c0 1.125.313 2.005.938 2.64.625.636 1.406.954 2.343.954.959 0 1.855-.323 2.688-.969h1.031c-.375.5-.88.917-1.515 1.25-.636.333-1.36.5-2.172.5a4.1 4.1 0 0 1-1.656-.328 3.94 3.94 0 0 1-1.297-.906 4.013 4.013 0 0 1-.844-1.375A5.023 5.023 0 0 1 4 7.625Zm2.813.469c0 .833.24 1.25.718 1.25.084 0 .183-.078.297-.235a2.87 2.87 0 0 0 .328-.625 5.68 5.68 0 0 0 .266-.89 4.67 4.67 0 0 0 .11-1c0-.563-.188-.844-.563-.844a.668.668 0 0 0-.5.234 1.843 1.843 0 0 0-.36.594 4.42 4.42 0 0 0-.218.766 3.99 3.99 0 0 0-.079.75Z"/></svg>