<svg xmlns="http://www.w3.org/2000/svg" fill="currentColor" viewBox="0 0 16 16"><path d="M10.469 11.228a8.534 8.534 0 0 0-1.547.655 5.58 5.58 0 0 0-1.172.858c-.333.322-.62.707-.86 1.154-.239.447-.463.972-.671 1.575a.803.803 0 0 1-.297.39.733.733 0 0 1-.422.14.733.733 0 0 1-.422-.14.803.803 0 0 1-.297-.39 10.847 10.847 0 0 0-.672-1.575 4.635 4.635 0 0 0-.859-1.154 5.752 5.752 0 0 0-1.156-.858 7.84 7.84 0 0 0-1.563-.655.721.721 0 0 1-.406-.296.817.817 0 0 1 0-.873.721.721 0 0 1 .406-.297 10.187 10.187 0 0 0 1.563-.67 5.06 5.06 0 0 0 1.156-.858c.333-.333.62-.723.86-1.17.239-.447.463-.961.671-1.544a.803.803 0 0 1 .297-.39.732.732 0 0 1 .422-.14c.146 0 .286.047.422.14a.803.803 0 0 1 .297.39c.208.583.432 1.097.672 1.544.24.447.526.837.859 1.17.333.333.724.619 1.172.858.448.239.963.462 1.547.67a.804.804 0 0 1 .39.296.752.752 0 0 1 0 .874.804.804 0 0 1-.39.296Zm5.25-7.828c-.667.228-1.162.504-1.485.826-.322.322-.599.816-.828 1.482-.062.187-.198.28-.406.28-.208 0-.344-.093-.406-.28-.23-.666-.505-1.16-.828-1.482-.323-.322-.818-.598-1.485-.826A.377.377 0 0 1 10 3.01c0-.198.094-.338.281-.421.667-.229 1.162-.505 1.485-.827.322-.322.599-.816.828-1.481C12.656.094 12.792 0 13 0c.208 0 .344.094.406.28.23.666.505 1.16.828 1.482.323.322.818.598 1.485.827.187.083.281.223.281.42a.377.377 0 0 1-.281.39Z"/></svg>