<svg xmlns="http://www.w3.org/2000/svg" fill="currentColor" viewBox="0 0 16 16"><path d="M15.656 12.688c.104.208.182.411.235.609.052.198.088.39.109.578v.156c0 .646-.24 1.136-.719 1.469-.479.333-1 .5-1.562.5H2.313c-.271 0-.542-.042-.813-.125a2.332 2.332 0 0 1-.734-.375 1.932 1.932 0 0 1-.532-.625A2.033 2.033 0 0 1 0 14.031c0-.27.042-.505.125-.703.083-.198.177-.411.281-.64l5.782-10.5C6.625 1.395 7.26 1 8.094 1c.791 0 1.406.396 1.844 1.188l5.718 10.5Zm-7.625-7.72c-.27 0-.515.084-.734.25-.219.167-.328.438-.328.813.02.146.041.271.062.375.063.521.11 1.021.14 1.5.032.48.069 1.115.11 1.907 0 .229.078.395.235.5a.91.91 0 0 0 .515.156c.459 0 .698-.219.719-.656l.063-1.126.28-2.656c0-.375-.109-.646-.327-.812a1.182 1.182 0 0 0-.735-.25Zm0 9.345c.417 0 .745-.126.985-.376s.359-.583.359-1c0-.395-.12-.718-.36-.968-.239-.25-.567-.375-.984-.375-.416 0-.745.125-.984.375-.24.25-.36.573-.36.969 0 .416.12.75.36 1s.568.374.984.374Z"/></svg>