<svg xmlns="http://www.w3.org/2000/svg" fill="currentColor" viewBox="0 0 16 16"><path d="M7 7.25c0-.167.083-.25.25-.25h4.5c.167 0 .25.083.25.25v2.5c0 .167-.083.25-.25.25h-4.5C7.083 10 7 9.917 7 9.75v-2.5Zm-6 2.5V7.281c0-.166.083-.25.25-.25h4.5c.167 0 .25.084.25.25V9.75c0 .167-.083.25-.25.25h-4.5C1.083 10 1 9.917 1 9.75Zm0 5v-2.5c0-.167.083-.25.25-.25h3.5c.167 0 .25.083.25.25v2.5c0 .167-.083.25-.25.25h-3.5c-.167 0-.25-.083-.25-.25Zm10-2.5c0-.167.083-.25.25-.25h3.5c.167 0 .25.083.25.25v2.469c0 .166-.083.25-.25.25h-3.5c-.167 0-.25-.084-.25-.25V12.25Zm-3-7.5v-2.5c0-.167.083-.25.25-.25h2.5c.167 0 .25.083.25.25v2.5c0 .167-.083.25-.25.25h-2.5C8.083 5 8 4.917 8 4.75Zm-7-2.5c0-.167.083-.25.25-.25h2.5c.167 0 .25.083.25.25v2.5c0 .167-.083.25-.25.25h-2.5C1.083 5 1 4.917 1 4.75v-2.5Zm6 10c0-.167.083-.25.25-.25h2.5c.167 0 .25.083.25.25v2.469c0 .166-.083.25-.25.25h-2.5c-.167 0-.25-.084-.25-.25V12.25Zm6-5c0-.167.083-.25.25-.25h1.5c.167 0 .25.083.25.25v2.5c0 .167-.083.25-.25.25h-1.5c-.167 0-.25-.083-.25-.25v-2.5ZM5.25 2h1.5c.167 0 .25.083.25.25v2.5c0 .167-.083.25-.25.25h-1.5C5.083 5 5 4.917 5 4.75v-2.5c0-.167.083-.25.25-.25Z"/></svg>