<svg xmlns="http://www.w3.org/2000/svg" fill="currentColor" viewBox="0 0 16 16"><path d="M8 0a7.82 7.82 0 0 1 3.094.625 8.163 8.163 0 0 1 2.562 1.703 7.852 7.852 0 0 1 1.719 2.547c.417.98.625 2.02.625 3.125 0 1.104-.208 2.14-.625 3.11a8.082 8.082 0 0 1-1.719 2.546 8.034 8.034 0 0 1-2.562 1.719c-.98.417-2.01.625-3.094.625a7.785 7.785 0 0 1-3.11-.625 8.081 8.081 0 0 1-2.546-1.719A8.08 8.08 0 0 1 .625 11.11 7.786 7.786 0 0 1 0 8c0-1.104.208-2.146.625-3.125.417-.98.99-1.828 1.719-2.547A8.214 8.214 0 0 1 4.89.625 7.785 7.785 0 0 1 8 0Zm0 13.313c.73 0 1.417-.141 2.063-.422a5.422 5.422 0 0 0 1.687-1.141c.48-.48.86-1.042 1.14-1.688A5.109 5.109 0 0 0 13.313 8c0-.75-.14-1.448-.421-2.094A5.42 5.42 0 0 0 11.75 4.22a5.423 5.423 0 0 0-1.688-1.14A5.11 5.11 0 0 0 8 2.655c-.73 0-1.417.14-2.063.422a5.422 5.422 0 0 0-1.687 1.14c-.48.48-.86 1.042-1.14 1.688A5.186 5.186 0 0 0 2.687 8c0 .73.14 1.417.421 2.063A5.423 5.423 0 0 0 4.25 11.75c.48.48 1.042.86 1.688 1.14A5.109 5.109 0 0 0 8 13.313Z"/></svg>