<svg xmlns="http://www.w3.org/2000/svg" fill="currentColor" viewBox="0 0 16 16"><path d="M1 15V2c0-.292.099-.531.297-.719A.988.988 0 0 1 2 1h2V0h1v1h6V0h1v1h2c.292 0 .531.094.719.281A.973.973 0 0 1 15 2v13a.974.974 0 0 1-.281.719A.974.974 0 0 1 14 16H2a.988.988 0 0 1-.703-.281A.947.947 0 0 1 1 15ZM2 4v11h12V4H2Zm6 5c.563 0 1.036.198 1.422.594.385.396.578.864.578 1.406 0 .542-.193 1.01-.578 1.406-.386.396-.86.594-1.422.594a1.92 1.92 0 0 1-1.406-.594A1.922 1.922 0 0 1 6 11c0-.542.198-1.01.594-1.406A1.922 1.922 0 0 1 8 9Zm-5 2c0-.292.099-.531.297-.719A.988.988 0 0 1 4 10c.292 0 .531.094.719.281A.974.974 0 0 1 5 11a.974.974 0 0 1-.281.719A.973.973 0 0 1 4 12a.988.988 0 0 1-.703-.281A.947.947 0 0 1 3 11Zm5-5c.292 0 .531.094.719.281A.973.973 0 0 1 9 7a.973.973 0 0 1-.281.719A.973.973 0 0 1 8 8a.988.988 0 0 1-.703-.281A.947.947 0 0 1 7 7c0-.292.099-.531.297-.719A.988.988 0 0 1 8 6Zm3 1c0-.292.099-.531.297-.719A.988.988 0 0 1 12 6c.292 0 .531.094.719.281A.973.973 0 0 1 13 7a.973.973 0 0 1-.281.719A.974.974 0 0 1 12 8a.988.988 0 0 1-.703-.281A.947.947 0 0 1 11 7ZM4 6c.292 0 .531.094.719.281A.973.973 0 0 1 5 7a.973.973 0 0 1-.281.719A.973.973 0 0 1 4 8a.988.988 0 0 1-.703-.281A.947.947 0 0 1 3 7c0-.292.099-.531.297-.719A.988.988 0 0 1 4 6Zm7 5c0-.292.099-.531.297-.719A.988.988 0 0 1 12 10c.292 0 .531.094.719.281A.974.974 0 0 1 13 11a.974.974 0 0 1-.281.719A.974.974 0 0 1 12 12a.988.988 0 0 1-.703-.281A.947.947 0 0 1 11 11Zm-3 1a.973.973 0 0 0 .719-.281A.974.974 0 0 0 9 11a.974.974 0 0 0-.281-.719A.973.973 0 0 0 8 10a.988.988 0 0 0-.703.281A.947.947 0 0 0 7 11c0 .292.099.531.297.719A.988.988 0 0 0 8 12Zm3-10v1h1V2h-1ZM4 2v1h1V2H4Z"/></svg>