<svg xmlns="http://www.w3.org/2000/svg" fill="currentColor" viewBox="0 0 16 16"><path d="M1 14.986V2.012c0-.291.099-.53.296-.717a.986.986 0 0 1 .702-.281h1.995V.016h.998v.998h5.986V.016h.998v.998h1.995c.291 0 .53.094.717.28a.971.971 0 0 1 .281.718v12.974c0 .291-.094.53-.28.717a.97.97 0 0 1-.718.281H1.998a.985.985 0 0 1-.702-.28.945.945 0 0 1-.296-.718Zm12.97 0V4.008H1.998v10.978H13.97ZM7.984 6.004a.97.97 0 0 1 .717.28c.187.188.28.427.28.718s-.093.53-.28.717A.97.97 0 0 1 7.984 8a.971.971 0 0 1-.717-.28.972.972 0 0 1-.28-.718.97.97 0 0 1 .28-.717.971.971 0 0 1 .717-.281Zm-3.99 3.992c.29 0 .53.094.716.28.187.188.28.427.28.718s-.093.53-.28.717a.97.97 0 0 1-.717.281.97.97 0 0 1-.717-.28.971.971 0 0 1-.28-.718.97.97 0 0 1 .28-.717.971.971 0 0 1 .717-.281Zm7.98-3.992c.292 0 .53.094.718.28.187.188.28.427.28.718s-.093.53-.28.717a.971.971 0 0 1-.717.281.971.971 0 0 1-.717-.28.971.971 0 0 1-.28-.718.97.97 0 0 1 .28-.717.971.971 0 0 1 .717-.281Zm0 3.992c.292 0 .53.094.718.28.187.188.28.427.28.718s-.093.53-.28.717a.97.97 0 0 1-.717.281.97.97 0 0 1-.717-.28.971.971 0 0 1-.28-.718.97.97 0 0 1 .28-.717.971.971 0 0 1 .717-.281Zm-3.99 0c.291 0 .53.094.717.28.187.188.28.427.28.718s-.093.53-.28.717a.97.97 0 0 1-.717.281.97.97 0 0 1-.717-.28.971.971 0 0 1-.28-.718.97.97 0 0 1 .28-.717.971.971 0 0 1 .717-.281ZM2.995 7.002c0-.291.094-.53.281-.717a.971.971 0 0 1 .717-.281c.291 0 .53.094.717.28.187.188.28.427.28.718s-.093.53-.28.717A.971.971 0 0 1 3.993 8a.971.971 0 0 1-.717-.28.972.972 0 0 1-.28-.718Zm8.98-3.992v-.998h-.998v.998h.998Zm-7.982-.998v.998h.998v-.998h-.998Z"/></svg>