<svg xmlns="http://www.w3.org/2000/svg" fill="currentColor" viewBox="0 0 16 16"><path d="m10.344 8.781.687.688-3.312 3.844-2-1.97.656-.687L7.719 12l2.625-3.219ZM13 0c.292 0 .531.099.719.297A.988.988 0 0 1 14 1v14a.974.974 0 0 1-.281.719A.974.974 0 0 1 13 16H3a.973.973 0 0 1-.719-.281A.974.974 0 0 1 2 15V1c0-.27.094-.505.281-.703A.947.947 0 0 1 3 0h10Zm0 1H3v14h10V1Zm-2.5 4c.333 0 .5.167.5.5 0 .125-.047.24-.14.344A.462.462 0 0 1 10.5 6h-5a.478.478 0 0 1-.344-.156A.478.478 0 0 1 5 5.5c0-.146.052-.266.156-.36A.503.503 0 0 1 5.5 5h5Zm0-2c.333 0 .5.167.5.5 0 .125-.047.24-.14.344A.462.462 0 0 1 10.5 4h-5a.478.478 0 0 1-.344-.156A.478.478 0 0 1 5 3.5c0-.146.052-.266.156-.36A.503.503 0 0 1 5.5 3h5Z"/></svg>