<svg xmlns="http://www.w3.org/2000/svg" fill="currentColor" viewBox="0 0 16 16"><path d="M13.85 1.722C15.283 2.87 16 4.415 16 6.356a6.27 6.27 0 0 1-.38 2.208 6.888 6.888 0 0 1-.98 1.8c-.4.522-.87.945-1.407 1.268a3.286 3.286 0 0 1-1.723.485c-.633 0-1.112-.182-1.439-.548-.327-.365-.49-.746-.49-1.142V10.3a.533.533 0 0 0 .032-.219c-.717 1.357-1.666 2.035-2.846 2.035-.76 0-1.423-.302-1.992-.908-.57-.605-.854-1.42-.854-2.442 0-.626.11-1.242.332-1.847a6.086 6.086 0 0 1 .917-1.66c.39-.5.838-.908 1.344-1.22a3.122 3.122 0 0 1 1.676-.47c.59 0 1.07.161 1.438.485a2.2 2.2 0 0 1 .712 1.237l.38-1.378 1.675.877-1.17 3.913-.095.533a7.016 7.016 0 0 1-.063.235.736.736 0 0 0-.031.203.83.83 0 0 0 .22.564c.149.167.349.25.602.25.316 0 .632-.094.948-.282.317-.187.596-.47.838-.845a5.26 5.26 0 0 0 .601-1.362 5.965 5.965 0 0 0 .237-1.706c0-.731-.137-1.399-.41-2.004a4.217 4.217 0 0 0-1.17-1.535 5.32 5.32 0 0 0-1.787-.955c-.685-.219-1.45-.328-2.293-.328-1.096 0-2.082.172-2.956.516a7.095 7.095 0 0 0-2.293 1.44A6.305 6.305 0 0 0 2.071 5.59a6.737 6.737 0 0 0-.522 2.646c0 .96.17 1.821.506 2.583.338.762.817 1.42 1.44 1.973.62.553 1.348.98 2.18 1.283a7.857 7.857 0 0 0 2.704.454c.802 0 1.524-.094 2.167-.281a21.097 21.097 0 0 0 2.039-.72l1.454.72a14.03 14.03 0 0 1-2.766 1.283 9.479 9.479 0 0 1-3.02.47c-1.244 0-2.372-.198-3.383-.595a7.845 7.845 0 0 1-2.61-1.644 7.203 7.203 0 0 1-1.675-2.458C.195 10.364 0 9.331 0 8.203 0 7.036.221 5.95.664 4.948a8 8 0 0 1 1.818-2.599A8.435 8.435 0 0 1 5.217.626C6.271.21 7.42 0 8.664 0c2.108 0 3.837.574 5.186 1.722ZM9.17 8.924c.21-.564.38-1.065.506-1.503.126-.439.19-.804.19-1.096 0-.355-.111-.663-.332-.924a1.085 1.085 0 0 0-.87-.391c-.358 0-.69.13-.996.391a3.71 3.71 0 0 0-.79.955 6.313 6.313 0 0 0-.554 1.237 4.153 4.153 0 0 0-.221 1.3c0 .521.116.928.348 1.22.231.293.537.439.917.439.716 0 1.317-.543 1.802-1.628Z"/></svg>