<svg xmlns="http://www.w3.org/2000/svg" fill="currentColor" viewBox="0 0 16 16"><path d="M15.094 1.86c.604.655.906 1.371.906 2.149 0 .818-.302 1.525-.906 2.118l-7.781 7.645C6.479 14.59 5.468 15 4.28 15a4.13 4.13 0 0 1-1.656-.338 4.424 4.424 0 0 1-1.36-.905 4.338 4.338 0 0 1-.921-1.336A3.936 3.936 0 0 1 0 10.794c0-1.167.417-2.16 1.25-2.978L8.188 1.03l.843.829-6.906 6.815a2.97 2.97 0 0 0-.688.998 2.867 2.867 0 0 0-.218 1.09c0 .389.073.768.218 1.136.146.369.355.69.625.967.271.277.594.502.97.676.374.174.79.26 1.25.26.833 0 1.551-.296 2.155-.89l7.813-7.644a1.7 1.7 0 0 0 .531-1.26c0-.47-.187-.89-.562-1.258-.375-.368-.802-.553-1.281-.553-.521 0-.959.174-1.313.522L5.156 9.105a.57.57 0 0 0 0 .844.633.633 0 0 0 .875-.015l5.594-5.495.875.829-5.625 5.526c-.354.348-.792.522-1.313.522-.479 0-.9-.18-1.265-.538-.365-.358-.547-.772-.547-1.243 0-.512.177-.941.531-1.29l6.5-6.385c.584-.573 1.292-.86 2.125-.86.375 0 .755.072 1.14.215.386.143.735.358 1.048.645Z"/></svg>