<svg xmlns="http://www.w3.org/2000/svg" fill="currentColor" viewBox="0 0 16 16"><path d="M7.031 3.094H16v9.781H7.031V3.094Zm1 7.906H15V4H8.031v7ZM0 15V4l4-4h7c.27 0 .505.094.703.281A.947.947 0 0 1 12 1v1h-1V1H5v3a.947.947 0 0 1-.297.719A1.027 1.027 0 0 1 3.97 5H1v10h10v-1h1v1a.974.974 0 0 1-.281.719A.974.974 0 0 1 11 16H1a.973.973 0 0 1-.719-.281A.974.974 0 0 1 0 15Zm9.844-6.656c0-.396.187-.594.562-.594h1.281A1.17 1.17 0 0 1 11 7.531c-.313-.25-.469-.552-.469-.906s.11-.63.328-.828c.22-.198.495-.297.829-.297.187 0 .291.01.312.031.23.063.427.183.594.36.166.177.25.421.25.734s-.115.578-.344.797c-.23.219-.5.328-.813.328h1.407c.354 0 .531.198.531.594V10H9.844V8.344Z"/></svg>