<svg xmlns="http://www.w3.org/2000/svg" fill="currentColor" viewBox="0 0 16 16"><path d="M5 10c-.313 0-.542-.052-.688-.156a.714.714 0 0 1-.28-.344A.803.803 0 0 1 4 9V8a.803.803 0 0 1 .031-.5.714.714 0 0 1 .282-.344C4.457 7.052 4.688 7 5 7h.844a.603.603 0 0 0 .312-.094l3.032-2.312A.506.506 0 0 1 9.5 4.5c.125 0 .24.047.344.14A.462.462 0 0 1 10 5v7c0 .167-.052.292-.156.375a.538.538 0 0 1-.344.125.506.506 0 0 1-.313-.094l-3.03-2.312A.603.603 0 0 0 5.843 10H5Zm0-1h.844c.333 0 .635.104.906.313L9 11V6L6.75 7.719A1.47 1.47 0 0 1 5.844 8H5v1Zm6 5h1v1a.974.974 0 0 1-.281.719A.974.974 0 0 1 11 16H1a.973.973 0 0 1-.719-.281A.974.974 0 0 1 0 15V4l4-4h7c.27 0 .505.094.703.281A.947.947 0 0 1 12 1v1h-1V1H5v3a.947.947 0 0 1-.297.719A1.027 1.027 0 0 1 3.97 5H1v10h10v-1Zm.813-8.094c.354.313.64.693.859 1.14.219.449.328.933.328 1.454 0 .5-.099.969-.297 1.406a3.5 3.5 0 0 1-.797 1.125l-.844-.625c.292-.229.521-.505.688-.828A2.31 2.31 0 0 0 12 8.5c0-.417-.094-.792-.281-1.125A2.817 2.817 0 0 0 11 6.531V6.5l.813-.594Zm2.437-1.843a6.68 6.68 0 0 1 1.281 2c.313.75.469 1.562.469 2.437 0 .833-.146 1.62-.438 2.36a6.184 6.184 0 0 1-1.218 1.953l-.813-.594A5.345 5.345 0 0 0 15 8.5c0-.75-.14-1.453-.422-2.11a5.373 5.373 0 0 0-1.14-1.702l.812-.625Z"/></svg>