<svg xmlns="http://www.w3.org/2000/svg" fill="currentColor" viewBox="0 0 16 16"><path d="M0 15V4l4.016-4h7.027c.272 0 .507.094.706.281a.945.945 0 0 1 .298.719v1h-1.004V1H5.02v3c0 .292-.1.531-.298.719A1.033 1.033 0 0 1 3.984 5h-2.98v10h10.04v-1h1.003v1a.972.972 0 0 1-.282.719.98.98 0 0 1-.722.281H1.003a.98.98 0 0 1-.72-.281A.972.972 0 0 1 0 15Zm12.392-3.125c0-.146.042-.26.126-.344L14.525 9l-2.007-2.5a.464.464 0 0 1-.126-.344c0-.375.188-.562.565-.562.167 0 .324.073.47.218L16 9l-2.572 3.219c-.147.146-.304.219-.471.219a.467.467 0 0 1-.345-.126c-.147-.083-.22-.229-.22-.437ZM4.204 9l2.572-3.188c.084-.145.23-.218.44-.218.146 0 .261.041.345.125a.591.591 0 0 1 .125.781L5.678 9l2.008 2.531.047.235c.01.052.016.088.016.109 0 .125-.037.25-.11.375-.073.125-.214.188-.423.188-.147 0-.293-.073-.44-.22L4.204 9Zm4.172 3.438c0-.105.01-.167.032-.188l2.29-6.813c.063-.208.178-.343.345-.406.021-.02.094-.031.22-.031.167 0 .298.063.392.188.094.125.141.25.141.375s-.01.197-.031.218l-2.26 6.844c-.083.27-.271.406-.564.406a.506.506 0 0 1-.408-.187.62.62 0 0 1-.157-.406Z"/></svg>