<svg xmlns="http://www.w3.org/2000/svg" fill="currentColor" viewBox="0 0 16 16"><path d="M4 8c0-.375.094-.714.281-1.016.188-.302.427-.536.719-.703A1.809 1.809 0 0 1 6 6h4c.396 0 .73.094 1 .281.292.167.531.401.719.703.187.302.281.641.281 1.016v.156l2.5-2.031A.99.99 0 0 1 15 6c.27 0 .505.094.703.281A.947.947 0 0 1 16 7v5.438a.947.947 0 0 1-.297.718.988.988 0 0 1-.703.281.937.937 0 0 1-.5-.156l-2.531-2.125c-.063.709-.386 1.23-.969 1.563-.27.187-.604.281-1 .281H6a1.92 1.92 0 0 1-1.406-.594A1.922 1.922 0 0 1 4 11V8Zm0-8h7c.27 0 .505.094.703.281A.947.947 0 0 1 12 1v3h-1V1H5v3a.947.947 0 0 1-.297.719A1.027 1.027 0 0 1 3.97 5H1v10h10v-1h1v1a.974.974 0 0 1-.281.719A.974.974 0 0 1 11 16H1a.973.973 0 0 1-.719-.281A.974.974 0 0 1 0 15V4l4-4Zm1 11c0 .27.094.505.281.703A.947.947 0 0 0 6 12h4a.947.947 0 0 0 .719-.297A.988.988 0 0 0 11 11V8a.973.973 0 0 0-.281-.719A.974.974 0 0 0 10 7H6a.973.973 0 0 0-.719.281A.973.973 0 0 0 5 8v3Zm7-1.563v.438l3 2.563V7l-3 2.438Z"/></svg>