<svg xmlns="http://www.w3.org/2000/svg" fill="currentColor" viewBox="0 0 16 16"><path d="M8 0c1.104 0 2.146.208 3.125.625.98.417 1.828.99 2.547 1.719a8.216 8.216 0 0 1 1.703 2.547C15.792 5.859 16 6.896 16 8s-.208 2.14-.625 3.11a8.217 8.217 0 0 1-1.703 2.546 7.853 7.853 0 0 1-2.547 1.719c-.98.417-2.02.625-3.125.625a7.785 7.785 0 0 1-3.11-.625 8.081 8.081 0 0 1-2.546-1.719A8.08 8.08 0 0 1 .625 11.11 7.786 7.786 0 0 1 0 8c0-1.104.208-2.14.625-3.11a8.08 8.08 0 0 1 1.719-2.546A8.08 8.08 0 0 1 4.89.625 7.785 7.785 0 0 1 8 0Zm4 9c.375 0 .693-.073.953-.219.26-.146.39-.406.39-.781 0-.354-.13-.61-.39-.766C12.693 7.078 12.375 7 12 7H9V4c0-.375-.073-.693-.219-.953-.146-.26-.406-.39-.781-.39-.354 0-.61.13-.766.39C7.078 3.307 7 3.625 7 4v4c0 .375.078.635.234.781.157.146.412.219.766.219h4Z"/></svg>