<svg xmlns="http://www.w3.org/2000/svg" fill="currentColor" viewBox="0 0 16 16"><path d="M15 0c.292 0 .531.099.719.297A.988.988 0 0 1 16 1a.973.973 0 0 1-.281.719A.974.974 0 0 1 15 2H1a.973.973 0 0 1-.719-.281A.973.973 0 0 1 0 1C0 .73.094.495.281.297A.947.947 0 0 1 1 0h14Zm-3.063 7.469c.25.229.25.468 0 .718-.25.23-.49.23-.718 0L8.5 5.47V15.5c0 .333-.167.5-.5.5-.333 0-.5-.167-.5-.5V5.531L4.844 8.188a.478.478 0 0 1-.344.156.478.478 0 0 1-.344-.156c-.25-.23-.25-.47 0-.72l3.188-3.155c.208-.188.442-.287.703-.297.26-.01.495.088.703.296l3.188 3.157Z"/></svg>