<svg xmlns="http://www.w3.org/2000/svg" fill="currentColor" viewBox="0 0 16 16"><path d="M11.5 6c-.417 0-.77-.146-1.063-.438A1.446 1.446 0 0 1 10 4.5c0-.417.146-.77.438-1.063A1.447 1.447 0 0 1 11.5 3c.417 0 .77.146 1.063.438.291.291.437.645.437 1.062 0 .417-.146.77-.438 1.063A1.447 1.447 0 0 1 11.5 6ZM14 1c.292 0 .531.094.719.281A.973.973 0 0 1 15 2v12a.974.974 0 0 1-.281.719A.974.974 0 0 1 14 15H2a.988.988 0 0 1-.703-.281A.947.947 0 0 1 1 14V2c0-.292.099-.531.297-.719A.988.988 0 0 1 2 1h12Zm0 1H2v12h12V2Zm-2.875 9L9.312 8.344 10 7l3 4h-1.875Zm-.219 1H2.937L7 6.281 10.906 12Z"/></svg>