<svg xmlns="http://www.w3.org/2000/svg" fill="currentColor" viewBox="0 0 16 16"><path d="M7 4h2v8H7V4ZM2 4h2v8H2V4Zm3 0h1v8H5V4Zm7 0h2v8h-2V4Zm-1 8h-1V4h1v8Zm3.5-11c.417 0 .77.146 1.063.438.291.291.437.645.437 1.062V6h-1V2.5c0-.333-.167-.5-.5-.5H11V1h3.5Zm.5 9h1v3.5c0 .417-.146.77-.438 1.063A1.446 1.446 0 0 1 14.5 15H11v-1h3.5c.333 0 .5-.167.5-.5V10ZM1 6H0V2.5c0-.417.146-.77.438-1.063A1.447 1.447 0 0 1 1.5 1H5v1H1.5c-.333 0-.5.167-.5.5V6Zm0 7.5c0 .333.167.5.5.5H5v1H1.5c-.417 0-.77-.146-1.062-.438A1.447 1.447 0 0 1 0 13.5V10h1v3.5Z"/></svg>