<svg xmlns="http://www.w3.org/2000/svg" fill="currentColor" viewBox="0 0 16 16"><path d="M5.43 1.671a.518.518 0 0 1 .015-.374.421.421 0 0 1 .266-.25.463.463 0 0 1 .406 0 .474.474 0 0 1 .25.28l2.062 5.619a.543.543 0 0 1-.031.406.474.474 0 0 1-.281.25.564.564 0 0 1-.391-.016.424.424 0 0 1-.266-.297L5.43 1.671Zm9.56 4.339c.354 0 .63.14.828.421a.94.94 0 0 1 .11.92L13.49 12.69a1.96 1.96 0 0 1-.734.952c-.344.24-.724.359-1.14.359H4.399a1.95 1.95 0 0 1-1.14-.359 1.96 1.96 0 0 1-.735-.952L.056 7.352A1.028 1.028 0 0 1 .18 6.43c.187-.28.458-.421.812-.421H5.18c.146.145.28.27.406.374.104.104.198.208.281.312a.5.5 0 0 1 .125.312c0 .541.198 1.01.594 1.405.395.395.864.593 1.406.593.562 0 1.036-.198 1.421-.593.386-.395.578-.864.578-1.405a.5.5 0 0 1 .125-.312c.084-.104.177-.208.281-.312l.438-.374h4.155Zm-.437 1.997h-3.718A3.244 3.244 0 0 1 9.74 9.443c-.5.375-1.083.562-1.75.562a2.857 2.857 0 0 1-1.733-.562A3 3 0 0 1 5.18 8.007H1.462l1.968 4.276v.032l.031.03a.924.924 0 0 0 .36.469c.177.125.37.187.578.187h7.217a.914.914 0 0 0 .562-.187c.167-.125.292-.281.375-.468v-.031l2-4.308Z"/></svg>