<svg xmlns="http://www.w3.org/2000/svg" fill="currentColor" viewBox="0 0 16 16"><path d="M.262 5.256h.29L.23 3.412a.36.36 0 0 1 .065-.197c.043-.066.097-.099.162-.099l2.714-.494-.064-.69c-.022-.067-.006-.127.048-.182a.453.453 0 0 1 .178-.115l6.851-.626c.065-.022.124-.005.178.05a.462.462 0 0 1 .113.18l.032.528 3.587.427c.173.044.259.143.259.297l-.226 3.456h-.614l.129-3.127-3.038-.33.42 4.642h-.678l-.453-5.2-6.075.592.42 4.608H3.59L3.235 3.38l-2.23.395.873 4.905-.291 1.25c-.022-.11-.076-.345-.162-.707-.086-.362-.178-.741-.275-1.136-.096-.395-.183-.752-.258-1.07C.817 6.7.768 6.53.747 6.507c.107 1.01.204 1.964.29 2.864l.13 1.136c.043.384.08.746.113 1.086a41.54 41.54 0 0 0 .177 1.563l1.196-5.2c0-.132.076-.198.226-.198h8.79c.087-.307.167-.56.243-.757.075-.198.231-.297.468-.297h3.103c.323 0 .495.132.517.395 0 .088-.01.143-.032.165L14.19 15H.973l-.97-9.448c-.021-.197.065-.296.259-.296Zm1.906 8.822h11.344L14.74 8.68H3.364l-1.196 5.398ZM5.045 4.4c0-.812.527-1.328 1.583-1.547l-.032-.362.614-.066.032.33c.474 0 .867.109 1.18.328.312.22.5.505.565.856l-1.034.198a1.155 1.155 0 0 0-.258-.346.692.692 0 0 0-.356-.181l.13 1.448c.43.044.77.121 1.017.23.248.11.437.231.566.363.13.132.22.274.275.428.053.154.091.296.113.428a2.888 2.888 0 0 1-.065.625H8.276c.108-.175.14-.318.097-.428a1.637 1.637 0 0 0-.21-.362c-.097-.131-.307-.22-.63-.263l.097 1.053h-.646l-.13-1.152a3.626 3.626 0 0 1-1.244-.41c-.377-.209-.565-.598-.565-1.169Zm1.13-.033a.68.68 0 0 0 .162.313c.086.099.248.192.485.28l-.13-1.317a1.594 1.594 0 0 0-.355.214c-.129.099-.183.269-.161.51Zm.033 2.47.194.295H5.109c0-.065-.01-.11-.032-.131l1.131-.165Z"/></svg>