<svg xmlns="http://www.w3.org/2000/svg" fill="currentColor" viewBox="0 0 16 16"><path d="M15.406 1.875c.167.042.307.13.422.266a.684.684 0 0 1 .172.453v10.781c0 .063-.01.135-.031.219-.021.062-.042.13-.063.203a.3.3 0 0 1-.125.172.435.435 0 0 1-.187.031c-.104 0-.24-.02-.406-.063a.396.396 0 0 1-.188-.093V3.438a.684.684 0 0 0-.172-.454.794.794 0 0 0-.422-.265L8 1.063a.218.218 0 0 1-.094-.016.218.218 0 0 0-.093-.016.992.992 0 0 0-.282.063l-2.75 1.031 7.625 1.938c.396.104.594.354.594.75V15.25a.723.723 0 0 1-.219.531.723.723 0 0 1-.531.219H12V5L4 3v1H3V2.281c0-.333.156-.573.469-.719L7.53.063A.511.511 0 0 1 7.813 0h.125l7.468 1.875Zm-4.562 13.281c.229.23.229.459 0 .688A.478.478 0 0 1 10.5 16a.478.478 0 0 1-.344-.156L7.281 13a4.378 4.378 0 0 1-1.265.734A4.253 4.253 0 0 1 4.5 14c-.625 0-1.214-.12-1.766-.36a4.6 4.6 0 0 1-1.437-.968A4.432 4.432 0 0 1 0 9.5a4.445 4.445 0 0 1 2.734-4.14C3.286 5.12 3.875 5 4.5 5s1.208.12 1.75.36a4.65 4.65 0 0 1 1.422.968c.406.406.729.88.969 1.422C8.88 8.292 9 8.875 9 9.5c0 1.063-.333 1.99-1 2.781l2.844 2.875ZM4.5 13c.48 0 .932-.094 1.36-.281a3.598 3.598 0 0 0 1.109-.75 3.61 3.61 0 0 0 .75-1.11C7.906 10.432 8 9.98 8 9.5s-.094-.932-.281-1.36a3.594 3.594 0 0 0-.75-1.109 3.594 3.594 0 0 0-1.11-.75A3.344 3.344 0 0 0 4.5 6c-.48 0-.932.094-1.36.281a3.594 3.594 0 0 0-1.109.75 3.594 3.594 0 0 0-.75 1.11A3.348 3.348 0 0 0 1 9.5c0 .48.094.932.281 1.36.188.427.438.796.75 1.109.313.312.683.562 1.11.75.427.187.88.281 1.359.281Zm1.531-5.344.625.625-2.906 3.375L2.219 9.97l.625-.625.906 1.031 2.281-2.719Z"/></svg>