<svg xmlns="http://www.w3.org/2000/svg" fill="currentColor" viewBox="0 0 16 16"><path d="M15.688 7.316A.982.982 0 0 1 16 8.03c0 .27-.104.498-.313.685l-7 5.973A.892.892 0 0 1 8 15a.99.99 0 0 1-.719-.311.929.929 0 0 1-.281-.685c0-.27.094-.508.281-.715l5.938-4.916c.229-.228.229-.466 0-.715L7.313 2.71a.948.948 0 0 1-.282-.7c0-.28.094-.513.282-.7A.99.99 0 0 1 8.03 1c.271 0 .51.104.719.311l6.938 6.005ZM1.562 14.782h-.03l-.25.125a.622.622 0 0 1-.282.062.949.949 0 0 1-.719-.296.981.981 0 0 1-.281-.7V2.027a.94.94 0 0 1 .297-.716.99.99 0 0 1 .703-.28c.188 0 .365.042.531.125l8.094 5.942c.333.207.5.498.5.87 0 .374-.167.654-.5.84l-8.063 5.974ZM7.625 7.97 2 4.018v7.964L7.625 7.97Z"/></svg>