<svg xmlns="http://www.w3.org/2000/svg" fill="currentColor" viewBox="0 0 16 16"><path d="M1 13c0-.146.156-.365.469-.656.312-.292.635-.714.968-1.266.334-.552.6-1.255.797-2.11.198-.853.183-1.905-.046-3.155a3.583 3.583 0 0 1 .093-1.704c.167-.53.427-1 .781-1.406a4.65 4.65 0 0 1 1.313-1.031 5.498 5.498 0 0 1 1.656-.578c0-.313.073-.573.219-.781C7.396.104 7.646 0 8 0c.292 0 .526.094.703.281.177.188.266.459.266.813a5.41 5.41 0 0 1 1.562.562c.5.271.927.615 1.281 1.032.355.416.61.89.766 1.421.156.532.172 1.1.047 1.704-.25 1.25-.266 2.302-.047 3.156.219.854.505 1.557.86 2.11.354.551.703.973 1.046 1.265.344.291.516.51.516.656a.974.974 0 0 1-.281.719A.974.974 0 0 1 14 14h-4a1.92 1.92 0 0 1-.594 1.406A1.922 1.922 0 0 1 8 16a1.92 1.92 0 0 1-1.406-.594A1.922 1.922 0 0 1 6 14H2a.973.973 0 0 1-.719-.281A.974.974 0 0 1 1 13Zm1.219 0H13.75c-.208-.23-.474-.547-.797-.953-.323-.406-.614-.912-.875-1.516-.26-.604-.448-1.312-.562-2.125-.115-.812-.068-1.74.14-2.781.104-.52.078-.98-.078-1.375-.156-.396-.328-.708-.515-.938-.396-.479-.834-.817-1.313-1.015C9.27 2.099 8.687 2 8 2c-.667 0-1.266.099-1.797.297a3.275 3.275 0 0 0-1.39 1.015c-.209.23-.396.542-.563.938-.167.396-.198.854-.094 1.375.188 1.042.23 1.969.125 2.781-.104.813-.27 1.521-.5 2.125-.229.604-.495 1.11-.797 1.516A13.01 13.01 0 0 1 2.22 13Z"/></svg>