<svg xmlns="http://www.w3.org/2000/svg" fill="currentColor" viewBox="0 0 16 16"><path d="M1 13.125c0-.23.156-.49.469-.781.312-.292.635-.714.968-1.266.334-.552.6-1.255.797-2.11.198-.853.204-1.79.016-2.812-.146-.833-.135-1.515.031-2.047.167-.53.427-1 .781-1.406a4.65 4.65 0 0 1 1.313-1.031 5.498 5.498 0 0 1 1.656-.578c0-.313.073-.573.219-.781C7.396.104 7.646 0 8 0c.292 0 .526.094.703.281.177.188.266.459.266.813a5.41 5.41 0 0 1 1.562.562c.5.271.927.615 1.281 1.032.355.416.61.89.766 1.421.156.532.151 1.204-.015 2.016-.209 1.042-.204 1.99.015 2.844.219.854.505 1.557.86 2.11.354.551.703.973 1.046 1.265.344.291.516.562.516.812 0 .188-.094.375-.281.563A.974.974 0 0 1 14 14h-4a1.92 1.92 0 0 1-.594 1.406A1.922 1.922 0 0 1 8 16a1.92 1.92 0 0 1-1.406-.594A1.922 1.922 0 0 1 6 14H2a.973.973 0 0 1-.719-.281C1.094 13.53 1 13.333 1 13.125Z"/></svg>