<svg xmlns="http://www.w3.org/2000/svg" fill="currentColor" viewBox="0 0 16 16"><path d="M7.969 13a4.26 4.26 0 0 1-2.11-.531A5.112 5.112 0 0 1 4.22 11a2.063 2.063 0 0 1-.188-.344A.515.515 0 0 1 4 10.5c0-.333.167-.5.5-.5.083 0 .167.026.25.078.083.052.198.182.344.39.333.48.75.855 1.25 1.126.5.27 1.052.406 1.656.406a3.42 3.42 0 0 0 1.656-.406 3.59 3.59 0 0 0 1.25-1.125c.146-.188.26-.307.344-.36a.468.468 0 0 1 .25-.078c.333 0 .5.167.5.5 0 .042-.01.094-.031.156a1.484 1.484 0 0 1-.188.313 5.898 5.898 0 0 1-1.578 1.406c-.635.396-1.38.594-2.234.594ZM6.75 9C6.25 9 6 8.833 6 8.5c0-.333.208-.5.625-.5.354 0 .672-.146.953-.438C7.86 7.271 8 6.918 8 6.5v-2c0-.333.167-.5.5-.5.333 0 .5.167.5.5v2c0 .333-.063.656-.188.969a2.34 2.34 0 0 1-.515.797 2.918 2.918 0 0 1-.719.53A1.77 1.77 0 0 1 6.75 9ZM4.5 7c-.333 0-.5-.167-.5-.5v-2c0-.333.167-.5.5-.5.333 0 .5.167.5.5v2c0 .333-.167.5-.5.5Zm7 0c-.333 0-.5-.167-.5-.5v-2c0-.333.167-.5.5-.5.333 0 .5.167.5.5v2c0 .333-.167.5-.5.5ZM16 5h-1V1.5c0-.333-.167-.5-.5-.5H11V0h3.5c.417 0 .77.146 1.063.438.291.291.437.645.437 1.062V5Zm-1.5 11H11v-1h3.5c.333 0 .5-.167.5-.5V11h1v3.5c0 .417-.146.77-.438 1.063A1.446 1.446 0 0 1 14.5 16ZM1 5H0V1.5C0 1.083.146.73.438.438A1.447 1.447 0 0 1 1.5 0H5v1H1.5c-.333 0-.5.167-.5.5V5Zm4 11H1.5c-.417 0-.77-.146-1.062-.438A1.447 1.447 0 0 1 0 14.5V11h1v3.5c0 .333.167.5.5.5H5v1Z"/></svg>