<svg xmlns="http://www.w3.org/2000/svg" fill="currentColor" viewBox="0 0 16 16"><path d="M4.5 16a.464.464 0 0 1-.234-.063 1.353 1.353 0 0 1-.297-.28 4.283 4.283 0 0 1-.735-1.095 7.734 7.734 0 0 1-.484-1.328 9.453 9.453 0 0 1-.266-1.437 13.48 13.48 0 0 1-.078-1.422c0-.75.14-1.448.422-2.094A5.35 5.35 0 0 1 4 6.578c.5-.49 1.083-.875 1.75-1.156A5.41 5.41 0 0 1 7.875 5a5.79 5.79 0 0 1 3.047.86c.948.572 1.62 1.359 2.015 2.359A.767.767 0 0 1 13 8.5c0 .333-.167.5-.5.5a.416.416 0 0 1-.281-.11c-.084-.072-.177-.223-.281-.453-.271-.687-.782-1.265-1.532-1.734C9.656 6.234 8.812 6 7.875 6c-.625 0-1.208.115-1.75.344a4.565 4.565 0 0 0-1.422.937 4.298 4.298 0 0 0-1.297 3.094c0 .833.089 1.61.266 2.328.177.719.432 1.36.765 1.922l.407.531A.478.478 0 0 1 5 15.5a.462.462 0 0 1-.156.36.503.503 0 0 1-.344.14Zm7.594-1h-.031a4.794 4.794 0 0 1-1.766-.39 4.412 4.412 0 0 1-2.36-2.391 4.366 4.366 0 0 1-.343-1.719c0-.125.047-.24.14-.344a.462.462 0 0 1 .36-.156c.125 0 .24.057.344.172.104.114.156.318.156.61 0 .374.099.75.297 1.124.198.375.453.709.765 1 .313.292.662.537 1.047.735.386.197.766.307 1.14.328.542.062.792.25.75.562-.04.313-.208.469-.5.469Zm-4.188 1a.475.475 0 0 1-.172-.047 1.534 1.534 0 0 1-.328-.234c-.687-.563-1.24-1.287-1.656-2.172-.417-.886-.625-1.766-.625-2.64 0-.917.255-1.704.766-2.36.51-.656 1.255-.985 2.234-.985.417 0 .766.058 1.047.172.281.115.526.266.734.454.209.187.39.395.547.624.156.23.307.47.453.72.25.437.521.827.813 1.171.291.344.729.516 1.312.516.625 0 1.11-.214 1.453-.64.344-.428.516-.964.516-1.61 0-.771-.234-1.495-.703-2.172a7.221 7.221 0 0 0-1.75-1.766 9.137 9.137 0 0 0-2.281-1.187C9.443 3.552 8.687 3.406 8 3.406c-.958 0-1.865.183-2.719.547a7.16 7.16 0 0 0-2.234 1.485 6.889 6.889 0 0 0-1.5 2.203A6.665 6.665 0 0 0 1 10.312v.188c0 .333-.167.5-.5.5-.333 0-.5-.167-.5-.5v-.219c0-1.083.224-2.099.672-3.047a8.407 8.407 0 0 1 1.797-2.5A8.67 8.67 0 0 1 5.03 3.031 7.373 7.373 0 0 1 8 2.406c.896 0 1.818.167 2.766.5a9.419 9.419 0 0 1 2.578 1.375 7.789 7.789 0 0 1 1.906 2.063c.5.791.75 1.656.75 2.593 0 .959-.27 1.745-.813 2.36-.541.614-1.28.922-2.218.922a2.8 2.8 0 0 1-1.031-.172 2.443 2.443 0 0 1-.75-.453 3.234 3.234 0 0 1-.547-.64c-.157-.24-.308-.485-.454-.735a8.583 8.583 0 0 0-.812-1.14c-.292-.345-.73-.517-1.313-.517-.666 0-1.156.24-1.468.72-.313.478-.469 1.03-.469 1.655 0 .709.177 1.433.531 2.172.354.74.813 1.35 1.375 1.829.167.145.271.255.313.328a.465.465 0 0 1 .062.234c0 .333-.166.5-.5.5ZM.5 5C.167 5 0 4.833 0 4.5c0-.125.031-.23.094-.313a11.026 11.026 0 0 1 3.469-3.03A8.928 8.928 0 0 1 8 0a8.93 8.93 0 0 1 4.438 1.156 11.026 11.026 0 0 1 3.468 3.032A.506.506 0 0 1 16 4.5c0 .333-.167.5-.5.5a.504.504 0 0 1-.406-.188 10.477 10.477 0 0 0-3.11-2.75A7.79 7.79 0 0 0 8 1a7.79 7.79 0 0 0-3.984 1.063 10.478 10.478 0 0 0-3.11 2.75C.823 4.938.688 5 .5 5Z"/></svg>