<svg xmlns="http://www.w3.org/2000/svg" fill="currentColor" viewBox="0 0 16 16"><path d="m13.879 11.925-8.005 4.028L2 8.648v-4.59l1.793-.936a10.44 10.44 0 0 1-.128-.484 2.192 2.192 0 0 1-.064-.515c0-.146.032-.302.096-.468.192-.5.459-.843.8-1.03A2.357 2.357 0 0 1 5.65.342c.384 0 .8.052 1.249.156l2.625.75 1.249.156a2.41 2.41 0 0 0 1.2-.297c.353-.197.636-.567.85-1.108l.544 1.155c-.32.416-.678.708-1.073.874-.395.167-.806.25-1.233.25-.448 0-.907-.062-1.377-.187s-.928-.26-1.376-.406l-1.281-.437-1.153-.219c-.256 0-.49.047-.704.14a1.46 1.46 0 0 0-.577.485.643.643 0 0 0-.096.343c0 .125.016.25.048.375.032.124.06.239.08.343l1.537-.78 3.843 2.684 3.874 7.305Zm-7.62 2.966 6.531-3.309-3.426-6.337L6.29 2.778l-1.344.687c.042.063.117.12.224.172.107.052.224.099.352.14.235.042.352.146.352.313 0 .062-.01.104-.032.125-.042.25-.17.374-.384.374H5.33a1.85 1.85 0 0 1-.96-.437.407.407 0 0 1-.145-.156.594.594 0 0 0-.112-.156l-1.505.75.256 3.933 3.394 6.368Zm-.673-8.616a1.3 1.3 0 0 1-.576.125c-.235 0-.443-.052-.625-.156a1.076 1.076 0 0 1-.432-.5 1.1 1.1 0 0 1-.128-.562c0-.208.043-.385.128-.53.214.166.48.27.8.312h.225c.47 0 .8-.167.992-.5.064.104.107.177.128.219.086.145.128.322.128.53 0 .23-.053.438-.16.625a1.078 1.078 0 0 1-.48.437Z"/></svg>