<svg xmlns="http://www.w3.org/2000/svg" fill="currentColor" viewBox="0 0 16 16"><path d="M15 8.498v6.06a.408.408 0 0 1-.139.318.447.447 0 0 1-.305.124h-6.07a.424.424 0 0 1-.306-.138L1.14 7.834A.423.423 0 0 1 1 7.53c0-.111.046-.212.139-.305l6.07-6.087A.454.454 0 0 1 7.544 1c.11 0 .212.046.305.138l7.013 7.028a.452.452 0 0 1 .139.332Zm-.97.221L7.543 2.217 2.248 7.53l6.487 6.474h5.295V8.719Zm-1.996 2.297c.314 0 .55.101.707.304.157.203.235.429.235.678 0 .249-.078.475-.235.678-.157.203-.393.304-.707.304a1.01 1.01 0 0 1-.721-.29.938.938 0 0 1-.305-.706c0-.277.102-.507.305-.691.203-.185.443-.277.72-.277Z"/></svg>