<svg xmlns="http://www.w3.org/2000/svg" fill="currentColor" viewBox="0 0 16 16"><path d="M6.413 0c.211 0 .54.13.984.39.444.261.952.626 1.524 1.094a18.419 18.419 0 0 1 1.761 1.672 15.121 15.121 0 0 1 1.636 2.094c.486.75.888 1.536 1.206 2.36.317.822.476 1.65.476 2.484a5.62 5.62 0 0 1-.476 2.297 6.006 6.006 0 0 1-1.286 1.875 6.112 6.112 0 0 1-1.905 1.265A5.867 5.867 0 0 1 8 16a5.867 5.867 0 0 1-2.333-.469 6.112 6.112 0 0 1-1.905-1.265 6.008 6.008 0 0 1-1.286-1.875A5.621 5.621 0 0 1 2 10.094c0-.896.153-1.63.46-2.203a5.902 5.902 0 0 1 1.111-1.485 13.67 13.67 0 0 1 1.35-1.14 6.155 6.155 0 0 0 1.19-1.141c.328-.417.53-.917.603-1.5.074-.583-.069-1.333-.428-2.25C6.18.125 6.222 0 6.413 0ZM8 15c.677 0 1.317-.13 1.92-.39a5.296 5.296 0 0 0 1.588-1.047 4.872 4.872 0 0 0 1.08-1.547 4.667 4.667 0 0 0 .396-1.922c0-.834-.18-1.662-.54-2.485-.36-.823-.81-1.604-1.349-2.343a15.41 15.41 0 0 0-1.73-2 17.012 17.012 0 0 0-1.682-1.454c.063.584.031 1.1-.096 1.547a4.063 4.063 0 0 1-.555 1.204 4.794 4.794 0 0 1-.842.937l-.92.781a20.2 20.2 0 0 0-.857.703c-.275.24-.519.506-.73.797a3.408 3.408 0 0 0-.493 1 4.44 4.44 0 0 0-.174 1.313c0 .687.132 1.328.397 1.922a4.85 4.85 0 0 0 1.08 1.546c.454.438.983.787 1.586 1.047A4.79 4.79 0 0 0 8 15Zm.952-3.531c.466-.104.847-.292 1.143-.563.296-.27.53-.552.699-.844a3.39 3.39 0 0 0 .444-1.03c.55 2.645-.243 4.145-2.38 4.5-.297.02-.525-.058-.683-.235a.906.906 0 0 1-.238-.625c0-.24.079-.48.238-.719.158-.24.418-.4.777-.484Z"/></svg>