<svg xmlns="http://www.w3.org/2000/svg" fill="currentColor" viewBox="0 0 16 16"><path d="M8 0c1.104 0 2.146.208 3.125.625.98.417 1.828.99 2.547 1.719a8.216 8.216 0 0 1 1.703 2.547C15.792 5.859 16 6.896 16 8s-.208 2.14-.625 3.11a8.217 8.217 0 0 1-1.703 2.546 7.853 7.853 0 0 1-2.547 1.719c-.98.417-2.02.625-3.125.625a7.785 7.785 0 0 1-3.11-.625 8.081 8.081 0 0 1-2.546-1.719A8.08 8.08 0 0 1 .625 11.11 7.786 7.786 0 0 1 0 8c0-1.104.208-2.14.625-3.11a8.08 8.08 0 0 1 1.719-2.546A8.08 8.08 0 0 1 4.89.625 7.785 7.785 0 0 1 8 0Zm0 15c.958 0 1.865-.182 2.719-.547a7.027 7.027 0 0 0 2.234-1.5 7.075 7.075 0 0 0 1.5-2.219A6.819 6.819 0 0 0 15 8c0-.958-.182-1.865-.547-2.719a7.026 7.026 0 0 0-1.5-2.234 7.026 7.026 0 0 0-2.234-1.5A6.853 6.853 0 0 0 8 1c-.958 0-1.865.182-2.719.547a7.026 7.026 0 0 0-2.234 1.5 7.026 7.026 0 0 0-1.5 2.234A6.853 6.853 0 0 0 1 8c0 .98.182 1.89.547 2.734a7.074 7.074 0 0 0 1.5 2.22 7.026 7.026 0 0 0 2.234 1.5C6.135 14.817 7.041 15 8 15ZM8 5c.833 0 1.542.292 2.125.875S11 7.167 11 8s-.292 1.542-.875 2.125A2.893 2.893 0 0 1 8 11a2.893 2.893 0 0 1-2.125-.875A2.893 2.893 0 0 1 5 8c0-.833.292-1.542.875-2.125A2.893 2.893 0 0 1 8 5Z"/></svg>