<svg xmlns="http://www.w3.org/2000/svg" fill="currentColor" viewBox="0 0 16 16"><path d="M4.533 1h4.204c.434 0 .878.068 1.332.203.454.136.868.35 1.243.64.376.292.691.683.948 1.173.256.49.395 1.078.414 1.765 0 .771-.158 1.375-.473 1.813a6.64 6.64 0 0 1-.889 1.031c-.118.125-.128.24-.03.344a3.7 3.7 0 0 0 .504.375c.198.125.385.297.563.515.177.22.33.506.459.86.128.354.192.823.192 1.406 0 .646-.143 1.213-.43 1.703a4.11 4.11 0 0 1-1.065 1.219 4.547 4.547 0 0 1-1.362.719c-.483.156-.923.234-1.317.234H4.562C4.188 15 4 14.802 4 14.406V1.531C4 1.177 4.178 1 4.533 1Zm1.45 12H8.53c.236 0 .478-.037.725-.11.247-.072.474-.187.68-.343.208-.156.376-.36.504-.61s.193-.562.193-.937c0-.396-.065-.724-.193-.984a1.578 1.578 0 0 0-.503-.61 2.033 2.033 0 0 0-.696-.312A3.366 3.366 0 0 0 8.44 9H5.985c-.06 0-.09.02-.09.063v3.843c0 .063.03.094.09.094Zm-.088-9.469v3.375c0 .063.03.094.089.094h2.102c.631 0 1.189-.14 1.672-.422.484-.281.726-.807.726-1.578 0-.417-.07-.755-.208-1.016a1.701 1.701 0 0 0-.518-.609 1.826 1.826 0 0 0-.696-.297A3.86 3.86 0 0 0 8.292 3H6.429c-.356 0-.533.177-.533.531Z"/></svg>