<svg xmlns="http://www.w3.org/2000/svg" fill="currentColor" viewBox="0 0 16 16"><path d="m7.657 7.002.655.655c.333.333.749.499 1.248.499.498 0 .914-.166 1.247-.499l2.308-2.308a1.74 1.74 0 0 0 .499-1.232c0-.468-.166-.878-.5-1.232l-.373-.374a1.655 1.655 0 0 0-1.217-.499c-.499 0-.914.166-1.247.499L8.998 3.79V2.386l.562-.561c.602-.54 1.257-.811 1.964-.811.749 0 1.393.27 1.934.81l.343.344a2.72 2.72 0 0 1 .608 2.978 2.68 2.68 0 0 1-.608.92l-2.308 2.308c-.52.52-1.164.78-1.933.78-.77 0-1.414-.26-1.934-.78L7.252 8a1.021 1.021 0 0 1-.125-.156l-.125-.187.655-.655ZM1.825 9.965 4.008 7.75v1.434L2.542 10.65c-.353.353-.53.77-.53 1.248s.177.894.53 1.247l.343.343c.333.333.738.499 1.217.499.499 0 .915-.166 1.247-.499l1.996-1.996H8.75l-2.682 2.713c-.27.27-.577.468-.92.593a3.035 3.035 0 0 1-1.045.187c-.77 0-1.414-.26-1.934-.78l-.343-.374c-.54-.54-.81-1.185-.81-1.934 0-.748.27-1.393.81-1.933Zm8.42 6.02v-3.993h.5v3.992h-.5Zm1.747-5.24v-.5h3.992v.5h-3.992ZM5.256 4.008V.016h.499v3.992h-.5ZM.016 5.256h3.992v.499H.016v-.5Z"/></svg>