<svg xmlns="http://www.w3.org/2000/svg" fill="currentColor" viewBox="0 0 16 16"><path d="M0 2a.99.99 0 0 1 .125-.5 1.01 1.01 0 0 1 .297-.344C.557 1.052.75 1 1 1h5.625c.146 0 .27.052.375.156L7.75 2H15c.23 0 .417.052.563.156.145.104.25.219.312.344A.99.99 0 0 1 16 3v4h-1V4a1.399 1.399 0 0 0-.313-.703C14.521 3.099 14.293 3 14 3H7.219a.511.511 0 0 1-.375-.156l-.688-.688A.511.511 0 0 0 5.781 2H2c-.25 0-.443.052-.578.156a1.01 1.01 0 0 0-.297.344A.99.99 0 0 0 1 3v10c0 .27.052.469.156.594.104.125.219.219.344.281A.99.99 0 0 0 2 14h5v1H1a.99.99 0 0 1-.5-.125 1.01 1.01 0 0 1-.344-.297C.052 14.443 0 14.25 0 14V2Zm11 6c.833 0 1.542.292 2.125.875S14 10.167 14 11c0 .604-.188 1.177-.563 1.719L16 15.28l-.688.719-2.562-2.563A2.924 2.924 0 0 1 11 14a2.893 2.893 0 0 1-2.125-.875A2.893 2.893 0 0 1 8 11c0-.833.292-1.542.875-2.125A2.893 2.893 0 0 1 11 8Zm-2 3c0 .542.198 1.01.594 1.406A1.92 1.92 0 0 0 11 13a1.92 1.92 0 0 0 1.406-.594A1.92 1.92 0 0 0 13 11c0-.563-.198-1.036-.594-1.422A1.948 1.948 0 0 0 11 9c-.542 0-1.01.193-1.406.578C9.198 9.964 9 10.438 9 11Z"/></svg>