<svg xmlns="http://www.w3.org/2000/svg" fill="currentColor" viewBox="0 0 16 16"><path d="M15 14v1H1V1h.97v13H15ZM3.286 11.844c0-.354.115-.625.345-.813.23-.187.49-.281.783-.281.292 0 .558.094.799.281.24.188.36.459.36.813 0 .312-.115.578-.345.797-.23.218-.5.328-.814.328-.313 0-.58-.11-.799-.328a1.084 1.084 0 0 1-.329-.797Zm3.352-.906a1.63 1.63 0 0 1-.376-.579 1.87 1.87 0 0 1-.126-.671c0-.48.167-.886.502-1.22.334-.333.74-.5 1.221-.5.48 0 .882.167 1.206.5.324.334.485.74.485 1.22 0 .458-.161.864-.485 1.218a1.567 1.567 0 0 1-1.206.531c-.501 0-.908-.166-1.221-.5Zm.156-5.157a1.66 1.66 0 0 1-1.221.5c-.48 0-.888-.166-1.222-.5a1.657 1.657 0 0 1-.5-1.218c0-.48.166-.886.5-1.22.334-.333.741-.5 1.222-.5.48 0 .887.167 1.221.5.334.334.501.74.501 1.22 0 .479-.167.885-.5 1.218Zm6.295 1.407a2.105 2.105 0 0 1-.61.203 3.72 3.72 0 0 1-.58.046 3.09 3.09 0 0 1-1.237-.25 3.604 3.604 0 0 1-1.033-.671 2.96 2.96 0 0 1-.955-2.203 3 3 0 0 1 .25-1.204 3.304 3.304 0 0 1 1.691-1.703 2.98 2.98 0 0 1 1.222-.25c.417 0 .814.084 1.19.25.376.167.71.39 1.002.672.292.281.527.61.705.985.177.374.266.77.266 1.187 0 .625-.178 1.208-.532 1.75a3.155 3.155 0 0 1-1.379 1.188Zm-1.284 4.875a1.664 1.664 0 0 1-.375-.563 1.748 1.748 0 0 1-.126-.656c0-.48.167-.886.501-1.219.335-.333.742-.5 1.222-.5s.882.167 1.206.5c.323.333.485.74.485 1.219 0 .479-.162.885-.485 1.219-.324.333-.726.5-1.206.5-.501 0-.908-.167-1.222-.5Z"/></svg>