<svg xmlns="http://www.w3.org/2000/svg" fill="currentColor" viewBox="0 0 16 16"><path d="M3 0c.542 0 1.01.193 1.406.578C4.802.964 5 1.438 5 2a1.92 1.92 0 0 1-.594 1.406A1.922 1.922 0 0 1 3 4a1.92 1.92 0 0 1-1.406-.594A1.922 1.922 0 0 1 1 2c0-.563.198-1.036.594-1.422A1.948 1.948 0 0 1 3 0Zm0 6c.542 0 1.01.193 1.406.578C4.802 6.964 5 7.438 5 8a1.92 1.92 0 0 1-.594 1.406A1.922 1.922 0 0 1 3 10a1.92 1.92 0 0 1-1.406-.594A1.922 1.922 0 0 1 1 8c0-.563.198-1.036.594-1.422A1.948 1.948 0 0 1 3 6Zm0 6c.542 0 1.01.193 1.406.578.396.386.594.86.594 1.422a1.92 1.92 0 0 1-.594 1.406A1.922 1.922 0 0 1 3 16a1.92 1.92 0 0 1-1.406-.594A1.922 1.922 0 0 1 1 14c0-.563.198-1.037.594-1.422A1.948 1.948 0 0 1 3 12Zm11.5-9.969c.333 0 .5.167.5.5 0 .125-.047.24-.14.344a.462.462 0 0 1-.36.156H8.531a.478.478 0 0 1-.344-.156.478.478 0 0 1-.156-.344c0-.146.052-.265.156-.36a.503.503 0 0 1 .344-.14H14.5ZM14.5 8c.333 0 .5.167.5.5 0 .125-.047.24-.14.344A.462.462 0 0 1 14.5 9H8.531a.478.478 0 0 1-.344-.156.478.478 0 0 1-.156-.344c0-.146.052-.266.156-.36A.503.503 0 0 1 8.531 8H14.5Zm0 6c.333 0 .5.167.5.5 0 .125-.047.24-.14.344a.462.462 0 0 1-.36.156H8.531a.478.478 0 0 1-.344-.156.478.478 0 0 1-.156-.344c0-.146.052-.266.156-.36a.503.503 0 0 1 .344-.14H14.5Z"/></svg>