<svg xmlns="http://www.w3.org/2000/svg" fill="currentColor" viewBox="0 0 16 16"><path d="M11.433 2v3.554L16 8.079 12.063 15l-5.102-2.837H0V2h11.433ZM1.165 4.245v1.683H2.3v2.276H1.165v1.683H2.3v1.154h2.898l.472-.873-1.008-.53.82-1.497 1.039.53 1.134-1.964-1.04-.56.85-1.466 1.008.53.536-.966 1.26.685V3.122h-7.97v1.123H1.165Zm9.45 7.232c.377 0 .687-.098.928-.296.242-.197.468-.42.678-.67.146-.208.22-.52.22-.935 0-.478-.163-.9-.488-1.263-.326-.364-.793-.546-1.402-.546-.462 0-.887.172-1.275.515-.389.343-.583.805-.583 1.387 0 .478.184.899.551 1.263.368.363.824.545 1.37.545ZM10.55 8.36c.294 0 .515.041.662.124.42.291.63.655.63 1.092 0 .374-.121.68-.363.92a1.19 1.19 0 0 1-.866.358c-.42 0-.74-.125-.96-.374a1.322 1.322 0 0 1-.331-.904c0-.395.12-.697.362-.905.242-.207.53-.311.866-.311Z"/></svg>