<svg xmlns="http://www.w3.org/2000/svg" fill="currentColor" viewBox="0 0 16 16"><path d="m0 12 .813-8.219a1.82 1.82 0 0 1 .64-1.281c.386-.333.828-.5 1.328-.5H12a4.016 4.016 0 0 1 3.688 2.438c.208.479.312 1 .312 1.562v5c0 .27-.099.505-.297.703A.961.961 0 0 1 15 12h-1.063a2.38 2.38 0 0 1-.843 1.422c-.459.385-.99.578-1.594.578a2.402 2.402 0 0 1-1.594-.578A2.537 2.537 0 0 1 9.031 12H6.937a2.38 2.38 0 0 1-.843 1.422c-.459.385-.99.578-1.594.578a2.402 2.402 0 0 1-1.594-.578A2.537 2.537 0 0 1 2.031 12H0Zm1.125-1h.906a2.476 2.476 0 0 1 .875-1.438A2.45 2.45 0 0 1 4.5 9c.604 0 1.135.188 1.594.563.458.374.74.854.843 1.437h2.094a2.476 2.476 0 0 1 .875-1.438A2.45 2.45 0 0 1 11.5 9c.604 0 1.135.188 1.594.563.458.374.74.854.844 1.437H15V8H1.469l-.344 3ZM8 7h3V3H8v4ZM7 7V3H4v4h3Zm5-4v4h3V6c0-.833-.292-1.542-.875-2.125A2.893 2.893 0 0 0 12 3Zm-2 8.5c0 .417.146.77.438 1.063.291.291.645.437 1.062.437.417 0 .77-.146 1.063-.438.291-.291.437-.645.437-1.062 0-.417-.146-.77-.438-1.063A1.446 1.446 0 0 0 11.5 10c-.417 0-.77.146-1.063.438A1.446 1.446 0 0 0 10 11.5Zm-7 0c0 .417.146.77.438 1.063.291.291.645.437 1.062.437.417 0 .77-.146 1.063-.438.291-.291.437-.645.437-1.062 0-.417-.146-.77-.438-1.063A1.446 1.446 0 0 0 4.5 10c-.417 0-.77.146-1.063.438A1.447 1.447 0 0 0 3 11.5ZM3 7V3h-.219a.877.877 0 0 0-.656.297A1.119 1.119 0 0 0 1.812 4l-.25 3H3Z"/></svg>