<svg xmlns="http://www.w3.org/2000/svg" fill="currentColor" viewBox="0 0 16 16"><path d="M9.197 8.781h6.425c.252 0 .378.136.378.406v6.407c0 .27-.126.406-.378.406H9.197c-.273 0-.41-.135-.41-.406V9.188c0-.271.137-.407.41-.407ZM8.787.406A.37.37 0 0 1 8.93.125.447.447 0 0 1 9.23 0h6.393c.252 0 .378.135.378.406v6.375a.474.474 0 0 1-.11.297.33.33 0 0 1-.268.14H9.197a.374.374 0 0 1-.284-.14.44.44 0 0 1-.126-.297V.406ZM0 .406C0 .136.136 0 .41 0h6.362c.252 0 .378.135.378.406v6.407c0 .27-.126.406-.378.406H.409C.136 7.219 0 7.083 0 6.812V.407Zm9.323 6.125c0 .104.063.157.189.157h5.858c.105 0 .158-.053.158-.157V.72c0-.125-.053-.188-.158-.188H9.512c-.126 0-.19.063-.19.188v5.81Zm1.827 8.313c.042.062.157.114.346.156a.69.69 0 0 0 .567-.281l2.992-4.219-1.04-.719-2.613 3.688-1.103-.844-.756 1 1.607 1.219ZM2.803 15V9.469h1.543V15H2.803Zm7.78-9.063V4.97c0-.271.057-.485.173-.64.115-.157.262-.277.44-.36.18-.084.368-.136.568-.156.2-.021.383-.032.551-.032h.189c.44 0 .83.073 1.165.219.336.146.504.469.504.969v.968h-3.59Zm-8.567 4.688V15H.536v-4.375h1.48Zm10.393-8.969c.315 0 .567.089.756.266.19.177.284.443.284.797 0 .312-.11.547-.33.703a1.21 1.21 0 0 1-.71.234c-.293 0-.54-.083-.74-.25-.2-.166-.299-.427-.299-.781 0-.333.1-.578.3-.734.199-.157.446-.235.74-.235ZM1.417 5.625h4.347V4.75H1.417v.875Zm0-1.563h4.347v-.875H1.417v.876ZM5.764 2.47v-.844H1.417v.844h4.347Zm.913 10.187V15H5.134v-2.344h1.543Z"/></svg>