<svg xmlns="http://www.w3.org/2000/svg" fill="currentColor" viewBox="0 0 16 16"><path d="M1 14.75V1.25c0-.167.083-.25.25-.25h5.5c.167 0 .25.083.25.25v13.5c0 .167-.083.25-.25.25h-5.5c-.167 0-.25-.083-.25-.25Zm8-8v-5.5c0-.167.083-.25.25-.25h5.5c.167 0 .25.083.25.25v5.5c0 .167-.083.25-.25.25h-5.5C9.083 7 9 6.917 9 6.75ZM12 9c.833 0 1.542.292 2.125.875S15 11.167 15 12s-.292 1.542-.875 2.125A2.893 2.893 0 0 1 12 15a2.893 2.893 0 0 1-2.125-.875A2.893 2.893 0 0 1 9 12c0-.833.292-1.542.875-2.125A2.893 2.893 0 0 1 12 9Z"/></svg>