<svg xmlns="http://www.w3.org/2000/svg" fill="currentColor" viewBox="0 0 16 16"><path d="M0 3c0-.292.099-.531.297-.719A.988.988 0 0 1 1 2h14c.292 0 .531.094.719.281A.973.973 0 0 1 16 3v10c0 .27-.094.505-.281.703A.947.947 0 0 1 15 14H1a.961.961 0 0 1-.703-.297A.961.961 0 0 1 0 13V3Zm1 10h14V3H1v10Zm7-1H2c0-1.125.25-1.906.75-2.344C3.25 9.22 4 9 5 9a1.92 1.92 0 0 1-1.406-.594A1.922 1.922 0 0 1 3 7c0-.563.198-1.036.594-1.422A1.948 1.948 0 0 1 5 5c.542 0 1.01.193 1.406.578C6.802 5.964 7 6.438 7 7a1.92 1.92 0 0 1-.594 1.406A1.922 1.922 0 0 1 5 9c1 0 1.75.219 2.25.656.5.438.75 1.219.75 2.344Zm1.5-5h3c.333 0 .5.167.5.5 0 .125-.047.24-.14.344A.462.462 0 0 1 12.5 8h-3a.478.478 0 0 1-.344-.156A.478.478 0 0 1 9 7.5c0-.146.052-.266.156-.36A.503.503 0 0 1 9.5 7Zm0-2h3c.333 0 .5.167.5.5 0 .125-.047.24-.14.344A.462.462 0 0 1 12.5 6h-3a.478.478 0 0 1-.344-.156A.478.478 0 0 1 9 5.5c0-.146.052-.266.156-.36A.503.503 0 0 1 9.5 5Z"/></svg>