<svg xmlns="http://www.w3.org/2000/svg" fill="currentColor" viewBox="0 0 16 16"><path d="M1.286 3.964a1.129 1.129 0 0 1 .179-1.34c.214-.225.487-.338.82-.338.334 0 .608.113.822.339a1.129 1.129 0 0 1 .179 1.34l1.893 1.928c.19-.12.369-.179.535-.179h.036l1.607-3.643c-.333-.261-.5-.571-.5-.928 0-.31.107-.578.322-.804C7.393.113 7.667 0 8 0c.333 0 .607.113.821.34.215.225.322.493.322.803 0 .31-.095.56-.286.75L11 4.679a.951.951 0 0 1 .429-.108c.285 0 .511.084.678.25l3.322-3.785.428.357L12.5 5.286c.024.119.042.214.054.285.011.072.017.12.017.143 0 .334-.107.607-.321.822-.214.214-.488.321-.821.321-.334 0-.608-.107-.822-.321-.214-.215-.321-.488-.321-.822 0-.214.095-.452.285-.714L8.357 2.214a.587.587 0 0 0-.143.018.587.587 0 0 1-.143.018c-.023.024-.047.036-.071.036h-.107L6.286 5.893c.166.119.303.262.41.428a.97.97 0 0 1 .161.536c0 .333-.107.607-.321.822-.215.214-.488.321-.822.321-.333 0-.607-.107-.821-.321a1.117 1.117 0 0 1-.322-.822c0-.19.06-.38.179-.571L2.893 4.393c-.19.119-.393.178-.607.178-.19 0-.381-.06-.572-.178L.393 5.714 0 5.321l1.286-1.357Zm12.428 4.322c0-.19.095-.286.286-.286h1.714c.19 0 .286.095.286.286v7.428c0 .19-.095.286-.286.286H14c-.19 0-.286-.095-.286-.286V8.286ZM4.571 10.57c0-.19.096-.285.286-.285h1.714c.19 0 .286.095.286.285v5.143c0 .19-.095.286-.286.286H4.857c-.19 0-.286-.095-.286-.286V10.57Zm4.858.858h1.714c.19 0 .286.095.286.285v4c0 .19-.096.286-.286.286H9.429c-.19 0-.286-.095-.286-.286v-4c0-.19.095-.285.286-.285ZM.286 12.57H2c.19 0 .286.096.286.286v2.857c0 .19-.096.286-.286.286H.286C.096 16 0 15.905 0 15.714v-2.857c0-.19.095-.286.286-.286Z"/></svg>