<svg xmlns="http://www.w3.org/2000/svg" fill="currentColor" viewBox="0 0 16 16"><path d="M7.579 0h6.698a.68.68 0 0 1 .519.219.712.712 0 0 1 .204.5v6.656a.696.696 0 0 1-.723.719H7.579a.696.696 0 0 1-.723-.719V.719c0-.188.067-.354.204-.5A.68.68 0 0 1 7.579 0ZM0 9.438V4.593c0-.375.178-.563.535-.563h4.81c.357 0 .535.188.535.563v4.843a.5.5 0 0 1-.141.344.503.503 0 0 1-.393.156H.535a.503.503 0 0 1-.393-.156A.501.501 0 0 1 0 9.437Zm6.824 4.937V9.531c0-.125.052-.24.157-.344a.516.516 0 0 1 .377-.156h4.875c.125 0 .236.052.33.156a.502.502 0 0 1 .141.344v4.844a.526.526 0 0 1-.141.39.454.454 0 0 1-.33.141H7.358a.546.546 0 0 1-.377-.14.497.497 0 0 1-.157-.391Zm-5.535-3.469H5.44c.336 0 .503.156.503.469V15.5c0 .333-.167.5-.503.5H1.29c-.336 0-.504-.167-.504-.5v-4.125c0-.313.168-.469.503-.469Zm6.95 1.875c.126.667.566 1.031 1.32 1.094v.406H10v-.406c.356-.042.666-.151.928-.328.262-.177.393-.464.393-.86a.973.973 0 0 0-.252-.64c-.168-.198-.524-.35-1.069-.453v-1.031c.21.083.346.218.409.406l.786-.063c-.126-.541-.524-.844-1.195-.906v-.375h-.44V10c-.357.042-.645.151-.865.328a.858.858 0 0 0-.33.703c0 .313.1.557.299.735.199.177.497.328.896.453 0 .27-.005.479-.016.625-.01.146-.016.25-.016.312v.125a1.458 1.458 0 0 1-.283-.219.79.79 0 0 1-.188-.374l-.818.093Zm-6.73-5.125.944.938 2.861-3.031-.943-.938L1.51 7.656Zm12.516-3.25v-.781h-3.868v.781h3.868Zm-3.868 2.125h3.868V5.75h-3.868v.781Zm0-5v.75h3.868v-.75h-3.868Zm-7.201 10.25v3.375h.818v-3.375h-.818ZM8.05 6.375l-.597.563.377.406.566-.594.598.594.409-.407-.598-.562.598-.594-.41-.406-.597.594-.566-.594-.377.406.597.594Zm-6.383 8.781h.817v-2.531h-.817v2.531Zm3.427 0V13.47h-.88v1.687h.88ZM8.208 2.687 9.56 1.345 9.214.938l-1.006 1-.378-.407-.377.407.755.75Zm-.755 1.376.755.78L9.56 3.5l-.157-.406-1.195.969-.378-.407-.377.406ZM10 13.313v-1c.23.062.383.12.456.171.073.053.11.151.11.297 0 .292-.189.469-.566.531Zm-8.082-4.5-.597-.594-.378.969.975-.376Zm7.359 1.937a.388.388 0 0 1 .283-.188v.876c-.273-.084-.41-.23-.41-.438 0-.083.043-.167.127-.25Z"/></svg>