<svg xmlns="http://www.w3.org/2000/svg" fill="currentColor" viewBox="0 0 16 16"><path d="M8.99 6.031H7.106l.99-1.656.896 1.656Zm.448-3.593a7.179 7.179 0 0 1 2.206.859 7.123 7.123 0 0 1 1.774 1.484A6.711 6.711 0 0 1 15 9.125c0 .98-.181 1.88-.543 2.703A7.024 7.024 0 0 1 12.97 14a6.878 6.878 0 0 1-2.205 1.469A6.893 6.893 0 0 1 8.064 16a7.177 7.177 0 0 1-2.78-.531A7.02 7.02 0 0 1 3.045 14a6.893 6.893 0 0 1-1.503-2.172C1.181 11.005 1 10.104 1 9.125c0-.833.15-1.625.447-2.375a7.268 7.268 0 0 1 1.2-2.016 6.611 6.611 0 0 1 1.79-1.484 7.594 7.594 0 0 1 2.252-.844 1.201 1.201 0 0 1-.367-.422 1.26 1.26 0 0 1-.144-.609c0-.375.139-.698.416-.969C6.87.136 7.2 0 7.584 0h.927c.405 0 .746.135 1.023.406.277.271.416.594.416.969 0 .438-.17.792-.512 1.063ZM7.584.905a.496.496 0 0 0-.335.125.432.432 0 0 0-.144.344c0 .125.048.234.144.328.096.094.208.14.335.14h.927a.45.45 0 0 0 .352-.14.472.472 0 0 0 .128-.328c0-.313-.16-.469-.48-.469h-.927ZM5.89 14.094c.64.291 1.354.437 2.142.437.767 0 1.492-.14 2.174-.422a6.388 6.388 0 0 0 1.79-1.093 4.96 4.96 0 0 0 1.23-1.672 5.064 5.064 0 0 0 .463-2.156c0-.73-.143-1.433-.431-2.11a5.513 5.513 0 0 0-1.183-1.766c-.5-.5-1.092-.9-1.774-1.203a5.306 5.306 0 0 0-2.173-.453c-.767 0-1.492.14-2.174.422a5.708 5.708 0 0 0-1.79 1.156 5.742 5.742 0 0 0-1.23 1.72 4.89 4.89 0 0 0-.464 2.109c0 .562.08 1.109.24 1.64.16.531.394 1.026.703 1.485A4.76 4.76 0 0 0 4.5 13.344a5.42 5.42 0 0 0 1.39.75Zm6.01-7.531a.56.56 0 0 1 .223-.032c.17 0 .256.063.256.188 0 .104-.053.208-.16.312l-3.452 3.313-4.603 1.406a.455.455 0 0 1-.191.031c-.17 0-.256-.062-.256-.187 0-.084.064-.188.192-.313L7.329 8l4.57-1.438ZM8.095 9.874c.17 0 .33-.068.48-.203a.702.702 0 0 0 .223-.547c0-.167-.074-.323-.224-.469-.149-.146-.309-.219-.48-.219-.234 0-.42.073-.558.22a.672.672 0 0 0-.208.468c0 .5.255.75.767.75Z"/></svg>