<svg xmlns="http://www.w3.org/2000/svg" fill="currentColor" viewBox="0 0 16 16"><path d="M8 0c1.104 0 2.146.208 3.125.625.98.417 1.828.99 2.547 1.719a8.216 8.216 0 0 1 1.703 2.547C15.792 5.859 16 6.896 16 8a7.897 7.897 0 0 1-.625 3.125 7.979 7.979 0 0 1-1.703 2.547 7.979 7.979 0 0 1-2.547 1.703c-.98.417-2.02.625-3.125.625a7.785 7.785 0 0 1-3.11-.625 8.216 8.216 0 0 1-2.546-1.703 7.851 7.851 0 0 1-1.719-2.547A7.898 7.898 0 0 1 0 8c0-1.104.208-2.14.625-3.11a8.08 8.08 0 0 1 1.719-2.546A8.08 8.08 0 0 1 4.89.625 7.785 7.785 0 0 1 8 0Zm0 10.688c.375 0 .724-.073 1.047-.22.323-.145.604-.338.844-.577.24-.24.432-.521.578-.844.146-.323.219-.672.219-1.047 0-.375-.073-.724-.22-1.047a2.827 2.827 0 0 0-.577-.844 2.594 2.594 0 0 0-.844-.562A2.68 2.68 0 0 0 8 5.344c-.73 0-1.354.26-1.875.781A2.557 2.557 0 0 0 5.344 8c0 .375.067.724.203 1.047.135.323.323.604.562.844.24.24.521.432.844.578.323.146.672.219 1.047.219Z"/></svg>