<svg xmlns="http://www.w3.org/2000/svg" fill="currentColor" viewBox="0 0 16 16"><path d="M1 15V2c0-.292.099-.531.297-.719A.988.988 0 0 1 2 1h2V0h1v1h6V0h1v1h2c.292 0 .531.094.719.281A.973.973 0 0 1 15 2v13a.974.974 0 0 1-.281.719A.974.974 0 0 1 14 16H2a.988.988 0 0 1-.703-.281A.947.947 0 0 1 1 15Zm13 0V4H2v11h12ZM8 6c.292 0 .531.094.719.281A.973.973 0 0 1 9 7a.973.973 0 0 1-.281.719A.973.973 0 0 1 8 8a.973.973 0 0 1-.719-.281A.973.973 0 0 1 7 7c0-.292.094-.531.281-.719A.973.973 0 0 1 8 6Zm-4 4c.292 0 .531.094.719.281A.974.974 0 0 1 5 11a.974.974 0 0 1-.281.719A.973.973 0 0 1 4 12a.973.973 0 0 1-.719-.281A.974.974 0 0 1 3 11c0-.292.094-.531.281-.719A.973.973 0 0 1 4 10Zm8-4c.292 0 .531.094.719.281A.973.973 0 0 1 13 7a.973.973 0 0 1-.281.719A.974.974 0 0 1 12 8a.974.974 0 0 1-.719-.281A.973.973 0 0 1 11 7c0-.292.094-.531.281-.719A.974.974 0 0 1 12 6Zm0 4c.292 0 .531.094.719.281A.974.974 0 0 1 13 11a.974.974 0 0 1-.281.719A.974.974 0 0 1 12 12a.974.974 0 0 1-.719-.281A.974.974 0 0 1 11 11c0-.292.094-.531.281-.719A.974.974 0 0 1 12 10Zm-4 0c.292 0 .531.094.719.281A.974.974 0 0 1 9 11a.974.974 0 0 1-.281.719A.973.973 0 0 1 8 12a.973.973 0 0 1-.719-.281A.974.974 0 0 1 7 11c0-.292.094-.531.281-.719A.973.973 0 0 1 8 10ZM3 7c0-.292.094-.531.281-.719A.973.973 0 0 1 4 6c.292 0 .531.094.719.281A.973.973 0 0 1 5 7a.973.973 0 0 1-.281.719A.973.973 0 0 1 4 8a.973.973 0 0 1-.719-.281A.973.973 0 0 1 3 7Zm9-4V2h-1v1h1ZM4 2v1h1V2H4Z"/></svg>