<svg xmlns="http://www.w3.org/2000/svg" fill="currentColor" viewBox="0 0 16 16"><path d="M12.51 9.313c.355.333.7.666 1.033 1l1.002 1c.314.312.465.656.454 1.03-.01.376-.161.72-.454 1.032a5.363 5.363 0 0 0-.689.688c-.313.354-.662.598-1.049.734a3.618 3.618 0 0 1-1.205.203h-.25c-.084 0-.178-.01-.283-.031a7.011 7.011 0 0 1-2.13-.578A13.67 13.67 0 0 1 7 13.312a16.892 16.892 0 0 1-3.007-2.609 14.289 14.289 0 0 1-2.224-3.297 7.595 7.595 0 0 1-.5-1.265 6.947 6.947 0 0 1-.251-1.329 4.22 4.22 0 0 1 .11-1.421c.114-.448.38-.85.798-1.204.125-.104.245-.218.36-.343.115-.125.235-.25.36-.375C2.958 1.156 3.303 1 3.68 1c.313 0 .626.135.94.406L5.682 2.47c.355.354.71.719 1.065 1.094.292.291.428.614.407.968-.021.354-.178.677-.47.969a15.54 15.54 0 0 1-.564.594l-.595.593a14.21 14.21 0 0 0 3.79 3.782c.396-.375.782-.76 1.158-1.156.355-.313.7-.47 1.034-.47.376 0 .71.157 1.002.47Zm1.315 3.343c.209-.208.209-.416 0-.625A47.544 47.544 0 0 0 12.823 11l-1.002-1a.732.732 0 0 0-.141-.11.33.33 0 0 0-.172-.046c-.126 0-.23.062-.313.187l-1.754 1.75-.69-.469a20.305 20.305 0 0 1-2.207-1.874A16.371 16.371 0 0 1 4.681 7.25l-.47-.688.97-.968a4.83 4.83 0 0 0 .408-.39c.125-.136.26-.266.407-.391.188-.209.198-.396.031-.563a27.551 27.551 0 0 0-1.049-1.11A48.17 48.17 0 0 0 3.93 2.126C3.804 2.042 3.72 2 3.68 2c-.126 0-.23.063-.314.188a1.175 1.175 0 0 1-.125.109 1.173 1.173 0 0 0-.125.11 6.399 6.399 0 0 1-.532.53c-.23.23-.392.485-.486.766-.094.281-.12.63-.078 1.047.062.667.282 1.406.657 2.219 1.065 2.187 2.694 4.02 4.886 5.5.668.458 1.294.807 1.879 1.047a7.35 7.35 0 0 0 1.753.484h.408c.605 0 1.106-.198 1.503-.594.083-.104.162-.198.235-.281.073-.083.162-.167.266-.25l.22-.219Z"/></svg>