<svg xmlns="http://www.w3.org/2000/svg" fill="currentColor" viewBox="0 0 16 16"><path d="M6 6 3.969 7.969 6 10l-1 1-1.969-2.031L1 11l-1-1 2.031-2.031L0 6l1-1 2.031 2L5 5l1 1Zm7 4c.833 0 1.542.292 2.125.875S16 12.167 16 13s-.292 1.542-.875 2.125A2.893 2.893 0 0 1 13 16a2.893 2.893 0 0 1-2.125-.875A2.893 2.893 0 0 1 10 13a2.696 2.696 0 0 1 .063-.594l-2.938-1.594c.188-.291.344-.583.469-.874l2.843 1.53c.271-.437.63-.79 1.079-1.062.447-.27.942-.406 1.484-.406Zm0 5c.542 0 1.01-.193 1.406-.578.396-.386.594-.86.594-1.422a1.92 1.92 0 0 0-.594-1.406A1.922 1.922 0 0 0 13 11a1.92 1.92 0 0 0-1.406.594A1.922 1.922 0 0 0 11 13c0 .563.198 1.037.594 1.422.396.385.864.578 1.406.578ZM7.781 6.625a6.283 6.283 0 0 0-.375-.938l2.813-1.593a4.223 4.223 0 0 1-.156-.516A2.52 2.52 0 0 1 10 3c0-.833.292-1.542.875-2.125A2.893 2.893 0 0 1 13 0c.833 0 1.542.292 2.125.875S16 2.167 16 3s-.292 1.542-.875 2.125A2.893 2.893 0 0 1 13 6c-.458 0-.88-.094-1.266-.281a3.054 3.054 0 0 1-.984-.75L7.781 6.625ZM13 1a1.92 1.92 0 0 0-1.406.594A1.922 1.922 0 0 0 11 3c0 .563.198 1.036.594 1.422.396.385.864.578 1.406.578.542 0 1.01-.193 1.406-.578.396-.386.594-.86.594-1.422a1.92 1.92 0 0 0-.594-1.406A1.922 1.922 0 0 0 13 1Z"/></svg>