<svg xmlns="http://www.w3.org/2000/svg" fill="currentColor" viewBox="0 0 16 16"><path d="m16 2-1.008-1-1.984 2-2.047-2-1.008 1L12 3.969 9.953 6l1.008 1 2.047-2.031L14.992 7 16 6l-2.047-2.031L16 2Zm-2.173 10.906c.189.209.283.443.283.703 0 .26-.094.485-.283.672l-1.45 1.438a.91.91 0 0 1-.66.281.985.985 0 0 1-.725-.281l-5.134-5.125c-.483.208-1.029.312-1.638.312-.986 0-1.858-.276-2.614-.828C.85 9.526.315 8.833 0 8h3.717c.294 0 .582-.099.866-.297.283-.198.425-.443.425-.734v-1c0-.292-.142-.532-.425-.719a1.554 1.554 0 0 0-.866-.281H0a4.471 4.471 0 0 1 1.606-2.14C2.362 2.275 3.234 2 4.22 2c.63 0 1.213.12 1.748.36a4.741 4.741 0 0 1 1.418.968 4.43 4.43 0 0 1 1.307 3.14c0 .417-.063.824-.19 1.22l5.324 5.218Zm-.725.719L7.37 7.969l.158-.563c.063-.187.105-.354.126-.5a3.376 3.376 0 0 0-.236-1.781 3.424 3.424 0 0 0-.74-1.094 3.679 3.679 0 0 0-1.103-.75A3.284 3.284 0 0 0 4.22 3c-.965 0-1.774.344-2.425 1.031h1.922c.272 0 .545.052.818.157.273.104.52.24.74.406.221.166.4.37.536.61.136.239.205.494.205.765v1c0 .27-.069.526-.205.765-.136.24-.315.454-.535.641-.22.188-.468.333-.74.438a2.283 2.283 0 0 1-.82.156h-1.92c.314.291.682.52 1.102.687.42.167.86.25 1.322.25.357 0 .788-.083 1.292-.25l.598-.25L11.716 15l1.386-1.375Z"/></svg>