<svg xmlns="http://www.w3.org/2000/svg" fill="currentColor" viewBox="0 0 16 16"><path d="M8 0c1.104 0 2.14.208 3.11.625a8.215 8.215 0 0 1 2.546 1.703 7.852 7.852 0 0 1 1.719 2.547c.417.98.625 2.02.625 3.125 0 1.104-.208 2.14-.625 3.11a8.082 8.082 0 0 1-1.719 2.546 8.082 8.082 0 0 1-2.547 1.719A7.785 7.785 0 0 1 8 16a7.785 7.785 0 0 1-3.11-.625 8.081 8.081 0 0 1-2.546-1.719A8.08 8.08 0 0 1 .625 11.11 7.786 7.786 0 0 1 0 8c0-1.104.208-2.146.625-3.125.417-.98.99-1.828 1.719-2.547A8.214 8.214 0 0 1 4.89.625 7.785 7.785 0 0 1 8 0Zm0 15a6.6 6.6 0 0 0 2.266-.39 8.07 8.07 0 0 0 1.984-1.047L2.437 3.75a7.149 7.149 0 0 0-1.062 1.984A6.847 6.847 0 0 0 1 8c0 .958.182 1.865.547 2.719a7.026 7.026 0 0 0 1.5 2.234 7.026 7.026 0 0 0 2.234 1.5C6.135 14.818 7.041 15 8 15Zm5.625-2.875a6.935 6.935 0 0 0 1.016-1.922A6.752 6.752 0 0 0 15 8c0-.958-.182-1.865-.547-2.719a7.026 7.026 0 0 0-1.5-2.234 7.026 7.026 0 0 0-2.234-1.5A6.853 6.853 0 0 0 8 1c-.77 0-1.505.12-2.203.36a7.446 7.446 0 0 0-1.922.984l9.75 9.781Z"/></svg>