<svg xmlns="http://www.w3.org/2000/svg" fill="currentColor" viewBox="0 0 16 16"><path d="M0 5.009c0-.48.219-.793.656-.94L1 3.881V1h3v1.44l2.469-1.19c.041-.02.088-.041.14-.062a1.86 1.86 0 0 0 .141-.063c.146-.083.375-.125.688-.125.25 0 .406.115.468.345.063.23.094.448.094.657v11.996h7.5c.146 0 .266.052.36.156a.51.51 0 0 1 .14.345c0 .334-.167.501-.5.501H5v-4.009H3V15H0V5.009Zm9 3.226h1.781c0 .919.459 1.462 1.375 1.629v-2.6a41.19 41.19 0 0 0-1.078-.345 4.244 4.244 0 0 1-.937-.407 1.89 1.89 0 0 1-.672-.673c-.167-.282-.25-.673-.25-1.175 0-.877.291-1.54.875-1.988.583-.45 1.27-.695 2.062-.736V1h.75v.94c.73.104 1.365.36 1.906.767.542.407.844 1.05.907 1.926h-1.781c0-.355-.1-.637-.297-.846a1.246 1.246 0 0 0-.766-.375v2.255c.77.125 1.365.313 1.781.563.417.251.724.528.922.83.198.303.318.6.36.893.041.292.062.543.062.752 0 .188-.047.423-.14.704a2.537 2.537 0 0 1-.485.83c-.23.272-.542.512-.938.72-.395.21-.906.335-1.53.377v1.127h-.75v-1.127C10.24 11.21 9.186 10.176 9 8.235Zm-7 5.763V10.99c0-.271.099-.506.297-.705A.96.96 0 0 1 3 9.99h2c.292 0 .531.099.719.297a.991.991 0 0 1 .281.705v3.007h1V2.002L3 3.975V2.002H2v2.475l-1 .5v9.02h1Zm.5-5.982h3c.333 0 .5.167.5.5 0 .126-.047.24-.14.345a.461.461 0 0 1-.36.157h-3a.477.477 0 0 1-.344-.157A.48.48 0 0 1 2 8.517c0-.146.052-.266.156-.36a.502.502 0 0 1 .344-.141Zm0-2.005h3c.333 0 .5.167.5.501 0 .126-.047.24-.14.345a.461.461 0 0 1-.36.156h-3a.477.477 0 0 1-.344-.156A.48.48 0 0 1 2 6.512c0-.146.052-.266.156-.36a.502.502 0 0 1 .344-.14Zm10.406 1.472v2.38a2.41 2.41 0 0 0 .89-.328c.303-.178.454-.475.454-.893 0-.334-.104-.58-.313-.736-.208-.157-.552-.298-1.03-.423Zm-1.875-3.038c0 .293.084.512.25.658.167.146.459.271.875.376V3.412c-.291 0-.552.083-.781.25-.23.167-.344.428-.344.783Z"/></svg>