<svg xmlns="http://www.w3.org/2000/svg" fill="currentColor" viewBox="0 0 16 16"><path d="M0 8.783c0-.413.057-.767.172-1.06.114-.294.245-.55.39-.766.063-.087.178-.218.344-.392a3.28 3.28 0 0 1 .688-.522C2.385 4.761 3.27 3.766 4.25 3.06 5.23 2.353 6.469 2 7.969 2H8c.167 0 .323.005.469.016.146.011.27.027.375.05.291.064.573.244.844.537.27.294.53.625.78.995s.475.739.673 1.109c.197.37.359.684.484.945a4.76 4.76 0 0 1 1.688.294c.52.195.984.472 1.39.831.406.359.724.8.953 1.32.23.523.344 1.099.344 1.73v2.086h-2.063c-.104.63-.385 1.136-.843 1.516-.459.38-.99.571-1.594.571-.604 0-1.135-.19-1.594-.57-.458-.381-.75-.886-.875-1.517H5.937c-.104.63-.385 1.136-.843 1.516-.459.38-.99.571-1.594.571-.604 0-1.135-.19-1.594-.57-.458-.381-.75-.886-.875-1.517H0v-3.13Zm1 0v2.087h.031a2.633 2.633 0 0 1 .89-1.484c.47-.402.996-.603 1.579-.603.563 0 1.083.2 1.563.603.479.402.77.897.875 1.484H9.03a2.633 2.633 0 0 1 .89-1.484c.47-.402.996-.603 1.579-.603.563 0 1.083.2 1.563.603.479.402.77.897.874 1.484H15V9.826c0-.87-.292-1.609-.875-2.217C13.542 7 12.833 6.696 12 6.696H3c-.563 0-1.036.2-1.422.603C1.193 7.7 1 8.196 1 8.783Zm9.5-3.13a18.465 18.465 0 0 0-.844-1.468c-.208-.37-.396-.63-.562-.783a1.039 1.039 0 0 0-.453-.277 1.853 1.853 0 0 0-.547-.082h-.469a2.692 2.692 0 0 1-.453.033c-.177 0-.35.022-.516.065-.833.218-1.515.517-2.047.897-.53.38-1.046.919-1.546 1.614H10.5Zm-.688 5.217a2.088 2.088 0 0 0-.063.522 2.088 2.088 0 0 0 .063.521c.105.37.313.68.626.93.312.25.666.374 1.062.374s.75-.125 1.063-.375c.312-.25.52-.56.624-.929a2.09 2.09 0 0 0 .063-.522 2.09 2.09 0 0 0-.063-.521 1.984 1.984 0 0 0-.656-.93 1.613 1.613 0 0 0-1.031-.375c-.396 0-.75.125-1.063.375-.312.25-.52.56-.624.93Zm-8 0a2.088 2.088 0 0 0-.063.522 2.088 2.088 0 0 0 .063.521c.105.37.313.68.625.93.313.25.667.374 1.063.374.396 0 .75-.125 1.063-.375.312-.25.52-.56.625-.929a2.088 2.088 0 0 0 .063-.522 2.088 2.088 0 0 0-.064-.521 1.984 1.984 0 0 0-.656-.93A1.614 1.614 0 0 0 3.5 9.565c-.396 0-.75.125-1.063.375-.312.25-.52.56-.624.93Z"/></svg>