<svg xmlns="http://www.w3.org/2000/svg" fill="currentColor" viewBox="0 0 16 16"><path d="M3 10.344V5c0-.375.094-.714.281-1.016.188-.302.427-.536.719-.703V2c0-.542.198-1.01.594-1.406A1.922 1.922 0 0 1 6 0h4c.542 0 1.01.198 1.406.594C11.802.99 12 1.458 12 2v1.281c.292.167.531.401.719.703.187.302.281.641.281 1.016v5.344c0 .146-.083.281-.25.406-.02.02-.042.031-.063.031L8.22 12.594h-.031c-.021.02-.084.031-.188.031s-.167-.01-.188-.031l-4.5-1.813c-.041 0-.062-.01-.062-.031-.167-.104-.25-.24-.25-.406ZM4 5v4h8V5a.947.947 0 0 0-.297-.719A.988.988 0 0 0 11 4H5a.973.973 0 0 0-.719.281A.973.973 0 0 0 4 5Zm0 10h7.969l.656 1H3.344L4 15Zm2.5-8.5c0-.375.12-.703.36-.984.239-.282.536-.443.89-.485C7.77 5.011 7.854 5 8 5c.146 0 .23.01.25.031.354.042.651.203.89.485.24.28.36.609.36.984s-.12.703-.36.984a1.338 1.338 0 0 1-.89.485C8.23 7.989 8.146 8 8 8c-.146 0-.23-.01-.25-.031a1.341 1.341 0 0 1-.89-.485c-.24-.28-.36-.609-.36-.984ZM5.312 13h5.313l.656 1H4.656l.657-1ZM5 3h2.75V1H6a.973.973 0 0 0-.719.281A.973.973 0 0 0 5 2v1Zm3.25 0H11V2a.947.947 0 0 0-.297-.719A.988.988 0 0 0 10 1H8.25v2Zm3.219 9.344.875-.344L15 16h-1.156l-2.375-3.656Zm-7.781-.313.874.344L2.156 16H1l2.688-3.969ZM7.75 7.22h.5c.333-.146.5-.386.5-.719 0-.396-.167-.635-.5-.719-.02-.02-.104-.031-.25-.031-.146 0-.23.01-.25.031-.333.084-.5.323-.5.719 0 .333.167.573.5.719Zm0 4.281v-2h-1v1.594l1 .406Zm.5 0 1-.406V9.5h-1v2Zm1.5-.594 1-.406v-1h-1v1.406ZM5.25 9.5v1l1 .406V9.5h-1ZM12 10v-.5h-.75v.781L12 10Zm-8-.5v.5l.75.281V9.5H4Z"/></svg>