<svg xmlns="http://www.w3.org/2000/svg" fill="currentColor" viewBox="0 0 16 16"><path d="M4.004 13.985c.29 0 .53.099.717.297a.99.99 0 0 1 .28.703.975.975 0 0 1-.28.719.969.969 0 0 1-.717.28.983.983 0 0 1-.7-.28.948.948 0 0 1-.297-.72c0-.27.099-.505.296-.702a.957.957 0 0 1 .701-.297Zm8.973 0c.291 0 .53.099.717.297a.99.99 0 0 1 .28.703.975.975 0 0 1-.28.719.969.969 0 0 1-.717.28.983.983 0 0 1-.7-.28.948.948 0 0 1-.297-.72c0-.27.099-.505.296-.702a.957.957 0 0 1 .701-.297Zm2.15-10a.82.82 0 0 1 .701.375c.177.25.203.52.078.812l-1.714 4.313c-.124.333-.363.5-.716.5H6.403c-.332 0-.602.146-.81.437a4.643 4.643 0 0 0-.343.531c-.103.188-.176.36-.218.516-.041.156-.036.281.016.375.052.094.171.14.358.14h8.07a.46.46 0 0 1 .358.157c.094.104.14.219.14.344 0 .333-.166.5-.498.5H4.19c-.353 0-.566-.084-.639-.25-.072-.167-.062-.386.032-.656a4.58 4.58 0 0 1 .436-.891c.197-.323.379-.64.545-.953l.187-.344c.083-.104.104-.25.062-.438L2.57 3.923a47.923 47.923 0 0 1-.514-1.313c-.156-.417-.41-.625-.763-.625h-.78a.5.5 0 0 1-.342-.14.463.463 0 0 1-.156-.36c0-.125.052-.24.156-.344A.476.476 0 0 1 .515.985H2.04c.416.02.701.182.857.484.156.302.317.693.483 1.172l2.025 5.437c.104.292.223.516.359.672.135.157.44.235.919.235h5.764c.477 0 .778-.073.903-.219a2.23 2.23 0 0 0 .343-.594l1.433-4.187Zm-2.306-.844a.478.478 0 0 1 .156.344c0 .125-.052.24-.156.343a.492.492 0 0 1-.716 0L9.986 1.485v5c-.041.312-.208.49-.498.531-.333 0-.499-.177-.499-.531v-5L6.84 3.86a.44.44 0 0 1-.358.14.555.555 0 0 1-.358-.172.4.4 0 0 1-.156-.328c0-.135.052-.255.156-.359L8.833.297a.913.913 0 0 1 .67-.281c.26 0 .504.094.732.281l2.586 2.844Z"/></svg>