<svg xmlns="http://www.w3.org/2000/svg" fill="currentColor" viewBox="0 0 17 17"><path d="M4.017 14.02c.291 0 .531.099.719.296a.985.985 0 0 1 .28.702.97.97 0 0 1-.28.717.974.974 0 0 1-.72.281.974.974 0 0 1-.718-.28.97.97 0 0 1-.281-.718c0-.27.093-.504.28-.702a.948.948 0 0 1 .72-.296Zm9.001 0a.95.95 0 0 1 .719.296.985.985 0 0 1 .281.702.97.97 0 0 1-.281.717.975.975 0 0 1-.719.281.975.975 0 0 1-.719-.28.97.97 0 0 1-.281-.718c0-.27.094-.504.281-.702a.948.948 0 0 1 .72-.296Zm2.157-9.98c.291 0 .52.124.687.374a.86.86 0 0 1 .094.81L14.237 9.53c-.125.332-.375.499-.75.499H6.423c-.333 0-.604.145-.812.436a4.62 4.62 0 0 0-.344.53 3.086 3.086 0 0 0-.234.515c-.053.156-.053.28 0 .374.052.094.182.14.39.14h8.095c.146 0 .266.053.36.157.093.104.14.218.14.343 0 .332-.167.499-.5.499H4.173c-.354 0-.568-.083-.64-.25-.074-.166-.063-.384.03-.655.094-.27.24-.566.438-.889.198-.322.38-.639.547-.95l.188-.344c.104-.145.125-.29.062-.436L2.58 3.977a6.197 6.197 0 0 1-.266-.686 4.327 4.327 0 0 0-.25-.624 1.538 1.538 0 0 0-.328-.452.668.668 0 0 0-.469-.172h-.75c-.333 0-.5-.166-.5-.499 0-.125.047-.239.14-.343a.462.462 0 0 1 .36-.156h1.532c.416.021.703.182.86.484a9.3 9.3 0 0 1 .484 1.17l2 5.426c.104.291.23.515.375.67.146.157.448.235.906.235h5.783c.479 0 .78-.073.906-.219.125-.145.24-.343.344-.592l1.469-4.18Zm-4.907 2.682c-.23.187-.474.28-.735.28a.918.918 0 0 1-.672-.28L6.142 3.883a.493.493 0 0 1-.156-.358.4.4 0 0 1 .156-.328c.25-.25.49-.26.719-.03l2.156 2.37V.546c0-.354.167-.531.5-.531.292.042.459.218.5.53v4.99l2.126-2.339a.494.494 0 0 1 .719 0 .476.476 0 0 1 .156.343c0 .125-.052.24-.156.343l-2.594 2.839Z"/></svg>