<svg xmlns="http://www.w3.org/2000/svg" fill="currentColor" viewBox="0 0 16 16"><path d="M0 1.5c0-.333.167-.5.5-.5H2c.417 0 .709.151.875.453a6.2 6.2 0 0 1 .47 1.172l2.03 5.438c.105.291.23.52.376.687.146.167.448.25.906.25h5.782c.459 0 .756-.078.891-.234.136-.157.255-.36.36-.61L15.127 4c.313 0 .553.12.72.36.166.239.197.505.093.796L14.22 9.5c-.145.333-.395.5-.75.5H6.408c-.375 0-.656.146-.844.438a5.239 5.239 0 0 0-.312.5 3.095 3.095 0 0 0-.235.515c-.052.156-.052.287 0 .39.052.105.183.157.391.157h8.095c.333 0 .5.167.5.5 0 .125-.047.24-.14.344a.462.462 0 0 1-.36.156H4.157c-.354 0-.568-.088-.64-.266-.074-.177-.063-.396.03-.656.094-.26.24-.557.438-.89.198-.334.38-.657.547-.97l.187-.343c.105-.167.125-.313.063-.438l-2.25-5.53a66.12 66.12 0 0 1-.516-1.298C1.86 2.203 1.604 2 1.25 2H.5a.462.462 0 0 1-.36-.156A.503.503 0 0 1 0 1.5ZM9.001 4V1h1v3h3.001v1h-3v3h-1V5H6V4h3Zm3 11c0-.292.095-.531.282-.719a.974.974 0 0 1 .719-.281c.292 0 .531.094.719.281a.973.973 0 0 1 .281.719c0 .27-.094.505-.281.703a.947.947 0 0 1-.719.297.947.947 0 0 1-.719-.297.988.988 0 0 1-.281-.703Zm-9 0c0-.292.093-.531.28-.719a.974.974 0 0 1 .72-.281c.291 0 .53.094.718.281a.973.973 0 0 1 .282.719c0 .27-.094.505-.282.703a.947.947 0 0 1-.718.297.947.947 0 0 1-.72-.297.988.988 0 0 1-.28-.703Z"/></svg>