<svg xmlns="http://www.w3.org/2000/svg" fill="currentColor" viewBox="0 0 16 16"><path d="M9.877 6.969 7.282 4.344l1-.969 1.563 1.594L13.002 1l1 1-4.125 4.969ZM4 14c.291 0 .53.094.718.281A.973.973 0 0 1 5 15c0 .27-.094.505-.282.703A.947.947 0 0 1 4 16a.947.947 0 0 1-.72-.297A.988.988 0 0 1 3 15c0-.292.093-.531.28-.719A.974.974 0 0 1 4 14Zm9.001 0c.292 0 .531.094.719.281a.973.973 0 0 1 .281.719c0 .27-.094.505-.281.703a.947.947 0 0 1-.719.297.947.947 0 0 1-.719-.297.988.988 0 0 1-.281-.703c0-.292.094-.531.281-.719a.974.974 0 0 1 .719-.281Zm2.157-10c.291 0 .52.12.687.36.167.239.198.505.094.796L14.22 9.5c-.145.333-.395.5-.75.5H6.408a.908.908 0 0 0-.812.438c-.125.166-.24.338-.344.515a2.653 2.653 0 0 0-.235.5c-.052.156-.052.287 0 .39.052.105.183.157.391.157h8.095c.333 0 .5.167.5.5 0 .125-.047.24-.14.344a.462.462 0 0 1-.36.156H4.157c-.354 0-.568-.088-.64-.266-.074-.177-.063-.396.03-.656.094-.26.24-.557.438-.89.198-.334.38-.657.547-.97l.187-.343c.105-.146.125-.292.063-.438l-2.22-5.53c-.207-.46-.385-.891-.53-1.298C1.886 2.203 1.636 2 1.282 2H.5a.462.462 0 0 1-.36-.156A.503.503 0 0 1 0 1.5c0-.333.167-.5.5-.5h1.532c.416 0 .703.151.86.453.155.302.317.693.484 1.172l2 5.438c.104.291.229.52.375.687.146.167.448.25.906.25h5.782c.48 0 .782-.078.907-.234.125-.157.24-.36.344-.61L15.159 4Z"/></svg>