<svg xmlns="http://www.w3.org/2000/svg" fill="currentColor" viewBox="0 0 16 16"><path d="M6.864 7c-.208 0-.364-.115-.468-.344L4.992 3h8.985l-1.248 3.656c-.083.23-.24.344-.468.344H6.864Zm-2.87 6a.97.97 0 0 1 .717.281c.187.188.28.427.28.719a.99.99 0 0 1-.28.703.944.944 0 0 1-.718.297.959.959 0 0 1-.702-.297.962.962 0 0 1-.296-.703.95.95 0 0 1 .296-.719.985.985 0 0 1 .702-.281Zm8.984 0a.97.97 0 0 1 .718.281c.187.188.28.427.28.719a.99.99 0 0 1-.28.703.944.944 0 0 1-.718.297.959.959 0 0 1-.702-.297.962.962 0 0 1-.296-.703.95.95 0 0 1 .296-.719.986.986 0 0 1 .702-.281Zm2.153-10a.83.83 0 0 1 .702.36.81.81 0 0 1 .11.796L14.194 8.5c-.146.333-.385.5-.717.5H6.396a.906.906 0 0 0-.812.438 5.616 5.616 0 0 0-.343.515 2.034 2.034 0 0 0-.218.5c-.042.156-.037.287.015.39.052.105.172.157.36.157h8.11c.126 0 .235.047.328.14.094.094.14.214.14.36 0 .125-.046.24-.14.344a.428.428 0 0 1-.327.156H4.18c-.354 0-.567-.088-.64-.266-.073-.177-.062-.396.031-.656.094-.26.24-.557.437-.89.198-.334.38-.657.546-.97l.187-.343c.083-.104.104-.25.062-.438l-2.246-5.53c-.187-.46-.359-.891-.515-1.298C1.887 1.203 1.633 1 1.28 1H.5A.477.477 0 0 1 .156.844.478.478 0 0 1 0 .5C0 .354.052.234.156.14A.502.502 0 0 1 .499 0h1.529c.416 0 .702.151.858.453.156.302.317.693.483 1.172l2.028 5.438c.104.291.224.52.359.687.135.167.442.25.92.25h5.772c.458 0 .754-.078.89-.234.134-.157.254-.36.358-.61L15.13 3Z"/></svg>