<svg xmlns="http://www.w3.org/2000/svg" fill="currentColor" viewBox="0 0 16 16"><path d="M14.859 1.335c.309.309.534.653.677 1.032.143.38.214.771.214 1.175 0 .403-.072.8-.214 1.192a2.85 2.85 0 0 1-.677 1.05l-4.205 4.164c-.617.617-1.354.926-2.209.926a3.1 3.1 0 0 1-2.21-.926l-.391-.391a1.414 1.414 0 0 1-.178-.214l-.143-.213.748-.748.784.783c.38.38.844.57 1.39.57.523 0 .998-.19 1.425-.57l4.17-4.2c.403-.403.605-.872.605-1.405 0-.534-.202-1.003-.606-1.406l-.391-.427c-.38-.38-.856-.57-1.426-.57-.546 0-1.01.19-1.39.57L8.16 4.432H6.557L10.013.944a3.11 3.11 0 0 1 2.21-.926 3.06 3.06 0 0 1 2.244.926l.392.391ZM7.162 12.297h1.604l-2.78 2.777c-.593.593-1.33.89-2.209.89-.404 0-.796-.072-1.176-.214a2.887 2.887 0 0 1-1.033-.676l-.392-.427C.558 14.03.25 13.294.25 12.44c0-.854.308-1.59.926-2.207l3.563-3.595a2.888 2.888 0 0 1 1.034-.676c.38-.142.772-.213 1.175-.213.88 0 1.628.296 2.245.89l.392.426.072.072-.784.783-.927-.783c-.261-.166-.594-.25-.998-.25-.57 0-1.033.19-1.39.57l-3.598 3.56c-.38.426-.57.9-.57 1.423 0 .522.19.997.57 1.424l.427.391c.38.38.844.57 1.39.57.523 0 .998-.19 1.425-.57l1.96-1.958Z"/></svg>