<svg xmlns="http://www.w3.org/2000/svg" fill="currentColor" viewBox="0 0 16 16"><path d="M0 13.552V3.228c0-.336.125-.625.376-.866C.626 2.121.929 2 1.284 2h13.464c.334 0 .626.12.876.362.25.241.376.53.376.866v10.324c0 .357-.125.687-.376.992-.25.304-.543.456-.876.456H1.284c-.355 0-.658-.152-.908-.456-.25-.305-.376-.635-.376-.992Zm5.855-2.581H7.14l.814-1.29.814 1.29h1.347L8.61 8.83l1.377-1.952H8.704L7.953 7.98l-.72-1.102H5.918l1.409 1.983-1.472 2.109ZM1.221 6.218V7.32c.626-.19 1.148-.494 1.566-.913v4.564h1.19V4.644h-.971c-.125.399-.37.735-.736 1.007-.365.273-.715.462-1.049.567Zm11.585.189v4.564h1.19V4.644h-1.002c-.104.357-.334.682-.689.976-.355.294-.71.493-1.064.598V7.32c.542-.168 1.064-.473 1.565-.913Zm-.031 7.208v-1.26h-5.01v1.26h5.01Z"/></svg>