<svg xmlns="http://www.w3.org/2000/svg" fill="currentColor" viewBox="0 0 16 16"><path d="M1 14.75V1.25c0-.167.083-.25.25-.25h5.5c.167 0 .25.083.25.25v13.5c0 .167-.083.25-.25.25h-5.5c-.167 0-.25-.083-.25-.25Zm7-8v-5.5c0-.167.083-.25.25-.25h6.5c.167 0 .25.083.25.25v5.5c0 .167-.083.25-.25.25h-6.5C8.083 7 8 6.917 8 6.75Zm0 1.5c0-.167.083-.25.25-.25h2.5c.167 0 .25.083.25.25v6.5c0 .167-.083.25-.25.25h-2.5c-.167 0-.25-.083-.25-.25v-6.5Zm4 0c0-.167.083-.25.25-.25h2.5c.167 0 .25.083.25.25v2.5c0 .167-.083.25-.25.25h-2.5c-.167 0-.25-.083-.25-.25v-2.5Zm0 4c0-.167.083-.25.25-.25h2.5c.167 0 .25.083.25.25v2.5c0 .167-.083.25-.25.25h-2.5c-.167 0-.25-.083-.25-.25v-2.5Z"/></svg>