<svg xmlns="http://www.w3.org/2000/svg" fill="currentColor" viewBox="0 0 16 16"><path d="M2 8.016c0-.27.094-.505.281-.702A.948.948 0 0 1 3 7.018h11c.27 0 .505.098.703.296a.958.958 0 0 1 .297.702v6.986c0 .291-.099.53-.297.717A.989.989 0 0 1 14 16H3a.974.974 0 0 1-.719-.28.97.97 0 0 1-.281-.718V8.016ZM2 .53c0-.125.047-.239.14-.343A.462.462 0 0 1 2.5.031h11c.146 0 .266.052.36.156.093.104.14.218.14.343 0 .333-.167.5-.5.5h-11c-.333 0-.5-.167-.5-.5Zm1 14.472h3v-2.994H3v2.994Zm8 0h3v-2.994h-3v2.994Zm3-3.992V8.016h-3v2.994h3Zm-7 0h3V8.016H7v2.994Zm0 .998v2.994h3v-2.994H7ZM3 8.016v2.994h3V8.016H3Zm-1-5.49c0-.124.047-.239.14-.343a.462.462 0 0 1 .36-.156h7c.146 0 .266.052.36.156.093.104.14.219.14.343 0 .333-.167.5-.5.5h-7c-.333 0-.5-.167-.5-.5ZM.5 0c.333 0 .5.166.5.499v4.023c0 .333-.167.5-.5.5a.504.504 0 0 1-.344-.14.46.46 0 0 1-.156-.36V.5A.46.46 0 0 1 .156.14.504.504 0 0 1 .5 0Zm2 4.023h3c.146 0 .266.052.36.156.093.104.14.219.14.343 0 .333-.167.5-.5.5h-3c-.333 0-.5-.167-.5-.5 0-.124.047-.239.14-.343a.462.462 0 0 1 .36-.156ZM0 8.515a.46.46 0 0 1 .156-.359.504.504 0 0 1 .344-.14c.333 0 .5.166.5.499v1.996c0 .332-.167.499-.5.499a.503.503 0 0 1-.344-.14.46.46 0 0 1-.156-.36V8.516Zm0 4.023a.46.46 0 0 1 .156-.359.503.503 0 0 1 .344-.14c.333 0 .5.166.5.499v1.996c0 .333-.167.5-.5.5a.503.503 0 0 1-.344-.141.46.46 0 0 1-.156-.359v-1.996Z"/></svg>