<svg xmlns="http://www.w3.org/2000/svg" fill="currentColor" viewBox="0 0 16 16"><path d="M14.72 12.75c.186.208.28.448.28.719 0 .27-.094.51-.28.719l-1.903 1.656a.476.476 0 0 1-.343.156.476.476 0 0 1-.343-.156.494.494 0 0 1 0-.719L13.503 14H3.025a.944.944 0 0 1-.717-.297.99.99 0 0 1-.281-.703V2.5L.873 3.844a.492.492 0 0 1-.717 0A.478.478 0 0 1 0 3.5c0-.125.052-.24.156-.344l1.622-1.875A1.04 1.04 0 0 1 2.495 1c.27 0 .51.094.717.281l1.653 1.875a.478.478 0 0 1 .156.344c0 .125-.052.24-.156.344a.492.492 0 0 1-.717 0L3.025 2.5v9.781l7.017-7.031-1.778.156c-.333-.041-.499-.208-.499-.5 0-.146.047-.265.14-.36a.448.448 0 0 1 .328-.14l2.495-.187c.27.02.504.125.701.312a.912.912 0 0 1 .297.688L11.57 7.75a.45.45 0 0 1-.14.328.448.448 0 0 1-.328.14c-.354 0-.53-.166-.53-.5l.156-1.75L3.742 13h9.761l-1.372-1.156a.494.494 0 0 1 0-.719.476.476 0 0 1 .343-.156c.125 0 .24.052.343.156l1.902 1.625Z"/></svg>