<svg xmlns="http://www.w3.org/2000/svg" fill="currentColor" viewBox="0 0 16 16"><path d="M13.004 1c.565 0 1.039.196 1.422.588.383.392.574.861.574 1.408v4.102a1.92 1.92 0 0 1-.684 1.504l-5.66 6.152C8.492 14.918 8.273 15 8 15a.852.852 0 0 1-.629-.246l-5.66-6.152C1.237 8.182 1 7.68 1 7.098V2.996c0-.547.196-1.016.588-1.408A1.921 1.921 0 0 1 2.996 1h10.008Zm.984 1.996a.974.974 0 0 0-.273-.697.937.937 0 0 0-.711-.287H2.996a.95.95 0 0 0-.697.287.95.95 0 0 0-.287.697v4.102c0 .291.118.537.355.738L8 13.988l5.66-6.152c.219-.182.328-.428.328-.738V2.996Z"/></svg>