<svg xmlns="http://www.w3.org/2000/svg" fill="currentColor" viewBox="0 0 16 16"><path d="M2.012 7.04H8c.328 0 .579.114.752.342.173.23.26.499.26.81v2.333c0 .312-.146.586-.438.824l-3.226 3.514a.516.516 0 0 1-.383.137c-.146 0-.255-.046-.328-.137L1.41 11.349a.968.968 0 0 1-.41-.824V8.192c0-.311.087-.58.26-.81.173-.228.424-.343.752-.343Zm0 3.485c0 .019.146.197.437.536.292.338.63.709 1.012 1.111l1.504 1.648 1.504-1.648c.383-.42.733-.796 1.052-1.125.32-.33.479-.503.479-.522V8.192c0-.11-.064-.165-.191-.165h-5.66c-.092 0-.137.055-.137.165v2.333ZM8 4.02h5.988c.347 0 .602.114.766.343.164.228.246.498.246.81v2.333c0 .311-.146.595-.438.85l-3.226 3.515c-.073.073-.191.11-.356.11-.164.018-.282-.019-.355-.11l-.629-.66V9.676l.984 1.098 1.477-1.648c.383-.42.734-.791 1.053-1.111.319-.32.478-.49.478-.508V5.173c0-.092-.054-.138-.164-.138h-5.66c-.11 0-.164.046-.164.138v.85H6.988v-.85c0-.312.091-.582.274-.81A.894.894 0 0 1 8 4.02ZM2.012 1H8c.328 0 .579.114.752.343.173.229.26.508.26.837v.824H8V2.18c0-.11-.064-.164-.191-.164h-5.66c-.092 0-.137.055-.137.164v2.306c0 .019.059.1.177.247.119.147.265.311.438.494s.337.353.492.508l.287.289h-1.34l-.656-.687c-.273-.201-.41-.485-.41-.85V2.18c0-.329.087-.608.26-.837.173-.229.424-.343.752-.343Z"/></svg>