<svg xmlns="http://www.w3.org/2000/svg" fill="currentColor" viewBox="0 0 16 16"><path d="M0 14.97V1.997c0-.27.094-.504.28-.702A.945.945 0 0 1 .999.998h1.996V0h.998v.998H9.98V0h.999v.998h1.996c.29 0 .53.099.717.296.187.198.28.432.28.702v3.992h-.997V3.992H.998v10.979h5.988v.998H.998a.972.972 0 0 1-.717-.28A.972.972 0 0 1 0 14.97Zm6.986-4.49c0-.479.094-.93.281-1.357.187-.426.437-.795.749-1.107a3.588 3.588 0 0 1 1.107-.749c.426-.187.878-.28 1.357-.28.478 0 .93.093 1.356.28.426.187.796.437 1.107.749.312.312.562.68.749 1.107.187.426.28.878.28 1.357 0 .79-.238 1.486-.717 2.09l2.558 2.557c.25.228.25.468 0 .717a.477.477 0 0 1-.343.156.477.477 0 0 1-.343-.156l-2.558-2.557c-.582.457-1.279.686-2.09.686-.478 0-.93-.094-1.356-.28a3.589 3.589 0 0 1-1.107-.75 3.587 3.587 0 0 1-.749-1.107 3.338 3.338 0 0 1-.28-1.356Zm3.494 2.495c.686 0 1.273-.245 1.762-.733a2.403 2.403 0 0 0 .733-1.762c0-.687-.245-1.274-.733-1.763a2.403 2.403 0 0 0-1.763-.733c-.686 0-1.273.245-1.762.733a2.403 2.403 0 0 0-.733 1.763c0 .686.245 1.273.733 1.762a2.403 2.403 0 0 0 1.762.733Zm-.5-10.979v.998h.999v-.998H9.98Zm-6.986 0v.998h.998v-.998h-.998Z"/></svg>