<svg xmlns="http://www.w3.org/2000/svg" fill="currentColor" viewBox="0 0 16 16"><path d="M1 10.488V8.191c0-.31.123-.587.37-.834a1.18 1.18 0 0 1 .86-.369h5.633c.328 0 .602.123.82.37.22.246.329.524.329.833v2.297c0 .365-.128.657-.383.875l-3.227 3.473c-.164.11-.291.164-.382.164-.055 0-.165-.055-.329-.164l-3.226-3.473a1.18 1.18 0 0 1-.328-.369.98.98 0 0 1-.137-.506Zm5.988-5.304c0-.31.128-.584.383-.82.255-.238.538-.356.848-.356h5.66c.31 0 .574.118.793.355.219.237.328.51.328.82v2.325c0 .346-.128.638-.383.875l-3.199 3.473c-.182.09-.31.136-.383.136-.073 0-.191-.045-.355-.137l-.657-.82c-.018.018-.022-.123-.013-.424.009-.3.013-.633.013-.998V8.191c0-.601-.205-1.116-.615-1.545-.41-.428-.925-.642-1.545-.642h-.875v-.82ZM1 4.5V2.176c0-.31.123-.584.37-.82.245-.238.532-.356.86-.356h5.633c.328 0 .602.118.82.355.22.237.329.51.329.82v.821h-.793a2.15 2.15 0 0 0-1.559.643 2.085 2.085 0 0 0-.656 1.545v.82H2.23c-.036 0-.082-.032-.136-.096a2.13 2.13 0 0 0-.246-.232l-.383-.301a1.555 1.555 0 0 1-.328-.396A.932.932 0 0 1 1 4.5Z"/></svg>