<svg xmlns="http://www.w3.org/2000/svg" fill="currentColor" viewBox="0 0 16 16"><path d="M15.781 7.375c.146.188.219.401.219.64 0 .24-.073.443-.219.61l-3.184 4c-.23.25-.49.375-.781.375H.513a.472.472 0 0 1-.453-.281.473.473 0 0 1 .047-.531L2.98 8.624a.893.893 0 0 0 .218-.61c0-.239-.073-.453-.218-.64L.107 3.812a.473.473 0 0 1-.047-.53A.472.472 0 0 1 .513 3h11.303c.27 0 .53.125.78.375l3.185 4Zm-.78.625-3.185-4H1.543L3.76 6.75c.292.375.437.797.437 1.266 0 .468-.145.88-.437 1.234L1.543 12h10.273l3.185-4Z"/></svg>