<svg xmlns="http://www.w3.org/2000/svg" fill="currentColor" viewBox="0 0 16 16"><path d="M8 0c1.104 0 2.14.208 3.11.625a8.08 8.08 0 0 1 2.546 1.719 8.081 8.081 0 0 1 1.719 2.547C15.792 5.859 16 6.896 16 8s-.208 2.14-.625 3.11a8.082 8.082 0 0 1-1.719 2.546 8.082 8.082 0 0 1-2.547 1.719A7.785 7.785 0 0 1 8 16c-1.125 0-2.167-.208-3.125-.625a8.132 8.132 0 0 1-2.531-1.719A8.08 8.08 0 0 1 .625 11.11 7.786 7.786 0 0 1 0 8c0-1.104.208-2.14.625-3.11a8.08 8.08 0 0 1 1.719-2.546A8.13 8.13 0 0 1 4.875.625C5.833.208 6.875 0 8 0Z"/></svg>