<svg xmlns="http://www.w3.org/2000/svg" fill="currentColor" viewBox="0 0 16 16"><path d="M0 9.98a4.008 4.008 0 0 1 1.172-2.823A4.065 4.065 0 0 1 2.438 6.3 3.88 3.88 0 0 1 4 5.988h1a2.896 2.896 0 0 1-2.125-.873A2.885 2.885 0 0 1 2 2.995c0-.833.292-1.54.875-2.122A2.896 2.896 0 0 1 5 0c.833 0 1.542.291 2.125.873.583.582.875 1.29.875 2.121 0 .832-.292 1.539-.875 2.121A2.896 2.896 0 0 1 5 5.988h1a4.017 4.017 0 0 1 2.828 1.17A4.008 4.008 0 0 1 10 9.98H9c0-.832-.292-1.54-.875-2.121A2.896 2.896 0 0 0 6 6.986H4c-.833 0-1.542.291-2.125.874A2.885 2.885 0 0 0 1 9.98H0Zm9-4.428c.292-.167.604-.302.938-.406A3.548 3.548 0 0 1 11 4.99h.5c-.688 0-1.276-.239-1.766-.717S9 3.203 9 2.495A2.4 2.4 0 0 1 9.734.733 2.41 2.41 0 0 1 11.5 0a2.41 2.41 0 0 1 1.766.733A2.4 2.4 0 0 1 14 2.495c0 .707-.245 1.3-.734 1.778a2.436 2.436 0 0 1-1.766.717h.5a4.016 4.016 0 0 1 2.828 1.17A4.007 4.007 0 0 1 16 8.982h-1c0-.831-.292-1.538-.875-2.12A2.896 2.896 0 0 0 12 5.988h-2l-.031-.03c-.021 0-.037-.006-.047-.016-.01-.01-.037-.016-.078-.016a1.864 1.864 0 0 0-.14-.062A2.832 2.832 0 0 1 9.5 5.77a4.426 4.426 0 0 0-.234-.11A12.123 12.123 0 0 0 9 5.553ZM3 2.994c0 .562.193 1.035.578 1.42.386.384.86.576 1.422.576a1.95 1.95 0 0 0 1.406-.577C6.802 4.03 7 3.556 7 2.994c0-.54-.198-1.008-.594-1.403A1.924 1.924 0 0 0 5 .998a1.91 1.91 0 0 0-1.422.593A1.942 1.942 0 0 0 3 2.994Zm-1.719 9.731 1.907-1.59a.478.478 0 0 1 .343-.156c.125 0 .24.052.344.155.23.23.23.468 0 .718l-1.406 1.123H6.53c.334 0 .5.166.5.499 0 .332-.166.499-.5.499H2.47l1.406 1.154c.23.228.23.468 0 .717a.478.478 0 0 1-.344.156.478.478 0 0 1-.344-.156L1.282 14.16A1.04 1.04 0 0 1 1 13.443c0-.27.094-.51.281-.718ZM9 13.474c0-.333.167-.5.5-.5h4.031l-1.406-1.122c-.23-.25-.23-.489 0-.718a.478.478 0 0 1 .344-.155c.125 0 .24.052.344.155l1.906 1.591c.187.208.281.447.281.718 0 .27-.094.509-.281.717l-1.906 1.684a.478.478 0 0 1-.344.156.478.478 0 0 1-.344-.156c-.23-.229-.23-.468 0-.717l1.406-1.154H9.5c-.333 0-.5-.167-.5-.5Zm1-10.979c0 .416.146.77.438 1.06.291.292.645.437 1.062.437.417 0 .77-.145 1.063-.436.291-.292.437-.645.437-1.06 0-.417-.146-.77-.438-1.061A1.448 1.448 0 0 0 11.5.998c-.417 0-.77.146-1.063.437A1.442 1.442 0 0 0 10 2.495Z"/></svg>