<svg xmlns="http://www.w3.org/2000/svg" fill="currentColor" viewBox="0 0 16 16"><path d="M2.016 3.01c0-.291.099-.53.296-.717a.983.983 0 0 1 .7-.281h2.086a1.9 1.9 0 0 1 .45-.655 1.3 1.3 0 0 1 .732-.343c.166-.291.405-.53.716-.717A1.964 1.964 0 0 1 9.019.296c.312.188.55.427.716.718.29.042.535.156.732.343.197.187.337.405.42.655h2.085c.29 0 .53.094.716.28.187.188.28.427.28.718v11.976c0 .27-.093.504-.28.702a.942.942 0 0 1-.716.296h-9.96a.956.956 0 0 1-.7-.296.96.96 0 0 1-.296-.702V3.01Zm10.956 11.976V3.01h-2.085c-.104.25-.234.478-.39.686-.155.208-.388.312-.7.312H6.218c-.311 0-.545-.104-.7-.312a3.171 3.171 0 0 1-.39-.686H3.013v11.976h9.96ZM4.008 7.751V5.256c0-.167.083-.25.25-.25h2.49c.165 0 .248.083.248.25V7.75c0 .166-.083.249-.249.249h-2.49c-.166 0-.249-.083-.249-.25Zm.25 1.247h2.49c.165 0 .248.083.248.25v2.495c0 .166-.083.249-.249.249h-2.49c-.166 0-.249-.083-.249-.25V9.248c0-.167.083-.25.25-.25ZM6 2.511c0 .146.052.265.156.359a.5.5 0 0 0 .342.14h2.988c.332 0 .498-.166.498-.499 0-.333-.166-.499-.498-.499h-.498a.972.972 0 0 0-.28-.717.968.968 0 0 0-.716-.281.983.983 0 0 0-.7.28.946.946 0 0 0-.296.718h-.498a.5.5 0 0 0-.342.14.461.461 0 0 0-.156.359Zm1.992 3.992c0-.146.052-.265.156-.359a.5.5 0 0 1 .342-.14h2.988c.332 0 .498.166.498.499 0 .125-.046.24-.14.343a.46.46 0 0 1-.358.156H8.49a.475.475 0 0 1-.342-.156.477.477 0 0 1-.156-.343Zm0 3.992c0-.145.052-.265.156-.359a.5.5 0 0 1 .342-.14h2.988c.332 0 .498.166.498.499 0 .125-.046.24-.14.343a.46.46 0 0 1-.358.156H8.49a.475.475 0 0 1-.342-.156.477.477 0 0 1-.156-.343Zm-3.33-3.15h1.712V5.661H4.662v1.684Zm0 2.308v1.684h1.712V9.653H4.662Z"/></svg>