<svg xmlns="http://www.w3.org/2000/svg" fill="currentColor" viewBox="0 0 16 16"><path d="M13.188 7.5c.812.146 1.484.495 2.015 1.047.531.552.797 1.234.797 2.047 0 .458-.094.896-.281 1.312a3.653 3.653 0 0 1-.75 1.094 3.382 3.382 0 0 1-1.11.734c-.427.178-.88.266-1.359.266H3.406c-.479 0-.927-.094-1.344-.281a3.332 3.332 0 0 1-1.078-.766 3.71 3.71 0 0 1-.718-1.125A3.435 3.435 0 0 1 0 10.5c0-.73.203-1.385.61-1.969A3.545 3.545 0 0 1 2.218 7.25 3.423 3.423 0 0 1 2 6c0-.563.104-1.083.313-1.563a4.065 4.065 0 0 1 2.124-2.125A3.892 3.892 0 0 1 6 2a3.9 3.9 0 0 1 2.172.64c.656.428 1.14.995 1.453 1.704A3.04 3.04 0 0 1 11 4v1c-.292 0-.547.057-.766.172a4.716 4.716 0 0 0-.546.328l-.594.531-.219-.781a2.873 2.873 0 0 0-1.063-1.625A2.9 2.9 0 0 0 6 3c-.833 0-1.542.292-2.125.875A2.893 2.893 0 0 0 3 6c0 .438.115.885.344 1.344l.281.593L3 8.063a2.33 2.33 0 0 0-1.438.844A2.446 2.446 0 0 0 1 10.5c0 .688.245 1.276.734 1.766.49.49 1.079.734 1.766.734h8.906c.73 0 1.344-.245 1.844-.734.5-.49.75-1.068.75-1.735 0-.354-.073-.656-.219-.906a2.023 2.023 0 0 0-.531-.61 2.958 2.958 0 0 0-.656-.374A2.404 2.404 0 0 0 13 8.469l.188-.969Zm-5.47-1.281 2.22 2.25L14.218 3l.782.625L10 10 7 6.906l.719-.687Z"/></svg>