<svg xmlns="http://www.w3.org/2000/svg" fill="currentColor" viewBox="0 0 16 16"><path d="M14 6.908c.604.316 1.088.77 1.453 1.361S16 9.525 16 10.264c0 .485-.088.95-.266 1.393a3.117 3.117 0 0 1-.859 1.187c-.396.349-.912.628-1.547.84-.635.21-1.411.316-2.328.316H4a4.1 4.1 0 0 1-1.5-.348 4.778 4.778 0 0 1-1.281-.823 3.809 3.809 0 0 1-.89-1.188A3.209 3.209 0 0 1 0 10.232c0-.823.224-1.514.672-2.074.448-.559 1.047-.976 1.797-1.25A3.399 3.399 0 0 1 2.5 5.024c.188-.602.49-1.124.906-1.568a4.68 4.68 0 0 1 1.5-1.06A4.283 4.283 0 0 1 6.688 2c.645 0 1.26.158 1.843.475.584.317 1.084.844 1.5 1.583.5-.19.948-.285 1.344-.285.438 0 .818.095 1.14.285.323.19.594.438.813.744.219.306.386.644.5 1.013.115.37.172.734.172 1.093Zm-3 6.079c1.27 0 2.255-.238 2.953-.713C14.651 11.8 15 11.13 15 10.264a2.74 2.74 0 0 0-.39-1.44 2.606 2.606 0 0 0-1.079-.998L13 7.54v-.633c0-.211-.031-.444-.094-.697a2.304 2.304 0 0 0-.297-.696 1.75 1.75 0 0 0-.515-.523 1.277 1.277 0 0 0-.719-.206c-.333 0-.656.074-.969.222l-.812.348-.438-.791c-.354-.634-.765-1.05-1.234-1.251-.469-.2-.88-.3-1.234-.3a3.26 3.26 0 0 0-1.516.38c-.49.252-.901.59-1.234 1.012-.188.233-.35.544-.485.934s-.14.84-.015 1.346l.218.887-.844.316a3.761 3.761 0 0 0-1.218.744c-.396.349-.594.882-.594 1.6 0 .337.083.67.25.997.167.327.39.617.672.87.281.254.604.465.969.633.364.17.734.254 1.109.254h7Z"/></svg>