<svg xmlns="http://www.w3.org/2000/svg" fill="currentColor" viewBox="0 0 16 16"><path d="M13.361 13.333c.325.042.487.208.487.5a.474.474 0 0 1-.046.233.6.6 0 0 1-.076.11c-.02.02-.035.03-.046.03-.01 0-.025.01-.045.032a8.114 8.114 0 0 1-2.235 1.278 7.258 7.258 0 0 1-2.6.468 7.413 7.413 0 0 1-3.026-.624 7.854 7.854 0 0 1-2.478-1.715 8.078 8.078 0 0 1-1.672-2.542A7.942 7.942 0 0 1 1.016 8c0-1.102.202-2.142.608-3.119A7.849 7.849 0 0 1 3.296 2.34 7.983 7.983 0 0 1 5.774.64 7.412 7.412 0 0 1 8.8.017a7.46 7.46 0 0 1 2.645.468 7.657 7.657 0 0 1 2.25 1.31l.092.093c.06.063.091.156.091.28 0 .313-.162.49-.486.531a.48.48 0 0 1-.213-.062.355.355 0 0 1-.091-.063 7.279 7.279 0 0 0-1.962-1.138A6.346 6.346 0 0 0 8.8 1.014c-.953 0-1.84.182-2.66.546a6.877 6.877 0 0 0-2.16 1.497 7.025 7.025 0 0 0-1.46 2.23A6.991 6.991 0 0 0 1.99 8c0 .956.177 1.86.532 2.713a7.024 7.024 0 0 0 1.46 2.23A6.877 6.877 0 0 0 6.14 14.44a6.493 6.493 0 0 0 2.661.546c.831 0 1.607-.14 2.326-.421.72-.28 1.374-.67 1.962-1.17.02 0 .05-.01.09-.03a.414.414 0 0 1 .183-.032ZM8.801 3.01c.668 0 1.296.13 1.884.39a5.06 5.06 0 0 1 1.551 1.06c.446.447.796.977 1.05 1.59.253.614.38 1.264.38 1.95a4.94 4.94 0 0 1-.38 1.934 5.07 5.07 0 0 1-1.05 1.59 4.93 4.93 0 0 1-1.55 1.076 4.61 4.61 0 0 1-1.886.39 4.61 4.61 0 0 1-1.885-.39 4.93 4.93 0 0 1-1.551-1.076 5.068 5.068 0 0 1-1.05-1.59A4.94 4.94 0 0 1 3.935 8c0-.686.127-1.336.38-1.95a4.842 4.842 0 0 1 1.05-1.59 5.06 5.06 0 0 1 1.55-1.06A4.61 4.61 0 0 1 8.8 3.01Zm0 8.982a3.69 3.69 0 0 0 1.52-.312 3.955 3.955 0 0 0 1.231-.857c.355-.364.633-.79.836-1.28A3.99 3.99 0 0 0 12.692 8c0-.561-.101-1.081-.304-1.56a4.064 4.064 0 0 0-.836-1.262 3.953 3.953 0 0 0-1.232-.858 3.69 3.69 0 0 0-1.52-.312 3.69 3.69 0 0 0-1.52.312 3.953 3.953 0 0 0-1.232.858 4.063 4.063 0 0 0-.836 1.263A3.954 3.954 0 0 0 4.908 8c0 .54.101 1.055.304 1.544.203.488.481.915.836 1.278.355.364.765.65 1.232.858a3.69 3.69 0 0 0 1.52.312Z"/></svg>