<svg xmlns="http://www.w3.org/2000/svg" fill="currentColor" viewBox="0 0 16 16"><path d="M8.152 6.466c.256.246.256.48 0 .706-.235.225-.47.225-.705 0L4.725 4.534v7.945c0 .347-.171.521-.513.521-.341 0-.512-.174-.512-.521V4.472l-2.787 2.7c-.235.225-.48.225-.737 0-.235-.225-.235-.46 0-.706l3.267-3.16c.214-.204.46-.306.737-.306a.93.93 0 0 1 .705.307l3.267 3.16Zm7.336-3.426c.341 0 .512.153.512.46a.519.519 0 0 1-.144.368.483.483 0 0 1-.368.153h-5.126a.483.483 0 0 1-.368-.153.519.519 0 0 1-.144-.368c0-.307.17-.46.512-.46h5.126Z"/></svg>