<svg xmlns="http://www.w3.org/2000/svg" fill="currentColor" viewBox="0 0 16 16"><path d="M11.022 3.01v2.994H5.069V3.01h5.953ZM5.069 13.988h6.945v-9.98h.992v9.98a.97.97 0 0 1-.28.717.963.963 0 0 1-.712.281H5.069v-.998ZM4.077 1.014h6.945v.998H4.077v9.98h-.992v-9.98c0-.291.098-.53.295-.717a.977.977 0 0 1 .697-.281ZM.016 12.148c0-.77.29-1.414.868-1.934l.961-.935.155.124a2.696 2.696 0 0 0-.651 1.778 2.2 2.2 0 0 0 .527 1.466l1.24 1.185.868-.873c.062-.063.093-.042.093.062v2.963H1.04c-.02 0-.031-.01-.031-.031v-.094l.806-.81-.93-.936c-.579-.582-.868-1.237-.868-1.965ZM14.928.016c.124 0 .144.042.062.125l-.806.81.93.936c.579.562.868 1.217.868 1.965 0 .77-.29 1.414-.868 1.934l-.961.935-.155-.124c.454-.52.682-1.113.682-1.778 0-.645-.186-1.133-.558-1.466l-1.24-1.185-.775.78c-.062.02-.093 0-.093-.063V.016h2.914ZM6.06 7.002c.29 0 .527.094.713.28a.975.975 0 0 1 .28.718c0 .291-.094.53-.28.717a.962.962 0 0 1-.713.281.962.962 0 0 1-.713-.28A.975.975 0 0 1 5.07 8a.97.97 0 0 1 .28-.717.963.963 0 0 1 .712-.281Zm0 2.994c.29 0 .527.094.713.28a.975.975 0 0 1 .28.718c0 .291-.094.53-.28.717a.963.963 0 0 1-.713.281.963.963 0 0 1-.713-.28.975.975 0 0 1-.279-.718.97.97 0 0 1 .28-.717.963.963 0 0 1 .712-.281Zm3.969-2.994c.289 0 .527.094.713.28.186.188.279.427.279.718s-.093.53-.28.717a.962.962 0 0 1-.713.281.977.977 0 0 1-.697-.28A.948.948 0 0 1 9.037 8c0-.291.099-.53.295-.717a.977.977 0 0 1 .697-.281Zm-.993 3.992c0-.291.099-.53.295-.717a.977.977 0 0 1 .697-.281c.29 0 .527.094.713.28.187.188.28.427.28.718s-.093.53-.28.717a.962.962 0 0 1-.713.281.977.977 0 0 1-.697-.28.948.948 0 0 1-.295-.718Z"/></svg>