<svg xmlns="http://www.w3.org/2000/svg" fill="currentColor" viewBox="0 0 16 16"><path d="M.016 15.984V12.99c0-.561.052-1.081.156-1.56.104-.478.276-.899.515-1.262.239-.364.55-.65.935-.858.385-.208.848-.312 1.388-.312h1.996a2.887 2.887 0 0 1-2.12-.873 2.887 2.887 0 0 1-.874-2.121c0-.832.291-1.539.873-2.12a2.887 2.887 0 0 1 2.121-.874c.832 0 1.539.291 2.12.873.583.582.874 1.29.874 2.121 0 .832-.29 1.539-.873 2.12a2.887 2.887 0 0 1-2.12.874h1.995c.374 0 .738.057 1.092.172.353.114.655.306.904.576a.489.489 0 0 1 .094.125c.02.042.052.083.093.125.291.354.5.79.624 1.31.125.52.187 1.081.187 1.684v2.994H.016Zm.998-.998h7.984V12.99c0-.416-.026-.806-.078-1.17a2.84 2.84 0 0 0-.296-.95 1.635 1.635 0 0 0-.608-.64c-.26-.156-.598-.234-1.014-.234H3.01c-.416 0-.754.078-1.013.234-.26.156-.463.369-.609.64a2.84 2.84 0 0 0-.296.95 8.28 8.28 0 0 0-.078 1.17v1.996Zm7.984-8.982v-.998h2.495a2.403 2.403 0 0 1-1.762-.733 2.403 2.403 0 0 1-.733-1.762A2.4 2.4 0 0 1 9.731.749a2.403 2.403 0 0 1 1.762-.733 2.4 2.4 0 0 1 1.762.733 2.4 2.4 0 0 1 .733 1.762c0 .686-.244 1.273-.733 1.762a2.403 2.403 0 0 1-1.762.733h2.495c.5 0 .884.104 1.154.312.27.208.468.494.593.858.124.363.197.79.218 1.278.02.489.031 1.003.031 1.544v1.996h-4.959v-.998h3.961v-.998c0-.416.005-.806.016-1.17a4.42 4.42 0 0 0-.063-.95c-.052-.271-.145-.484-.28-.64-.135-.156-.359-.234-.67-.234h-4.99Zm-5.988 0c0 .54.198 1.008.593 1.403.395.395.863.593 1.403.593s1.009-.198 1.404-.593c.395-.395.592-.862.592-1.403 0-.561-.197-1.034-.592-1.419a1.944 1.944 0 0 0-1.404-.577c-.54 0-1.008.192-1.403.577a1.903 1.903 0 0 0-.593 1.419Zm6.986-3.493c0 .416.146.77.437 1.06.29.291.644.437 1.06.437.416 0 .77-.146 1.06-.437.292-.29.437-.644.437-1.06 0-.416-.145-.77-.437-1.06a1.443 1.443 0 0 0-1.06-.437c-.416 0-.77.146-1.06.437a1.444 1.444 0 0 0-.437 1.06ZM13.988 8v.998h-2.994V8h2.994Zm-8.982 4.99v-.998H8v.998H5.006Z"/></svg>