<svg xmlns="http://www.w3.org/2000/svg" fill="currentColor" viewBox="0 0 16 16"><path d="M.063 9.469c0-.084.01-.136.03-.156l.095-.376c.02-.02.03-.041.03-.062 0-.02.011-.042.032-.063.104-.229.177-.364.219-.406a1.08 1.08 0 0 1 .25-.344 2.74 2.74 0 0 1 .875-.687c.958-1.458 1.942-2.469 2.953-3.031 1.01-.563 2.15-.844 3.422-.844H8c.333 0 .62.02.86.063.239.041.484.171.734.39s.531.563.844 1.031c.312.47.718 1.141 1.218 2.016H12c.167 0 .292-.026.375-.078a.705.705 0 0 0 .203-.188c.052-.073.1-.135.14-.187a.192.192 0 0 1 .157-.078c.083 0 .167.031.25.093.167.125.25.204.25.235s.073.13.219.297c.02.02.052.031.094.031.083 0 .15-.073.203-.219.052-.146.13-.218.234-.218.042 0 .094.03.156.093.146.167.276.453.39.86.116.406.225.828.329 1.265V1h1v14h-1v-2.125l-1.406.063c-.125.062-.25.208-.375.437-.125.23-.266.463-.422.703-.156.24-.334.453-.531.64-.198.188-.454.282-.766.282a2.443 2.443 0 0 1-1.594-.563A2.476 2.476 0 0 1 9.031 13H5.937a2.331 2.331 0 0 1-.843 1.438A2.45 2.45 0 0 1 3.5 15a2.443 2.443 0 0 1-1.594-.563A2.475 2.475 0 0 1 1.031 13H0V9.734a.74.74 0 0 1 .063-.265ZM1 10v2h.031a2.475 2.475 0 0 1 .875-1.438A2.45 2.45 0 0 1 3.5 10c.604 0 1.135.188 1.594.563.458.374.74.854.843 1.437h3.094a1.55 1.55 0 0 1 .438-.781c.229-.23.5-.432.812-.61a7.77 7.77 0 0 1 .985-.468c.343-.136.661-.256.953-.36a2.21 2.21 0 0 1 .531-.094c.5 0 .823.245.969.735.146.49.219 1.015.219 1.578h.687l-.063-1.031c0-.104-.015-.235-.046-.39a40.68 40.68 0 0 1-.094-.485 6.614 6.614 0 0 0-.11-.485 24.613 24.613 0 0 1-.093-.359c-.042-.125-.073-.344-.094-.656-.02-.313-.125-.51-.313-.594-.02 0-.03-.005-.03-.016 0-.01-.011-.015-.032-.015-.063 0-.13.062-.203.187a4.78 4.78 0 0 0-.203.39 3.785 3.785 0 0 1-.188.36c-.062.104-.114.136-.156.094a1.27 1.27 0 0 1-.266-.36 4.362 4.362 0 0 0-.156-.312.736.736 0 0 0-.203-.234C12.292 8.03 12.167 8 12 8H3c-.563 0-1.036.198-1.422.594A1.948 1.948 0 0 0 1 10Zm2.063-3H10.5a27.672 27.672 0 0 0-.828-1.422c-.219-.344-.412-.594-.578-.75-.167-.156-.328-.25-.485-.281a2.634 2.634 0 0 0-.515-.047h-.125c-.459 0-.896.031-1.313.094a4.547 4.547 0 0 0-1.234.375 5.339 5.339 0 0 0-1.188.765A7.81 7.81 0 0 0 3.063 7Zm-1.344 5.5.062.344c0 .041.005.068.016.078.01.01.016.036.016.078.104.375.312.677.625.906.312.23.666.344 1.062.344s.74-.115 1.031-.344c.292-.229.51-.531.657-.906 0-.042.005-.068.015-.078.01-.01.016-.037.016-.078l.062-.344-.062-.344c0-.041-.005-.068-.016-.078-.01-.01-.016-.036-.016-.078a2.087 2.087 0 0 0-.656-.906A1.62 1.62 0 0 0 3.5 10.75c-.396 0-.75.115-1.063.344-.312.229-.52.531-.624.906 0 .042-.006.068-.016.078-.01.01-.016.037-.016.078l-.062.344Zm8.062.344c.084.416.287.755.61 1.015.322.26.692.391 1.109.391.417 0 .713-.14.89-.422.178-.281.308-.63.391-1.047l.438-.5-.063-.594a1.882 1.882 0 0 1-.047-.5c.01-.124.01-.218 0-.28-.01-.063-.052-.105-.125-.126a2.1 2.1 0 0 0-.453-.031c-.187 0-.422.031-.703.094a4.369 4.369 0 0 0-.812.265c-.26.115-.5.245-.72.391-.218.146-.369.313-.452.5a1.188 1.188 0 0 1-.047.188c-.01.02-.016.01-.016-.032l-.062.344.062.344Zm.563-10.656.406-.282 2.281 3.282-.406.28-2.281-3.28Zm2.875-1 .469-.063.624 3.938-.5.093-.593-3.968Z"/></svg>