<svg xmlns="http://www.w3.org/2000/svg" fill="currentColor" viewBox="0 0 16 16"><path d="M8.373 3.744c-.249-.229-.487-.229-.715 0L2.71 8.639a.983.983 0 0 1-.715.312.885.885 0 0 1-.685-.312.889.889 0 0 1-.31-.686c0-.27.104-.51.311-.717l6.005-5.955a.949.949 0 0 1 .7-.281c.28 0 .513.094.7.28l5.973 5.987a.987.987 0 0 1 .311.717.99.99 0 0 1-.311.718.949.949 0 0 1-.7.28.949.949 0 0 1-.7-.28L8.373 3.744Zm0 6.018c-.249-.229-.487-.229-.715 0L2.71 14.657a.982.982 0 0 1-.715.312.885.885 0 0 1-.685-.312.889.889 0 0 1-.311-.686c0-.27.104-.51.311-.717l6.005-5.956a.949.949 0 0 1 .7-.28c.28 0 .513.093.7.28l5.973 5.987a.987.987 0 0 1 .311.717c0 .27-.104.51-.311.717a.949.949 0 0 1-.7.281.949.949 0 0 1-.7-.28L8.373 9.761Z"/></svg>