<svg xmlns="http://www.w3.org/2000/svg" fill="currentColor" viewBox="0 0 16 16"><path d="M8.045 3.158a4.95 4.95 0 0 1 1.932.38 5.079 5.079 0 0 1 1.584 1.035c.453.437.81.948 1.072 1.531A4.58 4.58 0 0 1 13.025 8a4.41 4.41 0 0 1-.392 1.852 4.944 4.944 0 0 1-1.072 1.517 5.08 5.08 0 0 1-1.584 1.035 4.951 4.951 0 0 1-1.932.38 5.062 5.062 0 0 1-1.946-.38 4.857 4.857 0 0 1-1.585-1.035 5.074 5.074 0 0 1-1.056-1.517A4.41 4.41 0 0 1 3.065 8c0-.68.131-1.313.393-1.896a4.857 4.857 0 0 1 2.64-2.567 5.061 5.061 0 0 1 1.947-.379Zm0 8.809a4.197 4.197 0 0 0 2.913-1.152 4.12 4.12 0 0 0 .89-1.27A3.688 3.688 0 0 0 12.18 8c0-.564-.11-1.089-.332-1.575a4.305 4.305 0 0 0-.89-1.283 3.952 3.952 0 0 0-1.313-.86 4.212 4.212 0 0 0-1.6-.307c-.563 0-1.101.102-1.614.306a3.916 3.916 0 0 0-1.328.86c-.373.37-.67.798-.89 1.284A3.756 3.756 0 0 0 3.88 8c0 .544.111 1.06.332 1.546.222.486.518.909.89 1.269.373.36.816.641 1.329.845a4.327 4.327 0 0 0 1.614.307ZM6.023 9.254l1.056-.117c.06.35.262.632.604.846V8.38c-1.006-.33-1.509-.894-1.509-1.692 0-.408.14-.758.423-1.05.281-.291.643-.456 1.086-.495v-.555h.604v.555c.442.039.774.175.996.408.221.233.382.544.483.933L8.709 6.6c-.04-.33-.18-.544-.422-.642v1.546c.603.117 1.026.306 1.267.569.242.262.362.617.362 1.064 0 .467-.15.856-.452 1.167-.302.311-.694.496-1.177.554v.525h-.604v-.495a2.07 2.07 0 0 1-1.117-.482c-.301-.262-.482-.646-.543-1.152ZM.5 11.53c0-.7.272-1.293.815-1.779l.905-.846.151.117c-.422.486-.634 1.03-.634 1.633 0 .545.171.982.514 1.313l1.177 1.079.814-.788c.06 0 .091.02.091.059V15H1.496c-.04 0-.055-.005-.045-.015.01-.01.005-.043-.015-.102l.754-.729-.875-.846C.772 12.783.5 12.19.5 11.53Zm11.167-7.846V1h2.837l.06.117-.754.729.875.846c.543.525.815 1.118.815 1.779 0 .68-.272 1.273-.815 1.779l-.905.846-.151-.117c.422-.505.634-1.05.634-1.633 0-.545-.171-.982-.514-1.313l-1.177-1.079-.814.788c-.06 0-.091-.02-.091-.059Zm-3.38 6.33c.221-.04.362-.127.422-.263a.632.632 0 0 0 .212-.467.786.786 0 0 0-.151-.452c-.101-.146-.262-.248-.483-.306v1.487ZM7.683 7.27V5.929c-.181.097-.307.214-.377.35a.832.832 0 0 0-.106.38c0 .077.035.184.106.32.07.136.196.234.377.292Z"/></svg>