<svg xmlns="http://www.w3.org/2000/svg" fill="currentColor" viewBox="0 0 16 16"><path d="M15.821 7.571c.12.19.179.334.179.429 0 .095-.06.238-.179.429L13.214 11c-.143.143-.291.208-.446.196a.536.536 0 0 1-.375-.178.748.748 0 0 1-.179-.393c-.024-.155.036-.304.179-.446l1.643-1.608h-2.357a6.141 6.141 0 0 0-2.875.697 6.26 6.26 0 0 0-2.233 1.946 7.442 7.442 0 0 1-2.535 2.375c-1.024.584-2.179.887-3.465.911-.238 0-.392-.054-.464-.16A.726.726 0 0 1 0 13.928a.73.73 0 0 1 .107-.411c.072-.107.226-.16.464-.16 1.167-.049 2.15-.31 2.947-.787.797-.476 1.506-1.142 2.125-2C6.476 9.381 7.536 8.524 8.82 8c-1.285-.524-2.345-1.381-3.178-2.571a6.889 6.889 0 0 0-2.16-2.036c-.846-.5-1.804-.75-2.876-.75-.262 0-.428-.054-.5-.16A.726.726 0 0 1 0 2.07a.75.75 0 0 1 .107-.392C.18 1.559.333 1.5.571 1.5c1.215 0 2.352.298 3.411.893a7.453 7.453 0 0 1 2.59 2.393 6.098 6.098 0 0 0 2.232 1.928 6.62 6.62 0 0 0 2.875.715h2.357L12.393 5.82a.612.612 0 0 1-.16-.446.648.648 0 0 1 .16-.393.536.536 0 0 1 .375-.178c.155-.012.303.053.446.196l2.607 2.571Z"/></svg>