<svg xmlns="http://www.w3.org/2000/svg" fill="currentColor" viewBox="0 0 16 16"><path d="M.28 2.711a.949.949 0 0 1-.28-.7c0-.28.093-.513.28-.7A.986.986 0 0 1 .997 1c.27 0 .509.104.717.311l5.982 5.973c.187.187.28.42.28.7 0 .28-.093.514-.28.7L1.745 14.69a.986.986 0 0 1-.717.311.888.888 0 0 1-.685-.311.886.886 0 0 1-.312-.685.98.98 0 0 1 .312-.715l4.891-4.947c.25-.249.25-.487 0-.715L.28 2.71ZM15.003 13.01c.29 0 .53.093.717.28.187.187.28.425.28.715 0 .27-.093.503-.28.7a.944.944 0 0 1-.717.296h-6.98a.959.959 0 0 1-.7-.296.956.956 0 0 1-.296-.7c0-.29.099-.528.296-.715a.986.986 0 0 1 .7-.28h6.98Z"/></svg>