<svg xmlns="http://www.w3.org/2000/svg" fill="currentColor" viewBox="0 0 16 16"><path d="M1 7c0 .292.094.531.281.719A.973.973 0 0 0 2 8h2v1H2a1.907 1.907 0 0 1-1.422-.594A1.948 1.948 0 0 1 0 7V2C0 1.458.193.99.578.594.964.198 1.438 0 2 0h7c.542 0 1.01.198 1.406.594C10.802.99 11 1.458 11 2v2h-1V2a.947.947 0 0 0-.297-.719A.988.988 0 0 0 9 1H2a.973.973 0 0 0-.719.281A.973.973 0 0 0 1 2v5Zm13-2c.542 0 1.01.198 1.406.594.396.396.594.864.594 1.406v4c0 .563-.198 1.037-.594 1.422A1.948 1.948 0 0 1 14 13v2.375a.564.564 0 0 1-.203.453.684.684 0 0 1-.453.172.63.63 0 0 1-.406-.125L10.5 13.031 7 13c-.542 0-1.01-.193-1.406-.578A1.907 1.907 0 0 1 5 11V7c0-.542.198-1.01.594-1.406A1.922 1.922 0 0 1 7 5h7Zm1 2a.961.961 0 0 0-.297-.703A.961.961 0 0 0 14 6H7a.947.947 0 0 0-.719.297A.988.988 0 0 0 6 7v4c0 .292.094.531.281.719A.973.973 0 0 0 7 12l4 .031 2 2.469V12h1c.27 0 .505-.094.703-.281A.947.947 0 0 0 15 11V7Z"/></svg>