<svg xmlns="http://www.w3.org/2000/svg" fill="currentColor" viewBox="0 0 16 16"><path d="M4.258 9.048c0-.665.127-1.286.382-1.863a4.95 4.95 0 0 1 1.032-1.513A4.95 4.95 0 0 1 7.185 4.64a4.553 4.553 0 0 1 1.863-.382c.665 0 1.286.127 1.863.382a4.95 4.95 0 0 1 1.513 1.032 4.95 4.95 0 0 1 1.031 1.513c.255.577.383 1.198.383 1.863 0 .576-.094 1.114-.283 1.613-.188.5-.449.96-.782 1.38L15.8 15.07c.267.244.267.499 0 .765a.508.508 0 0 1-.366.166.509.509 0 0 1-.365-.166l-3.027-3.06a5.158 5.158 0 0 1-1.38.781 4.527 4.527 0 0 1-1.614.283 4.73 4.73 0 0 1-3.376-1.38 4.895 4.895 0 0 1-1.032-1.53 4.67 4.67 0 0 1-.382-1.88Zm4.79 3.725c.51 0 .992-.1 1.447-.299a3.84 3.84 0 0 0 1.18-.798c.333-.333.6-.727.799-1.181.2-.455.3-.937.3-1.447s-.1-.993-.3-1.447a3.827 3.827 0 0 0-.798-1.181 3.827 3.827 0 0 0-1.181-.798 3.56 3.56 0 0 0-1.447-.3c-.51 0-.993.1-1.447.3-.455.2-.848.465-1.181.798a3.826 3.826 0 0 0-.798 1.18c-.2.455-.3.938-.3 1.448s.1.992.3 1.447c.2.454.465.848.798 1.18.333.333.726.6 1.18.799.455.2.938.3 1.448.3ZM4.79 3.193a12.389 12.389 0 0 1 2.561.266c-.31.111-.61.233-.898.366a4.704 4.704 0 0 0-.798.466c-.133 0-.272-.005-.416-.017a5.857 5.857 0 0 0-.449-.016c-.798 0-1.48.06-2.046.183a11.09 11.09 0 0 0-1.314.349c.289.11.699.222 1.231.333.532.11 1.164.177 1.896.2a4.162 4.162 0 0 0-.399.531c-.11.178-.21.344-.3.5-.709-.067-1.64-.256-2.794-.566v1.064c.31.111.66.217 1.048.316.388.1.837.172 1.347.217a34.1 34.1 0 0 1-.133.515 3.852 3.852 0 0 0-.1.516c-.886-.111-1.607-.277-2.162-.5v1.065c.555.222 1.276.388 2.163.5.022.199.044.387.066.565.022.177.056.355.1.532a7.899 7.899 0 0 1-1.297-.216c-.377-.1-.721-.205-1.032-.316v1.064a5.9 5.9 0 0 0 1.181.366c.433.089.904.155 1.414.2h.166c.2.399.433.765.699 1.097-1.464-.022-2.617-.221-3.46-.598v1.064a5.9 5.9 0 0 0 1.181.366c.433.089.904.155 1.414.2h.033c.178.022.36.033.55.033h.98c.134 0 .278-.011.433-.033.31.221.61.399.898.532.288.133.554.244.798.332-.377.067-.776.122-1.197.167a13.08 13.08 0 0 1-1.364.066 13.94 13.94 0 0 1-1.863-.116 8.326 8.326 0 0 1-1.513-.333c-.433-.144-.776-.316-1.031-.515-.255-.2-.383-.41-.383-.632V4.79c0-.222.128-.427.383-.615.255-.189.598-.355 1.03-.5.433-.143.938-.26 1.514-.349a12.267 12.267 0 0 1 1.863-.133Zm.532-1.596c0-.222.128-.427.383-.616.255-.188.599-.355 1.031-.499A9.33 9.33 0 0 1 8.249.133 12.268 12.268 0 0 1 10.112 0c.666 0 1.287.044 1.863.133a9.29 9.29 0 0 1 1.514.35c.432.143.776.31 1.03.498.256.189.383.394.383.616V7.45a1.867 1.867 0 0 0-.15-.25 1.35 1.35 0 0 1-.15-.282c-.11-.177-.22-.366-.332-.566-.11-.2-.255-.42-.432-.665v-.965a5.72 5.72 0 0 1-.316.117c-.1.033-.205.072-.316.116a3.27 3.27 0 0 0-.5-.465l-.531-.4c.31-.044.61-.1.898-.166.288-.066.543-.155.765-.266V2.595a8.2 8.2 0 0 1-1.613.432c-.633.11-1.337.166-2.113.166h-.465c-.51-.354-1.16-.61-1.946-.765a14.33 14.33 0 0 0-2.379-.266v-.565Zm1.43 0c.311.133.75.255 1.315.366.565.11 1.247.166 2.045.166.799 0 1.48-.056 2.046-.166.566-.111 1.004-.233 1.314-.366-.31-.111-.748-.228-1.314-.35-.566-.122-1.247-.183-2.046-.183-.798 0-1.48.061-2.045.183-.566.122-1.004.239-1.314.35Zm.134 6.586c0-.665.288-.998.865-.998.598 0 .898.333.898.998 0 .31-.056.565-.167.765-.11.2-.343.3-.698.3-.266 0-.483-.078-.649-.233-.166-.156-.25-.433-.25-.832Zm2.894 1.73c0-.666.288-.998.865-.998.576 0 .864.332.864.998 0 .399-.083.676-.25.831a.868.868 0 0 1-.614.233c-.577 0-.865-.355-.865-1.064Zm.266-2.894h.532L8.349 11.11h-.565l2.262-4.091ZM7.75 8.849c.11 0 .177-.034.2-.1.043-.045.066-.233.066-.566 0-.4-.09-.599-.266-.599-.178 0-.267.2-.267.599 0 .288.028.471.084.549.055.077.116.116.183.116Zm2.894 1.696a.226.226 0 0 0 .166-.067c.022-.11.039-.21.05-.3.01-.088.016-.177.016-.265 0-.4-.077-.6-.232-.6-.2 0-.3.2-.3.6 0 .221.017.382.05.482.033.1.116.15.25.15Z"/></svg>