<svg xmlns="http://www.w3.org/2000/svg" fill="currentColor" viewBox="0 0 16 16"><path d="M12.998 10.002h1V14a.946.946 0 0 1-.297.719.987.987 0 0 1-.703.281H1a.973.973 0 0 1-.719-.281A.973.973 0 0 1 0 14V2.005c0-.271.094-.506.281-.703A.947.947 0 0 1 1 1.005h4v1H1V14h11.998v-3.998ZM14.872.786c.146.146.167.313.063.5l-5.78 8.497a.39.39 0 0 1-.313.219.42.42 0 0 1-.375-.125L4.562 5.535c-.188-.188-.188-.375 0-.563l.656-.656c.208-.208.406-.208.593 0l2.5 2.5a.4.4 0 0 0 .36.124c.135-.02.234-.104.296-.25L13.53.224a.38.38 0 0 1 .297-.219.4.4 0 0 1 .359.125l.687.656Z"/></svg>