<svg xmlns="http://www.w3.org/2000/svg" fill="currentColor" viewBox="0 0 16 16"><path d="m1.158 9 1.485-6h-.158c-.337 0-.505-.167-.505-.5 0-.333.168-.5.505-.5h3.54c0-.542.195-1.01.584-1.406A1.94 1.94 0 0 1 8.047 0C8.595 0 9.07.198 9.47.594c.4.396.6.864.6 1.406h3.54c.126 0 .242.047.347.14a.46.46 0 0 1 .158.36.46.46 0 0 1-.158.36.512.512 0 0 1-.348.14h-.22l1.485 6H15a2.326 2.326 0 0 1-.853 1.438 2.494 2.494 0 0 1-1.612.562 2.488 2.488 0 0 1-1.612-.563A2.326 2.326 0 0 1 10.07 9h.126l1.486-6H9.786c-.19.313-.432.552-.727.719V15h3.54c.126 0 .242.047.347.14a.46.46 0 0 1 .158.36.46.46 0 0 1-.158.36.512.512 0 0 1-.348.14H3.497c-.337 0-.506-.167-.506-.5 0-.333.169-.5.506-.5h3.54V3.719A1.491 1.491 0 0 1 6.276 3H4.319l1.517 6h.127a2.501 2.501 0 0 1-.87 1.438A2.426 2.426 0 0 1 3.498 11a2.488 2.488 0 0 1-1.612-.563A2.471 2.471 0 0 1 1 9h.158Zm.506 0h3.634L3.813 3h-.664L1.664 9Zm9.07 0h3.602l-1.485-6h-.632l-1.485 6ZM7.036 2c0 .292.095.531.285.719A.99.99 0 0 0 8.047 3c.274 0 .511-.094.711-.281.2-.188.3-.427.3-.719s-.1-.531-.3-.719A1.005 1.005 0 0 0 8.048 1a.99.99 0 0 0-.727.281.968.968 0 0 0-.285.719Z"/></svg>