<svg xmlns="http://www.w3.org/2000/svg" fill="currentColor" viewBox="0 0 16 16"><path d="M0 16v-1c0-.563.104-1.083.313-1.563a4.065 4.065 0 0 1 2.124-2.124c.48-.209 1-.313 1.563-.313h1a2.893 2.893 0 0 1-2.125-.875A2.893 2.893 0 0 1 2 8c0-.833.292-1.542.875-2.125A2.893 2.893 0 0 1 5 5c.833 0 1.542.292 2.125.875S8 7.167 8 8s-.292 1.542-.875 2.125A2.893 2.893 0 0 1 5 11h1a4.015 4.015 0 0 1 3.688 2.438c.208.479.312 1 .312 1.562v1H0Zm8.844-5.094c-.313-.25-.604-.416-.875-.5a4.063 4.063 0 0 1 1.328-1.015A3.818 3.818 0 0 1 11 9h.5c-.708 0-1.302-.245-1.781-.734A2.434 2.434 0 0 1 9 6.5c0-.688.24-1.276.719-1.766S10.792 4 11.5 4a2.41 2.41 0 0 1 1.766.734c.49.49.734 1.079.734 1.766a2.41 2.41 0 0 1-.734 1.766c-.49.49-1.079.734-1.766.734h.5a4.016 4.016 0 0 1 3.688 2.438c.208.479.312 1 .312 1.562v1h-5v-1h4c0-.417-.078-.807-.234-1.172a2.888 2.888 0 0 0-.657-.953 3.264 3.264 0 0 0-.953-.64A2.832 2.832 0 0 0 12 10h-1c-.875 0-1.594.302-2.156.906ZM1 15h8c0-.417-.078-.807-.234-1.172a2.888 2.888 0 0 0-.657-.953 3.263 3.263 0 0 0-.953-.64A2.832 2.832 0 0 0 6 12H4c-.833 0-1.542.292-2.125.875A2.893 2.893 0 0 0 1 15ZM5 1h10c.27 0 .505.094.703.281A.947.947 0 0 1 16 2v8.031a27.228 27.228 0 0 0-.484-.531A4.445 4.445 0 0 0 15 9.031V2H5v2H4V2c0-.292.094-.531.281-.719A.973.973 0 0 1 5 1Zm0 9a1.92 1.92 0 0 0 1.406-.594A1.92 1.92 0 0 0 7 8a1.92 1.92 0 0 0-.594-1.406A1.922 1.922 0 0 0 5 6c-.563 0-1.036.198-1.422.594A1.948 1.948 0 0 0 3 8c0 .542.193 1.01.578 1.406.386.396.86.594 1.422.594Zm6.5-2c.417 0 .77-.146 1.063-.438.291-.291.437-.645.437-1.062 0-.417-.146-.77-.438-1.063A1.447 1.447 0 0 0 11.5 5c-.417 0-.77.146-1.063.438A1.446 1.446 0 0 0 10 6.5c0 .417.146.77.438 1.063.291.291.645.437 1.062.437Z"/></svg>