<svg xmlns="http://www.w3.org/2000/svg" fill="currentColor" viewBox="0 0 16 16"><path d="M1.031 3.004H3V2.002c0-.334.094-.584.281-.751.188-.167.438-.251.75-.251H12c.667 0 1 .334 1 1.002v1.002h2c.667 0 1 .335 1 1.003 0 1.169-.11 2.119-.328 2.85-.219.73-.505 1.315-.86 1.754-.354.438-.74.762-1.156.97a6.213 6.213 0 0 1-1.234.47c-.406.105-.776.194-1.11.267-.333.073-.583.193-.75.36a36.977 36.977 0 0 0-.624 1.315c.229 0 .49.12.78.36.292.24.584.523.876.846.291.324.562.658.812 1.002.25.345.438.611.563.799H3c.146-.209.344-.48.594-.814.25-.334.515-.658.797-.971.28-.313.573-.59.875-.83.302-.24.578-.37.828-.392a41.874 41.874 0 0 0-.625-1.315c-.167-.167-.417-.287-.75-.36a32.243 32.243 0 0 1-1.11-.266 6.589 6.589 0 0 1-1.25-.47c-.427-.21-.817-.533-1.171-.971-.355-.439-.641-1.023-.86-1.754C.11 6.126 0 5.176 0 4.007c0-.334.094-.585.281-.752.188-.167.438-.25.75-.25ZM5.72 9.3c.208.188.437.532.687 1.033.25.501.49 1.055.719 1.66h1.781c.23-.605.469-1.159.719-1.66.25-.5.48-.845.688-1.033.187-.188.38-.366.578-.533.197-.167.375-.449.53-.845.157-.397.287-.971.392-1.723.104-.752.166-1.816.187-3.195V2.002H4v1.002c.02 1.379.089 2.443.203 3.195.115.752.25 1.326.406 1.723.157.396.334.678.532.845.198.167.39.345.578.533Zm-1.657-.595a45.59 45.59 0 0 1-.359-.674 4.353 4.353 0 0 1-.312-.83 8.75 8.75 0 0 1-.235-1.252 20.937 20.937 0 0 1-.125-1.974c-.541 0-1.01.006-1.406.016L1 4.007c0 1.065.099 1.895.297 2.49.198.595.443 1.038.734 1.33.292.293.62.491.985.596.364.104.713.198 1.046.282ZM15 4.007h-.625c-.188 0-.401-.006-.64-.016-.24-.01-.495-.016-.766-.016a21.2 21.2 0 0 1-.125 1.974c-.063.5-.136.918-.219 1.252a3.748 3.748 0 0 1-.297.83c-.114.22-.234.444-.36.674A26.05 26.05 0 0 0 13 8.423a2.39 2.39 0 0 0 .984-.595c.303-.293.547-.736.735-1.331.187-.595.281-1.425.281-2.49Zm-9.719 9.99h5.407a3.248 3.248 0 0 0-.235-.265 299.35 299.35 0 0 1-.234-.235 4.073 4.073 0 0 0-.547-.345A1.418 1.418 0 0 0 9 12.996H7c-.23 0-.448.052-.656.156a3.73 3.73 0 0 0-.563.345 2.842 2.842 0 0 0-.5.5Z"/></svg>