<svg xmlns="http://www.w3.org/2000/svg" fill="currentColor" viewBox="0 0 16 16"><path d="m1.158 7.781 1.58-6.437-.158-.063a.487.487 0 0 1-.316-.625c.105-.229.263-.343.474-.343.084 0 .137.01.158.03L6.12 1.376c.126-.396.363-.724.71-.984A1.924 1.924 0 0 1 8.017 0a1.94 1.94 0 0 1 1.438.594c.39.396.584.864.584 1.406 0 .208-.031.406-.094.594l3.54 1.125a.478.478 0 0 1 .284.25.47.47 0 0 1 .031.375c-.105.229-.253.343-.442.343l1.517 6.125H15a2.376 2.376 0 0 1-.853 1.422 2.445 2.445 0 0 1-1.612.579 2.446 2.446 0 0 1-1.612-.579 2.532 2.532 0 0 1-.885-1.421h.158l1.612-6.563-2.402-.781c-.105.083-.19.14-.253.172a.533.533 0 0 0-.126.078V15h3.54c.337 0 .505.167.505.5 0 .333-.168.5-.505.5H3.465a.512.512 0 0 1-.348-.14.46.46 0 0 1-.158-.36.46.46 0 0 1 .158-.36.512.512 0 0 1 .348-.14h3.54V3.719a2.545 2.545 0 0 1-.617-.547 1.53 1.53 0 0 1-.332-.766L4.35 1.844 5.804 7.78h.158a2.471 2.471 0 0 1-.885 1.438 2.489 2.489 0 0 1-1.612.562 2.488 2.488 0 0 1-1.612-.562A2.326 2.326 0 0 1 1 7.78h.158Zm4.14 0L3.781 1.688 3.212 1.5 1.664 7.781h3.634Zm5.404 3.032h3.634l-1.548-6.25-.474-.157-1.612 6.407ZM8.016 3a.99.99 0 0 0 .727-.281A.968.968 0 0 0 9.027 2a.968.968 0 0 0-.284-.719A.99.99 0 0 0 8.016 1c-.274 0-.511.094-.711.281-.2.188-.3.427-.3.719s.1.531.3.719c.2.187.437.281.71.281Z"/></svg>