<svg xmlns="http://www.w3.org/2000/svg" fill="currentColor" viewBox="0 0 16 16"><path d="m1.656 1 3.532 3.594.406-.407c.229-.27.5-.468.812-.593a2.59 2.59 0 0 1 .969-.188c.73 0 1.354.26 1.875.781l1.406 1.5v.032l.813.812c.52.48.781 1.068.781 1.766s-.26 1.286-.781 1.765l-.375.376L15 14.374l-.563.625-3.968-3.938.062-.062-.594.563c-.52.52-1.114.78-1.78.78-.667 0-1.25-.26-1.75-.78l-2.25-2.188c-.542-.542-.813-1.161-.813-1.86 0-.697.27-1.307.812-1.827l.375-.407L1 1.688 1.656 1Zm2.688 6.5c0 .438.166.823.5 1.156l.718.719L9.25 5.687l-.75-.812a1.534 1.534 0 0 0-1.125-.469c-.438 0-.781.146-1.031.438L4.875 6.406c-.354.292-.531.657-.531 1.094Zm1.968 2.563.782.78h.031l.031.032c.292.313.625.469 1 .469s.73-.167 1.063-.5l1.562-1.5c.313-.292.469-.636.469-1.031 0-.417-.146-.771-.438-1.063l-.874-.844-3.626 3.657Z"/></svg>