<svg xmlns="http://www.w3.org/2000/svg" fill="currentColor" viewBox="0 0 16 16"><path d="M0 12h1v-1H0v-1h1V6H0V5h1V4H0V3h1V1c0-.292.099-.531.297-.719A.988.988 0 0 1 2 0h12c.292 0 .531.094.719.281A.973.973 0 0 1 15 1c.292 0 .531.094.719.281A.973.973 0 0 1 16 2v2a.973.973 0 0 1-.281.719A.974.974 0 0 1 15 5v1c.292 0 .531.094.719.281A.973.973 0 0 1 16 7v2a.973.973 0 0 1-.281.719A.974.974 0 0 1 15 10v1c.292 0 .531.094.719.281A.974.974 0 0 1 16 12v2a.974.974 0 0 1-.281.719A.974.974 0 0 1 15 15a.974.974 0 0 1-.281.719A.974.974 0 0 1 14 16H2a.988.988 0 0 1-.703-.281A.947.947 0 0 1 1 15v-2H0v-1Zm3 0v1H2v2h12V1H2v2h1v1H2v1h1v1H2v4h1v1H2v1h1Zm9-9v2H5V3h7Z"/></svg>