<svg xmlns="http://www.w3.org/2000/svg" fill="currentColor" viewBox="0 0 16 16"><path d="m1 6 3-3h7c.27 0 .505.094.703.281A.947.947 0 0 1 12 4v11a.974.974 0 0 1-.281.719A.974.974 0 0 1 11 16H2.031a1.03 1.03 0 0 1-.734-.281A.947.947 0 0 1 1 15V6Zm10 9V4H5v2a.947.947 0 0 1-.297.719A1.027 1.027 0 0 1 3.97 7H2.03v8H11ZM4.969 2 7 0h7c.25 0 .48.094.688.281A.924.924 0 0 1 15 1v11a.974.974 0 0 1-.281.719A.974.974 0 0 1 14 13h-1v-1h1V1H8v1H4.969ZM4.5 10h4c.333 0 .5.167.5.5 0 .125-.047.24-.14.344A.462.462 0 0 1 8.5 11h-4a.478.478 0 0 1-.344-.156A.478.478 0 0 1 4 10.5c0-.146.052-.266.156-.36A.503.503 0 0 1 4.5 10ZM4 12.5c0-.146.052-.266.156-.36A.503.503 0 0 1 4.5 12h4c.333 0 .5.167.5.5 0 .125-.047.24-.14.344A.462.462 0 0 1 8.5 13h-4a.478.478 0 0 1-.344-.156A.478.478 0 0 1 4 12.5Z"/></svg>