<svg xmlns="http://www.w3.org/2000/svg" fill="currentColor" viewBox="0 0 16 16"><path d="M14.392 1.887c.166.042.306.13.42.265a.724.724 0 0 1 .172.484v10.728c0 .083-.01.167-.031.25l-.062.187a.3.3 0 0 1-.125.156c-.02.02-.073.031-.156.031a1.75 1.75 0 0 1-.405-.062.692.692 0 0 1-.219-.094V3.602a.724.724 0 0 0-.155-.452.717.717 0 0 0-.406-.265l-7.42-1.809c-.042 0-.068-.005-.078-.015-.01-.01-.037-.016-.078-.016a.99.99 0 0 0-.28.063l-2.745 1.06L11.4 4.07c.395.104.592.354.592.749v10.417a.71.71 0 0 1-.218.545.75.75 0 0 1-.53.203h-.125L1.64 13.583a.875.875 0 0 1-.437-.265.688.688 0 0 1-.187-.484V2.293c0-.354.156-.582.468-.686L5.537.078a.99.99 0 0 1 .28-.062c.063 0 .115.01.157.031l8.418 1.84ZM2.014 3.01v9.637l8.98 2.277V5.006L2.013 3.01Z"/></svg>