<svg xmlns="http://www.w3.org/2000/svg" fill="currentColor" viewBox="0 0 16 16"><path d="M1 15h5v1H1.031a1.03 1.03 0 0 1-.734-.281A.947.947 0 0 1 0 15V4l4-4h7c.292 0 .531.099.719.297A.988.988 0 0 1 12 1v2h-1V1H5v3a.947.947 0 0 1-.297.719A.988.988 0 0 1 4 5H1v10Zm14.406-8.5c.167.104.307.214.422.328A.573.573 0 0 1 16 7.25v6.125c0 .083-.01.167-.031.25a1.497 1.497 0 0 1-.078.188.403.403 0 0 1-.141.156c-.02.02-.073.031-.156.031-.104 0-.24-.02-.406-.063a.396.396 0 0 1-.188-.093V7.813a.574.574 0 0 0-.172-.422 1.607 1.607 0 0 0-.422-.297l-3.531-1.032a.555.555 0 0 0-.438.031L8.781 6.5l4.625 1.563c.167.104.307.213.422.328a.574.574 0 0 1 .172.421v6.094a.723.723 0 0 1-.219.531.723.723 0 0 1-.531.22h-.156l-5.5-2.063a.793.793 0 0 1-.422-.266.726.726 0 0 1-.172-.484V6.625c0-.313.156-.542.469-.688l2.812-.843c.125-.042.209-.063.25-.063a.21.21 0 0 1 .094.016c.02.01.042.016.063.016L15.405 6.5ZM8 7.344v5.312l5 1.938V9L8 7.344Z"/></svg>