<svg xmlns="http://www.w3.org/2000/svg" fill="currentColor" viewBox="0 0 16 16"><path d="M2.034 4.25c.084-.604.328-1.11.733-1.516A2.57 2.57 0 0 1 4.279 2h.499c.727.083 1.288.396 1.683.938.312.333.499.77.561 1.312v.5a2.581 2.581 0 0 1-.732 1.516A2.57 2.57 0 0 1 4.778 7h-.5c-.519-.063-.955-.25-1.308-.563-.52-.416-.832-.979-.936-1.687v-.5ZM.195 9.344a.422.422 0 0 1 .312-.125c.145 0 .28.062.405.187L2.284 11c.374.48.701.854.982 1.125.28.27.556.469.826.594.27.125.571.203.904.234.332.031.727.047 1.184.047h2.837c.624 0 1.174.073 1.652.219.478.146.92.349 1.325.61.405.26.785.572 1.138.937.353.364.717.776 1.091 1.234h-.935a.932.932 0 0 1-.686-.281c-.27-.25-.53-.485-.78-.703a3.936 3.936 0 0 0-1.668-.89A4.58 4.58 0 0 0 9.017 14H3.562l-1.59 2h-.748l1.901-2.313-2.961-3.624c-.229-.23-.218-.47.031-.72ZM9.017 7h2.993V4h.997v3H16v1h-2.993v3h-.997V8H9.017V7ZM3.063 4.75c.062.396.26.73.592 1 .187.125.395.198.624.219.02.02.104.031.25.031.145 0 .228-.01.249-.031.311-.042.582-.177.81-.407.229-.229.364-.5.405-.812.021-.02.032-.104.032-.25 0-.146-.01-.23-.032-.25a1.327 1.327 0 0 0-.218-.625 1.57 1.57 0 0 0-.997-.594C4.757 3.011 4.674 3 4.528 3c-.145 0-.228.01-.25.031a1.376 1.376 0 0 0-.81.406c-.228.23-.363.5-.405.813-.02.02-.031.104-.031.25 0 .146.01.23.031.25Zm-3.024 0v-.5H1.66v.5H.04Zm4.24-3.125V0h.499v1.625h-.5Zm3.242-.469.374.344-1.153 1.156a2.676 2.676 0 0 0-.343-.344L7.52 1.157Zm-5.985 0 1.153 1.157a.62.62 0 0 0-.203.156 2.9 2.9 0 0 1-.171.187L1.193 1.5l.343-.344Zm.779 5.219c.062.063.12.125.171.188a.62.62 0 0 0 .203.156L1.536 7.875l-.343-.344 1.122-1.156Zm4.427 0 1.153 1.156-.374.344-1.122-1.156c.124-.104.239-.219.343-.344Zm.654-2.125h1.621v.5h-1.62c.02-.02.03-.104.03-.25 0-.146-.01-.23-.03-.25ZM4.28 7.406h.499V9h-.5V7.406Z"/></svg>