<svg xmlns="http://www.w3.org/2000/svg" fill="currentColor" viewBox="0 0 16 16"><path d="M0 1C0 .708.099.469.297.281A.988.988 0 0 1 1 0h10c.292 0 .531.094.719.281A.973.973 0 0 1 12 1v6h-1V1H1v14h7v1H1a.961.961 0 0 1-.703-.297A.961.961 0 0 1 0 15V1Zm11 11V9h1v3h3v1h-3v3h-1v-3H8v-1h3ZM5 9.5c0-.146.052-.266.156-.36A.503.503 0 0 1 5.5 9h4c.333 0 .5.167.5.5 0 .125-.047.24-.14.344A.462.462 0 0 1 9.5 10h-4a.478.478 0 0 1-.344-.156A.478.478 0 0 1 5 9.5ZM5.5 6h4c.333 0 .5.167.5.5 0 .125-.047.24-.14.344A.462.462 0 0 1 9.5 7h-4a.478.478 0 0 1-.344-.156A.478.478 0 0 1 5 6.5c0-.146.052-.266.156-.36A.503.503 0 0 1 5.5 6Zm0-3h4c.333 0 .5.167.5.5 0 .125-.047.24-.14.344A.462.462 0 0 1 9.5 4h-4a.478.478 0 0 1-.344-.156A.478.478 0 0 1 5 3.5c0-.146.052-.266.156-.36A.503.503 0 0 1 5.5 3Zm-3 0h1c.333 0 .5.167.5.5 0 .125-.047.24-.14.344A.462.462 0 0 1 3.5 4h-1a.478.478 0 0 1-.344-.156A.478.478 0 0 1 2 3.5c0-.146.052-.266.156-.36A.503.503 0 0 1 2.5 3Zm0 3h1c.333 0 .5.167.5.5 0 .125-.047.24-.14.344A.462.462 0 0 1 3.5 7h-1a.478.478 0 0 1-.344-.156A.478.478 0 0 1 2 6.5c0-.146.052-.266.156-.36A.503.503 0 0 1 2.5 6ZM2 9.5c0-.146.052-.266.156-.36A.503.503 0 0 1 2.5 9h1c.333 0 .5.167.5.5 0 .125-.047.24-.14.344A.462.462 0 0 1 3.5 10h-1a.478.478 0 0 1-.344-.156A.478.478 0 0 1 2 9.5Z"/></svg>