<svg xmlns="http://www.w3.org/2000/svg" fill="currentColor" viewBox="0 0 16 16"><path d="M12 2c.563 0 1.083.104 1.563.313a4.065 4.065 0 0 1 2.124 2.124c.209.48.313 1 .313 1.563a4.015 4.015 0 0 1-2.438 3.688A3.88 3.88 0 0 1 12 10a3.876 3.876 0 0 1-1.563-.313A4.016 4.016 0 0 1 8 6a3.896 3.896 0 0 1 .313-1.561 4.065 4.065 0 0 1 2.126-2.125A3.82 3.82 0 0 1 12 2ZM0 4l4-4h7c.27 0 .505.094.703.281A.947.947 0 0 1 12 1H5v3a.947.947 0 0 1-.297.719A1.027 1.027 0 0 1 3.97 5H1v10h10v-4h1v4a.974.974 0 0 1-.281.719A.974.974 0 0 1 11 16H1a.973.973 0 0 1-.719-.281A.974.974 0 0 1 0 15V4Zm12 5c.833 0 1.542-.292 2.125-.875A2.893 2.893 0 0 0 15 6c0-.833-.292-1.542-.875-2.125A2.893 2.893 0 0 0 12 3c-.833 0-1.542.292-2.125.875A2.893 2.893 0 0 0 9 6c0 .833.292 1.542.875 2.125A2.893 2.893 0 0 0 12 9Zm-9.031 2.031v-1h2v-2h1v2h2v1h-2v2h-1v-2h-2ZM11.469 7V4.5c0-.333.166-.5.5-.5.333 0 .5.167.5.5V6H13.5c.333 0 .5.167.5.5 0 .333-.167.5-.5.5h-2.031Z"/></svg>