<svg xmlns="http://www.w3.org/2000/svg" fill="currentColor" viewBox="0 0 16 16"><path d="M0 12V4c0-.563.198-1.036.594-1.422A1.948 1.948 0 0 1 2 2h12c.542 0 1.01.193 1.406.578.396.386.594.86.594 1.422v8a1.92 1.92 0 0 1-.594 1.406A1.922 1.922 0 0 1 14 14H2a1.92 1.92 0 0 1-1.406-.594A1.922 1.922 0 0 1 0 12Zm1-8v8c0 .27.094.505.281.703A.947.947 0 0 0 2 13h12a.947.947 0 0 0 .719-.297A.988.988 0 0 0 15 12V4a.973.973 0 0 0-.281-.719A.974.974 0 0 0 14 3H2a.973.973 0 0 0-.719.281A.973.973 0 0 0 1 4Zm1 4.5c0-.333.167-.5.5-.5h11c.333 0 .5.167.5.5v1c0 .125-.047.24-.14.344a.462.462 0 0 1-.36.156h-11a.462.462 0 0 1-.36-.156A.503.503 0 0 1 2 9.5v-1Zm7.5-3.281c0-.354.115-.646.344-.875.229-.23.52-.344.875-.344.312 0 .573.104.781.313.208-.209.48-.313.813-.313.333 0 .614.115.843.344.23.229.344.52.344.875 0 .333-.115.614-.344.843-.229.23-.51.344-.844.344-.333 0-.604-.104-.812-.312a1.06 1.06 0 0 1-.781.312c-.354 0-.646-.114-.875-.343-.23-.23-.344-.51-.344-.844ZM2.5 11h5c.333 0 .5.167.5.5 0 .125-.047.24-.14.344A.462.462 0 0 1 7.5 12h-5a.462.462 0 0 1-.36-.156A.503.503 0 0 1 2 11.5c0-.333.167-.5.5-.5Zm0-7h2c.333 0 .5.167.5.5v1c0 .125-.047.24-.14.344A.462.462 0 0 1 4.5 6h-2a.462.462 0 0 1-.36-.156A.503.503 0 0 1 2 5.5v-1c0-.333.167-.5.5-.5Z"/></svg>