<svg xmlns="http://www.w3.org/2000/svg" fill="currentColor" viewBox="0 0 16 16"><path d="M2.016 14.986V3.01a.96.96 0 0 1 .296-.702.958.958 0 0 1 .701-.296h2.089c.207-.54.602-.863 1.184-.967.166-.29.405-.535.717-.733a1.883 1.883 0 0 1 2.026 0c.311.198.55.442.716.733.582.104.977.426 1.185.967h2.057c.29 0 .53.099.717.296.187.198.28.432.28.702v11.976a.97.97 0 0 1-.28.717.97.97 0 0 1-.717.281H3.013a.985.985 0 0 1-.7-.28.945.945 0 0 1-.297-.718ZM3.013 3.01v11.976h9.974V3.01h-2.088c-.083.27-.213.504-.39.702a.895.895 0 0 1-.701.296H6.224a.895.895 0 0 1-.702-.296 1.855 1.855 0 0 1-.39-.702H3.014Zm1.995 7.485a.46.46 0 0 1 .156-.359.501.501 0 0 1 .343-.14h4.955c.333 0 .499.166.499.499 0 .125-.047.24-.14.343a.46.46 0 0 1-.359.156H5.507a.476.476 0 0 1-.343-.156.477.477 0 0 1-.156-.343Zm0-3.992c0-.146.052-.265.156-.359a.501.501 0 0 1 .343-.14h4.955c.333 0 .499.166.499.499 0 .125-.047.24-.14.343a.46.46 0 0 1-.359.156H5.507a.476.476 0 0 1-.343-.156.477.477 0 0 1-.156-.343Zm0 1.996c0-.146.052-.265.156-.359A.501.501 0 0 1 5.507 8h4.955c.333 0 .499.166.499.499 0 .125-.047.24-.14.343a.46.46 0 0 1-.359.156H5.507a.476.476 0 0 1-.343-.156.477.477 0 0 1-.156-.343ZM6.504 3.01h2.992c.333 0 .499-.166.499-.499a.502.502 0 0 0-.14-.343.46.46 0 0 0-.359-.156h-.499a.986.986 0 0 0-.28-.702A.944.944 0 0 0 8 1.014a.958.958 0 0 0-.701.296.96.96 0 0 0-.296.702h-.499a.476.476 0 0 0-.343.156.477.477 0 0 0-.156.343c0 .146.052.265.156.359.104.093.218.14.343.14Zm-.374 9.138a.51.51 0 0 1 .374-.156c.125 0 .24.052.343.156l.997.686c.063.063.115.094.156.094.062 0 .125-.032.187-.094l.904-.624c.125-.124.239-.187.343-.187.124 0 .25.063.374.187.228.23.228.458 0 .686l-1.091.811a.97.97 0 0 1-.717.281.932.932 0 0 1-.686-.28l-1.184-.843c-.228-.25-.228-.488 0-.717Z"/></svg>