<svg xmlns="http://www.w3.org/2000/svg" fill="currentColor" viewBox="0 0 16 16"><path d="M12.041 0c.524 0 1.021.102 1.493.305.47.204.89.474 1.256.81.367.335.66.732.88 1.19.22.458.33.952.33 1.481 0 .51-.1 1.003-.299 1.481a3.67 3.67 0 0 1-.832 1.237 4.33 4.33 0 0 1-1.241.84c-.471.213-.98.32-1.524.32a3.724 3.724 0 0 1-1.492-.305 4.297 4.297 0 0 1-1.257-.825 4.003 4.003 0 0 1-.88-1.221 3.408 3.408 0 0 1-.33-1.466c0-.529.105-1.023.315-1.48a4.32 4.32 0 0 1 .832-1.222 3.73 3.73 0 0 1 1.241-.84A3.837 3.837 0 0 1 12.041 0ZM1.013 7.114c0-1.099.252-1.857.754-2.274.503-.418 1.257-.626 2.262-.626a1.96 1.96 0 0 1-1.413-.58c-.398-.387-.597-.845-.597-1.374 0-.55.199-1.013.597-1.39A1.99 1.99 0 0 1 4.029.305 1.99 1.99 0 0 1 5.443.87c.398.377.597.84.597 1.39 0 .529-.199.987-.597 1.374a1.96 1.96 0 0 1-1.414.58c1.006 0 1.76.208 2.263.626.502.417.754 1.175.754 2.274H1.013Zm-.88 3.97h2.608c.042 0 .084-.02.126-.061l1.037-2.779c.042-.06.084-.091.125-.091.084 0 .126.03.126.091l1.068 2.779c.042.04.084.06.126.06h2.576c.063 0 .11.031.142.093.031.06.015.101-.047.122l-2.043 1.435c-.083.02-.104.06-.062.122l1.13 2.962c.043.122.011.183-.094.183-.041 0-.073-.01-.094-.03l-2.733-1.894c-.063-.04-.115-.04-.157 0L1.202 15.97l-.063.03c-.105 0-.147-.061-.126-.183l1.131-2.962c.042-.04.032-.082-.031-.122L.07 11.298c-.063-.02-.084-.061-.063-.122.02-.062.063-.092.126-.092ZM10.22 4.916c.105.489.277.845.518 1.069.241.224.602.376 1.084.458v.55h.534v-.58c.23-.042.456-.103.676-.184a1.13 1.13 0 0 0 .518-.366c.252-.285.377-.642.377-1.07 0-.406-.11-.717-.33-.93-.22-.214-.633-.402-1.24-.565V1.924c.104.04.209.107.314.198a.585.585 0 0 1 .188.382l.911-.122c-.125-.754-.597-1.16-1.414-1.222V.794h-.534v.366c-.963.061-1.445.53-1.445 1.405 0 .773.482 1.292 1.445 1.557v1.466a1.994 1.994 0 0 1-.44-.306c-.104-.101-.178-.264-.22-.488l-.942.122Zm-.66 7.114h5.027c.335 0 .503.163.503.49a.484.484 0 0 1-.142.335.47.47 0 0 1-.36.153h-5.03a.487.487 0 0 1-.345-.153.461.461 0 0 1-.158-.336c0-.142.053-.26.158-.351a.514.514 0 0 1 .345-.137Zm-.503 2.443c0-.142.053-.26.158-.35a.514.514 0 0 1 .345-.138h5.027c.335 0 .503.163.503.488a.484.484 0 0 1-.142.336.47.47 0 0 1-.36.153h-5.03a.487.487 0 0 1-.345-.153.461.461 0 0 1-.158-.336Zm0-3.908c0-.143.053-.26.158-.351a.514.514 0 0 1 .345-.138h5.027c.335 0 .503.163.503.489a.484.484 0 0 1-.142.336.47.47 0 0 1-.36.152h-5.03a.487.487 0 0 1-.345-.152.46.46 0 0 1-.158-.336Zm3.3-4.916V4.275c.209.06.376.132.502.214.126.081.189.223.189.427 0 .427-.23.672-.692.733Zm-.943-3.512c.042-.06.178-.142.408-.244v1.222c-.356-.123-.534-.316-.534-.58 0-.184.042-.316.126-.398Z"/></svg>