<svg xmlns="http://www.w3.org/2000/svg" fill="currentColor" viewBox="0 0 16 16"><path d="m1.67 10.96.63 1.544-1.166 3.15c-.063.23-.242.346-.536.346-.378 0-.567-.189-.567-.567 0-.105.011-.168.032-.189l1.606-4.283Zm14.299.882c.02.021.031.085.031.19a.515.515 0 0 1-.158.377.554.554 0 0 1-.409.158c-.273 0-.451-.126-.535-.378l-.977-2.74.599-1.795 1.449 4.188ZM3.495 9.322l-.63-1.668 1.071-2.772 1.228 2.394-.567 1.48-.535-1.008-.567 1.575Zm5.795-.63.662 1.576-1.827 5.511-2.142-4.188.599-1.512 1.323 2.708L9.29 8.693Zm1.764-1.668-.693-1.575L11.97.535l1.228 3.434-.567 1.858L12 4.03l-.945 2.993ZM15.56 0c.294.105.441.294.441.567a.22.22 0 0 1-.016.094.14.14 0 0 0-.015.063L12.063 13.67l-4-9.291L4 15.308.031 5.353C.011 5.334 0 5.27 0 5.165c0-.378.2-.567.598-.567.231 0 .41.116.536.347l2.835 7.181L7.937 1.354l3.968 9.008L14.867.41c.105-.273.294-.409.567-.409h.126Z"/></svg>