<svg xmlns="http://www.w3.org/2000/svg" fill="currentColor" viewBox="0 0 16 16"><path d="M0 14V2c0-.292.094-.531.281-.719A.973.973 0 0 1 1 1h5.625c.146 0 .27.052.375.156l.594.688A.511.511 0 0 0 7.969 2H15c.292 0 .531.094.719.281A.973.973 0 0 1 16 3v11a.974.974 0 0 1-.281.719A.974.974 0 0 1 15 15H1a.973.973 0 0 1-.719-.281A.974.974 0 0 1 0 14Zm1-.531c0 .333.167.5.5.5h13c.333 0 .5-.167.5-.5V3.5c0-.333-.167-.5-.5-.5H7.406a.511.511 0 0 1-.375-.156l-.593-.688A.511.511 0 0 0 6.063 2H1.5c-.333 0-.5.167-.5.5v10.969Zm3.469-8.563 2.812-.843.235-.047c.052-.01.067-.016.046-.016.084 0 .136.01.157.031l3.687.907c.167.083.307.182.422.296a.574.574 0 0 1 .172.422v5.125c0 .146-.01.23-.031.25-.042.167-.104.281-.188.344-.02.02-.083.031-.187.031a.986.986 0 0 1-.156-.015 8.066 8.066 0 0 1-.25-.047L11 11.25v-5c0-.167-.02-.286-.063-.36-.041-.072-.145-.16-.312-.265L7.875 5h-.156c-.167 0-.26.01-.282.031l-1.656.438L9.406 6.5c.167.083.308.182.422.297a.574.574 0 0 1 .172.422v5.093a.71.71 0 0 1-.219.547.752.752 0 0 1-.531.204h-.156l-4.5-1.532c-.396-.083-.594-.323-.594-.719V5.595c0-.375.156-.604.469-.688ZM5 6.313v4.28L9 12V7.437L5 6.313Z"/></svg>