<svg xmlns="http://www.w3.org/2000/svg" fill="currentColor" viewBox="0 0 16 16"><path d="M16 12c0 .27-.094.505-.281.703A.947.947 0 0 1 15 13H1a.973.973 0 0 1-.719-.281A.974.974 0 0 1 0 12V3.906c.042-.25.151-.463.328-.64A.838.838 0 0 1 .938 3H15c.292 0 .531.094.719.281A.973.973 0 0 1 16 4v8ZM1 11c.292 0 .531.094.719.281A.974.974 0 0 1 2 12h12c0-.292.094-.531.281-.719A.974.974 0 0 1 15 11V5a.974.974 0 0 1-.719-.281A.973.973 0 0 1 14 4H2a.973.973 0 0 1-.281.719A.973.973 0 0 1 1 5v6Zm7-5.5a2.41 2.41 0 0 1 1.766.734c.49.49.734 1.079.734 1.766a2.41 2.41 0 0 1-.734 1.766c-.49.49-1.079.734-1.766.734a2.407 2.407 0 0 1-1.766-.734A2.407 2.407 0 0 1 5.5 8c0-.688.245-1.276.734-1.766A2.407 2.407 0 0 1 8 5.5Zm0 4c.417 0 .77-.146 1.063-.438.291-.291.437-.645.437-1.062 0-.417-.146-.77-.438-1.063A1.447 1.447 0 0 0 8 6.5c-.417 0-.77.146-1.063.438A1.447 1.447 0 0 0 6.5 8c0 .417.146.77.438 1.063.291.291.645.437 1.062.437ZM4 8a.973.973 0 0 1-.281.719A.973.973 0 0 1 3 9a.973.973 0 0 1-.719-.281A.973.973 0 0 1 2 8c0-.292.094-.531.281-.719A.973.973 0 0 1 3 7c.292 0 .531.094.719.281A.973.973 0 0 1 4 8Zm8 0c0-.292.094-.531.281-.719A.974.974 0 0 1 13 7c.292 0 .531.094.719.281A.973.973 0 0 1 14 8a.973.973 0 0 1-.281.719A.974.974 0 0 1 13 9a.974.974 0 0 1-.719-.281A.973.973 0 0 1 12 8Z"/></svg>