<svg xmlns="http://www.w3.org/2000/svg" fill="currentColor" viewBox="0 0 16 16"><path d="M1 15V4l4-4h9c.292 0 .531.099.719.297A.988.988 0 0 1 15 1v14a.974.974 0 0 1-.281.719.935.935 0 0 1-.688.281h-12a1.03 1.03 0 0 1-.734-.281A.947.947 0 0 1 1 15Zm1 0h12.031L14 1H6v3a.947.947 0 0 1-.297.719A.988.988 0 0 1 5 5H2v10Zm7-1H3c0-1.125.25-1.906.75-2.344C4.25 11.22 5 11 6 11a1.92 1.92 0 0 1-1.406-.594A1.922 1.922 0 0 1 4 9c0-.563.198-1.036.594-1.422A1.948 1.948 0 0 1 6 7c.542 0 1.01.193 1.406.578C7.802 7.964 8 8.438 8 9a1.92 1.92 0 0 1-.594 1.406A1.922 1.922 0 0 1 6 11c1 0 1.75.219 2.25.656.5.438.75 1.219.75 2.344Zm1.781-7.094c.042.209.104.365.188.469.104.167.219.26.344.281V6.22c-.48-.125-.818-.318-1.016-.578A1.48 1.48 0 0 1 10 4.719c0-.813.438-1.282 1.313-1.407V3h.5v.313c.729.124 1.156.52 1.28 1.187l-.874.125c-.063-.292-.198-.48-.406-.563v1.344c.5.167.864.354 1.093.563.23.208.344.52.344.937 0 .396-.135.745-.406 1.047a1.545 1.545 0 0 1-1.031.516v.656h-.5v-.656C10.52 8.406 10.03 7.917 9.842 7l.938-.094ZM10.47 11h2c.333 0 .5.167.5.5 0 .125-.047.24-.14.344a.462.462 0 0 1-.36.156h-2a.478.478 0 0 1-.344-.156.477.477 0 0 1-.156-.344c0-.146.052-.266.156-.36a.503.503 0 0 1 .344-.14Zm0 2h2c.333 0 .5.167.5.5 0 .125-.047.24-.14.344a.462.462 0 0 1-.36.156h-2a.478.478 0 0 1-.344-.156.477.477 0 0 1-.156-.344c0-.146.052-.266.156-.36a.503.503 0 0 1 .344-.14Zm1.344-5.281c.374-.104.562-.334.562-.688 0-.312-.188-.531-.563-.656v1.344Zm-.5-2.469V4.062a.545.545 0 0 0-.36.25.694.694 0 0 0-.11.344c0 .292.157.49.47.594Z"/></svg>