<svg xmlns="http://www.w3.org/2000/svg" fill="currentColor" viewBox="0 0 16 16"><path d="M0 11.976V9.98A4.008 4.008 0 0 1 2.435 6.3a3.875 3.875 0 0 1 1.561-.312h.999c-.833 0-1.54-.291-2.123-.873a2.886 2.886 0 0 1-.874-2.121c0-.832.291-1.539.874-2.12A2.892 2.892 0 0 1 4.995 0c.832 0 1.54.291 2.123.873.583.582.874 1.29.874 2.121a2.88 2.88 0 0 1-.874 2.12 2.892 2.892 0 0 1-2.123.874h.999c.541 0 1.056.11 1.545.327.49.219.921.505 1.296.858a2.49 2.49 0 0 0-.39.343c-.115.125-.224.25-.328.374-.562-.603-1.27-.904-2.123-.904H3.996c-.833 0-1.54.291-2.123.873A2.886 2.886 0 0 0 1 9.98v.998h6.025v.998H0Zm12.269-4.834c1.124 0 2.019.338 2.685 1.014.666.675.999 1.575.999 2.697 0 .437-.068.848-.203 1.232a3.307 3.307 0 0 1-.562 1.014c-.24.29-.52.525-.843.701a2.203 2.203 0 0 1-1.077.266c-.396 0-.656-.208-.78-.624-.417.416-.74.624-.968.624-.479 0-.874-.193-1.187-.577-.312-.385-.468-.93-.468-1.638a3.754 3.754 0 0 1 .593-1.995c.188-.292.406-.526.656-.702.25-.177.53-.266.843-.266.104 0 .244.052.421.156.177.104.38.312.609.624l.094-.624h.999l-.656 3.743c-.02.02-.031.093-.031.218 0 .104.083.156.25.156.374 0 .723-.234 1.045-.702a2.76 2.76 0 0 0 .484-1.606c0-.935-.265-1.663-.796-2.183-.53-.52-1.233-.78-2.107-.78-.937 0-1.728.338-2.373 1.014-.645.676-.967 1.575-.967 2.698s.312 2.001.936 2.635c.624.634 1.405.951 2.341.951.979 0 1.884-.322 2.716-.966h1.03c-.395.499-.91.914-1.545 1.247-.634.333-1.358.5-2.17.5a4.12 4.12 0 0 1-1.638-.328 3.728 3.728 0 0 1-1.296-.905 4.314 4.314 0 0 1-.843-1.388 4.82 4.82 0 0 1-.312-1.746c0-.686.104-1.3.312-1.84.208-.54.495-1.009.859-1.404a3.616 3.616 0 0 1 1.311-.904 4.298 4.298 0 0 1 1.639-.312ZM4.995 4.99c.541 0 1.01-.198 1.405-.593.395-.395.593-.862.593-1.403 0-.54-.198-1.008-.593-1.403A1.921 1.921 0 0 0 4.995.998c-.541 0-1.01.198-1.405.593a1.917 1.917 0 0 0-.593 1.403c0 .54.198 1.008.593 1.403.396.395.864.593 1.405.593Zm5.963 7.08c0 .831.24 1.247.718 1.247.083 0 .182-.078.296-.234.115-.156.224-.364.328-.624.104-.26.193-.556.265-.888a4.65 4.65 0 0 0 .11-.998c0-.562-.188-.842-.562-.842a.667.667 0 0 0-.5.233 1.838 1.838 0 0 0-.359.593 4.423 4.423 0 0 0-.296 1.513Z"/></svg>