<svg xmlns="http://www.w3.org/2000/svg" fill="currentColor" viewBox="0 0 16 16"><path d="M16 16H6v-1c0-.542.073-1.057.219-1.547.146-.49.375-.916.687-1.281.313-.365.724-.651 1.235-.86C8.65 11.104 9.27 11 10 11h1a2.893 2.893 0 0 1-2.125-.875A2.893 2.893 0 0 1 8 8c0-.833.292-1.542.875-2.125A2.893 2.893 0 0 1 11 5c.833 0 1.542.292 2.125.875S14 7.167 14 8s-.292 1.542-.875 2.125A2.893 2.893 0 0 1 11 11h1c.75 0 1.38.104 1.89.313.511.208.922.494 1.235.859.313.364.537.791.672 1.281.135.49.203 1.005.203 1.547v1ZM0 6.5c0-.896.172-1.74.516-2.531a6.603 6.603 0 0 1 1.39-2.063A6.603 6.603 0 0 1 3.97.516 6.286 6.286 0 0 1 6.5 0c1.188 0 2.25.266 3.188.797A6.33 6.33 0 0 1 11.967 3H10.75a6.033 6.033 0 0 0-1.86-1.453C8.173 1.182 7.376 1 6.5 1a5.24 5.24 0 0 0-2.125.438 5.655 5.655 0 0 0-1.75 1.187c-.5.5-.896 1.083-1.188 1.75A5.243 5.243 0 0 0 1 6.5c0 .625.099 1.224.297 1.797A5.384 5.384 0 0 0 3.39 11.03a5.52 5.52 0 0 0 1.609.75v1.031a6.308 6.308 0 0 1-1.984-.843 6.726 6.726 0 0 1-1.594-1.422A6.398 6.398 0 0 1 0 6.5ZM15 15c0-.833-.292-1.542-.875-2.125A2.893 2.893 0 0 0 12 12h-2c-.833 0-1.542.292-2.125.875A2.893 2.893 0 0 0 7 15h8Zm-4-5a1.92 1.92 0 0 0 1.406-.594A1.92 1.92 0 0 0 13 8a1.92 1.92 0 0 0-.594-1.406A1.922 1.922 0 0 0 11 6a1.92 1.92 0 0 0-1.406.594A1.922 1.922 0 0 0 9 8c0 .542.198 1.01.594 1.406A1.92 1.92 0 0 0 11 10ZM3.031 6.5c0-.146.052-.266.156-.36A.503.503 0 0 1 3.531 6H6V2.5c0-.146.052-.266.156-.36A.503.503 0 0 1 6.5 2c.333 0 .5.167.5.5V7H3.531a.503.503 0 0 1-.344-.14.462.462 0 0 1-.156-.36Z"/></svg>