<svg xmlns="http://www.w3.org/2000/svg" fill="currentColor" viewBox="0 0 16 16"><path d="M13 0c.292 0 .531.094.719.281A.973.973 0 0 1 14 1v14c0 .27-.094.505-.281.703A.947.947 0 0 1 13 16H3a.961.961 0 0 1-.703-.297A.961.961 0 0 1 2 15V1c0-.292.099-.531.297-.719A.988.988 0 0 1 3 0h10Zm0 1H3v14h10V1ZM6.75 14c-.23 0-.344-.104-.344-.313 0-.27.115-.661.344-1.171.23-.51.49-.933.781-1.266.188-.188.36-.297.516-.328a.453.453 0 0 1 .39.078.66.66 0 0 1 .22.313.77.77 0 0 1 .03.374c0 .063-.005.141-.015.235-.01.094-.016.193-.016.297a.513.513 0 0 1-.015.125.515.515 0 0 0-.016.125v.125l.094-.094a2.97 2.97 0 0 1 .547-.531 1.22 1.22 0 0 1 .765-.281c.146 0 .334.025.563.078a3.464 3.464 0 0 1 1.187.515c.146.104.219.198.219.281 0 .25-.115.376-.344.376a1.02 1.02 0 0 1-.36-.079 6.902 6.902 0 0 1-.437-.187 5.27 5.27 0 0 0-.453-.188 1.148 1.148 0 0 0-.375-.078c-.02 0-.083.057-.187.172-.104.115-.24.235-.406.36a5.523 5.523 0 0 1-.547.359 1.16 1.16 0 0 1-.579.172c-.124-.042-.197-.084-.218-.125l-.125-.094a2.726 2.726 0 0 1-.078-.328 1.919 1.919 0 0 1-.016-.266c0-.125.01-.255.031-.39a2.57 2.57 0 0 0 .032-.391l-.063.094c-.23.291-.39.562-.484.812a5.51 5.51 0 0 0-.204.64 1.98 1.98 0 0 1-.14.423c-.052.104-.151.156-.297.156ZM5.406 5.156 4.25 4.063l.563-.594.593.531 1.688-1.719.562.594-2.25 2.281Zm0 4L4.25 8l.563-.563.593.532L7.094 6.25l.562.594-2.25 2.312ZM11.5 3c.333 0 .5.167.5.5 0 .125-.047.24-.14.344A.462.462 0 0 1 11.5 4h-2a.478.478 0 0 1-.344-.156A.478.478 0 0 1 9 3.5c0-.146.052-.266.156-.36A.503.503 0 0 1 9.5 3h2Zm0 4c.333 0 .5.167.5.5 0 .125-.047.24-.14.344A.462.462 0 0 1 11.5 8h-2a.478.478 0 0 1-.344-.156A.478.478 0 0 1 9 7.5c0-.146.052-.266.156-.36A.503.503 0 0 1 9.5 7h2Z"/></svg>