<svg xmlns="http://www.w3.org/2000/svg" fill="currentColor" viewBox="0 0 16 16"><path d="M4.818 9.813c.743.437 1.21.859 1.4 1.265.191.406.287.87.287 1.39v1.188L2.24 11.594v-.969c0-.333.048-.625.143-.875.096-.25.334-.375.716-.375.106 0 .223.01.35.031.127.021.276.031.445.031a3.189 3.189 0 0 1-.668-.843 2.126 2.126 0 0 1-.254-1.031c0-.355.122-.652.366-.891.244-.24.503-.36.78-.36.487 0 .89.214 1.208.641.318.427.478.943.478 1.547 0 .833-.33 1.27-.987 1.313ZM15 3.436v9.126L7.968 16V6.844L1 3.437 8 0l7 3.438ZM8 2.25 11.5 4l1.146-.563-3.5-1.718L8 2.25Zm-2.895.313L9.75 4.874l1.177-.594L6.25 2l-1.145.563ZM8 5.719l1.145-.594L6.823 4l-1.146.563L8 5.718Zm5.218 5.875a28.23 28.23 0 0 1-.27-.563 2.609 2.609 0 0 1-.239-.969c.424-.416.753-.874.986-1.374.234-.5.35-.959.35-1.376 0-.812-.392-1.218-1.177-1.218-.445 0-.901.14-1.368.422a5.968 5.968 0 0 0-2.211 2.359c-.244.48-.366.917-.366 1.313 0 .416.111.729.334.937.223.208.514.313.875.313.17 0 .408-.037.716-.11.307-.073.556-.203.747-.39.297.416.579.687.844.812s.419.188.461.188c.127 0 .212-.037.255-.11a.458.458 0 0 0 .063-.234Z"/></svg>