<svg xmlns="http://www.w3.org/2000/svg" fill="currentColor" viewBox="0 0 16 16"><path d="M0 4V3h1V1c0-.292.099-.531.297-.719A.988.988 0 0 1 2 0h12c.292 0 .531.094.719.281A.973.973 0 0 1 15 1c.292 0 .531.094.719.281A.973.973 0 0 1 16 2v2c0 .27-.094.505-.281.703A.947.947 0 0 1 15 5v1c.292 0 .531.094.719.281A.973.973 0 0 1 16 7v2c0 .27-.094.505-.281.703A.947.947 0 0 1 15 10v1c.292 0 .531.094.719.281A.974.974 0 0 1 16 12v2c0 .27-.094.505-.281.703A.947.947 0 0 1 15 15c0 .27-.094.505-.281.703A.947.947 0 0 1 14 16H2a.961.961 0 0 1-.703-.297A.961.961 0 0 1 1 15v-2H0v-1h1v-1H0v-1h1V6H0V5h1V4H0Zm2 8h1v1H2v2h12V1H2v2h1v1H2v1h1v1H2v4h1v1H2v1Zm10 0H5v-1c0-1.125.224-1.906.672-2.344C6.12 8.22 6.896 8 8 8h.5a2.407 2.407 0 0 1-1.766-.734A2.407 2.407 0 0 1 6 5.5c0-.688.245-1.276.734-1.766A2.407 2.407 0 0 1 8.5 3a2.41 2.41 0 0 1 1.766.734c.49.49.734 1.079.734 1.766a2.41 2.41 0 0 1-.734 1.766C9.776 7.756 9.187 8 8.5 8H9c1.125 0 1.906.219 2.344.656C11.78 9.094 12 9.875 12 11v1Zm-6-1h5a5.37 5.37 0 0 0-.078-1.016c-.052-.26-.151-.463-.297-.609-.146-.146-.349-.245-.61-.297A5.356 5.356 0 0 0 9 9H8a5.37 5.37 0 0 0-1.016.078c-.26.052-.463.151-.609.297-.146.146-.245.349-.297.61A5.337 5.337 0 0 0 6 11Zm1-5.5c0 .417.146.77.438 1.063.291.291.645.437 1.062.437.417 0 .77-.146 1.063-.438.291-.291.437-.645.437-1.062 0-.417-.146-.77-.438-1.063A1.447 1.447 0 0 0 8.5 4c-.417 0-.77.146-1.063.438A1.447 1.447 0 0 0 7 5.5Z"/></svg>