<svg xmlns="http://www.w3.org/2000/svg" fill="currentColor" viewBox="0 0 16 16"><path d="M5.156 11H4.094c.166-.604.474-1.089.922-1.453C5.464 9.182 6.125 9 7 9h1a2.893 2.893 0 0 1-2.125-.875A2.893 2.893 0 0 1 5 6c0-.833.292-1.542.875-2.125A2.893 2.893 0 0 1 8 3c.833 0 1.542.292 2.125.875S11 5.167 11 6s-.292 1.542-.875 2.125A2.893 2.893 0 0 1 8 9h1c.896 0 1.568.172 2.016.516.447.343.734.838.859 1.484h-1.063a1.655 1.655 0 0 0-.593-.719C9.948 10.094 9.542 10 9 10H7c-.542 0-.953.094-1.234.281a1.622 1.622 0 0 0-.61.719ZM0 8c0-1.104.208-2.146.625-3.125a7.977 7.977 0 0 1 1.703-2.547A7.977 7.977 0 0 1 4.875.625 7.897 7.897 0 0 1 8 0c1.104 0 2.14.208 3.11.625a8.215 8.215 0 0 1 2.546 1.703 7.852 7.852 0 0 1 1.719 2.547c.417.98.625 2.02.625 3.125 0 1.604-.438 3.052-1.313 4.344a2.308 2.308 0 0 0-.656-.813c.292-.52.526-1.078.703-1.672A6.47 6.47 0 0 0 15 8c0-.98-.182-1.89-.547-2.734a7.075 7.075 0 0 0-1.5-2.22 7.074 7.074 0 0 0-2.219-1.5A6.82 6.82 0 0 0 8 1c-.958 0-1.865.182-2.719.547a7.026 7.026 0 0 0-2.234 1.5 7.074 7.074 0 0 0-1.5 2.219A6.819 6.819 0 0 0 1 8c0 1.333.323 2.51.969 3.531a2.137 2.137 0 0 0-.688.813C.427 11.052 0 9.604 0 8Zm5 8v-4h6v4H5ZM6 6c0 .542.193 1.01.578 1.406C6.964 7.802 7.438 8 8 8a1.92 1.92 0 0 0 1.406-.594A1.92 1.92 0 0 0 10 6a1.92 1.92 0 0 0-.594-1.406A1.922 1.922 0 0 0 8 4c-.563 0-1.036.198-1.422.594A1.948 1.948 0 0 0 6 6Zm6 9v-3h.5c.417 0 .77.146 1.063.438.291.291.437.645.437 1.062 0 .417-.146.77-.438 1.063A1.446 1.446 0 0 1 12.5 15H12ZM2 13.5c0-.417.146-.77.438-1.063A1.446 1.446 0 0 1 3.5 12H4v3h-.5c-.417 0-.77-.146-1.063-.438A1.447 1.447 0 0 1 2 13.5Z"/></svg>