<svg xmlns="http://www.w3.org/2000/svg" fill="currentColor" viewBox="0 0 16 16"><path d="M7.5 2.063V1.5c0-.333.167-.5.5-.5.125 0 .24.047.344.14a.462.462 0 0 1 .156.36v.563a2.38 2.38 0 0 1 1.422.843c.385.459.578.99.578 1.594 0 .604-.193 1.135-.578 1.594a2.38 2.38 0 0 1-1.422.843V14.5a.462.462 0 0 1-.156.36A.503.503 0 0 1 8 15c-.333 0-.5-.167-.5-.5V6.937a2.33 2.33 0 0 1-1.438-.843A2.443 2.443 0 0 1 5.5 4.5c0-.604.188-1.135.563-1.594A2.33 2.33 0 0 1 7.5 2.062Zm5.5 6V1.5c0-.333.167-.5.5-.5.125 0 .24.047.344.14A.462.462 0 0 1 14 1.5v6.563a2.38 2.38 0 0 1 1.422.843c.385.459.578.99.578 1.594 0 .604-.193 1.135-.578 1.594a2.38 2.38 0 0 1-1.422.844V14.5a.462.462 0 0 1-.156.36.503.503 0 0 1-.344.14c-.333 0-.5-.167-.5-.5v-1.563a2.33 2.33 0 0 1-1.438-.843A2.443 2.443 0 0 1 11 10.5c0-.604.188-1.135.563-1.594A2.33 2.33 0 0 1 13 8.062Zm-11-1V1.5c0-.333.167-.5.5-.5.125 0 .24.047.344.14A.462.462 0 0 1 3 1.5v5.563a2.38 2.38 0 0 1 1.422.843c.385.459.578.99.578 1.594 0 .604-.193 1.135-.578 1.594A2.38 2.38 0 0 1 3 11.938V14.5a.462.462 0 0 1-.156.36.503.503 0 0 1-.344.14c-.333 0-.5-.167-.5-.5v-2.563a2.33 2.33 0 0 1-1.437-.843A2.443 2.443 0 0 1 0 9.5c0-.604.188-1.135.563-1.594A2.33 2.33 0 0 1 2 7.063Zm5.5-1.157c.167.063.333.094.5.094.188 0 .354-.031.5-.094a1.52 1.52 0 0 0 .719-.531c.187-.25.281-.542.281-.875 0-.333-.094-.625-.281-.875a1.52 1.52 0 0 0-.719-.531A1.26 1.26 0 0 0 8 3c-.167 0-.333.031-.5.094a1.52 1.52 0 0 0-.719.531c-.187.25-.281.542-.281.875 0 .333.094.625.281.875.188.25.427.427.719.531ZM13 9.094a1.52 1.52 0 0 0-.719.531c-.187.25-.281.542-.281.875 0 .333.094.625.281.875.188.25.427.427.719.531.167.063.333.094.5.094.188 0 .354-.031.5-.094a1.52 1.52 0 0 0 .719-.531c.187-.25.281-.542.281-.875 0-.333-.094-.625-.281-.875A1.52 1.52 0 0 0 14 9.094 1.259 1.259 0 0 0 13.5 9c-.167 0-.333.031-.5.094ZM2 10.906c.167.063.333.094.5.094.188 0 .354-.031.5-.094a1.52 1.52 0 0 0 .719-.531c.187-.25.281-.542.281-.875 0-.333-.094-.625-.281-.875A1.52 1.52 0 0 0 3 8.094 1.26 1.26 0 0 0 2.5 8c-.167 0-.333.031-.5.094a1.52 1.52 0 0 0-.719.531C1.094 8.875 1 9.167 1 9.5c0 .333.094.625.281.875.188.25.427.427.719.531Z"/></svg>