<svg xmlns="http://www.w3.org/2000/svg" fill="currentColor" viewBox="0 0 16 16"><path d="M1.125 5.094 8 14.625l6.906-9.563L12.125 1H4.281L1.125 5.094ZM8 16a.478.478 0 0 1-.406-.219L.094 5.375A.603.603 0 0 1 0 5.062a.45.45 0 0 1 .094-.28L3.656.187A.473.473 0 0 1 4.031 0h8.344c.188 0 .323.073.406.219l3.125 4.562a.457.457 0 0 1 .094.282.603.603 0 0 1-.094.312l-7.5 10.406A.478.478 0 0 1 8 16Zm3.75-10.188c-.542.188-.953.422-1.234.704-.282.28-.506.692-.672 1.234-.063.167-.177.25-.344.25-.167 0-.281-.083-.344-.25-.166-.542-.39-.953-.672-1.234-.28-.282-.692-.516-1.234-.704C7.083 5.771 7 5.668 7 5.5s.083-.281.25-.344c.542-.187.953-.422 1.234-.703.282-.281.506-.693.672-1.234C9.22 3.073 9.333 3 9.5 3c.167 0 .281.073.344.219.166.541.39.953.672 1.234.28.281.692.516 1.234.703.167.063.25.177.25.344a.415.415 0 0 1-.047.188c-.031.062-.099.104-.203.125Z"/></svg>