<svg xmlns="http://www.w3.org/2000/svg" fill="currentColor" viewBox="0 0 16 16"><path d="M5.656 2.281a5.842 5.842 0 0 0-2.672 2.235A5.986 5.986 0 0 0 2 7.844c0 .854.161 1.656.484 2.406.323.75.76 1.401 1.313 1.953.552.552 1.203.99 1.953 1.313A6.02 6.02 0 0 0 8.156 14a5.986 5.986 0 0 0 3.328-.984 5.842 5.842 0 0 0 2.235-2.672 5.754 5.754 0 0 1-1.063.094c-.979 0-1.9-.188-2.765-.563a7.195 7.195 0 0 1-2.25-1.516 7.195 7.195 0 0 1-1.516-2.25 6.875 6.875 0 0 1-.563-2.765c0-.375.032-.73.094-1.063ZM8.156 15c-1 0-1.932-.188-2.797-.563a7.25 7.25 0 0 1-2.265-1.53 7.251 7.251 0 0 1-1.531-2.266A6.952 6.952 0 0 1 1 7.844a7.08 7.08 0 0 1 1.422-4.297 6.953 6.953 0 0 1 1.594-1.531 6.699 6.699 0 0 1 2.046-.954A.87.87 0 0 1 6.25 1h.094a.45.45 0 0 1 .328.14.45.45 0 0 1 .14.329c0 .104-.03.25-.093.437a6.186 6.186 0 0 0-.157 1.375c0 .875.162 1.688.485 2.438.323.75.76 1.4 1.312 1.953a5.985 5.985 0 0 0 1.954 1.297c.75.312 1.552.469 2.406.469.458 0 .916-.053 1.375-.157a1.5 1.5 0 0 1 .437-.094.45.45 0 0 1 .328.141.488.488 0 0 1 .141.36v.062c0 .02-.02.083-.063.188a6.698 6.698 0 0 1-.953 2.046 6.952 6.952 0 0 1-1.53 1.594A7.087 7.087 0 0 1 8.155 15Z"/></svg>