<svg xmlns="http://www.w3.org/2000/svg" fill="currentColor" viewBox="0 0 16 16"><path d="M11 6c.688 0 1.333.13 1.938.39a5.07 5.07 0 0 1 2.671 2.673c.26.604.391 1.25.391 1.937 0 .688-.13 1.333-.39 1.938a5.068 5.068 0 0 1-2.672 2.671c-.605.26-1.25.391-1.938.391s-1.333-.13-1.938-.39a5.069 5.069 0 0 1-2.671-2.672A4.842 4.842 0 0 1 6 11c0-.688.13-1.333.39-1.938a5.07 5.07 0 0 1 2.673-2.671A4.828 4.828 0 0 1 11 6ZM1 1h2V0h1v1h6V0h1v1h2c.292 0 .531.094.719.281A.973.973 0 0 1 14 2v3h-1V4H1v11h4v1H1a.973.973 0 0 1-.719-.281A.974.974 0 0 1 0 15V2c0-.292.094-.531.281-.719A.973.973 0 0 1 1 1Zm6 10c0 .563.104 1.083.313 1.563a4.065 4.065 0 0 0 2.125 2.124c.479.209 1 .313 1.562.313.563 0 1.083-.104 1.563-.313a4.064 4.064 0 0 0 2.124-2.124c.209-.48.313-1 .313-1.563s-.104-1.083-.313-1.563a4.064 4.064 0 0 0-2.124-2.124C12.082 7.104 11.563 7 11 7s-1.083.104-1.563.313a4.065 4.065 0 0 0-2.124 2.125A3.86 3.86 0 0 0 7 11Zm3.969-2c.333 0 .5.167.5.5V11H13c.333 0 .5.167.5.5 0 .125-.047.24-.14.344A.462.462 0 0 1 13 12h-2.031a.462.462 0 0 1-.36-.156.503.503 0 0 1-.14-.344v-2c0-.333.166-.5.5-.5ZM11 3V2h-1v1h1ZM3 2v1h1V2H3Z"/></svg>