<svg xmlns="http://www.w3.org/2000/svg" fill="currentColor" viewBox="0 0 16 16"><path d="M4.87 3.42.747 7.091 0 6.421 4.38 2.59l.49.83Zm-.593 8.093a13.03 13.03 0 0 1-.773-.884c-.258-.322-.49-.648-.696-.979a4.88 4.88 0 0 1-.476-.978 1.785 1.785 0 0 1-.09-.91c.051-.376.227-.747.528-1.113.3-.366.644-.692 1.03-.978a5.54 5.54 0 0 1 1.16-.67c.386-.16.7-.223.94-.187.069 0 .172.026.31.08l.412.16c.137.054.257.104.36.148a.686.686 0 0 0 .206.067l-.901.268c-.206.054-.387.072-.541.054-.292-.054-.589.027-.89.24a5.962 5.962 0 0 0-1.262 1.22l-.45.576c-.035.268-.005.554.09.858.094.303.223.603.386.897.163.295.356.581.58.858.223.277.446.531.67.764l1.906 2.09c.103.16.24.241.412.241a.42.42 0 0 0 .361-.054.398.398 0 0 0 .18-.268.396.396 0 0 0-.051-.214l-1.443-1.742.464-.402c.258.322.507.608.747.858.189.25.374.473.554.67.18.196.296.312.348.348.051.071.111.107.18.107a.418.418 0 0 0 .387-.094.538.538 0 0 0 .206-.361.472.472 0 0 0-.052-.295l-1.443-1.742.387-.375 1.443 1.715c.051.054.094.08.129.08.12.036.236.018.347-.053a.504.504 0 0 0 .22-.322.822.822 0 0 0-.104-.402L8.116 8.27l-.773.134c-.481.09-.859.108-1.134.054-.274-.036-.506-.183-.695-.442-.19-.26-.258-.567-.206-.925.068-.357.283-.62.644-.79.36-.17.704-.282 1.03-.335.567-.09 1.035-.228 1.404-.415.37-.188.705-.371 1.005-.55.3-.178.589-.326.863-.442.275-.116.61-.147 1.005-.094a2.31 2.31 0 0 1 1.07.47c.3.24.54.522.72.843.181.322.306.67.375 1.045.068.376.077.733.025 1.072-.051.34-.167.652-.348.938a4.083 4.083 0 0 1-1.262 1.273 2.29 2.29 0 0 1-.502.255l-.361-.831c.412-.25.773-.545 1.082-.884.31-.34.498-.715.567-1.126.051-.34.026-.643-.078-.911a2.172 2.172 0 0 0-.425-.697 2.118 2.118 0 0 0-.58-.455 2.366 2.366 0 0 0-.54-.215 1.187 1.187 0 0 0-.683.094c-.215.098-.468.228-.76.389-.292.16-.649.34-1.07.536-.42.196-.966.375-1.636.536a5.38 5.38 0 0 0-.476.12.38.38 0 0 0-.27.308c-.035.197-.005.317.09.362l.193.094.335.027 2.035-.322v.67c.155.197.356.42.606.67.249.25.49.522.721.817.232.295.42.599.567.911.146.313.193.621.142.925-.052.303-.202.62-.451.951-.25.33-.554.63-.915.898-.36.268-.752.473-1.172.616-.421.143-.82.188-1.198.134-.275-.053-.572-.205-.89-.455a7.855 7.855 0 0 1-.888-.818 12.53 12.53 0 0 1-.696-.804c-.189-.24-.292-.37-.309-.388ZM16 5.805l-.825.75-3.58-3.778.72-.777L16 5.805Z"/></svg>