<svg xmlns="http://www.w3.org/2000/svg" fill="currentColor" viewBox="0 0 16 16"><path d="M1.187 12.117 3.775 9.3a.568.568 0 0 1 .25-.187.925.925 0 0 1 .467-.126c.208 0 .385.063.53.188a.234.234 0 0 0 .063.047c.02.01.052.037.093.078l2.65 2.818c.23.23.23.47 0 .72a.476.476 0 0 1-.342.157c-.084 0-.208-.052-.375-.156L5.022 10.49v5.01a.464.464 0 0 1-.156.36.5.5 0 0 1-.343.141c-.332 0-.498-.167-.498-.501v-5.01l-2.12 2.349a.476.476 0 0 1-.344.156c-.083 0-.208-.052-.374-.156-.25-.25-.25-.491 0-.72Zm.031-8.955a.51.51 0 0 1 .374-.156c.125 0 .24.052.343.156l2.09 2.317V.501c0-.334.166-.501.498-.501a.5.5 0 0 1 .343.14.464.464 0 0 1 .156.361v4.978l2.09-2.348a.51.51 0 0 1 .374-.156c.124 0 .239.052.343.156.228.25.228.49 0 .72L5.178 6.67a.445.445 0 0 1-.094.079.244.244 0 0 0-.063.047.785.785 0 0 1-.53.187.924.924 0 0 1-.468-.125.568.568 0 0 1-.249-.188L1.218 3.883c-.228-.23-.228-.47 0-.72Zm7.827 11.335c0-.334.166-.5.498-.5h4.99c.124 0 .233.046.327.14a.49.49 0 0 1 .14.36.489.489 0 0 1-.14.36.448.448 0 0 1-.328.141H9.543c-.332 0-.498-.167-.498-.5Zm.498-6.513h4.99c.124 0 .233.047.327.141a.49.49 0 0 1 .14.36.489.489 0 0 1-.14.36.448.448 0 0 1-.328.141H9.543c-.332 0-.498-.167-.498-.5 0-.335.166-.502.498-.502Zm0-6.011h4.99c.124 0 .233.047.327.14a.49.49 0 0 1 .14.36.489.489 0 0 1-.14.36.448.448 0 0 1-.328.142H9.543c-.332 0-.498-.167-.498-.501 0-.334.166-.501.498-.501Zm-.498 3.506c0-.334.166-.5.498-.5h4.99c.124 0 .233.046.327.14a.49.49 0 0 1 .14.36.489.489 0 0 1-.14.36.448.448 0 0 1-.328.141H9.543c-.332 0-.498-.167-.498-.5Zm.498 5.511h4.99c.124 0 .233.047.327.141a.49.49 0 0 1 .14.36.49.49 0 0 1-.14.36.448.448 0 0 1-.328.141H9.543c-.332 0-.498-.167-.498-.5 0-.335.166-.502.498-.502Z"/></svg>