<svg xmlns="http://www.w3.org/2000/svg" fill="currentColor" viewBox="0 0 16 16"><path d="M14.984 3.01v1.03h-.998l-.997 10.946c0 .665-.333.998-.998.998H4.009c-.665 0-.997-.333-.997-.998L2.014 4.039h-.998V3.01h13.968ZM4.01 14.986h7.982l.998-10.947H3.012l.997 10.947ZM1.016 2.012v-.998h4.521l.031-.156a.81.81 0 0 1 .187-.343 1.46 1.46 0 0 1 .452-.343c.198-.104.463-.156.795-.156H9.03c.312 0 .618.078.92.234.301.156.483.41.545.764h4.49v.998H1.016ZM7.44 12.99V5.973H8.5v7.017H7.44Zm2.214-.062.623-6.986 1.03.093-.624 6.986-1.03-.093ZM4.695 6.035l.967-.093.623 6.986-.966.093-.624-6.986Z"/></svg>