<svg xmlns="http://www.w3.org/2000/svg" fill="currentColor" viewBox="0 0 16 16"><path d="M1 10h9v1H1a.961.961 0 0 1-.703-.297A.961.961 0 0 1 0 10V2c0-.292.099-.531.297-.719A.988.988 0 0 1 1 1h11c.292 0 .531.094.719.281A.973.973 0 0 1 13 2v4h-1V2H1v8Zm7.5 2c.333 0 .5.167.5.5 0 .125-.047.24-.14.344A.462.462 0 0 1 8.5 13h-4a.478.478 0 0 1-.344-.156A.478.478 0 0 1 4 12.5c0-.146.052-.266.156-.36A.503.503 0 0 1 4.5 12h4ZM15 7c.27 0 .505.094.703.281A.947.947 0 0 1 16 8v6a.947.947 0 0 1-.297.719A.988.988 0 0 1 15 15h-3a.974.974 0 0 1-.719-.281A.974.974 0 0 1 11 14V8c0-.292.094-.531.281-.719A.974.974 0 0 1 12 7h3Zm0 1h-3v6h3V8Z"/></svg>