<svg xmlns="http://www.w3.org/2000/svg" fill="currentColor" viewBox="0 0 16 16"><path d="M2 3c-.25 0-.48-.094-.688-.281A.924.924 0 0 1 1 2c0-.292.104-.531.313-.719C1.52 1.094 1.75 1 2 1h11.969c.25 0 .479.094.687.281A.924.924 0 0 1 14.97 2a.924.924 0 0 1-.313.719A1.006 1.006 0 0 1 13.97 3H2Zm12.5 2c.125 0 .24.047.344.14A.462.462 0 0 1 15 5.5a.462.462 0 0 1-.156.36.503.503 0 0 1-.344.14h-5c-.333 0-.5-.167-.5-.5 0-.333.167-.5.5-.5h5Zm0 3c.125 0 .24.047.344.14A.462.462 0 0 1 15 8.5a.462.462 0 0 1-.156.36.503.503 0 0 1-.344.14h-5c-.333 0-.5-.167-.5-.5 0-.333.167-.5.5-.5h5Zm0 3c.125 0 .24.047.344.14a.462.462 0 0 1 .156.36.462.462 0 0 1-.156.36.503.503 0 0 1-.344.14h-5c-.333 0-.5-.167-.5-.5 0-.333.167-.5.5-.5h5Zm0 3c.125 0 .24.047.344.14a.462.462 0 0 1 .156.36.462.462 0 0 1-.156.36.503.503 0 0 1-.344.14h-5c-.333 0-.5-.167-.5-.5 0-.333.167-.5.5-.5h5Z"/></svg>