<svg xmlns="http://www.w3.org/2000/svg" fill="currentColor" viewBox="0 0 16 16"><path d="M0 7c0-.292.094-.531.281-.719A.973.973 0 0 1 1 6h.875c.042-.167.099-.323.172-.469.073-.146.14-.291.203-.437l-.625-.625a1.043 1.043 0 0 1-.281-.719c0-.27.093-.5.281-.688l1.438-1.437a.935.935 0 0 1 .687-.281c.292 0 .531.093.719.281l.625.625c.146-.063.291-.13.437-.203.146-.073.302-.13.469-.172V1c0-.292.094-.531.281-.719A.973.973 0 0 1 7 0h2c.292 0 .531.094.719.281A.973.973 0 0 1 10 1v.875c.167.042.323.099.469.172.146.073.291.14.437.203l.625-.625a.974.974 0 0 1 .719-.281c.27 0 .5.093.688.281l1.437 1.438a.935.935 0 0 1 .281.687c0 .27-.094.51-.281.719l-.625.625.344.843H13.03a.721.721 0 0 1-.094-.203.72.72 0 0 0-.093-.203l-.344-.625 1.156-1.156-1.406-1.406-1.156 1.125-.656-.313a3.134 3.134 0 0 0-.313-.125 3.42 3.42 0 0 0-.172-.078 12.11 12.11 0 0 0-.265-.11L9 2.594V1H7v1.594l-.688.25a9.185 9.185 0 0 0-.39.14 4.33 4.33 0 0 0-.39.172l-.626.313L3.75 2.344 2.344 3.75l1.125 1.156-.313.625c-.062.125-.12.255-.172.39a9.185 9.185 0 0 0-.14.391L2.594 7H1v2h1.594l.25.688a7.628 7.628 0 0 0 .187.437 3.134 3.134 0 0 0 .125.313l.313.656-1.125 1.156.937.938-.625.78-1.031-1.03a.954.954 0 0 1-.281-.704c0-.28.093-.515.281-.703l.625-.625a8.179 8.179 0 0 0-.203-.437A2.282 2.282 0 0 1 1.875 10H1a.947.947 0 0 1-.719-.297A.988.988 0 0 1 0 9V7Zm12.531 7.5 2-2.531-2-2.5a.465.465 0 0 1-.125-.344c0-.375.188-.563.563-.563.166 0 .323.073.469.22L16 11.968l-2.563 3.219c-.145.145-.302.218-.468.218a.464.464 0 0 1-.344-.125c-.146-.083-.219-.229-.219-.437 0-.146.042-.26.125-.344ZM6.812 8.781c.084-.146.23-.219.438-.219.146 0 .26.042.344.126a.592.592 0 0 1 .125.78l-2 2.5 2 2.532.047.234a.7.7 0 0 1 .015.11.74.74 0 0 1-.11.375c-.072.125-.213.187-.421.187-.146 0-.292-.073-.438-.219L4.25 11.97l2.563-3.19Zm1.625 6.438 2.282-6.813c.104-.291.291-.437.562-.437a.46.46 0 0 1 .39.187c.095.125.142.25.142.375s-.01.198-.032.219l-2.25 6.844c-.083.27-.27.406-.562.406a.504.504 0 0 1-.406-.188.622.622 0 0 1-.157-.406c0-.104.01-.166.031-.187ZM5.158 7c.25-.667.64-1.167 1.171-1.5.531-.333 1.14-.5 1.828-.5a3.098 3.098 0 0 1 1.625.578c.48.344.823.818 1.031 1.422H9.72a2.06 2.06 0 0 0-1.188-.938 4.98 4.98 0 0 0-.265-.046A1.918 1.918 0 0 0 8 6c-.5 0-.958.177-1.375.531L6.25 7l-.125.313a1.656 1.656 0 0 0-.094.343l-.906 1.125C5.042 8.635 5 8.427 5 8.156c0-.166.016-.344.047-.531.031-.188.068-.396.11-.625Z"/></svg>