<svg xmlns="http://www.w3.org/2000/svg" fill="currentColor" viewBox="0 0 16 16"><path d="M7 8c0-.354.094-.688.281-1A1.98 1.98 0 0 1 8 6.281 1.809 1.809 0 0 1 9 6h5c.542 0 1.01.198 1.406.594.396.396.594.864.594 1.406v3c0 .563-.198 1.037-.594 1.422A1.948 1.948 0 0 1 14 13v2.375a.564.564 0 0 1-.203.453.684.684 0 0 1-.453.172c-.188 0-.323-.042-.406-.125L10.5 13.031 9 13c-.542 0-1.01-.193-1.406-.578A1.907 1.907 0 0 1 7 11V8Zm1 3c0 .292.094.531.281.719A.973.973 0 0 0 9 12l2 .031 2 2.469V12h1c.27 0 .505-.094.703-.281A.947.947 0 0 0 15 11V8a.961.961 0 0 0-.297-.703A.961.961 0 0 0 14 7H9a.947.947 0 0 0-.719.297A.988.988 0 0 0 8 8v3ZM2 0h5c.542 0 1.01.198 1.406.594C8.802.99 9 1.458 9 2v3c-.167 0-.333.02-.5.063l-.5.125V2a.961.961 0 0 0-.297-.703A.961.961 0 0 0 7 1H2a.947.947 0 0 0-.719.297A.988.988 0 0 0 1 2v3c0 .292.094.531.281.719A.973.973 0 0 0 2 6h1v2.5l2-2.469L6.781 6a2.41 2.41 0 0 0-.593 1.031H5.5L3.062 9.875c-.083.083-.218.125-.406.125a.684.684 0 0 1-.453-.172A.564.564 0 0 1 2 9.375V7C1.458 7 .99 6.807.594 6.422A1.907 1.907 0 0 1 0 5V2C0 1.458.198.99.594.594A1.922 1.922 0 0 1 2 0Z"/></svg>