<svg xmlns="http://www.w3.org/2000/svg" fill="currentColor" viewBox="0 0 16 16"><path d="M1 9V4.714c0-.464.173-.866.52-1.205A1.7 1.7 0 0 1 2.75 3h10.5a1.7 1.7 0 0 1 1.23.509c.347.34.52.741.52 1.205V9c0 .482-.173.888-.52 1.219-.346.33-.756.495-1.23.495h-.875v3.75c0 .161-.06.29-.178.389a.606.606 0 0 1-.396.147c-.164 0-.283-.036-.356-.107l-2.57-4.179H6.687L4.556 13.18c-.073.071-.192.107-.356.107a.606.606 0 0 1-.396-.148.48.48 0 0 1-.178-.388v-2.036H2.75c-.474 0-.884-.165-1.23-.495A1.618 1.618 0 0 1 1 9Zm1.75.857H4.5V12l1.75-2.116h3.063l2.187 3.402V9.857h1.75c.255 0 .465-.08.629-.24A.825.825 0 0 0 14.125 9V4.714a.838.838 0 0 0-.246-.602.837.837 0 0 0-.629-.255H2.75a.837.837 0 0 0-.629.255.838.838 0 0 0-.246.602V9c0 .25.082.455.246.616.164.16.374.241.629.241Zm6.563-2.571h2.624c.128 0 .233.044.315.134a.425.425 0 0 1 .123.294c0 .286-.146.429-.438.429H9.313c-.292 0-.438-.143-.438-.429 0-.107.041-.205.123-.294a.408.408 0 0 1 .315-.134Zm0-1.715h2.624a.41.41 0 0 1 .315.134c.082.09.123.188.123.295 0 .286-.146.429-.438.429H9.313c-.292 0-.438-.143-.438-.429 0-.107.041-.205.123-.295a.408.408 0 0 1 .315-.134Zm-5.25-.857h2.625c.127 0 .232.045.314.134.082.09.123.188.123.295 0 .286-.146.428-.438.428H4.063c-.291 0-.437-.142-.437-.428 0-.107.041-.205.123-.295a.408.408 0 0 1 .314-.134Zm0 1.715h2.625c.127 0 .232.044.314.133.082.09.123.188.123.295 0 .286-.146.429-.438.429H4.063c-.291 0-.437-.143-.437-.429 0-.107.041-.205.123-.295a.408.408 0 0 1 .314-.133Z"/></svg>