<svg xmlns="http://www.w3.org/2000/svg" fill="currentColor" viewBox="0 0 16 16"><path d="m1.717 1 2.09 2.147.373-.436c.5-.518 1.092-.778 1.778-.778.727 0 1.35.26 1.87.778l1.404 1.525-1.185 1.182L9.232 6.6a.398.398 0 0 1 .156.327c0 .134-.052.233-.156.295-.084.083-.167.125-.25.125-.083 0-.166-.042-.25-.125L7.455 6.01 5.927 7.564l1.247 1.152a.305.305 0 0 1 .156.28.305.305 0 0 1-.156.28c-.104.103-.208.155-.312.155-.104 0-.187-.052-.25-.155L5.396 8.062 4.18 9.276l-1.434-1.4c-.54-.54-.81-1.152-.81-1.836 0-.684.27-1.286.81-1.804l.468-.498L1 1.59 1.717 1Zm10.601 6.689 1.56 1.493c.52.519.779 1.11.779 1.774 0 .663-.26 1.254-.78 1.773l-.249.218L15 14.316l-.592.622-1.466-1.338-.623.591c-.541.54-1.133.809-1.778.809-.665 0-1.237-.27-1.715-.809L7.267 12.73l5.051-5.04ZM2.934 6.04c0 .415.177.799.53 1.151l.717.685 3.68-3.672-.749-.808a1.57 1.57 0 0 0-1.153-.467c-.374 0-.717.155-1.03.467L3.464 4.92c-.332.332-.509.705-.53 1.12Zm5.769 6.658.81.778v.03h.031c.27.332.603.498.998.498.374 0 .728-.165 1.06-.497l1.56-1.494c.311-.29.467-.643.467-1.057 0-.436-.145-.778-.437-1.027l-.873-.84-3.616 3.609Z"/></svg>