<svg xmlns="http://www.w3.org/2000/svg" fill="currentColor" viewBox="0 0 16 16"><path d="M2 1h12c.27 0 .505.094.703.281A.947.947 0 0 1 15 2v12c0 .27-.099.505-.297.703A.961.961 0 0 1 14 15H2a.947.947 0 0 1-.719-.297A.988.988 0 0 1 1 14V2c0-.292.094-.531.281-.719A.973.973 0 0 1 2 1Zm-.031 12.969h12v-8h-12v8Zm0-8.969h12V1.969h-12V5ZM3 12c0-.417.078-.807.234-1.172.157-.364.37-.687.641-.969.27-.28.589-.5.953-.656A2.943 2.943 0 0 1 6 8.97c.417 0 .807.078 1.172.234.364.156.682.375.953.656.27.282.484.604.64.97.157.364.235.754.235 1.171 0 .167-.02.333-.063.5l-.124.5H7.718c.083-.167.15-.333.203-.5a1.67 1.67 0 0 0 .078-.5c0-.563-.198-1.042-.594-1.438A1.922 1.922 0 0 0 6 9.97c-.563 0-1.036.198-1.422.594A1.985 1.985 0 0 0 4 12l.25 1H3.156c-.041-.23-.078-.427-.11-.594A2.306 2.306 0 0 1 3 12Zm6.531-1.813c.271-.145.594-.218.969-.218a2.41 2.41 0 0 1 1.766.734c.49.49.734 1.089.734 1.797 0 .083-.005.162-.016.234-.01.073-.026.162-.046.266h-1.032l.063-.25A1.07 1.07 0 0 0 12 12.5c0-.417-.146-.776-.438-1.078a1.422 1.422 0 0 0-1.062-.453c-.02.02-.073.031-.156.031a.606.606 0 0 1-.188.047c-.083.01-.177.036-.281.078a7.28 7.28 0 0 1-.14-.39 9.764 9.764 0 0 0-.204-.547Zm1.594-1.624 1.438-1.438a.212.212 0 0 1 .156-.063c.083 0 .146.021.187.063.104.083.104.208 0 .375L11.5 8.906c-.042.042-.083.063-.125.063.02 0 .01-.005-.031-.016a5.423 5.423 0 0 0-.219-.047c-.125-.104-.125-.219 0-.344ZM12.5 2.968c.333 0 .5.166.5.5 0 .333-.167.5-.5.5-.333 0-.5-.167-.5-.5 0-.334.167-.5.5-.5Zm-2.5.5c0-.334.167-.5.5-.5.333 0 .5.166.5.5 0 .333-.167.5-.5.5-.333 0-.5-.167-.5-.5Zm-.5 4.656 1.063-1.063A.212.212 0 0 1 10.719 7c.083 0 .146.02.187.063.104.125.104.24 0 .343L9.844 8.47c-.063.062-.125.094-.188.094-.041 0-.094-.032-.156-.094-.125-.104-.125-.219 0-.344Zm-2 0 1.063-1.063A.212.212 0 0 1 8.719 7c.083 0 .146.02.187.063.104.125.104.24 0 .343L7.844 8.47c-.063.062-.125.094-.188.094-.041 0-.093-.032-.156-.094-.125-.104-.125-.219 0-.344Z"/></svg>