<svg xmlns="http://www.w3.org/2000/svg" fill="currentColor" viewBox="0 0 16 16"><path d="M15.313 8.444c.208.29.374.608.5.952.124.343.187.712.187 1.108 0 .479-.094.931-.281 1.358a3.595 3.595 0 0 1-.75 1.108 3.596 3.596 0 0 1-1.11.75c-.427.186-.88.28-1.359.28-.48 0-.932-.094-1.36-.28a3.596 3.596 0 0 1-1.109-.75 3.592 3.592 0 0 1-.75-1.108A3.337 3.337 0 0 1 9 10.504a.94.94 0 0 1 .031-.281 4.61 4.61 0 0 0-.5-.156A2.187 2.187 0 0 0 8 10.004c-.333 0-.677.073-1.031.219 0 .041.005.088.015.14.01.052.016.1.016.14 0 .48-.094.932-.281 1.359a3.591 3.591 0 0 1-.75 1.108 3.596 3.596 0 0 1-1.11.75c-.427.186-.88.28-1.359.28-.48 0-.932-.094-1.36-.28a3.596 3.596 0 0 1-1.109-.75 3.591 3.591 0 0 1-.75-1.108A3.337 3.337 0 0 1 0 10.504c0-.791.23-1.478.688-2.06L3 3.418c.042-.083.11-.203.203-.36.094-.155.203-.306.328-.452a2.52 2.52 0 0 1 .422-.39c.156-.114.328-.182.516-.203.458-.041.807.016 1.047.172.24.156.411.328.515.515.125.229.198.489.219.78a.366.366 0 0 1-.047.344.591.591 0 0 1-.266.218c-.166.083-.312.063-.437-.062a1.24 1.24 0 0 1-.156-.188l-.032-.062c-.041-.042-.062-.104-.062-.187a2.992 2.992 0 0 0-.063-.219c-.062-.208-.208-.312-.437-.312-.27 0-.469.11-.594.328a4.43 4.43 0 0 0-.25.484L2.344 7.226c.187-.062.375-.114.562-.156a3.308 3.308 0 0 1 2.562.562A3.67 3.67 0 0 1 6.75 9.224c.188-.062.385-.114.594-.156.208-.042.427-.063.656-.063.23 0 .443.021.64.063.199.042.402.094.61.156a3.46 3.46 0 0 1 1.25-1.592 3.357 3.357 0 0 1 2-.624c.354 0 .73.073 1.125.218l-1.563-3.402a4.439 4.439 0 0 0-.25-.484.608.608 0 0 0-.562-.328c-.208 0-.365.104-.469.312a3 3 0 0 0-.062.219l-.063.25a1.242 1.242 0 0 1-.156.187c-.125.125-.27.145-.438.062-.27-.104-.385-.291-.343-.562a1.89 1.89 0 0 1 .219-.78c.104-.187.28-.36.53-.515.25-.156.605-.213 1.063-.172.167.021.334.089.5.203.167.114.313.245.438.39.125.146.234.297.328.453.094.156.161.276.203.359l2.313 5.026ZM3.5 13c.688 0 1.276-.244 1.766-.733.49-.49.734-1.077.734-1.764s-.245-1.275-.734-1.764A2.409 2.409 0 0 0 3.5 8.007c-.688 0-1.276.244-1.766.733A2.403 2.403 0 0 0 1 10.504c0 .687.245 1.274.734 1.764a2.41 2.41 0 0 0 1.766.733Zm9 0c.688 0 1.276-.244 1.766-.733.49-.49.734-1.077.734-1.764s-.245-1.275-.734-1.764a2.409 2.409 0 0 0-1.766-.733c-.688 0-1.276.244-1.766.733A2.403 2.403 0 0 0 10 10.504c0 .687.245 1.274.734 1.764a2.41 2.41 0 0 0 1.766.733Z"/></svg>