<svg xmlns="http://www.w3.org/2000/svg" fill="currentColor" viewBox="0 0 16 16"><path d="M10 12c0-.854-.286-1.568-.86-2.14C8.569 9.285 7.855 9 7 9H4c-.417 0-.807.078-1.172.234a2.888 2.888 0 0 0-.953.657c-.27.28-.484.599-.64.953C1.077 11.198 1 11.584 1 12v3h9v-3ZM5.5 7c.708 0 1.302-.24 1.781-.719C7.761 5.802 8 5.208 8 4.5s-.24-1.302-.719-1.781C6.802 2.239 6.208 2 5.5 2a2.41 2.41 0 0 0-1.766.734A2.407 2.407 0 0 0 3 4.5c0 .688.25 1.27.75 1.75.48.5 1.063.75 1.75.75ZM7 8c1.063 0 2.01.385 2.844 1.156C10.614 9.99 11 10.937 11 12v4H0v-4c0-.563.104-1.083.313-1.563A4.016 4.016 0 0 1 4 8h1.5a3.338 3.338 0 0 1-1.36-.28 3.594 3.594 0 0 1-1.109-.75 3.594 3.594 0 0 1-.75-1.11A3.344 3.344 0 0 1 2 4.5c0-.48.094-.932.281-1.36a3.63 3.63 0 0 1 .75-1.109 3.594 3.594 0 0 1 1.11-.75A3.348 3.348 0 0 1 5.5 1c.48 0 .932.094 1.36.281a3.63 3.63 0 0 1 1.109.75c.312.313.562.683.75 1.11.187.427.281.88.281 1.359 0 .48-.094.932-.281 1.36a3.594 3.594 0 0 1-.75 1.109 3.594 3.594 0 0 1-1.11.75A3.348 3.348 0 0 1 5.5 8H7Zm1 4h1v1H8v1H7v-1H6v-1h1v-1h1v1Zm8-10v2h-2v2h-2V4h-2V2h2V0h2v2h2Z"/></svg>