<svg xmlns="http://www.w3.org/2000/svg" fill="currentColor" viewBox="0 0 16 16"><path d="M13 0c.292 0 .531.099.719.297A.988.988 0 0 1 14 1v14a.974.974 0 0 1-.281.719.935.935 0 0 1-.688.281h-10a1.03 1.03 0 0 1-.734-.281A.947.947 0 0 1 2 15V4l4-4h7Zm.031 15L13 1H7v3a.947.947 0 0 1-.297.719A.988.988 0 0 1 6 5H3v10h10.031ZM10.5 12c.333 0 .5.167.5.5 0 .125-.047.24-.14.344a.462.462 0 0 1-.36.156h-5a.478.478 0 0 1-.344-.156A.478.478 0 0 1 5 12.5c0-.146.052-.266.156-.36A.503.503 0 0 1 5.5 12h5Zm0-2c.333 0 .5.167.5.5 0 .125-.047.24-.14.344a.462.462 0 0 1-.36.156h-5a.478.478 0 0 1-.344-.156A.478.478 0 0 1 5 10.5c0-.146.052-.266.156-.36A.503.503 0 0 1 5.5 10h5Z"/></svg>