<svg xmlns="http://www.w3.org/2000/svg" fill="currentColor" viewBox="0 0 16 16"><path d="M11.252 5.69a3.668 3.668 0 0 0-1.188-1.11 4.29 4.29 0 0 0-1.532-.547V0a8.17 8.17 0 0 1 3.627 1.157 7.722 7.722 0 0 1 2.658 2.657L11.252 5.69Zm-2.501 6.222a3.642 3.642 0 0 0 1.845-.907l3.001 2.72a8.163 8.163 0 0 1-1.844 1.329 8.41 8.41 0 0 1-2.22.797 7.742 7.742 0 0 1-3.174-.031 8.241 8.241 0 0 1-2.83-1.204 7.985 7.985 0 0 1-2.173-2.173A7.795 7.795 0 0 1 .153 9.504a7.93 7.93 0 0 1 .015-3.173 7.86 7.86 0 0 1 1.188-2.814A8.285 8.285 0 0 1 3.53 1.344 7.656 7.656 0 0 1 6.47.125a2.8 2.8 0 0 1 .515-.078c.178-.01.36-.026.548-.047v4.033c-.146 0-.25.01-.313.031a3.828 3.828 0 0 0-1.47.61 4.083 4.083 0 0 0-1.078 1.079 4.04 4.04 0 0 0-.61 3.001c.104.542.307 1.032.61 1.47.302.437.667.797 1.094 1.078.427.282.896.48 1.407.594a3.83 3.83 0 0 0 1.579.016Zm7.098-5.472c.229 1.21.198 2.377-.094 3.502a8.119 8.119 0 0 1-1.501 3.033l-2.97-2.689c.291-.438.495-.922.61-1.454.114-.531.12-1.068.015-1.61l-.063-.328a1.697 1.697 0 0 0-.093-.328l3.533-1.845a7.23 7.23 0 0 1 .563 1.72Z"/></svg>