<svg xmlns="http://www.w3.org/2000/svg" fill="currentColor" viewBox="0 0 16 16"><path d="M15.423 6.621c.374.478.561 1.06.561 1.745 0 .374-.073.696-.218.966a2.025 2.025 0 0 1-.25.467l-.312.436c-.124.146-.233.25-.327.312a1.96 1.96 0 0 1-.39.187c-.395.166-.748.25-1.06.25h-.437v-.998h.437c.145 0 .374-.052.686-.156.104-.041.171-.072.203-.093a1.09 1.09 0 0 0 .14-.125c.083-.104.156-.208.218-.311.063-.104.115-.208.156-.312l.063-.125c.062-.124.093-.29.093-.498 0-.499-.114-.872-.343-1.122-.187-.249-.499-.436-.936-.56L12.43 6.34l.686-1.122a1.12 1.12 0 0 0 .125-.56c0-.52-.177-.946-.53-1.278-.333-.332-.77-.499-1.31-.499-.437 0-.811.125-1.123.374l-1.03.904-.53-1.246a3.252 3.252 0 0 0-1.153-1.371c-.479-.353-1.082-.53-1.81-.53-.27 0-.602.083-.997.25a4.545 4.545 0 0 0-1.06.716c-.23.208-.448.53-.656.966-.145.29-.218.654-.218 1.09 0 .395.094.748.28 1.06l.687 1.152-1.31.312c-.457.124-.8.332-1.03.623l-.03.031v.031c-.27.312-.406.686-.406 1.122 0 .187.052.384.156.592.02.041.073.125.156.25.083.124.26.3.53.529.042.041.177.093.406.156.228.062.644.093 1.247.093v.997c-.478 0-.925-.031-1.34-.093-.417-.063-.739-.198-.968-.405-.499-.437-.821-.81-.967-1.122a2.327 2.327 0 0 1-.218-.997c0-.727.218-1.33.655-1.807.395-.478.915-.8 1.56-.966a3.001 3.001 0 0 1-.406-1.558c0-.602.104-1.111.312-1.526.229-.499.52-.925.873-1.278a4.794 4.794 0 0 1 1.31-.872C4.82.129 5.298.015 5.756.015c.935 0 1.725.228 2.37.685a4.239 4.239 0 0 1 1.496 1.81c.478-.416 1.07-.624 1.778-.624.81 0 1.476.26 1.996.78.561.54.842 1.204.842 1.993 0 .395-.094.748-.281 1.06.582.145 1.07.446 1.466.903Zm-6.674 9.067a.986.986 0 0 1-.718.311.889.889 0 0 1-.686-.311l-3.18-3.147c-.25-.25-.25-.488 0-.717a.477.477 0 0 1 .342-.155c.125 0 .24.051.343.155l2.651 2.649V6.029c0-.332.166-.498.5-.498.332 0 .498.166.498.498v8.506l2.713-2.71c.23-.23.468-.23.718 0 .229.228.229.467 0 .716l-3.181 3.147Z"/></svg>