<svg xmlns="http://www.w3.org/2000/svg" fill="currentColor" viewBox="0 0 16 16"><path d="M12.313 10.238c.229-.188.468-.287.718-.297.25-.01.48.088.688.297a.957.957 0 0 1 .281.705.957.957 0 0 1-.281.704l-5 4.04a.906.906 0 0 1-.703.313.906.906 0 0 1-.704-.313l-5-4.102A.91.91 0 0 1 2 10.88a.91.91 0 0 1 .313-.705.825.825 0 0 1 .671-.297c.26.01.506.11.735.297l3.937 3.038a.493.493 0 0 0 .719 0l3.938-2.975Zm-.688-4.572c.438-.355.833-.355 1.188 0a.796.796 0 0 1 0 1.159l-4.22 3.413a.81.81 0 0 1-.593.25.81.81 0 0 1-.594-.25L3.22 6.793a.814.814 0 0 1-.25-.595c0-.23.083-.428.25-.595a.793.793 0 0 1 .578-.25.9.9 0 0 1 .61.25L7.72 8.171a.405.405 0 0 0 .297.125.405.405 0 0 0 .296-.125l3.313-2.505Zm-.344-4.384c.375-.313.719-.313 1.031 0a.708.708 0 0 1 .22.517c0 .198-.074.37-.22.516l-3.75 3.038a.665.665 0 0 1-.515.25c-.198 0-.38-.083-.547-.25l-3.75-3.07a.726.726 0 0 1-.219-.531c0-.21.073-.387.219-.533A.705.705 0 0 1 4.266 1c.198 0 .38.073.546.22l2.97 2.285c.166.188.343.188.53 0l2.97-2.223Z"/></svg>