<svg xmlns="http://www.w3.org/2000/svg" fill="currentColor" viewBox="0 0 16 16"><path d="M6 6.031V4c0-.27.094-.505.281-.703A.947.947 0 0 1 7 3h8c.27 0 .505.099.703.297A.961.961 0 0 1 16 4v11a.947.947 0 0 1-.297.719A.988.988 0 0 1 15 16H7a.973.973 0 0 1-.719-.281A.974.974 0 0 1 6 15v-2h1v2h8V4H7v2.031H6ZM0 1C0 .73.094.495.281.297A.947.947 0 0 1 1 0h8c.27 0 .505.099.703.297A.961.961 0 0 1 10 1v1H9V1H1v11h3v1H1a.973.973 0 0 1-.719-.281A.974.974 0 0 1 0 12V1Zm4.531 8H10.5L8.156 6.875c-.229-.25-.229-.49 0-.719A.478.478 0 0 1 8.5 6c.125 0 .24.052.344.156l2.875 2.594c.187.208.281.448.281.719 0 .27-.094.51-.281.719l-2.875 2.687a.478.478 0 0 1-.344.156c-.063 0-.177-.052-.344-.156-.229-.25-.229-.49 0-.719L10.5 10H4.531c-.333 0-.5-.167-.5-.5 0-.333.167-.5.5-.5Z"/></svg>