<svg xmlns="http://www.w3.org/2000/svg" fill="currentColor" viewBox="0 0 16 16"><path d="M15.156 0c.209 0 .375.182.5.547.125.364.209.755.25 1.172.063.5.094 1.062.094 1.687 0 1.563-.094 2.995-.281 4.297-.188 1.302-.552 2.422-1.094 3.36-.542.937-1.318 1.666-2.328 2.187-1.01.52-2.339.781-3.985.781-.77 0-1.505-.052-2.203-.156a4.833 4.833 0 0 1-1.984-.781c-.396.5-.77 1.146-1.125 1.937a1.343 1.343 0 0 1-.531.719c-.25.167-.531.25-.844.25-.417 0-.792-.151-1.125-.453-.333-.302-.5-.755-.5-1.36 0-.624.203-1.234.61-1.828.406-.593.817-1.13 1.234-1.609 0-.02.005-.031.015-.031.01 0 .016-.01.016-.031l-.094-.876a1.39 1.39 0 0 1-.031-.265v-.484c-.042-.563.057-1.183.297-1.86s.63-1.307 1.172-1.89c.541-.584 1.234-1.084 2.078-1.5.844-.417 1.849-.646 3.016-.688.937-.02 1.697-.083 2.28-.188.584-.104 1.063-.25 1.438-.437.375-.188.677-.406.906-.656.23-.25.459-.532.688-.844.292-.437.578-.714.86-.828.28-.115.505-.172.671-.172Zm.031 4.813c.063-1.063.042-1.954-.062-2.672-.104-.72-.208-1.1-.313-1.141-.083-.02-.171.12-.265.422s-.344.64-.75 1.016c-.406.374-1.026.734-1.86 1.078-.833.343-2.03.546-3.593.609-1.104.042-2.01.245-2.719.61-.708.364-1.276.796-1.703 1.296-.427.5-.73 1.026-.906 1.578-.177.552-.266 1.037-.266 1.454v.28c0 .126.01.22.031.282l.031.313.344-.376c.604-.75 1.188-1.27 1.75-1.562.563-.292 1.11-.469 1.64-.531a8.01 8.01 0 0 1 1.579-.032 6.86 6.86 0 0 0 1.594-.062c.541-.083 1.094-.281 1.656-.594.563-.312 1.156-.864 1.781-1.656-.354.958-.765 1.672-1.234 2.14-.469.47-.98.798-1.531.985a5.966 5.966 0 0 1-1.72.313 18.25 18.25 0 0 0-1.812.156 6.972 6.972 0 0 0-1.828.515c-.604.26-1.177.714-1.718 1.36l-.25.219a8.314 8.314 0 0 1-.579.718c-.24.271-.468.557-.687.86a6.692 6.692 0 0 0-.563.921c-.156.313-.234.605-.234.876 0 .291.068.5.203.624.136.126.276.188.422.188.23 0 .385-.115.469-.344.27-.604.547-1.13.828-1.578a7.41 7.41 0 0 1 1.047-1.297c.333.271.713.49 1.14.656.427.167.865.292 1.313.376a9.92 9.92 0 0 0 1.344.156c.448.02.859.031 1.234.031 1.333 0 2.401-.26 3.203-.781s1.417-1.177 1.844-1.969a8.035 8.035 0 0 0 .86-2.64c.145-.97.239-1.902.28-2.798Z"/></svg>