<svg xmlns="http://www.w3.org/2000/svg" fill="currentColor" viewBox="0 0 16 16"><path d="M5.125.5c.063-.125.156-.24.281-.344C5.531.052 5.73 0 6 0h3c.438 0 .77.125 1 .375.23.25.396.448.5.594a6.88 6.88 0 0 1 .5-.594c.23-.25.552-.375.969-.375H15c.25 0 .443.052.578.156a.998.998 0 0 1 .297.344A.99.99 0 0 1 16 1v8c0 .25-.052.443-.156.578a1.01 1.01 0 0 1-.344.297.99.99 0 0 1-.5.125h-2c-.417 0-.86.099-1.328.297-.469.198-.807.38-1.016.547a.446.446 0 0 0-.078.094c-.01.02-.036.041-.078.062v-.031l-.031.031a.243.243 0 0 1-.047-.063c-.01-.02-.037-.041-.078-.062a6.622 6.622 0 0 0-1.11-.61A3.063 3.063 0 0 0 8 10H6a.99.99 0 0 1-.5-.125 1.01 1.01 0 0 1-.344-.297C5.052 9.443 5 9.25 5 9V1a.99.99 0 0 1 .125-.5ZM1 2h3v1H1v10h14v-2h1v2c0 .27-.094.505-.281.703A.947.947 0 0 1 15 14H1a.961.961 0 0 1-.703-.297A.961.961 0 0 1 0 13V3c0-.292.099-.531.297-.719A.988.988 0 0 1 1 2Zm10 0v7c.25-.25.557-.474.922-.672A2.571 2.571 0 0 1 13 8h2V1h-2c-.167 0-.36.016-.578.047a3.049 3.049 0 0 0-.625.156c-.198.073-.37.172-.516.297A.858.858 0 0 0 11 2ZM6 8h2c.354.02.714.13 1.078.328.365.198.672.422.922.672V2a1.267 1.267 0 0 0-.313-.5 1.974 1.974 0 0 0-.593-.328C8.844 1.078 8.479 1.02 8 1H6v7Zm-2 7.5c0-.146.052-.266.156-.36A.503.503 0 0 1 4.5 15h7c.333 0 .5.167.5.5 0 .125-.047.24-.14.344a.462.462 0 0 1-.36.156h-7a.478.478 0 0 1-.344-.156A.478.478 0 0 1 4 15.5Z"/></svg>