<svg xmlns="http://www.w3.org/2000/svg" fill="currentColor" viewBox="0 0 16 16"><path d="M.53 6.188A1.76 1.76 0 0 1 1.06 6a6.38 6.38 0 0 1 1.295-3.406c.759-1 1.71-1.719 2.854-2.156.02.229.083.427.187.593.062.167.12.287.171.36.052.073.161.109.328.109.104-.02.166-.099.187-.234.02-.136.02-.287 0-.453A3.24 3.24 0 0 1 6.035.5a3.238 3.238 0 0 0-.047-.312l.749-.126a4.729 4.729 0 0 1 1.528 0l.749.126A3.24 3.24 0 0 0 8.967.5c-.01.104-.026.208-.047.313a1.65 1.65 0 0 0 0 .453c.02.135.083.213.187.234.167 0 .276-.036.328-.11.052-.072.109-.192.171-.359.104-.166.167-.364.187-.593a6.392 6.392 0 0 1 2.854 2.156A6.38 6.38 0 0 1 13.942 6c.187.042.353.104.499.188.124.104.244.26.358.468.115.209.172.49.172.844 0 .417-.14.77-.421 1.063-.28.291-.63.437-1.045.437H1.497c-.416 0-.77-.146-1.06-.438A1.448 1.448 0 0 1 0 7.5c0-.375.052-.661.156-.86.104-.197.229-.348.374-.452ZM1.497 8h12.008a.448.448 0 0 0 .327-.14.487.487 0 0 0 .14-.36.487.487 0 0 0-.14-.36.448.448 0 0 0-.327-.14h-.53l-.031-1a5.43 5.43 0 0 0-.843-2.438 5.568 5.568 0 0 0-1.87-1.812c-.105.25-.276.51-.516.781-.239.271-.504.406-.795.406-.145 0-.229-.01-.25-.03a.712.712 0 0 1-.483-.391 2.562 2.562 0 0 1-.203-.641c-.02-.25-.02-.531 0-.844h-.998a2.86 2.86 0 0 1 0 .844c-.041.23-.104.443-.187.64a.664.664 0 0 1-.468.391c-.02.021-.104.031-.25.031-.29 0-.555-.135-.794-.406a2.88 2.88 0 0 1-.515-.781A5.568 5.568 0 0 0 2.9 3.563 5.43 5.43 0 0 0 2.058 6l-.062 1h-.499a.502.502 0 0 0-.343.14.462.462 0 0 0-.156.36c0 .146.052.266.156.36.104.093.218.14.343.14Zm7.797 5.375.967-.969 1.56 1.563L14.97 10 16 11.031 11.852 16l-2.558-2.625Z"/></svg>