<svg xmlns="http://www.w3.org/2000/svg" fill="currentColor" viewBox="0 0 16 16"><path d="m0 15 .688-3.438c0-.104.041-.197.125-.28L11 1.124A.464.464 0 0 1 11.344 1c.146 0 .26.042.344.125l2.156 2.125c.25.23.25.469 0 .719L3.688 14.156c-.084.084-.167.125-.25.125L0 15Zm1.625-3.094 1.438 1.438 7-7-1.438-1.407-6.969 6.97h-.031ZM8 15.5V15c0-.563.104-1.083.313-1.563A4.016 4.016 0 0 1 12 11h2.499l-2.344-2.155c-.229-.25-.229-.49 0-.719a.478.478 0 0 1 .344-.156c.125 0 .24.052.344.156l2.875 2.594c.187.208.281.448.281.719 0 .27-.094.51-.281.718l-2.875 2.688A.478.478 0 0 1 12.5 15c-.063 0-.177-.052-.344-.156-.229-.25-.229-.49 0-.719L14.5 12H12c-.833 0-1.542.292-2.125.875A2.893 2.893 0 0 0 9 15v.5c0 .333-.167.5-.5.5-.333 0-.5-.167-.5-.5ZM9.344 4.219l1.406 1.406 2.031-2.031-1.437-1.375-2 2Z"/></svg>