<svg xmlns="http://www.w3.org/2000/svg" fill="currentColor" viewBox="0 0 16 16"><path d="M0 13.027V2.002c0-.23.078-.454.234-.673C.391 1.109.646 1 1 1h.344c.146.042.281.172.406.391.125.22.208.423.25.611H1v10.023h5.063c.229 0 .421.041.578.125.156.083.296.183.421.297.125.115.224.225.297.33.073.104.141.187.204.25V3.004a1.25 1.25 0 0 0-.297-.673c-.177-.22-.391-.329-.641-.329 0-.23-.11-.454-.328-.673-.219-.22-.36-.329-.422-.329.563 0 1.016.094 1.36.282.343.188.557.365.64.532.104-.167.292-.344.563-.532.27-.188.677-.282 1.218-.282h5.281c.334 0 .594.104.782.313.187.209.281.48.281.815v10.899a.95.95 0 0 1-.297.72.987.987 0 0 1-.703.282h-4.813a2.51 2.51 0 0 0-1.312.376c-.417.25-.708.449-.875.595a2.436 2.436 0 0 0-.36-.266 4.7 4.7 0 0 0-.609-.33 5.359 5.359 0 0 0-.718-.265 2.56 2.56 0 0 0-.72-.11H1c-.667 0-1-.334-1-1.002Zm8.469 0a1.3 1.3 0 0 0 .187-.25 2.117 2.117 0 0 1 .594-.627.826.826 0 0 1 .469-.125H15V2.002H9.437c-.374 0-.62.13-.734.392a2.445 2.445 0 0 0-.203.642l-.031 8.989v1.002ZM2.219 1H4.78c.23 0 .485.11.766.329.281.22.432.444.453.673v6.014L4.5 6.043 3 8.016V1.94a.82.82 0 0 0-.281-.611c-.188-.178-.354-.287-.5-.329Z"/></svg>