<svg xmlns="http://www.w3.org/2000/svg" fill="currentColor" viewBox="0 0 16 16"><path d="M16 3.408c-.105.758-.485 1.626-1.138 2.604-.654.978-1.55 1.94-2.688 2.887l-.759.632-.727-.632c-1.139-.988-2.05-1.95-2.735-2.887-.686-.936-1.05-1.804-1.091-2.604v-.63c.042-.842.332-1.516.87-2.02C8.268.251 8.884 0 9.58 0c.295 0 .627.084.996.252.369.169.648.39.838.663a5.54 5.54 0 0 1 .854-.663c.274-.168.6-.252.98-.252.78 0 1.418.263 1.913.789.495.526.775 1.189.838 1.988v.631Zm-1.138-.536c-.064-.463-.222-.852-.475-1.168-.253-.315-.527-.494-.822-.536-.38 0-.7.11-.964.331-.264.22-.485.468-.664.742-.18.273-.311.536-.396.789-.084.252-.126.41-.126.473-.084-.252-.18-.515-.285-.789a5.045 5.045 0 0 0-.363-.757 1.888 1.888 0 0 0-.506-.568 1.114 1.114 0 0 0-.68-.221c-.316 0-.659.131-1.028.394S8 2.262 8 2.872v.442c0 .526.295 1.199.885 2.02.59.82 1.434 1.714 2.53 2.682 1.138-.968 1.987-1.862 2.546-2.683.558-.82.858-1.493.9-2.02v-.441Zm.569 10.95c.19 0 .332.058.427.174a.605.605 0 0 1 .142.394.605.605 0 0 1-.142.395c-.095.116-.237.174-.427.174h-4.553a.557.557 0 0 1-.412-.158l-.6-.726-.76 1.61c-.147.21-.326.315-.537.315-.316 0-.506-.147-.569-.442l-.727-3.092-1.613 3.187c-.105.231-.274.347-.506.347a.631.631 0 0 1-.38-.142.465.465 0 0 1-.189-.395l-.6-7.7-.538 6.533c0 .379-.2.568-.601.568-.232 0-.4-.116-.506-.347l-.474-1.042-.76 2.115c-.084.273-.263.41-.537.41C.19 16 0 15.81 0 15.432c0-.105.01-.168.032-.19l1.17-3.408c.063-.252.231-.389.506-.41.274 0 .442.105.505.316l.253.441.98-10.414c.043-.357.233-.536.57-.536.337 0 .527.179.569.536l.98 11.55 1.36-2.713c.084-.21.253-.316.506-.316a.61.61 0 0 1 .363.126.48.48 0 0 1 .206.316l.759 3.06.474-.914c.063-.21.222-.316.475-.316.105 0 .242.053.41.158l.98 1.104h4.333Z"/></svg>