<svg xmlns="http://www.w3.org/2000/svg" fill="currentColor" viewBox="0 0 16 16"><path d="M0 5c0-.292.094-.531.281-.719A.973.973 0 0 1 1 4h7v1H1v10h12V8h1v7c0 .27-.099.505-.297.703A.961.961 0 0 1 13 16H1a.947.947 0 0 1-.719-.297A.988.988 0 0 1 0 15V5Zm2.125 6.844.719-.656a.511.511 0 0 1 .375-.157c.146 0 .25.052.312.156l.156.094L5 6.312c.063-.208.219-.312.469-.312.291 0 .468.125.531.375l.438 5.063c.02-.021.083-.032.187-.032l.844-.094.593-1.062a1.15 1.15 0 0 1 .282-.219h.25c.146 0 .25.063.312.188l.969 1.25.625-.406a.603.603 0 0 1 .313-.094c.145 0 .25.041.312.125l.75.687a.389.389 0 0 1 .125.281c0 .271-.167.407-.5.407-.167 0-.292-.042-.375-.125l-.406-.438-.688.469c-.083.063-.208.094-.375.094a.63.63 0 0 1-.344-.188l-.718-1.031-.375.594c-.125.146-.25.219-.375.219l-.782.093-.562 1.625c-.083.146-.24.219-.469.219-.208-.02-.328-.14-.36-.36a4.146 4.146 0 0 1-.046-.578l-.094-.28-.375-2.938-.75 2.375c-.062.166-.166.26-.312.281l-.188.031c-.166 0-.291-.041-.375-.125l-.312-.375-.375.375c-.084.084-.209.125-.375.125a.52.52 0 0 1-.328-.11.327.327 0 0 1-.141-.265c0-.125.042-.229.125-.312ZM12 2V0h2v2h2v2h-2v2h-2V4h-2V2h2Z"/></svg>