<svg xmlns="http://www.w3.org/2000/svg" fill="currentColor" viewBox="0 0 16 16"><path d="M10 16H0v-2c0-.563.104-1.083.313-1.563A4.015 4.015 0 0 1 4 10h1a2.893 2.893 0 0 1-2.125-.874A2.893 2.893 0 0 1 2 7c0-.833.292-1.542.875-2.125A2.893 2.893 0 0 1 5 4c.833 0 1.542.292 2.125.875S8 6.167 8 7s-.292 1.542-.875 2.125A2.893 2.893 0 0 1 5 10h1c.563 0 1.083.104 1.563.313a4.064 4.064 0 0 1 2.125 2.124c.208.48.312 1 .312 1.563v2Zm-9-2v1h8v-1c0-.833-.292-1.542-.875-2.125A2.893 2.893 0 0 0 6 11H4c-.833 0-1.542.292-2.125.875A2.893 2.893 0 0 0 1 14Zm4-5a1.92 1.92 0 0 0 1.406-.594A1.92 1.92 0 0 0 7 7c0-.563-.198-1.036-.594-1.422A1.948 1.948 0 0 0 5 5c-.542 0-1.01.193-1.406.578C3.198 5.964 3 6.438 3 7c0 .542.198 1.01.594 1.406A1.92 1.92 0 0 0 5 9Zm4.281-5.625 1-1 1.563 1.594L15 0l1 1-4.125 4.969-2.594-2.594Z"/></svg>