<svg xmlns="http://www.w3.org/2000/svg" fill="currentColor" viewBox="0 0 16 17"><path d="M14 16.016H2v-4a4.016 4.016 0 0 1 2.438-3.688A3.88 3.88 0 0 1 6 8.016h2a3.876 3.876 0 0 1-1.563-.313 4.065 4.065 0 0 1-2.125-2.125C4.104 5.1 4 4.578 4 4.016A4.016 4.016 0 0 1 6.438.329C6.917.12 7.438.015 8 .015a4.016 4.016 0 0 1 2.828 1.172A4.015 4.015 0 0 1 12 4.016c0 .562-.104 1.083-.313 1.562A4.016 4.016 0 0 1 8 8.016h2.001a4.016 4.016 0 0 1 2.828 1.172A4.016 4.016 0 0 1 14 12.016v4Zm-11-4v3h10v-3c0-.833-.292-1.542-.875-2.125A2.893 2.893 0 0 0 10 9.016H6c-.833 0-1.542.292-2.125.875A2.893 2.893 0 0 0 3 12.016Zm5-5c.833 0 1.542-.292 2.125-.875A2.893 2.893 0 0 0 11 4.016c0-.833-.292-1.542-.875-2.125A2.893 2.893 0 0 0 8 1.016c-.833 0-1.542.292-2.125.875A2.893 2.893 0 0 0 5 4.016c0 .833.292 1.542.875 2.125A2.893 2.893 0 0 0 8 7.016Zm1 6v-1h3v1H9Z"/></svg>