<svg xmlns="http://www.w3.org/2000/svg" fill="currentColor" viewBox="0 0 16 16"><path d="M10.079 16H0v-2c0-.563.105-1.083.315-1.563a4.063 4.063 0 0 1 2.157-2.124A3.968 3.968 0 0 1 4.032 10h1.007c-.84 0-1.553-.292-2.141-.875A2.882 2.882 0 0 1 2.016 7c0-.833.294-1.542.882-2.125A2.927 2.927 0 0 1 5.039 4c.84 0 1.554.292 2.142.875.588.583.882 1.292.882 2.125s-.294 1.542-.882 2.125A2.927 2.927 0 0 1 5.04 10h1.008c.546 0 1.066.104 1.56.313a4.05 4.05 0 0 1 2.157 2.124c.21.48.315 1 .315 1.563v2Zm-9.071-2v1H9.07v-1c0-.833-.294-1.542-.882-2.125C7.601 11.292 6.887 11 6.047 11H4.031c-.84 0-1.553.292-2.141.875A2.882 2.882 0 0 0 1.008 14ZM9.953 1l1.008-1 2.047 2 1.984-2L16 1l-2.047 1.969L16 5l-1.008 1-1.984-2.031L10.96 6 9.953 5 12 2.969 9.953 1Zm-6.93 6c0 .542.2 1.01.599 1.406.399.396.871.594 1.417.594s1.019-.198 1.418-.594c.399-.396.598-.864.598-1.406a1.9 1.9 0 0 0-.598-1.422A1.971 1.971 0 0 0 5.039 5c-.546 0-1.018.193-1.417.578A1.9 1.9 0 0 0 3.024 7Z"/></svg>