<svg xmlns="http://www.w3.org/2000/svg" fill="currentColor" viewBox="0 0 16 16"><path d="M0 12v-2c0-.563.104-1.083.313-1.563A4.016 4.016 0 0 1 4 6h1a2.893 2.893 0 0 1-2.125-.874A2.893 2.893 0 0 1 2 3c0-.833.292-1.542.875-2.125A2.893 2.893 0 0 1 5 0c.833 0 1.542.292 2.125.875S8 2.167 8 3s-.292 1.542-.875 2.125A2.893 2.893 0 0 1 5 6h1c.625 0 1.208.135 1.75.406s.99.636 1.344 1.094a2.829 2.829 0 0 0-.813.563 2.873 2.873 0 0 0-.984-.782A2.926 2.926 0 0 0 6 7H4c-.833 0-1.542.292-2.125.875A2.893 2.893 0 0 0 1 10v1h6c0 .104.016.24.047.406l.11.594H0Zm8-1c0-.833.292-1.542.875-2.125A2.893 2.893 0 0 1 11 8c.833 0 1.542.292 2.125.875S14 10.167 14 11c0 .604-.188 1.177-.563 1.719L16 15.28l-.688.719-2.562-2.563A2.924 2.924 0 0 1 11 14a2.893 2.893 0 0 1-2.125-.875A2.893 2.893 0 0 1 8 11Zm3 2a1.92 1.92 0 0 0 1.406-.594A1.92 1.92 0 0 0 13 11c0-.563-.198-1.036-.594-1.422A1.948 1.948 0 0 0 11 9c-.542 0-1.01.193-1.406.578C9.198 9.964 9 10.438 9 11c0 .542.198 1.01.594 1.406A1.92 1.92 0 0 0 11 13ZM3 3c0 .542.198 1.01.594 1.406A1.92 1.92 0 0 0 5 5a1.92 1.92 0 0 0 1.406-.594A1.92 1.92 0 0 0 7 3c0-.563-.198-1.036-.594-1.422A1.948 1.948 0 0 0 5 1c-.542 0-1.01.193-1.406.578C3.198 1.964 3 2.438 3 3Z"/></svg>