<svg xmlns="http://www.w3.org/2000/svg" fill="currentColor" viewBox="0 0 16 16"><path d="M3.5 16v-1.063a2.713 2.713 0 0 1-1.219-.5l-.75.75-.718-.718.75-.75a2.713 2.713 0 0 1-.5-1.219H0v-1h1.063c.062-.438.229-.844.5-1.219l-.75-.75.718-.719.75.75c.375-.27.781-.437 1.219-.5V8h1v1.063c.438.062.844.229 1.219.5l.75-.75.718.718-.75.75c.271.375.438.781.5 1.219H8v1H6.937a2.704 2.704 0 0 1-.5 1.219l.75.75-.718.719-.75-.75a2.73 2.73 0 0 1-1.219.5V16h-1ZM1.156 6.031c0-.562.198-1.041.594-1.437A1.958 1.958 0 0 1 3.188 4h.968c-.541 0-1.01-.198-1.406-.594A1.922 1.922 0 0 1 2.156 2c0-.542.198-1.01.594-1.406A1.922 1.922 0 0 1 4.156 0c.542 0 1.01.198 1.407.594.395.396.593.864.593 1.406 0 .542-.198 1.01-.593 1.406A1.922 1.922 0 0 1 4.155 4h.969c.563 0 1.042.198 1.438.594.395.396.593.875.593 1.437V7h-6v-.969Zm8.156 2.875C9.876 8.302 10.563 8 11.376 8c.75 0 1.385.26 1.906.781.521.521.781 1.156.781 1.906 0 .771-.25 1.407-.75 1.907L16 15.28l-.719.719-2.812-2.844a2.68 2.68 0 0 1-1.094.25c-.77 0-1.427-.27-1.969-.812l-.437-.469.687-.719.469.469c.313.354.73.531 1.25.531.48 0 .88-.166 1.203-.5.323-.333.485-.74.485-1.219 0-.479-.162-.88-.485-1.203A1.633 1.633 0 0 0 11.375 9c-.542 0-.969.188-1.281.563l-.344.374L9 9.281l.313-.375ZM2 12c0 .542.198 1.01.594 1.406A1.92 1.92 0 0 0 4 14a1.92 1.92 0 0 0 1.406-.594A1.92 1.92 0 0 0 6 12a1.92 1.92 0 0 0-.594-1.406A1.922 1.922 0 0 0 4 10a1.92 1.92 0 0 0-1.406.594A1.922 1.922 0 0 0 2 12ZM9 1V0h6v1H9Zm4 2H9V2h4v1ZM9 5V4h3v1H9Z"/></svg>