<svg xmlns="http://www.w3.org/2000/svg" fill="currentColor" viewBox="0 0 16 16"><path d="M13.256 2.651c.173.226.307.478.404.756.097.277.173.544.227.801.054.257.086.488.097.694.01.205.016.35.016.431 0 .535-.15 1.177-.453 1.927-.302.75-.674 1.521-1.116 2.312a36.477 36.477 0 0 1-1.439 2.359 39.573 39.573 0 0 1-1.455 2.065l-1.1 1.48-.453.524-.485-.678a659.66 659.66 0 0 1-2.943-4.131C2.658 8.519 1.817 6.577 2.033 5.364c0-.822.14-1.567.42-2.235.28-.668.68-1.233 1.197-1.695A5.344 5.344 0 0 1 5.51.37C6.232.123 7.035 0 7.92 0c.711 0 1.299.041 1.762.123.464.083.836.18 1.116.293.28.113.496.221.647.324l.356.277-.615.37a8.95 8.95 0 0 1-.404.262c-.119.072-.178.098-.178.077-.086-.082-.232-.159-.437-.23a7.023 7.023 0 0 0-.695-.201 9.321 9.321 0 0 0-.809-.154 5.196 5.196 0 0 0-.744-.062 4.95 4.95 0 0 0-1.762.324 5.673 5.673 0 0 0-1.537.863A4.26 4.26 0 0 0 3.537 3.53a3.03 3.03 0 0 0-.404 1.495c0 .493.107 1.048.323 1.665.216.616.496 1.248.841 1.896.345.647.712 1.28 1.1 1.896l2.749 3.884 2.684-4.162c1.272-2.137 1.903-3.7 1.892-4.686-.01-.986-.07-1.603-.178-1.85l.421-.647.291-.37Zm-6.21 2.62c.022-.04.124-.123.307-.246.184-.123.416-.267.696-.432l4.56-2.867L8.922 7.06a1.31 1.31 0 0 1-.938.37 1.31 1.31 0 0 1-.938-.37 1.19 1.19 0 0 1-.388-.894c0-.35.13-.648.388-.894Zm.938.216a.676.676 0 0 0-.485.185.612.612 0 0 0-.194.463c0 .164.065.308.194.431.13.124.291.185.485.185a.636.636 0 0 0 .453-.185.579.579 0 0 0 .194-.431.612.612 0 0 0-.194-.463.636.636 0 0 0-.453-.185Z"/></svg>