<svg xmlns="http://www.w3.org/2000/svg" fill="currentColor" viewBox="0 0 16 16"><path d="M0 8.016c0-1.107.214-2.15.64-3.131a8.21 8.21 0 0 1 1.72-2.552A8.023 8.023 0 0 1 4.89.626 7.772 7.772 0 0 1 8 0c1.104 0 2.146.209 3.125.626.98.418 1.828.987 2.547 1.707a7.995 7.995 0 0 1 1.703 2.552c.417.98.625 2.024.625 3.13 0 1.107-.208 2.14-.625 3.1-.417.96-.984 1.8-1.703 2.521a8.192 8.192 0 0 1-2.547 1.722c-.98.428-2.02.642-3.125.642a7.61 7.61 0 0 1-3.11-.642 8.243 8.243 0 0 1-2.53-1.722 8.317 8.317 0 0 1-1.72-2.52 7.54 7.54 0 0 1-.64-3.1Zm1.188 0c0 .918.171 1.795.515 2.63a6.656 6.656 0 0 0 1.453 2.192 6.899 6.899 0 0 0 2.172 1.471A6.674 6.674 0 0 0 8 14.842c.875 0 1.75-.168 2.625-.502a5.413 5.413 0 0 0 2.188-1.502c.645-.564 1.15-1.3 1.515-2.208.365-.908.547-1.78.547-2.614a6.56 6.56 0 0 0-.5-2.505 7.166 7.166 0 0 0-3.578-3.773C9.953 1.33 9.02 1.128 8 1.128c-.625 0-1.23.083-1.813.25a8.433 8.433 0 0 0-1.687.689c.02.02.031.093.031.219v6.857c0 .042.016.13.047.266s.094.266.188.391c.093.126.218.24.375.345.156.104.349.156.578.156.25 0 .448-.047.593-.14.146-.095.26-.199.344-.314.084-.114.14-.245.172-.391.031-.146.047-.25.047-.313v-1.66c0-.104.02-.281.063-.532a2.38 2.38 0 0 1 .28-.767c.147-.261.376-.501.688-.72.313-.22.73-.329 1.25-.329.417 0 .776.089 1.078.266.303.178.542.386.72.626.176.24.301.49.374.752.073.26.11.496.11.704V8.58c0 .188-.063.329-.188.423a.623.623 0 0 1-.375.14c-.396 0-.594-.187-.594-.563V7.483c0-.083-.015-.188-.047-.313a1.706 1.706 0 0 0-.156-.391 1.067 1.067 0 0 0-.328-.36c-.146-.105-.344-.157-.594-.157-.27 0-.49.058-.656.172a1.116 1.116 0 0 0-.5.768c-.02.125-.031.219-.031.281v1.754c0 .167-.032.376-.094.626a2.18 2.18 0 0 1-1.047 1.362c-.302.178-.672.266-1.11.266-.895 0-1.562-.407-2-1.22a1.58 1.58 0 0 1-.234-.721c-.01-.23-.026-.365-.046-.407V2.849a.493.493 0 0 1-.126.188l-.124.125A5.739 5.739 0 0 0 1.702 5.34a7.196 7.196 0 0 0-.516 2.677Zm9.687 1.127c.188 0 .328.062.422.188a.66.66 0 0 1 .14.407c0 .376-.187.563-.562.563-.375 0-.563-.188-.563-.563 0-.146.047-.282.141-.407.094-.126.235-.188.422-.188Zm-.281 2.88v-1.19c0-.166.094-.25.281-.25.188 0 .281.084.281.25v1.19c0 .188-.094.282-.281.282-.188 0-.281-.094-.281-.281Zm-1.625-.751.781-.814c.042-.042.104-.063.188-.063.208 0 .312.073.312.22a.3.3 0 0 1-.094.219l-.75.814a.218.218 0 0 0-.094.015.218.218 0 0 1-.093.016c-.021.02-.042.031-.063.031-.125 0-.203-.03-.234-.094a.37.37 0 0 1-.047-.156c0-.063.031-.125.094-.188Zm2.812-.908c.063 0 .125.031.188.094l.781.814a.3.3 0 0 1 .094.22c0 .145-.084.218-.25.218.041 0 .041-.005 0-.015a3.913 3.913 0 0 0-.25-.047l-.75-.814a.387.387 0 0 1-.063-.22c0-.041.021-.094.063-.156a.21.21 0 0 1 .187-.094Z"/></svg>