<svg xmlns="http://www.w3.org/2000/svg" fill="currentColor" viewBox="0 0 16 16"><path d="M4 9.313c0-.063.01-.105.031-.126l.063-.25c.042-.083.094-.13.157-.14a.281.281 0 0 0 .157-.078l5.835-1.75c.23 0 .408.031.534.093.125.063.188.24.188.532 0 .27-.126.437-.377.5L5.882 9.53c.168.271.283.615.346 1.031.062.417.094.771.094 1.063h-1.13c0-.48-.063-.885-.188-1.219-.126-.333-.272-.51-.44-.531.022 0 .022.005 0 .016a.22.22 0 0 1-.093.015.584.584 0 0 1-.298-.11C4.058 9.725 4 9.564 4 9.314ZM5.349 14v-1c0-.333.146-.5.44-.5h3.607c.126 0 .236.047.33.14a.486.486 0 0 1 .14.36v1a.486.486 0 0 1-.47.5H5.788c-.293 0-.439-.167-.439-.5Zm-.941-7.594 5.835-1.75c.021-.02.084-.031.188-.031.147 0 .267.052.361.156a.712.712 0 0 1 .126.75c-.052.125-.162.209-.33.25l-5.835 1.75c-.021.021-.073.032-.157.032-.293 0-.481-.136-.565-.407a.68.68 0 0 1 .047-.484.524.524 0 0 1 .33-.266Zm0-2.312 5.835-1.75c.021-.021.084-.031.188-.031.147 0 .267.052.361.156a.712.712 0 0 1 .126.75c-.052.125-.162.208-.33.25l-5.835 1.75c-.021.02-.073.031-.157.031-.272 0-.46-.146-.565-.438a.61.61 0 0 1 .047-.453.524.524 0 0 1 .33-.265Zm0-2.313 5.835-1.75c.021-.02.084-.031.188-.031.147 0 .267.052.361.156a.795.795 0 0 1 .188.36.563.563 0 0 1-.046.39c-.063.125-.178.209-.346.25L4.753 2.875c-.021.02-.073.031-.157.031-.272 0-.46-.146-.565-.437a.542.542 0 0 1 .047-.422.524.524 0 0 1 .33-.266ZM10.4 9.313c.272 0 .455.114.55.343.093.23.057.427-.11.594a.36.36 0 0 1-.205.11.704.704 0 0 0-.47.281c-.073.093-.141.255-.204.484l-.063.5H8.706c.042-.25.094-.51.157-.781s.157-.521.282-.75c.126-.23.288-.417.487-.563.198-.146.454-.219.768-.219ZM9.616 15l-.314.313c-.46.458-1.025.687-1.694.687-.69 0-1.265-.23-1.726-.688L5.6 15h4.016Zm-1.569-1c.293 0 .44-.167.44-.5 0-.333-.147-.5-.44-.5-.293 0-.44.167-.44.5 0 .333.147.5.44.5Z"/></svg>