<svg xmlns="http://www.w3.org/2000/svg" fill="currentColor" viewBox="0 0 16 16"><path d="M9 7c.27 0 .505.094.703.281A.947.947 0 0 1 10 8v7c0 .27-.099.505-.297.703A.961.961 0 0 1 9 16H1a.947.947 0 0 1-.719-.297A.988.988 0 0 1 0 15V8c0-.292.094-.531.281-.719A.973.973 0 0 1 1 7h8Zm0 1H1v7h8V8Zm6.719-5.25c.187.208.281.448.281.719 0 .27-.094.51-.281.719l-2.875 2.687a.478.478 0 0 1-.344.156.478.478 0 0 1-.344-.156.494.494 0 0 1 0-.719L14.5 4H8.531c-.333 0-.5-.167-.5-.5 0-.333.167-.5.5-.5H14.5L12.156.875a.494.494 0 0 1 0-.719A.478.478 0 0 1 12.5 0c.125 0 .24.052.344.156l2.875 2.594Z"/></svg>