<svg xmlns="http://www.w3.org/2000/svg" fill="currentColor" viewBox="0 0 16 16"><path d="M2.838 5.132c.402 0 .78.076 1.132.226.352.151.659.353.92.604.262.252.468.554.62.906.15.352.226.72.226 1.102 0 .845-.282 1.534-.845 2.068-.564.533-1.248.8-2.053.8-.383 0-.745-.07-1.087-.212a2.75 2.75 0 0 1-.906-.603 2.908 2.908 0 0 1-.619-.921A2.843 2.843 0 0 1 0 7.97c0-.383.075-.75.226-1.102a2.74 2.74 0 0 1 .62-.906 3.1 3.1 0 0 1 .905-.604c.342-.15.704-.226 1.087-.226Zm10.324 0c.383 0 .745.076 1.087.226.342.151.644.353.906.604.261.252.468.554.619.906.15.352.226.72.226 1.102 0 .402-.075.78-.226 1.132a2.897 2.897 0 0 1-.62.92 2.748 2.748 0 0 1-.905.604 2.823 2.823 0 0 1-1.087.212c-.805 0-1.49-.267-2.053-.8-.563-.534-.845-1.223-.845-2.068 0-.383.076-.75.227-1.102.15-.352.357-.654.618-.906.262-.251.569-.453.921-.604a2.86 2.86 0 0 1 1.132-.226ZM8.03 10.264c.383 0 .745.076 1.087.227.342.15.644.357.906.618.261.262.463.569.603.921.141.352.212.73.212 1.132a2.804 2.804 0 0 1-.815 1.993 2.958 2.958 0 0 1-.906.619c-.342.15-.704.226-1.087.226a2.86 2.86 0 0 1-1.132-.226 2.91 2.91 0 0 1-.92-.62 2.75 2.75 0 0 1-.604-.905 2.826 2.826 0 0 1-.212-1.087c0-.805.267-1.49.8-2.053.534-.563 1.223-.845 2.068-.845Zm0-4.528c-.845 0-1.534-.282-2.068-.845-.533-.564-.8-1.248-.8-2.053A2.804 2.804 0 0 1 6.898.226 2.86 2.86 0 0 1 8.03 0c.383 0 .745.075 1.087.226.342.151.644.358.906.62.261.26.463.563.603.905.141.342.212.704.212 1.087 0 .402-.07.78-.212 1.132a2.71 2.71 0 0 1-.603.92 2.956 2.956 0 0 1-.906.62c-.342.15-.704.226-1.087.226Zm0-4.559c-.503 0-.92.161-1.253.483a1.578 1.578 0 0 0-.498 1.178c0 .483.166.89.498 1.222.332.332.75.498 1.253.498.463 0 .86-.166 1.193-.498.332-.332.498-.74.498-1.222a1.58 1.58 0 0 0-.498-1.178 1.653 1.653 0 0 0-1.193-.483Z"/></svg>