<svg xmlns="http://www.w3.org/2000/svg" fill="currentColor" viewBox="0 0 16 16"><path d="M9.977 4.99V.593c0-.354.166-.541.498-.562a.67.67 0 0 1 .342.172.461.461 0 0 1 .156.358v3.68L15.082.157A.51.51 0 0 1 15.455 0a.58.58 0 0 1 .374.125c.228.27.228.52 0 .748l-4.203 4.148h3.83c.29 0 .456.146.497.437 0 .354-.166.54-.498.562h-4.482a.942.942 0 0 1-.716-.297 1.026 1.026 0 0 1-.28-.733ZM.17 15.127l4.171-4.117H.514c-.29 0-.457-.146-.498-.437 0-.353.166-.54.498-.561h4.482c.29 0 .53.098.716.296.187.198.28.442.28.733v4.398c0 .353-.166.54-.498.561a.67.67 0 0 1-.342-.171.461.461 0 0 1-.156-.36v-3.68L.918 15.845A.509.509 0 0 1 .545 16a.578.578 0 0 1-.374-.125c-.228-.27-.228-.52 0-.748Zm13.79-1.123V8.016h.996v5.988c0 .27-.093.504-.28.702a.942.942 0 0 1-.716.296H7.984v-.998h5.977ZM2.008 8.016h-.996V2.027c0-.29.098-.53.295-.717a.983.983 0 0 1 .7-.28h5.977v.997H2.008v5.989Z"/></svg>