<svg xmlns="http://www.w3.org/2000/svg" fill="currentColor" viewBox="0 0 16 16"><path d="M2 10v4h12V2H6V1h8c.27 0 .505.094.703.281A.947.947 0 0 1 15 2v12c0 .27-.099.505-.297.703A.961.961 0 0 1 14 15H2a.947.947 0 0 1-.719-.297A.988.988 0 0 1 1 14v-4h1Zm5.5-2.5V4h1v3.5H12v1H8.5V12h-1V8.5H4v-1h3.5ZM.188 7.094l2.718-2.969c.125-.104.125-.219 0-.344L.22.875C-.03.645-.03.406.22.156A.478.478 0 0 1 .563 0c.125 0 .24.052.343.156L3.781 3.25c.188.208.281.448.281.719 0 .27-.093.5-.28.687L.905 7.813a.478.478 0 0 1-.343.156c-.084 0-.209-.052-.375-.157-.25-.25-.25-.49 0-.718Z"/></svg>