<svg xmlns="http://www.w3.org/2000/svg" fill="currentColor" viewBox="0 0 16 16"><path d="M8.002 9.815c.221-.225.453-.225.694 0 .201.247.201.493 0 .739l-3.078 3.138a.946.946 0 0 1-.694.308.853.853 0 0 1-.664-.308l-3.08-3.138c-.241-.246-.241-.492 0-.739.221-.225.443-.225.664 0l2.565 2.677v-8c0-.328.161-.492.483-.492.322 0 .483.164.483.492v8.062l2.626-2.739ZM15.5 4c.322 0 .483.164.483.492 0 .329-.161.493-.483.493h-5.017a.481.481 0 0 1-.332-.139.459.459 0 0 1-.151-.354c0-.143.05-.261.15-.354A.481.481 0 0 1 10.484 4H15.5Zm0 3.008c.322 0 .483.164.483.492 0 .328-.161.492-.483.492h-5.017a.481.481 0 0 1-.332-.138A.459.459 0 0 1 10 7.5a.46.46 0 0 1 .15-.354.481.481 0 0 1 .333-.138H15.5Zm0 3.007c.322 0 .483.165.483.493 0 .328-.161.492-.483.492h-5.017a.481.481 0 0 1-.332-.139.459.459 0 0 1-.151-.353.46.46 0 0 1 .15-.354.481.481 0 0 1 .333-.139H15.5Zm0 2.985c.322 0 .483.164.483.492 0 .328-.161.493-.483.493h-5.017a.48.48 0 0 1-.332-.139.459.459 0 0 1-.151-.354c0-.143.05-.261.15-.354a.48.48 0 0 1 .333-.138H15.5Z"/></svg>