<svg xmlns="http://www.w3.org/2000/svg" fill="currentColor" viewBox="0 0 16 16"><path d="M13.289 7.298a.949.949 0 0 1 .7-.28c.28 0 .513.093.7.28a.987.987 0 0 1 .311.718c0 .27-.104.509-.311.717l-5.973 5.986a.949.949 0 0 1-.7.281.949.949 0 0 1-.7-.28L1.31 8.763A.987.987 0 0 1 1 8.047c0-.27.104-.5.311-.686a.885.885 0 0 1 .685-.312.98.98 0 0 1 .715.312l4.947 4.895c.228.229.466.229.715 0l4.916-4.958Zm0-6.017a.949.949 0 0 1 .7-.281c.28 0 .513.094.7.28a.987.987 0 0 1 .311.718c0 .27-.104.509-.311.717L8.716 8.702a.949.949 0 0 1-.7.28.949.949 0 0 1-.7-.28L1.31 2.746A.987.987 0 0 1 1 2.03a.89.89 0 0 1 .311-.686.885.885 0 0 1 .685-.312.98.98 0 0 1 .715.312l4.947 4.895a.491.491 0 0 0 .715 0l4.916-4.957Z"/></svg>