<svg xmlns="http://www.w3.org/2000/svg" fill="currentColor" viewBox="0 0 16 16"><path d="M3 15V6l3.116-3h7.165c.279 0 .52.094.723.281a.934.934 0 0 1 .305.719v1h-1.028V4H7.145v2a.934.934 0 0 1-.306.719A1.072 1.072 0 0 1 6.084 7H4.028v8h9.253v-1h1.028v1a.96.96 0 0 1-.289.719 1.018 1.018 0 0 1-.739.281H4.028c-.3 0-.546-.094-.739-.281A.96.96 0 0 1 3 15Zm-3-2V1C0 .708.102.469.305.281.51.094.75 0 1.028 0H10v1H1v12H0Zm11.835-2.438 1.028-.124c.065.312.204.541.418.687a1.1 1.1 0 0 0 .29.188V9.687l-.29-.093c-.407-.167-.723-.36-.948-.578-.225-.22-.337-.568-.337-1.047 0-.375.107-.698.321-.969.214-.27.536-.458.964-.563a.764.764 0 0 0 .145-.015.764.764 0 0 1 .144-.016V6h.579v.406c.085 0 .139.01.16.032.45.062.787.208 1.012.437.225.23.37.52.434.875l-.996.125c-.107-.25-.257-.427-.45-.531a.374.374 0 0 1-.08-.047.374.374 0 0 0-.08-.047v1.5c.042.02.07.031.08.031.01 0 .037.01.08.031.621.188 1.04.386 1.253.594.236.292.354.636.354 1.031 0 .48-.123.855-.37 1.126-.246.27-.659.468-1.237.593-.043 0-.07.005-.08.016-.01.01-.038.015-.08.015v.657h-.579v-.625c-.171 0-.268-.01-.289-.031a1.676 1.676 0 0 1-.964-.594 2.185 2.185 0 0 1-.482-1.031ZM5.57 10h4.08c.343 0 .515.167.515.5 0 .125-.048.24-.145.344a.481.481 0 0 1-.37.156H5.57a.497.497 0 0 1-.353-.156.472.472 0 0 1-.16-.344c0-.146.053-.266.16-.36A.525.525 0 0 1 5.57 10Zm0 2h4.08c.343 0 .515.167.515.5 0 .125-.048.24-.145.344a.481.481 0 0 1-.37.156H5.57a.497.497 0 0 1-.353-.156.472.472 0 0 1-.16-.344c0-.146.053-.266.16-.36A.525.525 0 0 1 5.57 12Zm8.74-.656c.235-.063.385-.146.449-.25a.817.817 0 0 0 .193-.5.684.684 0 0 0-.097-.39c-.064-.095-.246-.194-.546-.298a.286.286 0 0 0-.08-.031.286.286 0 0 1-.08-.031v1.531c.042 0 .07-.005.08-.016.01-.01.037-.015.08-.015Zm-1.35-3.438c0 .104.016.198.048.282.032.083.123.166.273.25a.286.286 0 0 0 .129.078.56.56 0 0 1 .16.078V7.25a.526.526 0 0 0-.289.125.667.667 0 0 0-.257.266.641.641 0 0 0-.064.265Z"/></svg>