<svg xmlns="http://www.w3.org/2000/svg" fill="currentColor" viewBox="0 0 16 16"><path d="M9.156 4.031H6.812L7.97 2.313 9.156 4.03ZM7.97 0a7.73 7.73 0 0 1 3.125.64c.979.428 1.828 1 2.547 1.72a8.193 8.193 0 0 1 1.718 2.546 7.72 7.72 0 0 1 .641 3.125c0 1.084-.213 2.11-.64 3.078-.428.97-1 1.818-1.72 2.547a7.852 7.852 0 0 1-2.546 1.719A7.895 7.895 0 0 1 7.97 16a7.707 7.707 0 0 1-3.078-.625 7.897 7.897 0 0 1-2.532-1.719A8.445 8.445 0 0 1 .641 11.11 7.547 7.547 0 0 1 0 8.031c0-1.104.214-2.146.64-3.125.428-.979 1-1.828 1.72-2.547A8.245 8.245 0 0 1 4.89.641 7.546 7.546 0 0 1 7.97 0Zm0 14.844a6.84 6.84 0 0 0 2.672-.531 6.934 6.934 0 0 0 2.203-1.454 6.67 6.67 0 0 0 1.469-2.171 6.72 6.72 0 0 0 .53-2.657 6.72 6.72 0 0 0-.53-2.656 6.85 6.85 0 0 0-1.47-2.188 7.017 7.017 0 0 0-2.202-1.484 6.664 6.664 0 0 0-2.672-.547c-.938 0-1.823.183-2.657.547a6.88 6.88 0 0 0-2.171 1.484 6.982 6.982 0 0 0-1.454 2.188 6.72 6.72 0 0 0-.53 2.656c0 .938.176 1.823.53 2.656a6.796 6.796 0 0 0 1.454 2.172 6.796 6.796 0 0 0 2.171 1.454 6.72 6.72 0 0 0 2.657.53ZM12.687 4.5c.126 0 .188.083.188.25.02.104.01.177-.031.219l-4 4.093c-.063.063-.104.094-.125.094L3.438 11.5c-.021.02-.063.031-.126.031-.145-.062-.218-.166-.218-.312-.021-.042-.01-.084.031-.125l4.094-4.156.093-.094a372.57 372.57 0 0 0 3.032-1.36c.708-.323 1.229-.557 1.562-.703.334-.146.531-.234.594-.265l.094-.047c.02 0 .036.005.047.015.01.01.026.016.046.016ZM7.97 8.563a.644.644 0 0 0 .422-.141.477.477 0 0 0 .171-.39.573.573 0 0 0-.171-.423.573.573 0 0 0-.422-.171.477.477 0 0 0-.39.171.644.644 0 0 0-.141.422c0 .167.046.297.14.39a.524.524 0 0 0 .39.142Z"/></svg>