<svg xmlns="http://www.w3.org/2000/svg" fill="currentColor" viewBox="0 0 16 16"><path d="M0 15V3.5c0-.333.167-.5.5-.5h3c.125 0 .24.047.344.14A.462.462 0 0 1 4 3.5V8h11.5c.125 0 .24.047.344.14A.462.462 0 0 1 16 8.5V15h-3v-3.75c0-.167-.083-.25-.25-.25h-1.5c-.167 0-.25.083-.25.25V15H0Zm10-1v-2.75c0-.313.094-.583.281-.813a1.1 1.1 0 0 1 .719-.406c.02-.02.104-.031.25-.031h1.5c.354 0 .651.12.89.36.24.239.36.536.36.89V14h1V9H3V4H1v10h9Zm1-7V4.437c0-.166.083-.25.25-.25.063 0 .104.01.125.032l3.844 2.312c.104.063.14.157.11.282-.032.125-.11.187-.235.187H11ZM6 4.437c0-.166.083-.25.25-.25.063 0 .104.01.125.032l3.844 2.312c.104.063.14.157.11.282-.032.125-.11.187-.235.187H6.25C6.083 7 6 6.917 6 6.75V4.437ZM0 1.876v-.75C0 1.042.083 1 .25 1h3.5c.167 0 .25.042.25.125v.75C4 1.958 3.917 2 3.75 2H.25C.083 2 0 1.958 0 1.875ZM6 10h1.75c.167 0 .25.083.25.25v1.5c0 .167-.083.25-.25.25h-1.5c-.167 0-.25-.083-.25-.25V10Zm-3 1.75v-1.5c0-.167.083-.25.25-.25h1.5c.167 0 .25.083.25.25v1.5c0 .167-.083.25-.25.25h-1.5c-.167 0-.25-.083-.25-.25Z"/></svg>