<svg xmlns="http://www.w3.org/2000/svg" fill="currentColor" viewBox="0 0 16 16"><path d="M7 9.004c0-.293.099-.533.297-.722A.986.986 0 0 1 8 8h7c.292 0 .531.094.719.282a.978.978 0 0 1 .281.722v5.988a.993.993 0 0 1-.281.705.945.945 0 0 1-.719.298H8a.96.96 0 0 1-.703-.298.966.966 0 0 1-.297-.705V9.004ZM.125 1.448c.063-.126.161-.24.297-.345C.557.998.75.946 1 .946h5.625A.51.51 0 0 1 7 1.103l.75.846H15a.947.947 0 0 1 .875.502.996.996 0 0 1 .125.502v3.04h-1V3.957a1.405 1.405 0 0 0-.313-.705c-.166-.199-.395-.298-.687-.298H7.219a.51.51 0 0 1-.375-.157l-.688-.69a.51.51 0 0 0-.375-.157H2c-.25 0-.443.053-.578.157a1.02 1.02 0 0 0-.297.345.996.996 0 0 0-.125.501v10.032c0 .272.052.47.156.596.104.125.219.22.344.282a.987.987 0 0 0 .5.126h3v1.003H1a.987.987 0 0 1-.5-.126 1.011 1.011 0 0 1-.344-.297c-.104-.136-.156-.33-.156-.58V1.949c0-.188.042-.355.125-.501Z"/></svg>