<svg xmlns="http://www.w3.org/2000/svg" fill="currentColor" viewBox="0 0 16 16"><path d="M11 15v-.563c-.02-.02-.031-.104-.031-.25 0-.124-.01-.197-.031-.218-.126-.48-.428-.781-.907-.906-.02-.021-.094-.032-.219-.032-.145 0-.229-.01-.25-.031H7.438c-.021.02-.094.031-.22.031-.124 0-.197.01-.218.031-.542.105-.844.407-.906.907C6.03 14.239 6 14.583 6 15h5Zm-2.5-4c.417 0 .77-.146 1.063-.438.291-.291.437-.645.437-1.062 0-.417-.146-.77-.438-1.063A1.447 1.447 0 0 0 8.5 8c-.417 0-.77.146-1.063.438A1.447 1.447 0 0 0 7 9.5c0 .417.146.77.438 1.063.291.291.645.437 1.062.437Zm-5-10c-.417 0-.77.146-1.063.438A1.447 1.447 0 0 0 2 2.5c0 .417.146.77.438 1.063.291.291.645.437 1.062.437.417 0 .77-.146 1.063-.438C4.854 3.272 5 2.917 5 2.5c0-.417-.146-.77-.438-1.063A1.447 1.447 0 0 0 3.5 1Zm9 1c-.417 0-.77.146-1.063.438A1.446 1.446 0 0 0 11 3.5c0 .417.146.77.438 1.063.291.291.645.437 1.062.437.417 0 .77-.146 1.063-.438.291-.291.437-.645.437-1.062 0-.417-.146-.77-.438-1.063A1.447 1.447 0 0 0 12.5 2ZM3.344 5a2.413 2.413 0 0 1-1.672-.781A2.43 2.43 0 0 1 1 2.5c0-.73.234-1.328.703-1.797C2.172.234 2.771 0 3.5 0c.646 0 1.24.24 1.781.719C5.761 1.26 6 1.854 6 2.5c0 .604-.198 1.14-.594 1.61a2.451 2.451 0 0 1-1.5.859c.313 0 .625.01.938.031.312.02.625.063.937.125.48.125.886.417 1.219.875-.02.02-.063.031-.125.031-.02.021-.042.032-.063.032-.02 0-.041.01-.062.03-.02.022-.042.032-.063.032-.02 0-.041.01-.062.031-.02.021-.052.032-.094.032-.02 0-.041.01-.062.03A1.391 1.391 0 0 0 6 6.5a.833.833 0 0 1-.219-.156l-.656-.282a2.385 2.385 0 0 0-.688-.093h-1.03c-.022.02-.115.031-.282.031-.167 0-.26.01-.281.031a2.166 2.166 0 0 0-.906.25l-.125.125c-.292.167-.5.386-.625.657-.125.27-.188.572-.188.906V11h3v1H0V7.969c0-.563.094-1.01.281-1.344a2.41 2.41 0 0 1 .75-.906l.188-.125c.02 0 .041-.01.062-.032a.724.724 0 0 0 .157-.093l.125-.063a1.25 1.25 0 0 1 .53-.187l.626-.125c.02-.021.073-.032.156-.032s.135-.01.156-.03c.188 0 .292-.011.313-.032ZM11 9.5a2.41 2.41 0 0 1-.734 1.766c-.49.49-1.079.734-1.766.734H9c1.125 0 1.906.219 2.344.656.437.438.656 1.219.656 2.344v1H5v-1c0-1.125.219-1.906.656-2.344C6.094 12.22 6.875 12 8 12h.5c-.688 0-1.27-.25-1.75-.75-.5-.48-.75-1.063-.75-1.75 0-.688.245-1.276.734-1.766A2.407 2.407 0 0 1 8.5 7c.646 0 1.24.24 1.781.719.48.541.719 1.135.719 1.781ZM12.5 6c-.73 0-1.328-.234-1.797-.703C10.234 4.828 10 4.229 10 3.5c0-.73.234-1.328.703-1.797C11.172 1.234 11.771 1 12.5 1c.646 0 1.24.24 1.781.719.48.541.719 1.135.719 1.781a2.41 2.41 0 0 1-.734 1.766c-.49.49-1.079.734-1.766.734Zm.5 0c.667 0 1.198.11 1.594.328.396.219.698.51.906.875.208.365.344.787.406 1.266.063.479.094.99.094 1.531v3h-3v-1h2V9.375c-.02-.02-.031-.115-.031-.281 0-.167-.01-.26-.031-.281a4.575 4.575 0 0 0-.282-.907c-.229-.354-.448-.593-.656-.718-.25-.125-.583-.188-1-.188-.375 0-.625.031-.75.094-.146.062-.24.146-.281.25l-.75-.75.094-.094c.02 0 .041-.01.062-.031a.722.722 0 0 0 .156-.094.725.725 0 0 1 .313-.156c.02-.021.041-.032.062-.032.021 0 .042-.01.063-.03a.692.692 0 0 1 .219-.032c.083 0 .145-.01.187-.031.167-.063.344-.094.531-.094H13Z"/></svg>