<svg xmlns="http://www.w3.org/2000/svg" fill="currentColor" viewBox="0 0 16 16"><path d="M5.375 9h.188a1.64 1.64 0 0 0 1.03-.469C6.866 8.261 7 7.917 7 7.5c0-.417-.146-.77-.438-1.063A1.447 1.447 0 0 0 5.5 6c-.417 0-.77.146-1.063.438A1.447 1.447 0 0 0 4 7.5c0 .396.135.73.406 1 .271.313.594.48.969.5ZM7.5 11.5c0 .292.094.531.281.719a.973.973 0 0 0 .719.281c.27 0 .51-.094.719-.281A.974.974 0 0 0 9.5 11.5a.974.974 0 0 0-.281-.719A1.043 1.043 0 0 0 8.5 10.5a.973.973 0 0 0-.719.281.974.974 0 0 0-.281.719ZM1 16v-4.031c0-.854.234-1.5.703-1.938.469-.437 1.1-.74 1.89-.906C3.199 8.667 3 8.125 3 7.5c0-.708.24-1.302.719-1.781C4.198 5.239 4.792 5 5.5 5c.667 0 1.26.24 1.781.719.48.52.719 1.114.719 1.781a2.693 2.693 0 0 1-.063.594 17.46 17.46 0 0 0-.109.281 2.604 2.604 0 0 1-.11.25c-.79.188-1.395.646-1.812 1.375 0 .02-.01.042-.031.063A3.633 3.633 0 0 0 5 9.969c-.354 0-.714.02-1.078.062-.365.042-.688.13-.969.266-.281.135-.51.338-.687.61-.177.27-.266.624-.266 1.062V16H1Zm6.375-2.844a1.726 1.726 0 0 1-.64-.719A2.08 2.08 0 0 1 6.5 11.5c0-.542.198-1.01.594-1.406A1.922 1.922 0 0 1 8.5 9.5c.542 0 1.01.198 1.406.594.396.396.594.864.594 1.406 0 .333-.078.651-.234.953-.157.302-.38.537-.672.703.354.23.625.521.812.875.188.354.302.74.344 1.156l.125.813H10v-.484c0-.157.01-.308.031-.454.021-.27-.052-.562-.219-.874-.041-.126-.15-.271-.328-.438-.177-.167-.338-.25-.484-.25H8c-.167 0-.333.094-.5.281-.208.209-.323.344-.344.406-.125.521-.187 1.126-.187 1.813h-.907a7.457 7.457 0 0 1 .313-1.625 2.01 2.01 0 0 1 1-1.219ZM0 5 6.969.375c.083-.042.166-.089.25-.14.083-.053.166-.1.25-.141a1.4 1.4 0 0 1 .5-.094c.354 0 .687.125 1 .375L16 5h-2L8.281 1.562C8.22 1.5 8.115 1.47 7.97 1.47c-.125 0-.219.031-.282.093L2 5H0Zm9 3.5c0-.708.24-1.302.719-1.781C10.198 6.239 10.792 6 11.5 6c.667 0 1.26.24 1.781.719.48.52.719 1.114.719 1.781a2.41 2.41 0 0 1-.734 1.766c-.49.49-1.079.734-1.766.734h-.063c-.02-.104-.041-.203-.062-.297a2.79 2.79 0 0 0-.344-.797c.125.063.281.094.469.094.417 0 .77-.146 1.063-.438.291-.291.437-.645.437-1.062 0-.417-.146-.77-.438-1.063A1.447 1.447 0 0 0 11.5 7c-.417 0-.77.146-1.063.438A1.446 1.446 0 0 0 10 8.5c0 .063.01.125.031.188 0 .124.01.218.031.28C9.854 8.76 9.5 8.626 9 8.564V8.5Zm2.438 3.531a.31.31 0 0 0 .03-.14.31.31 0 0 1 .032-.141v-.469a.252.252 0 0 1-.031-.11.252.252 0 0 0-.031-.108.31.31 0 0 1 .14-.032.31.31 0 0 0 .14-.031c.563 0 1.069.068 1.516.203.448.136.839.453 1.172.953.25.417.412.875.485 1.375.072.5.109.99.109 1.469v1h-1v-1a8.88 8.88 0 0 0-.078-1.219 2.509 2.509 0 0 0-.313-.953 1.575 1.575 0 0 0-.687-.61c-.302-.145-.714-.218-1.235-.218a.278.278 0 0 1-.124.031.278.278 0 0 0-.126.031v-.03Z"/></svg>