<svg xmlns="http://www.w3.org/2000/svg" fill="currentColor" viewBox="0 0 16 16"><path d="M.236 5.021h4.527c.083 0 .145-.052.187-.155L6.79.156C6.854.052 6.928 0 7.01 0c.083 0 .146.052.187.156l1.842 4.71c.042.103.114.155.218.155h4.527a.22.22 0 0 1 .218.14c.042.094.01.172-.094.235L10.35 8.172c-.104.041-.135.124-.094.25l.375.997-2.528 1.84-.968-.686c-.021-.02-.063-.031-.125-.031s-.104.01-.125.031l-4.776 3.4c-.02.02-.062.03-.125.03-.187 0-.25-.103-.187-.31L3.732 8.42c.084-.145.063-.229-.062-.25L.111 5.397c-.104-.063-.135-.14-.093-.234a.221.221 0 0 1 .218-.14Zm11.269 5.989H15.5c.334 0 .5.166.5.499a.504.504 0 0 1-.14.343.461.461 0 0 1-.36.156h-3.995a.477.477 0 0 1-.343-.156.477.477 0 0 1-.157-.343c0-.146.053-.265.157-.359a.503.503 0 0 1 .343-.14Zm-.5 4.491c0-.146.053-.265.157-.359a.503.503 0 0 1 .343-.14H15.5c.334 0 .5.166.5.499 0 .125-.047.24-.14.343a.461.461 0 0 1-.36.156h-3.995a.477.477 0 0 1-.343-.156.477.477 0 0 1-.157-.343Zm.5-2.495H15.5c.334 0 .5.166.5.499a.504.504 0 0 1-.14.343.461.461 0 0 1-.36.156h-3.995a.477.477 0 0 1-.343-.156.477.477 0 0 1-.157-.343c0-.146.053-.265.157-.359a.503.503 0 0 1 .343-.14Z"/></svg>