<svg xmlns="http://www.w3.org/2000/svg" fill="currentColor" viewBox="0 0 16 16"><path d="M0 3c0-.292.094-.531.281-.719A.973.973 0 0 1 1 2h2c.292 0 .531.094.719.281A.973.973 0 0 1 4 3v10a.974.974 0 0 1-.281.719A.973.973 0 0 1 3 14H1a.973.973 0 0 1-.719-.281A.974.974 0 0 1 0 13V3Zm0 12h15V7H5V6h10c.292 0 .531.094.719.281A.973.973 0 0 1 16 7v8a.974.974 0 0 1-.281.719A.974.974 0 0 1 15 16H1a.973.973 0 0 1-.719-.281A.974.974 0 0 1 0 15ZM6 5V1c0-.292.094-.531.281-.719A.973.973 0 0 1 7 0h5l3 3v2h-1V4h-1.969a1.03 1.03 0 0 1-.734-.281A.947.947 0 0 1 11 3V1H7v4H6Zm6 4c0-.292.094-.531.281-.719A.974.974 0 0 1 13 8c.292 0 .531.094.719.281A.973.973 0 0 1 14 9a.973.973 0 0 1-.281.719A.974.974 0 0 1 13 10a.974.974 0 0 1-.719-.281A.973.973 0 0 1 12 9Zm1 2c.292 0 .531.094.719.281A.974.974 0 0 1 14 12a.974.974 0 0 1-.281.719A.974.974 0 0 1 13 13a.974.974 0 0 1-.719-.281A.974.974 0 0 1 12 12c0-.292.094-.531.281-.719A.974.974 0 0 1 13 11ZM6 9c0-.292.094-.531.281-.719A.973.973 0 0 1 7 8c.292 0 .531.094.719.281A.973.973 0 0 1 8 9a.973.973 0 0 1-.281.719A.973.973 0 0 1 7 10a.973.973 0 0 1-.719-.281A.973.973 0 0 1 6 9Zm1 2c.292 0 .531.094.719.281A.974.974 0 0 1 8 12a.974.974 0 0 1-.281.719A.973.973 0 0 1 7 13a.973.973 0 0 1-.719-.281A.974.974 0 0 1 6 12c0-.292.094-.531.281-.719A.973.973 0 0 1 7 11Zm2 1c0-.292.094-.531.281-.719A.973.973 0 0 1 10 11c.292 0 .531.094.719.281A.974.974 0 0 1 11 12a.974.974 0 0 1-.281.719A.974.974 0 0 1 10 13a.973.973 0 0 1-.719-.281A.974.974 0 0 1 9 12Zm1-4c.292 0 .531.094.719.281A.973.973 0 0 1 11 9a.973.973 0 0 1-.281.719A.974.974 0 0 1 10 10a.973.973 0 0 1-.719-.281A.973.973 0 0 1 9 9c0-.292.094-.531.281-.719A.973.973 0 0 1 10 8Z"/></svg>