<svg xmlns="http://www.w3.org/2000/svg" fill="currentColor" viewBox="0 0 16 16"><path d="M1 11.5c0-.48.094-.932.281-1.36a3.63 3.63 0 0 1 .75-1.109 3.594 3.594 0 0 1 1.11-.75A3.348 3.348 0 0 1 4.5 8c.48 0 .932.094 1.36.281a3.63 3.63 0 0 1 1.109.75c.312.313.562.683.75 1.11.187.427.281.88.281 1.359 0 .48-.094.932-.281 1.36a3.594 3.594 0 0 1-.75 1.109 3.598 3.598 0 0 1-1.11.75c-.427.187-.88.281-1.359.281-.48 0-.932-.094-1.36-.281a3.598 3.598 0 0 1-1.109-.75 3.594 3.594 0 0 1-.75-1.11A3.345 3.345 0 0 1 1 11.5ZM1 2V1h1.031c1.875 0 3.604.323 5.188.969 1.583.646 2.953 1.547 4.11 2.703 1.155 1.156 2.056 2.526 2.702 4.11.646 1.583.969 3.312.969 5.187V15h-1v-1.031c0-1.75-.297-3.354-.89-4.813-.594-1.458-1.422-2.719-2.485-3.781-1.063-1.063-2.323-1.89-3.781-2.484C5.385 2.297 3.78 2 2.03 2H1Zm1 9.5c0 .688.245 1.276.734 1.766.49.49 1.079.734 1.766.734a2.41 2.41 0 0 0 1.766-.734c.49-.49.734-1.079.734-1.766 0-.708-.245-1.302-.734-1.781A2.434 2.434 0 0 0 4.5 9c-.688 0-1.276.24-1.766.719S2 10.792 2 11.5ZM1 4h1a9.52 9.52 0 0 1 3.875.797 10.306 10.306 0 0 1 3.172 2.156 10.305 10.305 0 0 1 2.156 3.172A9.52 9.52 0 0 1 12 14v1h-1v-1a8.83 8.83 0 0 0-.703-3.516 9.03 9.03 0 0 0-1.922-2.859 9.03 9.03 0 0 0-2.86-1.922A8.83 8.83 0 0 0 2 5H1V4Z"/></svg>