<svg xmlns="http://www.w3.org/2000/svg" fill="currentColor" viewBox="0 0 16 16"><path d="M11.5 1c.625 0 1.208.12 1.75.36a4.637 4.637 0 0 1 1.422.968c.406.406.729.88.969 1.422.24.542.359 1.125.359 1.75s-.12 1.208-.36 1.75a4.652 4.652 0 0 1-.968 1.422c-.406.406-.88.729-1.422.969-.542.24-1.125.359-1.75.359s-1.208-.12-1.75-.36a4.65 4.65 0 0 1-1.422-.968A4.65 4.65 0 0 1 7.36 7.25 4.277 4.277 0 0 1 7 5.5c0-.625.12-1.208.36-1.75a4.637 4.637 0 0 1 .968-1.422c.406-.406.88-.729 1.422-.969A4.278 4.278 0 0 1 11.5 1ZM7.937 5.5c0 .5.094.964.282 1.39a3.651 3.651 0 0 0 1.89 1.891c.428.188.891.281 1.391.281s.963-.093 1.39-.28a3.65 3.65 0 0 0 1.891-1.891 3.42 3.42 0 0 0 .281-1.391c0-.5-.093-.964-.28-1.39a3.651 3.651 0 0 0-1.891-1.891 3.42 3.42 0 0 0-1.391-.281c-.5 0-.963.093-1.39.28A3.651 3.651 0 0 0 8.218 4.11a3.42 3.42 0 0 0-.28 1.39ZM0 5c0-.542.198-1.01.594-1.406A1.922 1.922 0 0 1 2 3h4.594c-.146.27-.271.604-.375 1H2a.924.924 0 0 0-.719.313A.935.935 0 0 0 1 5v6c0 .292.094.531.281.719A.973.973 0 0 0 2 12h2v2.5l2-2.469L13 12a.974.974 0 0 0 .719-.281A.974.974 0 0 0 14 11v-.594c.208-.125.396-.24.563-.344A4.03 4.03 0 0 0 15 9.75V11c0 .563-.193 1.037-.578 1.422-.386.385-.86.578-1.422.578H6.5l-2.438 2.875c-.083.083-.218.125-.406.125a.684.684 0 0 1-.453-.172.564.564 0 0 1-.203-.453V13H2a1.933 1.933 0 0 1-1.422-.578A1.933 1.933 0 0 1 0 11V5Zm9.156 1.188.063-.063a.3.3 0 0 1 .219-.094c.104 0 .187.042.25.125.562.625 1.166.938 1.812.938.688 0 1.292-.313 1.813-.938a.338.338 0 0 1 .25-.093.3.3 0 0 1 .218.093h.031c0 .021.006.032.016.032s.016.01.016.03c.166.147.177.292.031.438-.333.417-.703.724-1.11.922a2.792 2.792 0 0 1-1.234.297c-.416 0-.833-.099-1.25-.297-.416-.198-.802-.505-1.156-.922a.272.272 0 0 1-.078-.234.38.38 0 0 1 .11-.234Zm2.938-2.125c0-.209.068-.365.203-.47a.725.725 0 0 1 .453-.155c.167 0 .313.052.438.156.124.104.187.26.187.469 0 .208-.063.364-.188.468a.663.663 0 0 1-.437.157.725.725 0 0 1-.453-.157c-.136-.104-.203-.26-.203-.468Zm-1.844-.625c.167 0 .313.052.438.156.124.104.187.26.187.469 0 .208-.063.364-.188.468a.663.663 0 0 1-.437.157.725.725 0 0 1-.453-.157c-.136-.104-.203-.26-.203-.468 0-.209.067-.365.203-.47a.725.725 0 0 1 .453-.155Z"/></svg>