<svg xmlns="http://www.w3.org/2000/svg" fill="currentColor" viewBox="0 0 16 16"><path d="M8 12v3.5c0 .333-.167.5-.5.5-.333 0-.5-.167-.5-.5V12H4c-.333 0-.5-.167-.5-.5 0-.333.167-.5.5-.5h3V8.937a4.543 4.543 0 0 1-1.578-.468A4.31 4.31 0 0 1 4.156 7.5a4.663 4.663 0 0 1-.843-1.36A4.3 4.3 0 0 1 3 4.5c0-.625.12-1.208.36-1.75a4.637 4.637 0 0 1 .968-1.422C4.734.922 5.208.6 5.75.36A4.277 4.277 0 0 1 7.5 0c.625 0 1.208.12 1.75.36a4.637 4.637 0 0 1 1.422.968c.406.406.729.88.969 1.422.24.542.359 1.125.359 1.75a4.3 4.3 0 0 1-.313 1.64c-.208.511-.49.964-.843 1.36a4.31 4.31 0 0 1-1.266.969c-.49.25-1.015.406-1.578.469V11h3c.333 0 .5.167.5.5 0 .333-.167.5-.5.5H8ZM4 4.5c0 .48.094.932.281 1.36.188.426.438.796.75 1.109.313.312.683.562 1.11.75.427.187.88.281 1.359.281.48 0 .932-.094 1.36-.281a3.594 3.594 0 0 0 1.109-.75c.312-.313.562-.683.75-1.11.187-.427.281-.88.281-1.359 0-.48-.094-.932-.281-1.36a3.597 3.597 0 0 0-.75-1.109 3.594 3.594 0 0 0-1.11-.75A3.344 3.344 0 0 0 7.5 1c-.48 0-.932.094-1.36.281a3.594 3.594 0 0 0-1.109.75 3.594 3.594 0 0 0-.75 1.11A3.348 3.348 0 0 0 4 4.5Z"/></svg>