<svg xmlns="http://www.w3.org/2000/svg" fill="currentColor" viewBox="0 0 16 16"><path d="M12 1h2c.27 0 .505.099.703.297A.961.961 0 0 1 15 2v12a.947.947 0 0 1-.297.719A.988.988 0 0 1 14 15h-2a.974.974 0 0 1-.719-.281A.974.974 0 0 1 11 14V2c0-.27.094-.505.281-.703A.947.947 0 0 1 12 1ZM6 14V5c0-.27.094-.505.281-.703A.947.947 0 0 1 7 4h2c.27 0 .505.099.703.297A.961.961 0 0 1 10 5v9a.947.947 0 0 1-.297.719A.988.988 0 0 1 9 15H7a.973.973 0 0 1-.719-.281A.974.974 0 0 1 6 14ZM2 8h2c.27 0 .505.099.703.297A.961.961 0 0 1 5 9v5a.947.947 0 0 1-.297.719A.988.988 0 0 1 4 15H2a.973.973 0 0 1-.719-.281A.974.974 0 0 1 1 14V9c0-.27.094-.505.281-.703A.947.947 0 0 1 2 8Zm7 6V5H7v9h2Z"/></svg>