<svg xmlns="http://www.w3.org/2000/svg" fill="currentColor" viewBox="0 0 16 16"><path d="M1.5 14h5c.146 0 .266.052.36.156.093.104.14.219.14.344 0 .333-.167.5-.5.5h-5c-.333 0-.5-.167-.5-.5 0-.125.047-.24.14-.344A.462.462 0 0 1 1.5 14Zm8-6h5c.146 0 .266.052.36.156.093.104.14.219.14.344 0 .333-.167.5-.5.5h-5c-.333 0-.5-.167-.5-.5 0-.125.047-.24.14-.344A.462.462 0 0 1 9.5 8Zm0-6h5c.146 0 .266.052.36.156.093.104.14.219.14.344 0 .333-.167.5-.5.5h-5c-.333 0-.5-.167-.5-.5 0-.125.047-.24.14-.344A.462.462 0 0 1 9.5 2Zm0 3h5c.146 0 .266.052.36.156.093.104.14.219.14.344 0 .333-.167.5-.5.5h-5c-.333 0-.5-.167-.5-.5 0-.125.047-.24.14-.344A.462.462 0 0 1 9.5 5ZM1 8.5c0-.125.047-.24.14-.344A.462.462 0 0 1 1.5 8h5c.146 0 .266.052.36.156.093.104.14.219.14.344 0 .333-.167.5-.5.5h-5c-.333 0-.5-.167-.5-.5Zm0 3c0-.125.047-.24.14-.344A.462.462 0 0 1 1.5 11h5c.146 0 .266.052.36.156.093.104.14.219.14.344 0 .333-.167.5-.5.5h-5c-.333 0-.5-.167-.5-.5ZM9.5 14h5c.146 0 .266.052.36.156.093.104.14.219.14.344 0 .333-.167.5-.5.5h-5c-.333 0-.5-.167-.5-.5 0-.125.047-.24.14-.344A.462.462 0 0 1 9.5 14Zm-8-12h5c.146 0 .266.052.36.156.093.104.14.219.14.344 0 .333-.167.5-.5.5h-5c-.333 0-.5-.167-.5-.5 0-.125.047-.24.14-.344A.462.462 0 0 1 1.5 2ZM9 11.5c0-.125.047-.24.14-.344A.462.462 0 0 1 9.5 11h5c.146 0 .266.052.36.156.093.104.14.219.14.344 0 .333-.167.5-.5.5h-5c-.333 0-.5-.167-.5-.5Zm-8-6c0-.125.047-.24.14-.344A.462.462 0 0 1 1.5 5h5c.146 0 .266.052.36.156.093.104.14.219.14.344 0 .333-.167.5-.5.5h-5c-.333 0-.5-.167-.5-.5Z"/></svg>