<svg xmlns="http://www.w3.org/2000/svg" fill="currentColor" viewBox="0 0 16 16"><path d="M13.995 1c.416 0 .712.177.89.531.176.354.15.698-.079 1.032-.25.25-.489.52-.718.812-.229.25-.468.531-.718.844-.25.312-.52.625-.812.937L10.28 7.72a.974.974 0 0 0-.28.718V12l-3.154 2.844A.416.416 0 0 1 6.5 15a.537.537 0 0 1-.343-.125c-.104-.083-.156-.208-.156-.375V8.437c0-.27-.104-.51-.312-.718L3.442 5.156a34.253 34.253 0 0 1-.843-.937c-.27-.313-.51-.589-.718-.828-.209-.24-.375-.438-.5-.594l-.187-.235c-.23-.333-.255-.677-.078-1.03.177-.355.473-.532.89-.532h11.989ZM9.56 7.031c.833-.937 1.572-1.77 2.217-2.5l.796-.922c.26-.302.494-.573.702-.812.209-.24.38-.432.516-.578L13.995 2H2.005l.188.234c.125.157.291.35.5.579.208.229.442.494.702.796.26.302.536.61.827.922.645.73 1.384 1.563 2.217 2.5.375.417.562.886.562 1.407v4.937l1.998-1.813V8.438c0-.563.187-1.032.562-1.407Z"/></svg>