<svg xmlns="http://www.w3.org/2000/svg" fill="currentColor" viewBox="0 0 16 16"><path d="M2 3h12c.292 0 .531.099.719.297A.988.988 0 0 1 15 4v2a.973.973 0 0 1-.281.719A.974.974 0 0 1 14 7H2a.988.988 0 0 1-.703-.281A.947.947 0 0 1 1 6V4c0-.27.099-.505.297-.703A.961.961 0 0 1 2 3Zm-1 9c0-.27.099-.505.297-.703A.961.961 0 0 1 2 11h12c.292 0 .531.099.719.297A.988.988 0 0 1 15 12v2a.974.974 0 0 1-.281.719A.974.974 0 0 1 14 15H2a.988.988 0 0 1-.703-.281A.947.947 0 0 1 1 14v-2Zm1-6h12V4H2v2Zm0 6v2h12v-2H2ZM1 1.5c0-.125.052-.24.156-.344A.478.478 0 0 1 1.5 1h5c.146 0 .266.052.36.156.093.104.14.219.14.344 0 .333-.167.5-.5.5h-5a.503.503 0 0 1-.344-.14A.462.462 0 0 1 1 1.5ZM1.5 9h5c.146 0 .266.052.36.156.093.104.14.219.14.344 0 .333-.167.5-.5.5h-5a.503.503 0 0 1-.344-.14A.462.462 0 0 1 1 9.5c0-.125.052-.24.156-.344A.478.478 0 0 1 1.5 9Z"/></svg>