<svg xmlns="http://www.w3.org/2000/svg" fill="currentColor" viewBox="0 0 16 16"><path d="M2.016.016h.997v15.968h-.997V.016Zm11.968 0V7.47c-.27.27-.582.53-.935.78a8.152 8.152 0 0 1-.483.28c-.156.083-.317.167-.483.25a2.837 2.837 0 0 1-1.09.218c-.063 0-.157-.01-.281-.031a3.2 3.2 0 0 1-.468-.125l-2.493-.686h-.063c-.02-.02-.051-.031-.093-.031C7.345 8.042 7.148 8 7.003 8c-.603 0-1.133.083-1.59.25-.457.145-.924.395-1.402.748V1.981c.166-.312.436-.634.81-.967.25-.229.592-.457 1.029-.686A3.57 3.57 0 0 1 7.346.016c.104 0 .207.01.311.031.104.021.208.052.312.094.062 0 .104.01.125.03h.093l2.618.718c.187.063.348.104.483.125.135.02.234.031.296.031h.39c.114 0 .223-.02.327-.062a1.76 1.76 0 0 0 .53-.187h.031l.031-.032c.021 0 .031-.01.031-.03h.032c.041-.042.083-.063.124-.063l.156-.125h.031L13.3.515l.685-.499Zm-.997 1.809-.468.156a6.823 6.823 0 0 1-.935.062c-.104 0-.223-.005-.358-.015-.135-.01-.369-.068-.701-.172L7.938 1.14l-.624-.125c-.436 0-.768.073-.997.218a3.9 3.9 0 0 0-.873.562c-.145.124-.29.29-.436.499v5.02a.09.09 0 0 0 .062-.03c.561-.187 1.206-.281 1.933-.281.166 0 .498.062.997.187l3.023.81c.25 0 .468-.052.655-.156.145-.062.285-.125.42-.187.136-.062.265-.135.39-.218l.499-.375v-5.24Z"/></svg>