<svg xmlns="http://www.w3.org/2000/svg" fill="currentColor" viewBox="0 0 16 16"><path d="M15.636.393c.214.214.333.506.357.875.024.369-.012.75-.107 1.143a4.648 4.648 0 0 1-.446 1.143 3.86 3.86 0 0 1-.625.875l-1.607 1.607 2.428 7.285-2.428 2.429L9.96 9.286l-3.106 2.357v3.214L5.712 16l-2.214-3.5L0 10.286l1.142-1.143h3.249l2.356-3.107L.286 2.82 2.713.393 9.96 2.82l1.606-1.607c.333-.333.774-.619 1.321-.857A4.01 4.01 0 0 1 14.493 0c.5 0 .881.131 1.143.393Zm-1.642 3.214c.166-.167.315-.369.446-.607a3.528 3.528 0 0 0 .428-1.41c.012-.203-.006-.34-.053-.411h-.072a.395.395 0 0 1-.125-.018.396.396 0 0 0-.125-.018c-.356 0-.75.095-1.178.286-.428.19-.737.38-.928.571l-2.106 2.107L3 1.714l-.786.786 6.248 3.143-3.499 4.643h-2.82l2.177 1.393 1.393 2.178v-2.786l4.676-3.535 3.142 6.285.785-.821-2.427-7.25 2.106-2.143Z"/></svg>