<svg xmlns="http://www.w3.org/2000/svg" fill="currentColor" viewBox="0 0 16 16"><path d="M1 9c0-.875.156-1.708.469-2.5a7.29 7.29 0 0 1 1.265-2.11 6.859 6.859 0 0 1 1.907-1.53A7.028 7.028 0 0 1 7 2.062V1H5V0h6v1H9v1.063c1.104.145 2.083.52 2.938 1.124L13 2.125l1.438 1.438-1 1a7.526 7.526 0 0 1 1.14 2.015C14.86 7.318 15 8.125 15 9c0 .958-.182 1.865-.547 2.719a7.027 7.027 0 0 1-1.5 2.234 7.075 7.075 0 0 1-2.219 1.5A6.819 6.819 0 0 1 8 16a6.853 6.853 0 0 1-2.719-.547 7.026 7.026 0 0 1-2.234-1.5 7.026 7.026 0 0 1-1.5-2.234A6.853 6.853 0 0 1 1 9Zm7 6a5.88 5.88 0 0 0 2.344-.469 5.892 5.892 0 0 0 1.906-1.297 6.207 6.207 0 0 0 1.281-1.921c.313-.73.469-1.5.469-2.313a5.88 5.88 0 0 0-.469-2.344A6.017 6.017 0 0 0 12.25 4.75a6.02 6.02 0 0 0-1.906-1.281A5.886 5.886 0 0 0 8 3a5.88 5.88 0 0 0-2.344.469A6.02 6.02 0 0 0 3.75 4.75a6.02 6.02 0 0 0-1.281 1.906A5.886 5.886 0 0 0 2 9c0 .813.156 1.583.469 2.313.312.729.74 1.37 1.281 1.921a5.892 5.892 0 0 0 1.906 1.297A5.88 5.88 0 0 0 8 15Zm-.531-8.5c0-.333.166-.5.5-.5.333 0 .5.167.5.5V9H11.5c.333 0 .5.167.5.5 0 .125-.047.24-.14.344a.462.462 0 0 1-.36.156H7.969a.462.462 0 0 1-.36-.156.503.503 0 0 1-.14-.344v-3Z"/></svg>