<svg xmlns="http://www.w3.org/2000/svg" fill="currentColor" viewBox="0 0 16 16"><path d="M15.688 2.312c.208.187.312.405.312.654v.094l-.875 11.005c-.02.25-.135.478-.344.686-.166.166-.385.249-.656.249H3.781c-.479 0-.802-.25-.969-.748L0 5.522c0-.165.052-.29.156-.373a.631.631 0 0 1 .407-.125H3.25c.146 0 .26.042.344.125.062.062.135.176.219.343l.03.03c0 .022.011.042.032.063l.094.25c.02.062.031.124.031.187h1.156l.375-1.56c.084-.29.25-.436.5-.436h.438l.312-1.309C6.906 2.239 7.23 2 7.75 2h7.188c.25 0 .5.104.75.312Zm-2.032 11.753a.369.369 0 0 0 .156-.047c.063-.031.084-.099.063-.203v-.093l-2.25-6.391c-.083-.208-.24-.312-.469-.312H1.781l2.157 6.859c.041.124.114.187.218.187h9.5ZM14.97 3.559v-.094c0-.312-.167-.467-.5-.467h-6.5c-.25.041-.407.176-.469.405l-.125.623h5.875c.125 0 .224.026.297.078.073.052.13.099.172.14l.062.25-.281 4.77.844 2.743.625-8.448Z"/></svg>