<svg xmlns="http://www.w3.org/2000/svg" fill="currentColor" viewBox="0 0 16 16"><path d="M0 14V2c0-.292.094-.531.281-.719A.973.973 0 0 1 1 1h5.625c.146 0 .27.052.375.156l.594.688A.511.511 0 0 0 7.969 2H15c.292 0 .531.094.719.281A.973.973 0 0 1 16 3v11a.974.974 0 0 1-.281.719A.974.974 0 0 1 15 15H1a.973.973 0 0 1-.719-.281A.974.974 0 0 1 0 14Zm1.5-.031h13c.333 0 .5-.167.5-.5V3.5c0-.333-.167-.5-.5-.5H7.406a.511.511 0 0 1-.375-.156l-.593-.688A.511.511 0 0 0 6.063 2H1.5c-.333 0-.5.167-.5.5v10.969c0 .333.167.5.5.5Z"/></svg>