<svg xmlns="http://www.w3.org/2000/svg" fill="currentColor" viewBox="0 0 16 16"><path d="M0 2c0-.292.094-.531.281-.719A.973.973 0 0 1 1 1h5.625c.146 0 .27.052.375.156l.594.688A.511.511 0 0 0 7.969 2H15c.292 0 .531.094.719.281A.973.973 0 0 1 16 3v11a.974.974 0 0 1-.281.719A.974.974 0 0 1 15 15H1a.973.973 0 0 1-.719-.281A.974.974 0 0 1 0 14V2Zm1 .5v10.969c0 .333.167.5.5.5h13c.333 0 .5-.167.5-.5V3.5c0-.333-.167-.5-.5-.5H7.406a.511.511 0 0 1-.375-.156l-.593-.688A.511.511 0 0 0 6.063 2H1.5c-.333 0-.5.167-.5.5ZM3 7V6c0-.292.094-.531.281-.719A.973.973 0 0 1 4 5h1c.292 0 .531.094.719.281A.973.973 0 0 1 6 6v1c0 .27-.094.505-.281.703A.947.947 0 0 1 5 8H4a.947.947 0 0 1-.719-.297A.988.988 0 0 1 3 7Zm5.5 0h4c.333 0 .5.167.5.5 0 .125-.047.24-.14.344A.462.462 0 0 1 12.5 8h-4a.478.478 0 0 1-.344-.156A.478.478 0 0 1 8 7.5c0-.146.052-.266.156-.36A.503.503 0 0 1 8.5 7Zm0-2h4c.333 0 .5.167.5.5 0 .125-.047.24-.14.344A.462.462 0 0 1 12.5 6h-4a.478.478 0 0 1-.344-.156A.478.478 0 0 1 8 5.5c0-.146.052-.266.156-.36A.503.503 0 0 1 8.5 5ZM8 9.531c0-.146.052-.265.156-.36a.503.503 0 0 1 .344-.14h4c.333 0 .5.167.5.5 0 .125-.047.24-.14.344a.462.462 0 0 1-.36.156h-4a.478.478 0 0 1-.344-.156A.478.478 0 0 1 8 9.531Z"/></svg>