<svg xmlns="http://www.w3.org/2000/svg" fill="currentColor" viewBox="0 0 16 16"><path d="M2 15V1c0-.292.099-.531.297-.719A.988.988 0 0 1 3 0h10c.292 0 .531.094.719.281A.973.973 0 0 1 14 1v14c0 .27-.094.505-.281.703A.947.947 0 0 1 13 16H3a.961.961 0 0 1-.703-.297A.961.961 0 0 1 2 15Zm1 0h10V1H3v14Zm4.5-6h4c.333 0 .5.167.5.5 0 .125-.047.24-.14.344a.462.462 0 0 1-.36.156h-4a.478.478 0 0 1-.344-.156A.478.478 0 0 1 7 9.5c0-.146.052-.266.156-.36A.503.503 0 0 1 7.5 9Zm0-3h4c.333 0 .5.167.5.5 0 .125-.047.24-.14.344A.462.462 0 0 1 11.5 7h-4a.478.478 0 0 1-.344-.156A.478.478 0 0 1 7 6.5c0-.146.052-.266.156-.36A.503.503 0 0 1 7.5 6Zm0-3h4c.333 0 .5.167.5.5 0 .125-.047.24-.14.344A.462.462 0 0 1 11.5 4h-4a.478.478 0 0 1-.344-.156A.478.478 0 0 1 7 3.5c0-.146.052-.266.156-.36A.503.503 0 0 1 7.5 3Zm-3 0h1c.333 0 .5.167.5.5 0 .125-.047.24-.14.344A.462.462 0 0 1 5.5 4h-1a.478.478 0 0 1-.344-.156A.478.478 0 0 1 4 3.5c0-.146.052-.266.156-.36A.503.503 0 0 1 4.5 3Zm0 3h1c.333 0 .5.167.5.5 0 .125-.047.24-.14.344A.462.462 0 0 1 5.5 7h-1a.478.478 0 0 1-.344-.156A.478.478 0 0 1 4 6.5c0-.146.052-.266.156-.36A.503.503 0 0 1 4.5 6Zm0 3h1c.333 0 .5.167.5.5 0 .125-.047.24-.14.344A.462.462 0 0 1 5.5 10h-1a.478.478 0 0 1-.344-.156A.478.478 0 0 1 4 9.5c0-.146.052-.266.156-.36A.503.503 0 0 1 4.5 9Z"/></svg>