<svg xmlns="http://www.w3.org/2000/svg" fill="currentColor" viewBox="0 0 16 16"><path d="M14.72 5.303c.186.208.28.447.28.717 0 .27-.094.499-.28.686l-3.992 3.991a.986.986 0 0 1-.717.312.986.986 0 0 1-.717-.312.952.952 0 0 1-.28-.701c0-.281.093-.515.28-.702l2.307-2.276H8.982a5.87 5.87 0 0 0-2.338.468 6.006 6.006 0 0 0-1.902 1.278 6.007 6.007 0 0 0-1.279 1.902 5.874 5.874 0 0 0-.467 2.338v.998c0 .27-.094.504-.281.702a.944.944 0 0 1-.717.296.959.959 0 0 1-.702-.296.959.959 0 0 1-.296-.702v-.998c0-1.101.213-2.135.64-3.102a8.425 8.425 0 0 1 1.714-2.541A7.878 7.878 0 0 1 5.88 5.646c.966-.416 2-.624 3.102-.624h2.62L9.293 2.715a.986.986 0 0 1-.312-.717c0-.27.104-.5.312-.686A.888.888 0 0 1 9.98 1c.27 0 .51.104.717.312l4.022 3.99Z"/></svg>