<svg xmlns="http://www.w3.org/2000/svg" fill="currentColor" viewBox="0 0 16 16"><path d="M1 15V1h1v13h13v1H1ZM4 1.25c0-.167.083-.25.25-.25h1.5c.167 0 .25.083.25.25v5.5c0 .167-.083.25-.25.25h-1.5C4.083 7 4 6.917 4 6.75v-5.5Zm8 8.5v-4.5c0-.167.083-.25.25-.25h1.5c.167 0 .25.083.25.25v4.5c0 .167-.083.25-.25.25h-1.5c-.167 0-.25-.083-.25-.25Zm-4-1v-4.5c0-.167.083-.25.25-.25h1.5c.167 0 .25.083.25.25v4.5c0 .167-.083.25-.25.25h-1.5C8.083 9 8 8.917 8 8.75Zm4-5.031V1.25c0-.167.083-.25.25-.25h1.5c.167 0 .25.083.25.25v2.469c0 .166-.083.25-.25.25h-1.5c-.167 0-.25-.084-.25-.25ZM8 10.28c0-.166.083-.25.25-.25h1.5c.167 0 .25.084.25.25v2.469c0 .167-.083.25-.25.25h-1.5c-.167 0-.25-.083-.25-.25V10.28ZM4.25 8h1.5c.167 0 .25.083.25.25v2.469c0 .166-.083.25-.25.25h-1.5c-.167 0-.25-.084-.25-.25V8.25c0-.167.083-.25.25-.25ZM8 2.75v-1.5c0-.167.083-.25.25-.25h1.5c.167 0 .25.083.25.25v1.5c0 .167-.083.25-.25.25h-1.5C8.083 3 8 2.917 8 2.75ZM12.25 11h1.5c.167 0 .25.083.25.25v1.5c0 .167-.083.25-.25.25h-1.5c-.167 0-.25-.083-.25-.25v-1.5c0-.167.083-.25.25-.25ZM4 12.75v-.5c0-.167.083-.25.25-.25h1.5c.167 0 .25.083.25.25v.5c0 .167-.083.25-.25.25h-1.5c-.167 0-.25-.083-.25-.25Z"/></svg>