<svg xmlns="http://www.w3.org/2000/svg" fill="currentColor" viewBox="0 0 17 17"><path d="m10.204 5.204 3.937-4.188h-3.625c-.292 0-.458-.146-.5-.438 0-.354.167-.541.5-.562h4.5c.292 0 .531.099.719.297.187.198.281.443.281.734v4.469c0 .354-.167.542-.5.562a.674.674 0 0 1-.344-.171.462.462 0 0 1-.156-.36v-3.75l-4.062 4.125a.512.512 0 0 1-.375.156c-.167 0-.292-.041-.375-.125-.209-.291-.209-.541 0-.75ZM.016 10.579c0-.355.167-.542.5-.563.125.02.24.078.344.172a.462.462 0 0 1 .156.36v3.687L5.08 10.11a.512.512 0 0 1 .375-.156c.166 0 .291.041.375.124.229.271.229.521 0 .75l-4.157 4.188h3.844c.292 0 .458.146.5.438 0 .354-.167.541-.5.562h-4.5a.947.947 0 0 1-.719-.297 1.027 1.027 0 0 1-.28-.734v-4.406Zm8 3.437h6v-6h1v6c0 .27-.094.505-.281.703a.947.947 0 0 1-.719.297h-6v-1Zm-6-13h6v1h-6v6h-1v-6c0-.292.1-.531.297-.719a.988.988 0 0 1 .703-.281Z"/></svg>