<svg xmlns="http://www.w3.org/2000/svg" fill="currentColor" viewBox="0 0 16 16"><path d="M2 1v13h13v1H1V1h1Zm7 3.75v-1.5c0-.167.083-.25.25-.25h5.5c.167 0 .25.083.25.25v1.5c0 .167-.083.25-.25.25h-5.5C9.083 5 9 4.917 9 4.75Zm-2 2.5c0-.167.083-.25.25-.25h4.5c.167 0 .25.083.25.25V9H7.25C7.083 9 7 8.917 7 8.75v-1.5Zm-1 5.5v-1.5c0-.167.083-.25.25-.25h4.5c.167 0 .25.083.25.25v1.5c0 .167-.083.25-.25.25h-4.5c-.167 0-.25-.083-.25-.25Zm6 0v-1.5c0-.167.083-.25.25-.25h2.5c.167 0 .25.083.25.25v1.5c0 .167-.083.25-.25.25h-2.5c-.167 0-.25-.083-.25-.25ZM5.25 3h2.5c.167 0 .25.083.25.25v1.5c0 .167-.083.25-.25.25h-2.5C5.083 5 5 4.917 5 4.75v-1.5c0-.167.083-.25.25-.25ZM3 8.75v-1.5c0-.167.083-.25.25-.25h2.5c.167 0 .25.083.25.25v1.5c0 .167-.083.25-.25.25h-2.5C3.083 9 3 8.917 3 8.75ZM3.25 11H5v1.75c0 .167-.083.25-.25.25h-1.5c-.167 0-.25-.083-.25-.25v-1.5c0-.167.083-.25.25-.25ZM13 7.25c0-.167.083-.25.25-.25h1.5c.167 0 .25.083.25.25v1.5c0 .167-.083.25-.25.25h-1.5c-.167 0-.25-.083-.25-.25v-1.5ZM3 4.75v-1.5c0-.167.083-.25.25-.25h.5c.167 0 .25.083.25.25v1.5c0 .167-.083.25-.25.25h-.5C3.083 5 3 4.917 3 4.75Z"/></svg>