<svg xmlns="http://www.w3.org/2000/svg" fill="currentColor" viewBox="0 0 16 17"><path d="M7.995 10.284 4.68 4.674a1.992 1.992 0 0 1-.208-.612 3.97 3.97 0 0 1-.047-.613c0-.47.095-.915.287-1.334A3.522 3.522 0 0 1 6.608.291a3.613 3.613 0 0 1 1.42-.275c.488 0 .95.092 1.386.275a3.521 3.521 0 0 1 1.897 1.824c.192.42.288.864.288 1.334 0 .081-.021.224-.064.429-.042.204-.106.48-.191.827l-3.317 5.579h5.932v1.165H2.064v-1.165h5.931Zm5.964 2.299v3.433H2.064v-3.433h11.895ZM5.763 4.246l2.264 3.77 2.2-3.77c.043-.225.08-.404.112-.537s.048-.22.048-.26c0-.634-.228-1.17-.686-1.61-.457-.439-1.015-.659-1.674-.659-.68 0-1.249.22-1.706.66a2.146 2.146 0 0 0-.686 1.609c0 .388.043.653.128.797Zm-.128 9.501v1.104h4.752v-1.104H5.635ZM6.815 3.45c0-.327.112-.603.335-.828.223-.225.516-.337.877-.337.32 0 .59.112.813.337.224.225.335.5.335.828 0 .306-.111.572-.335.797a1.103 1.103 0 0 1-.813.337c-.361 0-.654-.113-.877-.337a1.093 1.093 0 0 1-.335-.797ZM3.531 6.912h1.084l1.02 1.104H4.168L3.467 9.18H2.064L3.53 6.912Zm7.207 1.104.67-1.104h1.084l1.467 2.268h-1.435l-.67-1.164h-1.116Z"/></svg>