<svg xmlns="http://www.w3.org/2000/svg" fill="currentColor" viewBox="0 0 16 16"><path d="M8.127 0c.952 0 1.852.151 2.698.454.847.302 1.614.72 2.302 1.252a7.833 7.833 0 0 1 1.762 1.91c.487.74.847 1.538 1.08 2.394H14.92a6.53 6.53 0 0 0-.969-2.003 7.324 7.324 0 0 0-1.54-1.581 7.053 7.053 0 0 0-1.983-1.049 7.045 7.045 0 0 0-2.302-.375 7.05 7.05 0 0 0-2.762.547A7.081 7.081 0 0 0 1.57 5.274a6.747 6.747 0 0 0-.555 2.739c0 .876.153 1.711.46 2.504a6.85 6.85 0 0 0 1.286 2.113 7.27 7.27 0 0 0 1.936 1.534 7.056 7.056 0 0 0 2.413.798v1.002a8.107 8.107 0 0 1-5.08-2.63 8.057 8.057 0 0 1-1.49-2.426A7.786 7.786 0 0 1 0 8.013c0-1.106.212-2.144.635-3.114.423-.97 1-1.821 1.73-2.551A7.982 7.982 0 0 1 4.952.626 8.121 8.121 0 0 1 8.127 0Zm2.032 14.9.254-2.63c0-.313.169-.47.508-.47.148.021.27.084.365.188.095.105.132.22.11.345l-.158 1.909a6.758 6.758 0 0 0 2.286-1.737 7.14 7.14 0 0 0 1.397-2.52H16a7.924 7.924 0 0 1-1.476 2.911 8.429 8.429 0 0 1-2.492 2.097h1.81c.147.021.27.078.364.172a.397.397 0 0 1 .112.36c0 .125-.053.24-.16.345-.105.104-.221.146-.348.125h-2.667c-.656-.063-.984-.428-.984-1.096ZM7.11 9.014V4.507c0-.334.159-.5.476-.5.148 0 .275.046.381.14a.46.46 0 0 1 .159.36v3.506h4.571a.52.52 0 0 1 .35.14.46.46 0 0 1 .158.36.46.46 0 0 1-.158.36.515.515 0 0 1-.35.142H7.111Z"/></svg>