<svg xmlns="http://www.w3.org/2000/svg" fill="currentColor" viewBox="0 0 16 16"><path d="M1 6V2c0-.27.099-.505.297-.703A.961.961 0 0 1 2 1h2V0h1v1h6V0h1v1h2c.292 0 .531.099.719.297A.988.988 0 0 1 15 2v8h-1V4H2v2H1Zm1 3v6h12v-2h1v2a.974.974 0 0 1-.281.719A.974.974 0 0 1 14 16H2a.988.988 0 0 1-.703-.281A.947.947 0 0 1 1 15V9h1Zm2.5 2.5c0-.125.047-.24.14-.344A.462.462 0 0 1 5 11h11v1h-3l-1.469 2L10 12H8l-1.469 2.031c-.083-.083-.234-.25-.453-.5s-.448-.515-.687-.797a14.62 14.62 0 0 1-.625-.78c-.177-.24-.266-.392-.266-.454ZM0 7h9c.146 0 .266.052.36.156.093.104.14.219.14.344 0 .083-.104.255-.313.516a31.859 31.859 0 0 1-1.156 1.359 14.96 14.96 0 0 0-.5.594L6 8H0V7Zm12-4V2h-1v1h1ZM5 3V2H4v1h1Z"/></svg>