<svg xmlns="http://www.w3.org/2000/svg" fill="currentColor" viewBox="0 0 16 16"><path d="M7.459 5.219c.103-.917.478-1.604 1.122-2.063a2.85 2.85 0 0 1 1.62-.687h.624c.728.083 1.346.38 1.855.89.51.51.805 1.13.889 1.86v.593a3.046 3.046 0 0 1-.889 1.86c-.51.51-1.127.807-1.855.89h-.623a3.033 3.033 0 0 1-1.855-.89 3.047 3.047 0 0 1-.888-1.86V5.22ZM.195 9.344a.422.422 0 0 1 .312-.125c.145 0 .28.062.405.187L2.284 11c.374.48.701.854.982 1.125.28.27.556.469.826.594.27.125.571.203.904.234.332.031.727.047 1.184.047h2.837c.624 0 1.174.073 1.652.219.478.146.92.349 1.325.61.405.26.785.572 1.138.937.353.364.717.776 1.091 1.234h-.935a.932.932 0 0 1-.686-.281c-.27-.25-.53-.485-.78-.703a3.936 3.936 0 0 0-1.668-.89A4.58 4.58 0 0 0 9.017 14H3.562l-1.59 2h-.748l1.901-2.313-2.961-3.624c-.229-.23-.218-.47.031-.72Zm8.292-3.531c.042.416.234.796.577 1.14.343.344.722.537 1.138.578.02.021.124.032.312.032.187 0 .29-.01.311-.032a2.336 2.336 0 0 0 1.154-.578c.332-.302.52-.682.56-1.14.022-.021.032-.125.032-.313 0-.167-.01-.26-.031-.281a1.694 1.694 0 0 0-.561-1.14 2.337 2.337 0 0 0-1.154-.579c-.02-.02-.124-.031-.311-.031-.188 0-.291.01-.312.031-.416.042-.795.234-1.138.578-.343.344-.535.724-.577 1.14-.02.022-.03.115-.03.282 0 .188.01.292.03.313ZM10.202 0h.623v2c-.02-.02-.124-.031-.311-.031-.188 0-.291.01-.312.031V0Zm0 11V9.031h.623V11h-.623Zm-2.4-3.219c.124.167.27.313.436.438L6.835 9.625 6.4 9.187l1.4-1.405Zm-.967-6.375 1.403 1.407c-.166.124-.312.27-.437.437L6.4 1.844l.436-.438ZM12.79 8.22a1.37 1.37 0 0 0 .218-.203 4.62 4.62 0 0 0 .187-.235l1.403 1.407-.436.437L12.79 8.22Zm1.372-6.813.436.438-1.403 1.406a4.61 4.61 0 0 0-.187-.234 1.367 1.367 0 0 0-.218-.204l1.372-1.406Zm-.156 4.407c.02-.021.031-.125.031-.313 0-.167-.01-.26-.031-.281H16v.593h-1.995ZM5.028 5.22h1.964v.593H5.027V5.22Z"/></svg>