<svg xmlns="http://www.w3.org/2000/svg" fill="currentColor" viewBox="0 0 16 16"><path d="M2 1h12c.292 0 .531.099.719.297A.988.988 0 0 1 15 2v12a.974.974 0 0 1-.281.719A.974.974 0 0 1 14 15H6v-1h8V5H2v1H1V2c0-.27.099-.505.297-.703A.961.961 0 0 1 2 1Zm1 8.063a.274.274 0 0 1 .078-.032c.01 0 .037-.01.078-.031l-1.781-.031a.615.615 0 0 1-.36-.172.4.4 0 0 1-.109-.36.43.43 0 0 1 .156-.328A.397.397 0 0 1 1.406 8h2.625c.646.083.969.448.969 1.094l-.281 2.625c0 .312-.167.469-.5.469a.577.577 0 0 1-.36-.188.397.397 0 0 1-.109-.344l.156-1.812c-.375.166-.74.354-1.094.562a5.445 5.445 0 0 0-.937.688c-.27.25-.484.531-.64.844A2.344 2.344 0 0 0 1 13c0 .396.063.724.188.984s.296.459.515.594c.219.136.464.235.734.297.271.063.563.104.876.125H3.28c.334 0 .5.167.5.5 0 .333-.166.5-.5.5l-.437-.031c-.334 0-.672-.057-1.016-.172a2.635 2.635 0 0 1-.922-.531 2.64 2.64 0 0 1-.656-.922C.083 13.969 0 13.52 0 13c0-.52.104-.995.313-1.422a4.61 4.61 0 0 1 .78-1.14c.313-.334.641-.615.985-.844.344-.23.651-.406.922-.531Z"/></svg>