<svg xmlns="http://www.w3.org/2000/svg" fill="currentColor" viewBox="0 0 16 16"><path d="M0 7.857V0h6.837v2L4.546 5.714v1.322L3.22 5.714H1.324v1.75l3.114.965a2.06 2.06 0 0 0-.733.767 2.2 2.2 0 0 0-.269 1.09c0 .619.227 1.155.68 1.607.454.452.99.678 1.611.678h.233a.733.733 0 0 0 .232-.035L4.582 16l-1.217-1.107-.537-3.393L1.18 8.393 0 7.857Zm10.774 3.893L8.125 9.107l1.325-2.25H16v1.929a2.316 2.316 0 0 0-.77-1.375 2.169 2.169 0 0 0-1.485-.554c-.62 0-1.157.226-1.61.679-.454.452-.68.988-.68 1.607 0 .643.226 1.184.68 1.625.453.44.99.66 1.61.66.501 0 .943-.142 1.324-.428l-.214.429-2.291 3.428L10.774 16v-4.25ZM9.485 5.857V3.893l1.29-1.143h1.323L14.711 0H16v5.214l-1.289-1.321v1.321h-.68l-.644-1.321h-1.289l-1.324 1.964H9.485Zm-8.34-3.571c0 .643.227 1.184.68 1.625.454.44.99.66 1.611.66.62 0 1.158-.22 1.611-.66.453-.44.68-.982.68-1.625 0-.62-.227-1.155-.68-1.607C4.594.226 4.057 0 3.437 0c-.621 0-1.158.226-1.611.679-.454.452-.68.988-.68 1.607ZM3.436.57c.478 0 .883.167 1.217.5.334.334.501.739.501 1.215 0 .476-.167.88-.5 1.214-.335.333-.74.5-1.218.5a1.66 1.66 0 0 1-1.217-.5 1.651 1.651 0 0 1-.5-1.214c0-.476.166-.881.5-1.215.334-.333.74-.5 1.217-.5Zm2.291 8c.477 0 .883.167 1.217.5.334.334.501.739.501 1.215 0 .476-.167.88-.5 1.214-.335.333-.74.5-1.218.5a1.66 1.66 0 0 1-1.217-.5 1.651 1.651 0 0 1-.501-1.214c0-.476.167-.881.501-1.215.334-.333.74-.5 1.217-.5Zm8.018-1.142c.477 0 .883.166 1.217.5.334.333.501.738.501 1.214s-.167.88-.501 1.214c-.334.334-.74.5-1.217.5-.477 0-.883-.166-1.217-.5a1.651 1.651 0 0 1-.501-1.214c0-.476.167-.881.501-1.214.334-.334.74-.5 1.217-.5Zm-3.651-5.536L11.418 0v1.893h-1.324Z"/></svg>