<svg xmlns="http://www.w3.org/2000/svg" fill="currentColor" viewBox="0 0 16 16"><path d="M8 0c1.104 0 2.14.208 3.11.625a8.08 8.08 0 0 1 2.546 1.719 8.081 8.081 0 0 1 1.719 2.547C15.792 5.859 16 6.896 16 8s-.208 2.14-.625 3.11a8.082 8.082 0 0 1-1.719 2.546 8.082 8.082 0 0 1-2.547 1.719A7.785 7.785 0 0 1 8 16a7.785 7.785 0 0 1-3.11-.625 8.081 8.081 0 0 1-2.546-1.719A8.08 8.08 0 0 1 .625 11.11 7.786 7.786 0 0 1 0 8c0-1.104.208-2.14.625-3.11a8.08 8.08 0 0 1 1.719-2.546A8.08 8.08 0 0 1 4.89.625 7.785 7.785 0 0 1 8 0Zm0 15c.958 0 1.865-.182 2.719-.547a7.027 7.027 0 0 0 2.234-1.5 7.075 7.075 0 0 0 1.5-2.219A6.819 6.819 0 0 0 15 8c0-.958-.182-1.865-.547-2.719a7.026 7.026 0 0 0-1.5-2.234 7.026 7.026 0 0 0-2.234-1.5A6.853 6.853 0 0 0 8 1c-.98 0-1.89.182-2.734.547a7.074 7.074 0 0 0-2.22 1.5 7.026 7.026 0 0 0-1.5 2.234A6.853 6.853 0 0 0 1 8c0 .98.182 1.89.547 2.734a7.074 7.074 0 0 0 1.5 2.22 7.075 7.075 0 0 0 2.219 1.5A6.819 6.819 0 0 0 8 15Zm0-9c.542 0 1.01.198 1.406.594C9.802 6.99 10 7.458 10 8c0 .563-.198 1.036-.594 1.422A1.948 1.948 0 0 1 8 10c-.542 0-1.01-.193-1.406-.578A1.907 1.907 0 0 1 6 8c0-.542.198-1.01.594-1.406A1.922 1.922 0 0 1 8 6Zm0 3a.973.973 0 0 0 .719-.281A.973.973 0 0 0 9 8a.988.988 0 0 0-.281-.703A.947.947 0 0 0 8 7a.947.947 0 0 0-.719.297A.988.988 0 0 0 7 8c0 .292.094.531.281.719A.973.973 0 0 0 8 9Zm0-6c.688 0 1.333.13 1.938.39a5.07 5.07 0 0 1 2.671 2.672C12.87 6.668 13 7.313 13 8s-.13 1.333-.39 1.938a5.068 5.068 0 0 1-2.672 2.671C9.332 12.87 8.688 13 8 13s-1.333-.13-1.938-.39a5.069 5.069 0 0 1-2.671-2.672A4.842 4.842 0 0 1 3 8c0-.688.13-1.333.39-1.938a5.07 5.07 0 0 1 2.672-2.671A4.843 4.843 0 0 1 8 3Zm0 9a4.015 4.015 0 0 0 3.688-2.438c.208-.479.312-1 .312-1.562a4.015 4.015 0 0 0-1.172-2.828A4.016 4.016 0 0 0 8 4c-.563 0-1.083.104-1.563.313A4.016 4.016 0 0 0 4 8c.001.562.105 1.082.314 1.562a4.065 4.065 0 0 0 2.125 2.124c.479.209 1 .313 1.562.313Z"/></svg>