<svg xmlns="http://www.w3.org/2000/svg" fill="currentColor" viewBox="0 0 16 16"><path d="M.625 4.875a8.637 8.637 0 0 1 1.219-1.938 8.347 8.347 0 0 1 1.703-1.562A7.758 7.758 0 0 1 8 0c1.104 0 2.14.214 3.11.64a8.11 8.11 0 0 1 2.53 1.735 8.443 8.443 0 0 1 1.72 2.547C15.786 5.89 16 6.917 16 8a7.731 7.731 0 0 1-.64 3.125 8.06 8.06 0 0 1-1.735 2.547 8.215 8.215 0 0 1-2.547 1.703A7.707 7.707 0 0 1 8 16a7.73 7.73 0 0 1-3.125-.64 8.06 8.06 0 0 1-2.547-1.735 8.214 8.214 0 0 1-1.703-2.547A7.708 7.708 0 0 1 0 8c0-1.104.208-2.146.625-3.125Zm4.688 9.438c.854.354 1.729.53 2.625.53a6.83 6.83 0 0 0 2.671-.53 7.27 7.27 0 0 0 2.22-1.438 6.386 6.386 0 0 0 1.483-2.156 6.72 6.72 0 0 0 .532-2.656c0-.938-.177-1.829-.531-2.672a7.27 7.27 0 0 0-1.438-2.22 6.578 6.578 0 0 0-2.156-1.5 6.555 6.555 0 0 0-2.656-.546 6.72 6.72 0 0 0-2.657.531 7.324 7.324 0 0 0-2.203 1.438 6.577 6.577 0 0 0-1.5 2.156 6.63 6.63 0 0 0-.547 2.688 7.122 7.122 0 0 0 1.14 3.844 6.93 6.93 0 0 0 1.313 1.5c.51.437 1.079.78 1.704 1.03Zm6.718-2.282L9.594 9.594c.458-.459.687-.99.687-1.594 0-.625-.224-1.161-.672-1.61A2.196 2.196 0 0 0 8 5.72c-.625 0-1.161.224-1.61.672A2.196 2.196 0 0 0 5.72 8H2.28c0-.833.162-1.594.485-2.281a6.216 6.216 0 0 1 1.28-1.813 5.635 5.635 0 0 1 1.829-1.203 5.64 5.64 0 0 1 2.156-.422c.792 0 1.526.156 2.203.469.678.313 1.276.73 1.797 1.25a5.89 5.89 0 0 1 1.235 1.813c.302.687.453 1.406.453 2.156 0 .77-.146 1.51-.438 2.218a5.356 5.356 0 0 1-1.25 1.844Z"/></svg>