<svg xmlns="http://www.w3.org/2000/svg" fill="currentColor" viewBox="0 0 16 16"><path d="M12.313 11.313h1.718c.292 0 .526.093.703.28.178.188.266.428.266.72V14c0 .292-.088.531-.266.719-.177.187-.411.281-.703.281h-1.719c-.291 0-.525-.094-.703-.281a1.005 1.005 0 0 1-.265-.719v-1.688c0-.291.088-.53.265-.718.178-.188.412-.281.704-.281ZM7.125 6.155h1.719c.291 0 .526.094.703.282.177.187.265.427.265.718v1.688a.99.99 0 0 1-.28.703.91.91 0 0 1-.688.297H7.125a.91.91 0 0 1-.688-.297.988.988 0 0 1-.28-.703V7.156c0-.291.088-.531.265-.718.177-.188.411-.282.703-.282Zm4.219-2.468V2c0-.292.088-.531.265-.719.178-.187.412-.281.704-.281h1.718c.292 0 .526.094.703.281.178.188.266.427.266.719v1.688c0 .27-.094.505-.281.703a.911.911 0 0 1-.688.296h-1.719a.91.91 0 0 1-.687-.296.988.988 0 0 1-.281-.704Zm.969 2.468h1.718c.292 0 .526.094.703.282.178.187.266.427.266.718v1.688c0 .27-.094.505-.281.703a.911.911 0 0 1-.688.297h-1.719a.91.91 0 0 1-.687-.297.988.988 0 0 1-.281-.703V7.156c0-.291.088-.531.265-.718.178-.188.412-.282.704-.282ZM1.969 1h1.718c.292 0 .527.094.704.281.177.188.265.427.265.719v1.688c0 .27-.093.505-.281.703a.91.91 0 0 1-.688.296H1.97a.91.91 0 0 1-.688-.296A.988.988 0 0 1 1 3.687V2c0-.292.089-.531.266-.719.177-.187.411-.281.703-.281ZM1 7.156c0-.291.089-.531.266-.718.177-.188.411-.282.703-.282h1.718c.292 0 .527.094.704.282.177.187.265.427.265.718v1.688c0 .27-.093.505-.281.703a.91.91 0 0 1-.688.297H1.97a.91.91 0 0 1-.688-.297A.988.988 0 0 1 1 8.844V7.156Zm.969 4.157h1.718c.292 0 .527.093.704.28.177.188.265.428.265.72V14c0 .27-.093.505-.281.703a.91.91 0 0 1-.688.297H1.97a.91.91 0 0 1-.688-.297A.988.988 0 0 1 1 14v-1.688c0-.291.089-.53.266-.718.177-.188.411-.281.703-.281ZM7.125 1h1.719c.291 0 .526.094.703.281.177.188.265.427.265.719v1.688a.99.99 0 0 1-.28.703.91.91 0 0 1-.688.296H7.125a.91.91 0 0 1-.688-.296.988.988 0 0 1-.28-.704V2c0-.292.088-.531.265-.719.177-.187.411-.281.703-.281Zm-.969 11.313c0-.292.089-.532.266-.72.177-.187.411-.28.703-.28h1.719c.291 0 .526.093.703.28.177.188.265.428.265.72V14a.99.99 0 0 1-.28.703.91.91 0 0 1-.688.297H7.125a.91.91 0 0 1-.688-.297.988.988 0 0 1-.28-.703v-1.688Z"/></svg>