<svg xmlns="http://www.w3.org/2000/svg" fill="currentColor" viewBox="0 0 16 16"><path d="M10 16H0v-3c0-.563.104-1.083.313-1.563A4.016 4.016 0 0 1 4 9h1a2.893 2.893 0 0 1-2.125-.874A2.893 2.893 0 0 1 2 6c0-.833.292-1.542.875-2.125A2.893 2.893 0 0 1 5 3c.833 0 1.542.292 2.125.875S8 5.167 8 6s-.292 1.542-.875 2.125A2.893 2.893 0 0 1 5 9h1c.52 0 1.005.089 1.453.266.448.177.85.421 1.203.734.125.104.24.219.344.344.313.354.557.755.734 1.203.177.448.266.932.266 1.453v3Zm-1-1v-2c0-.833-.292-1.542-.875-2.125A2.893 2.893 0 0 0 6 10H4c-.396 0-.776.078-1.14.234-.365.157-.688.37-.97.641-.28.27-.5.588-.656.953A2.943 2.943 0 0 0 1 13v2h8Zm0-8.219V5.563A3.718 3.718 0 0 1 11 5h.5a2.407 2.407 0 0 1-1.766-.734A2.407 2.407 0 0 1 9 2.5c0-.688.245-1.276.734-1.766A2.407 2.407 0 0 1 11.5 0c.708 0 1.302.245 1.781.734.48.49.719 1.079.719 1.766 0 .688-.24 1.276-.719 1.766S12.208 5 11.5 5h.5c.563 0 1.083.104 1.563.313a4.065 4.065 0 0 1 2.124 2.125c.209.479.313 1 .313 1.562v2h-4.969v-1H15V9c0-.833-.292-1.542-.875-2.125A2.893 2.893 0 0 0 12 6h-1c-.813 0-1.48.26-2 .781ZM3 6c0 .542.198 1.01.594 1.406A1.92 1.92 0 0 0 5 8c.563 0 1.036-.198 1.422-.594C6.807 7.01 7 6.542 7 6c0-.563-.193-1.036-.578-1.422A1.933 1.933 0 0 0 5 4c-.542 0-1.01.193-1.406.578C3.198 4.964 3 5.438 3 6Zm7-3.5c0 .417.146.77.438 1.063.291.291.645.437 1.062.437.417 0 .77-.146 1.063-.438.291-.291.437-.645.437-1.062 0-.417-.146-.77-.438-1.063A1.447 1.447 0 0 0 11.5 1c-.417 0-.77.146-1.063.438A1.446 1.446 0 0 0 10 2.5Z"/></svg>