<svg xmlns="http://www.w3.org/2000/svg" fill="currentColor" viewBox="0 0 16 16"><path d="M0 12.5v-10c0-.333.167-.5.5-.5h.25c.333 0 .5.167.5.5V7h5.5V2.5c0-.333.167-.5.5-.5h.25c.125 0 .24.047.344.14A.462.462 0 0 1 8 2.5v10a.462.462 0 0 1-.156.36.503.503 0 0 1-.344.14h-.25c-.333 0-.5-.167-.5-.5V8h-5.5v4.5c0 .333-.167.5-.5.5H.5c-.333 0-.5-.167-.5-.5Zm10.656-3.938c.104-.145.203-.286.297-.421.094-.136.193-.256.297-.36a10.829 10.829 0 0 1 .875-.562c.188-.063.385-.115.594-.157.208-.041.437-.062.687-.062.542 0 1 .094 1.375.281.417.167.724.438.922.813.198.375.297.77.297 1.187 0 .313-.057.6-.172.86-.114.26-.265.515-.453.765a5.37 5.37 0 0 0-.36.406 4.807 4.807 0 0 1-.515.532L12.531 14l3.469.031V15h-5v-1l2.813-2.813c.291-.291.5-.53.624-.718.167-.167.282-.354.344-.563.084-.146.125-.354.125-.625 0-.229-.062-.442-.187-.64a1.485 1.485 0 0 0-.5-.485 8.899 8.899 0 0 1-.531-.11 1.313 1.313 0 0 0-.25-.046c-.417 0-.771.083-1.063.25-.27.188-.552.49-.844.906l-.875-.594Z"/></svg>