<svg xmlns="http://www.w3.org/2000/svg" fill="currentColor" viewBox="0 0 16 16"><path d="M0 7.531C0 6.97.135 6.48.406 6.063A3.554 3.554 0 0 1 1.5 5c.02-.23.078-.474.172-.734.093-.26.213-.526.359-.797.229-.438.536-.865.922-1.281a7.369 7.369 0 0 1 1.296-1.11A6.502 6.502 0 0 1 5.796.313 5.26 5.26 0 0 1 7.499.03h.031c.083 0 .161-.005.234-.015C7.837.006 7.915 0 8 0c.625 0 1.239.094 1.843.281a8.05 8.05 0 0 1 1.703.75 7.063 7.063 0 0 1 1.422 1.094c.416.417.75.865 1 1.344.353.541.53 1.052.53 1.531.459.292.823.646 1.094 1.063.27.416.406.906.406 1.468.021.73-.078 1.266-.296 1.61-.22.343-.454.63-.704.859a10.366 10.366 0 0 1-.296 1.453 4.536 4.536 0 0 1-.453 1.047c-.188.313-.422.62-.703.922-.282.302-.63.661-1.047 1.078a1.785 1.785 0 0 1-.531.281 1.77 1.77 0 0 1-.594.125.637.637 0 0 0-.203-.031h-.203c-.27 0-.417.01-.438.031-.104 0-.156.042-.156.125a1.64 1.64 0 0 1-.156.25 1.088 1.088 0 0 1-.219.219.488.488 0 0 1-.125.094.49.49 0 0 0-.125.094c-.27.208-.604.312-1 .312a1.644 1.644 0 0 1-1.359-.656c-.343-.438-.453-.938-.328-1.5.104-.417.313-.74.625-.969a1.8 1.8 0 0 1 1.094-.344c.458 0 .843.14 1.156.422.312.281.51.64.594 1.078h.968c.083 0 .146-.02.188-.062.145-.084.348-.219.609-.406a3.97 3.97 0 0 0 .765-.75 4.61 4.61 0 0 0 .656-1.172c.188-.47.282-1.016.282-1.641h-.5l-.063-.031a.257.257 0 0 1-.078-.016.346.346 0 0 0-.11-.015.49.49 0 0 1-.25-.438v-4l.032-.063c0-.041.005-.072.016-.093a.218.218 0 0 0 .015-.094c.063-.125.209-.208.438-.25-.125-.5-.36-.99-.703-1.469A5.898 5.898 0 0 0 11.53 2.25a6.709 6.709 0 0 0-1.656-.906A5.242 5.242 0 0 0 8 1c-1.271 0-2.411.354-3.422 1.063C3.567 2.77 2.875 3.75 2.5 5a.49.49 0 0 1 .437.25c.02.02.031.083.031.188.021.02.031.041.031.062v4a.49.49 0 0 1-.25.438.217.217 0 0 0-.093.015.218.218 0 0 1-.094.016c-.02.02-.042.031-.062.031H2a2.48 2.48 0 0 1-.735-.11 1.525 1.525 0 0 1-.64-.39 2.031 2.031 0 0 1-.453-.75C.057 8.437 0 8.031 0 7.531Z"/></svg>