<svg xmlns="http://www.w3.org/2000/svg" fill="currentColor" viewBox="0 0 16 16"><path d="M0 12.525V2.501C0 2.167.167 2 .5 2h.25c.333 0 .5.167.5.501v4.511h5.5v-4.51c0-.335.167-.502.5-.502h.25c.333 0 .5.167.5.501v10.024c0 .334-.167.502-.5.502h-.25c-.333 0-.5-.168-.5-.502v-4.51h-5.5v4.51c0 .334-.167.502-.5.502H.5c-.333 0-.5-.168-.5-.502Zm11.531.47c.104.126.193.24.266.345.073.104.15.188.234.25.146.146.313.261.5.345.146.083.417.125.813.125a2.25 2.25 0 0 0 1.125-.282c.333-.188.5-.522.5-1.002 0-.334-.094-.595-.281-.783a1.17 1.17 0 0 0-.688-.454 3.356 3.356 0 0 0-.813-.11h-.656v-.971h.656c.396 0 .76-.115 1.094-.345.334-.23.5-.564.5-1.002 0-.376-.125-.658-.375-.846-.208-.209-.552-.313-1.031-.313a2.7 2.7 0 0 0-.719.094 1.647 1.647 0 0 0-.5.344c-.146.084-.302.261-.469.533l-.843-.533c.208-.438.552-.772 1.031-1.002.438-.25.938-.376 1.5-.376.563 0 1.01.094 1.344.282a1.8 1.8 0 0 1 .812.72c.167.293.25.627.25 1.003 0 .46-.114.856-.344 1.19-.229.334-.562.564-1 .69v.03c.459.105.834.324 1.126.659.291.334.437.74.437 1.221 0 .501-.104.888-.313 1.16-.145.333-.447.594-.906.782-.354.084-.65.147-.89.188a3.45 3.45 0 0 1-.547.063c-.646 0-1.177-.125-1.594-.376-.396-.209-.75-.553-1.063-1.034l.844-.595Z"/></svg>