<svg xmlns="http://www.w3.org/2000/svg" fill="currentColor" viewBox="0 0 16 16"><path d="M4.594 2.549c-.417 0-.808.08-1.172.243a3.098 3.098 0 0 0-1.594 1.594 2.79 2.79 0 0 0-.234 1.139c0 .405.078.784.234 1.139.156.354.37.673.64.956L8 13.087l5.531-5.467c.584-.566.875-1.265.875-2.095a2.79 2.79 0 0 0-.234-1.139 3.259 3.259 0 0 0-.625-.941 2.96 2.96 0 0 0-.922-.653 2.746 2.746 0 0 0-1.156-.243c-.667 0-1.235.192-1.703.577-.47.384-.776.81-.922 1.275-.167.506-.448.76-.844.76-.396 0-.646-.173-.75-.517 0-.04-.047-.167-.14-.38a3.406 3.406 0 0 0-.454-.713 3.02 3.02 0 0 0-.812-.699c-.334-.202-.75-.303-1.25-.303ZM8 15a.788.788 0 0 1-.562-.243L1.344 8.714C.448 7.844 0 6.78 0 5.524c0-.606.12-1.189.36-1.745a4.413 4.413 0 0 1 .984-1.443 4.892 4.892 0 0 1 1.453-.972A4.411 4.411 0 0 1 4.594 1c.812 0 1.495.172 2.047.516.552.344 1.005.75 1.359 1.215.354-.466.813-.87 1.375-1.215.563-.344 1.24-.516 2.031-.516a4.41 4.41 0 0 1 1.797.364 4.892 4.892 0 0 1 1.453.972c.417.405.745.886.985 1.443.24.556.359 1.139.359 1.746 0 1.255-.448 2.318-1.344 3.189l-6.093 6.043C8.438 14.92 8.25 15 8 15Z"/></svg>