<svg xmlns="http://www.w3.org/2000/svg" fill="currentColor" viewBox="0 0 16 16"><path d="M11.438 1a4.44 4.44 0 0 1 1.78.364 4.513 4.513 0 0 1 1.454.987c.406.415.729.896.969 1.443S16 4.928 16 5.555c0 1.235-.438 2.298-1.313 3.189l-6.093 6.013A.788.788 0 0 1 8.03 15a.823.823 0 0 1-.594-.243L1.345 8.744A4.789 4.789 0 0 1 .36 7.271 4.3 4.3 0 0 1 0 5.555c0-.627.12-1.214.36-1.761a4.653 4.653 0 0 1 2.453-2.43A4.445 4.445 0 0 1 4.593 1c.813 0 1.5.177 2.063.531.563.355 1.01.755 1.344 1.2a5.428 5.428 0 0 1 1.375-1.2C9.938 1.177 10.625 1 11.438 1Z"/></svg>