<svg xmlns="http://www.w3.org/2000/svg" fill="currentColor" viewBox="0 0 16 16"><path d="M8 4.44h1.192l.753-1.342-.69-1.054L9.82.958l.752 1.15.565-1.086.816-.192.188.83-.596 1.023h1.318l-.565 1.085-1.318-.095-.784 1.405.314.543.847-.575h1.192l-.596 1.182-.753.542.345.671h1.537l.534-1.213h1.223l-.596 1.213h1.16l.597.575-.596.543h-1.16l.595 1.66h-1.223l-.534-1.66h-1.537l-.345.67.753.543.565 1.214h-1.161l-.816-.575-.345.543.784 1.373h1.6l.565.958h-1.6l.596 1.086-.22.799-.784-.192-.596-1.086-.753 1.182-.533-1.054.69-1.086-.753-1.373H8v-1.182h1.004l1.412-2.363-1.412-2.395H8V4.439ZM0 5.875h4.36L2.166 2.204l3.67 2.235L6.525 0l.69 2.778v1.725c-.815.128-1.495.522-2.039 1.182-.543.66-.815 1.437-.815 2.331 0 .894.272 1.666.815 2.315a3.382 3.382 0 0 0 2.04 1.198v1.693L6.4 16l-.659-4.44-3.576 2.268 2.196-3.736L0 9.74l3.765-1.725L0 5.876Zm7.216-.32v4.6c-.46-.128-.858-.41-1.192-.847-.335-.436-.502-.91-.502-1.42 0-.554.167-1.05.502-1.486.334-.436.732-.718 1.192-.846Zm.815 1.31.973 1.15-.973 1.15v-2.3Z"/></svg>