<svg xmlns="http://www.w3.org/2000/svg" fill="currentColor" viewBox="0 0 16 16"><path d="M6 9V7h4v1.75c0 .167-.083.25-.25.25H6Zm5 1.25c0-.167.083-.25.25-.25h3.5c.167 0 .25.083.25.25v1.5c0 .167-.083.25-.25.25H11v-1.75ZM14.75 7c.167 0 .25.083.25.25v1.5c0 .167-.083.25-.25.25h-3.5c-.167 0-.25-.083-.25-.25V7h3.75ZM11 4h3.75c.167 0 .25.083.25.25v1.5c0 .167-.083.25-.25.25h-3.5c-.167 0-.25-.083-.25-.25V4Zm-5 8v-1.75c0-.167.083-.25.25-.25h3.5c.167 0 .25.083.25.25v1.5c0 .167-.083.25-.25.25H6Zm.25 1h3.5c.167 0 .25.083.25.25v1.5c0 .167-.083.25-.25.25h-3.5c-.167 0-.25-.083-.25-.25v-1.5c0-.167.083-.25.25-.25Zm5-12h3.5c.167 0 .25.083.25.25v1.5c0 .167-.083.25-.25.25h-3.5c-.167 0-.25-.083-.25-.25v-1.5c0-.167.083-.25.25-.25ZM11 14.75v-1.5c0-.167.083-.25.25-.25h3.5c.167 0 .25.083.25.25v1.5c0 .167-.083.25-.25.25h-3.5c-.167 0-.25-.083-.25-.25Zm-10-3v-1.5c0-.167.083-.25.25-.25h3.5c.167 0 .25.083.25.25v1.5c0 .167-.083.25-.25.25h-3.5c-.167 0-.25-.083-.25-.25ZM1.25 1h3.5c.167 0 .25.083.25.25v1.5c0 .167-.083.25-.25.25h-3.5C1.083 3 1 2.917 1 2.75v-1.5c0-.167.083-.25.25-.25Zm0 3h3.5c.167 0 .25.083.25.25v1.5c0 .167-.083.25-.25.25h-3.5C1.083 6 1 5.917 1 5.75v-1.5c0-.167.083-.25.25-.25ZM6 5.75v-1.5c0-.167.083-.25.25-.25h3.5c.167 0 .25.083.25.25v1.5c0 .167-.083.25-.25.25h-3.5C6.083 6 6 5.917 6 5.75Zm-5 9v-1.5c0-.167.083-.25.25-.25h3.5c.167 0 .25.083.25.25v1.5c0 .167-.083.25-.25.25h-3.5c-.167 0-.25-.083-.25-.25ZM6.25 1h3.5c.167 0 .25.083.25.25v1.5c0 .167-.083.25-.25.25h-3.5C6.083 3 6 2.917 6 2.75v-1.5c0-.167.083-.25.25-.25Zm-5 6h3.5c.167 0 .25.083.25.25v1.5c0 .167-.083.25-.25.25h-3.5C1.083 9 1 8.917 1 8.75v-1.5c0-.167.083-.25.25-.25Z"/></svg>