<svg xmlns="http://www.w3.org/2000/svg" fill="currentColor" viewBox="0 0 16 16"><path d="M0 2C0 1.458.198.99.594.594A1.922 1.922 0 0 1 2 0h12c.563 0 1.037.198 1.422.594C15.807.99 16 1.458 16 2v9c0 .542-.193 1.01-.578 1.406-.386.396-.86.594-1.422.594h-1v2.344c0 .208-.068.37-.203.484a.684.684 0 0 1-.453.172c-.167 0-.292-.042-.375-.125L9.5 13.031 2 13a1.92 1.92 0 0 1-1.406-.594A1.922 1.922 0 0 1 0 11V2Zm1 9c0 .292.099.531.297.719A.988.988 0 0 0 2 12h8l2 2.5V12h2a.974.974 0 0 0 .719-.281A.974.974 0 0 0 15 11V2a.988.988 0 0 0-.281-.703A.947.947 0 0 0 14 1H2a.961.961 0 0 0-.703.297A.961.961 0 0 0 1 2v9Zm6.875-9a4.47 4.47 0 0 1 3.203 1.344c.406.416.73.896.969 1.437.24.542.36 1.125.36 1.75 0 .604-.12 1.177-.36 1.719a4.65 4.65 0 0 1-.969 1.422 4.6 4.6 0 0 1-1.437.969C9.089 10.88 8.5 11 7.875 11s-1.208-.12-1.75-.36a4.652 4.652 0 0 1-1.422-.968 4.432 4.432 0 0 1-1.297-3.14c0-.626.115-1.21.344-1.75.23-.542.547-1.022.953-1.438.406-.417.88-.745 1.422-.985A4.277 4.277 0 0 1 7.875 2Zm0 8.219c.458-.188.797-.526 1.016-1.016.218-.49.38-.943.484-1.36H6.437c.084.417.24.87.47 1.36.228.49.551.828.968 1.016ZM6.437 5.156h2.938a11.059 11.059 0 0 0-.484-1.343c-.198-.459-.537-.803-1.016-1.032-.417.188-.74.526-.969 1.016a6.04 6.04 0 0 0-.468 1.36ZM6.345 7.22H9.47V5.78H6.344a2.176 2.176 0 0 0-.032.36v.734c0 .125.01.24.032.344ZM4.25 5.156h1.594c.083-.416.213-.849.39-1.297.177-.448.412-.828.704-1.14a4.022 4.022 0 0 0-1.625.89A3.89 3.89 0 0 0 4.25 5.156Zm0 2.688A3.89 3.89 0 0 0 5.313 9.39c.479.427 1.02.724 1.625.89a3.618 3.618 0 0 1-.704-1.125 6.974 6.974 0 0 1-.39-1.312H4.25Zm4.625-5.125c.292.312.531.692.719 1.14.187.448.312.88.375 1.297h1.594A3.89 3.89 0 0 0 10.5 3.61a4.022 4.022 0 0 0-1.625-.89Zm0 7.562a4.021 4.021 0 0 0 1.625-.89 3.89 3.89 0 0 0 1.063-1.547H9.969a5.188 5.188 0 0 1-.375 1.312 3.856 3.856 0 0 1-.719 1.125Zm2.844-3.062a2.33 2.33 0 0 0 .094-.719c0-.23-.032-.469-.094-.719h-1.656V7.22h1.656ZM4 6.5c0 .292.031.531.094.719H5.75a1.756 1.756 0 0 1-.031-.344V6.14c0-.114.01-.234.031-.359H4.094C4.03 6.031 4 6.271 4 6.5Z"/></svg>