<svg xmlns="http://www.w3.org/2000/svg" fill="currentColor" viewBox="0 0 16 16"><path d="M.719 0 16 15.313l-.688.687L0 .719.719 0ZM5.53 3.406a11.15 11.15 0 0 1 1.235-.297A6.976 6.976 0 0 1 8 3a8.776 8.776 0 0 1 4.453 1.25c.698.417 1.354.932 1.969 1.547A8.885 8.885 0 0 1 16 7.969a9.25 9.25 0 0 1-1.219 1.781c-.458.52-.958.99-1.5 1.406l-.719-.719a11.21 11.21 0 0 0 1.25-1.109c.396-.406.74-.86 1.032-1.36-.771-1.25-1.76-2.223-2.969-2.921A7.622 7.622 0 0 0 8 4c-.292 0-.573.02-.844.063-.27.041-.541.093-.812.156l-.813-.813ZM2.72 4.844l.719.718C2.562 6.188 1.802 7 1.155 8c.792 1.25 1.782 2.23 2.969 2.938A7.373 7.373 0 0 0 7.969 12a5.7 5.7 0 0 0 .86-.063c.28-.041.556-.093.827-.156l.813.813a11.13 11.13 0 0 1-1.235.297A7.051 7.051 0 0 1 8 13h-.031c-.75 0-1.5-.104-2.25-.313a8.838 8.838 0 0 1-2.172-.937 9.466 9.466 0 0 1-1.953-1.563A10.191 10.191 0 0 1 0 8c.73-1.292 1.635-2.344 2.719-3.156ZM5.125 7.25l3.656 3.656A3.21 3.21 0 0 1 8 11a2.893 2.893 0 0 1-2.125-.875A2.893 2.893 0 0 1 5 8c0-.354.042-.604.125-.75ZM7.25 5.125C7.396 5.042 7.646 5 8 5c.833 0 1.542.292 2.125.875S11 7.167 11 8c0 .27-.031.531-.094.781L9.562 7.47c.292-.167.438-.396.438-.688a.761.761 0 0 0-.219-.562A.723.723 0 0 0 9.25 6c-.292 0-.52.146-.688.438L7.25 5.125Z"/></svg>