<svg xmlns="http://www.w3.org/2000/svg" fill="currentColor" viewBox="0 0 16 16"><path d="M8 0c1.104 0 2.14.208 3.11.625a8.08 8.08 0 0 1 2.546 1.719 8.081 8.081 0 0 1 1.719 2.547C15.792 5.859 16 6.896 16 8s-.208 2.14-.625 3.11a8.082 8.082 0 0 1-1.719 2.546 8.082 8.082 0 0 1-2.547 1.719A7.785 7.785 0 0 1 8 16a7.785 7.785 0 0 1-3.11-.625 8.081 8.081 0 0 1-2.546-1.719A8.08 8.08 0 0 1 .625 11.11 7.786 7.786 0 0 1 0 8c0-1.104.208-2.14.625-3.11a8.08 8.08 0 0 1 1.719-2.546A8.08 8.08 0 0 1 4.89.625 7.785 7.785 0 0 1 8 0Zm0 3a1.06 1.06 0 0 0-.797.344c-.219.229-.318.5-.297.812l.344 5.125c0 .209.073.38.219.516A.752.752 0 0 0 8 10a.752.752 0 0 0 .531-.203.673.673 0 0 0 .219-.516l.344-5.125a1.031 1.031 0 0 0-.297-.812A1.06 1.06 0 0 0 8 3Zm0 10.281c.313 0 .578-.114.797-.344.219-.229.328-.5.328-.812a1.06 1.06 0 0 0-.344-.797A1.136 1.136 0 0 0 7.969 11c-.313 0-.573.11-.782.328a1.113 1.113 0 0 0-.312.797c0 .313.104.583.313.813.208.229.479.343.812.343Z"/></svg>