<svg xmlns="http://www.w3.org/2000/svg" fill="currentColor" viewBox="0 0 16 16"><path d="M8 0c1.104 0 2.14.208 3.11.625a8.08 8.08 0 0 1 2.546 1.719 8.081 8.081 0 0 1 1.719 2.547C15.792 5.859 16 6.896 16 8s-.208 2.14-.625 3.11a8.082 8.082 0 0 1-1.719 2.546 8.082 8.082 0 0 1-2.547 1.719A7.785 7.785 0 0 1 8 16a7.897 7.897 0 0 1-3.125-.625 7.852 7.852 0 0 1-2.547-1.719A8.215 8.215 0 0 1 .625 11.11 7.786 7.786 0 0 1 0 8c0-1.104.208-2.14.625-3.11a8.214 8.214 0 0 1 1.703-2.546A7.851 7.851 0 0 1 4.875.625 7.897 7.897 0 0 1 8 0Zm0 15c.958 0 1.865-.182 2.719-.547a7.027 7.027 0 0 0 2.234-1.5 7.075 7.075 0 0 0 1.5-2.219A6.819 6.819 0 0 0 15 8c0-.958-.182-1.865-.547-2.719a7.026 7.026 0 0 0-1.5-2.234 7.026 7.026 0 0 0-2.234-1.5A6.853 6.853 0 0 0 8 1c-.98 0-1.89.182-2.734.547a7.074 7.074 0 0 0-2.22 1.5 7.026 7.026 0 0 0-1.5 2.234A6.853 6.853 0 0 0 1 8c0 .98.182 1.89.547 2.734a7.074 7.074 0 0 0 1.5 2.22 7.075 7.075 0 0 0 2.219 1.5A6.819 6.819 0 0 0 8 15Zm4.5-7c.125 0 .24.047.344.14A.462.462 0 0 1 13 8.5a.462.462 0 0 1-.156.36.503.503 0 0 1-.344.14H7V4.5c0-.333.167-.5.5-.5.125 0 .24.047.344.14A.462.462 0 0 1 8 4.5V8h4.5Z"/></svg>