<svg xmlns="http://www.w3.org/2000/svg" fill="currentColor" viewBox="0 0 16 16"><path d="M0 7.906c.375.521.75.99 1.125 1.407a6.53 6.53 0 0 0 .844 2.25 7.107 7.107 0 0 0 1.547 1.796c.614.51 1.307.912 2.078 1.204.77.291 1.573.437 2.406.437.98 0 1.89-.182 2.734-.547a7.075 7.075 0 0 0 2.22-1.5 7.027 7.027 0 0 0 1.5-2.234C14.817 9.865 15 8.959 15 8c0-.98-.182-1.89-.547-2.734a7.075 7.075 0 0 0-1.5-2.22 7.074 7.074 0 0 0-2.219-1.5A6.82 6.82 0 0 0 8 1c-1.396 0-2.651.36-3.766 1.078a6.812 6.812 0 0 0-2.515 2.86 8.295 8.295 0 0 1-.297-.516 8.294 8.294 0 0 0-.297-.516A8.003 8.003 0 0 1 4 1.062C5.208.355 6.542 0 8 0c1.104 0 2.14.208 3.11.625a8.215 8.215 0 0 1 2.546 1.703 7.852 7.852 0 0 1 1.719 2.547c.417.98.625 2.02.625 3.125 0 1.104-.208 2.14-.625 3.11a8.082 8.082 0 0 1-1.719 2.546 8.082 8.082 0 0 1-2.547 1.719A7.785 7.785 0 0 1 8 16a7.785 7.785 0 0 1-3.11-.625 8.081 8.081 0 0 1-2.546-1.719A8.08 8.08 0 0 1 .625 11.11 7.786 7.786 0 0 1 0 8v-.094ZM.125 6.25a57.9 57.9 0 0 1 .188-.672 3.58 3.58 0 0 1 .25-.64c.541 1 1.098 1.833 1.671 2.5A7.303 7.303 0 0 0 4.125 9.03a7.188 7.188 0 0 0 2.297.828c.844.157 1.818.235 2.922.235V10L7.156 8.062A.663.663 0 0 1 7 7.625a.55.55 0 0 1 .156-.406.55.55 0 0 1 .407-.157c.145 0 .27.053.375.157l2.78 2.5c.23.229.345.5.345.812 0 .313-.115.584-.344.813L7.875 14a.511.511 0 0 1-.375.156c-.104 0-.24-.052-.406-.156a.663.663 0 0 1-.157-.438.55.55 0 0 1 .157-.406l2.25-2.031v-.031c-1.042 0-1.985-.047-2.828-.14a7.96 7.96 0 0 1-2.36-.626c-.729-.323-1.422-.807-2.078-1.453C1.422 8.229.771 7.355.125 6.25Zm2.469-1.656c0-.125.088-.297.265-.516a5.13 5.13 0 0 1 .625-.64c.24-.209.48-.386.72-.532.239-.146.421-.219.546-.219.167 0 .36.068.578.204.219.135.412.203.578.203-.02.02-.031.052-.031.094 0 .062.031.114.094.156l-.5 1.125.625.125.5-.5.875.062.187.469-.468.5a1.476 1.476 0 0 0-.75.406c-.375.375-.51.813-.407 1.313l-.062-.032-.375.438.312.375v.063A6.58 6.58 0 0 1 3.438 6.25l.03-.344-.187-.625-.562-.343-.125-.344Zm8.656 2.218a6.34 6.34 0 0 1 .547-.109c.198-.031.453-.12.765-.266.042.042.105.063.188.063h.438c.541 0 .864.135.968.406.104.271.156.667.156 1.188 0 .77-.15 1.484-.453 2.14a45.797 45.797 0 0 1-.921 1.891c-.063 0-.094-.073-.094-.219 0-.187.031-.458.094-.812.062-.354.093-.709.093-1.063v-.25L12.97 9.5l-.438-.719-.687-.156a2.48 2.48 0 0 0-.156-.266l-.22-.328-.374-.344.156-.875Zm-1-4.843c.167.146.307.26.422.343.114.084.224.146.328.188a2 2 0 0 0-.328.172c-.115.073-.235.203-.36.39l-.28.5-.282.407-.281.187c-.104 0-.193-.093-.266-.281-.073-.188-.11-.27-.11-.25a.716.716 0 0 0-.374.094c-.063-.063-.167-.094-.313-.094-.041 0-.067.005-.078.016-.01.01-.036.015-.078.015.167-.333.464-.656.89-.969a9.611 9.611 0 0 1 1.11-.718Zm2.313 3.343h.75v-.375l.156-.125.125.313.125.313-.281.25-.47-.094-.155.5-.594-.25.344-.532ZM12.813 4l.093-.281.625.656-.312.281h-.313l.281-.312L13 4.28 12.812 4Zm-1-.813h.343l.063.25-.219.188-.344.063.156-.5Zm.812.97.156.25-.219.218-.093-.25.156-.219Zm-4.438.75v.25l.032.093a.465.465 0 0 0-.344-.125l.313-.219Zm5.657 1.187-.031.25-.22-.25h.25Z"/></svg>