<svg xmlns="http://www.w3.org/2000/svg" fill="currentColor" viewBox="0 0 16 16"><path d="M15.844 7.531a.494.494 0 0 1 0 .719.441.441 0 0 1-.36.14.557.557 0 0 1-.358-.171L8.008 2.25.86 8.219a.544.544 0 0 1-.344.172.423.423 0 0 1-.343-.141.558.558 0 0 1-.172-.36.443.443 0 0 1 .14-.359l3.747-3.187c.458-.396.91-.782 1.358-1.157a172.927 172.927 0 0 0 2.06-1.75l.328-.28A.51.51 0 0 1 8.008 1c.125 0 .24.052.344.156l.328.282.858.734a275.14 275.14 0 0 0 2.591 2.172c1.103.937 2.341 2 3.715 3.187ZM2.014 8.594A360.317 360.317 0 0 0 4.95 6.313a168.786 168.786 0 0 1 2.763-2.11C7.89 4.068 7.989 4 8.009 4c.021 0 .12.068.297.203l.687.531c.28.22.598.464.952.735.354.27.718.552 1.092.843a94.104 94.104 0 0 0 2.966 2.282V14a.947.947 0 0 1-.296.719.986.986 0 0 1-.703.281H9.007v-1.969c0-.5-.005-.958-.015-1.375-.01-.416-.005-.635.015-.656H7.01c-.021.02-.026.234-.016.64.01.407.016.86.016 1.36v2H3.014a.972.972 0 0 1-.718-.281.974.974 0 0 1-.281-.719V8.594ZM13.005 9 8.007 5.25 3.014 9v5H6.01v-3a.99.99 0 0 1 .124-.5 1.02 1.02 0 0 1 .297-.344c.135-.104.328-.156.578-.156h1.997c.25 0 .443.052.578.156a1.008 1.008 0 0 1 .406.688l.015.156v3h2.997V9Z"/></svg>