<svg xmlns="http://www.w3.org/2000/svg" fill="currentColor" viewBox="0 0 16 16"><path d="M1 1h1v13h13v1H1V1Zm6 6.25c0-.167.083-.25.25-.25h4.5c.167 0 .25.083.25.25v1.5c0 .167-.083.25-.25.25h-4.5C7.083 9 7 8.917 7 8.75v-1.5Zm2-4c0-.167.083-.25.25-.25h2.5c.167 0 .25.083.25.25v1.5c0 .167-.083.25-.25.25h-2.5C9.083 5 9 4.917 9 4.75v-1.5ZM5.25 3h2.5c.167 0 .25.083.25.25v1.5c0 .167-.083.25-.25.25h-2.5C5.083 5 5 4.917 5 4.75v-1.5c0-.167.083-.25.25-.25ZM3 8.75v-1.5c0-.167.083-.25.25-.25h2.5c.167 0 .25.083.25.25v1.5c0 .167-.083.25-.25.25h-2.5C3.083 9 3 8.917 3 8.75ZM8.25 11h1.5c.167 0 .25.083.25.25v1.5c0 .167-.083.25-.25.25h-1.5c-.167 0-.25-.083-.25-.25v-1.5c0-.167.083-.25.25-.25ZM13 8.75v-1.5c0-.167.083-.25.25-.25h1.5c.167 0 .25.083.25.25v1.5c0 .167-.083.25-.25.25h-1.5c-.167 0-.25-.083-.25-.25ZM3.25 11h1.5c.167 0 .25.083.25.25v1.5c0 .167-.083.25-.25.25h-1.5c-.167 0-.25-.083-.25-.25v-1.5c0-.167.083-.25.25-.25ZM6 12.75v-1.5c0-.167.083-.25.25-.25h.5c.167 0 .25.083.25.25v1.5c0 .167-.083.25-.25.25h-.5c-.167 0-.25-.083-.25-.25Zm-3-9.5c0-.167.083-.25.25-.25h.5c.167 0 .25.083.25.25v1.5c0 .167-.083.25-.25.25h-.5C3.083 5 3 4.917 3 4.75v-1.5Z"/></svg>