<svg xmlns="http://www.w3.org/2000/svg" fill="currentColor" viewBox="0 0 16 16"><path d="M8 10c0-.292.094-.531.281-.719A.973.973 0 0 1 9 9c.167 0 .323.047.469.14.146.094.27.214.375.36L13 8.094V8c0-.02.01-.042.031-.063 0-.041.005-.083.016-.125a.514.514 0 0 0 .015-.125L10.626 5.75c-.23.167-.438.25-.625.25a.973.973 0 0 1-.719-.281A.973.973 0 0 1 9 5c0-.292.094-.531.281-.719A.973.973 0 0 1 10 4a.96.96 0 0 1 .125.016c.063.01.146.026.25.046l3.406-2.937.313.375-3.313 2.906c.146.146.219.344.219.594 0 .125-.031.25-.094.375l2.438 1.875c.166-.167.385-.25.656-.25.27 0 .505.094.703.281A.947.947 0 0 1 15 8a.947.947 0 0 1-.297.719A.988.988 0 0 1 14 9c-.313 0-.583-.146-.813-.438L10 9.97V10a.894.894 0 0 1-.156.469l1.687 1.656a.988.988 0 0 1 1.172.156A.947.947 0 0 1 13 13a.947.947 0 0 1-.297.719.988.988 0 0 1-1.172.156L10.344 15 10 14.656l1.156-1.156A.937.937 0 0 1 11 13c0-.188.052-.365.156-.531L9.5 10.844A.937.937 0 0 1 9 11a.973.973 0 0 1-.719-.281A.974.974 0 0 1 8 10ZM1.25 1h6.5c.167 0 .25.083.25.25v1.5c0 .167-.083.25-.25.25h-6.5C1.083 3 1 2.917 1 2.75v-1.5c0-.167.083-.25.25-.25ZM1 9.25c0-.167.083-.25.25-.25h4.5c.167 0 .25.083.25.25v1.5c0 .167-.083.25-.25.25h-4.5c-.167 0-.25-.083-.25-.25v-1.5Zm0-2.5v-1.5c0-.167.083-.25.25-.25h3.5c.167 0 .25.083.25.25v1.5c0 .167-.083.25-.25.25h-3.5C1.083 7 1 6.917 1 6.75ZM1.25 13h2.5c.167 0 .25.083.25.25v1.5c0 .167-.083.25-.25.25h-2.5c-.167 0-.25-.083-.25-.25v-1.5c0-.167.083-.25.25-.25Z"/></svg>