<svg xmlns="http://www.w3.org/2000/svg" fill="currentColor" viewBox="0 0 16 16"><path d="M3.25 11h9.5c.167 0 .25.083.25.25v1.5c0 .167-.083.25-.25.25h-9.5c-.167 0-.25-.083-.25-.25v-1.5c0-.167.083-.25.25-.25ZM3 7.25c0-.167.083-.25.25-.25h7.5c.167 0 .25.083.25.25v1.5c0 .167-.083.25-.25.25h-7.5C3.083 9 3 8.917 3 8.75v-1.5ZM1.969 1v14H1V1h.969ZM3 4.75v-1.5c0-.167.083-.25.25-.25h4.469c.166 0 .25.083.25.25v1.5c0 .167-.084.25-.25.25H3.25C3.083 5 3 4.917 3 4.75ZM14 10h1v4h-1v-4Zm-1-4v4h-.969V6H13ZM9.969 2v4H9V2h.969Z"/></svg>