<svg xmlns="http://www.w3.org/2000/svg" fill="currentColor" viewBox="0 0 16 16"><path d="M3.25 12h11.5c.167 0 .25.083.25.25v1.5c0 .167-.083.25-.25.25H3.25c-.167 0-.25-.083-.25-.25v-1.5c0-.167.083-.25.25-.25ZM3 5.25c0-.167.083-.25.25-.25h7.5c.167 0 .25.083.25.25v1.5c0 .167-.083.25-.25.25h-7.5C3.083 7 3 6.917 3 6.75v-1.5ZM1 1h1v14H1V1Zm2 8.25c0-.167.083-.25.25-.25h5.5c.167 0 .25.083.25.25v1.5c0 .167-.083.25-.25.25h-5.5c-.167 0-.25-.083-.25-.25v-1.5Zm0-5.5v-1.5c0-.167.083-.25.25-.25h1.5c.167 0 .25.083.25.25v1.5c0 .167-.083.25-.25.25h-1.5C3.083 4 3 3.917 3 3.75Z"/></svg>