<svg xmlns="http://www.w3.org/2000/svg" fill="currentColor" viewBox="0 0 16 16"><path d="M2.5 1.125c0-.083.042-.125.125-.125h13.25c.083 0 .125.042.125.125v1.75c0 .083-.042.125-.125.125H2.625c-.083 0-.125-.042-.125-.125v-1.75ZM0 0h1v16H0V0Zm2.5 13.125c0-.083.042-.125.125-.125h4.75c.083 0 .125.042.125.125v1.75c0 .083-.042.125-.125.125h-4.75c-.083 0-.125-.042-.125-.125v-1.75Zm8.5-8c0-.083.042-.125.125-.125h4.75c.083 0 .125.042.125.125v1.75c0 .083-.042.125-.125.125h-4.75C11.042 7 11 6.958 11 6.875v-1.75ZM7.625 9h3.25c.083 0 .125.042.125.125v1.75c0 .083-.042.125-.125.125h-3.25c-.083 0-.125-.042-.125-.125v-1.75c0-.083.042-.125.125-.125Z"/></svg>