<svg xmlns="http://www.w3.org/2000/svg" fill="currentColor" viewBox="0 0 16 16"><path d="M16 16h-6v-1c0-1.125.224-1.906.672-2.344C11.12 12.22 11.896 12 13 12a1.92 1.92 0 0 1-1.406-.594A1.922 1.922 0 0 1 11 10c0-.563.198-1.036.594-1.422A1.948 1.948 0 0 1 13 8c.563 0 1.037.193 1.422.578.385.386.578.86.578 1.422 0 .542-.193 1.01-.578 1.406-.386.396-.86.594-1.422.594 1.125 0 1.906.219 2.344.656.437.438.656 1.219.656 2.344v1ZM6 16H0v-1c0-1.125.224-1.906.672-2.344C1.12 12.22 1.896 12 3 12a1.92 1.92 0 0 1-1.406-.594A1.922 1.922 0 0 1 1 10c0-.563.198-1.036.594-1.422A1.948 1.948 0 0 1 3 8c.563 0 1.036.193 1.422.578.385.386.578.86.578 1.422 0 .542-.193 1.01-.578 1.406-.386.396-.86.594-1.422.594 1.125 0 1.906.219 2.344.656C5.78 13.094 6 13.875 6 15v1ZM5.062 5.875c0-.417.084-.797.25-1.14a3.17 3.17 0 0 1 .657-.907A2.972 2.972 0 0 1 8.03 3c.354 0 .709.063 1.063.188.354.124.672.312.953.562.281.25.51.552.687.906.178.354.266.76.266 1.219 0 .25-.02.464-.063.64A2.94 2.94 0 0 1 10.78 7a2.3 2.3 0 0 1-.312.469c-.125.146-.25.302-.375.468-.125.167-.25.36-.375.579-.125.218-.24.484-.344.796L9.219 10H6.875l-.156-.719-.438-.906-.562-.719A2.844 2.844 0 0 1 5.344 7a1.878 1.878 0 0 1-.172-.516l-.11-.609ZM1 2c0-.292.099-.531.297-.719A.988.988 0 0 1 2 1h12c.292 0 .531.094.719.281A.973.973 0 0 1 15 2v5h-1V2H2v5H1V2Zm5.063 3.875c.02.292.072.516.156.672.083.156.177.318.281.484l.625.813.531 1.125V9h.782c.166-.48.343-.865.53-1.156.188-.292.365-.542.532-.75.042-.042.063-.073.063-.094.166-.208.28-.375.343-.5S10 6.167 10 5.875c0-.333-.063-.615-.188-.844a1.865 1.865 0 0 0-.484-.578 2.014 2.014 0 0 0-.64-.344A2.164 2.164 0 0 0 8.03 4a2 2 0 0 0-1.375.531 1.725 1.725 0 0 0-.593 1.344ZM11 15h4a5.37 5.37 0 0 0-.078-1.016c-.052-.26-.151-.463-.297-.609-.146-.146-.349-.245-.61-.297A5.354 5.354 0 0 0 13 13a5.37 5.37 0 0 0-1.016.078c-.26.052-.463.151-.609.297-.146.146-.245.349-.297.61-.052.26-.078.598-.078 1.015Zm-6 0a5.37 5.37 0 0 0-.078-1.016c-.052-.26-.151-.463-.297-.609-.146-.146-.349-.245-.61-.297A5.355 5.355 0 0 0 3 13a5.37 5.37 0 0 0-1.016.078c-.26.052-.463.151-.609.297-.146.146-.245.349-.297.61A5.337 5.337 0 0 0 1 15h4Zm7-5c0 .27.099.505.297.703A.961.961 0 0 0 13 11a.947.947 0 0 0 .719-.297A.988.988 0 0 0 14 10a.973.973 0 0 0-.281-.719A.974.974 0 0 0 13 9a.988.988 0 0 0-.703.281A.947.947 0 0 0 12 10ZM2 10c0 .27.099.505.297.703A.961.961 0 0 0 3 11a.947.947 0 0 0 .719-.297A.988.988 0 0 0 4 10a.973.973 0 0 0-.281-.719A.973.973 0 0 0 3 9a.988.988 0 0 0-.703.281A.947.947 0 0 0 2 10Zm5.25.5h1.5c.167 0 .25.083.25.25v.5c0 .167-.083.25-.25.25H8.5c-.063.063-.135.12-.219.172A.52.52 0 0 1 8 11.75c-.167 0-.333-.083-.5-.25h-.25c-.167 0-.25-.083-.25-.25v-.5c0-.167.083-.25.25-.25Z"/></svg>