<svg xmlns="http://www.w3.org/2000/svg" fill="currentColor" viewBox="0 0 16 16"><path d="M10.875 11.355H2.906L7 5.452l3.875 5.903Zm.625-9.29c.417 0 .77.15 1.063.451.291.301.437.667.437 1.097 0 .172-.031.344-.094.516-.125.495-.427.806-.906.936a1.225 1.225 0 0 1-.5.096c-.417 0-.77-.15-1.063-.451A1.518 1.518 0 0 1 10 3.613c0-.43.146-.796.438-1.097a1.424 1.424 0 0 1 1.062-.451ZM0 9.29h1v2.065c0 .3.094.548.281.742a.96.96 0 0 0 .719.29h2v1.032H2a1.878 1.878 0 0 1-1.422-.613A2.045 2.045 0 0 1 0 11.355V9.29Zm0-5.16V2.065c0-.56.193-1.043.578-1.452C.964.204 1.438 0 2 0h2v1.032H2a.957.957 0 0 0-.719.29A1.026 1.026 0 0 0 1 2.065v2.064H0Zm12 9.29v-1.032h2c.27 0 .505-.097.703-.29a.993.993 0 0 0 .297-.742V9.29h1v2.065c0 .559-.198 1.043-.594 1.451-.396.41-.864.613-1.406.613h-2Zm0-12.387V0h2c.542 0 1.01.204 1.406.613.396.409.594.892.594 1.452v2.064h-1V2.065a.993.993 0 0 0-.297-.742.972.972 0 0 0-.703-.29h-2Zm-.875 9.29L9.312 7.582 10 6.194l3 4.129h-1.875ZM7 13.937a.97.97 0 0 1 .703.29.99.99 0 0 1 .297.742.993.993 0 0 1-.297.742A.972.972 0 0 1 7 16a.957.957 0 0 1-.719-.29A1.022 1.022 0 0 1 6 14.968c0-.301.094-.549.281-.742a.957.957 0 0 1 .719-.29Zm4 1.032c0-.344.167-.516.5-.516.125 0 .24.048.344.145.104.097.156.22.156.37a.486.486 0 0 1-.156.372.495.495 0 0 1-.344.145c-.333 0-.5-.172-.5-.516Zm-9 0c0-.344.167-.516.5-.516.125 0 .24.048.344.145.104.097.156.22.156.37a.486.486 0 0 1-.156.372.495.495 0 0 1-.344.145c-.333 0-.5-.172-.5-.516Zm11 0c0-.344.167-.516.5-.516.125 0 .24.048.344.145.104.097.156.22.156.37a.486.486 0 0 1-.156.372.495.495 0 0 1-.344.145c-.333 0-.5-.172-.5-.516Zm-8.5-.516c.125 0 .24.048.344.145.104.097.156.22.156.37a.486.486 0 0 1-.156.372.495.495 0 0 1-.344.145c-.333 0-.5-.172-.5-.516 0-.344.167-.516.5-.516Zm5 0c.125 0 .24.048.344.145.104.097.156.22.156.37a.486.486 0 0 1-.156.372.495.495 0 0 1-.344.145c-.333 0-.5-.172-.5-.516 0-.344.167-.516.5-.516Z"/></svg>