<svg xmlns="http://www.w3.org/2000/svg" fill="currentColor" viewBox="0 0 16 16"><path d="M10.688 11a.568.568 0 0 1-.407-.188L7.594 8.688a.567.567 0 0 1-.188-.407V4.594C7.406 4.198 7.604 4 8 4c.396 0 .594.198.594.594V8.03l2.5 1.969c.125.083.187.219.187.406a.573.573 0 0 1-.172.422.574.574 0 0 1-.421.172ZM1 14V2c0-.27.094-.505.281-.703A.947.947 0 0 1 2 1h12c.27 0 .505.099.703.297A.961.961 0 0 1 15 2v12a.947.947 0 0 1-.297.719A.988.988 0 0 1 14 15H2a.973.973 0 0 1-.719-.281A.974.974 0 0 1 1 14Zm13 0V2H2v12h12Z"/></svg>