<svg xmlns="http://www.w3.org/2000/svg" fill="currentColor" viewBox="0 0 16 16"><path d="M0 15v-4c0-.27.094-.505.281-.703A.947.947 0 0 1 1 10h3c0 .667.333 1 1 1h6.031c.646 0 .969-.333.969-1h3c.27 0 .505.099.703.297A.961.961 0 0 1 16 11v4a.947.947 0 0 1-.297.719A.988.988 0 0 1 15 16H1a.973.973 0 0 1-.719-.281A.974.974 0 0 1 0 15Zm3.219-4H1v4h14v-4h-2.219c-.354.667-.937 1-1.75 1H5c-.833 0-1.427-.333-1.781-1Zm.937-6.188a.478.478 0 0 1 .344-.156c.125 0 .24.052.344.157L7.5 7.469V.5c0-.333.167-.5.5-.5.333 0 .5.167.5.5v7.031l2.719-2.718a.478.478 0 0 1 .344-.157c.145 0 .27.052.374.157.25.229.25.468 0 .718L8.75 8.688A.988.988 0 0 1 8.031 9c-.25 0-.479-.104-.687-.313L4.156 5.531c-.25-.25-.25-.49 0-.718ZM5.5 13h5c.125 0 .24.052.344.156A.478.478 0 0 1 11 13.5a.462.462 0 0 1-.156.36.503.503 0 0 1-.344.14h-5c-.333 0-.5-.167-.5-.5 0-.125.047-.24.14-.344A.462.462 0 0 1 5.5 13Z"/></svg>