<svg xmlns="http://www.w3.org/2000/svg" fill="currentColor" viewBox="0 0 16 16"><path d="M15.688 7.236c.208.229.312.483.312.764 0 .28-.104.525-.312.733l-6.924 6.924C8.535 15.886 8.281 16 8 16c-.28 0-.525-.114-.733-.343L.343 8.733C.114 8.525 0 8.281 0 8c0-.28.114-.535.343-.764L7.267.312C7.475.104 7.72 0 8 0c.28 0 .535.104.764.312l6.924 6.924Zm-7.672 5.739c.27 0 .504-.094.701-.281a.945.945 0 0 0 .297-.717.959.959 0 0 0-.297-.702.96.96 0 0 0-.701-.296.945.945 0 0 0-.718.296.986.986 0 0 0-.28.702c0 .29.093.53.28.717.187.187.427.28.718.28Zm1.809-5.302c.25-.27.509-.557.78-.858.27-.302.405-.692.405-1.17 0-.686-.265-1.253-.796-1.7-.53-.447-1.252-.67-2.167-.67-.478 0-.915.078-1.31.234a3.372 3.372 0 0 0-1.014.608c-.28.25-.494.53-.64.842a2.134 2.134 0 0 0-.217.905h1.497c.104-.5.311-.895.623-1.186.312-.29.707-.436 1.186-.436.478 0 .868.145 1.17.436.3.291.451.593.451.905 0 .187-.072.4-.218.64-.145.238-.301.41-.468.514l-.624.499c-.395.312-.675.582-.842.81-.166.23-.28.479-.343.75V9.98h1.466c-.041-.354-.036-.64.016-.858.052-.218.125-.4.218-.546.094-.146.213-.286.359-.421.145-.135.301-.296.468-.483Z"/></svg>