<svg xmlns="http://www.w3.org/2000/svg" fill="currentColor" viewBox="0 0 16 16"><path d="M1.218 12.164c.125-.125.25-.187.374-.187a.39.39 0 0 1 .343.187l2.09 2.339V9.482c0-.333.166-.5.498-.5.333 0 .5.167.5.5v5.021l2.12-2.34c.124-.124.249-.186.374-.186.145 0 .26.062.343.187.228.25.228.488 0 .717l-2.65 2.807a.888.888 0 0 1-.687.312.922.922 0 0 1-.717-.312l-2.588-2.807c-.228-.229-.228-.468 0-.717Zm-.03-9.045L3.805.312A.922.922 0 0 1 4.523 0c.27 0 .5.104.686.312l2.65 2.807c.25.229.25.468 0 .717a.477.477 0 0 1-.342.156c-.083 0-.208-.052-.374-.156l-2.12-2.339v4.99c0 .333-.167.5-.5.5-.332 0-.498-.167-.498-.5v-4.99l-2.12 2.34a.477.477 0 0 1-.344.155c-.083 0-.208-.052-.374-.156-.25-.25-.25-.488 0-.717Zm8.355 4.865h4.958c.333 0 .499.167.499.5 0 .332-.166.498-.499.498H9.543c-.332 0-.498-.166-.498-.499 0-.332.166-.499.498-.499Zm-.498 6.488c0-.333.166-.5.498-.5h4.958c.333 0 .499.167.499.5 0 .333-.166.499-.499.499H9.543c-.332 0-.498-.166-.498-.5Zm0-11.977c0-.333.166-.499.498-.499h4.958c.333 0 .499.166.499.5 0 .332-.166.498-.499.498H9.543c-.332 0-.498-.166-.498-.499Z"/></svg>