<svg xmlns="http://www.w3.org/2000/svg" fill="currentColor" viewBox="0 0 16 16"><path d="M5.536 8.281c.143-.104.143-.219 0-.344L3.57 6.095c-.285-.209-.285-.459 0-.75.262-.188.524-.188.786 0l2.179 2.031a.933.933 0 0 1 .303.734 1.01 1.01 0 0 1-.303.704l-2.072 2.03c-.285.21-.56.21-.821 0-.262-.208-.262-.447 0-.718l1.893-1.844ZM15.429 2a.62.62 0 0 1 .392.14c.12.094.179.214.179.36s-.06.266-.179.36a.62.62 0 0 1-.392.14H.57C.191 3 0 2.833 0 2.5c0-.333.19-.5.571-.5H15.43Zm0 3a.62.62 0 0 1 .392.14c.12.094.179.214.179.36s-.06.266-.179.36a.62.62 0 0 1-.392.14H9.714c-.38 0-.571-.167-.571-.5 0-.333.19-.5.571-.5h5.715Zm0 3a.62.62 0 0 1 .392.14c.12.094.179.214.179.36s-.06.266-.179.36a.62.62 0 0 1-.392.14H9.714c-.38 0-.571-.167-.571-.5 0-.333.19-.5.571-.5h5.715Zm0 3a.62.62 0 0 1 .392.14c.12.094.179.214.179.36s-.06.266-.179.36a.62.62 0 0 1-.392.14H9.714c-.38 0-.571-.167-.571-.5 0-.333.19-.5.571-.5h5.715Zm0 3a.62.62 0 0 1 .392.14c.12.094.179.214.179.36s-.06.266-.179.36a.62.62 0 0 1-.392.14H.57c-.379 0-.57-.167-.57-.5 0-.333.19-.5.571-.5H15.43Z"/></svg>