<svg xmlns="http://www.w3.org/2000/svg" fill="currentColor" viewBox="0 0 16 16"><path d="M6.986 15.969H1.03c-.29 0-.535-.094-.733-.28A.945.945 0 0 1 0 14.97V3.992L3.992 0h6.987c.29 0 .53.099.717.296.187.198.28.432.28.702V5.52h-.997V.998H4.99v2.994a.95.95 0 0 1-.296.718.986.986 0 0 1-.702.28H.998v9.98h5.988v.999Zm8.827-.842c.25.228.25.468 0 .717a.477.477 0 0 1-.343.156.477.477 0 0 1-.343-.156l-2.558-2.557a3.45 3.45 0 0 1-2.09.686c-.478 0-.93-.094-1.356-.28a3.589 3.589 0 0 1-1.107-.75 3.587 3.587 0 0 1-.749-1.107 3.338 3.338 0 0 1-.28-1.356c0-.479.093-.93.28-1.357.187-.426.437-.795.749-1.107a3.588 3.588 0 0 1 1.107-.749c.426-.187.878-.28 1.357-.28.478 0 .93.093 1.356.28.426.187.796.437 1.107.749.312.312.562.68.749 1.107.187.426.28.878.28 1.357a3.35 3.35 0 0 1-.717 2.09l2.558 2.557Zm-5.334-2.152c.687 0 1.274-.245 1.763-.733a2.403 2.403 0 0 0 .733-1.762c0-.687-.245-1.274-.733-1.763a2.403 2.403 0 0 0-1.763-.733c-.686 0-1.273.245-1.762.733a2.403 2.403 0 0 0-.733 1.763c0 .686.245 1.273.733 1.762a2.403 2.403 0 0 0 1.762.733Z"/></svg>