<svg xmlns="http://www.w3.org/2000/svg" fill="currentColor" viewBox="0 0 16 16"><path d="M15 0c.292 0 .531.099.719.297A.988.988 0 0 1 16 1v10a.974.974 0 0 1-.281.719A.974.974 0 0 1 15 12H5a.988.988 0 0 1-.703-.281A.947.947 0 0 1 4 11V1c0-.27.099-.505.297-.703A.961.961 0 0 1 5 0h10Zm0 1H5v10h10V1Zm-4 13h1v1a.974.974 0 0 1-.281.719A.974.974 0 0 1 11 16H1a.988.988 0 0 1-.703-.281A.947.947 0 0 1 0 15V5c0-.27.099-.505.297-.703A.961.961 0 0 1 1 4h1v1H1v10h10v-1ZM7 8l2.031-2.031L7 4l1-1 2.031 2L12 3l1 1-2.031 1.969L13 8l-1 1-1.969-2.031L8 9 7 8Z"/></svg>