<svg xmlns="http://www.w3.org/2000/svg" fill="currentColor" viewBox="0 0 16 16"><path d="M12 0c.563 0 1.083.104 1.563.313a4.065 4.065 0 0 1 2.124 2.124c.209.48.313 1 .313 1.563a4.015 4.015 0 0 1-2.438 3.688A3.88 3.88 0 0 1 12 8a3.876 3.876 0 0 1-1.563-.313A4.016 4.016 0 0 1 8 4a3.901 3.901 0 0 1 .313-1.562A4.065 4.065 0 0 1 10.438.313 3.86 3.86 0 0 1 12 0ZM1 4h6v1H1v10h14V8h1v7c0 .27-.094.505-.281.703A.947.947 0 0 1 15 16H1a.947.947 0 0 1-.719-.297A.988.988 0 0 1 0 15V5c0-.292.094-.531.281-.719A.973.973 0 0 1 1 4Zm8 0c0 .104.016.24.047.406l.11.594c.228.583.593 1.063 1.093 1.438S11.333 7 12 7c.833 0 1.542-.292 2.125-.875A2.893 2.893 0 0 0 15 4c0-.833-.292-1.542-.875-2.125A2.893 2.893 0 0 0 12 1c-.833 0-1.542.292-2.125.875A2.893 2.893 0 0 0 9 4ZM2.187 6.188c.167-.125.323-.188.47-.188.187 0 .343.063.468.188l2.75 3.343a.636.636 0 0 1 .188.469.636.636 0 0 1-.188.469l-2.688 3.344A.636.636 0 0 1 2.72 14a.636.636 0 0 1-.469-.188.672.672 0 0 1-.219-.484c0-.177.073-.328.219-.453l1.969-2.656c.166-.167.166-.323 0-.469L2.187 7.125A.617.617 0 0 1 2 6.672c0-.177.063-.339.188-.484Zm4 0c.167-.125.323-.188.47-.188.187 0 .343.063.468.188l2.75 3.343a.636.636 0 0 1 .188.469.636.636 0 0 1-.188.469l-2.688 3.344A.636.636 0 0 1 6.72 14a.636.636 0 0 1-.469-.188.672.672 0 0 1-.219-.484c0-.177.073-.328.219-.453l1.969-2.656c.166-.167.166-.323 0-.469L6.188 7.125A.617.617 0 0 1 6 6.672c0-.177.063-.339.188-.484Zm3.97 6.687 2-2.656c.166-.167.166-.323 0-.469l-.626-.813c.104.021.198.037.281.047.084.01.146.016.188.016.438 0 .844-.063 1.219-.188l.594.72A.636.636 0 0 1 14 10a.636.636 0 0 1-.188.469l-2.718 3.344a.636.636 0 0 1-.469.187c-.146 0-.302-.063-.469-.188a.727.727 0 0 1-.187-.484c0-.177.062-.328.187-.453ZM11.968 2c.333 0 .5.167.5.5V4H13.5c.333 0 .5.167.5.5 0 .333-.167.5-.5.5h-2.031V2.5c0-.333.166-.5.5-.5Z"/></svg>