<svg xmlns="http://www.w3.org/2000/svg" fill="currentColor" viewBox="0 0 16 16"><path d="M5 15v-2c0-.438.125-.823.375-1.156.25-.334.573-.573.969-.719l.031-.031c.438-.73 1-1.328 1.688-1.797.687-.469 1.427-.703 2.218-.703h.344c.167 0 .307.031.422.094.114.062.234.177.36.343.124.167.28.412.468.735L12.594 11c.416 0 .828.078 1.234.234.406.157.771.37 1.094.641.323.27.583.588.781.953.198.365.297.755.297 1.172v1h-2.094a1.52 1.52 0 0 1-.531.719c-.25.187-.542.281-.875.281-.333 0-.625-.094-.875-.281a1.52 1.52 0 0 1-.531-.719H8.906a1.52 1.52 0 0 1-.531.719c-.25.187-.542.281-.875.281-.333 0-.625-.094-.875-.281A1.52 1.52 0 0 1 6.094 15H5Zm-5 0V4l4-4h7c.292 0 .531.099.719.297A.988.988 0 0 1 12 1v5h-1V1H5v3a.947.947 0 0 1-.297.719A.988.988 0 0 1 4 5H1v10h2v1H1.031a1.03 1.03 0 0 1-.734-.281A.947.947 0 0 1 0 15Zm5.75-.75h.281c.063-.354.23-.651.5-.89.271-.24.594-.36.969-.36s.703.12.984.36c.282.239.443.536.485.89h2.062c.063-.354.23-.651.5-.89.271-.24.594-.36.969-.36s.703.12.984.36c.282.239.443.536.485.89h1.281V14c0-.313-.078-.604-.234-.875a2.55 2.55 0 0 0-.625-.719 3.044 3.044 0 0 0-.86-.484 2.706 2.706 0 0 0-.937-.172H7c-.354 0-.651.12-.89.36-.24.239-.36.536-.36.89v1.25ZM7.344 11h4.437a62.617 62.617 0 0 1-.765-1.438c-.115-.229-.256-.343-.422-.343-.271 0-.542.015-.813.047-.27.03-.536.104-.797.218a3.12 3.12 0 0 0-.796.532c-.271.24-.553.567-.844.984Zm4.156 3.5a.99.99 0 0 0 .125.5c.146.333.438.5.875.5.438 0 .73-.167.875-.5a.99.99 0 0 0 .125-.5c0-.146-.01-.23-.031-.25-.084-.5-.406-.75-.969-.75-.542 0-.865.25-.969.75-.02.02-.031.104-.031.25Zm-5 0a.99.99 0 0 0 .125.5c.146.333.438.5.875.5.438 0 .73-.167.875-.5a.99.99 0 0 0 .125-.5c0-.146-.01-.23-.031-.25-.084-.5-.406-.75-.969-.75-.542 0-.865.25-.969.75-.02.02-.031.104-.031.25Z"/></svg>