<svg xmlns="http://www.w3.org/2000/svg" fill="currentColor" viewBox="0 0 16 16"><path d="M4 0h7c.292 0 .531.099.719.297A.988.988 0 0 1 12 1v4h-1V1H5v3a.947.947 0 0 1-.297.719A.988.988 0 0 1 4 5H1v10h2v1H1.031a1.03 1.03 0 0 1-.734-.281A.947.947 0 0 1 0 15V4l4-4Zm3 16H4c0-.73.063-1.297.188-1.703.125-.406.296-.703.515-.89.219-.188.48-.303.781-.345A7.6 7.6 0 0 1 6.5 13c-.417 0-.77-.146-1.063-.438A1.447 1.447 0 0 1 5 11.5c0-.417.146-.77.438-1.063A1.446 1.446 0 0 1 6.5 10c.417 0 .77.146 1.063.438.291.291.437.645.437 1.062 0 .417-.146.77-.438 1.063A1.446 1.446 0 0 1 6.5 13h.281c.25 0 .485.016.703.047.22.031.433.12.641.265-.354.167-.63.459-.828.876C7.099 14.604 7 15.207 7 16Zm6.5-2c-.417 0-.77-.146-1.063-.438A1.446 1.446 0 0 1 12 12.5c0-.417.146-.77.438-1.063A1.446 1.446 0 0 1 13.5 11c.417 0 .77.146 1.063.438.291.291.437.645.437 1.062 0 .417-.146.77-.438 1.063A1.446 1.446 0 0 1 13.5 14c.354 0 .682.01.984.031.303.021.563.094.782.219.218.125.396.323.53.594.136.27.204.656.204 1.156h-3a6.77 6.77 0 0 0-.078-1.016 2.727 2.727 0 0 0-.328-.953 3.21 3.21 0 0 1 .437-.031h.469ZM12 16H8c0-.5.036-.885.11-1.156.072-.271.187-.469.343-.594a1.1 1.1 0 0 1 .61-.219c.25-.02.562-.031.937-.031a.973.973 0 0 1-.719-.281A.974.974 0 0 1 9 13c0-.292.094-.531.281-.719A.973.973 0 0 1 10 12c.27 0 .505.094.703.281A.947.947 0 0 1 11 13a.947.947 0 0 1-.297.719A.988.988 0 0 1 10 14c.354 0 .656.01.906.031.25.021.453.094.61.219.156.125.276.323.359.594.083.27.125.656.125 1.156ZM6.844 8a64.936 64.936 0 0 1 2.031-1.375c.292-.188.536-.339.734-.453.198-.115.318-.172.36-.172.041 0 .203.083.484.25.281.167.625.38 1.031.64.407.261.85.553 1.329.876.479.323.932.63 1.359.921.427.292.807.558 1.14.797.334.24.563.412.688.516h-1l-4.719-2.969c-.041-.041-.135-.062-.281-.062-.167 0-.27.02-.313.062L5 10H4c.542-.375 1.047-.73 1.516-1.063.468-.333.911-.645 1.328-.937Z"/></svg>