<svg xmlns="http://www.w3.org/2000/svg" fill="currentColor" viewBox="0 0 16 16"><path d="M8.188 12A6.688 6.688 0 0 1 8 10.375c0-.208.01-.323.031-.344 0-.229.031-.448.094-.656 0-.23.01-.354.031-.375H6.281c-.104.23-.166.469-.187.719A3.21 3.21 0 0 0 6 10.5c0 .27.031.531.094.781.02.25.083.49.187.719h1.907ZM6.78 13c.334.458.76.865 1.282 1.219.52.354 1.062.583 1.624.687-.479-.479-.885-1.114-1.218-1.906H6.78Zm3.719 1.719c.52-.396.958-.969 1.313-1.719H9.219c.125.27.312.583.562.938.146.25.386.51.719.78Zm.844.187a4.256 4.256 0 0 0 1.625-.687A5.12 5.12 0 0 0 14.249 13h-1.688c-.333.792-.74 1.427-1.218 1.906Zm-1.938-8.75C8.24 6.448 7.365 7.063 6.781 8h1.625a8.86 8.86 0 0 1 .422-.953c.156-.302.35-.6.578-.89Zm2.938 4.219v-.344c0-.229-.031-.448-.094-.656-.02-.02-.031-.073-.031-.156 0-.125-.01-.198-.031-.219H8.844c-.021.02-.031.146-.031.375a2.271 2.271 0 0 0-.094.656c-.021.021-.031.136-.031.344 0 .292.02.568.062.828.042.26.094.526.156.797h3.219c.063-.27.115-.537.156-.797.042-.26.063-.536.063-.828ZM10.5 6.062C9.937 6.438 9.48 7.083 9.125 8h2.781c-.02-.02-.031-.042-.031-.063 0-.041-.01-.072-.031-.093-.021-.021-.031-.052-.031-.094 0-.02-.01-.042-.032-.063a.722.722 0 0 0-.094-.156l-.124-.25c-.021-.02-.032-.041-.032-.062l-.062-.063A.725.725 0 0 0 11.375 7l-.063-.125-.53-.625c-.022 0-.042-.01-.063-.031l-.063-.063c-.02 0-.052-.02-.094-.062-.02 0-.041-.01-.062-.032ZM14.25 8c-.583-.938-1.458-1.552-2.625-1.844a6.025 6.025 0 0 1 1 1.844h1.625Zm.5 4c.167-.958.25-1.458.25-1.5 0-.042-.083-.542-.25-1.5h-1.875c.083.146.125.604.125 1.375 0 .292-.01.568-.031.828-.021.26-.063.526-.125.797h1.906ZM1 13h3v1H1a.89.89 0 0 1-.687-.313A.89.89 0 0 1 0 13V.25C0 .083.083 0 .25 0h3.5c.167 0 .25.083.25.25V2h9.5c.333 0 .5.167.5.5V4h-1V3H1v10Zm10.375-7.938c1.042.167 1.912.553 2.61 1.157.697.604 1.255 1.375 1.671 2.312.23.959.344 1.615.344 1.969 0 .77-.146 1.49-.438 2.156a5.656 5.656 0 0 1-1.187 1.75c-.5.5-1.083.89-1.75 1.172A5.41 5.41 0 0 1 10.5 16a5.24 5.24 0 0 1-2.125-.438 5.655 5.655 0 0 1-1.75-1.187c-.5-.5-.896-1.083-1.188-1.75A5.244 5.244 0 0 1 5 10.5c0-.667.12-1.307.36-1.922a5.687 5.687 0 0 1 2.469-2.89 4.831 4.831 0 0 1 1.827-.625c.021-.021.094-.032.219-.032s.198-.01.219-.031h.875c.02.02.083.031.187.031.125 0 .198.01.219.032ZM5.25 1C5.083 1 5 .917 5 .75v-.5c0-.167.083-.25.25-.25h3.5c.167 0 .25.083.25.25v.5c0 .167-.083.25-.25.25h-3.5Zm5 0C10.083 1 10 .917 10 .75v-.5c0-.167.083-.25.25-.25h3.5c.167 0 .25.083.25.25v.5c0 .167-.083.25-.25.25h-3.5Z"/></svg>