<svg xmlns="http://www.w3.org/2000/svg" fill="currentColor" viewBox="0 0 16 16"><path d="M0 9c0-.292.094-.531.281-.719A.973.973 0 0 1 1 8h4.75L2.562 4.781a6.64 6.64 0 0 0-.515.11 1.355 1.355 0 0 1-.203.046C1.094 4.938.542 4.625.188 4H1.78a.723.723 0 0 0 .532-.219.723.723 0 0 0 .218-.531v-.5a.723.723 0 0 0-.219-.531.723.723 0 0 0-.53-.219H.155c.167-.292.401-.531.703-.719.302-.187.63-.281.985-.281.541 0 1.005.193 1.39.578.386.386.579.85.579 1.39 0 .167-.032.345-.094.532l4.5 4.5H9V4c0-.292.094-.531.281-.719A.973.973 0 0 1 10 3h.594a3.917 3.917 0 0 1 2.594.953c.354.302.65.656.89 1.063.24.406.401.849.485 1.328L14.813 8H15c.27 0 .505.094.703.281A.947.947 0 0 1 16 9v3c0 .27-.099.505-.297.703A.961.961 0 0 1 15 13h-1.063a2.38 2.38 0 0 1-.843 1.422c-.459.385-.99.578-1.594.578a2.402 2.402 0 0 1-1.594-.578A2.537 2.537 0 0 1 9.031 13H6.937a2.38 2.38 0 0 1-.843 1.422c-.459.385-.99.578-1.594.578a2.402 2.402 0 0 1-1.594-.578A2.537 2.537 0 0 1 2.031 13H1a.947.947 0 0 1-.719-.297A.988.988 0 0 1 0 12V9Zm2.031 3a2.476 2.476 0 0 1 .875-1.438A2.45 2.45 0 0 1 4.5 10c.604 0 1.135.188 1.594.563.458.374.74.854.843 1.437h2.094a2.476 2.476 0 0 1 .875-1.438A2.45 2.45 0 0 1 11.5 10c.604 0 1.135.188 1.594.563.458.374.74.854.844 1.437H15V9H1v3h1.031Zm8.563-8H10v4h3.813l-.25-1.5a2.906 2.906 0 0 0-1.032-1.797A2.94 2.94 0 0 0 10.594 4ZM10 12.5c0 .417.146.77.438 1.063.291.291.645.437 1.062.437.417 0 .77-.146 1.063-.438.291-.291.437-.645.437-1.062 0-.417-.146-.77-.438-1.063A1.446 1.446 0 0 0 11.5 11c-.417 0-.77.146-1.063.438A1.446 1.446 0 0 0 10 12.5Zm-7 0c0 .417.146.77.438 1.063.291.291.645.437 1.062.437.417 0 .77-.146 1.063-.438.291-.291.437-.645.437-1.062 0-.417-.146-.77-.438-1.063A1.446 1.446 0 0 0 4.5 11c-.417 0-.77.146-1.063.438A1.447 1.447 0 0 0 3 12.5Z"/></svg>