<svg xmlns="http://www.w3.org/2000/svg" fill="currentColor" viewBox="0 0 16 16"><path d="M14 3c.542 0 1.01.193 1.406.578.396.386.594.86.594 1.422v6a1.92 1.92 0 0 1-.594 1.406A1.922 1.922 0 0 1 14 13H2a1.92 1.92 0 0 1-1.406-.594A1.922 1.922 0 0 1 0 11V5c0-.563.198-1.036.594-1.422A1.948 1.948 0 0 1 2 3h12ZM1.75 8.75a.723.723 0 0 0 .531-.219A.723.723 0 0 0 2.5 8a.723.723 0 0 0-.219-.531.723.723 0 0 0-.531-.219.723.723 0 0 0-.531.219A.723.723 0 0 0 1 8c0 .208.073.385.219.531a.723.723 0 0 0 .531.219ZM14 4H3v8h11V4Z"/></svg>