<svg xmlns="http://www.w3.org/2000/svg" fill="currentColor" viewBox="0 0 16 16"><path d="M11 0c.542 0 1.01.198 1.406.594C12.802.99 13 1.458 13 2v12c0 .563-.198 1.037-.594 1.422A1.948 1.948 0 0 1 11 16H5c-.542 0-1.01-.193-1.406-.578A1.907 1.907 0 0 1 3 14V2c0-.542.198-1.01.594-1.406A1.922 1.922 0 0 1 5 0h6ZM8 15a.752.752 0 0 0 .531-.203.71.71 0 0 0 .219-.547.723.723 0 0 0-.219-.531A.723.723 0 0 0 8 13.5a.723.723 0 0 0-.531.219.723.723 0 0 0-.219.531c0 .23.073.412.219.547A.752.752 0 0 0 8 15Zm4-13H4v11h8V2Z"/></svg>