<svg xmlns="http://www.w3.org/2000/svg" fill="currentColor" viewBox="0 0 16 16"><path d="M12 0c.292 0 .531.094.719.281A.973.973 0 0 1 13 1v14a.974.974 0 0 1-.281.719A.974.974 0 0 1 12 16H4a.973.973 0 0 1-.719-.281A.974.974 0 0 1 3 15V1c0-.292.094-.531.281-.719A.973.973 0 0 1 4 0h8Zm0 1H4v14h8V1ZM5.5 14c-.333 0-.5-.167-.5-.5 0-.333.167-.5.5-.5h5c.333 0 .5.167.5.5 0 .333-.167.5-.5.5h-5Zm0-2c-.333 0-.5-.167-.5-.5 0-.333.167-.5.5-.5h5c.333 0 .5.167.5.5 0 .333-.167.5-.5.5h-5Zm4-7c-.417 0-.77-.146-1.063-.438A1.447 1.447 0 0 1 8 3.5c0-.417.146-.77.438-1.063A1.447 1.447 0 0 1 9.5 2c.417 0 .77.146 1.063.438.291.291.437.645.437 1.062 0 .417-.146.77-.438 1.063A1.447 1.447 0 0 1 9.5 5Z"/></svg>