<svg xmlns="http://www.w3.org/2000/svg" fill="currentColor" viewBox="0 0 16 16"><path d="M10.988.016c.29 0 .53.094.716.28.187.188.28.427.28.718v13.972a.97.97 0 0 1-.28.717.968.968 0 0 1-.716.281H5.012a.983.983 0 0 1-.7-.28.946.946 0 0 1-.296-.718V1.014c0-.291.099-.53.296-.717a.983.983 0 0 1 .7-.281h5.976Zm0 .998H5.012v13.972h5.976V1.014ZM6.506 12.99c-.332 0-.498-.166-.498-.499 0-.333.166-.499.498-.499h2.988c.332 0 .498.166.498.499 0 .333-.166.499-.498.499H6.506Zm2.49-8.982a.968.968 0 0 1-.716-.28A.972.972 0 0 1 8 3.01c0-.291.094-.53.28-.717a.968.968 0 0 1 .716-.281c.29 0 .53.094.716.28.187.188.28.427.28.718s-.093.53-.28.717a.968.968 0 0 1-.716.281Z"/></svg>