<svg xmlns="http://www.w3.org/2000/svg" fill="currentColor" viewBox="0 0 16 16"><path d="M6.857 4.571H1.143v10.286h5.714V4.571Zm0-1.142c.31 0 .583.107.822.321.214.214.321.488.321.821v10.286c0 .334-.107.607-.321.822a1.192 1.192 0 0 1-.822.321H1.143c-.333 0-.607-.107-.822-.321A1.116 1.116 0 0 1 0 14.857V4.571c0-.333.107-.607.321-.821.215-.214.489-.321.822-.321h5.714Zm-4 10.285c-.38 0-.571-.19-.571-.571 0-.381.19-.572.571-.572h2.286c.38 0 .571.19.571.572 0 .38-.19.571-.571.571H2.857ZM4.571 8c-.333 0-.607-.107-.821-.321a1.116 1.116 0 0 1-.321-.822c0-.333.107-.607.321-.821.214-.215.488-.322.821-.322.334 0 .608.107.822.322.214.214.321.488.321.821 0 .333-.107.607-.321.822-.214.214-.488.321-.822.321Zm5.715 1.714c0-.38.19-.571.571-.571h2.286c.38 0 .571.19.571.571 0 .381-.19.572-.571.572h-2.286c-.38 0-.571-.19-.571-.572ZM14.857 0c.31 0 .584.107.822.321.214.215.321.489.321.822v10.286c0 .333-.107.607-.321.821a1.192 1.192 0 0 1-.822.321H9.143V11.43h5.714V1.143H9.143v1.143H8V1.143c0-.333.107-.607.321-.822C8.536.107 8.81 0 9.143 0h5.714Zm-1.143 3.429c0 .333-.107.607-.321.821-.214.214-.488.321-.822.321-.333 0-.607-.107-.821-.321-.214-.214-.321-.488-.321-.821 0-.334.107-.608.321-.822.214-.214.488-.321.821-.321.334 0 .608.107.822.321.214.214.321.488.321.822Z"/></svg>