<svg xmlns="http://www.w3.org/2000/svg" fill="currentColor" viewBox="0 0 16 16"><path d="M1.465 8.454c-.021-.522.063-.981.25-1.378.19-.396.44-.73.754-1.002.314-.271.67-.475 1.067-.61A3.674 3.674 0 0 1 4.73 5.26a3.09 3.09 0 0 1 1.695.501c.523.334.869.835 1.036 1.503.607-.167.931-.25.973-.25.481 0 .858.167 1.13.5.272.335.43.648.471.94.753 0 1.313.235 1.68.705.365.47.517.991.454 1.565-.062.574-.35 1.096-.863 1.566-.512.47-1.271.704-2.275.704H5.985L2.469 16v-3.006h-.502c-.628 0-1.104-.214-1.428-.642a2.588 2.588 0 0 1-.534-1.44 2.934 2.934 0 0 1 .33-1.534c.25-.49.628-.799 1.13-.924ZM7.523 1.91c0-.334.073-.621.22-.861a1.92 1.92 0 0 1 .565-.595c.23-.157.491-.271.784-.344a3.62 3.62 0 0 1 .88-.11c.543 0 1.025.115 1.443.344.419.23.628.585.628 1.065.146-.083.335-.125.565-.125.23 0 .455.047.675.14.22.095.403.22.55.376.146.157.245.334.297.533a.755.755 0 0 1-.078.579 8.34 8.34 0 0 1 .25-.047.967.967 0 0 1 .126-.016c.44 0 .806.162 1.1.486.292.323.449.678.47 1.064.02.386-.115.741-.408 1.065-.293.323-.806.485-1.538.485v2.004l-2.01-2.004H7.995c-.544-.835-1.298-1.357-2.26-1.565a1.311 1.311 0 0 1-.11-.517 1.63 1.63 0 0 1 .141-.705c.105-.25.293-.49.565-.72.272-.23.67-.407 1.193-.532ZM1.967 11.96h1.507v2.036l2.51-2.035H9.03c.753 0 1.276-.13 1.569-.392.293-.26.44-.548.44-.86 0-.314-.105-.6-.314-.862-.21-.26-.44-.391-.691-.391H9.03c0-.397-.058-.725-.173-.986-.115-.261-.392-.392-.832-.392-.293.042-.628.167-1.004.376 0-.751-.241-1.289-.722-1.613a2.757 2.757 0 0 0-1.57-.485c-.753 0-1.339.209-1.758.626-.355.69-.523 1.17-.502 1.44l.032.815-.785.188c-.314.125-.523.328-.628.61a1.684 1.684 0 0 0-.094.846c.042.281.152.532.33.751.177.22.392.329.643.329Z"/></svg>