<svg xmlns="http://www.w3.org/2000/svg" fill="currentColor" viewBox="0 0 16 16"><path d="M5 2h10c.292 0 .531.094.719.281A.973.973 0 0 1 16 3v10a.974.974 0 0 1-.281.719A.974.974 0 0 1 15 14H5a.973.973 0 0 1-.719-.281A.974.974 0 0 1 4 13v-2h1v2h10V3H5v2H4V3c0-.292.094-.531.281-.719A.973.973 0 0 1 5 2ZM.5 7.5h9L7.156 5.375c-.229-.25-.229-.49 0-.719A.478.478 0 0 1 7.5 4.5c.125 0 .24.052.344.156l2.875 2.594c.187.208.281.448.281.719 0 .27-.094.51-.281.718l-2.875 2.688a.478.478 0 0 1-.344.156c-.063 0-.177-.052-.344-.156-.229-.25-.229-.49 0-.719L9.5 8.5h-9C.167 8.5 0 8.333 0 8c0-.333.167-.5.5-.5Z"/></svg>