<svg xmlns="http://www.w3.org/2000/svg" fill="currentColor" viewBox="0 0 16 16"><path d="M15.719 7.25c.187.208.281.448.281.719 0 .27-.094.51-.281.718l-2.875 2.688a.477.477 0 0 1-.344.156.477.477 0 0 1-.344-.156.494.494 0 0 1 0-.719L14.5 8.5h-8c-.333 0-.5-.167-.5-.5 0-.333.167-.5.5-.5h8l-2.344-2.125a.494.494 0 0 1 0-.719.478.478 0 0 1 .344-.156c.125 0 .24.052.344.156l2.875 2.594ZM6 13a4.873 4.873 0 0 0 2.969-.969h1.469a5.94 5.94 0 0 1-1.97 1.438A5.843 5.843 0 0 1 6 14a5.886 5.886 0 0 1-2.344-.469A6.017 6.017 0 0 1 1.75 12.25a6.02 6.02 0 0 1-1.281-1.906A5.886 5.886 0 0 1 0 8c0-.833.156-1.615.469-2.344A6.02 6.02 0 0 1 1.75 3.75a6.02 6.02 0 0 1 1.906-1.281A5.886 5.886 0 0 1 6 2c.875 0 1.698.182 2.469.547A6.13 6.13 0 0 1 10.438 4h-1.5a6.153 6.153 0 0 0-1.376-.719A4.414 4.414 0 0 0 6 3a4.957 4.957 0 0 0-3.547 1.469c-.448.458-.802.99-1.062 1.593C1.13 6.668 1 7.313 1 8s.13 1.333.39 1.938a5.212 5.212 0 0 0 1.063 1.593c.448.459.98.818 1.594 1.078A4.94 4.94 0 0 0 6 13Z"/></svg>