<svg xmlns="http://www.w3.org/2000/svg" fill="currentColor" viewBox="0 0 16 16"><path d="M14.703 12.78c.187.208.28.446.28.715 0 .27-.093.508-.28.716l-1.9 1.616a.477.477 0 0 1-.342.156.477.477 0 0 1-.343-.156.491.491 0 0 1 0-.715l1.37-1.12H2.559c-.333 0-.499-.165-.499-.497 0-.145.036-.274.109-.388.073-.114.12-.171.14-.171l9.873-9.888H2.526l1.34 1.119c.228.249.228.487 0 .715a.477.477 0 0 1-.343.156.477.477 0 0 1-.343-.156L1.312 3.265a1.037 1.037 0 0 1-.28-.715c0-.27.093-.508.28-.715L3.18.187c.229-.228.457-.228.685 0 .229.249.229.487 0 .715l-1.339 1.15H13.52c.124 0 .233.047.327.14.093.094.14.213.14.358a.707.707 0 0 1-.11.389c-.072.114-.108.181-.108.202l-9.904 9.857h9.623l-1.37-1.15a.491.491 0 0 1 0-.716.476.476 0 0 1 .343-.155c.124 0 .239.051.342.155l1.9 1.648Z"/></svg>