<svg xmlns="http://www.w3.org/2000/svg" fill="currentColor" viewBox="0 0 16 16"><path d="M6 16v-2c0-.48.042-.948.125-1.406.083-.459.23-.875.438-1.25s.5-.688.875-.938.843-.385 1.406-.406l.5-.5A2.944 2.944 0 0 1 8 7c0-.27.01-.417.031-.437a2.97 2.97 0 0 1 .844-1.688 2.97 2.97 0 0 1 1.688-.844c.02-.02.166-.031.437-.031.833 0 1.542.292 2.125.875S14 6.167 14 7s-.292 1.542-.875 2.125A2.893 2.893 0 0 1 11 10h2c.563 0 1.031.104 1.406.313.375.208.682.494.922.859.24.364.412.786.516 1.265.104.48.156 1 .156 1.563v2H6ZM0 9V7c0-.292.099-.531.297-.719A.988.988 0 0 1 1 6h.906c.084-.313.209-.615.375-.906l-.625-.625a.988.988 0 0 1-.312-.719c0-.27.104-.5.312-.688l1.407-1.437a.973.973 0 0 1 .718-.281c.271 0 .5.093.688.281l.625.625c.166-.063.317-.13.453-.203.135-.073.286-.13.453-.172V1c0-.292.099-.531.297-.719A.988.988 0 0 1 7 0h2c.292 0 .531.094.719.281A.973.973 0 0 1 10 1v.875c.167.042.323.099.469.172.146.073.291.14.437.203l.625-.625c.23-.188.469-.281.719-.281.27 0 .51.093.719.281l1.406 1.438a.935.935 0 0 1 .281.687c0 .27-.094.51-.281.719l-.156.156a3.915 3.915 0 0 0-.719-.719l.156-.156-1.406-1.406-.719.719a3.938 3.938 0 0 0-.281-.047A2.015 2.015 0 0 0 11 3a4.275 4.275 0 0 0-.719.062 5.383 5.383 0 0 0-.297-.109 5.388 5.388 0 0 1-.296-.11L9 2.594V1H7v1.594l-.688.25a.555.555 0 0 1-.156.047.28.28 0 0 0-.156.078 1.716 1.716 0 0 1-.219.094 1.68 1.68 0 0 0-.218.093l-.657.313-1.125-1.125L2.344 3.75 3.5 4.906l-.344.625c-.062.125-.12.255-.172.39a9.185 9.185 0 0 0-.14.391L2.625 7H1v2h1.625l.219.688c.02.041.041.093.062.156.021.062.042.114.063.156.041.083.073.156.094.219.02.062.052.135.093.219l.344.656-1.156 1.156 1.437 1.406L4.906 12.5l.282.156c-.042.23-.079.438-.11.625a3.24 3.24 0 0 0-.047.531l-.562.563a.935.935 0 0 1-.688.281.973.973 0 0 1-.719-.281l-1.406-1.438a.907.907 0 0 1-.312-.703.91.91 0 0 1 .312-.703l.625-.625A3.79 3.79 0 0 1 1.906 10H1a.961.961 0 0 1-.703-.297A.961.961 0 0 1 0 9Zm7 6h8v-1c0-.417-.026-.807-.078-1.172a2.847 2.847 0 0 0-.297-.953 1.639 1.639 0 0 0-.61-.64C13.756 11.077 13.418 11 13 11H9c-.417 0-.755.078-1.016.234-.26.157-.463.37-.609.641a2.83 2.83 0 0 0-.297.953A8.298 8.298 0 0 0 7 14v1Zm2-8c0 .563.193 1.036.578 1.422.386.385.86.578 1.422.578.563 0 1.037-.198 1.422-.594C12.807 8.01 13 7.542 13 7c0-.563-.193-1.036-.578-1.422A1.933 1.933 0 0 0 11 5a1.92 1.92 0 0 0-1.406.594A1.922 1.922 0 0 0 9 7Zm-3.188 3a2.705 2.705 0 0 1-.593-.922A2.888 2.888 0 0 1 5 8c0-.75.24-1.401.719-1.953A3 3 0 0 1 7.53 5.03a3.728 3.728 0 0 1-.125.282 3.72 3.72 0 0 0-.125.28l-.062.188a4.908 4.908 0 0 0-.125.438c-.021.02-.037.031-.047.031-.01 0-.026.01-.047.031a2.018 2.018 0 0 0-.719.703C6.094 7.286 6 7.625 6 8c0 .083.005.167.016.25.01.083.026.177.046.281.125.417.396.781.813 1.094l-.39.328a5.91 5.91 0 0 0-.36.328.245.245 0 0 0-.063-.047.245.245 0 0 1-.062-.046V10h-.188ZM11 13h3v1h-3v-1Z"/></svg>