<svg xmlns="http://www.w3.org/2000/svg" fill="currentColor" viewBox="0 0 16 16"><path d="M15.983 14.031c.042.334.005.61-.11.828a2.97 2.97 0 0 1-.329.516c-.271.292-.569.469-.893.531a4.5 4.5 0 0 1-.61.094h-3.01v-2H9.027v-2H7.02v-2H5.014a4.633 4.633 0 0 1-1.911-.406A5.296 5.296 0 0 1 .408 6.907 4.597 4.597 0 0 1 0 5c0-.667.136-1.302.407-1.906A5.296 5.296 0 0 1 3.103.406 4.633 4.633 0 0 1 5.014 0c.69 0 1.338.135 1.943.406.606.271 1.134.63 1.583 1.078.45.448.81.974 1.081 1.579A4.67 4.67 0 0 1 10.03 5c0 .354-.047.672-.141.953a7.968 7.968 0 0 1-.267.703l-.031.032 5.86 6.062c.335.396.512.823.533 1.281ZM14.04 15c.188.02.355-.01.502-.094a.683.683 0 0 0 .329-.25c.094-.125.13-.302.11-.531 0-.25-.105-.49-.314-.719l-5.83-6.031c-.208-.188-.313-.406-.313-.656a.56.56 0 0 1 .094-.344 8.75 8.75 0 0 0 .267-.594c.094-.229.14-.49.14-.781 0-.542-.109-1.052-.328-1.531a4.251 4.251 0 0 0-2.162-2.14A3.698 3.698 0 0 0 5.014 1c-.544 0-1.056.11-1.536.328a4.17 4.17 0 0 0-1.27.89A4.511 4.511 0 0 0 1.332 3.5c-.22.48-.33.98-.33 1.5 0 .563.11 1.083.33 1.563.22.479.512.9.877 1.265.366.365.79.651 1.27.86.48.208.992.312 1.535.312h3.009v2h2.006v2h2.005v2h2.006ZM4.513 3c.418 0 .773.146 1.065.438.293.291.44.645.44 1.062 0 .417-.147.77-.44 1.063A1.453 1.453 0 0 1 4.513 6c-.418 0-.773-.146-1.066-.438A1.444 1.444 0 0 1 3.01 4.5c0-.417.146-.77.438-1.063A1.453 1.453 0 0 1 4.513 3Z"/></svg>