<svg xmlns="http://www.w3.org/2000/svg" fill="currentColor" viewBox="0 0 16 16"><path d="M0 1.006C0 .713.099.472.297.283A.984.984 0 0 1 .999 0h13.988c.291 0 .53.094.718.283.188.189.281.43.281.723v7.041a.997.997 0 0 1-.28.707.943.943 0 0 1-.719.299h-.281c.229.189.411.335.546.44.136.105.224.178.266.22h.031l.094.063c.187.21.301.45.343.723.042.272-.01.534-.156.786-.25.419-.583.629-1 .629a.948.948 0 0 1-.124-.016 8.178 8.178 0 0 1-.25-.047l-.156-.063 1.124 2.106c.125.251.146.513.063.786a.953.953 0 0 1-.5.597l-1.093.566c-.166.105-.312.157-.437.157a.088.088 0 0 1-.062-.031c-.417 0-.708-.189-.875-.566l-1.092-2.075-.063.189a1.497 1.497 0 0 1-.453.613 1.05 1.05 0 0 1-.67.235.948.948 0 0 1-.126-.015 8.484 8.484 0 0 1-.25-.047c-.457-.147-.718-.44-.78-.88l-.031-.126a455.477 455.477 0 0 1-.11-1.367c-.03-.388-.067-.834-.109-1.337-.042-.503-.083-1.016-.125-1.54H1c-.27 0-.505-.1-.702-.299A.97.97 0 0 1 0 8.047V1.006Zm1 7.041h7.618a11.95 11.95 0 0 1-.047-.519 7.375 7.375 0 0 1-.016-.487h-3.06a.476.476 0 0 1-.343-.157.482.482 0 0 1 0-.707.5.5 0 0 1 .343-.142h2.966v-.377c-.041-.293.042-.492.25-.597.021 0 .031-.005.031-.016 0-.01.01-.016.032-.016.104-.041.182-.068.234-.078.052-.01.13-.016.234-.016-.167-.105-.25-.24-.25-.408 0-.147.052-.268.156-.362a.539.539 0 0 1 .375-.141c.312 0 .468.157.468.471a.526.526 0 0 1-.125.362.435.435 0 0 1-.343.141c.02 0 .031.005.031.016 0 .01.01.015.031.015.188.168.417.351.687.55.27.2.552.414.843.645a.502.502 0 0 1 .406-.189c.313 0 .469.168.469.503 0 .126-.032.22-.094.283.25.21.505.414.765.613.26.2.515.404.765.613h1.561V1.006H.999v7.041Zm8.492-.094c.02.23.031.43.031.597v.503c.062.692.12 1.378.172 2.059.052.681.109 1.378.171 2.09.063.23.188.346.375.346.208 0 .323-.094.344-.283l.624-2.074 2.06 3.866c0 .042.032.073.094.094.042.021.068.027.079.016.01-.01.025-.016.046-.016l1.124-.597c.104-.042.136-.136.094-.283l-2.092-3.835 2.06.629c.23 0 .386-.063.47-.189.082-.188.062-.345-.063-.471l-.031-.032c-.021 0-.188-.125-.5-.377-.312-.251-.708-.566-1.187-.943l-.624-.503a24.058 24.058 0 0 0-.78-.597 159.2 159.2 0 0 1-1.437-1.132 62.54 62.54 0 0 0-1.249-.974l.125 1.116c.042.366.073.696.094.99Zm1.998-3.93h1.998c.333 0 .5.158.5.472a.547.547 0 0 1-.14.377.46.46 0 0 1-.36.157H11.49a.476.476 0 0 1-.343-.157.482.482 0 0 1 0-.707.5.5 0 0 1 .343-.141Zm1-2.011h.998c.333 0 .5.157.5.471a.547.547 0 0 1-.14.377.46.46 0 0 1-.36.158h-.999a.476.476 0 0 1-.343-.157.482.482 0 0 1 0-.708.5.5 0 0 1 .343-.141ZM2.497 4.024h.999c.333 0 .5.157.5.471a.547.547 0 0 1-.141.377.46.46 0 0 1-.359.157h-1a.476.476 0 0 1-.343-.157.482.482 0 0 1 0-.707.5.5 0 0 1 .344-.141Zm-.5 2.514c0-.146.052-.267.156-.361a.5.5 0 0 1 .344-.142h.999c.333 0 .5.158.5.472a.547.547 0 0 1-.141.377.46.46 0 0 1-.359.157h-1a.476.476 0 0 1-.343-.157.482.482 0 0 1-.156-.346Zm5.995-4.023c0-.147.052-.267.156-.362a.539.539 0 0 1 .375-.141c.312 0 .468.157.468.471a.547.547 0 0 1-.14.377.46.46 0 0 1-.36.158.476.476 0 0 1-.343-.157.482.482 0 0 1-.156-.346Zm4.996 4.023c0-.146.052-.267.156-.361a.538.538 0 0 1 .375-.142c.312 0 .468.158.468.472a.547.547 0 0 1-.14.377.46.46 0 0 1-.36.157.476.476 0 0 1-.343-.157.482.482 0 0 1-.156-.346Zm-2.467-4.526c.312 0 .469.157.469.471a.547.547 0 0 1-.141.377.46.46 0 0 1-.36.158.476.476 0 0 1-.342-.157.482.482 0 0 1-.157-.346c0-.147.052-.267.157-.362a.538.538 0 0 1 .374-.141Zm-6.525.503c0-.147.052-.267.156-.362a.539.539 0 0 1 .374-.141c.313 0 .469.157.469.471a.547.547 0 0 1-.14.377.46.46 0 0 1-.36.158.476.476 0 0 1-.343-.157.482.482 0 0 1-.156-.346Zm1.53 1.509c.312 0 .468.157.468.471a.547.547 0 0 1-.14.377.46.46 0 0 1-.36.157.476.476 0 0 1-.343-.157.482.482 0 0 1 0-.707.539.539 0 0 1 .374-.141Zm-3.529-1.51c0-.146.052-.266.156-.36a.539.539 0 0 1 .375-.142c.312 0 .468.157.468.471a.547.547 0 0 1-.14.377.46.46 0 0 1-.36.158.476.476 0 0 1-.343-.157.482.482 0 0 1-.156-.346Zm5.527 1.51c.312 0 .468.157.468.471a.547.547 0 0 1-.14.377.46.46 0 0 1-.36.157.476.476 0 0 1-.343-.157.482.482 0 0 1 0-.707.539.539 0 0 1 .375-.141Zm-1-2.012c.313 0 .469.157.469.471a.547.547 0 0 1-.14.377.46.46 0 0 1-.36.158.476.476 0 0 1-.343-.157.482.482 0 0 1 0-.708.539.539 0 0 1 .375-.141Z"/></svg>