<svg xmlns="http://www.w3.org/2000/svg" fill="currentColor" viewBox="0 0 16 16"><path d="M0 4.969c0-.292.094-.532.281-.719A.973.973 0 0 1 1 3.969h6V5H1v6.594l1.125-1.156a1.716 1.716 0 0 0-.094-.22C2.011 10.199 2 10.126 2 10v-.125c.042-.25.156-.464.344-.64A.926.926 0 0 1 3 8.968c.333 0 .583.11.75.328.167.219.25.484.25.797a2.99 2.99 0 0 1-.063.219c-.02.062-.041.114-.062.156l1.656 1.625A.93.93 0 0 1 6 11.969L7.438 8.78a.362.362 0 0 1-.079-.047.362.362 0 0 0-.078-.046.973.973 0 0 1-.281-.72c0-.29.094-.53.281-.718A.973.973 0 0 1 8 6.969c.292 0 .531.099.719.297.187.198.281.442.281.734s-.094.52-.281.688l1.25 3.28c.208 0 .396.053.562.157l1.625-1.563c.209-.208.406-.4.594-.578.188-.177.365-.349.531-.515l.5-.5c.125 0 .198.041.219.125V15c0 .27-.094.505-.281.703A.947.947 0 0 1 13 16H1a.961.961 0 0 1-.703-.297A.961.961 0 0 1 0 15V4.969Zm1 10h12v-4.5l-2.125 2.062c.042.042.063.073.063.094.041.208.062.333.062.375 0 .27-.094.505-.281.703A.947.947 0 0 1 10 14a.961.961 0 0 1-.703-.297A.997.997 0 0 1 9 12.97c0-.354.156-.636.469-.844L8.28 8.937l-.234.047C7.995 8.994 7.979 9 8 9c-.02 0-.036-.005-.047-.016-.01-.01-.026-.015-.047-.015l-1.375 3.156a.91.91 0 0 0 .094.078c.042.031.104.089.188.172.083.125.145.27.187.438 0 .312-.078.588-.234.828-.157.24-.412.359-.766.359a.961.961 0 0 1-.703-.297A.997.997 0 0 1 5 12.97c0-.188.052-.365.156-.531l-1.625-1.626a.678.678 0 0 1-.25.126A.99.99 0 0 1 3 11a.603.603 0 0 1-.313-.094c-.062 0-.124-.031-.187-.094l-1.5 1.5v2.657Zm8.906-11.25 1.75 1.75L15.062 2 16 3.063l-4.344 4.124-2.594-2.593.844-.875Z"/></svg>