<svg xmlns="http://www.w3.org/2000/svg" fill="currentColor" viewBox="0 0 16 16"><path d="M10.02 15H0v-.993c0-.56.104-1.076.313-1.553a4.036 4.036 0 0 1 2.145-2.11 3.946 3.946 0 0 1 1.55-.31H5.01c-.835 0-1.545-.29-2.13-.87a2.861 2.861 0 0 1-.876-2.11c0-.829.292-1.532.877-2.112.584-.58 1.294-.869 2.129-.869s1.544.29 2.129.87a2.86 2.86 0 0 1 .877 2.11c0 .828-.293 1.532-.877 2.111-.585.58-1.294.87-2.13.87h1.003a3.91 3.91 0 0 1 1.565.31 4.073 4.073 0 0 1 2.13 2.11c.208.476.313.994.313 1.553V15Zm-1.002-.993c0-.828-.293-1.532-.877-2.111-.585-.58-1.294-.87-2.13-.87H4.009c-.397 0-.778.078-1.143.233a3.212 3.212 0 0 0-.97.637 2.902 2.902 0 0 0-.892 2.11h8.015ZM3.006 7.053a1.9 1.9 0 0 0 .595 1.397c.396.393.866.59 1.409.59.563 0 1.038-.197 1.424-.59.387-.393.58-.859.58-1.397 0-.559-.193-1.03-.58-1.412a1.945 1.945 0 0 0-1.424-.574 1.96 1.96 0 0 0-1.41.574 1.886 1.886 0 0 0-.594 1.412Zm6.888-4.315 1.754 1.708L15.092 1 16 2.086l-4.352 4.067-2.6-2.577.846-.838Zm1.629 9.282h2.974c.334 0 .501.165.501.497a.497.497 0 0 1-.14.341.464.464 0 0 1-.36.155h-2.975a.48.48 0 0 1-.345-.155.473.473 0 0 1-.157-.341c0-.145.053-.264.157-.357a.506.506 0 0 1 .345-.14Zm0 1.987h2.974c.334 0 .501.165.501.496a.497.497 0 0 1-.14.342.464.464 0 0 1-.36.155h-2.975a.48.48 0 0 1-.345-.155.473.473 0 0 1-.157-.342c0-.145.053-.264.157-.357a.506.506 0 0 1 .345-.14Z"/></svg>