<svg xmlns="http://www.w3.org/2000/svg" fill="currentColor" viewBox="0 0 16 16"><path d="M1 14.938v-1.063c0-.23.083-.458.25-.688L6 7.095V1h-.5C5.167 1 5 .833 5 .5c0-.333.167-.5.5-.5H6c.27 0 .505.099.703.297A.961.961 0 0 1 7 1v6.125c0 .208-.073.417-.219.625l-4.593 5.875c-.126.146-.188.344-.188.594V15h12v-.781c0-.25-.073-.448-.219-.594L9.187 7.75A1.102 1.102 0 0 1 9 7.125V1c0-.27.094-.505.281-.703A.947.947 0 0 1 10 0h.5c.125 0 .24.047.344.14A.462.462 0 0 1 11 .5a.462.462 0 0 1-.156.36.503.503 0 0 1-.344.14H10v6.094l4.781 6.093c.146.209.219.438.219.688v1.063c0 .291-.099.541-.297.75a1.009 1.009 0 0 1-.765.312H2.062c-.291 0-.541-.104-.75-.313a1.023 1.023 0 0 1-.312-.75Zm3.094-1.75L7 9h2l2.875 4.188a.495.495 0 0 1 .063.53.442.442 0 0 1-.438.282h-7c-.23 0-.385-.094-.469-.281a.495.495 0 0 1 .063-.531ZM8.5 12c.125 0 .24-.047.344-.14A.462.462 0 0 0 9 11.5a.462.462 0 0 0-.156-.36A.503.503 0 0 0 8.5 11c-.333 0-.5.167-.5.5 0 .333.167.5.5.5Zm-2 1c.125 0 .24-.047.344-.14A.462.462 0 0 0 7 12.5a.462.462 0 0 0-.156-.36A.503.503 0 0 0 6.5 12c-.333 0-.5.167-.5.5 0 .333.167.5.5.5Z"/></svg>