<svg xmlns="http://www.w3.org/2000/svg" fill="currentColor" viewBox="0 0 16 16"><path d="M6 14.063v-2.5c0-.563.198-.964.594-1.204C6.99 10.12 7.458 10 8 10c.542 0 1.01.12 1.406.36.396.239.594.64.594 1.203v2.5H6ZM4 2h1v3c0 .27.052.495.156.672.104.177.235.333.39.469.157.135.34.276.548.421.208.146.406.313.593.5a1.224 1.224 0 0 1 .328 1.094 1.21 1.21 0 0 1-.234.5 6.207 6.207 0 0 1-.593.578c-.209.177-.402.35-.579.516a2.406 2.406 0 0 0-.437.547A1.38 1.38 0 0 0 5 11v3H4v-3c0-.375.099-.703.297-.984A5.01 5.01 0 0 1 5 9.219c.167-.167.339-.334.516-.5.177-.167.338-.344.484-.531.125-.126.125-.25 0-.376a4.65 4.65 0 0 0-.484-.53 23.706 23.706 0 0 1-.516-.5 4.066 4.066 0 0 1-.703-.766C4.099 5.734 4 5.396 4 5V2Zm5.313 5.063a4.33 4.33 0 0 1 .593-.5 6.72 6.72 0 0 0 .547-.422 1.87 1.87 0 0 0 .39-.47c.105-.176.157-.4.157-.671V2h1v3c0 .396-.099.734-.297 1.016A4.067 4.067 0 0 1 11 6.78a23.75 23.75 0 0 1-.516.5 4.644 4.644 0 0 0-.484.532c-.125.125-.125.25 0 .375.146.187.307.364.484.53.178.167.35.334.516.5.27.25.505.516.703.798.198.28.297.609.297.984v3h-1v-3c0-.27-.057-.505-.172-.703a2.406 2.406 0 0 0-.437-.547c-.178-.167-.37-.339-.579-.516a6.207 6.207 0 0 1-.593-.578A.882.882 0 0 1 9 8.187a1.504 1.504 0 0 1 .016-.484 1.431 1.431 0 0 1 .296-.64ZM3 .5c0-.333.167-.5.5-.5h9c.333 0 .5.167.5.5 0 .333-.167.5-.5.5h-9C3.167 1 3 .833 3 .5Zm0 15c0-.333.167-.5.5-.5h9c.333 0 .5.167.5.5 0 .333-.167.5-.5.5h-9c-.333 0-.5-.167-.5-.5Z"/></svg>