<svg xmlns="http://www.w3.org/2000/svg" fill="currentColor" viewBox="0 0 16 16"><path d="M0 15v-.968c0-.544.104-1.048.313-1.511a3.93 3.93 0 0 1 .859-1.225 4.03 4.03 0 0 1 1.281-.832A4.023 4.023 0 0 1 4 10.162h1c-.833 0-1.542-.282-2.125-.847A2.754 2.754 0 0 1 2 7.26c0-.806.292-1.492.875-2.056.583-.564 1.292-.847 2.125-.847s1.542.283 2.125.847C7.708 5.768 8 6.454 8 7.26c0 .807-.292 1.492-.875 2.056-.583.565-1.292.847-2.125.847h1a3.984 3.984 0 0 1 2.828 1.134c.365.353.651.76.86 1.225.208.463.312.967.312 1.511V15H0Zm1-.968h8c0-.806-.292-1.491-.875-2.056-.583-.564-1.292-.846-2.125-.846H4c-.396 0-.776.075-1.14.226a3.215 3.215 0 0 0-.97.62A2.795 2.795 0 0 0 1 14.032Zm4-4.838c.563 0 1.036-.191 1.422-.574.385-.383.578-.837.578-1.36a1.84 1.84 0 0 0-.578-1.377c-.386-.373-.86-.559-1.422-.559-.542 0-1.01.186-1.406.56A1.816 1.816 0 0 0 3 7.258c0 .524.198.978.594 1.36A1.95 1.95 0 0 0 5 9.193Zm6.781-5.805L12.594 1l.812 2.389H16L13.875 4.87l.813 2.39-2.094-1.482-2.125 1.481.812-2.389-2.094-1.48h2.594ZM11.531 14H14.5c.333 0 .5.161.5.484a.48.48 0 0 1-.14.332.47.47 0 0 1-.36.152h-2.969a.485.485 0 0 1-.344-.152.456.456 0 0 1-.156-.332.44.44 0 0 1 .156-.348.512.512 0 0 1 .344-.136Zm-.005-2h2.969c.333 0 .5.161.5.484a.48.48 0 0 1-.14.332.47.47 0 0 1-.36.152h-2.969a.485.485 0 0 1-.344-.152.456.456 0 0 1-.156-.332.44.44 0 0 1 .156-.348.512.512 0 0 1 .344-.136Z"/></svg>