<svg xmlns="http://www.w3.org/2000/svg" fill="currentColor" viewBox="0 0 16 16"><path d="M0 8c0-1.104.208-2.14.625-3.11a8.08 8.08 0 0 1 1.719-2.546A8.08 8.08 0 0 1 4.89.625 7.785 7.785 0 0 1 8 0c1.104 0 2.146.208 3.125.625.98.417 1.828.99 2.547 1.719a8.216 8.216 0 0 1 1.703 2.547C15.792 5.859 16 6.896 16 8a7.897 7.897 0 0 1-.625 3.125 7.979 7.979 0 0 1-1.703 2.547 7.979 7.979 0 0 1-2.547 1.703c-.98.417-2.02.625-3.125.625a7.785 7.785 0 0 1-3.11-.625 8.216 8.216 0 0 1-2.546-1.703 7.851 7.851 0 0 1-1.719-2.547A7.898 7.898 0 0 1 0 8Zm1 0c0 .958.182 1.865.547 2.719a7.026 7.026 0 0 0 1.5 2.234 7.026 7.026 0 0 0 2.234 1.5C6.135 14.818 7.041 15 8 15c.98 0 1.89-.182 2.734-.547a7.075 7.075 0 0 0 2.22-1.5 7.027 7.027 0 0 0 1.5-2.234C14.817 9.865 15 8.959 15 8c0-.98-.182-1.89-.547-2.734a7.075 7.075 0 0 0-1.5-2.22 7.074 7.074 0 0 0-2.219-1.5A6.82 6.82 0 0 0 8 1c-.958 0-1.865.182-2.719.547a7.026 7.026 0 0 0-2.234 1.5 7.074 7.074 0 0 0-1.5 2.219A6.819 6.819 0 0 0 1 8Zm4.313 1.906 1.28-.156c.063.292.188.552.376.781.187.23.385.386.593.469V8.719c-.666-.23-1.203-.568-1.609-1.016-.406-.448-.61-.911-.61-1.39 0-.25.053-.51.157-.782.104-.27.255-.52.453-.75a2.71 2.71 0 0 1 .703-.578 2.05 2.05 0 0 1 .907-.266v-.656h.78v.656c1.21.084 1.938.73 2.188 1.938l-1.125.188a1.041 1.041 0 0 0-.344-.625 1.173 1.173 0 0 0-.718-.282v2.375c.875.188 1.49.51 1.844.969.354.458.53.938.53 1.438 0 .583-.213 1.109-.64 1.578-.427.468-1.005.724-1.734.765v1.031h-.781v-1c-.542-.02-1.032-.229-1.47-.624-.437-.396-.697-.99-.78-1.782Zm3.03 1.219a1.54 1.54 0 0 0 .735-.453c.198-.219.297-.453.297-.703 0-.521-.344-.886-1.031-1.094v2.25Zm-.78-4v-2A1.23 1.23 0 0 0 7 5.531a.952.952 0 0 0-.219.594c0 .417.26.75.782 1Z"/></svg>