<svg xmlns="http://www.w3.org/2000/svg" fill="currentColor" viewBox="0 0 16 16"><path d="M8 0c1.104 0 2.146.208 3.125.625.98.417 1.828.984 2.547 1.703a7.979 7.979 0 0 1 1.703 2.547c.417.98.625 2.02.625 3.125 0 1.104-.208 2.14-.625 3.11a8.217 8.217 0 0 1-1.703 2.546 7.853 7.853 0 0 1-2.547 1.719c-.98.417-2.02.625-3.125.625a7.785 7.785 0 0 1-3.11-.625 8.081 8.081 0 0 1-2.546-1.719A8.08 8.08 0 0 1 .625 11.11 7.786 7.786 0 0 1 0 8c0-1.104.208-2.146.625-3.125.417-.98.99-1.828 1.719-2.547A8.214 8.214 0 0 1 4.89.625 7.785 7.785 0 0 1 8 0Zm0 15c.98 0 1.89-.182 2.734-.547a7.075 7.075 0 0 0 2.22-1.5 7.027 7.027 0 0 0 1.5-2.234C14.817 9.865 15 8.959 15 8c0-.98-.182-1.89-.547-2.734a7.075 7.075 0 0 0-1.5-2.22 7.074 7.074 0 0 0-2.219-1.5A6.82 6.82 0 0 0 8 1c-.958 0-1.865.182-2.719.547a7.026 7.026 0 0 0-2.234 1.5 7.074 7.074 0 0 0-1.5 2.219A6.819 6.819 0 0 0 1 8c0 .958.182 1.865.547 2.719a7.026 7.026 0 0 0 1.5 2.234 7.026 7.026 0 0 0 2.234 1.5C6.135 14.818 7.041 15 8 15ZM8 2a5.88 5.88 0 0 1 2.344.469A6.02 6.02 0 0 1 12.25 3.75a6.017 6.017 0 0 1 1.281 1.906c.313.73.469 1.51.469 2.344a5.88 5.88 0 0 1-.469 2.344 6.018 6.018 0 0 1-1.281 1.906 6.018 6.018 0 0 1-1.906 1.281A5.88 5.88 0 0 1 8 14a5.886 5.886 0 0 1-2.344-.469A6.017 6.017 0 0 1 3.75 12.25a6.02 6.02 0 0 1-1.281-1.906A5.886 5.886 0 0 1 2 8c0-.833.156-1.615.469-2.344A6.02 6.02 0 0 1 3.75 3.75a6.02 6.02 0 0 1 1.906-1.281A5.886 5.886 0 0 1 8 2Zm-.375 9.469v.875h.781v-.906c.25-.042.48-.12.688-.235.208-.114.385-.276.531-.484.333-.396.5-.886.5-1.469 0-.542-.135-.964-.406-1.266-.271-.302-.709-.567-1.313-.796V5.313c.354.104.542.343.563.718l1.062-.125c-.208-.958-.75-1.5-1.625-1.625v-.656h-.781v.656c-1.23.125-1.844.76-1.844 1.907 0 1.062.615 1.78 1.844 2.156v1.969c-.438-.188-.719-.542-.844-1.063l-1.218.156c.104.667.322 1.151.656 1.453.333.303.802.506 1.406.61Zm.781-2.938c.417.167.625.469.625.906 0 .271-.078.485-.234.641-.156.156-.287.255-.39.297V8.531ZM6.937 6.125c0-.167.053-.328.157-.484.104-.157.27-.266.5-.329V6.97a1.403 1.403 0 0 1-.469-.328.73.73 0 0 1-.188-.516Z"/></svg>