<svg xmlns="http://www.w3.org/2000/svg" fill="currentColor" viewBox="0 0 16 16"><path d="M0 16v-2c0-.563.104-1.083.313-1.563a4.065 4.065 0 0 1 2.124-2.124c.48-.209 1-.313 1.563-.313h1a2.893 2.893 0 0 1-2.125-.875A2.893 2.893 0 0 1 2 7c0-.833.292-1.542.875-2.125A2.893 2.893 0 0 1 5 4c.833 0 1.542.292 2.125.875S8 6.167 8 7s-.292 1.542-.875 2.125A2.893 2.893 0 0 1 5 10h1c.563 0 1.083.104 1.563.313a4.064 4.064 0 0 1 2.125 2.124c.208.48.312 1 .312 1.563v2H0ZM5.125.5c.063-.125.156-.24.281-.344C5.531.052 5.73 0 6 0h3c.438 0 .77.135 1 .406.23.271.396.469.5.594.063-.125.219-.323.469-.594C11.219.136 11.563 0 12 0h3c.25 0 .443.052.578.156a.998.998 0 0 1 .297.344A.99.99 0 0 1 16 1v8c0 .25-.052.443-.156.578a1.01 1.01 0 0 1-.344.297.99.99 0 0 1-.5.125h-2c-.25 0-.51.042-.781.125a7.304 7.304 0 0 0-.766.281 4.35 4.35 0 0 0-.625.328 2.429 2.429 0 0 0-.36.266 3.613 3.613 0 0 0-.202-.188 10.4 10.4 0 0 0-.266-.218 6.053 6.053 0 0 0-.5-.281 1.11 1.11 0 0 0-.5-.126V8.5c.063.02.151.057.266.11.114.051.224.109.328.171.041.021.094.052.156.094.063.042.146.083.25.125V2a.703.703 0 0 0-.266-.5 1.888 1.888 0 0 0-.53-.297 3.05 3.05 0 0 0-.626-.156A4.147 4.147 0 0 0 8 1H6v2H5V1a.99.99 0 0 1 .125-.5ZM1 14v1h8v-1c0-.417-.078-.807-.234-1.172a2.888 2.888 0 0 0-.657-.953 3.263 3.263 0 0 0-.953-.64A2.832 2.832 0 0 0 6 11H4c-.833 0-1.542.292-2.125.875A2.893 2.893 0 0 0 1 14ZM11 2v7c.25-.25.557-.474.922-.672A2.571 2.571 0 0 1 13 8h2V1h-2c-.167 0-.36.016-.578.047a3.049 3.049 0 0 0-.625.156c-.198.073-.37.172-.516.297A.858.858 0 0 0 11 2ZM3 7c0 .542.193 1.01.578 1.406C3.964 8.802 4.438 9 5 9a1.92 1.92 0 0 0 1.406-.594A1.92 1.92 0 0 0 7 7a1.92 1.92 0 0 0-.594-1.406A1.922 1.922 0 0 0 5 5c-.563 0-1.036.198-1.422.594A1.948 1.948 0 0 0 3 7Z"/></svg>