<svg xmlns="http://www.w3.org/2000/svg" fill="currentColor" viewBox="0 0 16 16"><path d="M5.5 5c-.417 0-.77-.146-1.063-.438A1.447 1.447 0 0 1 4 3.5c0-.417.146-.77.438-1.063A1.447 1.447 0 0 1 5.5 2c.417 0 .77.146 1.063.438.291.291.437.645.437 1.062 0 .417-.146.77-.438 1.063A1.447 1.447 0 0 1 5.5 5Zm0 4c-.417 0-.77-.146-1.063-.438A1.447 1.447 0 0 1 4 7.5c0-.417.146-.77.438-1.063A1.447 1.447 0 0 1 5.5 6c.417 0 .77.146 1.063.438.291.291.437.645.437 1.062 0 .417-.146.77-.438 1.063A1.447 1.447 0 0 1 5.5 9Zm0 4c-.417 0-.77-.146-1.063-.438A1.447 1.447 0 0 1 4 11.5c0-.417.146-.77.438-1.063A1.446 1.446 0 0 1 5.5 10c.417 0 .77.146 1.063.438.291.291.437.645.437 1.062 0 .417-.146.77-.438 1.063A1.446 1.446 0 0 1 5.5 13ZM13 0c.292 0 .531.094.719.281A.973.973 0 0 1 14 1v14c0 .27-.094.505-.281.703A.947.947 0 0 1 13 16H3a.947.947 0 0 1-.719-.297A.988.988 0 0 1 2 15V1c0-.292.094-.531.281-.719A.973.973 0 0 1 3 0h10Zm0 1H3v14h10V1Zm-1.5 2c.333 0 .5.167.5.5 0 .125-.047.24-.14.344A.462.462 0 0 1 11.5 4h-2a.478.478 0 0 1-.344-.156A.478.478 0 0 1 9 3.5c0-.146.052-.266.156-.36A.503.503 0 0 1 9.5 3h2Zm0 4c.333 0 .5.167.5.5 0 .125-.047.24-.14.344A.462.462 0 0 1 11.5 8h-2a.478.478 0 0 1-.344-.156A.478.478 0 0 1 9 7.5c0-.146.052-.266.156-.36A.503.503 0 0 1 9.5 7h2Zm0 4c.333 0 .5.167.5.5 0 .125-.047.24-.14.344a.462.462 0 0 1-.36.156h-2a.478.478 0 0 1-.344-.156A.478.478 0 0 1 9 11.5c0-.146.052-.266.156-.36A.503.503 0 0 1 9.5 11h2Z"/></svg>