<svg xmlns="http://www.w3.org/2000/svg" fill="currentColor" viewBox="0 0 16 16"><path d="M15 3H1v10h14V3ZM5.5 9c.333 0 .5.167.5.5 0 .333-.167.5-.5.5h-2a.478.478 0 0 1-.344-.156A.478.478 0 0 1 3 9.5c0-.333.167-.5.5-.5h2Zm3-2c.333 0 .5.167.5.5 0 .333-.167.5-.5.5h-5a.478.478 0 0 1-.344-.156A.478.478 0 0 1 3 7.5c0-.333.167-.5.5-.5h5ZM15 2c.292 0 .531.094.719.281A.973.973 0 0 1 16 3v10c0 .27-.094.5-.281.688A.924.924 0 0 1 15 14H1a.89.89 0 0 1-.687-.313A.89.89 0 0 1 0 13V3c0-.292.104-.531.313-.719A.935.935 0 0 1 1 2h14Zm-1 3.5c0 .333-.167.5-.5.5h-1a.478.478 0 0 1-.344-.156A.478.478 0 0 1 12 5.5v-1c0-.333.167-.5.5-.5h1c.333 0 .5.167.5.5v1Z"/></svg>