<svg xmlns="http://www.w3.org/2000/svg" fill="currentColor" viewBox="0 0 16 16"><path d="M7.5 0h1v3h-1V0ZM1.719 1 4 3.281 3.281 4 1 1.719 1.719 1Zm11 3L12 3.281 14.281 1l.719.719L12.719 4ZM8 12a3.877 3.877 0 0 1-1.563-.313 4.064 4.064 0 0 1-2.125-2.124C4.104 9.082 4 8.563 4 8s.104-1.083.313-1.563a4.065 4.065 0 0 1 2.125-2.125A3.88 3.88 0 0 1 8 4c.563 0 1.083.104 1.563.313a4.065 4.065 0 0 1 2.124 2.125c.209.479.313 1 .313 1.562 0 .563-.104 1.083-.313 1.563a4.064 4.064 0 0 1-2.124 2.124c-.48.209-1 .313-1.563.313Zm0-1c.833 0 1.542-.292 2.125-.875A2.893 2.893 0 0 0 11 8c0-.833-.292-1.542-.875-2.125A2.893 2.893 0 0 0 8 5c-.833 0-1.542.292-2.125.875A2.893 2.893 0 0 0 5 8c0 .833.292 1.542.875 2.125A2.893 2.893 0 0 0 8 11Zm5-2.5v-1h3v1h-3Zm-10 0H0v-1h3v1Zm1 4.219L1.719 15 1 14.281 3.281 12l.719.719Zm8 0 .719-.719L15 14.281l-.719.719L12 12.719ZM7.5 13h1v3h-1v-3Z"/></svg>