<svg xmlns="http://www.w3.org/2000/svg" fill="currentColor" viewBox="0 0 16 16"><path d="M8.016 0c.69 0 1.332.125 1.928.375.595.25 1.123.594 1.583 1.031.46.438.82.964 1.081 1.578A5.1 5.1 0 0 1 13 5c0 .5-.078.943-.235 1.328a5.74 5.74 0 0 1-.564 1.063c-.22.323-.444.614-.674.875-.23.26-.397.505-.502.734-.02.02-.084.188-.188.5l-.345 1.031a66.79 66.79 0 0 0-.47 1.469H6.009l-.501-1.5c-.126-.375-.24-.714-.345-1.016A5.421 5.421 0 0 1 5.006 9a3.064 3.064 0 0 0-.501-.734 9.854 9.854 0 0 1-.674-.86 5.705 5.705 0 0 1-.58-1.062C3.084 5.948 3 5.49 3 4.969c0-.73.13-1.401.392-2.016a4.672 4.672 0 0 1 1.081-1.578c.46-.437.993-.776 1.6-1.016A5.238 5.238 0 0 1 8.015 0Zm2.821 7.5c.293-.354.559-.724.8-1.11.24-.385.36-.848.36-1.39 0-.563-.1-1.089-.298-1.578a3.812 3.812 0 0 0-.846-1.281 3.866 3.866 0 0 0-1.27-.844A4.077 4.077 0 0 0 8.016 1a4.4 4.4 0 0 0-1.583.281 3.585 3.585 0 0 0-1.27.813c-.773.75-1.16 1.708-1.16 2.875 0 .541.115 1 .345 1.375.23.375.491.74.784 1.093a5.153 5.153 0 0 1 .783 1.157c0 .02.01.047.032.078.02.031.052.125.094.281.042.156.12.39.235.703.115.313.266.76.454 1.344h2.54c.188-.583.34-1.031.454-1.344.115-.312.199-.547.25-.703.053-.156.09-.255.11-.297a.24.24 0 0 0 .032-.094c.104-.187.214-.364.33-.53.114-.167.245-.345.391-.532ZM6.009 15h4.013l-.314.313c-.46.458-1.024.687-1.692.687-.69 0-1.265-.23-1.724-.688L6.009 15Zm3.793-2.5c.126 0 .236.047.33.14a.486.486 0 0 1 .14.36v1a.486.486 0 0 1-.14.36.452.452 0 0 1-.33.14H6.199c-.293 0-.44-.167-.44-.5v-1c0-.333.147-.5.44-.5h3.604ZM8.456 14c.292 0 .438-.167.438-.5 0-.333-.146-.5-.438-.5-.293 0-.44.167-.44.5 0 .333.147.5.44.5Z"/></svg>