<svg xmlns="http://www.w3.org/2000/svg" fill="currentColor" viewBox="0 0 16 16"><path d="M1 1h1v13.002h12V1h1v14H1V1Zm2.563 6.392L6 4.399h2.656l3.031-3.18a.593.593 0 0 1 .47-.219c.166 0 .301.057.405.171a.563.563 0 0 1 .157.39c0 .146-.042.26-.125.343L9.219 5.552H6.438L4.28 8.265c-.083.083-.208.125-.375.125a.624.624 0 0 1-.375-.14.46.46 0 0 1-.187-.39.59.59 0 0 1 .219-.468Zm.03 2.245 2.5-2.432 2.72.592 3-2.681a.792.792 0 0 1 .374-.125c.126 0 .245.062.36.187.114.125.172.26.172.406a.564.564 0 0 1-.25.467L9.094 9.013l-2.781-.592-2.094 2.151a.507.507 0 0 1-.313.094.649.649 0 0 1-.39-.156.488.488 0 0 1-.204-.405c0-.187.094-.343.282-.468Zm.063 2.245 2.5-1.84 2.719.593 3.063-1.622c.02-.02.093-.03.218-.03a.6.6 0 0 1 .39.14c.116.093.173.233.173.42 0 .23-.115.395-.344.5L9 11.85l-2.719-.562-2.125 1.59c-.02.063-.104.094-.25.094a.665.665 0 0 1-.406-.14.46.46 0 0 1-.188-.39c0-.25.115-.436.344-.561Z"/></svg>