<svg xmlns="http://www.w3.org/2000/svg" fill="currentColor" viewBox="0 0 16 16"><path d="m12 13.382 4-3.422v1.618L12 15l-4.125-3.484L5 13.724 1.969 12.2 0 12.916V11.64l2.063-.747L5 12.356l3.031-2.303L12 13.383Zm-.5-3.422c-.625 0-1.213-.12-1.766-.358a4.6 4.6 0 0 1-1.437-.964A4.41 4.41 0 0 1 7 5.48a4.408 4.408 0 0 1 1.297-3.158 4.6 4.6 0 0 1 1.437-.964A4.404 4.404 0 0 1 11.5 1c.625 0 1.208.12 1.75.358s1.016.56 1.422.964c.406.405.729.877.969 1.416.24.539.359 1.12.359 1.742 0 .622-.12 1.203-.36 1.742a4.63 4.63 0 0 1-.968 1.416c-.406.404-.88.726-1.422.964a4.294 4.294 0 0 1-1.75.358Zm0-7.964c-.48 0-.932.093-1.36.28a3.595 3.595 0 0 0-1.109.746c-.312.311-.562.68-.75 1.105A3.317 3.317 0 0 0 8 5.48c0 .477.094.928.281 1.353.188.426.438.794.75 1.105.313.31.683.56 1.11.746.427.187.88.28 1.359.28.48 0 .932-.093 1.36-.28a3.595 3.595 0 0 0 1.109-.746c.312-.311.562-.68.75-1.105.187-.425.281-.876.281-1.353s-.094-.928-.281-1.353a3.581 3.581 0 0 0-.75-1.105 3.595 3.595 0 0 0-1.11-.746 3.357 3.357 0 0 0-1.359-.28Zm1.563 3.36c.333 0 .5.165.5.497a.5.5 0 0 1-.141.343.463.463 0 0 1-.36.155H11.47a.463.463 0 0 1-.36-.155.5.5 0 0 1-.14-.343v-1.99c0-.333.166-.499.5-.499.333 0 .5.166.5.498v1.494h1.094Z"/></svg>