<svg xmlns="http://www.w3.org/2000/svg" fill="currentColor" viewBox="0 0 16 16"><path d="M3.85 13.031a.665.665 0 0 1-.407-.14.46.46 0 0 1-.188-.391c0-.25.115-.438.344-.563L7.2 10.876l3.445.531 3.445-1.625c.02-.02.094-.031.219-.031.355 0 .532.188.532.563 0 .27-.114.437-.344.5l-3.758 1.78-3.382-.562-3.257.906c-.042.063-.125.094-.25.094Zm0-1.594a.65.65 0 0 1-.392-.156.489.489 0 0 1-.203-.406c0-.188.094-.344.282-.469L7.169 7.97l3.413.593 3.414-2.75a.996.996 0 0 1 .282-.062c.375 0 .563.177.563.531 0 .23-.094.407-.281.532L10.802 9.75l-3.414-.563-3.225 2.157a.604.604 0 0 1-.313.094Zm0-2.28a.626.626 0 0 1-.376-.141.46.46 0 0 1-.188-.391.59.59 0 0 1 .22-.469l3.538-3h3.382l3.445-3.968A.569.569 0 0 1 14.278 1c.167 0 .302.063.407.188.104.125.156.26.156.406a.46.46 0 0 1-.125.343l-3.758 4.375H7.482l-3.257 2.72c-.083.083-.208.124-.375.124ZM16 14v1H1V1h.97v13H16Z"/></svg>