<svg xmlns="http://www.w3.org/2000/svg" fill="currentColor" viewBox="0 0 16 16"><path d="M2.499 2C2.166 2 2 2.167 2 2.5c0 .333.166.5.499.5.332 0 .498-.167.498-.5 0-.333-.166-.5-.498-.5Zm0 3C2.166 5 2 5.167 2 5.5c0 .333.166.5.499.5.332 0 .498-.167.498-.5 0-.333-.166-.5-.498-.5Zm0 3C2.166 8 2 8.167 2 8.5c0 .333.166.5.499.5.332 0 .498-.167.498-.5 0-.333-.166-.5-.498-.5Zm0 3c-.333 0-.499.167-.499.5 0 .333.166.5.499.5.332 0 .498-.167.498-.5 0-.333-.166-.5-.498-.5Zm0 3c-.333 0-.499.167-.499.5 0 .333.166.5.499.5.332 0 .498-.167.498-.5 0-.333-.166-.5-.498-.5ZM5.49 3c-.333 0-.499-.167-.499-.5 0-.333.166-.5.499-.5h8.01c.125 0 .24.047.343.14A.462.462 0 0 1 14 2.5a.462.462 0 0 1-.156.36.501.501 0 0 1-.343.14h-8.01Zm8.01 2c.125 0 .24.047.343.14A.462.462 0 0 1 14 5.5a.462.462 0 0 1-.156.36.501.501 0 0 1-.343.14h-8.01c-.333 0-.499-.167-.499-.5 0-.333.166-.5.499-.5h8.01Zm0 3c.125 0 .24.047.343.14A.462.462 0 0 1 14 8.5a.462.462 0 0 1-.156.36.501.501 0 0 1-.343.14h-8.01c-.333 0-.499-.167-.499-.5 0-.333.166-.5.499-.5h8.01Zm0 3c.125 0 .24.047.343.14a.463.463 0 0 1 .156.36.463.463 0 0 1-.156.36.501.501 0 0 1-.343.14H5.49c-.333 0-.499-.167-.499-.5 0-.333.166-.5.499-.5h8.01Zm0 3c.125 0 .24.047.343.14a.463.463 0 0 1 .156.36.463.463 0 0 1-.156.36.501.501 0 0 1-.343.14H5.49c-.333 0-.499-.167-.499-.5 0-.333.166-.5.499-.5h8.01Z"/></svg>