<svg xmlns="http://www.w3.org/2000/svg" fill="currentColor" viewBox="0 0 16 16"><path d="M2 10.94c0-.632.114-1.312.342-2.039a8.76 8.76 0 0 1 .964-2.071 8.148 8.148 0 0 1 1.477-1.74 4.71 4.71 0 0 1 1.881-1.043 77.993 77.993 0 0 0-.684-1.059c-.27-.41-.456-.753-.56-1.028a5.823 5.823 0 0 1-.233-.774 3.376 3.376 0 0 1-.109-.743c0-.127.088-.232.265-.317C5.519.042 5.69 0 5.856 0c.103 0 .176.021.217.063.166.232.311.395.436.49.124.095.238.132.342.111a2.92 2.92 0 0 0 .264-.11C7.229.5 7.369.39 7.535.22a.296.296 0 0 1 .217-.095c.104 0 .187.032.25.095l.03.032c.042.042.125.116.249.221a.788.788 0 0 0 .373.19c.104.021.218-.016.342-.11.125-.096.27-.259.435-.49C9.473.02 9.545 0 9.65 0c.166 0 .337.042.513.126.176.085.264.19.264.317a3.4 3.4 0 0 1-.108.743c-.073.305-.15.564-.234.774-.103.275-.285.612-.544 1.012-.259.4-.482.749-.668 1.044.725.168 1.394.5 2.005.996a8.626 8.626 0 0 1 2.674 3.81c.26.738.39 1.444.39 2.119 0 1.012-.094 1.844-.28 2.498-.187.653-.514 1.17-.98 1.55-.467.379-1.078.642-1.835.79-.756.147-1.715.221-2.876.221-1.016 0-1.897-.074-2.643-.221-.746-.148-1.368-.411-1.866-.79-.497-.38-.865-.897-1.103-1.55C2.119 12.785 2 11.953 2 10.94Zm5.97 4.017c1.182 0 2.104-.074 2.767-.222.664-.147 1.15-.38 1.462-.695.27-.296.466-.69.59-1.186.125-.496.177-1.144.156-1.945 0-.675-.145-1.365-.435-2.071a8.37 8.37 0 0 0-1.135-1.96 6.14 6.14 0 0 0-1.617-1.47c-.612-.38-1.249-.57-1.912-.57-.664 0-1.29.205-1.882.617a6.423 6.423 0 0 0-1.539 1.517 8.05 8.05 0 0 0-1.041 1.96c-.26.707-.389 1.366-.389 1.977 0 .78.078 1.434.233 1.96.156.528.42.944.793 1.25.373.305.881.521 1.524.648.642.126 1.45.19 2.425.19ZM5.327 11.7l1.182-.127c.062.527.32.864.777 1.012v-1.897c-.705-.19-1.16-.454-1.368-.79-.27-.275-.404-.686-.404-1.234 0-.548.165-.98.497-1.296.332-.317.757-.506 1.275-.57V5.85h.684v.948c.27.064.503.132.7.206.197.074.378.174.544.3.27.253.456.622.56 1.107l-1.151.127c-.062-.317-.28-.56-.653-.728v1.803c.85.21 1.379.463 1.586.758.27.275.404.675.404 1.202 0 .633-.181 1.117-.544 1.455-.363.337-.845.548-1.446.632v.79h-.684v-.758c-.601-.106-1.052-.311-1.353-.617-.3-.306-.502-.764-.606-1.375Zm4.695-9.044.778-1.043c.02 0 .03-.006.03-.016s.011-.016.032-.016L14.033.379c.021-.02.052-.031.094-.031.041 0 .062.031.062.095l.808 2.276c0 .085-.03.148-.093.19l-3.172 1.138h-.062l-1.275-.316-.093-.095-.28-.853c-.02-.021-.02-.064 0-.127ZM6.26 1.834c.124.295.326.632.606 1.012.28.38.482.674.607.885h.28c.082 0 .176.01.28.032.061-.106.155-.243.28-.411.123-.169.248-.348.372-.538.125-.19.239-.369.342-.537.104-.169.176-.317.218-.443a2.69 2.69 0 0 1 .078-.206.691.691 0 0 0 .046-.268c0-.085-.03-.127-.093-.127-.041 0-.073.01-.093.032a.714.714 0 0 1-.529.221.213.213 0 0 1-.093-.016.213.213 0 0 0-.093-.015.998.998 0 0 1-.327-.111 2.304 2.304 0 0 1-.264-.174c-.042-.042-.083-.063-.125-.063-.02 0-.036.005-.046.016-.01.01-.026.015-.047.015-.249.19-.456.295-.622.317a.213.213 0 0 0-.093.015.213.213 0 0 1-.093.016.714.714 0 0 1-.529-.221c-.02-.021-.052-.032-.093-.032-.062 0-.094.042-.094.127 0 .105.016.195.047.268.031.074.057.143.078.206Zm1.71 9.043v1.771c.58-.063.87-.369.87-.917 0-.274-.087-.463-.264-.569a3.638 3.638 0 0 0-.606-.285ZM6.757 9.043c.145.127.26.211.342.253l.187.095v-1.58c-.145.02-.311.126-.498.315a.795.795 0 0 0-.17.475c-.01.19.036.337.14.442Z"/></svg>