<svg xmlns="http://www.w3.org/2000/svg" fill="currentColor" viewBox="0 0 16 17"><path d="m9.125 11.945 1.375 2.067h-4l1.344-2.067a1.408 1.408 0 0 1-.672-.579 1.59 1.59 0 0 1-.234-.83c0-.417.156-.782.468-1.095.271-.293.636-.439 1.094-.439.438 0 .802.146 1.094.439.291.334.437.699.437 1.095 0 .293-.078.57-.234.83a1.41 1.41 0 0 1-.672.58ZM14 9.002v5.01c0 .543-.198 1.012-.594 1.41a1.92 1.92 0 0 1-1.406.594H5a1.92 1.92 0 0 1-1.406-.595A1.928 1.928 0 0 1 3 14.012v-5.01c0-.355.094-.704.281-1.049.188-.344.459-.59.813-.735v-3.1c0-.564.11-1.096.328-1.597.219-.501.51-.934.875-1.3A4.185 4.185 0 0 1 6.594.345 3.91 3.91 0 0 1 8.187.016h.626c.562 0 1.093.11 1.593.329.5.219.932.511 1.297.876.365.366.656.799.875 1.3.219.5.328 1.033.328 1.597v3.1c.334.167.6.412.797.735.198.324.297.674.297 1.05ZM5.906 6.998h5.188v-2.88c0-.626-.224-1.164-.672-1.613a2.194 2.194 0 0 0-1.61-.673h-.624c-.626 0-1.162.224-1.61.673a2.202 2.202 0 0 0-.672 1.613v2.88ZM13 9.002a.976.976 0 0 0-.281-.72A1.042 1.042 0 0 0 12 8H5a.972.972 0 0 0-.719.282.976.976 0 0 0-.281.72v5.01c0 .271.099.506.297.705a.96.96 0 0 0 .703.297h7c.23 0 .469-.104.719-.313a.938.938 0 0 0 .281-.689v-5.01Z"/></svg>