<svg xmlns="http://www.w3.org/2000/svg" fill="currentColor" viewBox="0 0 16 16"><path d="M15.5 0c.333 0 .5.167.5.5v4c0 .333-.167.5-.5.5-.333 0-.5-.167-.5-.5V1.719L8.844 7.812c.354.438.635.928.844 1.47.208.54.312 1.114.312 1.718 0 .688-.13 1.333-.39 1.938a5.07 5.07 0 0 1-2.672 2.671C6.332 15.87 5.688 16 5 16s-1.333-.13-1.938-.39a5.069 5.069 0 0 1-2.671-2.672A4.842 4.842 0 0 1 0 11c0-.688.13-1.333.39-1.938a5.07 5.07 0 0 1 2.672-2.671A4.84 4.84 0 0 1 5 6c.604 0 1.167.099 1.688.297.52.198 1 .474 1.437.828L14.281 1H11.5c-.333 0-.5-.167-.5-.5 0-.333.167-.5.5-.5h4ZM1 11c0 .563.104 1.083.313 1.563a4.065 4.065 0 0 0 2.125 2.124c.479.209 1 .313 1.562.313.563 0 1.083-.104 1.563-.313a4.064 4.064 0 0 0 2.125-2.124c.208-.48.312-1 .312-1.563s-.104-1.083-.313-1.563a4.065 4.065 0 0 0-2.124-2.124C6.082 7.104 5.563 7 5 7s-1.083.104-1.563.313a4.065 4.065 0 0 0-2.124 2.125C1.103 9.916 1 10.438 1 11Z"/></svg>