<svg xmlns="http://www.w3.org/2000/svg" fill="currentColor" viewBox="0 0 16 16"><path d="M1 2c0-.27.094-.505.281-.703A.947.947 0 0 1 2 1h10c.292 0 .531.099.719.297A.988.988 0 0 1 13 2v9l-3 3h4V1h1v13a.974.974 0 0 1-.281.719A.974.974 0 0 1 14 15H2a.988.988 0 0 1-.703-.281A.947.947 0 0 1 1 14V2Zm1 0v12h6v-3c0-.27.099-.505.297-.703A.998.998 0 0 1 9.03 10H12V2H2Zm.594 3.438L4.03 4a.511.511 0 0 1 .375-.156c.125 0 .24.052.344.156l1.188 1.188 1.156-1.782.093-.094c.021-.02.037-.03.047-.03.01 0 .026-.011.047-.032l.032-.031h.03c.022 0 .037-.005.048-.016.01-.01.036-.015.078-.015h.062c.084 0 .146.02.188.062.02 0 .041.01.062.031l.032.031c.041 0 .062.021.062.063l.063.063c0 .02.005.03.015.03.01 0 .016.011.016.032l1 1.906 1.187-2.437c.104-.188.23-.281.375-.281.104 0 .198.03.281.093.271.146.355.365.25.656L9.406 6.75c-.062.167-.187.25-.375.25-.125 0-.198-.01-.219-.031h-.03l-.032-.032c-.02 0-.031-.005-.031-.015 0-.01-.01-.016-.031-.016-.021-.02-.037-.031-.047-.031-.01 0-.026-.01-.047-.031 0-.042-.031-.094-.094-.157l-1.031-2-1 1.563-.094.094a.478.478 0 0 1-.344.156c-.062 0-.177-.052-.343-.156L4.405 5.062 3.313 6.157a.478.478 0 0 1-.344.157c-.084 0-.209-.053-.375-.157-.23-.229-.23-.468 0-.718Zm.875 2.53h7c.333 0 .5.167.5.5 0 .126-.047.24-.14.345a.462.462 0 0 1-.36.156h-7a.478.478 0 0 1-.344-.156.478.478 0 0 1-.156-.344c0-.146.052-.266.156-.36a.503.503 0 0 1 .344-.14ZM3 12.5c0-.146.052-.266.156-.36A.503.503 0 0 1 3.5 12h3c.333 0 .5.167.5.5 0 .125-.047.24-.14.344A.462.462 0 0 1 6.5 13h-3a.478.478 0 0 1-.344-.156A.478.478 0 0 1 3 12.5Zm.5-2.469h3c.333 0 .5.167.5.5 0 .125-.047.24-.14.344a.462.462 0 0 1-.36.156h-3a.478.478 0 0 1-.344-.156.478.478 0 0 1-.156-.344c0-.146.052-.265.156-.36a.503.503 0 0 1 .344-.14Z"/></svg>