<svg xmlns="http://www.w3.org/2000/svg" fill="currentColor" viewBox="0 0 16 16"><path d="M0 16c0-1.333.5-2.23 1.5-2.688a2.101 2.101 0 0 1-.36-.593A1.88 1.88 0 0 1 1 12c0-.542.198-1.01.594-1.406A1.922 1.922 0 0 1 3 10c.563 0 1.036.198 1.422.594.385.396.578.864.578 1.406 0 .5-.156.927-.469 1.281.417.188.75.459 1 .813.209-.313.532-.573.969-.781a2.101 2.101 0 0 1-.36-.594A1.88 1.88 0 0 1 6 12c0-.542.198-1.01.594-1.406A1.922 1.922 0 0 1 8 10c.563 0 1.036.198 1.422.594.385.396.578.864.578 1.406 0 .5-.156.927-.469 1.281.417.188.75.459 1 .813.209-.313.531-.573.969-.781a2.103 2.103 0 0 1-.36-.594A1.882 1.882 0 0 1 11 12c0-.542.198-1.01.594-1.406A1.922 1.922 0 0 1 13 10c.563 0 1.037.198 1.422.594.385.396.578.864.578 1.406 0 .5-.156.927-.469 1.281C15.511 13.72 16 14.625 16 16H0Zm3-8c0-.646.063-1.161.188-1.547.124-.385.312-.687.562-.906a1.96 1.96 0 0 1 .938-.438A6.937 6.937 0 0 1 6 5h1.5a2.407 2.407 0 0 1-1.766-.734A2.407 2.407 0 0 1 5 2.5c0-.688.245-1.276.734-1.766A2.407 2.407 0 0 1 7.5 0c.708 0 1.302.245 1.781.734.48.49.719 1.079.719 1.766 0 .688-.24 1.276-.719 1.766S8.208 5 7.5 5H9c.5 0 .938.042 1.313.125.374.083.687.234.937.453s.438.526.563.922c.124.396.187.896.187 1.5v1H3V8Zm1-1v1h7V7c0-.23-.104-.417-.313-.563A2.059 2.059 0 0 0 10 6.125C9.854 6.042 9.52 6 9 6H6c-.52 0-.854.042-1 .125-.25.063-.484.167-.703.313-.219.145-.318.333-.297.562Zm2-4.5c0 .417.146.77.438 1.063.291.291.645.437 1.062.437.417 0 .77-.146 1.063-.438C8.854 3.272 9 2.917 9 2.5c0-.417-.146-.77-.438-1.063A1.447 1.447 0 0 0 7.5 1c-.417 0-.77.146-1.063.438A1.447 1.447 0 0 0 6 2.5ZM15 15c0-.5-.203-.792-.61-.875A6.965 6.965 0 0 0 13 14c-.5 0-.958.047-1.375.14-.417.094-.625.38-.625.86h4Zm-9 0h4c0-.5-.203-.792-.61-.875A6.965 6.965 0 0 0 8 14c-.5 0-.958.047-1.375.14-.417.094-.625.38-.625.86Zm-5 0h4c0-.5-.203-.792-.61-.875A6.965 6.965 0 0 0 3 14c-.5 0-.958.047-1.375.14-.417.094-.625.38-.625.86Zm1-3c0 .292.099.531.297.719A.988.988 0 0 0 3 13a.973.973 0 0 0 .719-.281A.974.974 0 0 0 4 12a.988.988 0 0 0-.281-.703A.947.947 0 0 0 3 11a.961.961 0 0 0-.703.297A.961.961 0 0 0 2 12Zm5 0c0 .292.099.531.297.719A.988.988 0 0 0 8 13a.973.973 0 0 0 .719-.281A.974.974 0 0 0 9 12a.988.988 0 0 0-.281-.703A.947.947 0 0 0 8 11a.961.961 0 0 0-.703.297A.961.961 0 0 0 7 12Zm6 1a.974.974 0 0 0 .719-.281A.974.974 0 0 0 14 12a.988.988 0 0 0-.281-.703A.947.947 0 0 0 13 11a.961.961 0 0 0-.703.297A.961.961 0 0 0 12 12c0 .292.099.531.297.719A.988.988 0 0 0 13 13Z"/></svg>