<svg xmlns="http://www.w3.org/2000/svg" fill="currentColor" viewBox="0 0 16 16"><path d="M8 0c2.042 0 3.552.646 4.531 1.938C13.511 3.25 14 4.457 14 5.563c0 .958-.375 2.135-1.125 3.53C12.021 10.657 10.395 12.959 8 16c-2.813-3.875-4.542-6.385-5.188-7.531C2.272 7.489 2 6.51 2 5.53c0-1.354.505-2.614 1.516-3.781C4.526.583 6.02 0 8 0ZM5 6c0 .917.27 1.646.813 2.188C6.354 8.729 7.082 9 8 9c.896 0 1.62-.27 2.172-.813C10.724 7.646 11 6.918 11 6c0-.917-.276-1.646-.828-2.188C9.62 3.272 8.896 3 8 3c-.917 0-1.646.27-2.188.813C5.271 4.354 5 5.082 5 6Z"/></svg>