<svg xmlns="http://www.w3.org/2000/svg" fill="currentColor" viewBox="0 0 16 16"><path d="M1 1h12.79l.935 4.22-.853 5.807L15 15H2.21l-1.155-3.89.908-5.89L1 1Zm1.953 13.014H13.68l-.798-2.904.853-5.89-.798-3.234H2.127l.826 3.233-.88 5.808.88 2.987Zm5.996-3.206-.99-.986.99-.959.99.959.963-.959.99.959-.99.986.99.986-.99.987-.963-.987-.99.987-.99-.987.99-.986Zm-.99-4.904V3.986L8.949 3l.99.986v1.918H7.96Zm-1.95 5.11H7V12h-.99v-.986Zm-2 0H5V12h-.99v-.986Zm0-4H5V8h-.99v-.986ZM4 9h1v1H4V9Zm2-4h.99v1H6V5ZM4.01 5H5v1h-.99V5Z"/></svg>