<svg xmlns="http://www.w3.org/2000/svg" fill="currentColor" viewBox="0 0 16 16"><path d="M1 2c0-.27.094-.505.281-.703A.947.947 0 0 1 2 1h12c.27 0 .505.099.703.297A.961.961 0 0 1 15 2v12a.947.947 0 0 1-.297.719A.988.988 0 0 1 14 15H2a.973.973 0 0 1-.719-.281A.974.974 0 0 1 1 14V2Zm13 12V2H2v12h12ZM9.594 6.75c0-.48.166-.89.5-1.234.333-.344.74-.516 1.219-.516.479 0 .88.172 1.203.516.322.343.484.755.484 1.234 0 .25-.042.448-.125.594l-1.594 2.687L9.72 7.344c-.084-.146-.125-.344-.125-.594ZM4 4.219V3l3.875 2.25-.438.906L4 4.22ZM3 13l1.313-2.813.906.438L4.03 13H3Zm5.344-1.938.437-.906.906.438-.437.906-.906-.438Zm-1.781-.874L7 9.28l.906.438-.468.906-.875-.438ZM7.875 3l.875.438-.438.906-.906-.438L7.875 3ZM5.656 7.5l.438-.906L7 7.03l-.469.907-.875-.438Zm-.437.875.875.469-.438.875-.906-.438.469-.906Zm4.906 3.563.469-.876.875.438-.438.875-.906-.438Z"/></svg>