<svg xmlns="http://www.w3.org/2000/svg" fill="currentColor" viewBox="0 0 16 16"><path d="M8.625.031a5.48 5.48 0 0 1 2.11.61c.656.343 1.229.78 1.718 1.312a5.75 5.75 0 0 1 1.14 1.844c.272.698.407 1.36.407 1.984 0 .438-.083.88-.25 1.328-.167.448-.39.933-.672 1.454-.281.52-.599 1.062-.953 1.624A61.7 61.7 0 0 1 11 11.907 90.076 90.076 0 0 1 8.062 16 63.64 63.64 0 0 1 5 11.844c-.354-.5-.714-1.037-1.078-1.61a24.107 24.107 0 0 1-.969-1.656c-.281-.531-.51-1.02-.687-1.469A3.67 3.67 0 0 1 2 5.75c0-.667.156-1.365.469-2.094A6.02 6.02 0 0 1 3.75 1.75 6.02 6.02 0 0 1 5.656.469 5.886 5.886 0 0 1 8 0h.343c.084 0 .178.01.282.031Zm-.563 14.313a105.46 105.46 0 0 0 1.829-2.578 49.242 49.242 0 0 0 1.578-2.438c.458-.76.828-1.432 1.11-2.015.28-.584.421-1.115.421-1.594 0-.459-.115-.974-.344-1.547a5.22 5.22 0 0 0-.937-1.531 5.061 5.061 0 0 0-1.406-1.11A4.664 4.664 0 0 0 8.53 1h-.56c-.688 0-1.328.13-1.922.39A5.122 5.122 0 0 0 3.39 4.064C3.13 4.667 3 5.218 3 5.718s.156 1.062.469 1.687c.312.625.713 1.323 1.203 2.094a70.72 70.72 0 0 0 1.625 2.438 55.737 55.737 0 0 0 1.766 2.406ZM8 3c.833 0 1.542.292 2.125.875S11 5.167 11 6s-.292 1.542-.875 2.125A2.893 2.893 0 0 1 8 9a2.893 2.893 0 0 1-2.125-.875A2.893 2.893 0 0 1 5 6c0-.833.292-1.542.875-2.125A2.893 2.893 0 0 1 8 3Zm0 5c.563 0 1.036-.198 1.422-.594C9.807 7.01 10 6.542 10 6c0-.563-.193-1.036-.578-1.422A1.933 1.933 0 0 0 8 4c-.542 0-1.01.193-1.406.578C6.198 4.964 6 5.438 6 6c0 .542.198 1.01.594 1.406A1.92 1.92 0 0 0 8 8Z"/></svg>