<svg xmlns="http://www.w3.org/2000/svg" fill="currentColor" viewBox="0 0 16 16"><path d="M15.313 1c.187 0 .348.068.484.203a.661.661 0 0 1 .203.484v10.626a.661.661 0 0 1-.203.484.661.661 0 0 1-.485.203h-1.156c-.208 0-.406-.115-.594-.344-.124-.208-.338-.422-.64-.64a8.684 8.684 0 0 0-1.047-.641 47.735 47.735 0 0 0-2.422-1.11 39.076 39.076 0 0 0-1.86-.734A17.756 17.756 0 0 0 6 9l.875 5.219a.61.61 0 0 1-.14.547.687.687 0 0 1-.548.234H4.47c-.313 0-.521-.146-.625-.438L2 9.345a.662.662 0 0 0-.469-.406C1.073 8.813.703 8.6.421 8.298.142 7.995 0 7.604 0 7.125c0-.646.224-1.161.672-1.547C1.12 5.193 1.656 5 2.282 5h2.874a9.425 9.425 0 0 0 2.469-.375 16.57 16.57 0 0 0 2.016-.719c.74-.312 1.505-.75 2.296-1.312a50.24 50.24 0 0 0 1.047-.75c.282-.209.485-.396.61-.563.146-.187.312-.281.5-.281h1.219ZM6 5.938A1.938 1.938 0 0 1 5.531 6h-3.25c-.333 0-.63.089-.89.266-.26.177-.391.463-.391.859 0 .104.031.245.094.422.062.177.291.318.687.422.271.062.505.187.703.375.198.187.35.406.454.656l1.75 5h1.125a170.179 170.179 0 0 1-.532-3.063l-.187-1.124a44.139 44.139 0 0 1-.157-1 32.384 32.384 0 0 0-.109-.72l-.047-.28c0-.021.146-.006.438.046L6 8V5.937ZM15 2h-.719a3.977 3.977 0 0 1-.703.656c-.302.23-.661.49-1.078.781-1.063.73-2.068 1.271-3.016 1.626-.948.354-1.776.593-2.484.718v2.5c.48.167 1.172.422 2.078.766.906.344 1.985.818 3.235 1.422.458.229.859.474 1.203.734.343.26.62.526.828.797H15V2Z"/></svg>