<svg xmlns="http://www.w3.org/2000/svg" fill="currentColor" viewBox="0 0 16 16"><path d="M14.762 11.828c.182.365.26.738.233 1.121a2.256 2.256 0 0 1-.315 1.026 2.1 2.1 0 0 1-.78.738 2.207 2.207 0 0 1-1.108.287H4.12a2.06 2.06 0 0 1-1.08-.287 2.418 2.418 0 0 1-.78-.738 1.988 1.988 0 0 1-.329-1.026 2.234 2.234 0 0 1 .246-1.12l1.45-2.954c.092.018.192.032.302.041a4.543 4.543 0 0 0 2.161-.355 4.748 4.748 0 0 0 1.477-.998c.42-.42.753-.912.999-1.477a4.54 4.54 0 0 0 .37-1.832c0-.42-.06-.825-.178-1.217a5.483 5.483 0 0 0-.452-1.08 2.28 2.28 0 0 1 1.204.232c.401.192.711.506.93.944l4.323 8.695ZM4.256 7.535c-.438 0-.857-.086-1.259-.26a3.307 3.307 0 0 1-1.04-.697A3.305 3.305 0 0 1 1 4.254a3.305 3.305 0 0 1 .958-2.297 3.307 3.307 0 0 1 1.04-.697c.4-.173.82-.26 1.258-.26a3.307 3.307 0 0 1 2.326.957 3.305 3.305 0 0 1 .957 2.297 3.305 3.305 0 0 1-.958 2.324 3.307 3.307 0 0 1-2.325.957Z"/></svg>