<svg xmlns="http://www.w3.org/2000/svg" fill="currentColor" viewBox="0 0 16 16"><path d="M14.762 11.828c.182.365.26.738.233 1.121a2.256 2.256 0 0 1-.315 1.026c-.182.3-.438.546-.766.738a2.133 2.133 0 0 1-1.095.287h-8.7a2.06 2.06 0 0 1-1.08-.287 2.418 2.418 0 0 1-.78-.738 1.988 1.988 0 0 1-.329-1.026 2.234 2.234 0 0 1 .246-1.12l1.478-2.954a3.176 3.176 0 0 0 .602.055c.091 0 .164-.005.219-.014a1.18 1.18 0 0 1 .191-.014l-1.669 3.364c-.2.419-.182.829.055 1.23.219.383.575.574 1.067.574h8.7c.475 0 .821-.191 1.04-.574.256-.42.283-.83.082-1.23L9.591 3.57c-.164-.346-.456-.574-.875-.683a3.94 3.94 0 0 1-.192-.451 3.142 3.142 0 0 0-.219-.479.19.19 0 0 0 .082-.014.19.19 0 0 1 .082-.013c.383 0 .753.105 1.108.314.356.21.643.506.862.889l4.323 8.695ZM4.256 7.535c-.438 0-.857-.086-1.259-.26a3.307 3.307 0 0 1-1.04-.697A3.305 3.305 0 0 1 1 4.254a3.305 3.305 0 0 1 .958-2.297 3.307 3.307 0 0 1 1.04-.697c.4-.173.82-.26 1.258-.26a3.307 3.307 0 0 1 2.326.957 3.305 3.305 0 0 1 .957 2.297 3.305 3.305 0 0 1-.958 2.324 3.307 3.307 0 0 1-2.325.957Z"/></svg>