<svg xmlns="http://www.w3.org/2000/svg" fill="currentColor" viewBox="0 0 16 16"><path d="M4 5.01 4.565.282C4.607.094 4.7 0 4.847 0c.188.02.282.136.282.344v4.321h.314L5.725.282c0-.188.084-.282.251-.282.189 0 .283.094.283.282l.314 4.383h.282V.345c0-.188.084-.303.25-.345.19 0 .294.094.315.282l.564 4.728a.99.99 0 0 1-.22.626.898.898 0 0 1-.564.344 24.59 24.59 0 0 0-.345.83c-.147.365-.22.757-.22 1.174H5.318a3.48 3.48 0 0 0-.157-.97 5.104 5.104 0 0 0-.283-.783l-.125-.25a.886.886 0 0 1-.533-.345A.994.994 0 0 1 4 5.01ZM10.651.532c.105-.355.324-.532.659-.532.46.02.69.24.69.658v7.326h-1.349c0-.605-.068-1.043-.204-1.315-.136-.271-.293-.475-.47-.61a5.796 5.796 0 0 0-.471-.33c-.136-.083-.204-.24-.204-.469L10.651.532Zm0 8.047H12v6.075c0 .354-.068.668-.204.939-.136.271-.298.407-.486.407s-.345-.136-.47-.407a2.215 2.215 0 0 1-.189-.94V8.58Zm-5.365 0h1.35v6.075c0 .354-.069.668-.205.939-.136.271-.298.407-.486.407-.167 0-.319-.136-.455-.407a2.07 2.07 0 0 1-.204-.94V8.58Z"/></svg>