<svg xmlns="http://www.w3.org/2000/svg" fill="currentColor" viewBox="0 0 16 16"><path d="M0 6.5V2h16v1h-1v2.5c0 .333-.167.5-.5.5-.333 0-.5-.167-.5-.5V3h-1v3.5c0 .333-.167.5-.5.5-.333 0-.5-.167-.5-.5V3h-1v2.5c0 .333-.167.5-.5.5-.333 0-.5-.167-.5-.5V3H9v3.5c0 .333-.167.5-.5.5-.333 0-.5-.167-.5-.5V3H7v2.5c0 .333-.167.5-.5.5-.333 0-.5-.167-.5-.5V3H5v3.5c0 .333-.167.5-.5.5-.333 0-.5-.167-.5-.5V3H3v2.5c0 .333-.167.5-.5.5-.333 0-.5-.167-.5-.5V3H1v3.5c0 .333-.167.5-.5.5-.333 0-.5-.167-.5-.5ZM0 10h9.5l.781-1.531c.042-.104.115-.156.219-.156s.177.052.219.156L11.5 10H16v1h-4l.5 1H16v1h-3l.313.656a.235.235 0 0 1 0 .235c-.042.072-.115.109-.22.109H7.907c-.104 0-.177-.037-.218-.11a.235.235 0 0 1 0-.234L8 13H0v-1h8.5l.5-1H0v-1Zm9.125 3h2.75L10.5 10.25 9.125 13Z"/></svg>