<svg xmlns="http://www.w3.org/2000/svg" fill="currentColor" viewBox="0 0 16 16"><path d="M5.875 0h.281c.625.042 1.089.255 1.39.64.303.386.454 1.1.454 2.141V5h3v1H8v2h3v1H8v2h3v1H8v3h7V.25c0-.167.083-.25.25-.25h.5c.167 0 .25.083.25.25V15c0 .27-.099.505-.297.703A.961.961 0 0 1 15 16H8a.947.947 0 0 1-.719-.297A.988.988 0 0 1 7 15V3.469c0-.417-.005-.781-.016-1.094a2.842 2.842 0 0 0-.125-.797 1.177 1.177 0 0 0-.375-.547C6.307.885 6.063.771 5.75.688 5.583.646 5.51.52 5.531.313 5.552.104 5.667 0 5.875 0ZM0 5.438c0-.334.167-.5.5-.5h4L2.156 2.813c-.229-.25-.229-.49 0-.72a.478.478 0 0 1 .344-.155c.125 0 .24.052.344.156l2.875 2.594c.187.208.281.447.281.718 0 .271-.094.51-.281.719L2.844 8.813a.478.478 0 0 1-.344.156c-.063 0-.177-.052-.344-.156-.229-.25-.229-.49 0-.72L4.5 5.939h-4c-.333 0-.5-.167-.5-.5Z"/></svg>