<svg xmlns="http://www.w3.org/2000/svg" fill="currentColor" viewBox="0 0 16 16"><path d="M1 1.998c0-.291.099-.53.297-.717A.99.99 0 0 1 2 1a.98.98 0 0 1 .719.28.97.97 0 0 1 .281.719v12.004c0 .27-.094.504-.281.702A.948.948 0 0 1 2 15a.962.962 0 0 1-.703-.296.958.958 0 0 1-.297-.702V1.998Zm8.75 10.29a.95.95 0 0 1 .281.7.95.95 0 0 1-.281.702.989.989 0 0 1-.719.312.89.89 0 0 1-.687-.312L4.28 8.702A.95.95 0 0 1 4 8a.95.95 0 0 1 .281-.702L8.406 2.31a.908.908 0 0 1 .703-.312c.282 0 .516.104.704.312.208.187.312.42.312.701 0 .28-.104.515-.313.702L6.75 7.64a.492.492 0 0 0 0 .718l3 3.928Zm4.906 0c.188.186.281.42.281.7a.95.95 0 0 1-.28.702.99.99 0 0 1-.72.312.989.989 0 0 1-.718-.312L9.188 8.702A.904.904 0 0 1 8.874 8c0-.28.104-.514.313-.702L13.28 2.31a.99.99 0 0 1 .72-.312c.27 0 .51.104.719.312a.95.95 0 0 1 .281.7.95.95 0 0 1-.281.702L11.656 7.64a.492.492 0 0 0 0 .718l3 3.928Z"/></svg>