<svg xmlns="http://www.w3.org/2000/svg" fill="currentColor" viewBox="0 0 16 16"><path d="M5 2.01c0-.29.098-.528.295-.714a.983.983 0 0 1 .7-.28c.29 0 .528.093.715.28a.97.97 0 0 1 .28.715v11.967c0 .27-.094.503-.28.7a.941.941 0 0 1-.715.295.956.956 0 0 1-.7-.296.956.956 0 0 1-.295-.699V2.011Zm3.979 0c0-.29.098-.528.295-.714a.983.983 0 0 1 .7-.28c.29 0 .528.093.714.28.187.186.28.425.28.715v11.967c0 .27-.093.503-.28.7a.941.941 0 0 1-.715.295.956.956 0 0 1-.699-.296.956.956 0 0 1-.295-.699V2.011Z"/></svg>