<svg xmlns="http://www.w3.org/2000/svg" fill="currentColor" viewBox="0 0 16 16"><path d="M15 14.002a.96.96 0 0 1-.297.702A.962.962 0 0 1 14 15a.948.948 0 0 1-.719-.296.985.985 0 0 1-.281-.702V1.998a.97.97 0 0 1 .281-.717A.975.975 0 0 1 14 1a.99.99 0 0 1 .703.28.944.944 0 0 1 .297.718v12.004ZM9.25 8.36c.23-.25.23-.489 0-.718L6.187 3.713a.904.904 0 0 1-.312-.702c0-.28.104-.514.313-.701a.908.908 0 0 1 .703-.312.91.91 0 0 1 .703.312l4.125 4.988A.95.95 0 0 1 12 8a.95.95 0 0 1-.281.702L7.656 13.69a.89.89 0 0 1-.687.312.989.989 0 0 1-.719-.312.95.95 0 0 1-.281-.701.95.95 0 0 1 .281-.702l3-3.928Zm-4.906 0a.492.492 0 0 0 0-.718L1.28 3.713A.95.95 0 0 1 1 3.01a.95.95 0 0 1 .281-.701A.989.989 0 0 1 2 1.998c.27 0 .51.104.719.312l4.094 4.988A.906.906 0 0 1 7.125 8c0 .28-.104.514-.313.702l-4.03 4.988a.989.989 0 0 1-.72.312.989.989 0 0 1-.718-.312.95.95 0 0 1-.282-.701.95.95 0 0 1 .282-.702l3-3.928Z"/></svg>