<svg xmlns="http://www.w3.org/2000/svg" fill="currentColor" viewBox="0 0 16 16"><path d="M6 15c0-.792-.135-1.323-.406-1.594C5.323 13.136 4.792 13 4 13H3c-.792 0-1.323.135-1.594.406C1.136 13.677 1 14.208 1 15h5Zm-2.5-4c.417 0 .77-.146 1.063-.438C4.854 10.271 5 9.918 5 9.5c0-.417-.146-.77-.438-1.063A1.447 1.447 0 0 0 3.5 8c-.417 0-.77.146-1.063.438A1.447 1.447 0 0 0 2 9.5c0 .417.146.77.438 1.063.291.291.645.437 1.062.437ZM6 9.5a2.41 2.41 0 0 1-.734 1.766c-.49.49-1.079.734-1.766.734H4c2 0 3 1 3 3v1H0v-1c0-2 1-3 3-3h.5c-.688 0-1.27-.25-1.75-.75-.5-.48-.75-1.063-.75-1.75 0-.73.234-1.328.703-1.797C2.172 7.234 2.771 7 3.5 7c.75 0 1.354.23 1.813.688C5.77 8.146 6 8.75 6 9.5ZM5.5 5c.333 0 .5.167.5.5 0 .333-.167.5-.5.5h-3a.478.478 0 0 1-.344-.156A.478.478 0 0 1 2 5.5c0-.333.167-.5.5-.5h3Zm0-2c.333 0 .5.167.5.5 0 .333-.167.5-.5.5h-3a.478.478 0 0 1-.344-.156A.478.478 0 0 1 2 3.5c0-.333.167-.5.5-.5h3ZM15 1c.292 0 .531.094.719.281A.973.973 0 0 1 16 2v10c0 .27-.094.5-.281.688A.924.924 0 0 1 15 13H8v-1h7V2H1v4H0V2c0-.292.104-.531.313-.719A.935.935 0 0 1 1 1h14Zm-2 4c0 .563-.193 1.036-.578 1.422-.386.385-.86.578-1.422.578h.719c.02.02.125.031.312.031.167 0 .26.01.281.032.48.041.823.218 1.032.53.208.313.364.678.469 1.095.124.52.187 1.291.187 2.312H8c0-1.25.073-2.01.219-2.281.062-.25.14-.495.234-.735s.255-.442.485-.609c.166-.104.364-.188.593-.25.021-.02.073-.031.156-.031.126 0 .198-.01.22-.032.02-.02.093-.03.218-.03s.198-.011.219-.032H11a1.92 1.92 0 0 1-1.406-.594A1.922 1.922 0 0 1 9 5c0-.563.193-1.036.578-1.422C9.964 3.193 10.438 3 11 3c.563 0 1.042.188 1.438.563.374.395.562.874.562 1.437Z"/></svg>