<svg xmlns="http://www.w3.org/2000/svg" fill="currentColor" viewBox="0 0 16 16"><path d="M1 2c.292 0 .531.099.719.297A.988.988 0 0 1 2 3a.973.973 0 0 1-.281.719A.973.973 0 0 1 1 4a.988.988 0 0 1-.703-.281A.947.947 0 0 1 0 3c0-.27.099-.505.297-.703A.961.961 0 0 1 1 2Zm0 5c.292 0 .531.099.719.297A.988.988 0 0 1 2 8a.973.973 0 0 1-.281.719A.973.973 0 0 1 1 9a.988.988 0 0 1-.703-.281A.947.947 0 0 1 0 8c0-.27.099-.505.297-.703A.961.961 0 0 1 1 7Zm0 5c.292 0 .531.099.719.297A.988.988 0 0 1 2 13a.974.974 0 0 1-.281.719A.973.973 0 0 1 1 14a.988.988 0 0 1-.703-.281A.947.947 0 0 1 0 13c0-.27.099-.505.297-.703A.961.961 0 0 1 1 12Zm4-7.969a.961.961 0 0 1-.703-.297A.961.961 0 0 1 4 3.031c0-.291.099-.531.297-.719A.988.988 0 0 1 5 2.032h10c.292 0 .531.093.719.28a.973.973 0 0 1 .281.72c0 .27-.094.504-.281.702a.947.947 0 0 1-.719.297H5ZM5 9a.961.961 0 0 1-.703-.297A.961.961 0 0 1 4 8c0-.292.099-.531.297-.719A.988.988 0 0 1 5 7h10c.292 0 .531.094.719.281A.973.973 0 0 1 16 8c0 .27-.094.505-.281.703A.947.947 0 0 1 15 9H5Zm0 4.969a.961.961 0 0 1-.703-.297.961.961 0 0 1-.297-.703c0-.292.099-.531.297-.719A.988.988 0 0 1 5 11.969h10c.292 0 .531.094.719.281a.973.973 0 0 1 .281.719c0 .27-.094.505-.281.703a.947.947 0 0 1-.719.297H5Z"/></svg>