<svg xmlns="http://www.w3.org/2000/svg" fill="currentColor" viewBox="0 0 16 16"><path d="M0 11V2C0 1.458.198.99.594.594A1.922 1.922 0 0 1 2 0h12c.563 0 1.037.198 1.422.594C15.807.99 16 1.458 16 2v9c0 .542-.193 1.01-.578 1.406-.386.396-.86.594-1.422.594h-1v2.344c0 .208-.068.37-.203.484a.684.684 0 0 1-.453.172c-.167 0-.292-.042-.375-.125L9.5 13H2a1.92 1.92 0 0 1-1.406-.594A1.922 1.922 0 0 1 0 11Zm2 1h8l2 2.5V12h2a.974.974 0 0 0 .719-.281A.974.974 0 0 0 15 11V2a.988.988 0 0 0-.281-.703A.947.947 0 0 0 14 1H2a.961.961 0 0 0-.703.297A.961.961 0 0 0 1 2v9c0 .292.099.531.297.719A.988.988 0 0 0 2 12Zm5.031-8.5c0-.333.104-.583.313-.75.208-.167.427-.25.656-.25.25 0 .474.083.672.25.198.167.297.417.297.75L8.5 7.031c-.042.23-.099.375-.172.438-.073.062-.182.093-.328.093a.58.58 0 0 1-.313-.078c-.083-.052-.145-.203-.187-.453L7.031 3.5ZM8 8.5c.313 0 .557.099.734.297A.98.98 0 0 1 9 9.469c0 .333-.104.583-.313.75a1.04 1.04 0 0 1-.656.25c-.25 0-.479-.084-.687-.25-.209-.167-.313-.417-.313-.75a.98.98 0 0 1 .266-.672A.898.898 0 0 1 8 8.5Z"/></svg>