<svg xmlns="http://www.w3.org/2000/svg" fill="currentColor" viewBox="0 0 16 16"><path d="M0 8c0-1.104.214-2.146.64-3.125.428-.98 1-1.828 1.72-2.547A7.977 7.977 0 0 1 4.905.625 7.82 7.82 0 0 1 8 0a7.863 7.863 0 0 1 5.672 2.344 8.216 8.216 0 0 1 1.703 2.547C15.792 5.859 16 6.896 16 8a7.863 7.863 0 0 1-.625 3.14 8.026 8.026 0 0 1-1.703 2.532 7.979 7.979 0 0 1-2.547 1.703c-.98.417-2.02.625-3.125.625a7.863 7.863 0 0 1-5.672-2.344A8.215 8.215 0 0 1 .625 11.11 7.786 7.786 0 0 1 0 8Zm8 7a6.93 6.93 0 0 0 4.969-2.047 7.162 7.162 0 0 0 1.484-2.234C14.818 9.865 15 8.959 15 8c0-.98-.182-1.89-.547-2.734a7.075 7.075 0 0 0-1.5-2.22 7.074 7.074 0 0 0-2.219-1.5A6.82 6.82 0 0 0 8 1c-.958 0-1.865.188-2.719.563a7.245 7.245 0 0 0-2.234 1.515 7.074 7.074 0 0 0-1.5 2.219A6.741 6.741 0 0 0 1 8a6.93 6.93 0 0 0 2.047 4.969 7.162 7.162 0 0 0 2.234 1.484C6.135 14.818 7.041 15 8 15Zm-2-3.5h1.031v-4h-1v-.969H9V11.5h1v1.031H6V11.5Zm2-8c.27 0 .5.094.688.281.208.188.312.438.312.75a.89.89 0 0 1-.313.688A.935.935 0 0 1 8 5.5c-.292 0-.531-.089-.719-.266C7.094 5.057 7 4.823 7 4.531c0-.291.089-.536.266-.734.177-.198.421-.297.734-.297Z"/></svg>