<svg xmlns="http://www.w3.org/2000/svg" fill="currentColor" viewBox="0 0 16 16"><path d="M8.003 5.522c.27 0 .516.083.734.25.219.166.328.426.328.779l-.28 2.62-.063 1.153c-.042.437-.292.655-.75.655a.863.863 0 0 1-.484-.156c-.156-.104-.235-.27-.235-.499a171.01 171.01 0 0 0-.109-1.918 23.786 23.786 0 0 0-.094-1.138 8.09 8.09 0 0 0-.078-.561l-.03-.156c0-.353.108-.613.327-.78.219-.166.463-.25.734-.25Zm0 6.424a.98.98 0 0 1 .719.28.97.97 0 0 1 .28.718.97.97 0 0 1-.28.717.974.974 0 0 1-.719.28.974.974 0 0 1-.718-.28.97.97 0 0 1-.281-.717.97.97 0 0 1 .28-.717.974.974 0 0 1 .72-.281Zm7.653.717c.188.395.302.78.344 1.154v.187c0 .645-.24 1.138-.718 1.482-.48.342-1 .514-1.562.514H2.287a2.615 2.615 0 0 1-1.546-.53 1.883 1.883 0 0 1-.735-1.497c-.02-.229.01-.447.094-.655.083-.208.177-.426.281-.655l5.78-10.447C6.638 1.406 7.273 1 8.065 1c.77 0 1.385.405 1.843 1.216l5.747 10.447Zm-2.03 2.34c.896 0 1.343-.334 1.343-.999 0-.208-.083-.499-.25-.873L9.096 2.715a1.254 1.254 0 0 0-.484-.546 1.153 1.153 0 0 0-.578-.171c-.187 0-.374.057-.562.171a1.297 1.297 0 0 0-.468.546L1.318 13.131c-.146.27-.218.561-.218.873 0 .665.437.998 1.312.998h11.214Z"/></svg>