<svg xmlns="http://www.w3.org/2000/svg" fill="currentColor" viewBox="0 0 16 16"><path d="M11.969 5.094c.062.062.073.146.031.25l-4.25 6.593c-.063.063-.125.094-.188.094-.062 0-.104-.01-.125-.031L4.095 9.187c-.104-.062-.115-.156-.032-.28l.844-1.188c.042-.063.094-.094.157-.094.041 0 .083.02.125.063l2.03 1.53a.338.338 0 0 0 .157.032c.083 0 .135-.031.156-.094l3.094-5.062c.042-.084.104-.125.188-.125.041 0 .083.02.124.062l1.032 1.063ZM16 8a7.863 7.863 0 0 1-.625 3.14 8.026 8.026 0 0 1-1.703 2.532 7.979 7.979 0 0 1-2.547 1.703c-.98.417-2.02.625-3.125.625a7.863 7.863 0 0 1-5.672-2.344A8.215 8.215 0 0 1 .625 11.11 7.786 7.786 0 0 1 0 8c0-1.104.214-2.146.64-3.125.428-.98 1-1.828 1.72-2.547A7.977 7.977 0 0 1 4.905.625 7.82 7.82 0 0 1 8 0c1.104 0 2.146.208 3.125.625.98.417 1.828.984 2.547 1.703a7.979 7.979 0 0 1 1.703 2.547c.417.98.625 2.02.625 3.125Zm-1 0c0-.98-.182-1.89-.547-2.734a7.075 7.075 0 0 0-1.5-2.22 7.026 7.026 0 0 0-2.234-1.5A6.853 6.853 0 0 0 8 1c-.958 0-1.865.188-2.719.563a7.245 7.245 0 0 0-2.234 1.515 7.074 7.074 0 0 0-1.5 2.219A6.741 6.741 0 0 0 1 8a6.93 6.93 0 0 0 2.047 4.969 7.162 7.162 0 0 0 2.234 1.484C6.135 14.818 7.041 15 8 15a6.93 6.93 0 0 0 2.75-.547 6.974 6.974 0 0 0 2.219-1.484 6.974 6.974 0 0 0 1.484-2.219A6.93 6.93 0 0 0 15 8Z"/></svg>