<svg xmlns="http://www.w3.org/2000/svg" fill="currentColor" viewBox="0 0 16 16"><path d="M5 8V3c0-.875.281-1.594.844-2.156C6.406.28 7.125 0 8 0c.854 0 1.573.281 2.156.844C10.72 1.427 11 2.146 11 3v5c0 .875-.281 1.594-.844 2.156C9.594 10.72 8.875 11 8 11c-.854 0-1.563-.292-2.125-.875C5.292 9.562 5 8.855 5 8ZM2.5 6H4v2c0 .625.104 1.135.313 1.531.208.521.5.948.875 1.281a3.69 3.69 0 0 0 1.28.876A3.963 3.963 0 0 0 8 12c.563 0 1.083-.104 1.563-.313A4.015 4.015 0 0 0 12 8V6.001h1.499c.333 0 .5.167.5.5 0 .333-.167.5-.5.5H13v1c0 1.25-.37 2.307-1.11 3.172-.739.864-1.703 1.443-2.89 1.734V15h3.5c.333 0 .5.167.5.5 0 .333-.167.5-.5.5h-9c-.333 0-.5-.167-.5-.5 0-.333.167-.5.5-.5H7v-2.094a5.725 5.725 0 0 1-1.578-.672 5.401 5.401 0 0 1-1.281-1.093A4.75 4.75 0 0 1 3 8V7h-.5c-.333 0-.5-.167-.5-.5 0-.333.167-.5.5-.5ZM6 3v5c0 .542.198 1.01.594 1.406A1.92 1.92 0 0 0 8 10c.563 0 1.036-.193 1.422-.578C9.807 9.036 10 8.562 10 8V3c0-.563-.188-1.042-.563-1.438A2.014 2.014 0 0 0 8 1a1.92 1.92 0 0 0-1.406.594A1.922 1.922 0 0 0 6 3Z"/></svg>