<svg xmlns="http://www.w3.org/2000/svg" fill="currentColor" viewBox="0 0 16 16"><path d="M1.067 1H9.6c.311 0 .567.1.767.301.2.201.3.458.3.77V7.43c0 .29-.1.54-.3.753-.2.212-.456.318-.767.318v1.071H8.533V7.43H9.6V2.07H1.067v5.36h1.066v7.5h6.4v-2.143H9.6v2.143c0 .29-.1.54-.3.753-.2.212-.456.318-.767.318h-6.4c-.31 0-.566-.106-.766-.318a1.06 1.06 0 0 1-.3-.753V8.5C.756 8.5.5 8.394.3 8.182a1.06 1.06 0 0 1-.3-.753V2.07c0-.312.1-.569.3-.77.2-.2.456-.301.767-.301Zm7.466 10.179c0-.358.211-.536.634-.536h1.8c.689 0 1.166.178 1.433.536.267.357.4.792.4 1.305v.938c0 .424.156.636.467.636.4 0 .6-.212.6-.636V7.93l-.534-.201-.566-3.147 1.1-.904L12.8 1.402 13.533 1l1.734 3.348L16 8.266l-1.067.234v4.922c0 .513-.144.926-.433 1.239-.289.312-.689.469-1.2.469s-.9-.162-1.167-.486c-.266-.324-.4-.742-.4-1.256v-.937a.737.737 0 0 0-.233-.536.732.732 0 0 0-.533-.234h-1.8c-.423 0-.634-.168-.634-.502ZM2.667 3.143H8c.356 0 .533.178.533.536V5.82a.54.54 0 0 1-.15.369.492.492 0 0 1-.383.167H2.667a.492.492 0 0 1-.384-.167.54.54 0 0 1-.15-.369V3.68c0-.358.178-.536.534-.536ZM3.333 8.5H7.6l-2.467 2.143h-1.8V8.5ZM14 6.39c.089.29.244.436.467.436.022 0 .05.005.083.017.033.01.061.005.083-.017.156-.045.245-.1.267-.168a.875.875 0 0 0 .033-.267v-.168l-.166-.97c-.067-.246-.223-.37-.467-.37-.311 0-.467.146-.467.436L14 6.391Z"/></svg>