<svg xmlns="http://www.w3.org/2000/svg" fill="currentColor" viewBox="0 0 16 16"><path d="M8.531 1.063c1.021 0 1.99.192 2.906.578a7.274 7.274 0 0 1 2.391 1.609 7.627 7.627 0 0 1 1.594 2.39A7.31 7.31 0 0 1 16 8.532c0 1.021-.193 1.99-.578 2.906a7.396 7.396 0 0 1-1.594 2.391 7.396 7.396 0 0 1-2.39 1.594A7.422 7.422 0 0 1 8.53 16c-.896 0-1.74-.151-2.531-.453a7.682 7.682 0 0 1-2.156-1.25 7.935 7.935 0 0 1-1.656-1.875 7.237 7.237 0 0 1-.97-2.36c.084.021.167.032.25.032h.907c.167.687.448 1.328.844 1.922.396.593.86 1.104 1.39 1.53a6.413 6.413 0 0 0 1.813 1.017 6.04 6.04 0 0 0 2.11.374 6.23 6.23 0 0 0 2.5-.5 6.483 6.483 0 0 0 3.405-3.406c.334-.77.5-1.604.5-2.5a6.22 6.22 0 0 0-.5-2.5 6.484 6.484 0 0 0-3.406-3.406 6.23 6.23 0 0 0-2.5-.5c-1 0-1.948.23-2.844.688a.693.693 0 0 1-.203-.25.752.752 0 0 1-.078-.188 5.367 5.367 0 0 1-.25-.5 8.918 8.918 0 0 1 1.625-.594 6.945 6.945 0 0 1 1.75-.218ZM1.5 8.5c-.104.02-.219-.02-.344-.125-.125-.104-.187-.219-.187-.344a.44.44 0 0 1 .11-.375.605.605 0 0 1 .39-.187h1.906a.245.245 0 0 0-.063-.047l-.093-.047a11.215 11.215 0 0 1-1-.578 5.925 5.925 0 0 1-1.063-.875 4.491 4.491 0 0 1-.828-1.203A3.51 3.51 0 0 1 0 3.187c0-.541.089-1.015.266-1.421.177-.407.416-.74.718-1s.63-.453.985-.578A3.263 3.263 0 0 1 3.062 0h.47a.53.53 0 0 1 .359.156c.114.104.171.24.171.407 0 .333-.177.5-.53.5-.313.02-.62.062-.923.125a2.36 2.36 0 0 0-.796.312c-.23.146-.412.354-.547.625-.136.27-.204.625-.204 1.063 0 .437.084.822.25 1.156.167.333.396.63.688.89.292.26.625.5 1 .72.375.218.77.421 1.188.609L4.03 4.625a.56.56 0 0 1 .14-.36.55.55 0 0 1 .36-.202c.354 0 .532.166.532.5l.28 2.812c0 .313-.093.573-.28.781a1.028 1.028 0 0 1-.72.344H1.5Z"/></svg>