<svg xmlns="http://www.w3.org/2000/svg" fill="currentColor" viewBox="0 0 16 16"><path d="M1.531 8.5c-.125.02-.245-.02-.36-.125a.597.597 0 0 1-.202-.344.44.44 0 0 1 .11-.375.605.605 0 0 1 .39-.187h1.906a.245.245 0 0 0-.063-.047l-.093-.047c-.271-.146-.6-.339-.985-.578a5.672 5.672 0 0 1-1.078-.875 4.491 4.491 0 0 1-.828-1.203A3.51 3.51 0 0 1 0 3.187c0-.541.089-1.02.266-1.437.177-.417.416-.75.718-1A3.213 3.213 0 0 1 3.063 0h.468a.53.53 0 0 1 .36.156.49.49 0 0 1 .171.375c0 .354-.177.531-.53.531h.03c-.333.021-.65.063-.953.125a2.36 2.36 0 0 0-.796.313c-.23.146-.412.354-.547.625-.136.27-.204.625-.204 1.063 0 .437.084.822.25 1.156.167.333.396.63.688.89.292.26.625.5 1 .72.375.218.77.421 1.188.609L4.03 4.625a.56.56 0 0 1 .14-.36.55.55 0 0 1 .36-.202c.354 0 .532.166.532.5l.28 2.812c0 .313-.088.573-.265.781-.177.209-.422.334-.734.375L1.53 8.5Zm7-7.438c1.021 0 1.99.193 2.906.579a7.274 7.274 0 0 1 2.391 1.609 7.627 7.627 0 0 1 1.594 2.39A7.31 7.31 0 0 1 16 8.532c0 1.021-.193 1.99-.578 2.906a7.396 7.396 0 0 1-1.594 2.391 7.396 7.396 0 0 1-2.39 1.594A7.422 7.422 0 0 1 8.53 16c-.896 0-1.74-.151-2.531-.453a7.682 7.682 0 0 1-2.156-1.25 7.935 7.935 0 0 1-1.656-1.875 7.237 7.237 0 0 1-.97-2.36c.084.021.167.032.25.032l2.938.031.094-.031c.688-.063 1.27-.36 1.75-.89a2.57 2.57 0 0 0 .688-1.86V7.28l-.282-2.843a2.245 2.245 0 0 0-.672-1.407c-.385-.375-.87-.562-1.453-.562h-.343a8.036 8.036 0 0 1 2.046-1.031 7.124 7.124 0 0 1 2.297-.375Z"/></svg>