<svg xmlns="http://www.w3.org/2000/svg" fill="currentColor" viewBox="0 0 16 16"><path d="M1 1h14c.292 0 .531.094.719.281A.973.973 0 0 1 16 2v8c0 .27-.094.505-.281.703A.947.947 0 0 1 15 11H1a.961.961 0 0 1-.703-.297A.961.961 0 0 1 0 10V2c0-.292.099-.531.297-.719A.988.988 0 0 1 1 1Zm1.156 9h11.719c0-.292.11-.557.328-.797.219-.24.485-.36.797-.36V3.126c-.313 0-.588-.11-.828-.328a1.04 1.04 0 0 1-.36-.797H2.156c0 .313-.12.578-.36.797A1.15 1.15 0 0 1 1 3.126v5.719c.313 0 .583.114.813.344.229.229.343.5.343.812ZM8 2.5c.48 0 .932.094 1.36.281a3.63 3.63 0 0 1 1.109.75c.312.313.562.683.75 1.11.187.427.281.88.281 1.359 0 .48-.094.932-.281 1.36a3.598 3.598 0 0 1-.75 1.109 3.595 3.595 0 0 1-1.11.75A3.348 3.348 0 0 1 8 9.5c-.48 0-.932-.094-1.36-.281a3.594 3.594 0 0 1-1.109-.75 3.594 3.594 0 0 1-.75-1.11A3.344 3.344 0 0 1 4.5 6c0-.48.094-.932.281-1.36a3.63 3.63 0 0 1 .75-1.109 3.594 3.594 0 0 1 1.11-.75A3.348 3.348 0 0 1 8 2.5ZM8 9c.833 0 1.542-.292 2.125-.875A2.893 2.893 0 0 0 11 6c0-.833-.292-1.542-.875-2.125A2.893 2.893 0 0 0 8 3c-.833 0-1.542.292-2.125.875A2.893 2.893 0 0 0 5 6c0 .833.292 1.542.875 2.125A2.893 2.893 0 0 0 8 9ZM.5 12h15c.333 0 .5.167.5.5 0 .125-.047.24-.14.344a.462.462 0 0 1-.36.156H.5a.462.462 0 0 1-.36-.156A.503.503 0 0 1 0 12.5c0-.333.167-.5.5-.5ZM0 14.5c0-.333.167-.5.5-.5h15c.333 0 .5.167.5.5 0 .125-.047.24-.14.344a.462.462 0 0 1-.36.156H.5a.462.462 0 0 1-.36-.156A.503.503 0 0 1 0 14.5Zm6.688-7.781.687-.063c.02.042.042.089.063.14.02.053.052.12.093.204l.25.219V6.062c-.333-.062-.573-.197-.718-.406-.188-.229-.282-.468-.282-.718 0-.23.094-.438.282-.625.145-.209.385-.334.718-.375v-.282h.438v.281c.583.063.906.355.969.876l-.657.093c0-.187-.104-.323-.312-.406v1c.458.146.75.302.875.469.146.146.219.375.219.687 0 .667-.365 1.063-1.094 1.188v.468H7.78v-.468c-.604-.104-.968-.48-1.093-1.125ZM3 5c.292 0 .531.094.719.281A.973.973 0 0 1 4 6c0 .27-.094.505-.281.703A.947.947 0 0 1 3 7a.961.961 0 0 1-.703-.297A.961.961 0 0 1 2 6c0-.292.099-.531.297-.719A.988.988 0 0 1 3 5Zm10 0c.292 0 .531.094.719.281A.973.973 0 0 1 14 6c0 .27-.094.505-.281.703A.947.947 0 0 1 13 7a.961.961 0 0 1-.703-.297A.961.961 0 0 1 12 6c0-.292.099-.531.297-.719A.988.988 0 0 1 13 5ZM8.219 7.25a.625.625 0 0 0 .375-.156.603.603 0 0 0 .094-.313c0-.25-.157-.448-.47-.593V7.25Zm-.75-2.375c0 .25.104.417.312.5V4.5c-.208.063-.312.188-.312.375Z"/></svg>