<svg xmlns="http://www.w3.org/2000/svg" fill="currentColor" viewBox="0 0 16 16"><path d="M4.688 7.938c.312-.063.52-.157.625-.282a.937.937 0 0 0 .156-.5c0-.146-.01-.229-.032-.25l-.093-.187c-.084-.146-.302-.25-.657-.313v1.532ZM15 13c0-.854-.281-1.573-.844-2.156C13.573 10.28 12.854 10 12 10h-2c-.875 0-1.594.281-2.156.844C7.28 11.406 7 12.125 7 13v1h8v-1ZM3.625 4.812a.727.727 0 0 0 .188.125.712.712 0 0 0 .28.157V3.719c-.228.104-.374.198-.437.281-.104.25-.146.385-.125.406 0 .167.031.302.094.407ZM11 8c.563 0 1.037-.193 1.422-.578.385-.386.578-.86.578-1.422 0-.563-.188-1.042-.563-1.438A2.014 2.014 0 0 0 11 4a1.92 1.92 0 0 0-1.406.594A1.922 1.922 0 0 0 9 6c0 .542.198 1.01.594 1.406A1.92 1.92 0 0 0 11 8Zm-6.531 3c.333 0 .5.167.5.5 0 .333-.167.5-.5.5H2.5a.478.478 0 0 1-.344-.156A.478.478 0 0 1 2 11.5c0-.333.167-.5.5-.5h1.969Zm0 2c.333 0 .5.167.5.5 0 .333-.167.5-.5.5H2.5a.478.478 0 0 1-.344-.156A.478.478 0 0 1 2 13.5c0-.333.167-.5.5-.5h1.969Zm-.375-3.469v-.687c-.563-.104-.959-.281-1.188-.531-.291-.292-.479-.688-.562-1.188L3.406 7c.021.23.094.406.219.531.104.146.26.26.469.344V6.25c-.48-.146-.854-.354-1.125-.625-.292-.23-.438-.615-.438-1.156 0-.459.136-.823.406-1.094.23-.292.615-.469 1.157-.531V2.03h.625l-.032.813c.563.104.938.25 1.125.437.23.25.396.573.5.969l-1.03.125c-.063-.292-.261-.51-.595-.656v1.594c.75.187 1.22.406 1.407.656.25.27.375.614.375 1.031 0 .542-.172.958-.516 1.25a2.8 2.8 0 0 1-1.266.594v.687h-.593ZM5 16H1c-.27 0-.5-.094-.687-.281A.924.924 0 0 1 0 15V1C0 .708.104.469.313.281A.935.935 0 0 1 1 0h9c.292 0 .531.094.719.281A.973.973 0 0 1 11 1v1h-1V1H1v14h4v1Zm9-10c0 .875-.281 1.594-.844 2.156C12.594 8.72 11.875 9 11 9h1c1.063 0 2.01.385 2.844 1.156.354.417.635.854.844 1.313.208.458.312.969.312 1.531v2H6v-2c0-.563.104-1.083.313-1.563A4.016 4.016 0 0 1 10 9h.999c-.854.001-1.563-.29-2.125-.874C8.292 7.562 8 6.855 8 6c0-.875.281-1.594.844-2.156C9.406 3.28 10.125 3 11 3c.854 0 1.573.281 2.156.844C13.72 4.427 14 5.146 14 6Z"/></svg>