<svg xmlns="http://www.w3.org/2000/svg" fill="currentColor" viewBox="0 0 16 16"><path d="m.32 7.127 2.171-1.853a.544.544 0 0 1 .392-.178c.142 0 .273.059.391.178.285.261.285.534 0 .82L1.708 7.411h5.695V1.71L6.122 3.243a.544.544 0 0 1-.392.178c-.095 0-.237-.06-.427-.178-.26-.262-.26-.523 0-.784L7.19.32c.26-.213.534-.32.818-.32.332 0 .605.107.819.32l1.85 2.139c.262.261.262.522 0 .784a.544.544 0 0 1-.39.178c-.096 0-.238-.06-.428-.178L8.542 1.71v5.702h5.695l-1.53-1.319c-.262-.285-.262-.558 0-.82a.544.544 0 0 1 .39-.177c.143 0 .274.059.393.178l2.135 1.853c.213.237.32.51.32.82 0 .308-.107.581-.32.819l-2.136 1.888a.544.544 0 0 1-.391.178c-.071 0-.202-.059-.392-.178-.26-.285-.26-.558 0-.82l1.53-1.282H8.543v5.701l1.317-1.568a.582.582 0 0 1 .427-.178c.143 0 .273.06.392.178.26.262.26.523 0 .784l-1.851 2.174c-.214.214-.487.32-.819.32-.284 0-.557-.106-.818-.32l-1.887-2.174c-.26-.261-.26-.522 0-.784a.582.582 0 0 1 .427-.178c.143 0 .273.06.392.178l1.281 1.568V8.552H1.708l1.566 1.283c.285.261.285.534 0 .82a.544.544 0 0 1-.391.177c-.071 0-.202-.059-.392-.178L.321 8.766A1.19 1.19 0 0 1 0 7.946c0-.309.107-.582.32-.82Z"/></svg>