<svg xmlns="http://www.w3.org/2000/svg" fill="currentColor" viewBox="0 0 16 16"><path d="M.249 6.156a8.084 8.084 0 0 1 2.35-4.047A7.714 7.714 0 0 1 4.53.797 8.117 8.117 0 0 1 6.85.094L6.816 0h2.397l-.031.094A7.843 7.843 0 0 1 11.875 1a8.08 8.08 0 0 1 2.148 1.734 8.085 8.085 0 0 1 1.448 2.391A7.77 7.77 0 0 1 16 8a7.925 7.925 0 0 1-.623 3.125 7.982 7.982 0 0 1-1.696 2.547 7.903 7.903 0 0 1-2.553 1.703A7.952 7.952 0 0 1 8 16a7.45 7.45 0 0 1-2.35-.375 8.72 8.72 0 0 1-2.101-1.016 7.8 7.8 0 0 1-1.712-1.546 7.475 7.475 0 0 1-1.183-2h1.338a6.66 6.66 0 0 0 2.444 2.703C5.505 14.443 6.693 14.78 8 14.78c.955 0 1.842-.177 2.661-.531a6.814 6.814 0 0 0 2.148-1.453 6.845 6.845 0 0 0 1.448-2.156 6.63 6.63 0 0 0 .529-2.641c0-.896-.16-1.734-.483-2.516a7.04 7.04 0 0 0-1.307-2.078 6.786 6.786 0 0 0-1.961-1.484 6.717 6.717 0 0 0-2.412-.703L8 2.469l-.591-1.25c-1.432.146-2.678.666-3.736 1.562a6.821 6.821 0 0 0-2.179 3.375H.25Zm2.584 0a5.128 5.128 0 0 1 1.945-2.672c.944-.677 2.029-1.015 3.253-1.015.768 0 1.484.14 2.148.422a5.47 5.47 0 0 1 1.759 1.187c.508.51.902 1.1 1.183 1.766.28.666.42 1.385.42 2.156a5.545 5.545 0 0 1-1.603 3.922 5.472 5.472 0 0 1-1.759 1.187 5.451 5.451 0 0 1-2.148.422c-.975 0-1.862-.219-2.661-.656a5.333 5.333 0 0 1-1.946-1.813h1.557A4.92 4.92 0 0 0 6.366 12 3.93 3.93 0 0 0 8 12.344c.602 0 1.167-.115 1.696-.344.53-.23.986-.542 1.37-.938a4.62 4.62 0 0 0 .918-1.374A4.149 4.149 0 0 0 12.327 8c0-.604-.114-1.167-.343-1.688a4.62 4.62 0 0 0-.918-1.375A4.222 4.222 0 0 0 9.696 4 4.223 4.223 0 0 0 8 3.656c-.85 0-1.619.23-2.304.688A4.388 4.388 0 0 0 4.14 6.156H2.833Zm7.47 3v1.188H0V9.156h10.303Zm-2.49-1.625c0-.396.12-.682.358-.86.239-.176.503-.265.794-.265.311 0 .586.094.825.282.239.187.358.468.358.843 0 .313-.12.584-.358.813a1.158 1.158 0 0 1-.825.344 1.09 1.09 0 0 1-.825-.344 1.14 1.14 0 0 1-.327-.813Zm-3.175-.093h2.335c.373 0 .56.197.56.593a.601.601 0 0 1-.14.39c-.093.115-.233.173-.42.173H4.638c-.394 0-.591-.198-.591-.594 0-.375.197-.563.591-.563Zm-4.015 0H3.86c-.415 0-.623.197-.623.593 0 .146.052.276.156.39.104.115.26.173.467.173H.623c-.208 0-.364-.058-.467-.172A.566.566 0 0 1 0 8.032c0-.397.208-.595.623-.595Z"/></svg>