<svg xmlns="http://www.w3.org/2000/svg" fill="currentColor" viewBox="0 0 16 16"><path d="M12.34 7.36 9.152 5.366v-3.4L12.34 0l3.16 1.965v3.462L12.34 7.36ZM.5 10.574l3.189-1.965 3.16 1.965v3.462l-3.16 1.934L.5 13.973v-3.4ZM3.689.063l3.16 1.933v3.43l-3.16 1.966L.5 5.396v-3.4L3.689.062Zm5.492 10.541 3.16-1.965 3.159 1.965v3.213L12.34 16l-3.159-1.965v-3.43Zm3.16 4.585 2.51-1.528V11.01l-2.51-1.56-2.51 1.56v2.65l2.51 1.53ZM1.178 2.402v2.62l2.51 1.59 2.48-1.59v-2.62L3.69.842l-2.51 1.56Zm2.51 12.756 2.48-1.56v-2.62L3.69 9.42l-2.51 1.56v2.62l2.51 1.559ZM9.831 2.37v2.62l2.51 1.56 2.48-1.56V2.37L12.34.81 9.83 2.37Zm3.72 10.075-.65 2.027-2.362-3.525 3.012 1.498ZM4.604 4.022l-.65 2.028-2.302-3.525 2.952 1.497Zm-.915 6.02.295 3.774-1.712-.343 1.417-3.431Zm7.087-5.926 1.505-2.09v2.87l-1.505-.78ZM3.54 1.372 5.136 3.12l-.473.28-1.771-.873.65-1.154Zm8.475 9.7.56-.873 1.625 1.247-.68.437-1.505-.81Zm-6.614.219L5.136 13.1l-.59-.25-.296-1.56h1.152Zm7.47-8.609h1.093l-.355 1.56-.738-.406V2.682Zm-1.83 9.825.236.437-.71.311.473-.748ZM2.005 4.179l.207.281-.561.312.354-.593Zm9.006-1.497-.118.219-.296-.188.414-.03ZM2.419 11.29l-.118.219-.295-.187.413-.031Z"/></svg>