<svg xmlns="http://www.w3.org/2000/svg" fill="currentColor" viewBox="0 0 16 16"><path d="M0 12.468c0-.491.086-.941.257-1.35.17-.41.392-.769.664-1.076a3.34 3.34 0 0 1 .92-.737 2.882 2.882 0 0 1 1.027-.338v3.593l1.66 3.133a2.436 2.436 0 0 1-1.117.276c-.463 0-.9-.092-1.313-.276a3.526 3.526 0 0 1-1.087-.752 3.592 3.592 0 0 1-.74-1.106A3.412 3.412 0 0 1 0 12.468Zm11.743-3.47v3.593l1.66 3.133a2.436 2.436 0 0 1-1.116.276c-.463 0-.9-.092-1.313-.276a3.526 3.526 0 0 1-1.087-.753 3.592 3.592 0 0 1-.74-1.105 3.412 3.412 0 0 1-.272-1.367c0-.491.086-.942.257-1.351.171-.41.393-.768.664-1.075.272-.307.579-.553.921-.737a2.881 2.881 0 0 1 1.026-.338Zm0-8.384v3.593l1.66 3.133c-.1.061-.21.107-.331.138-.121.03-.232.066-.332.107-.02.02-.171.031-.453.031-.1 0-.191-.005-.272-.015a2.17 2.17 0 0 0-.272-.016c-.805-.143-1.484-.537-2.037-1.182-.554-.645-.83-1.407-.83-2.288 0-.491.085-.942.256-1.351.171-.41.393-.768.664-1.075.272-.307.579-.553.921-.737a2.881 2.881 0 0 1 1.026-.338ZM2.868.584v3.593l1.66 3.132c-.1.061-.211.107-.332.138-.12.03-.231.067-.332.108-.02.02-.17.03-.453.03-.1 0-.19-.005-.271-.015a2.169 2.169 0 0 0-.272-.015C2.063 7.41 1.384 7.017.83 6.372.277 5.727 0 4.965 0 4.084c0-.49.086-.941.257-1.35.17-.41.392-.769.664-1.076a3.34 3.34 0 0 1 .92-.737A2.882 2.882 0 0 1 2.869.583Zm9.872 11.454V8.415c.724.04 1.373.26 1.947.66A3.95 3.95 0 0 1 16 10.595l-3.26 1.443ZM3.864 3.624V0c.725.04 1.374.261 1.947.66.574.4 1.012.906 1.314 1.52l-3.26 1.444Zm8.876.03V.032c.724.04 1.373.26 1.947.66A3.95 3.95 0 0 1 16 2.211l-3.26 1.444Zm-8.876 4.73c.725.04 1.374.26 1.947.66.574.4 1.012.906 1.314 1.52l-3.26 1.444V8.384Zm11.864-5.037c.121.328.181.696.181 1.106 0 .184-.035.4-.105.645a3.395 3.395 0 0 1-.845 1.428 3.033 3.033 0 0 1-.71.537L12.86 4.607l2.868-1.26Zm0 8.384c.121.328.181.696.181 1.106 0 .184-.035.4-.105.645a3.395 3.395 0 0 1-.845 1.428 3.034 3.034 0 0 1-.71.537L12.86 12.99l2.868-1.259ZM3.985 4.576l2.868-1.26c.12.328.181.697.181 1.106 0 .185-.035.4-.106.645a3.393 3.393 0 0 1-.845 1.428 3.034 3.034 0 0 1-.71.538L3.986 4.576ZM6.853 11.7c.12.327.181.696.181 1.105 0 .184-.035.4-.106.645a3.39 3.39 0 0 1-.845 1.428 3.033 3.033 0 0 1-.71.537L3.986 12.96l2.868-1.26Z"/></svg>