<svg xmlns="http://www.w3.org/2000/svg" fill="currentColor" viewBox="0 0 16 16"><path d="M2 13v2h2v-2H2Zm-1 3v-4h4v4H1Zm1.875-7.156 2.5-3L6 6.437l-3.125 3.657L1 8.25l.625-.594 1.25 1.188ZM14.5 8c.333 0 .5.167.5.5 0 .333-.167.5-.5.5H8.531a.478.478 0 0 1-.344-.156.478.478 0 0 1-.156-.344c0-.333.167-.5.5-.5H14.5Zm0 6c.333 0 .5.167.5.5 0 .333-.167.5-.5.5H8.531a.478.478 0 0 1-.344-.156.478.478 0 0 1-.156-.344c0-.333.167-.5.5-.5H14.5ZM2.875 3.031 5.375 0 6 .594 2.875 4.28 1 2.438l.625-.657 1.25 1.25Zm11.625-1c.333 0 .5.167.5.5 0 .334-.167.5-.5.5H8.531a.478.478 0 0 1-.344-.156.478.478 0 0 1-.156-.344c0-.333.167-.5.5-.5H14.5Z"/></svg>