<svg xmlns="http://www.w3.org/2000/svg" fill="currentColor" viewBox="0 0 16 16"><path d="M5.007 4.11h-3.99V.016h3.99V4.11Zm-3.99 7.875h3.99v4h-3.99v-4Zm0-6h3.99v4h-3.99v-4Zm7.014 8.5c0-.146.052-.266.156-.36a.501.501 0 0 1 .343-.14h5.955c.333 0 .5.166.5.5 0 .125-.048.24-.141.344a.46.46 0 0 1-.359.156H8.53a.476.476 0 0 1-.343-.156.478.478 0 0 1-.156-.344Zm.5-6.5h5.954c.333 0 .5.166.5.5 0 .125-.048.24-.141.343a.46.46 0 0 1-.359.157H8.53a.476.476 0 0 1-.343-.157.478.478 0 0 1-.156-.343c0-.146.052-.266.156-.36a.501.501 0 0 1 .343-.14Zm0-5.969h5.954c.333 0 .5.167.5.5 0 .125-.048.24-.141.344a.46.46 0 0 1-.359.156H8.53a.476.476 0 0 1-.343-.156.478.478 0 0 1-.156-.344c0-.146.052-.266.156-.36a.501.501 0 0 1 .343-.14ZM4.008 3.11V1.016H2.014V3.11h1.995ZM2.014 6.985v2h1.995v-2H2.014Zm0 8h1.995v-2H2.014v2Z"/></svg>