<svg xmlns="http://www.w3.org/2000/svg" fill="currentColor" viewBox="0 0 16 16"><path d="M10.04 0v6H16v1H9.004V0h1.035ZM9.003 16V9h1.004v6H16v1H9.004ZM0 9h.973v6h5.929v1H0V9Zm0-9h.973v5.969h5.929v1H0V0Zm1.725 1.344a.31.31 0 0 1 .283.156L4.58 4.563l2.04-2.5c.062-.084.156-.126.282-.126.084 0 .146.021.188.063a.307.307 0 0 1 .157.281c0-.041-.005-.041-.016 0-.01.042-.026.115-.047.219L4.58 5.719 1.443 1.937a.3.3 0 0 1-.094-.218c0-.25.126-.375.376-.375Zm8.753 12.844c0 .041.006.041.016 0 .01-.042.026-.115.047-.22l3.137-4.28 2.04 2.656a3.8 3.8 0 0 0 .047.219c.01.041.015.041.015 0a.468.468 0 0 1-.078.25c-.052.083-.141.124-.267.124-.104 0-.209-.052-.313-.156l-1.412-1.906-2.573 3.531c-.063.084-.157.125-.282.125-.251 0-.377-.114-.377-.344Zm0-9.032a.42.42 0 0 1 .126-.312l3.012-2.407 1.913.657c.084.02.142.062.173.125a.416.416 0 0 1 .047.187c0 .25-.105.375-.314.375-.063 0-.104-.01-.125-.031l-1.537-.5-2.698 2.156a.418.418 0 0 1-.252.094c-.23 0-.345-.115-.345-.344ZM1.38 12.031c0-.166.063-.281.189-.344l2.478-1.25 2.51 1.844a.423.423 0 0 1 .125.313c0 .229-.125.344-.376.344.042 0 .042-.006 0-.016a5.47 5.47 0 0 0-.22-.047L3.984 11.25l-2.102 1.063a1.11 1.11 0 0 0-.188.046c-.02.01-.01.016.031.016-.146 0-.25-.073-.313-.219-.021-.02-.032-.062-.032-.125ZM3.827 1.406 6.84.813c.272 0 .408.114.408.343 0 .063-.026.13-.078.203a.348.348 0 0 1-.204.141l-2.73.531-.721 1-.47-.594.783-1.03Zm-.502 10.375.722 1.281.784-.937.565.438-1.443 1.75-1.255-2.22.627-.312ZM10.823.22c.126 0 .23.041.314.125l1.757 2.437-.565.5-1.788-2.5a5.333 5.333 0 0 0-.047-.218c-.01-.042-.016-.042-.016 0 0-.23.116-.344.345-.344Zm1.883 12.375.91.156.627-.875.47.594-.784 1.094-1.694-.344.47-.625ZM1.255 5.03c0 .042.005.042.016 0a5.46 5.46 0 0 0 .047-.218l1.066-1.47.47.563-.94 1.313c-.063.104-.168.156-.314.156-.084 0-.146-.02-.188-.063a.307.307 0 0 1-.157-.28Zm11.702-.875.565-.468.156.218.251-.406.69.219-.91 1.5-.752-1.063ZM1.694 9.344c.105 0 .22.062.345.187l.753 1.313-.627.344-.785-1.344c0-.063-.01-.104-.031-.125 0-.25.115-.375.345-.375ZM15.122 1.53c.104-.125.209-.187.313-.187.23 0 .345.114.345.343 0 .084-.02.146-.062.188l-.534.906-.69-.25.628-1Zm-9.098 9.094c.062-.083.156-.125.282-.125l.063.031c.188 0 .282.104.282.313l-.031.062c0 .104-.01.167-.032.188l-.502.625-.596-.438.534-.656Zm8.847.344.25-.344a.39.39 0 0 1 .283-.125c-.042 0-.042.005 0 .016.042.01.115.026.22.046.104.063.156.167.156.313l-.031.031c0 .084-.01.136-.031.156l-.377.5-.47-.593Zm-3.985 1.219.628.156-.44.625-.313-.063c-.188-.041-.283-.187-.283-.437.042-.063.095-.125.157-.188a.34.34 0 0 1 .251-.094Z"/></svg>