<svg xmlns="http://www.w3.org/2000/svg" fill="currentColor" viewBox="0 0 16 16"><path d="M16 15v1h-5.898v-1H16ZM0 16v-1h5.898v1H0Zm16-9.031h-5.898V6H16v.969ZM0 6h5.898v.969H0V6Zm3.514-6v4.719h-1.13V0h1.13Zm8.972 4.719V0h1.13v4.719h-1.13ZM2.384 14.094V9.406h1.13v4.688h-1.13Zm10.102 0V9.406h1.13v4.688h-1.13Zm-7.78 0v-3.531h1.192v3.53H4.706Zm10.102 0v-3.531H16v3.53h-1.192ZM4.706 4.719V1.187h1.192V4.72H4.706ZM16 1.187V4.72h-1.192V1.187H16ZM1.192 2.345V4.72H0V2.344h1.192Zm10.102 0V4.72h-1.192V2.344h1.192Zm-1.192 11.75V11.75h1.192v2.344h-1.192ZM0 14.094V11.75h1.192v2.344H0Z"/></svg>