<svg xmlns="http://www.w3.org/2000/svg" fill="currentColor" viewBox="0 0 16 16"><path d="m2.875 14.75 2.5-3.031.625.594L2.875 16 1 14.156l.625-.625 1.25 1.219Zm2.5-8.906L6 6.437l-3.125 3.657L1 8.25l.625-.594 1.25 1.188 2.5-3Zm0-5.844L6 .594 2.875 4.28 1 2.438l.625-.657 1.25 1.25L5.375 0ZM14.5 2.031c.333 0 .5.167.5.5 0 .125-.047.24-.14.344a.462.462 0 0 1-.36.156H8.531a.478.478 0 0 1-.344-.156.478.478 0 0 1-.156-.344c0-.146.052-.265.156-.36a.503.503 0 0 1 .344-.14H14.5ZM14.5 8c.333 0 .5.167.5.5 0 .125-.047.24-.14.344A.462.462 0 0 1 14.5 9H8.531a.478.478 0 0 1-.344-.156.478.478 0 0 1-.156-.344c0-.146.052-.266.156-.36A.503.503 0 0 1 8.531 8H14.5Zm0 6c.333 0 .5.167.5.5 0 .125-.047.24-.14.344a.462.462 0 0 1-.36.156H8.531a.478.478 0 0 1-.344-.156.478.478 0 0 1-.156-.344c0-.146.052-.266.156-.36a.503.503 0 0 1 .344-.14H14.5Z"/></svg>