<svg xmlns="http://www.w3.org/2000/svg" fill="currentColor" viewBox="0 0 16 16"><path d="M5.982 2H13c.271 0 .506.094.704.281a.946.946 0 0 1 .298.719v1H13V3H7.015v2a.947.947 0 0 1-.297.719A1.03 1.03 0 0 1 5.982 6H3.976v9H13v-2h1.002v2a.972.972 0 0 1-.282.719A.977.977 0 0 1 13 16H3.976a.977.977 0 0 1-.72-.281.972.972 0 0 1-.282-.719V5l3.008-3Zm5.012 12H4.98c0-.52.042-.854.125-1 .188-.5.528-.792 1.019-.875.49-.083 1.112-.125 1.864-.125a1.93 1.93 0 0 1-1.41-.594A1.92 1.92 0 0 1 5.982 10c0-.542.198-1.01.595-1.406A1.93 1.93 0 0 1 7.987 8c.564 0 1.039.198 1.425.594.387.396.58.864.58 1.406 0 .542-.193 1.01-.58 1.406A1.914 1.914 0 0 1 7.987 12c.793 0 1.43.042 1.91.125.481.083.805.375.972.875.084.146.125.48.125 1Zm-9.023-1H1V1c0-.292.094-.531.282-.719A.939.939 0 0 1 1.972 0h9.022v1H1.971v12Zm10.653-3.563c.041.167.083.292.125.376a.964.964 0 0 0 .25.28c.084.084.189.157.314.22V8.687a1.218 1.218 0 0 0-.157-.062A1.218 1.218 0 0 1 13 8.562 3.531 3.531 0 0 1 12.122 8c-.23-.208-.344-.552-.344-1.031 0-.396.115-.73.344-1 .23-.271.523-.448.878-.532.02-.02.125-.03.313-.03V5h.564v.406h.125c.46.063.8.214 1.018.453.22.24.36.537.423.891l-.97.125c-.064-.23-.22-.417-.47-.563-.022-.02-.043-.03-.063-.03-.021 0-.042-.011-.063-.032v1.5a.14.14 0 0 1 .063.016.14.14 0 0 0 .062.015c.46.167.84.35 1.144.547.303.198.454.568.454 1.11 0 .479-.12.859-.36 1.14-.24.281-.653.474-1.238.578-.02.021-.063.031-.125.031v.657h-.564v-.625c-.188 0-.293-.01-.313-.031a1.56 1.56 0 0 1-.925-.594 2.29 2.29 0 0 1-.454-1.031l1.003-.126Zm1.378.907c.23-.084.387-.167.47-.25a.83.83 0 0 0 .188-.5.692.692 0 0 0-.11-.406c-.073-.105-.255-.209-.548-.313a.14.14 0 0 1-.063-.016.14.14 0 0 0-.062-.015v1.531a.14.14 0 0 0 .063-.016.14.14 0 0 1 .062-.015ZM13 7.438a1.1 1.1 0 0 1 .313.156V6.25a2.186 2.186 0 0 0-.313.156c-.188.146-.282.313-.282.5 0 .104.015.193.047.266.03.073.11.161.235.266Z"/></svg>