<svg xmlns="http://www.w3.org/2000/svg" fill="currentColor" viewBox="0 0 16 16"><path d="M1 1h14c.292 0 .531.099.719.297A.988.988 0 0 1 16 2v10a.974.974 0 0 1-.281.719A.974.974 0 0 1 15 13H1a.973.973 0 0 1-.719-.281A.974.974 0 0 1 0 12V2c0-.27.094-.505.281-.703A.947.947 0 0 1 1 1Zm0 1v10h3c0-1.125.26-1.901.781-2.328C5.302 9.245 6.041 9.02 7 9h2c1 0 1.75.219 2.25.656.5.438.75 1.219.75 2.344h3V2H1Zm4 4c0-.833.292-1.542.875-2.125A2.893 2.893 0 0 1 8 3c.833 0 1.542.292 2.125.875S11 5.167 11 6s-.292 1.542-.875 2.125A2.893 2.893 0 0 1 8 9a2.893 2.893 0 0 1-2.125-.875A2.893 2.893 0 0 1 5 6Zm1 0c0 .563.198 1.036.594 1.422C6.99 7.807 7.458 8 8 8c.542 0 1.01-.193 1.406-.578C9.802 7.036 10 6.562 10 6a1.92 1.92 0 0 0-.594-1.406A1.922 1.922 0 0 0 8 4a1.92 1.92 0 0 0-1.406.594A1.922 1.922 0 0 0 6 6Zm5 6c0-.5-.057-.885-.172-1.156-.114-.271-.265-.469-.453-.594a1.346 1.346 0 0 0-.64-.219A8.489 8.489 0 0 0 9 10H7c-.23 0-.464.01-.703.031-.24.021-.453.094-.64.219-.188.125-.345.323-.47.594C5.063 11.114 5 11.5 5 12h6Zm-6.5 2h7c.333 0 .5.167.5.5 0 .125-.047.24-.14.344a.462.462 0 0 1-.36.156h-7a.478.478 0 0 1-.344-.156A.478.478 0 0 1 4 14.5c0-.146.052-.266.156-.36A.503.503 0 0 1 4.5 14Z"/></svg>