<svg xmlns="http://www.w3.org/2000/svg" fill="currentColor" viewBox="0 0 16 16"><path d="M2.715 11.723a.959.959 0 0 1-.702.277.959.959 0 0 1-.701-.277.967.967 0 0 1-.312-.708c0-.266.104-.502.312-.707L7.33 4.246a.723.723 0 0 0 .156-.092.361.361 0 0 0 .077-.046.362.362 0 0 1 .078-.046c.125-.041.24-.062.343-.062a.22.22 0 0 1 .094.015.14.14 0 0 0 .062.016.44.44 0 0 1 .297.092c.03.02.067.041.109.062.02.02.036.03.046.03.01 0 .026.01.047.031.021.02.042.03.063.03l5.986 6.032a.967.967 0 0 1 .312.707.967.967 0 0 1-.312.708.959.959 0 0 1-.701.277.959.959 0 0 1-.702-.277l-4.802-4.77a.889.889 0 0 0-.997 0l-4.771 4.77Z"/></svg>