<svg xmlns="http://www.w3.org/2000/svg" fill="currentColor" viewBox="0 0 16 16"><path d="M13.285 4.277A.958.958 0 0 1 13.987 4c.28 0 .514.092.701.277a.967.967 0 0 1 .312.708.967.967 0 0 1-.312.707L8.67 11.754a.727.727 0 0 0-.156.092.367.367 0 0 0-.077.046.363.363 0 0 1-.078.046c-.125.041-.24.062-.343.062a.219.219 0 0 1-.094-.015.14.14 0 0 0-.062-.016.44.44 0 0 1-.297-.092 1.023 1.023 0 0 0-.109-.062c-.02-.02-.036-.03-.046-.03-.01 0-.026-.01-.047-.031-.021-.02-.042-.03-.063-.03L1.312 5.691A.967.967 0 0 1 1 4.985c0-.267.104-.503.312-.708A.959.959 0 0 1 2.013 4c.281 0 .515.092.702.277l4.802 4.77a.889.889 0 0 0 .997 0l4.771-4.77Z"/></svg>