<svg xmlns="http://www.w3.org/2000/svg" fill="currentColor" viewBox="0 0 16 16"><path d="M6.333 3.347c.458 0 .838.142 1.14.425.301.284.473.664.515 1.14l.905 8.748c.02.113 0 .198-.062.255a.315.315 0 0 1-.219.085.472.472 0 0 1-.218-.068 18.024 18.024 0 0 1-.656-.68 41.179 41.179 0 0 1-1.28-1.464 6.833 6.833 0 0 1-.437-.579 13.62 13.62 0 0 1-.5-.732 3.254 3.254 0 0 1-.39-.919 4.636 4.636 0 0 1-.14-1.19c0-.443.094-.948.28-1.515.105-.34.115-.636.032-.885a1.518 1.518 0 0 0-.421-.647 2.4 2.4 0 0 0-.703-.443 9.432 9.432 0 0 0-.843-.306c-.291-.09-.598-.181-.92-.272-.323-.09-.63-.176-.921-.255l-.75-.205a2.362 2.362 0 0 0-.374-.085c-.292-.09-.411-.221-.36-.391.053-.17.162-.233.329-.187a.92.92 0 0 0 .28.068c.063.022.25.068.562.136.313.068.656.142 1.03.221.375.08.745.148 1.109.204.364.057.65.085.858.085.042 0 .073-.01.094-.034.312-.045.593-.13.843-.255s.614-.21 1.092-.255h.125Zm2.935 2.11c-.167.09-.292.051-.375-.12-.083-.17-.073-.311.031-.425.042-.045.213-.22.515-.527.302-.306.62-.63.952-.97.375-.409.802-.84 1.28-1.293.084-.114.193-.148.328-.103.135.046.182.137.14.273l-.156 1.225a.728.728 0 0 1-.312.545c-.395.226-.76.43-1.092.612a40.293 40.293 0 0 1-1.311.783Zm6.337-2.723c.124 0 .229.068.312.204.083.137.104.386.062.75-.083.816-.39 1.639-.92 2.467a15.337 15.337 0 0 1-1.78 2.28 14.948 14.948 0 0 1-1.951 1.753c-.645.476-1.124.76-1.436.85a1.578 1.578 0 0 1-.375.069c-.166 0-.25-.08-.25-.238l-.343-3.846c-.041-.25.115-.488.468-.715a111.604 111.604 0 0 0 1.093-.63c.291-.17.614-.357.968-.561l1.061-.613c.833-.5 1.78-1.055 2.84-1.668a.323.323 0 0 1 .25-.102Z"/></svg>