<svg xmlns="http://www.w3.org/2000/svg" fill="currentColor" viewBox="0 0 16 16"><path d="M1 14V2c0-.27.094-.505.281-.703A.91.91 0 0 1 1.97 1h10c.291 0 .536.099.734.297A.961.961 0 0 1 13 2v9l-3 3h4V1h1v13a.947.947 0 0 1-.297.719A.988.988 0 0 1 14 15H2a.973.973 0 0 1-.719-.281A.974.974 0 0 1 1 14Zm.969-12L2 14h6v-3c0-.27.099-.505.297-.703A.961.961 0 0 1 9 10h3V2H1.969ZM6.25 3h4.5c.167 0 .25.083.25.25v1.5c0 .167-.083.25-.25.25h-4.5C6.083 5 6 4.917 6 4.75v-1.5c0-.167.083-.25.25-.25ZM3.469 7.969h7c.333 0 .5.166.5.5 0 .125-.047.24-.14.344a.462.462 0 0 1-.36.156h-7a.478.478 0 0 1-.344-.156.478.478 0 0 1-.156-.344c0-.146.052-.266.156-.36a.503.503 0 0 1 .344-.14Zm-.5-1.469c0-.146.052-.266.156-.36A.503.503 0 0 1 3.469 6h7c.333 0 .5.167.5.5 0 .125-.047.24-.14.344a.462.462 0 0 1-.36.156h-7a.478.478 0 0 1-.344-.156.478.478 0 0 1-.156-.344ZM3 4.75v-1.5c0-.167.083-.25.25-.25h1.5c.167 0 .25.083.25.25v1.5c0 .167-.083.25-.25.25h-1.5C3.083 5 3 4.917 3 4.75Zm.5 5.281h3c.333 0 .5.167.5.5 0 .125-.047.24-.14.344a.462.462 0 0 1-.36.156h-3a.478.478 0 0 1-.344-.156.478.478 0 0 1-.156-.344c0-.146.052-.265.156-.36a.503.503 0 0 1 .344-.14ZM3.5 12h3c.333 0 .5.167.5.5 0 .125-.047.24-.14.344A.462.462 0 0 1 6.5 13h-3a.478.478 0 0 1-.344-.156A.478.478 0 0 1 3 12.5c0-.146.052-.266.156-.36A.503.503 0 0 1 3.5 12Z"/></svg>