<svg xmlns="http://www.w3.org/2000/svg" fill="currentColor" viewBox="0 0 16 16"><path d="M8.5 4.219v3.843c.5.063.964.209 1.39.438.428.23.797.516 1.11.86.313.343.557.744.734 1.203.178.458.266.937.266 1.437 0 .563-.104 1.083-.313 1.563a4.064 4.064 0 0 1-2.124 2.124c-.48.209-1 .313-1.563.313a3.877 3.877 0 0 1-1.563-.313 4.064 4.064 0 0 1-2.125-2.124C4.104 13.082 4 12.563 4 12a3.954 3.954 0 0 1 1-2.64c.313-.344.682-.63 1.11-.86a3.95 3.95 0 0 1 1.39-.438V4.22L5.844 5.844A.478.478 0 0 1 5.5 6a.478.478 0 0 1-.344-.156A.478.478 0 0 1 5 5.5c0-.125.052-.24.156-.344L7.281 3 5.156.844A.478.478 0 0 1 5 .5c0-.125.052-.24.156-.344A.478.478 0 0 1 5.5 0c.125 0 .24.052.344.156L8 2.281 10.156.156A.478.478 0 0 1 10.5 0c.125 0 .24.052.344.156A.478.478 0 0 1 11 .5c0 .125-.052.24-.156.344L8.719 3l2.125 2.156A.478.478 0 0 1 11 5.5c0 .125-.052.24-.156.344A.478.478 0 0 1 10.5 6a.478.478 0 0 1-.344-.156L8.5 4.219ZM8 15c.833 0 1.542-.292 2.125-.875A2.893 2.893 0 0 0 11 12c0-.833-.292-1.542-.875-2.125A2.893 2.893 0 0 0 8 9c-.833 0-1.542.292-2.125.875A2.893 2.893 0 0 0 5 12c0 .833.292 1.542.875 2.125A2.893 2.893 0 0 0 8 15Z"/></svg>