<svg xmlns="http://www.w3.org/2000/svg" fill="currentColor" viewBox="0 0 16 16"><path d="M13.844 3.25c.104.146.156.27.156.375 0 .125-.052.24-.156.344L3.688 14.156c-.084.084-.167.125-.25.125L0 15l.688-3.438c0-.104.041-.197.125-.28L11 1.124A.464.464 0 0 1 11.344 1c.146 0 .26.042.344.125l2.156 2.125Zm-3.781 3.094L8.624 4.937l-7 6.97 1.438 1.437 7-7Zm2.718-2.75-1.437-1.375-2 2 1.406 1.406 2.031-2.031ZM15 9.969l-1.969 2-2.031-2-1.031 1 2.062 1.969L9.97 15 11 16l2.031-2.063L15 16l1-1-2.063-2.063L16 10.97l-1-1Z"/></svg>