<svg xmlns="http://www.w3.org/2000/svg" fill="currentColor" viewBox="0 0 16 16"><path d="M2 15V2c0-.27.094-.505.281-.703A.947.947 0 0 1 3 1h2V0h1v1h4V0h1v1h2c.292 0 .531.099.719.297A.988.988 0 0 1 14 2v13a.974.974 0 0 1-.281.719A.974.974 0 0 1 13 16H3a.973.973 0 0 1-.719-.281A.974.974 0 0 1 2 15Zm1 0h10V4H3v11Zm2.5-3h5c.333 0 .5.167.5.5 0 .125-.047.24-.14.344a.462.462 0 0 1-.36.156h-5a.478.478 0 0 1-.344-.156A.478.478 0 0 1 5 12.5c0-.146.052-.266.156-.36A.503.503 0 0 1 5.5 12Zm0-6h5c.333 0 .5.167.5.5 0 .125-.047.24-.14.344A.462.462 0 0 1 10.5 7h-5a.478.478 0 0 1-.344-.156A.478.478 0 0 1 5 6.5c0-.146.052-.266.156-.36A.503.503 0 0 1 5.5 6Zm0 3h5c.333 0 .5.167.5.5 0 .125-.047.24-.14.344a.462.462 0 0 1-.36.156h-5a.478.478 0 0 1-.344-.156A.478.478 0 0 1 5 9.5c0-.146.052-.266.156-.36A.503.503 0 0 1 5.5 9ZM10 2v1h1V2h-1ZM5 2v1h1V2H5Z"/></svg>