<svg xmlns="http://www.w3.org/2000/svg" fill="currentColor" viewBox="0 0 16 16"><path d="M15.984 8a7.847 7.847 0 0 1-.624 3.134 8.008 8.008 0 0 1-1.7 2.527 7.961 7.961 0 0 1-2.541 1.7A7.882 7.882 0 0 1 8 15.983a7.848 7.848 0 0 1-5.66-2.339 8.198 8.198 0 0 1-1.7-2.542A7.77 7.77 0 0 1 .016 8c0-1.102.213-2.142.64-3.119A8.177 8.177 0 0 1 2.37 2.34 7.961 7.961 0 0 1 4.913.64 7.804 7.804 0 0 1 8 .017a7.88 7.88 0 0 1 3.119.624 7.961 7.961 0 0 1 2.542 1.7 7.961 7.961 0 0 1 1.7 2.541A7.88 7.88 0 0 1 15.983 8Zm-.998 0c0-.977-.182-1.887-.546-2.729a7.062 7.062 0 0 0-1.497-2.214 7.013 7.013 0 0 0-2.23-1.497A6.84 6.84 0 0 0 8 1.014c-.956 0-1.86.187-2.713.561a7.23 7.23 0 0 0-2.23 1.513A7.06 7.06 0 0 0 1.56 5.302 6.728 6.728 0 0 0 1.014 8a6.917 6.917 0 0 0 2.043 4.959 7.147 7.147 0 0 0 2.23 1.481A6.84 6.84 0 0 0 8 14.986a6.92 6.92 0 0 0 2.745-.546 6.96 6.96 0 0 0 2.214-1.481 6.96 6.96 0 0 0 1.481-2.214A6.918 6.918 0 0 0 14.986 8Zm-5.8-.218c-.105.062-.115.156-.032.28l2.776 2.776c.166.166.166.343 0 .53l-.5.53c-.166.084-.26.125-.28.125-.02 0-.114-.041-.28-.124L8.093 9.123c-.021-.042-.063-.063-.125-.063-.083 0-.135.021-.156.063l-2.744 2.776c-.125.083-.219.124-.281.124-.021 0-.115-.041-.28-.124l-.5-.53c-.166-.188-.166-.365 0-.53l2.745-2.777c.104-.104.104-.197 0-.28L4.008 5.006c-.166-.166-.166-.343 0-.53l.5-.53a.388.388 0 0 1 .28-.125c.104 0 .197.041.28.125L7.814 6.72a.212.212 0 0 0 .156.063c.042 0 .083-.021.125-.063l2.775-2.775a.388.388 0 0 1 .281-.125c.104 0 .198.041.28.125l.5.53c.187.166.187.343 0 .53L9.185 7.782Z"/></svg>