<svg xmlns="http://www.w3.org/2000/svg" fill="currentColor" viewBox="0 0 16 16"><path d="M15.476 5a.49.49 0 0 1 .437.25.483.483 0 0 1 .031.5l-.499 1a.516.516 0 0 1-.468.25h-3.278l-.406 2h3.184a.49.49 0 0 1 .437.25.483.483 0 0 1 .032.5l-.5 1a.489.489 0 0 1-.437.25h-3.153l-.78 3.625c-.042.25-.198.375-.468.375h-1a.476.476 0 0 1-.39-.172c-.093-.114-.12-.255-.078-.422L8.858 11H5.862l-.78 3.625c-.042.25-.198.375-.469.375h-.999a.476.476 0 0 1-.39-.172c-.094-.114-.12-.255-.078-.422L3.864 11H.524a.496.496 0 0 1-.437-.234.454.454 0 0 1-.032-.485l.5-1A.504.504 0 0 1 1.023 9h3.278l.406-2H1.523a.496.496 0 0 1-.437-.234.454.454 0 0 1-.032-.485l.5-1A.504.504 0 0 1 2.022 5h3.122l.78-3.594c.042-.27.198-.406.468-.406h1a.46.46 0 0 1 .39.188c.093.125.12.27.078.437L7.142 5h2.996l.78-3.594c.042-.27.198-.406.469-.406h.999a.46.46 0 0 1 .39.188c.094.125.12.27.078.437L12.136 5h3.34ZM9.701 7H6.705l-.406 2h2.996l.406-2Z"/></svg>