<svg xmlns="http://www.w3.org/2000/svg" fill="currentColor" viewBox="0 0 16 16"><path d="M8.531 8H14.5c.333 0 .5.167.5.5 0 .333-.167.5-.5.5H8.531a.478.478 0 0 1-.344-.156.478.478 0 0 1-.156-.344c0-.333.167-.5.5-.5Zm-.5 6.5c0-.333.167-.5.5-.5H14.5c.333 0 .5.167.5.5 0 .333-.167.5-.5.5H8.531a.478.478 0 0 1-.344-.156.478.478 0 0 1-.156-.344Zm.5-12.469H14.5c.333 0 .5.167.5.5 0 .334-.167.5-.5.5H8.531a.478.478 0 0 1-.344-.156.478.478 0 0 1-.156-.344c0-.333.167-.5.5-.5ZM1.125 14.875l.406-.188h.125c0-.02.01-.03.032-.03h.125c.02.02.052.03.093.03l.25.313c.021.02.031.042.031.063l.094.093c.104.021.167.037.188.047.02.01.01.016-.031.016.02.02.083.031.187.031h.125c.02-.02.063-.031.125-.031l.188-.125c.041-.042.062-.073.062-.094.02-.02.031-.052.031-.094.021-.02.031-.062.031-.125.021-.02.032-.052.032-.094V14.5c-.021 0-.031-.02-.031-.063 0-.041-.01-.072-.032-.093L3 14.188c-.042 0-.073-.01-.094-.032h-.094c-.02-.02-.083-.031-.187-.031-.02-.02-.115-.031-.281-.031V13.5c.146 0 .229-.01.25-.031.083 0 .135-.01.156-.031.042 0 .073-.01.094-.032h.062l.063-.062c.02 0 .041-.01.062-.031l.063-.063c.02-.02.031-.052.031-.094.02-.02.031-.052.031-.094v-.124c0-.126-.01-.198-.031-.22 0-.083-.031-.135-.094-.155-.02-.063-.062-.094-.125-.094-.02-.021-.094-.031-.219-.031H2.5c-.02.02-.036.03-.047.03-.01 0-.026.011-.047.032-.02 0-.041.01-.062.031l-.156.188c0 .02-.01.041-.032.062l-.062.125c0 .021-.021.052-.063.094-.02 0-.041.01-.062.031h-.25l-.469-.094c.02-.02.031-.072.031-.156 0-.062.01-.104.032-.125a1.21 1.21 0 0 1 .062-.156c.02-.042.042-.083.063-.125a.513.513 0 0 0 .062-.078.756.756 0 0 1 .094-.11.513.513 0 0 0 .062-.078A.756.756 0 0 1 1.75 12c.02-.02.042-.031.063-.031.02 0 .041-.01.062-.031.02-.021.036-.032.047-.032.01 0 .026-.01.047-.031.02-.02.041-.031.062-.031.021 0 .042-.01.063-.031.041 0 .073-.01.094-.032.02-.02.083-.031.187-.031.02-.02.042-.031.063-.031.02-.021.124-.031.312-.031.167 0 .26.01.281.03.021.022.063.032.125.032.063 0 .104.01.125.031.021.021.063.031.125.031l.094.094a.501.501 0 0 1 .188.125.558.558 0 0 1 .156.156l.094.188c.02.02.03.063.03.125.022.02.032.042.032.063 0 .041.01.072.031.093v.125c0 .104-.01.167-.031.188 0 .125-.01.198-.031.219-.021.02-.031.052-.031.093-.021.021-.032.037-.032.047 0 .01-.01.026-.031.047a.244.244 0 0 0-.047.063.245.245 0 0 1-.047.062l-.094.094a.969.969 0 0 0-.187.047c-.02.01-.01.015.031.015-.041.042-.083.063-.125.063.23.104.401.219.516.344.114.124.172.322.172.593 0 .188-.01.292-.032.313a.457.457 0 0 1-.093.281.464.464 0 0 1-.125.219l-.188.187a.519.519 0 0 1-.078.063l-.14.094a.847.847 0 0 1-.235.093 1.209 1.209 0 0 1-.265.063c-.084 0-.136.01-.157.031H2.5c-.02-.02-.073-.031-.156-.031H2.25c-.02-.021-.063-.031-.125-.031-.02-.021-.063-.032-.125-.032-.02-.02-.042-.031-.063-.031-.02 0-.041-.01-.062-.031-.02-.021-.036-.031-.047-.031-.01 0-.026-.01-.047-.032-.02-.02-.036-.031-.047-.031-.01 0-.026-.01-.046-.031a.559.559 0 0 1-.157-.156c-.041-.042-.062-.073-.062-.094l-.094-.094c-.02-.02-.031-.063-.031-.125-.084-.083-.125-.167-.125-.25a.245.245 0 0 1-.047-.063.245.245 0 0 0-.047-.062Zm0-5.125c0-.042.01-.073.031-.094 0-.02.021-.052.063-.094l1.406-1.437a.245.245 0 0 0 .047-.063.445.445 0 0 1 .078-.093l.063-.063c0-.02.015-.052.046-.093a.912.912 0 0 1 .079-.094c0 .041.005.052.015.031.01-.02.026-.083.047-.188.02-.02.031-.062.031-.125.021-.02.031-.072.031-.156.021-.02.032-.073.032-.156V7c-.021-.02-.031-.052-.031-.094-.021-.02-.032-.052-.032-.093L2.97 6.75c-.063-.063-.115-.094-.156-.094-.021-.02-.094-.031-.22-.031h-.187l-.062.063c-.021 0-.042.01-.063.03l-.062.063c-.042 0-.063.021-.063.063l-.031.031c0 .02-.01.042-.031.063 0 .041-.01.072-.031.093-.021.021-.032.042-.032.063l-.062.062c-.021.021-.037.032-.047.032-.01 0-.026.01-.047.03h-.219l-.468-.093a.97.97 0 0 1 .062-.281.679.679 0 0 1 .125-.25c.063-.146.156-.282.281-.407.021-.02.042-.03.063-.03.02 0 .041-.011.062-.032.021-.02.037-.031.047-.031.01 0 .026-.01.047-.032a.09.09 0 0 1 .063-.03c.02 0 .041-.011.062-.032.063 0 .104-.01.125-.031-.042 0-.042-.005 0-.016a5.47 5.47 0 0 1 .219-.047c.104 0 .166-.01.187-.031h.281c.021.02.063.031.126.031l.28.094c.042 0 .11.026.204.078a.758.758 0 0 1 .297.25c.02.031.041.057.062.078.021.042.042.078.063.11.02.03.041.067.062.109.021.02.031.052.031.094 0 .062.01.104.032.125v.5l-.031.031c0 .083-.01.135-.032.156 0-.041-.005-.041-.015 0-.01.042-.026.115-.047.219a.392.392 0 0 0-.094.156c-.02.042-.057.1-.11.172a1.39 1.39 0 0 1-.14.172L2.437 9.313H3.75c.063 0 .104.01.125.03.02 0 .063.032.125.095 0 .02.01.041.031.062v.625H1.125V9.75ZM1 1.062 2.313 0h.843v4.063h-1v-2.97l-.469.376c-.041.041-.072.062-.093.062l-.032.032h-.125c-.02-.021-.041-.032-.062-.032L1 1.063Z"/></svg>