<svg xmlns="http://www.w3.org/2000/svg" fill="currentColor" viewBox="0 0 16 16"><path d="M0 16v-3a4.016 4.016 0 0 1 2.438-3.688A3.88 3.88 0 0 1 4 9h1a2.893 2.893 0 0 1-2.125-.875A2.893 2.893 0 0 1 2 6c0-.438.089-.839.266-1.203.177-.365.411-.693.703-.984a.558.558 0 0 1-.156-.157l-.688-.937c-.188-.354-.177-.719.031-1.094.292-.417.709-.625 1.25-.625h3.156c.563 0 .99.208 1.282.625.041.083.073.156.093.219.021.062.042.114.063.156.02 0-.02.24-.125.719l-.688.937a.445.445 0 0 0-.078.094c-.01.02-.036.042-.078.063.292.291.526.62.703.984C7.911 5.16 8 5.563 8 6c0 .833-.292 1.542-.875 2.125A2.893 2.893 0 0 1 5 9h1a4.016 4.016 0 0 1 2.828 1.172A4.016 4.016 0 0 1 10 13v3H0Zm9-1v-2c0-.833-.292-1.542-.875-2.125A2.893 2.893 0 0 0 6 10H4c-.833 0-1.542.292-2.125.875A2.893 2.893 0 0 0 1 13v2h8Zm1-11V2h2V0h2v2h2v2h-2v2h-2V4h-2ZM5 8a1.92 1.92 0 0 0 1.406-.594A1.92 1.92 0 0 0 7 6c0-.375-.099-.719-.297-1.031a2.024 2.024 0 0 0-.766-.719H4.032a2.103 2.103 0 0 0-.734.719A1.889 1.889 0 0 0 3 6c0 .542.198 1.01.594 1.406A1.92 1.92 0 0 0 5 8Zm1 4v-1h1v1h1v1H7v1H6v-1H5v-1h1ZM3 2.25l.656.844c.042.104.177.156.406.156h1.875c.23 0 .365-.052.407-.156l.625-.844c.041-.063.02-.12-.063-.172A.646.646 0 0 0 6.563 2H3.405a.665.665 0 0 0-.328.078c-.094.052-.12.11-.078.172Z"/></svg>