<svg xmlns="http://www.w3.org/2000/svg" fill="currentColor" viewBox="0 0 16 16"><path d="M4.531 7c.084 0 .203.01.36.031.156.021.307.058.453.11.146.052.27.109.375.171.104.063.156.136.156.22 0 .083-.094.124-.281.124h-.157c-.437 0-.802.068-1.093.203a2.087 2.087 0 0 0-.719.532 2.29 2.29 0 0 0-.422.718c-.094.26-.15.506-.172.735 0 .104-.073.156-.219.156-.083 0-.145-.047-.187-.14a1.357 1.357 0 0 1-.094-.329 4.87 4.87 0 0 1-.062-.594c0-.5.177-.947.531-1.343C3.354 7.198 3.865 7 4.531 7ZM6.97 4.594c0-.667-.032-1.313-.094-1.938A9.754 9.754 0 0 0 6.469.72C6.448.698 6.437.646 6.437.563c0-.167.079-.303.235-.407A.862.862 0 0 1 7.156 0c.23 0 .412.182.547.547A5.8 5.8 0 0 1 8 1.828c.063.49.104.995.125 1.516.02.52.031.937.031 1.25 0 .062-.062.104-.187.125a2.57 2.57 0 0 1-.407.031c-.145 0-.28-.01-.406-.031-.125-.021-.187-.063-.187-.125Zm4 .031c.5 0 .99.078 1.469.234a4.02 4.02 0 0 1 1.296.704c.386.312.693.713.922 1.203.23.49.344 1.078.344 1.765 0 1.354-.219 2.505-.656 3.453-.438.948-.953 1.72-1.547 2.313-.594.594-1.198 1.026-1.813 1.297-.614.27-1.099.406-1.453.406-.375 0-.677-.042-.906-.125-.23-.083-.552-.125-.969-.125-.479 0-.864.042-1.156.125a3.284 3.284 0 0 1-.906.125c-.646 0-1.297-.219-1.953-.656a7.67 7.67 0 0 1-1.797-1.703 9.387 9.387 0 0 1-1.328-2.375A7.412 7.412 0 0 1 0 8.562C0 7.98.12 7.449.36 6.97c.239-.48.557-.89.952-1.235a4.633 4.633 0 0 1 1.344-.812c.5-.198 1.01-.297 1.531-.297.98 0 1.896.333 2.75 1a.872.872 0 0 0 .594.219c.209 0 .417-.073.625-.219a3.09 3.09 0 0 1 1.266-.766 5.057 5.057 0 0 1 1.547-.234ZM9.53 15c.23 0 .594-.11 1.094-.328.5-.219 1-.578 1.5-1.078.5-.5.938-1.162 1.313-1.985.374-.822.562-1.849.562-3.078 0-.541-.094-.995-.281-1.36a2.659 2.659 0 0 0-.719-.89 2.861 2.861 0 0 0-.969-.5 3.749 3.749 0 0 0-1.062-.156c-.313 0-.667.047-1.063.14-.396.094-.74.287-1.031.579l-.219.156c-.375.23-.75.344-1.125.344-.396 0-.781-.125-1.156-.375l-.063-.063c-.645-.52-1.354-.781-2.125-.781a3.2 3.2 0 0 0-1.14.219c-.386.146-.73.343-1.031.593-.302.25-.547.558-.735.922A2.591 2.591 0 0 0 1 8.563c0 .791.151 1.567.453 2.328a8.97 8.97 0 0 0 1.14 2.062c.46.615.954 1.11 1.485 1.485.531.374 1.037.562 1.516.562.104 0 .198-.005.281-.016a8.72 8.72 0 0 0 .313-.046 8.74 8.74 0 0 1 .609-.126c.24-.041.526-.062.86-.062a4.505 4.505 0 0 1 1.25.156c.25.063.458.094.624.094Zm.094-12.094c-.604-.125-.906-.396-.906-.812 0-.459.24-.839.719-1.14C9.916.65 10.541.5 11.312.5 12.146.5 13.043.333 14 0c-.167.354-.38.708-.64 1.063a5.23 5.23 0 0 1-.907.953 4.411 4.411 0 0 1-1.125.671c-.406.167-.828.25-1.265.25h-.25l-.188-.03Z"/></svg>