<svg xmlns="http://www.w3.org/2000/svg" fill="currentColor" viewBox="0 0 16 16"><path d="M1.996 14v-1h11.977v1h.998v1H.998v-1h.998Zm0-7 5.988-4 5.989 4H1.996ZM0 6.344c0-.125.052-.24.156-.344.686-.458 1.341-.885 1.965-1.281.624-.396 1.206-.771 1.746-1.125a23.89 23.89 0 0 1 1.264-.828c.426-.26.857-.537 1.294-.829.166-.104.327-.203.483-.296.156-.094.286-.183.39-.266l.312-.219c.167-.104.291-.156.374-.156a.51.51 0 0 1 .375.156l1.185.782c.416.27.842.541 1.279.812.436.27.862.552 1.278.844.541.354 1.123.729 1.747 1.125.624.396 1.29.823 1.996 1.281a.478.478 0 0 1 .156.344.853.853 0 0 1-.156.328.373.373 0 0 1-.312.172c-.104 0-.239-.052-.405-.157L7.984 2.25.874 6.688c-.146.125-.281.187-.406.187a.414.414 0 0 1-.328-.172.561.561 0 0 1-.14-.36ZM6.986 9h1.996v3H6.986V9Zm-4.99-1h.998v4h-.998V8Zm8.983 0h.998v4h-.998V8Zm2.994 0v4h-.998V8h.998Zm-9.98 0h.997v4h-.998V8Zm2.993-3c0 .292.094.531.281.719A.97.97 0 0 0 7.984 6a.97.97 0 0 0 .718-.281.974.974 0 0 0 .28-.719c0-.27-.093-.51-.28-.719A.97.97 0 0 0 7.984 4a.97.97 0 0 0-.717.281c-.187.209-.28.448-.28.719Z"/></svg>