<svg xmlns="http://www.w3.org/2000/svg" fill="currentColor" viewBox="0 0 16 16"><path d="m8 1.938-3-1H4l-3 .968V15h4v-3h2v3h1V1.937ZM2 3h2v2H2V3Zm0 3h2v2H2V6Zm0 3h2v2H2V9Zm0 3h2v2H2v-2ZM8.375 1c.417.167.625.48.625.938V16H0V1.937C0 1.48.208 1.167.625 1L4 0h1l3.375 1ZM5 3h2v2H5V3Zm0 3h2v2H5V6Zm0 3h2v2H5V9Zm7.844-2.844 2.875 2.594c.187.208.281.448.281.719 0 .25-.094.49-.281.719l-2.875 2.687a.477.477 0 0 1-.344.156.444.444 0 0 1-.36-.172.561.561 0 0 1-.14-.359c0-.125.052-.24.156-.344L14.5 10h-4c-.333 0-.5-.167-.5-.5 0-.333.167-.5.5-.5h4l-2.344-2.125A.511.511 0 0 1 12 6.5c0-.125.052-.24.156-.344A.478.478 0 0 1 12.5 6c.125 0 .24.052.344.156Z"/></svg>