<svg xmlns="http://www.w3.org/2000/svg" fill="currentColor" viewBox="0 0 16 16"><path d="M15.688 2.313c.208.188.312.407.312.658v.094l-.875 10.995a.897.897 0 0 1-.344.658c-.146.188-.364.282-.656.282H3.781c-.479 0-.802-.25-.969-.752L0 5.508a.49.49 0 0 1 .25-.438.694.694 0 0 1 .313-.063H3.25c.125 0 .24.052.344.157.083.083.156.188.219.313.083.167.135.282.156.345.02.041.031.083.031.125v.063h2l.781-3.29c.125-.48.448-.72.969-.72h7.188c.291 0 .541.104.75.313ZM13.656 14.06c.167 0 .25-.052.25-.156a.59.59 0 0 0-.031-.188l-2.25-6.39c-.104-.21-.26-.314-.469-.314H1.781l2.157 6.86c.041.126.114.188.218.188h9.5ZM14.97 3.535v-.063c0-.313-.167-.47-.5-.47h-6.5c-.25 0-.406.126-.469.376L7 6.01h4.781c.542 0 .865.23.969.689l1.594 5.356.625-8.52Z"/></svg>