<svg xmlns="http://www.w3.org/2000/svg" fill="currentColor" viewBox="0 0 16 16"><path d="M7.2 1.97a1.082 1.082 0 0 1-.32-.799c0-.32.106-.585.32-.798.237-.237.51-.355.817-.355.308 0 .58.118.818.355l6.826 6.81c.213.213.32.48.32.798 0 .32-.107.586-.32.799l-6.79 6.846c-.238.236-.51.354-.818.354-.308 0-.57-.118-.782-.354a1.01 1.01 0 0 1-.356-.78c0-.308.119-.58.356-.817l5.581-5.64c.26-.26.26-.532 0-.815L7.2 1.969Zm-6.862 0a1.082 1.082 0 0 1-.32-.799c0-.32.107-.585.32-.798.237-.237.51-.355.818-.355.308 0 .58.118.817.355L8.8 7.183c.214.213.32.48.32.798 0 .32-.106.586-.32.799l-6.79 6.846c-.237.236-.51.354-.818.354-.308 0-.569-.118-.782-.354a1.01 1.01 0 0 1-.355-.78c0-.308.118-.58.355-.817l5.582-5.64c.26-.26.26-.532 0-.815L.338 1.969Z"/></svg>