<svg xmlns="http://www.w3.org/2000/svg" fill="currentColor" viewBox="0 0 16 16"><path d="M0 4.333c0-.282.094-.515.281-.697A.99.99 0 0 1 1 3.364h6v.97H1v6.424l1.125-1.122A.88.88 0 0 1 2 9.182a.93.93 0 0 1 .281-.697A.99.99 0 0 1 3 8.212a.99.99 0 0 1 .719.273.929.929 0 0 1 .281.697c0 .222-.042.374-.125.454l1.656 1.606a.952.952 0 0 1 .469-.12L7.438 8.03A.874.874 0 0 1 7 7.242c0-.282.094-.515.281-.697A.99.99 0 0 1 8 6.273a.99.99 0 0 1 .719.272.929.929 0 0 1 .281.697c0 .243-.094.475-.281.697l1.219 3.182c.229 0 .427.05.593.152l1.625-1.515c.209-.202.406-.39.594-.561.188-.172.365-.338.531-.5l.5-.485c.125 0 .198.04.219.121v5.697a.929.929 0 0 1-.281.697A.99.99 0 0 1 13 15H1a.99.99 0 0 1-.719-.273A.929.929 0 0 1 0 14.03V4.333Zm1 9.697h12V9.636l-2.125 2c.083.081.125.233.125.455a.929.929 0 0 1-.281.697.99.99 0 0 1-.719.273.99.99 0 0 1-.719-.273A.929.929 0 0 1 9 12.09c0-.343.156-.616.469-.818L8.28 8.182c-.02.02-.114.03-.281.03h-.094L6.5 11.242c.333.202.5.485.5.849a.929.929 0 0 1-.281.697.99.99 0 0 1-.719.273.99.99 0 0 1-.719-.273A.929.929 0 0 1 5 12.09c0-.182.052-.354.156-.515L3.531 10a1.008 1.008 0 0 1-1.062 0L1 11.454v2.576ZM11.781 2.394 12.594 0l.812 2.394H16l-2.125 1.485.813 2.394-2.094-1.485-2.125 1.485.812-2.394-2.094-1.485h2.594Z"/></svg>