<svg xmlns="http://www.w3.org/2000/svg" fill="currentColor" viewBox="0 0 16 16"><path d="M0 16v-1.067c0-.6.111-1.155.334-1.666a4.293 4.293 0 0 1 3.942-2.6h1.068c-.89 0-1.647-.311-2.27-.934a3.083 3.083 0 0 1-.936-2.266c0-.89.312-1.645.935-2.267.624-.622 1.38-.933 2.271-.933s1.648.31 2.272.933c.623.622.935 1.378.935 2.267S8.24 9.11 7.616 9.733c-.624.623-1.38.934-2.272.934h1.07a4.15 4.15 0 0 1 1.67.333 4.345 4.345 0 0 1 2.27 2.267c.224.51.335 1.066.335 1.666V16H0Zm10.923-9.833 1.27-.134c.044.311.133.534.266.667.09.156.279.289.568.4v-2c-.757-.2-1.247-.478-1.47-.833-.29-.356-.434-.79-.434-1.3 0-.578.178-1.034.535-1.367.356-.333.812-.533 1.37-.6V0h.734v1c.579.111 1.024.289 1.336.533.312.311.512.7.601 1.167l-1.236.133c-.066-.355-.3-.61-.701-.766v1.9c.913.222 1.48.489 1.704.8.289.289.434.71.434 1.266 0 .667-.195 1.178-.585 1.534-.39.355-.907.577-1.553.666v.834h-.735v-.8c-.646-.111-1.13-.328-1.453-.65-.323-.323-.54-.806-.651-1.45Zm-9.854 8.766H9.62c0-.889-.312-1.644-.935-2.266-.624-.623-1.38-.934-2.272-.934H4.276c-.424 0-.83.084-1.22.25-.39.167-.735.395-1.035.684a3.08 3.08 0 0 0-.702 1.016 3.14 3.14 0 0 0-.25 1.25Zm2.138-7.466c0 .577.211 1.077.634 1.5.423.422.924.633 1.503.633a2.04 2.04 0 0 0 1.52-.633c.412-.423.618-.923.618-1.5 0-.6-.206-1.106-.618-1.517a2.068 2.068 0 0 0-1.52-.617c-.579 0-1.08.206-1.503.617a2.032 2.032 0 0 0-.634 1.517Zm9.085 7.466h3.174c.356 0 .534.178.534.534 0 .133-.05.255-.15.366a.494.494 0 0 1-.384.167h-3.174a.512.512 0 0 1-.367-.167.51.51 0 0 1-.167-.366c0-.156.056-.284.167-.384.111-.1.234-.15.367-.15Zm0-2.133h3.174c.356 0 .534.178.534.533 0 .134-.05.256-.15.367a.494.494 0 0 1-.384.167h-3.174a.512.512 0 0 1-.367-.167.51.51 0 0 1-.167-.367c0-.155.056-.283.167-.383.111-.1.234-.15.367-.15Zm1.47-5.633c.312-.045.546-.14.701-.284.156-.144.234-.372.234-.683a.998.998 0 0 0-.167-.533c-.111-.134-.367-.256-.768-.367v1.867Zm-1.303-3.8.268.2c.089.066.189.122.3.166V2.067c-.267.089-.445.2-.534.333a.843.843 0 0 0-.167.5.82.82 0 0 0 .133.467Z"/></svg>