<svg xmlns="http://www.w3.org/2000/svg" fill="currentColor" viewBox="0 0 16 16"><path d="M1 12c0-.27.099-.505.297-.703A.961.961 0 0 1 2 11h1v-1c0-.354.094-.688.281-1A1.98 1.98 0 0 1 4 8.281 1.809 1.809 0 0 1 5 8h2.5V6H5a.973.973 0 0 1-.719-.281A.973.973 0 0 1 4 5V2c0-.27.094-.505.281-.703A.947.947 0 0 1 5 1h6c.292 0 .531.099.719.297A.988.988 0 0 1 12 2v3a.973.973 0 0 1-.281.719A.974.974 0 0 1 11 6H8.5v2H11c.396 0 .73.094 1 .281.292.167.531.406.719.719.187.313.281.646.281 1v1h1c.292 0 .531.099.719.297A.988.988 0 0 1 15 12v2a.974.974 0 0 1-.281.719A.974.974 0 0 1 14 15h-4a.988.988 0 0 1-.703-.281A.947.947 0 0 1 9 14v-2c0-.27.099-.505.297-.703A.961.961 0 0 1 10 11h2v-1a.973.973 0 0 0-.281-.719A.974.974 0 0 0 11 9H5a.973.973 0 0 0-.719.281A.973.973 0 0 0 4 10v1h2c.292 0 .531.099.719.297A.988.988 0 0 1 7 12v2a.974.974 0 0 1-.281.719A.973.973 0 0 1 6 15H2a.988.988 0 0 1-.703-.281A.947.947 0 0 1 1 14v-2Zm10-7V2H5v3h6Zm3 9v-2h-4v2h4ZM2 12v2h4v-2H2Z"/></svg>