<svg xmlns="http://www.w3.org/2000/svg" fill="currentColor" viewBox="0 0 16 16"><path d="M0 15v-4c0-.27.094-.505.281-.703A.947.947 0 0 1 1 10h3c0 .667.333 1 1 1h6.031c.646 0 .969-.333.969-1h3c.27 0 .505.099.703.297A.961.961 0 0 1 16 11v4a.947.947 0 0 1-.297.719A.988.988 0 0 1 15 16H1a.973.973 0 0 1-.719-.281A.974.974 0 0 1 0 15Zm3.219-4H1v4h14v-4h-2.219c-.354.667-.937 1-1.75 1H5c-.833 0-1.427-.333-1.781-1Zm.937-7.531L7.344.313C7.552.125 7.78.02 8.03 0c.271.02.51.125.719.313l3.188 3.156c.25.229.25.469 0 .719-.167.104-.292.156-.376.156-.062 0-.177-.052-.343-.157L8.5 1.47v7.06c0 .334-.167.5-.5.5-.333 0-.5-.166-.5-.5v-7L4.844 4.188a.478.478 0 0 1-.344.156c-.063 0-.177-.052-.344-.157-.25-.229-.25-.468 0-.718ZM5 13.53c0-.146.047-.27.14-.375A.462.462 0 0 1 5.5 13h5c.125 0 .24.052.344.156A.478.478 0 0 1 11 13.5a.462.462 0 0 1-.156.36.503.503 0 0 1-.344.14h-5c-.333 0-.5-.156-.5-.469Z"/></svg>