<svg xmlns="http://www.w3.org/2000/svg" fill="currentColor" viewBox="0 0 16 16"><path d="M11.496 10.313c.354.333.698.666 1.032 1l1.001 1c.313.312.464.656.454 1.03-.01.376-.162.72-.454 1.032a5.38 5.38 0 0 0-.688.688c-.313.354-.662.598-1.048.734a3.61 3.61 0 0 1-1.204.203h-.25c-.084 0-.178-.01-.282-.031a6.996 6.996 0 0 1-2.127-.578 13.648 13.648 0 0 1-1.94-1.079 16.878 16.878 0 0 1-3.002-2.609 14.29 14.29 0 0 1-2.22-3.297 7.6 7.6 0 0 1-.501-1.265 6.954 6.954 0 0 1-.25-1.329 4.22 4.22 0 0 1 .11-1.421c.114-.448.38-.85.797-1.204a3.71 3.71 0 0 0 .36-.343c.114-.125.281-.297.5-.516C2.003 2.11 2.3 2 2.675 2c.313 0 .626.135.939.406L4.677 3.47c.355.354.71.719 1.064 1.094.292.291.427.614.406.968-.02.354-.177.677-.469.969-.188.208-.375.406-.563.594l-.594.593a14.2 14.2 0 0 0 3.784 3.782c.397-.375.782-.76 1.158-1.156.354-.313.698-.47 1.032-.47.375 0 .709.157 1 .47Zm1.314 3.343c.208-.208.208-.416 0-.625A47.754 47.754 0 0 0 11.809 12l-1.001-1a.729.729 0 0 0-.141-.11.329.329 0 0 0-.172-.046c-.125 0-.23.062-.313.187l-1.751 1.75-.689-.469a20.286 20.286 0 0 1-2.205-1.874 16.365 16.365 0 0 1-1.86-2.188l-.47-.688.97-.968c.146-.125.281-.255.406-.39.125-.136.261-.266.407-.391.188-.209.198-.396.031-.563a27.546 27.546 0 0 0-1.048-1.11 48.155 48.155 0 0 0-1.047-1.015C2.8 3.042 2.717 3 2.676 3c-.126 0-.23.063-.313.188a1.175 1.175 0 0 1-.126.109 1.17 1.17 0 0 0-.125.11 6.398 6.398 0 0 1-.531.53c-.23.23-.391.485-.485.766-.094.281-.12.63-.078 1.047.062.667.281 1.406.656 2.219 1.064 2.187 2.69 4.02 4.88 5.5.667.458 1.293.807 1.877 1.047.583.24 1.167.4 1.751.484h.407c.604 0 1.105-.198 1.501-.594.084-.104.162-.198.235-.281a2.07 2.07 0 0 1 .266-.25l.219-.219Zm2.909-9.906c.187.208.281.448.281.719 0 .27-.094.51-.281.718L12.84 7.876a.479.479 0 0 1-.344.156.479.479 0 0 1-.344-.156.494.494 0 0 1-.157-.36c0-.135.053-.255.157-.359L14.499 5H8.524c-.333 0-.5-.167-.5-.5 0-.333.167-.5.5-.5H14.5l-2.346-2.125a.494.494 0 0 1-.157-.36c0-.135.053-.255.157-.359A.479.479 0 0 1 12.497 1c.125 0 .24.052.344.156l2.878 2.594Z"/></svg>