<svg xmlns="http://www.w3.org/2000/svg" fill="currentColor" viewBox="0 0 16 16"><path d="M8 0a7.91 7.91 0 0 1 3.125.624c.98.416 1.828.987 2.547 1.715a8.198 8.198 0 0 1 1.703 2.542A7.75 7.75 0 0 1 16 7.984a7.869 7.869 0 0 1-.625 3.12 8.15 8.15 0 0 1-1.703 2.557 7.853 7.853 0 0 1-2.547 1.715c-.98.416-2.02.624-3.125.624a7.8 7.8 0 0 1-3.11-.624 8.017 8.017 0 0 1-4.266-4.273A7.87 7.87 0 0 1 0 7.984a7.75 7.75 0 0 1 .625-3.103A8.063 8.063 0 0 1 4.891.624 7.798 7.798 0 0 1 8 0Zm0 15.002c.958 0 1.865-.182 2.719-.546a6.901 6.901 0 0 0 2.234-1.512 7.251 7.251 0 0 0 1.5-2.23A6.794 6.794 0 0 0 15 7.983c0-.956-.182-1.855-.547-2.697a7.06 7.06 0 0 0-1.5-2.215 7.027 7.027 0 0 0-2.234-1.497A6.865 6.865 0 0 0 8 1.029c-.958 0-1.865.182-2.719.546a7.027 7.027 0 0 0-2.234 1.497 7.06 7.06 0 0 0-1.5 2.215A6.717 6.717 0 0 0 1 7.984c0 .978.182 1.887.547 2.73a7.25 7.25 0 0 0 1.5 2.23 6.901 6.901 0 0 0 2.234 1.512A6.86 6.86 0 0 0 8 15.002ZM8 3.025c.688 0 1.339.13 1.953.39.615.26 1.146.614 1.594 1.06.448.448.802.973 1.062 1.576.26.603.391 1.247.391 1.933 0 .687-.13 1.336-.39 1.95a5.146 5.146 0 0 1-1.063 1.606 4.86 4.86 0 0 1-1.594 1.076c-.614.26-1.265.39-1.953.39a4.85 4.85 0 0 1-1.938-.39A5.071 5.071 0 0 1 4.47 11.54 5.013 5.013 0 0 1 3 7.984a4.878 4.878 0 0 1 1.469-3.509c.458-.446.99-.8 1.593-1.06A4.85 4.85 0 0 1 8 3.025Z"/></svg>