<svg xmlns="http://www.w3.org/2000/svg" fill="currentColor" viewBox="0 0 16 16"><path d="M0 7c0-.27.094-.505.281-.703A.947.947 0 0 1 1 6h2c.27 0 .505.099.703.297A.961.961 0 0 1 4 7v.5h2V7c0-.52.24-.844.719-.969L5.344 4H3a.973.973 0 0 1-.719-.281A.973.973 0 0 1 2 3V1c0-.27.094-.505.281-.703A.947.947 0 0 1 3 0h2c.27 0 .505.099.703.297A.961.961 0 0 1 6 1v2c0 .23-.094.458-.281.688L7.28 6H9c.146 0 .23.01.25.031l.938-1.468A.914.914 0 0 1 10 4V2c0-.27.094-.505.281-.703A.947.947 0 0 1 11 1h2c.27 0 .505.099.703.297A.961.961 0 0 1 14 2v2a.947.947 0 0 1-.297.719A.988.988 0 0 1 13 5h-2a.967.967 0 0 1-.438-.094l-.874 1.375A.988.988 0 0 1 10 7v.5h2V7c0-.27.094-.505.281-.703A.947.947 0 0 1 13 6h2c.27 0 .505.099.703.297A.961.961 0 0 1 16 7v2a.947.947 0 0 1-.297.719A.988.988 0 0 1 15 10h-2a.974.974 0 0 1-.719-.281A.973.973 0 0 1 12 9V8h-2v1c0 .292-.094.52-.281.688l.906 1.406A.832.832 0 0 1 11 11h2c.27 0 .505.099.703.297A.961.961 0 0 1 14 12v2a.947.947 0 0 1-.297.719A.988.988 0 0 1 13 15h-2a.974.974 0 0 1-.719-.281A.974.974 0 0 1 10 14v-2c0-.208.073-.417.219-.625L9.313 10H7.25l-1.5 2.344c.167.229.25.448.25.656v2a.974.974 0 0 1-.281.719A.973.973 0 0 1 5 16H3a.973.973 0 0 1-.719-.281A.974.974 0 0 1 2 15v-2c0-.438.167-.73.5-.875A.99.99 0 0 1 3 12h2c.02 0 .042.01.063.031.104 0 .187.01.25.031L6.688 9.97C6.229 9.823 6 9.5 6 9V8H4v1a.947.947 0 0 1-.297.719A.988.988 0 0 1 3 10H1a.973.973 0 0 1-.719-.281A.973.973 0 0 1 0 9V7Zm1 2h2V7H1v2Zm12 0h2V7h-2v2Zm-2-7v2h2V2h-2Zm2 12v-2h-2v2h2ZM7 7v2h2V7H7Zm-4 8h2v-2H3v2ZM5 1H3v2h2V1Z"/></svg>