<svg xmlns="http://www.w3.org/2000/svg" fill="currentColor" viewBox="0 0 16 16"><path d="M15 14c.292 0 .531.094.719.281A.974.974 0 0 1 16 15c0 .27-.094.505-.281.703A.947.947 0 0 1 15 16H1a.961.961 0 0 1-.703-.297A.961.961 0 0 1 0 15c0-.292.099-.531.297-.719A.988.988 0 0 1 1 14h14Zm0-7c.292 0 .531.094.719.281A.973.973 0 0 1 16 8c0 .27-.094.505-.281.703A.947.947 0 0 1 15 9H1a.961.961 0 0 1-.703-.297A.961.961 0 0 1 0 8c0-.292.099-.531.297-.719A.988.988 0 0 1 1 7h14ZM1 2a.961.961 0 0 1-.703-.297A.961.961 0 0 1 0 1C0 .708.099.469.297.281A.988.988 0 0 1 1 0h14c.292 0 .531.094.719.281A.973.973 0 0 1 16 1c0 .27-.094.505-.281.703A.947.947 0 0 1 15 2H1Z"/></svg>