<svg xmlns="http://www.w3.org/2000/svg" fill="currentColor" viewBox="0 0 16 16"><path d="M.016 7.024c0-.978.188-1.892.565-2.742a6.974 6.974 0 0 1 1.56-2.229A7.352 7.352 0 0 1 7.262.015c1.02 0 1.973.18 2.86.543a7.31 7.31 0 0 1 2.323 1.495 6.973 6.973 0 0 1 1.56 2.229c.377.85.565 1.764.565 2.742h-1.192c0-.802-.163-1.554-.49-2.258a6.261 6.261 0 0 0-1.314-1.862 5.994 5.994 0 0 0-4.25-1.716c-.836 0-1.621.147-2.355.44a6.04 6.04 0 0 0-1.957 1.261c-.407.41-.754.875-1.04 1.393a6.026 6.026 0 0 0-.611 1.598 5.552 5.552 0 0 0-.107 1.701c.051.587.199 1.154.443 1.701.47 1.036 1.203 1.887 2.202 2.552.999.664 2.12.997 3.363.997v1.173a7.134 7.134 0 0 1-2.813-.558 7.71 7.71 0 0 1-2.308-1.495A6.807 6.807 0 0 1 .58 9.737a6.617 6.617 0 0 1-.565-2.713Zm4.8 1.554 1.346-.146c.02.136.056.259.107.366.05.108.107.21.168.308.204.235.387.372.55.41V7.494c-.713-.215-1.202-.498-1.467-.85-.327-.294-.49-.743-.49-1.35 0-.547.174-.987.52-1.319.306-.352.785-.557 1.437-.616V2.83h.673v.528c.57.059.999.225 1.284.499.347.273.55.674.612 1.202l-1.254.147c-.061-.372-.275-.626-.642-.763V6.35c.408.118.75.235 1.024.352.275.118.495.264.658.44.305.372.458.802.458 1.29 0 .626-.198 1.13-.596 1.51-.397.382-.912.622-1.544.72v.997h-.673v-.939C5.723 10.543 5 9.83 4.817 8.58Zm4.8 2.698L11.3 12.86l3.638-4.194 1.04 1.056-4.526 5.25-2.782-2.61.948-1.086ZM7.66 9.605c.285-.059.5-.176.642-.352l.184-.323.091-.293c0-.196-.081-.391-.244-.587-.143-.176-.367-.293-.673-.352v1.907ZM6.315 5.499l.122.235c.122.136.306.254.55.352V4.414c-.244.078-.418.186-.52.323-.244.273-.295.527-.152.762Z"/></svg>