<svg xmlns="http://www.w3.org/2000/svg" fill="currentColor" viewBox="0 0 16 16"><path d="M11.71 7.906a.423.423 0 0 1 .126.313c0 .166-.053.291-.157.375l-5.918 5.344a.466.466 0 0 1-.344.124.513.513 0 0 1-.376-.156L.125 8.47A.633.633 0 0 1 0 8.125c0-.146.063-.26.188-.344l5.354-4.843c.063-.042.094-.094.094-.157a.479.479 0 0 0-.063-.187L3.883.75A.479.479 0 0 1 3.82.563c0-.084.031-.136.094-.157L4.29.062C4.31.021 4.363 0 4.446 0c.084 0 .146.02.188.063l7.076 7.843Zm-1.064.282L6.419 3.5 1.22 8.188h9.425Zm4.164 3.093c.397.73.694 1.313.893 1.75.198.438.297.771.297 1 0 .542-.193 1.005-.58 1.39-.385.386-.85.579-1.393.579a1.901 1.901 0 0 1-1.393-.578 1.894 1.894 0 0 1-.58-1.39c0-.355.126-.792.377-1.313.25-.521.521-1 .814-1.438.292-.479.553-.719.782-.719.147 0 .287.084.423.25.136.167.256.323.36.47Z"/></svg>