<svg xmlns="http://www.w3.org/2000/svg" fill="currentColor" viewBox="0 0 16 16"><path d="M15.468 1c.166 0 .307.077.421.232.114.155.14.315.078.48L11.29 14.66c-.062.227-.229.341-.499.341a.465.465 0 0 1-.343-.124l-3.617-3.283-2.182 1.92c-.187.165-.385.191-.593.078-.208-.114-.301-.284-.28-.511l.343-3.934L.19 5.615C.024 5.471-.033 5.3.019 5.104c.052-.196.192-.325.42-.387L15.343 1.03c.021-.02.063-.031.125-.031ZM4.275 7.876l10.133-5.544-12.784 3.16 2.65 2.384Zm2.213 3.438L5.21 10.168l-.904 2.819 2.182-1.673Zm8.107-8.951L5.71 9.177l4.864 4.398 4.022-11.212Z"/></svg>