<svg xmlns="http://www.w3.org/2000/svg" fill="currentColor" viewBox="0 0 16 16"><path d="M3.012 4.008c0-.561.103-1.081.311-1.56a4.057 4.057 0 0 1 2.12-2.12 3.866 3.866 0 0 1 1.56-.312h1.995a4.006 4.006 0 0 1 3.68 2.433c.207.478.31.998.31 1.559v6.986c0 .27-.093.504-.28.702a.944.944 0 0 1-.717.296H4.009a.944.944 0 0 1-.717-.296.986.986 0 0 1-.28-.702V4.008Zm.997 6.986h7.982V4.008c0-.832-.291-1.539-.873-2.12a2.886 2.886 0 0 0-2.12-.874H7.002c-.831 0-1.538.291-2.12.873a2.888 2.888 0 0 0-.873 2.121v6.986Zm.998-6.986c0-.561.197-1.034.592-1.419a1.943 1.943 0 0 1 1.403-.577h1.996c.54 0 1.008.192 1.403.577.395.385.592.858.592 1.419v2.994H5.007V4.008Zm.748 2.246h4.49V4.008c0-.353-.12-.65-.359-.889a1.207 1.207 0 0 0-.888-.359H7.002c-.353 0-.65.12-.888.36-.24.238-.359.535-.359.888v2.246Zm-1.746 8.7h7.95l.687 1.03H3.355l.654-1.03Zm.655-.997.655-.998h5.3l.686.998H4.664ZM6.004 8c.292 0 .53.094.718.28.187.188.28.427.28.718 0 .27-.093.504-.28.702a.944.944 0 0 1-.717.296.944.944 0 0 1-.717-.296.986.986 0 0 1-.281-.702c0-.291.094-.53.28-.717A.97.97 0 0 1 6.006 8Zm3.992 0c.29 0 .53.094.717.28.187.188.28.427.28.718 0 .27-.093.504-.28.702a.944.944 0 0 1-.717.296.944.944 0 0 1-.718-.296.986.986 0 0 1-.28-.702.97.97 0 0 1 .28-.717A.971.971 0 0 1 9.996 8Zm1.995 4.99c.312 0 .603-.073.873-.218l2.12 3.212h-1.153l-1.965-2.994h.125ZM1.016 15.984l2.151-3.181c.25.125.53.187.842.187h.156L2.17 15.984H1.016Z"/></svg>