<svg xmlns="http://www.w3.org/2000/svg" fill="currentColor" viewBox="0 0 16 16"><path d="M5.989 7.002a.97.97 0 0 1 .28-.717.971.971 0 0 1 .717-.281h6.984c.27 0 .504.094.702.28a.945.945 0 0 1 .296.718v7.984a.96.96 0 0 1-.296.702.959.959 0 0 1-.702.296H6.986a.944.944 0 0 1-.717-.296.986.986 0 0 1-.28-.702V7.002Zm.997 7.984h6.984V7.002H6.986v7.984ZM1 3.01c0-.291.099-.53.296-.717.198-.187.442-.281.733-.281h2.027c.228-.582.623-.915 1.184-.998.167-.291.406-.53.717-.717a1.966 1.966 0 0 1 1.03-.281c.353 0 .685.094.997.28.312.188.55.427.717.718.561.083.956.416 1.185.998h2.089c.27 0 .499.094.686.28.187.188.28.427.28.718v1.996h-.966V3.01h-2.12a3.17 3.17 0 0 1-.39.686c-.156.208-.39.312-.701.312H5.178c-.312 0-.546-.104-.702-.312a3.171 3.171 0 0 1-.39-.686H2.03v11.976h2.96v.998H2.029a.995.995 0 0 1-.733-.296.96.96 0 0 1-.296-.702V3.01Zm4.459 0h2.993a.46.46 0 0 0 .358-.156.502.502 0 0 0 .14-.343c0-.333-.166-.499-.498-.499h-.468a.945.945 0 0 0-.296-.717.986.986 0 0 0-.702-.281.971.971 0 0 0-.717.28.972.972 0 0 0-.28.718h-.53a.502.502 0 0 0-.343.14.461.461 0 0 0-.156.359c0 .125.052.24.156.343a.477.477 0 0 0 .343.156Zm3.024 6.986h3.99c.333 0 .5.166.5.499 0 .125-.047.24-.14.343a.46.46 0 0 1-.36.156h-3.99a.476.476 0 0 1-.343-.156.477.477 0 0 1-.156-.343.46.46 0 0 1 .156-.359.502.502 0 0 1 .343-.14Zm0 1.965h3.99c.333 0 .5.166.5.499a.504.504 0 0 1-.14.343.46.46 0 0 1-.36.156h-3.99a.477.477 0 0 1-.343-.156.477.477 0 0 1-.156-.343c0-.146.052-.265.156-.359a.502.502 0 0 1 .343-.14Z"/></svg>