<svg xmlns="http://www.w3.org/2000/svg" fill="currentColor" viewBox="0 0 16 16"><path d="M.031 8.903h1.065c.125.845.391 1.642.798 2.392.407.75.914 1.394 1.519 1.933.605.538 1.3.966 2.082 1.283a6.572 6.572 0 0 0 2.49.475 6.78 6.78 0 0 0 2.74-.554 7.086 7.086 0 0 0 2.222-1.521 7.13 7.13 0 0 0 1.503-2.265 7.019 7.019 0 0 0 .548-2.757c0-.824-.13-1.605-.391-2.344a7.297 7.297 0 0 0-1.08-2.012 7.145 7.145 0 0 0-1.629-1.553 6.333 6.333 0 0 0-2.066-.934V0c.876.211 1.696.56 2.458 1.046a7.856 7.856 0 0 1 1.957 1.758c.542.686.97 1.463 1.283 2.329.313.866.47 1.784.47 2.756 0 1.12-.209 2.17-.626 3.153a8.335 8.335 0 0 1-1.707 2.582 7.853 7.853 0 0 1-2.551 1.742A7.832 7.832 0 0 1 7.984 16a7.489 7.489 0 0 1-2.88-.555 8.277 8.277 0 0 1-4.18-3.754A7.86 7.86 0 0 1 .03 8.903Zm.407-7.192c.167-.021.298.016.392.11a.627.627 0 0 1 .172.365v1.806a8.526 8.526 0 0 1 2.082-2.487A7.785 7.785 0 0 1 5.98.032v1.077a6.97 6.97 0 0 0-2.504 1.394 6.839 6.839 0 0 0-1.723 2.281l1.91-.158a.357.357 0 0 1 .33.11.627.627 0 0 1 .171.365c0 .338-.146.507-.438.507l-2.63.253C.449 5.861.083 5.534 0 4.88V2.218a.55.55 0 0 1 .125-.349.384.384 0 0 1 .313-.158Zm12.055 7.192h-5.51V4.341c0-.338.166-.507.5-.507.334 0 .501.169.501.507v3.548h4.51c.333 0 .5.159.5.475a.552.552 0 0 1-.14.38.46.46 0 0 1-.36.159Z"/></svg>