<svg xmlns="http://www.w3.org/2000/svg" fill="currentColor" viewBox="0 0 16 16"><path d="M0 15.002V1.029C0 .74.094.494.281.296A.948.948 0 0 1 1 0h8v1.03H1v13.972h10V8.016h1v6.986c0 .27-.094.504-.281.702A.947.947 0 0 1 11 16H1a.947.947 0 0 1-.719-.296.985.985 0 0 1-.281-.702Zm3.375-5.084 1.281-.156c.063.291.188.551.375.78.188.229.386.374.594.437V8.733c-.667-.25-1.203-.593-1.61-1.03-.406-.436-.609-.904-.609-1.403s.203-.998.61-1.497c.406-.499.942-.79 1.609-.873v-.624h.781v.624c1.209.125 1.938.78 2.188 1.965l-1.125.187c-.084-.52-.438-.832-1.063-.936v2.37c.875.188 1.49.515 1.844.983.354.468.531.91.531 1.326 0 .665-.213 1.226-.64 1.684-.427.457-1.006.717-1.735.78v1.029h-.781v-.998c-.542-.021-1.031-.229-1.469-.624-.437-.395-.698-.988-.781-1.778Zm5.906-6.55 1-.966 1.563 1.559L15 0l1 1.03-4.125 4.958-2.594-2.62Zm-2.875 7.766a1.54 1.54 0 0 0 .735-.452c.198-.218.296-.452.296-.701 0-.541-.343-.905-1.03-1.092v2.245Zm-.781-4.023V5.115c-.23.104-.417.25-.563.437a.95.95 0 0 0-.218.592c0 .437.26.76.781.967Z"/></svg>