<svg xmlns="http://www.w3.org/2000/svg" fill="currentColor" viewBox="0 0 16 16"><path d="M3 0C2.167 0 1.458.292.875.875A2.893 2.893 0 0 0 0 3h1c0-.542.193-1.01.578-1.406C1.964 1.198 2.438 1 3 1h1V0H3ZM0 13c0 .833.292 1.542.875 2.125A2.893 2.893 0 0 0 3 16h1v-1H3a1.907 1.907 0 0 1-1.422-.594A1.948 1.948 0 0 1 1 13H0Zm12 2v1h1c.417 0 .802-.078 1.156-.234.354-.157.672-.37.953-.641.282-.27.5-.588.657-.953.156-.365.234-.755.234-1.172h-1a1.92 1.92 0 0 1-.594 1.406A1.922 1.922 0 0 1 13 15h-1Zm1-14c.542 0 1.01.198 1.406.594.396.396.594.864.594 1.406h1c0-.417-.078-.807-.234-1.172a2.888 2.888 0 0 0-.657-.953 3.265 3.265 0 0 0-.953-.64A2.833 2.833 0 0 0 13 0h-1v1h1Zm2.5 4c.333 0 .5.167.5.5 0 .333-.167.5-.5.5h-2.656v1.375h1.875c.333 0 .5.167.5.5 0 .333-.167.5-.5.5h-1.875v1.875c0 .125-.047.24-.14.344a.462.462 0 0 1-.36.156.462.462 0 0 1-.36-.156.503.503 0 0 1-.14-.344V5.5c0-.333.166-.5.5-.5H15.5ZM4.156 7.094c0 .562-.203 1.047-.61 1.453-.405.406-.89.61-1.452.61H1v1.093c0 .125-.047.24-.14.344a.462.462 0 0 1-.36.156.462.462 0 0 1-.36-.156.503.503 0 0 1-.14-.344V5.5c0-.333.167-.5.5-.5h1.594c.562 0 1.047.203 1.453.61.406.406.61.9.61 1.484ZM1 8.156h1.094c.291 0 .541-.104.75-.312.208-.209.312-.459.312-.75 0-.292-.104-.547-.312-.766A1 1 0 0 0 2.094 6H1v2.156ZM7.906 5a1.98 1.98 0 0 1 1.453.61c.407.406.61.9.61 1.484v1.562a2.02 2.02 0 0 1-.61 1.485c-.406.406-.89.609-1.453.609H6.313a.462.462 0 0 1-.36-.156.503.503 0 0 1-.14-.344V5.5c0-.333.166-.5.5-.5h1.593ZM8.97 7.094c0-.292-.104-.547-.313-.766A1 1 0 0 0 7.906 6H6.813v3.75h1.093a1 1 0 0 0 .75-.328c.209-.219.313-.474.313-.766V7.094Z"/></svg>