<svg xmlns="http://www.w3.org/2000/svg" fill="currentColor" viewBox="0 0 16 16"><path d="M15.461 6.982c.333 0 .499.167.499.501 0 .334-.166.501-.499.501h-2.65v1.378h1.871c.332 0 .499.167.499.501 0 .334-.166.501-.499.501h-1.87v1.879c0 .334-.167.5-.5.5a.5.5 0 0 1-.342-.14.464.464 0 0 1-.156-.36v-4.76c0-.146.052-.266.156-.36a.5.5 0 0 1 .343-.14h3.148ZM4.146 9.08a2.02 2.02 0 0 1-.592 1.456 1.96 1.96 0 0 1-1.465.61H.998v1.097c0 .334-.167.5-.5.5a.5.5 0 0 1-.342-.14.464.464 0 0 1-.156-.36v-4.76c0-.146.052-.266.156-.36a.5.5 0 0 1 .343-.14h1.59c.581 0 1.07.203 1.465.61.394.407.592.903.592 1.487ZM.998 10.145h1.09c.291 0 .54-.105.749-.313.207-.21.311-.46.311-.752a1.08 1.08 0 0 0-.311-.767.995.995 0 0 0-.748-.329H.998v2.16Zm6.888-3.163c.582 0 1.07.204 1.466.611.394.407.592.903.592 1.487v1.566a2.06 2.06 0 0 1-.592 1.487 1.96 1.96 0 0 1-1.466.61h-1.59a.5.5 0 0 1-.342-.14.464.464 0 0 1-.156-.36v-4.76c0-.146.052-.266.156-.36a.5.5 0 0 1 .343-.14h1.59Zm1.06 2.098a1.08 1.08 0 0 0-.311-.767.995.995 0 0 0-.749-.329h-1.09v3.758h1.09c.291 0 .54-.11.749-.33a1.08 1.08 0 0 0 .311-.766V9.08Zm4.115 4.79h.998v1.128a.978.978 0 0 1-.281.72.969.969 0 0 1-.717.282H3.086a.968.968 0 0 1-.717-.282.978.978 0 0 1-.28-.72v-1.033h.997v1.033h9.975v-1.127ZM3.086 6.013h-.997V4.008L6.079 0h6.982a.93.93 0 0 1 .686.282.992.992 0 0 1 .312.72v2.004h-.998V1.002H7.076v3.006a.894.894 0 0 1-.312.689.969.969 0 0 1-.717.281H3.086v1.034Z"/></svg>