<svg xmlns="http://www.w3.org/2000/svg" fill="currentColor" viewBox="0 0 16 16"><path d="M7.125 8.875V4.312c0-.145.052-.265.156-.359a.541.541 0 0 1 .375-.14c.313 0 .469.166.469.5v3.562h4.563c.354 0 .53.167.53.5 0 .333-.176.5-.53.5H7.125ZM10.156 0a7.841 7.841 0 0 1 3.735 2.11A7.84 7.84 0 0 1 16 5.843h-1.063a7.022 7.022 0 0 0-1.796-2.969 7.216 7.216 0 0 0-2.985-1.781V0ZM8.125 14.969a7.08 7.08 0 0 0 2.313-.375 6.856 6.856 0 0 0 1.984-1.063 7.401 7.401 0 0 0 1.531-1.594 7.07 7.07 0 0 0 .985-2.03H16a8.256 8.256 0 0 1-1.078 2.437 8.046 8.046 0 0 1-1.766 1.937A8.093 8.093 0 0 1 8.125 16a7.807 7.807 0 0 1-3.156-.64 8.306 8.306 0 0 1-2.578-1.75A8.306 8.306 0 0 1 .64 11.03 7.807 7.807 0 0 1 0 7.875c0-.958.151-1.86.453-2.703A8.09 8.09 0 0 1 1.72 2.875a8.326 8.326 0 0 1 1.937-1.781A8.027 8.027 0 0 1 6.094 0v1.063a7.07 7.07 0 0 0-2.032.984A7.401 7.401 0 0 0 2.47 3.578a6.868 6.868 0 0 0-1.063 1.985 7.08 7.08 0 0 0-.375 2.312 7.01 7.01 0 0 0 2.063 5.031 7.036 7.036 0 0 0 2.265 1.516 7.044 7.044 0 0 0 2.766.547Z"/></svg>