<svg xmlns="http://www.w3.org/2000/svg" fill="currentColor" viewBox="0 0 16 16"><path d="M7 1c0-.292.094-.531.281-.719A.973.973 0 0 1 8 0c.27 0 .505.099.703.297A.961.961 0 0 1 9 1a.973.973 0 0 1-.281.719A.973.973 0 0 1 8 2a.973.973 0 0 1-.719-.281A.973.973 0 0 1 7 1Zm6.531 2.563a6.592 6.592 0 0 0-.937-.938 7.195 7.195 0 0 0-1.313-.875C11.094 1.646 11 1.5 11 1.312a.49.49 0 0 1 .14-.359.418.418 0 0 1 .297-.14c.167 0 .422.104.766.312.344.208.693.464 1.047.766s.662.604.922.906c.26.302.39.547.39.734a.45.45 0 0 1-.14.328.45.45 0 0 1-.578.063c-.084-.052-.188-.172-.313-.36ZM5 1.313c0 .187-.094.333-.281.437-.48.25-.917.542-1.313.875a6.6 6.6 0 0 0-.937.938c-.125.187-.23.307-.313.359a.487.487 0 0 1-.61-.062.418.418 0 0 1-.14-.297c0-.167.13-.407.39-.72.261-.312.563-.614.907-.905a9.4 9.4 0 0 1 1.031-.766c.344-.219.61-.328.797-.328.125 0 .235.041.328.125A.436.436 0 0 1 5 1.313ZM10 5H6v-.5c0-.417.146-.77.438-1.063A1.447 1.447 0 0 1 7.5 3h1c.417 0 .77.146 1.063.438.291.291.437.645.437 1.062V5Zm4 0c.27 0 .505.099.703.297A.961.961 0 0 1 15 6a.973.973 0 0 1-.281.719A.974.974 0 0 1 14 7a.974.974 0 0 1-.719-.281A.973.973 0 0 1 13 6c0-.292.094-.531.281-.719A.974.974 0 0 1 14 5ZM1 6c0-.292.094-.531.281-.719A.973.973 0 0 1 2 5c.27 0 .505.099.703.297A.961.961 0 0 1 3 6a.973.973 0 0 1-.281.719A.973.973 0 0 1 2 7a.973.973 0 0 1-.719-.281A.973.973 0 0 1 1 6Zm3.5 8.5c0-.688.245-1.276.734-1.766A2.407 2.407 0 0 1 7 12h1a2.407 2.407 0 0 1-1.766-.734A2.407 2.407 0 0 1 5.5 9.5c0-.688.245-1.276.734-1.766A2.407 2.407 0 0 1 8 7c.688 0 1.276.25 1.766.75s.734 1.094.734 1.781c0 .667-.245 1.245-.734 1.735-.49.49-1.079.734-1.766.734h1a2.41 2.41 0 0 1 1.766.734c.49.49.734 1.079.734 1.766V16h-7v-1.5ZM8 11c.417 0 .77-.146 1.063-.438.291-.291.437-.645.437-1.062 0-.417-.146-.77-.438-1.063A1.447 1.447 0 0 0 8 8c-.417 0-.77.146-1.063.438A1.447 1.447 0 0 0 6.5 9.5c0 .417.146.77.438 1.063.291.291.645.437 1.062.437Zm6.5-3c.417 0 .77.146 1.063.438.291.291.437.645.437 1.062v.5h-4v-.5c0-.417.146-.77.438-1.063A1.447 1.447 0 0 1 13.5 8h1ZM0 10v-.5c0-.417.146-.77.438-1.063A1.447 1.447 0 0 1 1.5 8h1c.417 0 .77.146 1.063.438.291.291.437.645.437 1.062v.5H0Zm5.5 5h5v-.5c0-.417-.146-.77-.438-1.063A1.446 1.446 0 0 0 9 13H7c-.417 0-.77.146-1.063.438A1.447 1.447 0 0 0 5.5 14.5v.5Z"/></svg>