<svg xmlns="http://www.w3.org/2000/svg" fill="currentColor" viewBox="0 0 16 16"><path d="M0 1.996c0-.27.094-.504.281-.702A.946.946 0 0 1 .999.998h1.998V0h.999v.998H9.99V0h.999v.998h1.998a.96.96 0 0 1 .702.296.959.959 0 0 1 .297.702V4.99h-.999v-.998H.999V14.97h5.994v.998H.999a.973.973 0 0 1-.718-.28A.971.971 0 0 1 0 14.97V1.996Zm8.991 9.7.25-.999h.874a3.54 3.54 0 0 1 1.342-1.918c.666-.488 1.499-.733 2.498-.733.707 0 1.3.146 1.78.437l.124.062-.312 1.217-.156-.125a3.005 3.005 0 0 0-1.592-.437c-.5 0-.968.12-1.405.359-.437.24-.729.619-.874 1.138h3.715l-.25.998h-3.59v.5h3.59l-.25.997h-3.184c.333 1.082 1.103 1.622 2.31 1.622a2.54 2.54 0 0 0 1.53-.499l.218-.187v1.403c-.582.25-1.144.375-1.685.375-1.062 0-1.884-.219-2.467-.655-.583-.437-1.02-1.123-1.31-2.059H8.99l.25-.998h.718v-.499H8.99Zm-4.308-4.71 1.155-.998h1.155v4.99h-.999V6.986H4.683Zm5.307-4.99v.998h.999v-.998H9.99Zm-5.994.998v-.998h-.999v.998h.999Z"/></svg>