<svg xmlns="http://www.w3.org/2000/svg" fill="currentColor" viewBox="0 0 16 16"><path d="M11.559 4.735a6.514 6.514 0 0 0-3.529-1.01c-.932 0-1.78.158-2.54.475a5.813 5.813 0 0 0-1.96 1.323 5.976 5.976 0 0 0-1.28 2.022 6.958 6.958 0 0 0-.456 2.541c0 .337.03.674.09 1.011.062.337.092.674.092 1.011a.87.87 0 0 1-.258.624.836.836 0 0 1-.624.268.758.758 0 0 1-.624-.282 1.809 1.809 0 0 1-.334-.7 4.072 4.072 0 0 1-.122-.876 26.2 26.2 0 0 1-.015-.847c0-1.269.208-2.418.624-3.45.415-1.03.988-1.902 1.718-2.615a7.658 7.658 0 0 1 2.555-1.65A8.412 8.412 0 0 1 8.03 2a8.52 8.52 0 0 1 3.012.535 7.81 7.81 0 0 1 2.494 1.487l-1.582.98-.395-.267Zm3.863 2.051c.385.952.578 2.032.578 3.241v.149c0 .238-.005.52-.015.847a4.34 4.34 0 0 1-.122.922c-.07.287-.177.53-.32.728-.141.198-.344.297-.608.297a.929.929 0 0 1-.654-.238.774.774 0 0 1-.258-.594c0-.357.035-.704.106-1.04a4.89 4.89 0 0 0 .107-1.012c0-1.268-.254-2.378-.76-3.33l1.064-1.605c.385.535.68 1.08.882 1.635ZM6.814 9.254c.06-.06.213-.168.456-.327l3.346-2.23 3.498-2.23-3.924 5.857-.608.863-.335.416c-.345.337-.75.505-1.217.505a1.71 1.71 0 0 1-1.216-.49 1.562 1.562 0 0 1-.517-1.175c0-.456.172-.852.517-1.189Zm1.216 1.962a.81.81 0 0 0 .609-.252.812.812 0 0 0 .243-.58.797.797 0 0 0-.243-.595.835.835 0 0 0-.609-.238.85.85 0 0 0-.593.238.774.774 0 0 0-.258.595c0 .218.086.411.258.58.173.168.37.252.593.252Z"/></svg>