<svg xmlns="http://www.w3.org/2000/svg" fill="currentColor" viewBox="0 0 16 16"><path d="m1 4 3.902-4h6.83c.264 0 .493.094.686.281a.96.96 0 0 1 .29.719v1.5h-.976V1H5.878v3a.958.958 0 0 1-.29.719.988.988 0 0 1-.716.281H1.976v10h9.756v-1.5h.975V15a.986.986 0 0 1-.274.719.937.937 0 0 1-.701.281H1.976a.937.937 0 0 1-.702-.281A.987.987 0 0 1 1 15V4Zm8.933 7.719V8.53a.77.77 0 0 1 .244-.578.808.808 0 0 1 .58-.234h.213V6.406c0-.146.05-.4.152-.765a2.36 2.36 0 0 1 .61-1.016c.305-.27.63-.448.975-.531a3.085 3.085 0 0 1 .64-.063c.529 0 .95.115 1.266.344.315.23.549.48.701.75.152.27.249.526.29.766.04.24.06.38.06.421h-1.036a.991.991 0 0 0-.076-.328 1.642 1.642 0 0 0-.229-.406 1.298 1.298 0 0 0-.396-.344 1.14 1.14 0 0 0-.58-.14c-.365 0-.675.125-.93.375-.253.25-.38.562-.38.937V7.72h3.2c.224 0 .407.078.55.234a.827.827 0 0 1 .213.578v3.188a.887.887 0 0 1-.213.594.689.689 0 0 1-.55.25h-4.48a.782.782 0 0 1-.58-.25.821.821 0 0 1-.244-.594Zm2.256-.063h1.555l-.488-1.562c.325-.084.488-.323.488-.719a.744.744 0 0 0-.229-.563.747.747 0 0 0-.533-.218.784.784 0 0 0-.564.219.744.744 0 0 0-.229.562c0 .167.05.313.152.438a.968.968 0 0 0 .366.28l-.518 1.563Z"/></svg>