<svg xmlns="http://www.w3.org/2000/svg" fill="currentColor" viewBox="0 0 16 16"><path d="M2 16v-4a4.016 4.016 0 0 1 2.438-3.688A3.88 3.88 0 0 1 6 8h2a3.876 3.876 0 0 1-1.563-.313 4.065 4.065 0 0 1-2.125-2.125A3.877 3.877 0 0 1 4 4 4.016 4.016 0 0 1 6.438.313C6.917.104 7.438 0 8 0a4.016 4.016 0 0 1 2.828 1.172A4.015 4.015 0 0 1 12 4c0 .563-.104 1.083-.313 1.563A4.016 4.016 0 0 1 8 8h2.001a4.016 4.016 0 0 1 2.828 1.172A4.016 4.016 0 0 1 14 11.999v4H2Zm1-4v3h10v-3c0-.833-.292-1.542-.875-2.125A2.893 2.893 0 0 0 10 9H6c-.833 0-1.542.292-2.125.875A2.893 2.893 0 0 0 3 12Zm2-8c0 .833.292 1.542.875 2.125A2.893 2.893 0 0 0 8 7c.833 0 1.542-.292 2.125-.875A2.893 2.893 0 0 0 11 4c0-.833-.292-1.542-.875-2.125A2.893 2.893 0 0 0 8 1c-.833 0-1.542.292-2.125.875A2.893 2.893 0 0 0 5 4Z"/></svg>