<svg xmlns="http://www.w3.org/2000/svg" fill="currentColor" viewBox="0 0 16 16"><path d="M11 16H1v-2a4.016 4.016 0 0 1 1.172-2.828A4.015 4.015 0 0 1 5 10h1a2.893 2.893 0 0 1-2.125-.875A2.893 2.893 0 0 1 3 7c0-.833.292-1.542.875-2.125A2.893 2.893 0 0 1 6 4c.833 0 1.542.292 2.125.875S9 6.167 9 7s-.292 1.542-.875 2.125A2.893 2.893 0 0 1 6 10h1a4.015 4.015 0 0 1 2.828 1.172A4.016 4.016 0 0 1 11 14v2Zm-9-2v1h8v-1c0-.833-.292-1.542-.875-2.125A2.893 2.893 0 0 0 7 11H5c-.833 0-1.542.292-2.125.875A2.893 2.893 0 0 0 2 14ZM4 1h10c.292 0 .531.094.719.281A.973.973 0 0 1 15 2v11a.974.974 0 0 1-.281.719A.974.974 0 0 1 14 14h-2v-1h2V2H4v1H3V2c0-.292.094-.531.281-.719A.973.973 0 0 1 4 1Zm0 6c0 .542.198 1.01.594 1.406A1.92 1.92 0 0 0 6 9a1.92 1.92 0 0 0 1.406-.594A1.92 1.92 0 0 0 8 7a1.92 1.92 0 0 0-.594-1.406A1.922 1.922 0 0 0 6 5a1.92 1.92 0 0 0-1.406.594A1.922 1.922 0 0 0 4 7Z"/></svg>