<svg xmlns="http://www.w3.org/2000/svg" fill="currentColor" viewBox="0 0 16 16"><path d="M1 14a.988.988 0 0 1-.703-.281A.947.947 0 0 1 0 13V1C0 .73.099.495.297.297A.961.961 0 0 1 1 0h2c.292 0 .531.099.719.297A.988.988 0 0 1 4 1v12a.974.974 0 0 1-.281.719A.973.973 0 0 1 3 14H1ZM15 2c.292 0 .531.099.719.297A.988.988 0 0 1 16 3v12a.974.974 0 0 1-.281.719A.974.974 0 0 1 15 16H1a.988.988 0 0 1-.703-.281A.947.947 0 0 1 0 15h15V3H5V2h10Zm-8 8a.988.988 0 0 1-.703-.281A.947.947 0 0 1 6 9c0-.27.099-.505.297-.703A.961.961 0 0 1 7 8c.292 0 .531.099.719.297A.988.988 0 0 1 8 9a.973.973 0 0 1-.281.719A.973.973 0 0 1 7 10Zm3-2c.292 0 .531.099.719.297A.988.988 0 0 1 11 9a.973.973 0 0 1-.281.719A.974.974 0 0 1 10 10a.988.988 0 0 1-.703-.281A.947.947 0 0 1 9 9c0-.27.099-.505.297-.703A.961.961 0 0 1 10 8Zm3 0c.292 0 .531.099.719.297A.988.988 0 0 1 14 9a.973.973 0 0 1-.281.719A.974.974 0 0 1 13 10a.988.988 0 0 1-.703-.281A.947.947 0 0 1 12 9c0-.27.099-.505.297-.703A.961.961 0 0 1 13 8Zm0 3c.292 0 .531.099.719.297A.988.988 0 0 1 14 12a.974.974 0 0 1-.281.719A.974.974 0 0 1 13 13a.988.988 0 0 1-.703-.281A.947.947 0 0 1 12 12c0-.27.099-.505.297-.703A.961.961 0 0 1 13 11Zm-3 0c.292 0 .531.099.719.297A.988.988 0 0 1 11 12a.974.974 0 0 1-.281.719A.974.974 0 0 1 10 13a.988.988 0 0 1-.703-.281A.947.947 0 0 1 9 12c0-.27.099-.505.297-.703A.961.961 0 0 1 10 11Zm-3 2a.988.988 0 0 1-.703-.281A.947.947 0 0 1 6 12c0-.27.099-.505.297-.703A.961.961 0 0 1 7 11c.292 0 .531.099.719.297A.988.988 0 0 1 8 12a.974.974 0 0 1-.281.719A.973.973 0 0 1 7 13Zm7-7.5c0 .333-.167.5-.5.5h-7c-.333 0-.5-.167-.5-.5v-1c0-.125.047-.24.14-.344A.462.462 0 0 1 6.5 4h7c.146 0 .266.052.36.156.093.104.14.219.14.344v1Z"/></svg>