<svg xmlns="http://www.w3.org/2000/svg" fill="currentColor" viewBox="0 0 16 16"><path d="M7.031 15 15 7.062c.27 0 .505.094.703.282a.947.947 0 0 1 .297.718V15a.947.947 0 0 1-.297.719A.988.988 0 0 1 15 16H8.031a.973.973 0 0 1-.719-.281.974.974 0 0 1-.28-.719ZM15 15V8.469L8.437 15H15ZM2 4.25c.083-.604.328-1.11.734-1.516A2.579 2.579 0 0 1 4.25 2h.5c.73.083 1.292.396 1.688.938.312.333.5.77.562 1.312v.5a2.579 2.579 0 0 1-.734 1.516A2.579 2.579 0 0 1 4.75 7h-.5c-.52-.063-.958-.25-1.313-.563-.52-.416-.833-.979-.937-1.687v-.5Zm3.344 8.938 7.812-7.844a.478.478 0 0 1 .344-.157.48.48 0 0 1 .344.157c.25.25.25.49 0 .718L6.03 13.875a.478.478 0 0 1-.343.156c-.063 0-.178-.052-.344-.156-.23-.23-.23-.458 0-.688ZM3 4.5c0 .146.01.23.031.25.063.396.26.73.594 1 .188.125.396.198.625.219.02.02.104.031.25.031.146 0 .23-.01.25-.031a1.38 1.38 0 0 0 .813-.407c.229-.229.364-.5.406-.812.02-.02.031-.104.031-.25 0-.146-.01-.23-.031-.25a1.325 1.325 0 0 0-.219-.625 1.575 1.575 0 0 0-1-.594C4.73 3.011 4.646 3 4.5 3c-.146 0-.23.01-.25.031a1.38 1.38 0 0 0-.813.406c-.229.23-.364.5-.406.813-.02.02-.031.104-.031.25ZM4.75 0v1.625h-.5V0h.5ZM1.625 4.25v.5H0v-.5h1.625Zm5.094 2.125 1.156 1.156-.375.344-1.125-1.156a2.68 2.68 0 0 0 .344-.344ZM7.5 1.156l.375.344-1.156 1.156a2.68 2.68 0 0 0-.344-.344L7.5 1.157ZM1.156 7.531l1.125-1.156c.063.063.12.125.172.188.052.062.12.114.203.156L1.5 7.875l-.344-.344Zm0-6.031.344-.344 1.156 1.157a.622.622 0 0 0-.203.156c-.052.062-.11.125-.172.187L1.156 1.5Zm6.219 2.75H9v.5H7.375c.02-.02.031-.104.031-.25 0-.146-.01-.23-.031-.25ZM4.75 7.406V9h-.5V7.406h.5Z"/></svg>