<svg xmlns="http://www.w3.org/2000/svg" fill="currentColor" viewBox="0 0 16 16"><path d="M11.794 2.857c-.481 0-.837-.14-1.067-.422a1.55 1.55 0 0 1-.345-1.014c0-.396.115-.729.345-1 .23-.27.586-.405 1.067-.405.376 0 .706.135.988.406.282.27.423.603.423.999 0 .395-.14.733-.423 1.014a1.357 1.357 0 0 1-.988.422Zm2.54 3.965c.398 0 .597.197.597.593a.62.62 0 0 1-.157.406.541.541 0 0 1-.44.187h-2.258c-.314 0-.543-.156-.69-.468l-.502-1 .878-1.529.879 1.81h1.694Zm-9.19 2.372 1.223 1.218-.972 1.654c-.146.271-.418.427-.816.469H.91c-.585 0-.878-.281-.878-.843 0-.562.293-.843.879-.843h3.23l1.004-1.655Zm5.52 1.998c.168.167.252.396.252.687 0 .187-.042.375-.126.562l-1.6 2.997a.985.985 0 0 1-.392.406c-.156.083-.287.125-.392.125a.983.983 0 0 1-.643-.25.782.782 0 0 1-.298-.624c0-.188.042-.323.126-.406l1.411-2.498-3.544-3.527 2.384-3.872-4.58 1.03c-.02.021-.084.032-.188.032a.969.969 0 0 1-.533-.14c-.147-.094-.22-.287-.22-.578 0-.312.188-.52.565-.625L9.504 2.92c.167-.041.293-.062.377-.062.46 0 .825.187 1.097.562l.157.25.314.686-2.855 4.808 2.07 2.03Z"/></svg>