<svg xmlns="http://www.w3.org/2000/svg" fill="currentColor" viewBox="0 0 16 16"><path d="M14 1c.292 0 .531.094.719.281A.973.973 0 0 1 15 2v12c0 .27-.094.505-.281.703A.947.947 0 0 1 14 15H2a.947.947 0 0 1-.719-.297A.988.988 0 0 1 1 14V2c0-.292.094-.531.281-.719A.973.973 0 0 1 2 1h12Zm0 1H2v10h12V2Zm-4 4 3 5H7l3-5ZM7.062 9H3V4h4.375c-.104.23-.193.464-.266.703A2.73 2.73 0 0 0 7 5.5c0 .417.073.813.219 1.188.146.375.343.708.593 1L7.063 9Zm1.313-2.219a3.586 3.586 0 0 1-.266-.61A2.111 2.111 0 0 1 8 5.5c0-.708.245-1.302.734-1.781A2.434 2.434 0 0 1 10.5 3c.708 0 1.302.24 1.781.719.48.479.719 1.073.719 1.781 0 .396-.083.76-.25 1.094a2.457 2.457 0 0 1-.688.843L10 4.031l-1.625 2.75Z"/></svg>