<svg xmlns="http://www.w3.org/2000/svg" fill="currentColor" viewBox="0 0 16 16"><path d="M15.563 5.51A8.96 8.96 0 0 1 16 8.298c0 2.046-.656 3.852-1.969 5.417l-.5-.438-4.75-4.79 6.781-2.975Zm-7.22 1.785V0a7.815 7.815 0 0 1 3.907 1.3A8.05 8.05 0 0 1 15 4.32L8.344 7.296Zm4.313 6.858c-1.27 1.064-2.708 1.67-4.312 1.816-.25.02-.474.031-.672.031a7.08 7.08 0 0 1-.64-.031 7.41 7.41 0 0 1-3.548-1.221A7.587 7.587 0 0 1 .97 12.024a5.964 5.964 0 0 1-.531-1.19A7.464 7.464 0 0 1 0 8.297C0 6.42.604 4.75 1.813 3.287c.312-.333.614-.626.906-.876A7.833 7.833 0 0 1 7.03.595v7.953l5.625 5.605Z"/></svg>