<svg xmlns="http://www.w3.org/2000/svg" fill="currentColor" viewBox="0 0 16 16"><path d="M4.941 1.158h10.702c.214 0 .31.12.286.357l-3.282 13.113c-.024.142-.12.213-.286.213H8.223c-.166 0-.25-.07-.25-.213L4.693 1.515c-.048-.095-.042-.178.017-.25a.288.288 0 0 1 .232-.107ZM.018 14.841V1.158c0-.332.107-.605.321-.82.214-.213.488-.32.82-.32h1.713c.38 0 .571.19.571.57a.573.573 0 0 1-.16.392.528.528 0 0 1-.41.178H1.16V4.58h1.712c.38 0 .571.19.571.57a.573.573 0 0 1-.16.392.528.528 0 0 1-.41.178H1.16V8h1.712c.38 0 .571.191.571.571a.573.573 0 0 1-.16.392.528.528 0 0 1-.41.178H1.16v2.28h1.712c.38 0 .571.19.571.57 0 .38-.19.57-.57.57H1.16v2.281h1.712c.38 0 .571.19.571.57a.573.573 0 0 1-.16.393.528.528 0 0 1-.41.178H1.16c-.333 0-.607-.113-.82-.339a1.126 1.126 0 0 1-.322-.802Zm6.6-10.262h7.349l.57-2.28h-8.49l.57 2.28ZM7.474 8h5.636l.571-2.28H6.903L7.474 8Zm.286 1.14.571 2.28h3.924l.571-2.28H7.76Zm1.142 4.561h2.783l.285-1.14H8.616L8.9 13.7Z"/></svg>