<svg xmlns="http://www.w3.org/2000/svg" fill="currentColor" viewBox="0 0 16 16"><path d="M4.007 5.156v-.125c0-.937.276-1.729.83-2.375.553-.646 1.33-.969 2.333-.969h.438c.293-.479.695-.88 1.206-1.203A3.078 3.078 0 0 1 10.49 0a3.722 3.722 0 0 1 2.49.938c.323.291.58.635.767 1.03.188.397.282.824.282 1.282V10l-1.002-.469V8l-2.005 1.5V11a2.07 2.07 0 0 1-.454-.234 3.603 3.603 0 0 0-.548-.297V6.03c0-1.062-.256-1.843-.767-2.343-.512-.5-1.206-.792-2.083-.876a2.04 2.04 0 0 0-1.535.657A2.185 2.185 0 0 0 5.01 5.03v.125c0 .334-.167.5-.501.5a.505.505 0 0 1-.345-.14.461.461 0 0 1-.156-.36ZM1 13.97c0-.375.13-.688.391-.938.262-.25.564-.453.909-.61a4.5 4.5 0 0 1 1.002-.327c.324-.063.548-.094.673-.094.439 0 .966.11 1.582.328.616.219 1.425.6 2.427 1.14.96.542 1.739.907 2.334 1.095.595.187 1.07.28 1.425.28.918 0 1.68-.395 2.286-1.187.084-.146.22-.219.407-.219a.54.54 0 0 1 .392.172.573.573 0 0 1 .172.422c0 .167-.073.339-.22.516a3.376 3.376 0 0 1-.516.5 5.837 5.837 0 0 1-1.143.703c-.23.104-.46.172-.69.203a4.906 4.906 0 0 1-.657.047c-.418 0-.96-.115-1.629-.344-.668-.229-1.566-.635-2.693-1.219-.94-.479-1.676-.828-2.208-1.046-.533-.22-.945-.329-1.237-.329-.731 0-1.389.417-1.973 1.25a.567.567 0 0 1-.862.094c-.115-.104-.172-.25-.172-.437ZM3.913 9c.417 0 .945.115 1.581.344.637.229 1.467.604 2.49 1.125.96.541 1.728.916 2.302 1.125.575.208 1.05.312 1.425.312.898 0 1.67-.416 2.318-1.25.084-.146.22-.219.407-.219a.54.54 0 0 1 .392.172c.115.115.172.276.172.485 0 .125-.078.281-.235.469a4.268 4.268 0 0 1-.532.53 6.16 6.16 0 0 1-.611.454c-.209.135-.376.213-.501.234a3.087 3.087 0 0 1-.783.235 4.57 4.57 0 0 1-.564.046c-.418 0-.96-.114-1.629-.343-.668-.23-1.566-.646-2.693-1.25-.94-.5-1.676-.85-2.208-1.047-.533-.198-.955-.297-1.269-.297-.793 0-1.44.344-1.941 1.031-.147.146-.303.219-.47.219a.602.602 0 0 1-.392-.14.477.477 0 0 1-.172-.391 1.72 1.72 0 0 1 .485-.813 3.756 3.756 0 0 1 1.691-.922c.304-.073.55-.109.738-.109Zm4.823-7.094c.271.146.543.323.814.532.272.208.517.442.736.703.22.26.397.536.533.828.135.291.203.604.203.937V6l2.005-1.469V3.25c0-.667-.23-1.208-.69-1.625-.459-.417-1.022-.625-1.69-.625-.376 0-.736.047-1.081.14-.345.094-.621.35-.83.766Zm4.29 5.032V5.53L11.023 7v1.438l2.005-1.5Z"/></svg>