<svg xmlns="http://www.w3.org/2000/svg" fill="currentColor" viewBox="0 0 16 16"><path d="M4 1c0-.27.099-.505.297-.703A.961.961 0 0 1 5 0h10c.292 0 .531.099.719.297A.988.988 0 0 1 16 1v9a.974.974 0 0 1-.281.719A.974.974 0 0 1 15 11H5a.988.988 0 0 1-.703-.281A.947.947 0 0 1 4 10V1Zm1 0v9h10V1H5ZM1 2h2v1H1v10h14v-1h1v1c0 .27-.094.505-.281.703A.947.947 0 0 1 15 14H1a.961.961 0 0 1-.703-.297A.961.961 0 0 1 0 13V3c0-.292.099-.531.297-.719A.988.988 0 0 1 1 2Zm3 13.5c0-.146.052-.266.156-.36A.503.503 0 0 1 4.5 15h7c.333 0 .5.167.5.5 0 .125-.047.24-.14.344a.462.462 0 0 1-.36.156h-7a.478.478 0 0 1-.344-.156A.478.478 0 0 1 4 15.5Z"/></svg>