<svg xmlns="http://www.w3.org/2000/svg" fill="currentColor" viewBox="0 0 16 16"><path d="M8 4h5c.27 0 .505.099.703.297A.961.961 0 0 1 14 5v1h1c.27 0 .505.099.703.297A.961.961 0 0 1 16 7v4a.947.947 0 0 1-.297.719A.988.988 0 0 1 15 12h-5a.973.973 0 0 1-.719-.281A.974.974 0 0 1 9 11v-1H8a.973.973 0 0 1-.719-.281A.973.973 0 0 1 7 9V5c0-.27.094-.505.281-.703A.947.947 0 0 1 8 4ZM0 15V4l4-4h7c.27 0 .505.094.703.281A.947.947 0 0 1 12 1v2h-1V1H5v3a.947.947 0 0 1-.297.719A1.027 1.027 0 0 1 3.97 5H1v10h10v-1.5h1V15a.974.974 0 0 1-.281.719A.974.974 0 0 1 11 16H1a.973.973 0 0 1-.719-.281A.974.974 0 0 1 0 15Zm10-4h5V7h-5v4Zm3-6H8v4h1V7c0-.27.094-.505.281-.703A.947.947 0 0 1 10 6h3V5Z"/></svg>