<svg xmlns="http://www.w3.org/2000/svg" fill="currentColor" viewBox="0 0 16 16"><path d="M0 8.727C0 7.86.151 7.03.453 6.242a7.102 7.102 0 0 1 1.266-2.12A7.732 7.732 0 0 1 3.625 2.53 7.228 7.228 0 0 1 6 1.636v.97a6.412 6.412 0 0 0-1.984.818 6.661 6.661 0 0 0-1.594 1.379 6.156 6.156 0 0 0-1.047 1.803A5.991 5.991 0 0 0 1 8.727c0 .869.172 1.687.516 2.455a6.272 6.272 0 0 0 1.406 2 6.868 6.868 0 0 0 2.062 1.348c.782.334 1.62.5 2.516.5.77 0 1.5-.12 2.188-.363a6.457 6.457 0 0 0 3.28-2.56 6.02 6.02 0 0 0 .845-1.925h1.03a6.916 6.916 0 0 1-.921 2.318 7.27 7.27 0 0 1-1.64 1.848A7.626 7.626 0 0 1 7.5 16c-1.02 0-1.99-.192-2.906-.576a7.626 7.626 0 0 1-2.39-1.56 7.37 7.37 0 0 1-1.61-2.319A6.85 6.85 0 0 1 0 8.728Zm11.781-5.333L12.594 1l.812 2.394H16l-2.125 1.485.813 2.394-2.094-1.485-2.125 1.485.812-2.394-2.094-1.485h2.594ZM7 9.212V4.848c0-.14.052-.257.156-.348a.551.551 0 0 1 .375-.136c.313 0 .469.161.469.484v3.394h4.5c.333 0 .5.162.5.485 0 .323-.167.485-.5.485H7Z"/></svg>