<svg xmlns="http://www.w3.org/2000/svg" fill="currentColor" viewBox="0 0 16 16"><path d="M15.45 12.75c.335.396.512.823.533 1.281.042.334.005.61-.11.828a2.97 2.97 0 0 1-.329.516c-.271.292-.569.469-.893.531a4.5 4.5 0 0 1-.61.094h-3.01v-2H9.027v-2H7.02v-2H5.014a4.633 4.633 0 0 1-1.911-.406A5.296 5.296 0 0 1 .408 6.907 4.597 4.597 0 0 1 0 5c0-.667.136-1.302.407-1.906A5.296 5.296 0 0 1 3.103.406 4.633 4.633 0 0 1 5.014 0c.69 0 1.338.135 1.943.406.606.271 1.134.63 1.583 1.078.45.448.81.974 1.081 1.579A4.67 4.67 0 0 1 10.03 5c0 .354-.047.672-.141.953a7.968 7.968 0 0 1-.267.703l-.031.032 5.86 6.062ZM4.514 6a1.45 1.45 0 0 0 1.065-.438c.293-.291.44-.645.44-1.062 0-.417-.147-.77-.44-1.063A1.453 1.453 0 0 0 4.513 3c-.418 0-.773.146-1.066.438A1.444 1.444 0 0 0 3.01 4.5c0 .417.146.77.438 1.063.293.291.648.437 1.066.437Z"/></svg>