<svg xmlns="http://www.w3.org/2000/svg" fill="currentColor" viewBox="0 0 16 16"><path d="M0 4c0-.27.094-.505.281-.703A.947.947 0 0 1 1 3h2V1c0-.27.094-.505.281-.703A.947.947 0 0 1 4 0h8c.27 0 .505.099.703.297A.961.961 0 0 1 13 1v2h2c.27 0 .505.099.703.297A.961.961 0 0 1 16 4v5a.947.947 0 0 1-.297.719A.988.988 0 0 1 15 10h-2v5a.947.947 0 0 1-.297.719A.988.988 0 0 1 12 16H4a.973.973 0 0 1-.719-.281A.974.974 0 0 1 3 15v-5H1a.973.973 0 0 1-.719-.281A.973.973 0 0 1 0 9V4Zm4 4v7h8V8H4ZM3 9V8c0-.27.094-.505.281-.703A.947.947 0 0 1 4 7h8c.27 0 .505.099.703.297A.961.961 0 0 1 13 8v1h2V4H1v5h2Zm1-6h8V1H4v2Zm2 10v-1h4v1H6Zm0-3h4v1H6v-1Zm5-4.5c0-.125.047-.24.14-.344A.462.462 0 0 1 11.5 5h2c.146 0 .266.052.36.156.093.104.14.219.14.344 0 .333-.167.5-.5.5h-2c-.333 0-.5-.167-.5-.5Z"/></svg>