<svg xmlns="http://www.w3.org/2000/svg" fill="currentColor" viewBox="0 0 17 17"><path d="M10.016 16.016h-10v-2a4.016 4.016 0 0 1 1.172-2.828 4.015 4.015 0 0 1 2.828-1.172h1a2.893 2.893 0 0 1-2.125-.875 2.893 2.893 0 0 1-.875-2.125c0-.833.292-1.542.875-2.125a2.893 2.893 0 0 1 2.125-.875c.833 0 1.542.292 2.125.875s.875 1.292.875 2.125-.292 1.542-.875 2.125a2.893 2.893 0 0 1-2.125.875h1c.563 0 1.083.104 1.563.313a4.064 4.064 0 0 1 2.125 2.124c.208.48.312 1 .312 1.563v2Zm-.5-11.875a.99.99 0 0 1 .5-.125v-2c0-.125.037-.297.11-.516.072-.218.203-.437.39-.656.188-.219.448-.411.781-.578.334-.167.75-.25 1.25-.25s.907.062 1.22.187a2.2 2.2 0 0 1 .75.47c.187.187.317.4.39.64.073.24.11.474.11.703v2a.99.99 0 0 1 .5.125.97.97 0 0 1 .343.313c.104.145.156.333.156.562v3c0 .23-.11.453-.328.672-.219.219-.443.328-.672.328h-5a.99.99 0 0 1-.5-.125 1.01 1.01 0 0 1-.344-.297c-.104-.135-.156-.328-.156-.578v-3c0-.23.052-.417.156-.563a.96.96 0 0 1 .344-.312Zm-8.5 9.875v1h8v-1c0-.833-.292-1.542-.875-2.125a2.893 2.893 0 0 0-2.125-.875h-2c-.833 0-1.542.292-2.125.875a2.893 2.893 0 0 0-.875 2.125Zm4-5c.563 0 1.037-.198 1.422-.594.385-.396.578-.864.578-1.406 0-.542-.193-1.01-.578-1.406a1.907 1.907 0 0 0-1.422-.594 1.92 1.92 0 0 0-1.406.594 1.922 1.922 0 0 0-.594 1.406c0 .542.198 1.01.594 1.406a1.92 1.92 0 0 0 1.406.594Zm6-7v2h3v-2c0-.042-.005-.12-.015-.234a.637.637 0 0 0-.157-.344 1.11 1.11 0 0 0-.437-.297c-.198-.083-.485-.125-.86-.125s-.661.052-.859.156a1.475 1.475 0 0 0-.453.344 4.882 4.882 0 0 1-.125.234.881.881 0 0 0-.094.266Zm2.656 6-.656-1.156c.333-.209.5-.49.5-.844a.973.973 0 0 0-.281-.719.973.973 0 0 0-.719-.281.988.988 0 0 0-.703.281.947.947 0 0 0-.297.719.83.83 0 0 0 .14.484c.095.136.214.256.36.36l-.562 1.156h2.218Z"/></svg>