<svg xmlns="http://www.w3.org/2000/svg" fill="currentColor" viewBox="0 0 16 16"><path d="M13.25 8.358c.23-.249.23-.488 0-.716l-3.063-3.928a.903.903 0 0 1-.312-.701c0-.28.104-.514.313-.701A.908.908 0 0 1 10.89 2a.91.91 0 0 1 .703.312l4.125 4.987A.95.95 0 0 1 16 8a.95.95 0 0 1-.281.701l-4.063 4.987a.891.891 0 0 1-.687.312.99.99 0 0 1-.719-.312.95.95 0 0 1-.281-.701.95.95 0 0 1 .281-.701l3-3.928Zm-4.906 0c.229-.249.229-.488 0-.716L5.28 3.714A.95.95 0 0 1 5 3.013a.95.95 0 0 1 .281-.701A.99.99 0 0 1 6 2c.27 0 .51.104.719.312l4.093 4.987a.9.9 0 0 1 .313.701c0 .28-.104.514-.313.701l-4.03 4.987a.99.99 0 0 1-.72.312.99.99 0 0 1-.718-.312.95.95 0 0 1-.282-.701.95.95 0 0 1 .282-.701l3-3.928Zm-5 0a.492.492 0 0 0 0-.716L.28 3.714A.95.95 0 0 1 0 3.013a.95.95 0 0 1 .281-.701A.99.99 0 0 1 1 2c.27 0 .51.104.719.312l4.093 4.987A.9.9 0 0 1 6.125 8c0 .28-.104.514-.313.701l-4.03 4.987a.99.99 0 0 1-.72.312.99.99 0 0 1-.718-.312.95.95 0 0 1-.281-.701.95.95 0 0 1 .28-.701l3-3.928Z"/></svg>