<svg xmlns="http://www.w3.org/2000/svg" fill="currentColor" viewBox="0 0 16 16"><path d="M11.837 13.055a1.25 1.25 0 0 1-.041 1.315 1.468 1.468 0 0 1-.466.452 1.247 1.247 0 0 1-.67.178H5.374a1.32 1.32 0 0 1-.684-.178 1.313 1.313 0 0 1-.466-.452 1.541 1.541 0 0 1-.205-.617 1.283 1.283 0 0 1 .123-.698L6.8 7.767a1.31 1.31 0 0 1 .534-.575c.228-.128.452-.192.67-.192.22 0 .439.064.658.192.219.128.392.32.52.575l2.656 5.288Zm-.904.794a.754.754 0 0 1 .069-.15c.027-.046.013-.114-.042-.206L8.306 8.178c-.037-.091-.087-.146-.15-.164a.587.587 0 0 0-.151-.028c-.11 0-.21.064-.302.192l-2.655 5.315c-.073.146-.064.265.027.356.055.092.155.137.301.137h5.284c.128 0 .22-.045.274-.137Zm3.915-4.794c.11.219.16.447.151.685-.01.237-.073.447-.192.63a1.425 1.425 0 0 1-.479.452c-.2.119-.42.178-.657.178h-1.725l-.493-1.014h2.218a.283.283 0 0 0 .274-.164c.018-.037.036-.082.055-.137.018-.055.009-.119-.028-.192l-2.655-5.288c-.037-.09-.087-.146-.151-.164a.587.587 0 0 0-.15-.027c-.129 0-.238.064-.33.191L9.51 6.562a2.49 2.49 0 0 0-.876-.466l1.15-2.329a1.31 1.31 0 0 1 .534-.575c.228-.128.461-.192.698-.192.22 0 .438.064.657.192.22.128.393.32.52.575l2.656 5.288ZM5.074 9h-2.71c-.256 0-.48-.06-.671-.178a1.418 1.418 0 0 1-.466-.466 1.517 1.517 0 0 1-.219-.616 1.14 1.14 0 0 1 .123-.658L3.815 1.74c.11-.238.283-.42.52-.548A1.44 1.44 0 0 1 5.019 1c.238 0 .466.064.685.192.219.128.392.31.52.548l1.752 3.48-.41.848a.45.45 0 0 1-.137.028.243.243 0 0 0-.11.027L5.348 2.178a.245.245 0 0 0-.164-.137.748.748 0 0 0-.165-.027.343.343 0 0 0-.3.164L2.061 7.521c-.073.146-.064.255.028.328.036.092.127.137.273.137h3.231L5.074 9Z"/></svg>