<svg xmlns="http://www.w3.org/2000/svg" fill="currentColor" viewBox="0 0 16 16"><path d="M11.877 13.059c.11.218.15.446.123.683-.027.237-.1.447-.219.63a1.468 1.468 0 0 1-.465.45 1.248 1.248 0 0 1-.67.178H5.338a1.32 1.32 0 0 1-.684-.178 1.3 1.3 0 0 1-.465-.45 1.536 1.536 0 0 1-.206-.616 1.16 1.16 0 0 1 .15-.697l2.655-5.332c.128-.256.3-.442.52-.561.219-.118.451-.178.697-.178.247 0 .47.06.67.178a1.3 1.3 0 0 1 .493.56l2.709 5.333Zm2.982-3.993c.11.22.155.447.137.684a1.32 1.32 0 0 1-.205.629 1.424 1.424 0 0 1-.479.451c-.2.119-.42.178-.657.178h-1.723l-1.86-3.719c-.33-.638-.813-1.039-1.451-1.203l1.177-2.379c.127-.237.3-.415.52-.533.218-.119.446-.178.683-.178a1.303 1.303 0 0 1 1.176.71l2.682 5.36Zm-9.822-.054H2.328a1.25 1.25 0 0 1-.67-.178 1.417 1.417 0 0 1-.465-.465A1.27 1.27 0 0 1 1 7.74c-.01-.228.041-.45.15-.67l2.655-5.36c.127-.236.3-.414.52-.532.218-.119.446-.178.683-.178.238 0 .461.06.67.178.21.118.38.296.507.533l1.751 3.5-.41.848c-.748.109-1.295.52-1.642 1.23l-.848 1.723Z"/></svg>