<svg xmlns="http://www.w3.org/2000/svg" fill="currentColor" viewBox="0 0 16 16"><path d="M0 5c0-.833.292-1.542.875-2.125A2.893 2.893 0 0 1 3 2h10c.833 0 1.542.292 2.125.875S16 4.167 16 5v4c0 .833-.292 1.542-.875 2.125A2.893 2.893 0 0 1 13 12H3a2.893 2.893 0 0 1-2.125-.875A2.893 2.893 0 0 1 0 9V5Zm1 0v4c0 .542.193 1.01.578 1.406.386.396.86.594 1.422.594h10a1.92 1.92 0 0 0 1.406-.594A1.92 1.92 0 0 0 15 9V5c0-.563-.198-1.036-.594-1.422A1.948 1.948 0 0 0 13 3H3c-.563 0-1.036.193-1.422.578C1.193 3.964 1 4.438 1 5Zm7 2c0-.833.292-1.542.875-2.125A2.893 2.893 0 0 1 11 4c.833 0 1.542.292 2.125.875S14 6.167 14 7s-.292 1.542-.875 2.125A2.893 2.893 0 0 1 11 10a2.893 2.893 0 0 1-2.125-.875A2.893 2.893 0 0 1 8 7Zm3 2a1.92 1.92 0 0 0 1.406-.594A1.92 1.92 0 0 0 13 7c0-.563-.198-1.036-.594-1.422A1.948 1.948 0 0 0 11 5c-.563 0-1.036.193-1.422.578C9.193 5.964 9 6.438 9 7c0 .542.193 1.01.578 1.406.386.396.86.594 1.422.594Zm-7-.5v-3c0-.333.167-.5.5-.5.125 0 .24.047.344.14A.462.462 0 0 1 5 5.5v3a.462.462 0 0 1-.156.36A.503.503 0 0 1 4.5 9c-.333 0-.5-.167-.5-.5Zm-2 0v-3c0-.333.167-.5.5-.5.125 0 .24.047.344.14A.462.462 0 0 1 3 5.5v3a.462.462 0 0 1-.156.36A.503.503 0 0 1 2.5 9c-.333 0-.5-.167-.5-.5Zm8.5 4.5h2c.125 0 .24.047.344.14a.462.462 0 0 1 .156.36.462.462 0 0 1-.156.36.503.503 0 0 1-.344.14h-2c-.333 0-.5-.167-.5-.5 0-.333.167-.5.5-.5Zm-7 0h2c.125 0 .24.047.344.14A.462.462 0 0 1 6 13.5a.462.462 0 0 1-.156.36.503.503 0 0 1-.344.14h-2c-.333 0-.5-.167-.5-.5 0-.333.167-.5.5-.5Z"/></svg>