<svg xmlns="http://www.w3.org/2000/svg" fill="currentColor" viewBox="0 0 16 16"><path d="M14.75 11.603c.184.383.266.78.248 1.191a2.128 2.128 0 0 1-.343 1.096 2.58 2.58 0 0 1-.836.795A2.23 2.23 0 0 1 12.64 15H3.35a2.16 2.16 0 0 1-1.165-.315 2.63 2.63 0 0 1-.822-.795 2.228 2.228 0 0 1-.357-1.096c-.027-.41.05-.808.233-1.191l4.66-9.315A2.325 2.325 0 0 1 7.98 1c.42 0 .822.11 1.206.329.384.219.694.539.932.959l4.632 9.315Zm-.959 1.78c.275-.438.302-.876.083-1.314l-4.66-9.316c-.237-.511-.648-.767-1.233-.767-.238 0-.466.069-.685.206a1.28 1.28 0 0 0-.494.561l-4.66 9.316c-.218.438-.2.876.056 1.315.255.401.64.602 1.15.602h9.292c.53 0 .914-.2 1.151-.602Z"/></svg>