<svg xmlns="http://www.w3.org/2000/svg" fill="currentColor" viewBox="0 0 16 16"><path d="M0 12V1C0 .708.099.469.297.281A.988.988 0 0 1 1 0h11c.292 0 .531.094.719.281A.973.973 0 0 1 13 1v4H9v1H8V5H5v3h1v1H5v4H1a.961.961 0 0 1-.703-.297A.961.961 0 0 1 0 12Zm7.406-1.75c.042-.417.219-.833.532-1.25L6.875 7.906l.969-1.031 1.125 1.094c.208-.104.411-.203.61-.297.197-.094.4-.172.608-.234V5.905h1.407v1.532a4.445 4.445 0 0 1 1.312.531l1.063-1.094L15 7.906 13.937 9l.297.594c.094.187.172.406.235.656H16v1.406h-1.531c-.084.438-.26.854-.531 1.25L15 14.031l-1.031 1-1.063-1.094a3.69 3.69 0 0 1-1.312.563V16h-1.406v-1.5a3.117 3.117 0 0 1-1.22-.563l-1.124 1.094-.969-1 1.063-1.125a3.036 3.036 0 0 1-.532-1.25H5.875V10.25h1.531Zm2.782-1.656c-.542.166-.97.458-1.282.875-.312.416-.469.906-.469 1.469 0 .562.157 1.067.47 1.515a2.36 2.36 0 0 0 1.28.922c.146.083.396.125.75.125.709 0 1.303-.25 1.782-.75.479-.5.719-1.104.719-1.813a2.41 2.41 0 0 0-.5-1.5 2.243 2.243 0 0 0-1.344-.843 2.271 2.271 0 0 0-.656-.094c-.25 0-.5.031-.75.094ZM5 4h3V1H5v3Zm4-3v3h3V1H9ZM4 4V1H1v3h3Zm0 4V5H1v3h3ZM1 9v3h3V9H1Z"/></svg>