<svg xmlns="http://www.w3.org/2000/svg" fill="currentColor" viewBox="0 0 16 16"><path d="M1.328 8.156a.933.933 0 0 1 .686-.28.97.97 0 0 1 .717.28l4.334 4.397c0-.041-.005-.12-.016-.234-.01-.114-.015-.379-.015-.795 0-.416-.006-1.055-.016-1.918s-.016-2.063-.016-3.602h1.996l-.031 6.55L13.3 8.155a.933.933 0 0 1 .686-.28c.291 0 .53.093.718.28.187.208.28.447.28.717 0 .27-.093.5-.28.686l-5.987 6.144c-.041 0-.093.032-.156.094a1.02 1.02 0 0 0-.109.062.878.878 0 0 1-.109.063l-.156.03c-.02.022-.083.032-.187.032a.66.66 0 0 1-.109-.016l-.234-.046a.36.36 0 0 1-.078-.047.361.361 0 0 0-.078-.047.36.36 0 0 1-.078-.047.358.358 0 0 0-.078-.046l-.03-.032h-.032L1.328 9.56a.888.888 0 0 1-.312-.686c0-.27.104-.51.312-.717Zm5.674-4.148h1.996v.998H7.002v-.998Zm0-1.996h1.996v.998H7.002v-.998ZM8.998.016v.998H7.002V.016h1.996Z"/></svg>