<svg xmlns="http://www.w3.org/2000/svg" fill="currentColor" viewBox="0 0 16 16"><path d="M14.664 5.13a.956.956 0 0 1 .336.738c0 .291-.112.548-.336.772a3.505 3.505 0 0 1-.789.571c-.324.18-.682.353-1.074.52a25.71 25.71 0 0 1-1.175.47 34.33 34.33 0 0 1-1.091.387c.268.828.307 1.684.117 2.568a4.439 4.439 0 0 1-1.292 2.3l-3.022-3.022L1.94 14.8c-.246.268-.504.268-.772 0A.513.513 0 0 1 1 14.43c0-.134.056-.257.168-.369l4.398-4.398L2.511 6.64c.671-.671 1.443-1.102 2.316-1.292a4.945 4.945 0 0 1 2.585.117c.09-.336.208-.7.353-1.09.145-.393.302-.784.47-1.176.168-.392.347-.755.537-1.091.19-.336.386-.604.588-.806A1.12 1.12 0 0 1 10.132 1c.29 0 .537.1.739.302l3.793 3.827Zm-4.532-3.056c-.246.247-.515.694-.806 1.343-.29.65-.582 1.444-.873 2.384l-.335 1.007-1.041-.302a3.434 3.434 0 0 0-1.494-.201 3.59 3.59 0 0 0-1.427.436l5.103 5.103a3.59 3.59 0 0 0 .436-1.427 3.63 3.63 0 0 0-.201-1.527l-.336-1.008 1.041-.335a31.4 31.4 0 0 0 1.73-.605c.458-.179.827-.34 1.107-.486a4.75 4.75 0 0 0 .621-.37c.134-.1.224-.173.269-.218l-3.794-3.794Z"/></svg>