<svg xmlns="http://www.w3.org/2000/svg" fill="currentColor" viewBox="0 0 16 16"><path d="M11.031 13H12v2c0 .292-.088.531-.266.719-.177.187-.411.281-.703.281h-10a1.03 1.03 0 0 1-.734-.281A.947.947 0 0 1 0 15V4l4-4h4v1H5v3a.973.973 0 0 1-.281.719A.973.973 0 0 1 4 5H1v10h10.031v-2Zm4.719-9.031c.167.166.25.354.25.562a.777.777 0 0 1-.25.563 2.678 2.678 0 0 1-.578.422 6.8 6.8 0 0 1-.781.375c-.282.114-.563.224-.844.328a7.646 7.646 0 0 1-.797.25 3.37 3.37 0 0 1 .094 1.875 3.406 3.406 0 0 1-.938 1.687L9.781 7.906l-2.469 2.469a.494.494 0 0 1-.718 0 .478.478 0 0 1-.157-.344.48.48 0 0 1 .157-.344l2.5-2.5-2.125-2.093a3.404 3.404 0 0 1 1.672-.938 3.318 3.318 0 0 1 1.859.094 25.804 25.804 0 0 1 .61-1.64c.114-.282.239-.547.374-.797.136-.25.276-.448.422-.594A.832.832 0 0 1 12.47 1c.208 0 .385.073.531.219l2.75 2.75ZM12.469 5.53a15.918 15.918 0 0 0 1.562-.578c.396-.177.677-.328.844-.453l-2.406-2.406c-.125.187-.271.479-.438.875a20.11 20.11 0 0 0-.562 1.562l-.313.969-.969-.313a2.387 2.387 0 0 0-1.656.032l3.219 3.25c.208-.521.23-1.084.063-1.688l-.313-.937.969-.313Z"/></svg>