<svg xmlns="http://www.w3.org/2000/svg" fill="currentColor" viewBox="0 0 16 16"><path d="M0 4c0-.396.189-.594.566-.594h2.86c.23 0 .346.094.346.281a.56.56 0 0 1-.141.36c-.095.114-.2.24-.315.375-.115.135-.22.281-.314.437a.98.98 0 0 0-.141.516c0 .396.136.745.408 1.047.273.302.608.453 1.006.453a1.35 1.35 0 0 0 1.022-.453c.283-.302.424-.651.424-1.047 0-.188-.042-.36-.126-.516a1.774 1.774 0 0 0-.314-.421l-.314-.375-.126-.375c0-.188.084-.282.251-.282h1.886c.23 0 .388.084.472.25.084.167.126.334.126.5V3.97c0-.146.047-.276.141-.39a.48.48 0 0 1 .393-.173h2.578c0-.041-.042-.104-.126-.187l-.314-.375-.283-.469-.126-.594c0-.479.183-.896.55-1.25A1.814 1.814 0 0 1 11.694 0c.44 0 .853.177 1.241.531.388.354.582.771.582 1.25 0 .563-.23 1.032-.692 1.407a.756.756 0 0 1-.11.093c-.031.021-.047.063-.047.125h2.42c.273 0 .493.089.66.266a.86.86 0 0 1 .252.61v1.374c0 .396-.189.594-.566.594-.167 0-.293-.042-.377-.125l-.849-.625-.503-.125c-.356 0-.634.115-.833.344-.199.229-.298.49-.298.781 0 .333.1.625.298.875.2.25.477.375.833.375.168 0 .33-.042.488-.125.157-.083.303-.182.44-.297.136-.114.272-.213.408-.297a.755.755 0 0 1 .393-.125c.377 0 .566.188.566.563v4.218a.86.86 0 0 1-.252.61.867.867 0 0 1-.66.265c-.65 0-1.136.006-1.461.016-.325.01-.56.016-.708.016h-.283l.19.187c.46.396.69.865.69 1.406 0 .48-.183.896-.55 1.25-.366.355-.79.532-1.272.532-.545 0-.996-.172-1.352-.516a1.69 1.69 0 0 1-.535-1.265c0-.292.058-.547.173-.766.116-.219.278-.432.488-.64.02-.022.057-.053.11-.095.052-.041.078-.083.078-.124H8.11a.466.466 0 0 1-.361-.157.673.673 0 0 1-.173-.344c-.084.334-.273.5-.566.5H5.124c-.189 0-.283.084-.283.25 0 .126.042.23.126.313l.691.813.126.53c0 .5-.152.881-.456 1.141A1.57 1.57 0 0 1 4.275 16c-.377 0-.718-.125-1.022-.375-.303-.25-.455-.635-.455-1.156 0-.209.047-.39.141-.547a2.18 2.18 0 0 1 .33-.422l.314-.375.158-.313c0-.166-.116-.25-.346-.25H.565c-.376 0-.565-.197-.565-.593V4Zm8.33 7.906h2.39c.397 0 .596.198.596.594a.688.688 0 0 1-.141.39 9.591 9.591 0 0 1-.299.407 6.087 6.087 0 0 0-.298.422.847.847 0 0 0-.142.469c0 .354.126.635.377.843.252.209.545.313.88.313.294 0 .566-.104.818-.313.251-.208.377-.49.377-.844a.847.847 0 0 0-.141-.468 3.997 3.997 0 0 0-.315-.422 8.561 8.561 0 0 1-.314-.39.661.661 0 0 1-.142-.407c0-.188.063-.333.189-.438a.669.669 0 0 1 .44-.156h2.483c.21 0 .315-.073.315-.219V7.5c-.042 0-.12.047-.236.14a7.642 7.642 0 0 1-.393.298 3.757 3.757 0 0 1-.503.296 1.26 1.26 0 0 1-.566.141c-.545 0-.974-.182-1.289-.547-.314-.364-.471-.807-.471-1.328 0-.458.178-.87.534-1.234.357-.365.765-.547 1.226-.547.315 0 .577.057.786.172.21.114.43.296.66.546.084.084.147.125.189.125.063 0 .094-.104.094-.312v-.969c0-.062-.036-.114-.11-.156a.47.47 0 0 0-.236-.063h-2.483c-.419 0-.629-.218-.629-.656a.864.864 0 0 1 .173-.375c.095-.125.2-.255.315-.39a2.82 2.82 0 0 0 .298-.422.871.871 0 0 0 .126-.438c0-.354-.126-.635-.377-.843a1.256 1.256 0 0 0-.817-.313c-.336 0-.624.104-.865.313-.24.208-.361.49-.361.843a.93.93 0 0 0 .141.485c.094.156.194.296.299.421l.283.407.157.375c0 .396-.2.594-.598.594H8.362c-.167 0-.251.072-.251.218v4.5c0 .042.021.063.063.063a.716.716 0 0 0 .44-.14c.126-.095.251-.194.377-.298a5.52 5.52 0 0 1 .393-.297.895.895 0 0 1 .519-.14c.545 0 .927.15 1.147.453.22.302.33.62.33.953 0 .354-.11.688-.33 1-.22.313-.602.469-1.147.469a.838.838 0 0 1-.487-.14 5.529 5.529 0 0 1-.393-.298 4.089 4.089 0 0 0-.409-.297.913.913 0 0 0-.503-.14v1.719c0 .145.073.218.22.218Z"/></svg>