<svg xmlns="http://www.w3.org/2000/svg" fill="currentColor" viewBox="0 0 16 16"><path d="M2 3.156c0-.291.115-.547.344-.765.229-.22.49-.329.781-.329h2.781c.292 0 .547.11.766.329.219.218.328.474.328.765v2.719c0 .292-.11.547-.328.766a1.05 1.05 0 0 1-.766.328H3.125c-.292 0-.552-.11-.781-.328A1.027 1.027 0 0 1 2 5.875V3.156Zm4 0c0-.062-.031-.094-.094-.094H3.125c-.063 0-.094.032-.094.094v2.719c0 .063.031.094.094.094h2.781c.063 0 .094-.032.094-.094V3.156Zm4.063 3.75a1.05 1.05 0 0 1-.766-.328 1.05 1.05 0 0 1-.328-.766V3.095c0-.292.11-.547.328-.766A1.05 1.05 0 0 1 10.062 2h2.782c.292 0 .547.11.765.328.22.219.329.474.329.766v2.719c0 .291-.11.546-.329.765a1.05 1.05 0 0 1-.765.328h-2.781Zm-.094-1.093c0 .062.031.093.094.093h2.78c.084 0 .126-.031.126-.093v-2.72c0-.062-.042-.093-.125-.093h-2.781c-.063 0-.094.031-.094.094v2.719ZM5.906 8.969c.313 0 .578.104.797.312.219.209.328.469.328.781v2.688c0 .313-.11.578-.328.797a1.085 1.085 0 0 1-.797.328H3.125a1.05 1.05 0 0 1-.766-.328 1.085 1.085 0 0 1-.328-.797v-2.688c0-.312.11-.572.328-.78.22-.21.474-.313.766-.313h2.781ZM6 10.063c0-.084-.031-.126-.094-.126H3.125c-.063 0-.094.042-.094.126v2.687c0 .083.031.125.094.125h2.781c.063 0 .094-.042.094-.125v-2.688Zm-5-6H0V1C0 .708.094.469.281.281A.973.973 0 0 1 1 0h3.031v1H1v3.063ZM1 15h3v1H1a.973.973 0 0 1-.719-.281A.974.974 0 0 1 0 15v-3.063h1V15ZM15 0c.292 0 .531.094.719.281A.973.973 0 0 1 16 1v3.063h-1V1h-3.031V0H15Zm0 11.938h1V15a.974.974 0 0 1-.281.719A.973.973 0 0 1 15 16h-3.031v-1H15v-3.063Zm-1.125 1.093c0 .23-.083.432-.25.61a.788.788 0 0 1-.594.265H11v-.875h2.031V11h.844v2.031ZM8 9h2v1H8V9Zm5 0h1v1h-1V9Zm-1 2.313h-1.375V12H9.75v-.688c0-.25.083-.453.25-.609a.879.879 0 0 1 .625-.234H12v.844Zm-.75-2.344V8.28H9v-.875h2.25c.25 0 .453.089.61.266.156.177.234.38.234.61v.687h-.844ZM8.406 7.594a.807.807 0 0 1-.25.593.811.811 0 0 1-.593.25H4v-.843h3.563V2h.843v5.594ZM2.094 7.5H3.28v1H2.094v-1Zm5.469 4.844c0-.25.088-.459.265-.625a.864.864 0 0 1 .61-.25H9v.875h-.562V14h-.875v-1.656ZM5 5H4V4h1v1Zm7 0h-1V4h1v1Zm-8 6h1v1H4v-1Z"/></svg>