<svg xmlns="http://www.w3.org/2000/svg" fill="currentColor" viewBox="0 0 16 16"><path d="M14.75 12.813c.083.145.14.28.172.406.031.125.057.25.078.375v.125c0 .416-.162.734-.484.953a1.83 1.83 0 0 1-1.047.328H5.5a1.73 1.73 0 0 1-1.016-.344c-.323-.229-.484-.552-.484-.969a.85.85 0 0 1 .047-.437c.052-.125.12-.27.203-.438l4-7C8.563 5.271 8.98 5 9.5 5s.938.27 1.25.813l4 7Zm-.75.812a.558.558 0 0 1-.047-.14.865.865 0 0 0-.078-.204l-4-6.969c-.083-.166-.156-.26-.219-.28A.514.514 0 0 0 9.5 6a.514.514 0 0 0-.156.031c-.063.021-.146.115-.25.282L5.125 13.28c-.083.167-.125.281-.125.344v.063c0 .124.068.208.203.25.136.041.234.062.297.062h7.969c.083 0 .166-.01.25-.031.062-.021.125-.047.187-.078.063-.032.094-.089.094-.172v-.094Zm-4.5-2.469a.338.338 0 0 1-.25-.094c-.063-.062-.115-.24-.156-.53L8.938 8.5c0-.208.057-.36.171-.453a.58.58 0 0 1 .375-.14.58.58 0 0 1 .375.14c.115.094.172.245.172.453l-.125 2.031c-.041.292-.094.469-.156.531a.338.338 0 0 1-.25.094Zm0 .813c.375 0 .563.187.563.562a.55.55 0 0 1-.157.406.55.55 0 0 1-.406.157.55.55 0 0 1-.406-.156.55.55 0 0 1-.156-.407.55.55 0 0 1 .156-.406.55.55 0 0 1 .406-.156ZM5.5 5c.333 0 .5.167.5.5 0 .125-.047.24-.14.344A.462.462 0 0 1 5.5 6h-4a.478.478 0 0 1-.344-.156A.478.478 0 0 1 1 5.5c0-.146.052-.266.156-.36A.503.503 0 0 1 1.5 5h4Zm0-2c.333 0 .5.167.5.5 0 .125-.047.24-.14.344A.462.462 0 0 1 5.5 4h-4a.478.478 0 0 1-.344-.156A.478.478 0 0 1 1 3.5c0-.146.052-.266.156-.36A.503.503 0 0 1 1.5 3h4Zm0-2c.333 0 .5.167.5.5 0 .125-.047.24-.14.344A.462.462 0 0 1 5.5 2h-4a.478.478 0 0 1-.344-.156A.478.478 0 0 1 1 1.5c0-.146.052-.266.156-.36A.503.503 0 0 1 1.5 1h4Z"/></svg>