<svg xmlns="http://www.w3.org/2000/svg" fill="currentColor" viewBox="0 0 16 16"><path d="M8.032 0 15 4.313v7.375L8.032 16 1 11.687V4.314L8.032 0ZM1.706 4.688v6.625l6.326 3.843 6.262-3.844V4.689L8.032.844 1.706 4.688Zm.354.718c0-.229.085-.422.257-.578a.875.875 0 0 1 .61-.234c.364 0 .62.135.77.406h8.51c.128-.27.374-.406.738-.406.428 0 .728.24.899.718 0 .271-.075.5-.225.688-.15.188-.374.281-.674.281a.794.794 0 0 1-.578-.218L4.083 10.53a.8.8 0 0 1-.257.594.845.845 0 0 1-.61.25.917.917 0 0 1-.643-.234.752.752 0 0 1-.256-.579c0-.166.048-.317.144-.453.096-.135.209-.244.337-.328l-.192-3.56c-.364-.167-.546-.438-.546-.813Zm1.252.782.225 3.562c.043 0 .08.01.112.031.032.021.07.042.112.063l7.803-4.125H3.761c-.107.229-.256.385-.45.468ZM7.1 9.094l.995 3.219a.44.44 0 0 1 .321.124l2.762-2.03c0-.167.01-.319.032-.454a.5.5 0 0 1 .193-.328L10.28 7.437l.642-.343 1.22 2.281c.236 0 .418.083.546.25a.944.944 0 0 1 .193.594.9.9 0 0 1-.209.594c-.14.166-.359.25-.658.25a.876.876 0 0 1-.386-.094l-2.793 2c0 .27-.048.515-.145.734-.096.219-.326.328-.69.328a.856.856 0 0 1-.642-.265.852.852 0 0 1-.257-.61c0-.27.107-.479.321-.625l-.963-3.125.642-.312Zm-.418-4.281.675-1.75a.8.8 0 0 1-.257-.594c0-.23.08-.427.24-.594.161-.167.38-.25.659-.25.235 0 .439.083.61.25a.8.8 0 0 1 .257.594.878.878 0 0 1-.16.469l.995 1.874h-.835a21.29 21.29 0 0 1-.37-.765 2.312 2.312 0 0 0-.465-.703l-.61 1.469h-.739Zm-.577 1.406.096-.313h.803L6.78 6.5c.107.167.16.344.16.531 0 .292-.085.5-.257.625l.097.375-.642.344-.16-.469a.79.79 0 0 1-.563-.281.855.855 0 0 1-.209-.563c0-.229.075-.427.225-.593.15-.167.375-.25.675-.25Zm4.174-.313.096.25-.642.313-.289-.563h.835Z"/></svg>