<svg xmlns="http://www.w3.org/2000/svg" fill="currentColor" viewBox="0 0 16 16"><path d="M2.014 1.043c0-.29.093-.534.28-.731a.945.945 0 0 1 .718-.296h9.977c.29 0 .53.099.717.296.187.197.28.44.28.731V12h-.997V1.043H3.012V12h-.998V1.043Zm-.998 14.94v-1.338l2.806-1.836 2.214 1.587 2.37-1.712 1.184 1.712 3.243-1.587 2.151 1.712v1.462l-2.307-1.836-3.46 1.712-1.061-1.588-2.12 1.557-2.245-1.681-2.775 1.836ZM4.01 3.502a.46.46 0 0 1 .156-.358.502.502 0 0 1 .343-.14H7.47c.333 0 .499.166.499.498a.5.5 0 0 1-.14.342A.461.461 0 0 1 7.47 4H4.508a.477.477 0 0 1-.343-.156.476.476 0 0 1-.156-.342Zm.5 1.494h2.96c.333 0 .499.166.499.498a.5.5 0 0 1-.14.342.461.461 0 0 1-.359.156H4.508a.477.477 0 0 1-.343-.156.475.475 0 0 1-.156-.342.46.46 0 0 1 .156-.358.502.502 0 0 1 .343-.14Zm5.985 3.984h.998c.333 0 .499.166.499.498a.5.5 0 0 1-.14.343.461.461 0 0 1-.359.155h-.998a.477.477 0 0 1-.342-.155.476.476 0 0 1-.156-.343.46.46 0 0 1 .155-.358.502.502 0 0 1 .343-.14Zm0-1.992h.998c.333 0 .499.166.499.498a.5.5 0 0 1-.14.342.461.461 0 0 1-.359.156h-.998a.477.477 0 0 1-.342-.156.476.476 0 0 1-.156-.342.46.46 0 0 1 .155-.358.502.502 0 0 1 .343-.14Zm-.498-1.494a.46.46 0 0 1 .155-.358.502.502 0 0 1 .343-.14h.998c.333 0 .499.166.499.498a.5.5 0 0 1-.14.342.461.461 0 0 1-.359.156h-.998a.477.477 0 0 1-.342-.156.476.476 0 0 1-.156-.342Z"/></svg>