<svg xmlns="http://www.w3.org/2000/svg" fill="currentColor" viewBox="0 0 16 16"><path d="M1.032 9.5a4.676 4.676 0 0 0 .235 2.125c.24.667.583 1.25 1.03 1.75.449.5.996.896 1.641 1.188A4.952 4.952 0 0 0 6.001 15h8c.27 0 .504-.094.702-.281A.947.947 0 0 0 15 14a.961.961 0 0 0-.297-.703A.96.96 0 0 0 14 13H6.094a3.2 3.2 0 0 1-1.968-.656 2.674 2.674 0 0 1-1.063-1.75 3.203 3.203 0 0 1 .047-1.375 2.78 2.78 0 0 1 .594-1.14 3.27 3.27 0 0 1 1.015-.782A2.825 2.825 0 0 1 6.001 7h5.624L9.282 9.313a.954.954 0 0 0-.282.703c0 .28.094.515.282.703a.988.988 0 0 0 .718.312c.271 0 .51-.104.72-.312l3.999-4A.954.954 0 0 0 15 6.016a.954.954 0 0 0-.281-.704l-4.031-4A.988.988 0 0 0 9.969 1a.89.89 0 0 0-.687.313.89.89 0 0 0-.313.687c0 .27.104.51.313.719L11.594 5H6.219c-.645 0-1.27.115-1.874.344a5.476 5.476 0 0 0-1.61.937 4.97 4.97 0 0 0-1.156 1.422A4.633 4.633 0 0 0 1.032 9.5Z"/></svg>