<svg xmlns="http://www.w3.org/2000/svg" fill="currentColor" viewBox="0 0 16 16"><path d="M15 10a6.842 6.842 0 0 1-.804 2.375 7.06 7.06 0 0 1-1.53 1.89 7.2 7.2 0 0 1-2.096 1.266A6.824 6.824 0 0 1 8.032 16a6.854 6.854 0 0 1-2.728-.547 7.142 7.142 0 0 1-2.239-1.5 7.071 7.071 0 0 1-1.513-2.219A6.767 6.767 0 0 1 1 9c0-.938.173-1.823.52-2.656a6.892 6.892 0 0 1 1.435-2.188 7.076 7.076 0 0 1 4.793-2.125H9.67c.547 0 1.177-.01 1.892-.031L10.27.875a.492.492 0 0 1-.157-.36c0-.135.052-.255.157-.359A.484.484 0 0 1 10.617 0c.126 0 .242.052.347.156l1.829 1.594c.189.208.284.448.284.719 0 .27-.095.51-.284.719l-1.797 1.687a.484.484 0 0 1-.347.156.484.484 0 0 1-.347-.156.492.492 0 0 1-.158-.36c0-.135.053-.255.158-.359L11.563 3H8.032a5.87 5.87 0 0 0-2.35.469A6.127 6.127 0 0 0 3.775 4.75a6.017 6.017 0 0 0-1.293 1.906A5.841 5.841 0 0 0 2.009 9c0 .833.158 1.615.473 2.344a6.01 6.01 0 0 0 1.293 1.906 6.124 6.124 0 0 0 1.907 1.281 5.872 5.872 0 0 0 2.35.469c.756 0 1.471-.125 2.144-.375a5.728 5.728 0 0 0 1.781-1.047A6.378 6.378 0 0 0 13.266 12c.357-.604.599-1.27.725-2H15Z"/></svg>