<svg xmlns="http://www.w3.org/2000/svg" fill="currentColor" viewBox="0 0 16 16"><path d="M12.962 11h.997v3a.99.99 0 0 1-.28.703.943.943 0 0 1-.717.297h-9.97a.957.957 0 0 1-.702-.297.962.962 0 0 1-.296-.703V9.5L.872 10.875a.492.492 0 0 1-.716 0A.478.478 0 0 1 0 10.531c0-.125.052-.24.156-.344l1.589-1.906C1.953 8.094 2.19 8 2.462 8c.27 0 .508.094.716.281l1.683 1.906c.228.23.228.459 0 .688-.25.23-.488.23-.717 0L2.991 9.5V14h9.971v-3Zm2.867-5.844c.228.23.228.459 0 .688l-1.683 1.875A1.038 1.038 0 0 1 13.43 8a1.04 1.04 0 0 1-.716-.281l-1.59-1.875a.478.478 0 0 1-.155-.344c0-.125.052-.24.156-.344.228-.229.467-.229.716 0L12.962 6.5V2h-9.97v3h-.998V2a.95.95 0 0 1 .296-.719A.984.984 0 0 1 2.991 1h9.971c.29 0 .53.094.717.281.187.188.28.427.28.719v4.5l1.153-1.344c.229-.229.467-.229.717 0Z"/></svg>