<svg xmlns="http://www.w3.org/2000/svg" fill="currentColor" viewBox="0 0 16 16"><path d="m5.036 11.005 2.05-2.03-2.05-1.966 1.009-1 2.05 1.999L10.08 6.01l1.01.999-2.05 1.967 2.05 2.029-1.01.999-1.986-2.03-2.05 2.03-1.009-1Zm-3.027-1a5.84 5.84 0 0 0 .725 1.999 6.388 6.388 0 0 0 1.309 1.576 5.73 5.73 0 0 0 1.781 1.046c.673.25 1.388.375 2.144.375.841 0 1.624-.156 2.35-.468a6.126 6.126 0 0 0 1.907-1.28 6.01 6.01 0 0 0 1.293-1.905 5.831 5.831 0 0 0 .473-2.341 5.83 5.83 0 0 0-.473-2.342 6.01 6.01 0 0 0-1.293-1.904 6.127 6.127 0 0 0-1.907-1.28 5.878 5.878 0 0 0-2.35-.468H3.491l1.261 1.155a.491.491 0 0 1 .158.359.491.491 0 0 1-.158.359.484.484 0 0 1-.347.156.484.484 0 0 1-.346-.156L2.26 3.2a1.036 1.036 0 0 1-.284-.718c0-.27.095-.51.284-.718L4.091.172c.23-.23.462-.23.693 0A.491.491 0 0 1 4.94.53a.491.491 0 0 1-.157.359L3.49 2.014c.883.02 1.671.03 2.365.03h2.396c.946.042 1.83.25 2.649.625.82.375 1.534.874 2.144 1.499a6.885 6.885 0 0 1 1.435 2.185A6.83 6.83 0 0 1 15 9.007c0 .978-.184 1.889-.552 2.732a7.066 7.066 0 0 1-1.513 2.216 7.142 7.142 0 0 1-2.24 1.499A6.86 6.86 0 0 1 7.969 16c-.903 0-1.75-.156-2.538-.468a7.429 7.429 0 0 1-2.112-1.265 6.709 6.709 0 0 1-1.53-1.888A7.031 7.031 0 0 1 1 10.006h1.009Z"/></svg>