<svg xmlns="http://www.w3.org/2000/svg" fill="currentColor" viewBox="0 0 16 16"><path d="M9 .5c0-.125.047-.24.14-.344A.462.462 0 0 1 9.5 0c.146 0 .266.052.36.156.093.104.14.219.14.344v15c0 .333-.167.5-.5.5-.333 0-.5-.167-.5-.5V.5Zm-3 0c0-.125.047-.24.14-.344A.462.462 0 0 1 6.5 0c.146 0 .266.052.36.156A.51.51 0 0 1 7 .5v15c0 .333-.167.5-.5.5-.333 0-.5-.167-.5-.5V.5Zm6.156 4.375c-.25-.23-.25-.469 0-.719A.478.478 0 0 1 12.5 4c.125 0 .24.052.344.156l2.875 3.094c.187.208.281.448.281.719 0 .27-.094.5-.281.687l-2.875 3.156a.494.494 0 0 1-.719 0 .494.494 0 0 1 0-.718l2.719-2.969c.125-.104.125-.219 0-.344l-2.688-2.906Zm-11 2.906c-.125.125-.125.24 0 .344l2.719 2.969a.494.494 0 0 1 0 .719.494.494 0 0 1-.719 0L.281 8.655A.935.935 0 0 1 0 7.97c0-.271.094-.51.281-.719l2.875-3.094A.478.478 0 0 1 3.5 4c.125 0 .24.052.344.156.25.25.25.49 0 .719L1.156 7.781Z"/></svg>