<svg xmlns="http://www.w3.org/2000/svg" fill="currentColor" viewBox="0 0 16 16"><path d="M0 10.563c0-.355.167-.542.5-.563.125.02.24.078.344.172a.462.462 0 0 1 .156.36v3.75a.245.245 0 0 0 .047-.063.443.443 0 0 1 .078-.094L14.344 1H10.5c-.292 0-.458-.146-.5-.437 0-.355.167-.542.5-.563H15c.292 0 .531.099.719.297.187.198.281.443.281.734V5.5c0 .354-.167.542-.5.563a.674.674 0 0 1-.344-.172.462.462 0 0 1-.156-.36v-3.75L1.719 15H5.5c.292 0 .458.146.5.438 0 .354-.167.541-.5.562H1a.947.947 0 0 1-.719-.297A1.027 1.027 0 0 1 0 14.97v-4.406ZM9 14h5V9h1v5c0 .27-.094.505-.281.703A.947.947 0 0 1 14 15H9v-1ZM2 1h5v1H2v5H1V2c0-.292.099-.531.297-.719A.988.988 0 0 1 2 1Z"/></svg>