<svg xmlns="http://www.w3.org/2000/svg" fill="currentColor" viewBox="0 0 16 16"><path d="M15.5 9c.125 0 .24.047.344.14A.462.462 0 0 1 16 9.5a.462.462 0 0 1-.156.36.503.503 0 0 1-.344.14H.5c-.333 0-.5-.167-.5-.5 0-.333.167-.5.5-.5h15Zm0-3c.125 0 .24.047.344.14A.462.462 0 0 1 16 6.5a.462.462 0 0 1-.156.36.503.503 0 0 1-.344.14H.5C.167 7 0 6.833 0 6.5c0-.333.167-.5.5-.5h15Zm-7.281 8.844c-.125.125-.24.125-.344 0l-2.969-2.719a.494.494 0 0 0-.718 0 .494.494 0 0 0 0 .719l3.156 2.875A.935.935 0 0 0 8.03 16c.271 0 .51-.094.719-.281l3.094-2.875A.478.478 0 0 0 12 12.5a.478.478 0 0 0-.156-.344c-.25-.25-.49-.25-.719 0l-2.906 2.688Zm2.906-11c.23.25.469.25.719 0A.478.478 0 0 0 12 3.5a.478.478 0 0 0-.156-.344L8.75.281A1.043 1.043 0 0 0 8.031 0c-.27 0-.5.094-.687.281L4.187 3.156a.494.494 0 0 0 0 .719.494.494 0 0 0 .72 0l2.968-2.719c.104-.125.219-.125.344 0l2.906 2.688Z"/></svg>