<svg xmlns="http://www.w3.org/2000/svg" fill="currentColor" viewBox="0 0 16 16"><path d="M7 5.022a7.8 7.8 0 0 1 3.11.624 8.062 8.062 0 0 1 4.266 4.256c.416.967.624 2 .624 3.102v.998c0 .27-.094.504-.281.702A.948.948 0 0 1 14 15a.962.962 0 0 1-.703-.296.958.958 0 0 1-.297-.702v-.998c0-.831-.156-1.61-.469-2.338a6.004 6.004 0 0 0-1.281-1.902 6.021 6.021 0 0 0-1.906-1.278A5.898 5.898 0 0 0 7 7.018H4.406L6.72 9.294a.95.95 0 0 1 .28.702.95.95 0 0 1-.281.701.989.989 0 0 1-.719.312.989.989 0 0 1-.719-.312l-4-3.991A.932.932 0 0 1 1 6.02c0-.27.094-.51.281-.717l4.032-3.991A.989.989 0 0 1 6.03 1c.271 0 .5.104.688.312a.887.887 0 0 1 .312.686c0 .27-.104.509-.312.717L4.406 5.022H7Z"/></svg>