<svg xmlns="http://www.w3.org/2000/svg" fill="currentColor" viewBox="0 0 16 16"><path d="M11 14V8c0-.292.094-.531.281-.719A.974.974 0 0 1 12 7h3c.27 0 .505.094.703.281A.947.947 0 0 1 16 8v6a.947.947 0 0 1-.297.719A.988.988 0 0 1 15 15h-3a.974.974 0 0 1-.719-.281A.974.974 0 0 1 11 14ZM4 2c0-.292.094-.531.281-.719A.973.973 0 0 1 5 1h8c.27 0 .505.094.703.281A.947.947 0 0 1 14 2v4h-1V2H5v6h4v1H5a.973.973 0 0 1-.719-.281A.973.973 0 0 1 4 8V2ZM0 12V5c0-.292.094-.531.281-.719A.973.973 0 0 1 1 4h2v1H1v7h9v1H1a.947.947 0 0 1-.719-.297A.988.988 0 0 1 0 12Zm12 2h3V8h-3v6Zm-8 .5c0-.333.167-.5.5-.5h3c.125 0 .24.047.344.14A.462.462 0 0 1 8 14.5c0 .125-.052.24-.156.344A.478.478 0 0 1 7.5 15h-3a.462.462 0 0 1-.36-.156A.503.503 0 0 1 4 14.5Z"/></svg>