<svg xmlns="http://www.w3.org/2000/svg" fill="currentColor" viewBox="0 0 16 16"><path d="m0 8.467 1.667-3.215L3.2 8.467H2.133c0 .892.167 1.73.5 2.51A6.655 6.655 0 0 0 4 13.038a6.284 6.284 0 0 0 4.533 1.892c.89 0 1.723-.168 2.5-.503a6.42 6.42 0 0 0 2.034-1.372 6.453 6.453 0 0 0 1.366-2.043 6.33 6.33 0 0 0 .5-2.511 6.33 6.33 0 0 0-.5-2.511 6.452 6.452 0 0 0-1.366-2.043 6.42 6.42 0 0 0-2.034-1.372 6.255 6.255 0 0 0-2.5-.503V1a7.24 7.24 0 0 1 2.917.586 7.544 7.544 0 0 1 3.967 3.984A7.33 7.33 0 0 1 16 8.5a7.37 7.37 0 0 1-.583 2.913 7.531 7.531 0 0 1-1.6 2.394 7.546 7.546 0 0 1-2.367 1.607c-.9.39-1.872.586-2.917.586a7.282 7.282 0 0 1-2.9-.586A7.361 7.361 0 0 1 3.25 13.79a7.732 7.732 0 0 1-1.6-2.41 7.371 7.371 0 0 1-.583-2.913H0Zm6-2.679c0-.156.05-.285.15-.385.1-.1.217-.15.35-.15l.067.033c.11 0 .177.01.2.033l4.966 2.78c.178.11.267.261.267.451s-.089.34-.267.452l-4.966 2.612a.23.23 0 0 0-.1.017.232.232 0 0 1-.1.016c-.023.023-.045.034-.067.034a.509.509 0 0 1-.35-.134.469.469 0 0 1-.15-.368V5.788Z"/></svg>