<svg xmlns="http://www.w3.org/2000/svg" fill="currentColor" viewBox="0 0 16 16"><path d="M2.625 2H2.5a.503.503 0 0 1-.344-.14A.462.462 0 0 1 2 1.5c0-.125.052-.24.156-.344A.478.478 0 0 1 2.5 1h11c.146 0 .266.052.36.156.093.104.14.219.14.344 0 .333-.167.5-.5.5h-.094L15 5v1a.973.973 0 0 1-.281.719A.974.974 0 0 1 14 7a.988.988 0 0 1-.703-.281A.947.947 0 0 1 13 6a.973.973 0 0 1-.281.719A.974.974 0 0 1 12 7a.988.988 0 0 1-.703-.281A.947.947 0 0 1 11 6a.973.973 0 0 1-.281.719A.974.974 0 0 1 10 7a.988.988 0 0 1-.703-.281A.947.947 0 0 1 9 6a.973.973 0 0 1-.281.719A.973.973 0 0 1 8 7a.988.988 0 0 1-.703-.281A.947.947 0 0 1 7 6a.973.973 0 0 1-.281.719A.973.973 0 0 1 6 7a.988.988 0 0 1-.703-.281A.947.947 0 0 1 5 6a.973.973 0 0 1-.281.719A.973.973 0 0 1 4 7a.988.988 0 0 1-.703-.281A.947.947 0 0 1 3 6a.973.973 0 0 1-.281.719A.973.973 0 0 1 2 7a.988.988 0 0 1-.703-.281A.947.947 0 0 1 1 6V5l1.625-3ZM3 8v6h6V9.5c0-.125.052-.24.156-.344A.478.478 0 0 1 9.5 9h2c.146 0 .266.052.36.156.093.104.14.219.14.344V14h1V8h1v7h-3v-5h-1v5H2V8h1Zm1 4.5v-3c0-.125.052-.24.156-.344A.478.478 0 0 1 4.5 9h3c.146 0 .266.052.36.156.093.104.14.219.14.344v3c0 .333-.167.5-.5.5h-3a.503.503 0 0 1-.344-.14A.462.462 0 0 1 4 12.5ZM10.844 5l-.688-3H8.5v3h2.344ZM5.188 5H7.5V2H5.875l-.688 3ZM2.405 5h1.75l.688-3H3.719L2.406 5Zm8.781-3 .688 3h1.75L12.28 2h-1.094ZM5 10v2h2v-2H5Z"/></svg>