<svg xmlns="http://www.w3.org/2000/svg" fill="currentColor" viewBox="0 0 16 16"><path d="m2.061 4.03 10.925-.92.977 11.428a.697.697 0 0 1-.137.429.565.565 0 0 1-.412.214l-9.736.797a.758.758 0 0 1-.442-.138.549.549 0 0 1-.229-.414L2.061 4.03Zm9.674 7.781v-4.81H9.813v4.81h1.922ZM4.472 2.834c0-.408.076-.781.229-1.118a2.901 2.901 0 0 1 2.64-1.7c.712 0 1.322.214 1.83.643.51.429.835.99.977 1.685l-1.037.092c-.102-.49-.326-.843-.672-1.057-.346-.214-.763-.322-1.251-.322-.509.041-.9.215-1.175.521-.275.306-.422.695-.442 1.164l-1.1.092Zm4.73 8.977v-3.83H7.28v3.83h1.922Zm-4.486 0H6.64v-2.88H4.716v2.88Z"/></svg>