<svg xmlns="http://www.w3.org/2000/svg" fill="currentColor" viewBox="0 0 16 16"><path d="M14.411 6.55c.402.402.598.876.589 1.423a2.041 2.041 0 0 1-.589 1.422l-4.954 5.003c-.438.402-.921.602-1.45.602-.493 0-.958-.2-1.396-.602L1.602 9.395A1.943 1.943 0 0 1 1 7.973c0-.547.2-1.021.602-1.422l5.009-4.977A1.901 1.901 0 0 1 8.007 1c.547 0 1.03.191 1.45.574l4.954 4.977Zm-.684 2.134A.927.927 0 0 0 14.001 8c0-.292-.091-.529-.274-.71L8.718 2.284c-.182-.182-.42-.273-.711-.273a.929.929 0 0 0-.685.273L2.314 7.29a.9.9 0 0 0-.301.697.9.9 0 0 0 .3.698l5.01 5.004c.2.2.428.3.684.3.273 0 .51-.1.711-.3l5.009-5.004Z"/></svg>