<svg xmlns="http://www.w3.org/2000/svg" fill="currentColor" viewBox="0 0 16 16"><path d="M10 16H0v-2a4.016 4.016 0 0 1 1.172-2.828A4.015 4.015 0 0 1 4 10h1a2.893 2.893 0 0 1-2.125-.875A2.893 2.893 0 0 1 2 7c0-.833.292-1.542.875-2.125A2.893 2.893 0 0 1 5 4c.833 0 1.542.292 2.125.875S8 6.167 8 7s-.292 1.542-.875 2.125A2.893 2.893 0 0 1 5 10h1c.563 0 1.083.104 1.563.313a4.064 4.064 0 0 1 2.125 2.124c.208.48.312 1 .312 1.563v2ZM9 5c0-.23.052-.417.156-.563a.96.96 0 0 1 .344-.312A.99.99 0 0 1 10 4V2c0-.125.037-.297.11-.516.072-.218.203-.437.39-.656.188-.219.448-.411.781-.578.334-.167.75-.25 1.25-.25s.906.063 1.219.188a2.2 2.2 0 0 1 .75.468c.188.188.318.401.39.64.073.24.11.475.11.704v.188l-1 .03V2a2.58 2.58 0 0 0-.016-.219.63.63 0 0 0-.156-.328 1.245 1.245 0 0 0-.437-.312c-.198-.094-.485-.141-.86-.141s-.666.052-.875.156a1.44 1.44 0 0 0-.469.344A1.782 1.782 0 0 0 11 2v2h4c.208.02.375.073.5.156.125.063.24.162.344.297.104.136.156.318.156.547v3c0 .23-.11.453-.328.672C15.453 8.89 15.229 9 15 9h-5a.99.99 0 0 1-.5-.125 1.01 1.01 0 0 1-.344-.297C9.052 8.443 9 8.25 9 8V5Zm-8 9v1h8v-1c0-.833-.292-1.542-.875-2.125A2.893 2.893 0 0 0 6 11H4c-.833 0-1.542.292-2.125.875A2.893 2.893 0 0 0 1 14Zm2-7c0 .563.198 1.036.594 1.422C3.99 8.807 4.458 9 5 9c.542 0 1.01-.193 1.406-.578C6.802 8.036 7 7.562 7 7a1.92 1.92 0 0 0-.594-1.406A1.922 1.922 0 0 0 5 5a1.92 1.92 0 0 0-1.406.594A1.922 1.922 0 0 0 3 7Zm10.656 1L13 6.844c.146-.084.266-.198.36-.344a.905.905 0 0 0 .14-.5.988.988 0 0 0-.281-.703A.947.947 0 0 0 12.5 5a.947.947 0 0 0-.719.297A.988.988 0 0 0 11.5 6a.91.91 0 0 0 .14.5c.094.146.214.26.36.344L11.406 8h2.25Z"/></svg>