<svg xmlns="http://www.w3.org/2000/svg" fill="currentColor" viewBox="0 0 16 16"><path d="M15 15V7H7v8h8Zm.5-9c.333 0 .5.167.5.5v9c0 .333-.167.5-.5.5h-9c-.333 0-.5-.167-.5-.5v-9c0-.333.167-.5.5-.5h9ZM6.25 1.844a.478.478 0 0 1 .156.343c0 .105-.052.23-.156.376L4.562 4.25a.511.511 0 0 1-.718.016.462.462 0 0 1-.156-.36c0-.104.052-.229.156-.375l.844-.844H2.5c-.417 0-.77.146-1.063.438A1.446 1.446 0 0 0 1 4.188v2.406c0 .333-.167.5-.5.5-.333 0-.5-.167-.5-.5V4.187C0 3.5.245 2.912.734 2.423A2.407 2.407 0 0 1 2.5 1.687h2.188L3.844.845A.478.478 0 0 1 3.688.5c0-.125.052-.24.156-.344A.416.416 0 0 1 4.188 0c.166 0 .291.052.375.156L6.25 1.844Z"/></svg>