<svg xmlns="http://www.w3.org/2000/svg" fill="currentColor" viewBox="0 0 16 16"><path d="M7.875 5.781v-1.5c0-.104.02-.187.063-.25a.444.444 0 0 1-.063-.25v-2.5c0-.375.188-.562.563-.562h4c.312 0 .5.166.562.5h.219c.479 0 .927.166 1.344.5.416.333.656.74.718 1.218l.125.782h.031c.376 0 .563.187.563.562v1.5a.55.55 0 0 1-.156.407c-.146.104-.281.156-.406.156h-.47a1.238 1.238 0 0 1-.437.718c-.25.188-.531.282-.844.282-.312 0-.593-.094-.843-.282a1.729 1.729 0 0 1-.469-.718h-.906a1.238 1.238 0 0 1-.438.718c-.25.188-.531.282-.844.282-.312 0-.593-.094-.843-.282a1.728 1.728 0 0 1-.469-.718h-.438a.55.55 0 0 1-.406-.157c-.104-.083-.156-.218-.156-.406Zm-6.438-.843 1.094-.125c.021.125.063.27.125.437.063.167.25.313.563.438V4.063c-.48-.188-.865-.407-1.156-.657a1.623 1.623 0 0 1-.297-.453 1.71 1.71 0 0 1-.141-.734c0-.23.042-.438.125-.625a1.98 1.98 0 0 1 .281-.469c.146-.146.308-.26.485-.344.177-.083.411-.146.703-.187V0h.594v.594a2.17 2.17 0 0 1 1.078.39c.302.22.494.558.578 1.016l-1.032.125a1.105 1.105 0 0 0-.218-.406.75.75 0 0 0-.407-.25v1.625c.5.125.928.297 1.282.515.354.22.531.62.531 1.204 0 .354-.057.645-.172.875A1.47 1.47 0 0 1 5 6.234a2.25 2.25 0 0 1-.61.313 3.07 3.07 0 0 1-.577.14v.657h-.594v-.657c-.542-.083-.948-.26-1.219-.53a2.774 2.774 0 0 1-.344-.516 2.231 2.231 0 0 1-.218-.704Zm9.063 8.968.438-.187a1.282 1.282 0 0 1 0-.688l-.407-.187c-.083-.042-.13-.089-.14-.14a.213.213 0 0 1 .015-.142l.156-.406c.063-.104.126-.156.188-.156.02 0 .073.02.156.063l.375.156a3.25 3.25 0 0 1 .235-.266c.072-.073.171-.14.296-.203l-.156-.438c-.041-.104-.02-.187.063-.25l.469-.187c.02 0 .036-.005.046-.016.01-.01.026-.015.047-.015.042 0 .073.015.094.047.02.03.052.067.094.109l.156.438c.063-.021.12-.037.172-.047a.88.88 0 0 1 .172-.016c.041 0 .166.02.375.063l.156-.407c.063-.104.135-.156.219-.156.02 0 .036.005.047.016.01.01.026.015.046.015l.438.219c.083.042.104.135.063.281l-.188.406c.208.126.365.292.469.5l.437-.156h.094c.083 0 .156.042.219.125a.79.79 0 0 0 .094.188 1.3 1.3 0 0 1 .062.219c.02.145-.031.24-.156.28l-.406.157c.02.25.01.49-.032.719l.406.187c.126.042.167.136.126.281l-.157.407a.232.232 0 0 1-.156.11.984.984 0 0 1-.156.015l-.406-.188a1.72 1.72 0 0 1-.235.25 4.17 4.17 0 0 1-.265.219l.156.406c.041.125-.01.23-.156.313l-.344.125c-.021.02-.063.031-.125.031-.084 0-.156-.052-.219-.156l-.156-.406c-.084.02-.198.03-.344.03-.146 0-.26-.01-.344-.03l-.187.406c-.042.083-.104.125-.188.125a.278.278 0 0 1-.125-.031l-.375-.157c-.146-.062-.187-.166-.125-.312l.188-.406c-.23-.167-.386-.334-.469-.5l-.438.156c-.02 0-.036.005-.046.015-.01.01-.026.016-.047.016-.063 0-.125-.052-.188-.156l-.156-.406c-.063-.146-.02-.24.125-.282ZM12.375 3.72V1.344H8.5v2.375h3.875Zm.563 11.031c.354 0 .666-.13.937-.39.27-.261.406-.568.406-.922 0-.376-.135-.693-.406-.954-.27-.26-.583-.39-.938-.39-.354 0-.661.13-.921.39s-.391.579-.391.954c0 .354.13.661.39.921.261.26.568.391.922.391ZM5 9.125C5 9.042 5.042 9 5.125 9h.75c.083 0 .125.042.125.125v5.75c0 .083-.042.125-.125.125h-.75C5.042 15 5 14.958 5 14.875v-5.75Zm3.5-3.406h.406c.063-.292.219-.532.469-.719.25-.188.52-.281.813-.281.291 0 .562.093.812.281.25.188.406.427.469.719h.937c.063-.292.219-.532.469-.719.25-.188.52-.281.813-.281.291 0 .562.093.812.281.25.188.406.427.469.719h.406V4.344H8.5v1.375Zm-.031 4.937v-.219c0-.062.041-.093.125-.093h.375a.962.962 0 0 1 .156-.375l-.25-.281c-.104-.063-.104-.115 0-.157L9 9.375a.156.156 0 0 1 .188 0l.25.281c.083-.062.208-.114.374-.156v-.375c0-.083.042-.125.126-.125h.218c.063 0 .094.042.094.125v.344c.104.02.24.073.406.156l.25-.25c.063-.063.115-.063.156 0l.157.156c.062.042.062.094 0 .156l-.25.25c.083.167.135.303.156.407h.344c.083 0 .125.031.125.094v.218c0 .084-.042.125-.125.125h-.344c0 .125-.052.26-.156.406l.25.22a.156.156 0 0 1 0 .187l-.156.125c-.042.104-.094.104-.157 0l-.25-.219a1.737 1.737 0 0 1-.406.156V12c0 .063-.031.094-.094.094h-.219c-.083 0-.124-.031-.124-.094v-.344a.793.793 0 0 1-.376-.187l-.25.25c-.062.062-.124.062-.187 0l-.125-.125c-.063-.063-.063-.125 0-.188l.25-.25a2.074 2.074 0 0 1-.156-.375h-.375c-.084 0-.125-.041-.125-.125ZM3.125 11h.75c.083 0 .125.042.125.125v3.75c0 .083-.042.125-.125.125h-.75C3.042 15 3 14.958 3 14.875v-3.75c0-.083.042-.125.125-.125ZM0 16v-.5h7v.5H0Zm1-3.875c0-.083.042-.125.125-.125h.75c.083 0 .125.042.125.125v2.75c0 .083-.042.125-.125.125h-.75C1.042 15 1 14.958 1 14.875v-2.75Zm13.75-8.406-.094-.688c-.062-.312-.229-.594-.5-.844a1.49 1.49 0 0 0-.937-.343H13v1.875h1.75ZM9.562 6.344c.146.25.355.375.626.375.27 0 .479-.125.624-.375.042-.125.063-.23.063-.313a.99.99 0 0 0-.063-.312c-.145-.25-.354-.375-.624-.375-.271 0-.48.125-.626.375a1.045 1.045 0 0 0-.062.312c0 .084.02.188.063.313Zm3.5-.625a1.045 1.045 0 0 0-.062.312c0 .084.02.188.063.313.145.25.354.375.624.375.271 0 .48-.125.626-.375a1.05 1.05 0 0 0 .062-.313.99.99 0 0 0-.063-.312c-.145-.25-.354-.375-.624-.375-.271 0-.48.125-.626.375Zm-3.25 4.25a.663.663 0 0 0-.374.375.537.537 0 0 0-.032.219c0 .104.01.177.031.218a.699.699 0 0 0 .313.375c.02 0 .042.01.063.031.041 0 .083.006.124.016.042.01.084.016.126.016.083 0 .145-.01.187-.031.23-.084.375-.22.438-.407a.536.536 0 0 0 .03-.219.537.537 0 0 0-.03-.218l-.063-.063c-.042-.125-.146-.229-.313-.312-.02 0-.03-.005-.03-.016 0-.01-.011-.015-.032-.015a.555.555 0 0 0-.438.031Zm-6-4.219c.167 0 .344-.042.532-.125.187-.083.281-.302.281-.656 0-.292-.089-.48-.266-.563a2.61 2.61 0 0 0-.546-.187V5.75ZM2.72 2.594a.726.726 0 0 0 .265.219.606.606 0 0 0 .235.062V1.469a4.119 4.119 0 0 0-.313.14.437.437 0 0 0-.219.235c-.124.229-.114.479.032.75Z"/></svg>