<svg xmlns="http://www.w3.org/2000/svg" fill="currentColor" viewBox="0 0 16 16"><path d="M0 2C0 1.458.198.99.594.594A1.922 1.922 0 0 1 2 0h12c.563 0 1.037.198 1.422.594C15.807.99 16 1.458 16 2v9c0 .542-.193 1.01-.578 1.406-.386.396-.86.594-1.422.594h-1v2.344c0 .208-.068.37-.203.484a.684.684 0 0 1-.453.172c-.167 0-.292-.042-.375-.125L9.5 13.031 2 13a1.92 1.92 0 0 1-1.406-.594A1.922 1.922 0 0 1 0 11V2Zm1 0v9c0 .292.099.531.297.719A.988.988 0 0 0 2 12h8l2 2.5V12h2a.974.974 0 0 0 .719-.281A.974.974 0 0 0 15 11V2a.988.988 0 0 0-.281-.703A.947.947 0 0 0 14 1H2a.961.961 0 0 0-.703.297A.961.961 0 0 0 1 2Zm1.563 5.313 1-.125c.041.208.104.37.187.484.083.114.25.245.5.39V6.438c-.604-.167-1.01-.402-1.219-.704A1.748 1.748 0 0 1 2.72 4.72c0-.417.13-.771.39-1.063.26-.291.641-.458 1.141-.5V2.75h.563v.406c.5.042.87.183 1.109.422.24.24.39.547.453.922l-.969.125c-.062-.27-.26-.48-.593-.625v1.5c.479.146.885.323 1.218.531.334.209.5.594.5 1.157 0 .479-.13.864-.39 1.156-.26.291-.704.49-1.329.594v.656H4.25v-.625c-.958-.125-1.52-.677-1.688-1.656ZM8.5 7h4c.333 0 .5.167.5.5 0 .125-.047.24-.14.344A.462.462 0 0 1 12.5 8h-4a.478.478 0 0 1-.344-.156A.478.478 0 0 1 8 7.5c0-.146.052-.266.156-.36A.503.503 0 0 1 8.5 7Zm0-3h4c.333 0 .5.167.5.5 0 .125-.047.24-.14.344A.462.462 0 0 1 12.5 5h-4a.478.478 0 0 1-.344-.156A.478.478 0 0 1 8 4.5c0-.146.052-.266.156-.36A.503.503 0 0 1 8.5 4ZM5.594 7.344a.698.698 0 0 0-.125-.422c-.084-.115-.302-.224-.657-.328v1.531c.23-.042.417-.12.563-.234.146-.115.219-.297.219-.547Zm-1.344-2V4c-.25.083-.411.188-.484.313a.693.693 0 0 0-.11.343c0 .146.031.266.094.36.063.093.23.203.5.328Z"/></svg>