<svg xmlns="http://www.w3.org/2000/svg" fill="currentColor" viewBox="0 0 16 16"><path d="m1 4 4.139-4h7.242c.28 0 .523.094.727.281a.931.931 0 0 1 .308.719v2H12.38V1H6.173v3a.931.931 0 0 1-.307.719 1.083 1.083 0 0 1-.76.281H2.035v10H12.38v-2h1.035v2a.956.956 0 0 1-.291.719 1.026 1.026 0 0 1-.744.281H2.035c-.302 0-.55-.094-.744-.281A.956.956 0 0 1 1 15V4Zm9.894 5.313 1.034-.126c.043.167.092.303.146.407a.926.926 0 0 0 .307.312.288.288 0 0 0 .13.078c.043.01.086.037.129.079V8.437a3.557 3.557 0 0 1-1.132-.578c-.302-.24-.453-.62-.453-1.14 0-.834.442-1.344 1.326-1.532a.548.548 0 0 0 .13-.015.549.549 0 0 1 .129-.016V4.75h.582v.406c.107 0 .172.01.194.032.452.062.787.208 1.002.437.216.23.356.52.42.875l-1.002.125a1 1 0 0 0-.42-.531L13.222 6v1.5l.194.063c.474.145.857.322 1.147.53.291.21.437.574.437 1.095 0 .458-.118.828-.356 1.109-.237.281-.646.484-1.228.61a.233.233 0 0 0-.097.015.232.232 0 0 1-.097.015v.657h-.582v-.625a.55.55 0 0 1-.13-.016.55.55 0 0 0-.129-.015c-.84-.188-1.336-.73-1.487-1.626ZM3.069 7.5c0-.146.054-.266.162-.36A.53.53 0 0 1 3.587 7h4.138c.345 0 .518.167.518.5 0 .125-.049.24-.146.344A.486.486 0 0 1 7.725 8H3.587a.502.502 0 0 1-.356-.156.47.47 0 0 1-.162-.344Zm.518 3.5h4.138c.345 0 .518.167.518.5 0 .125-.049.24-.146.344a.485.485 0 0 1-.372.156H3.587a.502.502 0 0 1-.356-.156.47.47 0 0 1-.162-.344c0-.146.054-.266.162-.36a.53.53 0 0 1 .356-.14Zm0-2h4.138c.345 0 .518.167.518.5 0 .125-.049.24-.146.344a.486.486 0 0 1-.372.156H3.587a.502.502 0 0 1-.356-.156.47.47 0 0 1-.162-.344c0-.146.054-.266.162-.36A.53.53 0 0 1 3.587 9Zm9.635 1.125a.232.232 0 0 0 .097-.016.232.232 0 0 1 .097-.015c.172-.063.312-.146.42-.25a.814.814 0 0 0 .194-.5.68.68 0 0 0-.097-.39c-.065-.095-.237-.194-.517-.298l-.194-.062v1.531Zm-.84-2.906.128.062.13.063V6c-.13.02-.216.052-.259.094-.108.062-.194.13-.259.203-.064.073-.097.193-.097.36 0 .103.017.197.049.28.032.084.135.178.307.282Z"/></svg>