<svg xmlns="http://www.w3.org/2000/svg" fill="currentColor" viewBox="0 0 16 16"><path d="M6 0h7c.292 0 .531.099.719.297A.988.988 0 0 1 14 1v14a.974.974 0 0 1-.281.719.935.935 0 0 1-.688.281h-10a1.03 1.03 0 0 1-.734-.281A.947.947 0 0 1 2 15V4l4-4Zm7.031 15L13 1H7v3a.947.947 0 0 1-.297.719A.988.988 0 0 1 6 5H3v10h10.031ZM8.094 8.156l1.031-.094c.042.23.125.428.25.594.083.104.146.172.188.203a.99.99 0 0 0 .218.11V7.25c-.562-.167-.958-.39-1.187-.672-.23-.281-.344-.65-.344-1.11 0-.437.151-.801.453-1.093a1.763 1.763 0 0 1 1.078-.5v-.469h.563v.469c.875.083 1.375.552 1.5 1.406l-.938.125c-.041-.229-.114-.39-.219-.484a.969.969 0 0 0-.343-.203v1.593c.646.167 1.083.386 1.312.657.23.27.344.635.344 1.093 0 .521-.156.928-.469 1.22-.312.29-.708.489-1.187.593v.75H9.78v-.719c-.479-.062-.854-.229-1.125-.5-.27-.27-.458-.687-.562-1.25ZM3.969 7.5c0-.146.052-.266.156-.36A.503.503 0 0 1 4.469 7H6.5c.333 0 .5.167.5.5 0 .125-.047.24-.14.344A.462.462 0 0 1 6.5 8H4.469a.478.478 0 0 1-.344-.156.478.478 0 0 1-.156-.344Zm0 2.031c0-.146.052-.265.156-.36a.503.503 0 0 1 .344-.14H6.5c.333 0 .5.167.5.5 0 .125-.047.24-.14.344a.462.462 0 0 1-.36.156H4.469a.478.478 0 0 1-.344-.156.478.478 0 0 1-.156-.344Zm6.375-2.094V8.97a.594.594 0 0 0 .5-.25.87.87 0 0 0 .187-.531.803.803 0 0 0-.14-.438c-.094-.146-.276-.25-.547-.313Zm-.969-1.593c.042.041.094.088.156.14a.929.929 0 0 0 .25.141V4.719c-.354.187-.531.427-.531.718 0 .125.042.26.125.407Z"/></svg>