<svg xmlns="http://www.w3.org/2000/svg" fill="currentColor" viewBox="0 0 16 16"><path d="M1 14.97V3.992L5.042 0h7.072c.274 0 .51.094.71.28.2.188.3.427.3.718v1.996h-1.01V.998H6.052v2.994c0 .291-.1.53-.3.717-.2.187-.447.281-.742.281h-3v9.98h10.104v-1.996h1.01v1.996c0 .291-.094.53-.284.717a.99.99 0 0 1-.726.281H2.01a.99.99 0 0 1-.726-.28A.965.965 0 0 1 1 14.97Zm9.662-5.676 1.01-.125c.042.166.09.302.142.406a.916.916 0 0 0 .3.311.28.28 0 0 0 .127.078.28.28 0 0 1 .126.078V8.421a3.446 3.446 0 0 1-1.105-.577c-.295-.24-.442-.619-.442-1.139 0-.831.431-1.34 1.294-1.528a.525.525 0 0 0 .127-.015.525.525 0 0 1 .126-.016v-.405h.568v.405c.105 0 .169.01.19.031.442.063.768.208.979.437.21.228.347.52.41.873l-.979.125a.996.996 0 0 0-.41-.53l-.19-.094v1.497l.19.062c.463.146.836.323 1.12.53.285.209.427.572.427 1.092 0 .458-.116.827-.348 1.107-.231.281-.631.484-1.2.608a.222.222 0 0 0-.094.016.223.223 0 0 1-.095.016v.655h-.568v-.624a.525.525 0 0 1-.126-.016.525.525 0 0 0-.127-.015c-.82-.188-1.305-.728-1.452-1.622Zm2.336.78a.07.07 0 0 0 .048-.016c.01-.01.037-.016.079-.016a.865.865 0 0 0 .41-.218.824.824 0 0 0 .19-.499.691.691 0 0 0-.095-.39c-.063-.093-.232-.192-.505-.296l-.19-.062v1.528l.063-.031Zm-.884-2.87.127.063.126.062V5.988c-.126.02-.21.052-.253.094-.105.062-.19.13-.252.202-.063.073-.095.193-.095.359 0 .104.016.197.047.28.032.084.132.177.3.281Z"/></svg>