<svg xmlns="http://www.w3.org/2000/svg" fill="currentColor" viewBox="0 0 16 16"><path d="M7.814 1c.272.219.638.422 1.095.611.458.19.955.413 1.49.671a17.64 17.64 0 0 1 1.621.895 6.24 6.24 0 0 1 1.476 1.282 6.547 6.547 0 0 1 1.08 1.85c.283.715.424 1.55.424 2.504 0 1.034-.185 1.983-.555 2.848a7.191 7.191 0 0 1-1.52 2.266 7.075 7.075 0 0 1-2.248 1.521A6.888 6.888 0 0 1 7.93 16a6.71 6.71 0 0 1-2.279-.388 6.97 6.97 0 0 1-1.957-1.073 7.097 7.097 0 0 1-1.505-1.61 6.871 6.871 0 0 1-.92-1.91 6.367 6.367 0 0 1-.204-.849 4.966 4.966 0 0 1-.059-1.103c.02-.408.078-.835.176-1.283.097-.447.292-.89.584-1.327.272-.397.599-.76.978-1.088.38-.328.765-.621 1.154-.88.39-.258.77-.497 1.14-.716.37-.218.691-.457.964-.715a1.985 1.985 0 0 1-.293.656 3.325 3.325 0 0 1-.496.566c-.195.18-.4.358-.614.537a4.611 4.611 0 0 0-.613.626c-.506.577-.813 1.109-.92 1.596-.107.487-.16.88-.16 1.178 0 .338.062.69.189 1.058.127.368.307.706.54 1.014.234.308.516.562.848.76.33.2.69.299 1.08.299.41 0 .74-.1.994-.298.253-.2.423-.428.51-.686.089-.259.093-.512.015-.76-.077-.25-.262-.433-.555-.552-.311-.12-.584-.13-.818-.03-.116.06-.223.13-.32.209a.782.782 0 0 1-.06-.656c.06-.2.205-.423.439-.671.234-.249.643-.512 1.227-.79.526-.26.93-.513 1.212-.761a3.84 3.84 0 0 0 .628-.671c.156-.219.234-.428.234-.626.097.218.15.417.16.596.01.179-.004.368-.043.567-.04.139-.088.288-.146.447.233-.1.428-.214.584-.343.156-.13.282-.243.38-.343.097-.12.185-.238.263-.358.039.298.053.562.043.79-.01.23-.034.423-.073.582a1.986 1.986 0 0 1-.146.447c.059-.02.132-.054.22-.104.087-.05.18-.094.277-.134.097-.06.204-.12.321-.18 0 .22-.039.413-.117.582a2.013 2.013 0 0 1-.262.433 2.195 2.195 0 0 1-.351.387c.175.22.4.319.672.299.272-.02.53-.12.774-.299.243-.178.453-.422.628-.73s.263-.641.263-1c0-.118-.015-.307-.044-.566-.03-.258-.141-.571-.336-.94-.195-.367-.501-.774-.92-1.222-.419-.447-1.018-.91-1.797-1.386-.409-.239-.72-.458-.934-.657a3.431 3.431 0 0 1-.468-.506c-.117-.16-.185-.299-.204-.418Zm-.906 7.276c.156-.04.205-.119.146-.238-.078-.16-.233-.19-.467-.09a.258.258 0 0 1-.117.075.258.258 0 0 0-.117.074.459.459 0 0 1-.117.09H6.5c.078.04.146.07.205.09.058.02.126.02.204 0Z"/></svg>