<svg xmlns="http://www.w3.org/2000/svg" fill="currentColor" viewBox="0 0 16 16"><path d="M1 12.156V3.844c0-.292.137-.51.41-.656L7.638.094A.794.794 0 0 1 7.984 0c.148 0 .264.031.348.094l4.582 2.281a.84.84 0 0 1 .316.281l1.644 2.781c.084.084.126.22.126.407v6.312c0 .313-.148.531-.442.656l-6.226 3.126-.237.046a.678.678 0 0 1-.11.016.677.677 0 0 1-.111-.016l-.237-.046-6.226-3.126C1.137 12.688 1 12.47 1 12.156Zm.6.063 5.72 2.906V9.594l-1.39-.719c-.274-.125-.41-.344-.41-.656V6.375L1.6 4.406v7.813Zm4.362-6.344a.756.756 0 0 1 .316.313l1.611 2.75c.064.124.095.25.095.374v6.032l2.94-1.469V7.812L9.5 7.063c-.274-.125-.41-.343-.41-.656V4.594l-4.583-2.25L1.695 3.75l4.267 2.125Zm3.54-1.813a.756.756 0 0 1 .315.313l1.675 2.781c.063.125.095.25.095.375v6l2.718-1.344V6.064l-1.328-.688c-.274-.125-.41-.354-.41-.688V2.875L7.92.625 5.266 1.969l4.235 2.093ZM2.453 8.875l3.666 1.844v.719L2.454 9.624v-.75Zm0 1.625 3.666 1.844v.719l-3.666-1.844V10.5Z"/></svg>