<svg xmlns="http://www.w3.org/2000/svg" fill="currentColor" viewBox="0 0 16 16"><path d="M0 12.485c0-1.098.363-1.959 1.09-2.581.725-.623 1.589-.934 2.589-.934.095 0 .267.025.517.073.25.05.4.098.447.147L13.536.073c.119-.024.19-.042.214-.055.024-.012.012-.018-.036-.018.167 0 .25.085.25.256V3.15a1.97 1.97 0 0 1-.571 1.428l-3.286 3.368 1.25 1.245a5.716 5.716 0 0 1 .572-.147l.267-.054a.735.735 0 0 1 .125-.019c1 0 1.864.311 2.59.934.726.622 1.089 1.483 1.089 2.581 0 .976-.333 1.806-1 2.49A3.266 3.266 0 0 1 12.571 16a3.266 3.266 0 0 1-2.428-1.025c-.667-.684-1-1.514-1-2.49 0-.366.012-.561.036-.586l.107-.44L8 10.106 6.679 11.46l.071.22a.708.708 0 0 1 .036.22 2.303 2.303 0 0 1 .071.586c0 .976-.333 1.805-1 2.489A3.266 3.266 0 0 1 3.43 16 3.266 3.266 0 0 1 1 14.975c-.667-.684-1-1.514-1-2.49Zm1.143 0c0 .635.226 1.184.678 1.648.453.464.989.695 1.608.695.619 0 1.154-.231 1.607-.695a2.28 2.28 0 0 0 .678-1.648c0-.659-.226-1.214-.678-1.666-.453-.451-.988-.677-1.607-.677-.62 0-1.155.226-1.608.677-.452.452-.678 1.007-.678 1.666Zm9.143 0c0 .635.226 1.184.678 1.648.453.464.988.695 1.607.695.62 0 1.155-.231 1.608-.695a2.28 2.28 0 0 0 .678-1.648c0-.659-.226-1.214-.678-1.666-.453-.451-.989-.677-1.608-.677-.619 0-1.154.226-1.607.677-.452.452-.678 1.007-.678 1.666Zm2.821-10.728L5.43 9.63c.095.074.178.147.25.22.071.073.154.146.25.22.071.097.136.183.196.256a6.5 6.5 0 0 1 .196.256L8 8.861l1.679 1.72c.19-.268.363-.482.517-.64.155-.16.28-.263.375-.312L8.893 7.945l3.893-3.99a1.11 1.11 0 0 0 .321-.806V1.757ZM2 3.15V.256C2 .086 2.083 0 2.25 0a.24.24 0 0 1 .179.073l4.857 4.98-.607.622-3.822-3.918V3.15c0 .293.12.561.357.805L5.786 6.59l-.607.623-2.572-2.636C2.202 4.162 2 3.686 2 3.149Z"/></svg>