<svg xmlns="http://www.w3.org/2000/svg" fill="currentColor" viewBox="0 0 16 16"><path d="m15.298 11.243.686.655-3.4 4.086-2.245-2.277.655-.717 1.59 1.622 2.714-3.369ZM9.996 3.01h.998v-.998h-.998v.998Zm-6.986 0h.998v-.998H3.01v.998ZM1.014 14.986h7.984v.998H1.014a.972.972 0 0 1-.717-.28.972.972 0 0 1-.28-.718V2.012a.97.97 0 0 1 .28-.717.971.971 0 0 1 .717-.281H3.01V.016h.998v.998h5.988V.016h.998v.998h1.996c.291 0 .53.094.717.28a.971.971 0 0 1 .281.718v7.984h-.998V4.008H1.014v10.978ZM3.01 8a.971.971 0 0 1-.717-.28.971.971 0 0 1-.28-.718.97.97 0 0 1 .28-.717.971.971 0 0 1 .717-.281c.291 0 .53.094.717.28.188.188.281.427.281.718s-.093.53-.28.717A.971.971 0 0 1 3.01 8Zm0 3.992a.971.971 0 0 1-.717-.28.972.972 0 0 1-.28-.718.97.97 0 0 1 .28-.717.971.971 0 0 1 .717-.281c.291 0 .53.094.717.28.188.188.281.427.281.718s-.093.53-.28.717a.971.971 0 0 1-.718.281ZM7.002 8a.971.971 0 0 1-.717-.28.971.971 0 0 1-.28-.718.97.97 0 0 1 .28-.717.971.971 0 0 1 .717-.281c.291 0 .53.094.717.28.188.188.281.427.281.718s-.093.53-.28.717A.971.971 0 0 1 7.001 8Zm0 3.992a.971.971 0 0 1-.717-.28.972.972 0 0 1-.28-.718.97.97 0 0 1 .28-.717.972.972 0 0 1 .717-.281c.291 0 .53.094.717.28.188.188.281.427.281.718s-.093.53-.28.717a.971.971 0 0 1-.718.281ZM10.994 8a.972.972 0 0 1-.717-.28.971.971 0 0 1-.28-.718.97.97 0 0 1 .28-.717.972.972 0 0 1 .717-.281c.291 0 .53.094.717.28.188.188.281.427.281.718s-.093.53-.28.717a.972.972 0 0 1-.718.281Zm0 3.992a.972.972 0 0 1-.717-.28.972.972 0 0 1-.28-.718.97.97 0 0 1 .28-.717.972.972 0 0 1 .717-.281c.291 0 .53.094.717.28.188.188.281.427.281.718s-.093.53-.28.717a.972.972 0 0 1-.718.281Z"/></svg>