<svg xmlns="http://www.w3.org/2000/svg" fill="currentColor" viewBox="0 0 16 16"><path d="M13 10c.833 0 1.542.292 2.125.875S16 12.167 16 13s-.292 1.542-.875 2.125A2.893 2.893 0 0 1 13 16a2.893 2.893 0 0 1-2.125-.875A2.893 2.893 0 0 1 10 13a2.696 2.696 0 0 1 .063-.594L5.375 9.844c-.292.354-.64.635-1.047.844A2.868 2.868 0 0 1 3 11a2.893 2.893 0 0 1-2.125-.875A2.893 2.893 0 0 1 0 8c0-.833.292-1.542.875-2.125A2.893 2.893 0 0 1 3 5c.583 0 1.11.156 1.578.469a3.18 3.18 0 0 1 1.078 1.187l4.563-2.562a4.223 4.223 0 0 1-.156-.516A2.52 2.52 0 0 1 10 3c0-.833.292-1.542.875-2.125A2.893 2.893 0 0 1 13 0c.833 0 1.542.292 2.125.875S16 2.167 16 3s-.292 1.542-.875 2.125A2.893 2.893 0 0 1 13 6c-.458 0-.88-.094-1.266-.281a3.054 3.054 0 0 1-.984-.75L5.969 7.625c0 .063.005.125.015.188.01.062.016.125.016.187 0 .292-.052.615-.156.969l4.593 2.5c.271-.438.63-.792 1.079-1.063.447-.27.942-.406 1.484-.406Zm0-9a1.92 1.92 0 0 0-1.406.594A1.922 1.922 0 0 0 11 3c0 .563.198 1.036.594 1.422.396.385.864.578 1.406.578.542 0 1.01-.193 1.406-.578.396-.386.594-.86.594-1.422a1.92 1.92 0 0 0-.594-1.406A1.922 1.922 0 0 0 13 1ZM3 10c.542 0 1.01-.193 1.406-.578C4.802 9.036 5 8.562 5 8a1.92 1.92 0 0 0-.594-1.406A1.922 1.922 0 0 0 3 6a1.92 1.92 0 0 0-1.406.594A1.922 1.922 0 0 0 1 8c0 .563.198 1.036.594 1.422C1.99 9.807 2.458 10 3 10Zm10 5c.542 0 1.01-.193 1.406-.578.396-.386.594-.86.594-1.422a1.92 1.92 0 0 0-.594-1.406A1.922 1.922 0 0 0 13 11a1.92 1.92 0 0 0-1.406.594A1.922 1.922 0 0 0 11 13c0 .563.198 1.037.594 1.422.396.385.864.578 1.406.578Z"/></svg>