<svg xmlns="http://www.w3.org/2000/svg" fill="currentColor" viewBox="0 0 16 16"><path d="M8.014 1 14 2.436v7.441c0 .957-.38 1.894-1.142 2.813a6.62 6.62 0 0 1-1.127 1.083c-.455.352-.891.665-1.309.938-.417.273-.784.493-1.1.66-.315.165-.482.248-.5.248L8.013 16l-.835-.38c-.056-.04-.316-.172-.78-.396a9.954 9.954 0 0 1-1.531-.953c-1.003-.742-1.731-1.474-2.186-2.197C2.227 11.352 2 10.62 2 9.877V2.436L8.014 1ZM3.002 9.877c0 .742.288 1.445.863 2.11.26.312.594.63 1.003.951.408.323.807.61 1.197.865.39.254.733.459 1.03.615.297.156.464.234.501.234l.418.205.39-.205c.018 0 .25-.117.696-.351a12.73 12.73 0 0 0 1.448-.908c1.633-1.133 2.45-2.305 2.45-3.516V3.285L8.014 2.084 3.002 3.285v6.592Zm.975-1.963V4.105l4.037-.966v4.775h4.01v1.963c0 .469-.196.928-.585 1.377-.39.45-.826.85-1.31 1.201-.482.352-.936.64-1.363.864-.427.225-.678.347-.752.366v-5.77H3.977Z"/></svg>