<svg xmlns="http://www.w3.org/2000/svg" fill="currentColor" viewBox="0 0 16 16"><path d="M0 9c0-.167.052-.333.156-.5A.937.937 0 0 1 0 8V3c0-.292.094-.531.281-.719A.973.973 0 0 1 1 2h8c.27 0 .505.094.703.281A.947.947 0 0 1 10 3h.594a3.917 3.917 0 0 1 2.594.953c.354.302.65.656.89 1.063.24.406.401.849.485 1.328L14.813 8H15c.27 0 .505.094.703.281A.947.947 0 0 1 16 9v3a.947.947 0 0 1-.297.719A.988.988 0 0 1 15 13h-1.063a2.33 2.33 0 0 1-.843 1.438A2.45 2.45 0 0 1 11.5 15a2.443 2.443 0 0 1-1.594-.563A2.476 2.476 0 0 1 9.031 13H6.937a2.331 2.331 0 0 1-.843 1.438A2.45 2.45 0 0 1 4.5 15a2.443 2.443 0 0 1-1.594-.563A2.476 2.476 0 0 1 2.031 13H1a.973.973 0 0 1-.719-.281A.974.974 0 0 1 0 12V9Zm1-1h8V3H1v5Zm0 1v3h1.031a2.537 2.537 0 0 1 .875-1.422c.459-.385.99-.578 1.594-.578.604 0 1.135.193 1.594.578.458.386.74.86.843 1.422h2.094a2.537 2.537 0 0 1 .875-1.422c.459-.385.99-.578 1.594-.578.604 0 1.135.193 1.594.578.458.386.74.86.844 1.422H15V9H1Zm9-1h3.813l-.25-1.5a2.906 2.906 0 0 0-1.032-1.797A2.94 2.94 0 0 0 10.594 4H10v4Zm0 4.5c0 .417.146.77.438 1.063.291.291.645.437 1.062.437.417 0 .77-.146 1.063-.438.291-.291.437-.645.437-1.062 0-.417-.146-.77-.438-1.063A1.446 1.446 0 0 0 11.5 11c-.417 0-.77.146-1.063.438A1.446 1.446 0 0 0 10 12.5Zm-7 0c0 .417.146.77.438 1.063.291.291.645.437 1.062.437.417 0 .77-.146 1.063-.438.291-.291.437-.645.437-1.062 0-.417-.146-.77-.438-1.063A1.446 1.446 0 0 0 4.5 11c-.417 0-.77.146-1.063.438A1.447 1.447 0 0 0 3 12.5Z"/></svg>