<svg xmlns="http://www.w3.org/2000/svg" fill="currentColor" viewBox="0 0 16 16"><path d="M11.031.01a2.18 2.18 0 0 1 1.406.704c.376.405.563.89.563 1.452l-.594 5.277c0 .292-.088.52-.265.687-.178.167-.412.25-.704.25a1.155 1.155 0 0 1-.718-.375c-.188-.208-.26-.437-.219-.687l.313-3.622c-.771.354-1.506.729-2.204 1.124a9.543 9.543 0 0 0-1.843 1.343 6.15 6.15 0 0 0-1.282 1.702C5.161 8.5 5 9.213 5 10.005c0 .832.125 1.498.375 1.998s.589.89 1.016 1.17a4.19 4.19 0 0 0 1.484.594 13.37 13.37 0 0 0 1.75.234h-.063c.292 0 .532.094.72.281a.972.972 0 0 1 .28.719c0 .291-.093.53-.28.718a.974.974 0 0 1-.72.281l-.874-.063c-.75-.083-1.47-.239-2.157-.468a5.075 5.075 0 0 1-1.812-1.046c-.521-.469-.938-1.062-1.25-1.78C3.156 11.925 3 11.045 3 10.004c0-1.04.208-1.993.625-2.857a9.064 9.064 0 0 1 1.547-2.28 10.892 10.892 0 0 1 1.969-1.67c.698-.46 1.317-.814 1.859-1.064l.313-.124-3.563-.063a1.231 1.231 0 0 1-.719-.343c-.187-.188-.26-.427-.218-.719 0-.229.104-.442.312-.64.208-.198.438-.276.688-.234h5.218Z"/></svg>