<svg xmlns="http://www.w3.org/2000/svg" fill="currentColor" viewBox="0 0 16 16"><path d="M14.813 15.127c.25.228.25.468 0 .717a.476.476 0 0 1-.343.156.476.476 0 0 1-.343-.156l-2.557-2.557a3.448 3.448 0 0 1-2.089.686c-.478 0-.93-.094-1.356-.28a3.587 3.587 0 0 1-1.107-.75 3.587 3.587 0 0 1-.749-1.107 3.339 3.339 0 0 1-.28-1.356c0-.479.093-.93.28-1.357.188-.426.437-.795.749-1.107.312-.312.68-.562 1.107-.749.426-.187.878-.28 1.356-.28.478 0 .93.093 1.356.28.427.187.796.437 1.107.749.312.312.562.68.749 1.107.187.426.28.878.28 1.357a3.35 3.35 0 0 1-.717 2.09l2.557 2.557ZM9.48 12.975c.686 0 1.273-.245 1.762-.733a2.403 2.403 0 0 0 .732-1.762c0-.687-.244-1.274-.732-1.763a2.402 2.402 0 0 0-1.762-.733c-.686 0-1.273.245-1.762.733a2.403 2.403 0 0 0-.732 1.763c0 .686.244 1.273.732 1.762a2.402 2.402 0 0 0 1.762.733Zm1.497-8.484c0 .333-.167.5-.5.5H3.495c-.332 0-.498-.167-.498-.5 0-.332.166-.499.498-.499h6.985c.332 0 .499.167.499.5ZM2.996 7.485c0-.332.166-.499.498-.499h3.18c-.332.27-.644.603-.935.998H3.494c-.332 0-.498-.166-.498-.499Zm7.982 7.486v.998h-8.98a.986.986 0 0 1-.702-.28A.945.945 0 0 1 1 14.97V.998a.96.96 0 0 1 .296-.702A.959.959 0 0 1 1.998 0h9.978c.29 0 .53.099.717.296.187.198.28.432.28.702v4.99h-.998V.998H1.998v13.973h8.98Z"/></svg>