<svg xmlns="http://www.w3.org/2000/svg" fill="currentColor" viewBox="0 0 16 16"><path d="M8 3a8.776 8.776 0 0 1 4.453 1.25 9.738 9.738 0 0 1 1.953 1.547A9.835 9.835 0 0 1 16 7.969a10.19 10.19 0 0 1-1.594 2.187 9.917 9.917 0 0 1-1.953 1.578A8.545 8.545 0 0 1 8 13h-.031a8.774 8.774 0 0 1-4.453-1.25A9.428 9.428 0 0 1 0 8a10.19 10.19 0 0 1 1.594-2.187A9.28 9.28 0 0 1 3.562 4.25a9.118 9.118 0 0 1 2.188-.938C6.5 3.104 7.25 3 8 3Zm-.031 9c1.375 0 2.666-.36 3.875-1.078 1.208-.719 2.208-1.703 3-2.953-.771-1.25-1.76-2.224-2.969-2.922A7.622 7.622 0 0 0 8 4a7.537 7.537 0 0 0-3.875 1.063C2.917 5.77 1.927 6.75 1.156 8c.771 1.25 1.755 2.23 2.953 2.938A7.455 7.455 0 0 0 7.97 12ZM8 5c.833 0 1.542.292 2.125.875S11 7.167 11 8s-.292 1.542-.875 2.125A2.893 2.893 0 0 1 8 11a2.893 2.893 0 0 1-2.125-.875A2.893 2.893 0 0 1 5 8c0-.833.292-1.542.875-2.125A2.893 2.893 0 0 1 8 5Zm1.219 2.531a.764.764 0 0 0 .562-.218A.723.723 0 0 0 10 6.78a.761.761 0 0 0-.219-.562A.761.761 0 0 0 9.22 6a.723.723 0 0 0-.531.219.761.761 0 0 0-.22.562c0 .209.074.386.22.532a.723.723 0 0 0 .53.218Z"/></svg>