<svg xmlns="http://www.w3.org/2000/svg" fill="currentColor" viewBox="0 0 16 16"><path d="m4.482 13.205.561-1.486c.146-.371.276-.717.39-1.037.114-.32.182-.49.203-.51l8.073-8.017A.478.478 0 0 1 14.052 2c.145 0 .27.052.374.155l1.403 1.393c.228.227.228.454 0 .68l-8.105 8.017c-.02.042-.197.114-.53.217a20.39 20.39 0 0 1-1.122.31l-.748.2c-.27.073-.55.15-.842.233Zm-2.12-5.107c-.124-.207-.342-.31-.654-.31-.478 0-.997.217-1.558.65-.021.02-.037.02-.047 0a.05.05 0 0 0-.047-.03c-.062-.042-.073-.083-.031-.125.041-.04.135-.144.28-.31a5.03 5.03 0 0 1 1.216-.99c.25-.144.51-.216.78-.216.249 0 .498.093.748.278.436.33.67.712.7 1.145.032.434-.046.888-.233 1.362-.187.475-.436.95-.748 1.424-.312.475-.587.929-.826 1.362-.239.433-.4.826-.483 1.176-.083.351.01.63.28.836l.063.03c.062 0 .104.011.124.032.146 0 .312-.041.5-.124a9.74 9.74 0 0 0 1.152-.604c.187-.113.343-.2.468-.263h.125c.083.083-.032.227-.343.434a5.76 5.76 0 0 1-.437.278 12.65 12.65 0 0 1-.701.387c-.26.134-.53.248-.81.34a2.42 2.42 0 0 1-.764.14c-.333 0-.582-.124-.748-.371-.125-.227-.14-.506-.047-.836.094-.33.239-.697.436-1.099.198-.402.421-.815.67-1.238.25-.423.468-.84.655-1.254.187-.412.317-.8.39-1.16.073-.361.036-.676-.11-.944Zm4.832 3.311 5.611-5.57-.717-.682-5.61 5.572c-.042.103-.094.242-.157.417a7.566 7.566 0 0 1-.249.604c.25-.082.473-.15.67-.201.198-.052.348-.098.452-.14Zm5.611-6.964.686.712 1.278-1.269-.717-.68-1.247 1.237Z"/></svg>