<svg xmlns="http://www.w3.org/2000/svg" fill="currentColor" viewBox="0 0 16 16"><path d="M2 1c0-.292.094-.531.281-.719A.973.973 0 0 1 3 0h10c.292 0 .531.094.719.281A.973.973 0 0 1 14 1v14c0 .27-.094.505-.281.703A.947.947 0 0 1 13 16H3a.947.947 0 0 1-.719-.297A.988.988 0 0 1 2 15V1Zm1 14h10V1H3v14Zm2.375-5.094 1.281-.156c.063.292.188.552.375.781.188.23.386.386.594.469V8.719c-.667-.23-1.203-.568-1.61-1.016-.406-.448-.609-.911-.609-1.39 0-.25.052-.51.157-.782.104-.27.255-.52.453-.75a2.71 2.71 0 0 1 .703-.578c.27-.156.573-.245.906-.266v-.656h.781v.656c1.209.084 1.938.73 2.188 1.938l-1.125.188a1.041 1.041 0 0 0-.344-.625 1.173 1.173 0 0 0-.719-.282v2.375c.875.188 1.49.51 1.844.969.354.458.531.906.531 1.344 0 .646-.213 1.203-.64 1.672-.427.468-1.006.724-1.735.765v1.031h-.781v-1c-.542-.02-1.031-.229-1.469-.624-.437-.396-.698-.99-.781-1.782Zm3.031 1.219a1.54 1.54 0 0 0 .735-.453c.198-.219.296-.453.296-.703 0-.521-.343-.886-1.03-1.094v2.25Zm-.781-4v-2a1.23 1.23 0 0 0-.563.406.952.952 0 0 0-.218.594c0 .417.26.75.781 1Z"/></svg>