<svg xmlns="http://www.w3.org/2000/svg" fill="currentColor" viewBox="0 0 16 16"><path d="M13 0c.292 0 .531.099.719.297A.988.988 0 0 1 14 1v14a.974.974 0 0 1-.281.719A.974.974 0 0 1 13 16H3a.973.973 0 0 1-.719-.281A.974.974 0 0 1 2 15V1c0-.27.094-.505.281-.703A.947.947 0 0 1 3 0h10Zm0 1H3v14h10V1Zm-1 4H4V2h8v3ZM5 8a.973.973 0 0 1-.719-.281A.973.973 0 0 1 4 7c0-.27.094-.505.281-.703A.947.947 0 0 1 5 6c.292 0 .531.099.719.297A.988.988 0 0 1 6 7a.973.973 0 0 1-.281.719A.973.973 0 0 1 5 8Zm3-2c.292 0 .531.099.719.297A.988.988 0 0 1 9 7a.973.973 0 0 1-.281.719A.973.973 0 0 1 8 8a.973.973 0 0 1-.719-.281A.973.973 0 0 1 7 7c0-.27.094-.505.281-.703A.947.947 0 0 1 8 6Zm3 0c.292 0 .531.099.719.297A.988.988 0 0 1 12 7a.973.973 0 0 1-.281.719A.974.974 0 0 1 11 8a.974.974 0 0 1-.719-.281A.973.973 0 0 1 10 7c0-.27.094-.505.281-.703A.947.947 0 0 1 11 6Zm-6 5a.973.973 0 0 1-.719-.281A.974.974 0 0 1 4 10c0-.27.094-.505.281-.703A.947.947 0 0 1 5 9c.292 0 .531.099.719.297A.988.988 0 0 1 6 10a.974.974 0 0 1-.281.719A.973.973 0 0 1 5 11Zm3-2c.292 0 .531.099.719.297A.988.988 0 0 1 9 10a.974.974 0 0 1-.281.719A.973.973 0 0 1 8 11a.973.973 0 0 1-.719-.281A.974.974 0 0 1 7 10c0-.27.094-.505.281-.703A.947.947 0 0 1 8 9Zm3 0c.292 0 .531.099.719.297A.988.988 0 0 1 12 10a.974.974 0 0 1-.281.719A.974.974 0 0 1 11 11a.974.974 0 0 1-.719-.281A.974.974 0 0 1 10 10c0-.27.094-.505.281-.703A.947.947 0 0 1 11 9Zm-6 5a.973.973 0 0 1-.719-.281A.974.974 0 0 1 4 13c0-.27.094-.505.281-.703A.947.947 0 0 1 5 12c.292 0 .531.099.719.297A.988.988 0 0 1 6 13a.974.974 0 0 1-.281.719A.973.973 0 0 1 5 14Zm3-2c.292 0 .531.099.719.297A.988.988 0 0 1 9 13a.974.974 0 0 1-.281.719A.973.973 0 0 1 8 14a.973.973 0 0 1-.719-.281A.974.974 0 0 1 7 13c0-.27.094-.505.281-.703A.947.947 0 0 1 8 12Zm3 0c.292 0 .531.099.719.297A.988.988 0 0 1 12 13a.974.974 0 0 1-.281.719A.974.974 0 0 1 11 14a.974.974 0 0 1-.719-.281A.974.974 0 0 1 10 13c0-.27.094-.505.281-.703A.947.947 0 0 1 11 12Z"/></svg>