<svg xmlns="http://www.w3.org/2000/svg" fill="currentColor" viewBox="0 0 16 16"><path d="M12 5a.973.973 0 0 0-.281-.719A.974.974 0 0 0 11 4H5a.973.973 0 0 0-.719.281A.973.973 0 0 0 4 5v6c0 .292.094.531.281.719A.973.973 0 0 0 5 12h6a.974.974 0 0 0 .719-.281A.974.974 0 0 0 12 11V5Zm1 0c.292 0 .531.094.719.281A.973.973 0 0 1 14 6v2a.973.973 0 0 1-.281.719A.974.974 0 0 1 13 9v2a1.92 1.92 0 0 1-.594 1.406A1.922 1.922 0 0 1 11 13v2a.974.974 0 0 1-.281.719A.974.974 0 0 1 10 16H6a.973.973 0 0 1-.719-.281A.974.974 0 0 1 5 15v-2a1.92 1.92 0 0 1-1.406-.594A1.922 1.922 0 0 1 3 11V5c0-.542.198-1.01.594-1.406A1.922 1.922 0 0 1 5 3V1c0-.292.094-.531.281-.719A.973.973 0 0 1 6 0h4c.292 0 .531.094.719.281A.973.973 0 0 1 11 1v2c.542 0 1.01.198 1.406.594.396.396.594.864.594 1.406Z"/></svg>