<svg xmlns="http://www.w3.org/2000/svg" fill="currentColor" viewBox="0 0 16 16"><path d="m6.294 8.047.563 2.818-2.286 1.159L2.254 10.3l1.159-2.88 2.88.626Zm4.571-5.793 1.722 1.723-1.19 2.348-2.818-.626V2.88l2.286-.627ZM8.015 0c1.107 0 2.146.214 3.116.642a8.26 8.26 0 0 1 2.536 1.722A8.04 8.04 0 0 1 15.374 4.9c.417.97.626 2.02.626 3.147 0 1.106-.209 2.14-.626 3.1a8.1 8.1 0 0 1-1.707 2.52 8.038 8.038 0 0 1-2.536 1.707A7.8 7.8 0 0 1 8.016 16a7.879 7.879 0 0 1-3.147-.626 8.23 8.23 0 0 1-2.552-1.707c-.73-.72-1.3-1.56-1.706-2.52A7.86 7.86 0 0 1 0 8.047C0 6.92.204 5.871.61 4.9a7.705 7.705 0 0 1 1.707-2.536A8.46 8.46 0 0 1 4.869.642 7.713 7.713 0 0 1 8.016 0Zm6.294 11.71a9.188 9.188 0 0 0 .814-1.784 5.911 5.911 0 0 0 .313-1.879l-.97-3.476a9.469 9.469 0 0 0-2.771-2.88C10.557.918 9.34.532 8.047.532c-.981 0-1.952.24-2.912.72v1.002L2.849 4.603H1.534a9.062 9.062 0 0 0-.72 1.66 5.798 5.798 0 0 0-.282 1.784c0 .605.1 1.21.298 1.816a8.5 8.5 0 0 0 .783 1.722 8.105 8.105 0 0 0 1.174 1.519c.459.47.96.871 1.503 1.205h.281l3.445 1.159c.71 0 1.403-.126 2.082-.376a8.67 8.67 0 0 0 1.925-1.002l-1.158-.344-.564-1.723 2.286-2.317 1.722 1.159v.845Z"/></svg>