<svg xmlns="http://www.w3.org/2000/svg" fill="currentColor" viewBox="0 0 16 16"><path d="M5.485 2.589c.21.207.496.379.862.514s.747.24 1.144.312a13.162 13.162 0 0 0 2.194.203 12.568 12.568 0 0 0 2.163-.203 6.862 6.862 0 0 0 1.144-.312c.366-.135.653-.307.862-.514l2.1 10.354c-.272.437-.669.795-1.191 1.076a7.026 7.026 0 0 1-1.693.64c-.606.145-1.212.243-1.818.295a18.69 18.69 0 0 1-1.567.078c-.439 0-.96-.026-1.567-.078a12.272 12.272 0 0 1-1.818-.296 7.316 7.316 0 0 1-1.708-.64c-.533-.28-.925-.639-1.175-1.075L5.485 2.589ZM4.263 12.693c.188.23.465.437.83.624.366.187.79.343 1.27.468s1.008.223 1.583.296c.574.073 1.165.11 1.77.11 1.317 0 2.446-.141 3.386-.422.94-.28 1.62-.629 2.037-1.044l-.125-.687L13.32 4.46l-.188-.655c-.042.041-.083.062-.125.062-.669.333-1.787.5-3.354.5-.669 0-1.327-.042-1.975-.125-.647-.084-1.18-.23-1.598-.437l-.314 1.372-1.504 7.516Zm1.724-2.931a.48.48 0 0 1 .344.156l1.003.966 1.568-1.559h-.564a.641.641 0 0 1-.377-.11c-.104-.072-.156-.191-.156-.358V7.048c0-.145.047-.26.14-.343a.481.481 0 0 1 .33-.124c.313 0 .47.156.47.467v1.373h.94c0-.603.136-1.133.408-1.59.271-.458.742-.687 1.41-.687.48 0 .899.177 1.254.53.355.354.533.78.533 1.279 0 .499-.178.925-.533 1.279a1.72 1.72 0 0 1-1.254.53c-.104 0-.23-.005-.376-.016a6.955 6.955 0 0 0-.25-.015 1.063 1.063 0 0 1-.157.374l-2.414 2.339-.063.093a.46.46 0 0 1-.282.094.48.48 0 0 1-.344-.156l-1.191-1.154v.686c0 .312-.147.468-.44.468a.481.481 0 0 1-.328-.125.434.434 0 0 1-.141-.343V10.23a.44.44 0 0 1 .14-.344.481.481 0 0 1 .33-.124ZM15.954 0v.749h-1.128v1.153h-.627V.75h-1.097v.592h-.627V.75H11.44v1.153h-.627V.75H9.717v.592H9.09V.75H8.024v1.153h-.627V.75H6.3v.592h-.658V.75H4.608v1.153H3.98V.75H2.884v.592h-.627V.75H0V0h15.954ZM.752 1.778v.561h.596v.624H.752v1.091h1.16v.624H.752v1.03h.596v.654H.752v1.092h1.16v.624H.752v1.06h.596v.624H.752v1.091h1.16v.624H.752v1.03h.596v.623H.752v1.123h1.16v.686H.752v1.03H0V1.777h.752Z"/></svg>