<svg xmlns="http://www.w3.org/2000/svg" fill="currentColor" viewBox="0 0 16 16"><path d="M12.075 14.726a.858.858 0 0 1-.626.274.773.773 0 0 1-.599-.274l-2.775-2.767c-.218-.22-.218-.43 0-.63a.415.415 0 0 1 .3-.137.41.41 0 0 1 .298.137l2.313 2.329v-8.74c0-.292.146-.439.436-.439.29 0 .435.147.435.439v8.794l2.368-2.383c.2-.201.408-.201.625 0 .2.2.2.41 0 .63l-2.775 2.767ZM7.939 4.041c.2.22.2.43 0 .63a.429.429 0 0 1-.313.137.429.429 0 0 1-.313-.137L4.946 2.288v8.794c0 .292-.146.438-.436.438-.29 0-.435-.146-.435-.438v-8.74l-2.313 2.33a.415.415 0 0 1-.3.136.415.415 0 0 1-.299-.137c-.217-.2-.217-.41 0-.63L3.94 1.274A.773.773 0 0 1 4.537 1c.236 0 .445.091.626.274L7.94 4.041Z"/></svg>