<svg xmlns="http://www.w3.org/2000/svg" fill="currentColor" viewBox="0 0 16 16"><path d="M7 1.439c.25 0 .48.1.688.303.208.203.312.461.312.776v10.728c0 .315-.104.573-.312.776-.209.202-.438.303-.688.303a.875.875 0 0 1-.625-.236L3.281 11.39c-.229-.157-.437-.236-.625-.236H1c-.27 0-.469-.056-.594-.168a1.15 1.15 0 0 1-.281-.372 1.137 1.137 0 0 1-.125-.54V5.69c0-.202.042-.382.125-.54a1.15 1.15 0 0 1 .281-.37c.125-.113.323-.17.594-.17h1.656c.188 0 .396-.078.625-.236l3.094-2.698c.208-.158.417-.236.625-.236Zm0 1.08L3.906 5.216c-.396.315-.812.472-1.25.472H1v4.386h1.656c.438 0 .854.157 1.25.472L7 13.246V2.518Zm3.719.809a5.494 5.494 0 0 1 1.656 1.923A5.46 5.46 0 0 1 13 7.848c0 .99-.224 1.89-.672 2.699a5.302 5.302 0 0 1-1.765 1.923L10 11.728v-.169a4.26 4.26 0 0 0 1.453-1.552A4.35 4.35 0 0 0 12 7.848a4.35 4.35 0 0 0-.547-2.159A4.26 4.26 0 0 0 10 4.137l.719-.81ZM12.875 1c.958.787 1.719 1.771 2.281 2.952.563 1.18.844 2.48.844 3.896 0 1.507-.323 2.885-.969 4.133-.646 1.248-1.51 2.254-2.594 3.019l-.624-.843c.958-.675 1.729-1.563 2.312-2.665.583-1.102.875-2.317.875-3.644 0-1.26-.255-2.412-.766-3.458a7.495 7.495 0 0 0-2.078-2.614L12.875 1Z"/></svg>