<svg xmlns="http://www.w3.org/2000/svg" fill="currentColor" viewBox="0 0 16 16"><path d="M12 2c.27 0 .505.102.703.305.198.203.297.462.297.778v10.834c0 .316-.099.575-.297.778A.95.95 0 0 1 12 15c-.208 0-.417-.079-.625-.237l-3.344-2.776c-.083-.068-.24-.124-.469-.17a2.964 2.964 0 0 0-.53-.067H4c-.25 0-.443-.056-.578-.17a1.074 1.074 0 0 1-.297-.372A1.143 1.143 0 0 1 3 10.667V6.333c0-.203.042-.383.125-.541.063-.136.161-.26.297-.373.135-.113.328-.169.578-.169h3.031c.125 0 .302-.017.532-.05.229-.035.385-.097.468-.187l3.344-2.776C11.583 2.079 11.792 2 12 2Zm0 1.083L8.594 5.927a2.02 2.02 0 0 1-.985.356c-.364.033-.557.05-.578.05H4v4.334h3.031c.021 0 .214.017.578.05.365.034.693.153.985.356L12 13.917V3.083Z"/></svg>