<svg xmlns="http://www.w3.org/2000/svg" fill="currentColor" viewBox="0 0 16 16"><path d="M7.75 10.25a2.17 2.17 0 0 0 1.594-.656A2.17 2.17 0 0 0 10 8a2.17 2.17 0 0 0-.656-1.594A2.17 2.17 0 0 0 7.75 5.75a2.17 2.17 0 0 0-1.594.656A2.17 2.17 0 0 0 5.5 8c0 .625.219 1.156.656 1.594a2.17 2.17 0 0 0 1.594.656ZM11.5 8c0 .917-.287 1.714-.86 2.39a3.648 3.648 0 0 1-2.14 1.266v3.594a.723.723 0 0 1-.219.531.723.723 0 0 1-.531.219.723.723 0 0 1-.531-.219A.723.723 0 0 1 7 15.25v-3.594a3.595 3.595 0 0 1-2.156-1.265C4.28 9.714 4 8.917 4 8s.281-1.714.844-2.39A3.744 3.744 0 0 1 7 4.311V.75c0-.208.073-.385.219-.531A.723.723 0 0 1 7.75 0c.208 0 .385.073.531.219A.723.723 0 0 1 8.5.75v3.563c.854.187 1.568.62 2.14 1.296.573.677.86 1.474.86 2.391Z"/></svg>