<svg xmlns="http://www.w3.org/2000/svg" fill="currentColor" viewBox="0 0 16 16"><path d="M13.866 12.23c.09.09.134.2.134.327a.42.42 0 0 1-.134.3l-1.955 1.992c-.107.109-.219.159-.335.15a.4.4 0 0 1-.281-.136.577.577 0 0 1-.134-.3c-.018-.119.027-.233.134-.342l1.232-1.255h-1.098a5.06 5.06 0 0 1-2.558-.682 5.63 5.63 0 0 1-1.942-1.828 4.722 4.722 0 0 0-1.675-1.487 4.538 4.538 0 0 0-2.156-.532h-.67c-.196 0-.316-.05-.361-.15A.703.703 0 0 1 2 8c0-.091.022-.186.067-.287.045-.1.165-.15.362-.15h.67a4.53 4.53 0 0 0 2.155-.532A4.722 4.722 0 0 0 6.93 5.544a5.631 5.631 0 0 1 1.94-1.828 5.066 5.066 0 0 1 2.558-.682h1.098l-1.232-1.255c-.107-.11-.152-.223-.134-.341a.577.577 0 0 1 .134-.3.4.4 0 0 1 .28-.137c.117-.009.229.041.336.15l1.955 1.992a.42.42 0 0 1 .134.3.45.45 0 0 1-.134.328L11.91 5.763c-.107.109-.219.154-.335.136a.453.453 0 0 1-.281-.15.5.5 0 0 1-.12-.3.39.39 0 0 1 .12-.314l1.232-1.228h-1.098c-.804 0-1.527.191-2.17.573-.643.382-1.188.9-1.634 1.555C7 6.945 6.205 7.6 5.241 8 6.205 8.4 7 9.055 7.625 9.965a5.154 5.154 0 0 0 1.634 1.555c.643.382 1.366.573 2.17.573h1.098l-1.232-1.228a.39.39 0 0 1-.12-.314.5.5 0 0 1 .12-.3.453.453 0 0 1 .28-.15c.117-.018.229.027.336.136l1.955 1.992Z"/></svg>