<svg xmlns="http://www.w3.org/2000/svg" fill="currentColor" viewBox="0 0 16 16"><path d="M16 8a7.863 7.863 0 0 1-.625 3.14 8.026 8.026 0 0 1-1.703 2.532 7.979 7.979 0 0 1-2.547 1.703c-.98.417-2.02.625-3.125.625a7.863 7.863 0 0 1-5.672-2.344A8.215 8.215 0 0 1 .625 11.11 7.786 7.786 0 0 1 0 8c0-1.104.214-2.146.64-3.125.428-.98 1-1.828 1.72-2.547A7.977 7.977 0 0 1 4.905.625 7.82 7.82 0 0 1 8 0c1.104 0 2.146.208 3.125.625.98.417 1.828.984 2.547 1.703a7.979 7.979 0 0 1 1.703 2.547c.417.98.625 2.02.625 3.125Zm-3.688-2.719c.084-.166.073-.302-.03-.406L11.155 3.75a.297.297 0 0 0-.25-.125c-.104 0-.187.052-.25.156l-3.25 5.406c-.062.021-.104.021-.125 0L5.094 7.563c-.084-.063-.157-.094-.219-.094-.063 0-.11.02-.14.062a.917.917 0 0 1-.079.094L3.75 8.906c-.125.167-.104.313.063.438l3.53 2.969c.042.041.115.062.22.062a.297.297 0 0 0 .25-.125l4.5-6.969Z"/></svg>