<svg xmlns="http://www.w3.org/2000/svg" fill="currentColor" viewBox="0 0 16 16"><path d="M16 8a7.731 7.731 0 0 1-.64 3.125c-.428.98-1 1.828-1.72 2.547a8.025 8.025 0 0 1-2.53 1.703A7.785 7.785 0 0 1 8 16a7.73 7.73 0 0 1-3.125-.64c-.98-.428-1.828-1-2.547-1.72a7.977 7.977 0 0 1-1.703-2.546A7.82 7.82 0 0 1 0 8a7.864 7.864 0 0 1 2.344-5.672A8.214 8.214 0 0 1 4.89.625 7.785 7.785 0 0 1 8 0c1.104 0 2.14.208 3.11.625a8.08 8.08 0 0 1 2.546 1.719 8.081 8.081 0 0 1 1.719 2.547C15.792 5.859 16 6.896 16 8Zm-3.531 3.375c.125-.125.125-.25 0-.375L9.78 8.312c-.125-.124-.125-.25 0-.374l2.531-2.532c.126-.125.126-.25 0-.375l-1.156-1.156c-.041-.042-.104-.063-.187-.063-.084 0-.146.021-.188.063L8.187 6.438c-.02.062-.083.093-.187.093-.063 0-.125-.031-.188-.093L5.188 3.844c-.02-.042-.083-.063-.187-.063-.083 0-.146.021-.188.063L3.657 5c-.125.125-.125.25 0 .375L6.25 7.938c.125.125.125.25 0 .375l-2.594 2.562a.312.312 0 0 0-.078.188c-.01.083.016.145.078.187l1.125 1.156a.48.48 0 0 0 .188.063c.083 0 .146-.021.187-.063l2.657-2.625c.041-.041.104-.062.187-.062s.146.02.188.062l2.75 2.75a.479.479 0 0 0 .187.063.48.48 0 0 0 .188-.063l1.156-1.156Z"/></svg>