<svg xmlns="http://www.w3.org/2000/svg" fill="currentColor" viewBox="0 0 16 16"><path d="M12.447 7.829c.23-.21.23-.429 0-.658L10.44 4.486a1.113 1.113 0 0 1-.272-.672.754.754 0 0 1 .272-.614.834.834 0 0 1 .646-.286c.258 0 .473.096.645.286l2.983 3.657A.828.828 0 0 1 15 7.5a.828.828 0 0 1-.287.643L11.76 11.8a.908.908 0 0 1-.66.286.818.818 0 0 1-.63-.286.77.77 0 0 1-.273-.629c.01-.247.1-.466.272-.657l1.98-2.685Zm-4.59 0c.23-.21.23-.429 0-.658l-2.781-3.6a1.17 1.17 0 0 1-.259-.657.73.73 0 0 1 .259-.628.818.818 0 0 1 .63-.286c.25 0 .47.095.66.286l3.758 4.571a.828.828 0 0 1 .287.643.828.828 0 0 1-.287.643l-3.7 4.571a.834.834 0 0 1-.646.286.834.834 0 0 1-.645-.286.798.798 0 0 1-.287-.614c0-.238.096-.462.287-.671l2.725-3.6ZM1.262 4.486a.764.764 0 0 1-.258-.657c.019-.267.105-.477.258-.629a.893.893 0 0 1 .645-.286c.24 0 .454.096.645.286l2.984 3.657a.828.828 0 0 1 .286.643.827.827 0 0 1-.286.643L2.58 11.8a.834.834 0 0 1-.645.286.834.834 0 0 1-.646-.286.754.754 0 0 1-.272-.614c.01-.238.1-.462.272-.672L3.27 7.83c.21-.21.21-.429 0-.658L1.26 4.486Z"/></svg>