<svg xmlns="http://www.w3.org/2000/svg" fill="currentColor" viewBox="0 0 16 16"><path d="M.031 13.146c0-.79.324-1.445.973-1.965a2.76 2.76 0 0 1 1.318-.624c.48-.083.936-.15 1.364-.202.43-.052.785-.156 1.067-.312.283-.156.424-.463.424-.92 0-.125-.042-.296-.126-.515a6.983 6.983 0 0 0-.282-.64 5.46 5.46 0 0 1-1.851-.514 4.994 4.994 0 0 1-1.506-1.091A5.21 5.21 0 0 1 .408 4.788 4.98 4.98 0 0 1 .03 2.854C.03 1.794.313.848.877.016h2.605v1.123H1.537c-.25.499-.376 1.07-.376 1.715a3.848 3.848 0 0 0 1.176 2.807c.366.353.79.634 1.271.842a3.912 3.912 0 0 0 1.569.312 3.83 3.83 0 0 0 1.537-.312 4.082 4.082 0 0 0 2.134-2.12 3.78 3.78 0 0 0 .314-1.529c0-.644-.126-1.216-.377-1.715H6.871V.016h2.573c.565.832.847 1.778.847 2.838 0 1.31-.403 2.412-1.208 3.306-.805.894-1.835 1.466-3.09 1.715.083.229.156.447.22.655.062.208.093.406.093.593 0 .624-.125 1.086-.376 1.388-.251.301-.57.52-.957.655s-.8.223-1.24.265a8.806 8.806 0 0 0-1.239.202c-.387.094-.706.25-.957.468-.25.218-.376.567-.376 1.045 0 .624.303 1.066.91 1.325.606.26 1.443.39 2.51.39.418 0 .742-.083.972-.25a1.96 1.96 0 0 0 .565-.639c.147-.26.282-.54.408-.842a3.76 3.76 0 0 1 .486-.842 2.24 2.24 0 0 1 .8-.639c.335-.166.785-.25 1.35-.25.292 0 .564.037.815.11.251.072.47.16.66.265a2.882 2.882 0 0 1 1.019-1.045c.429-.26.915-.39 1.459-.39.795 0 1.47.27 2.024.811.554.54.831 1.206.831 1.996s-.277 1.46-.832 2.012a2.764 2.764 0 0 1-2.023.826c-.795 0-1.464-.275-2.008-.826-.544-.551-.816-1.222-.816-2.012v-.28a2.266 2.266 0 0 0-1.192-.344c-.356 0-.643.083-.863.25-.22.166-.408.38-.565.64a7.97 7.97 0 0 0-.44.841 3.58 3.58 0 0 1-.532.842c-.22.26-.497.473-.832.64-.335.166-.763.25-1.286.25-1.444 0-2.563-.235-3.357-.703C.429 14.815.03 14.102.03 13.146Zm11.86 1.216a1.67 1.67 0 0 0 1.224.5 1.67 1.67 0 0 0 1.223-.5 1.65 1.65 0 0 0 .503-1.216 1.65 1.65 0 0 0-.503-1.216c-.313-.312-.721-.468-1.223-.468-.481 0-.879.156-1.192.468a1.65 1.65 0 0 0-.502 1.216c0 .478.156.884.47 1.216Zm1.224-2.339c.335 0 .612.11.831.328.22.218.33.483.33.795 0 .333-.11.613-.33.842-.22.229-.496.343-.831.343-.314 0-.58-.114-.8-.343a1.17 1.17 0 0 1-.33-.842c0-.312.11-.577.33-.795a1.09 1.09 0 0 1 .8-.328Z"/></svg>