<svg xmlns="http://www.w3.org/2000/svg" fill="currentColor" viewBox="0 0 16 16"><path d="M8 0c1.104 0 2.14.208 3.11.625a8.215 8.215 0 0 1 2.546 1.703 7.852 7.852 0 0 1 1.719 2.547c.417.98.625 2.02.625 3.125 0 1.104-.208 2.14-.625 3.11a8.082 8.082 0 0 1-1.719 2.546 8.082 8.082 0 0 1-2.547 1.719A7.785 7.785 0 0 1 8 16a7.897 7.897 0 0 1-3.125-.625 7.852 7.852 0 0 1-2.547-1.719A8.215 8.215 0 0 1 .625 11.11 7.786 7.786 0 0 1 0 8c0-1.104.208-2.146.625-3.125a7.977 7.977 0 0 1 1.703-2.547A7.977 7.977 0 0 1 4.875.625 7.897 7.897 0 0 1 8 0Zm0 15c.958 0 1.865-.182 2.719-.547a7.027 7.027 0 0 0 2.234-1.5 7.027 7.027 0 0 0 1.5-2.234C14.818 9.865 15 8.959 15 8c0-.958-.182-1.865-.547-2.719a7.026 7.026 0 0 0-1.5-2.234 7.026 7.026 0 0 0-2.234-1.5A6.853 6.853 0 0 0 8 1c-.98 0-1.89.182-2.734.547a7.074 7.074 0 0 0-2.22 1.5 7.026 7.026 0 0 0-1.5 2.234A6.853 6.853 0 0 0 1 8c0 .958.182 1.865.547 2.719a7.026 7.026 0 0 0 1.5 2.234 7.075 7.075 0 0 0 2.219 1.5A6.819 6.819 0 0 0 8 15Zm2-10c.27 0 .505.094.703.281A.947.947 0 0 1 11 6v4c0 .27-.099.505-.297.703A.961.961 0 0 1 10 11H6a.947.947 0 0 1-.719-.297A.988.988 0 0 1 5 10V6c0-.292.094-.531.281-.719A.973.973 0 0 1 6 5h4Z"/></svg>