<svg xmlns="http://www.w3.org/2000/svg" fill="currentColor" viewBox="0 0 16 16"><path d="M8 8.213 0 5.591 8 3l8 2.591-1.354.463v3.733h-.662V6.239L8 8.213Zm4.945-.987c.252.309.378.638.378.987 0 .35-.142.684-.425 1.003-.284.319-.667.596-1.15.833a7.15 7.15 0 0 1-1.685.555c-.64.134-1.328.2-2.063.2a10.32 10.32 0 0 1-2.079-.2 7.128 7.128 0 0 1-1.7-.555c-.483-.237-.861-.51-1.134-.818-.273-.308-.41-.647-.41-1.018 0-.39.063-.74.19-1.048L8 8.86l4.945-1.635Zm1.354 3.208c.294 0 .536.098.725.293a.965.965 0 0 1 .283.695.965.965 0 0 1-.283.694.964.964 0 0 1-.725.293.927.927 0 0 1-.693-.293.965.965 0 0 1-.283-.694c0-.268.094-.5.283-.695a.927.927 0 0 1 .693-.293Zm.347 2.623L15.307 15h-1.984l.661-1.943h.662Z"/></svg>