<svg xmlns="http://www.w3.org/2000/svg" fill="currentColor" viewBox="0 0 16 16"><path d="M3 7.018c0-.562.104-1.082.313-1.56A4.017 4.017 0 0 1 7 3.025h1.999a4.016 4.016 0 0 1 3.688 2.433c.208.478.312.998.312 1.56v3.96c0 .292-.094.536-.281.733a.947.947 0 0 1-.719.297H4a.962.962 0 0 1-.703-.296.994.994 0 0 1-.297-.733V7.018Zm1 3.96h8v-3.96c0-.832-.292-1.54-.875-2.121A2.896 2.896 0 0 0 9 4.023H7c-.833 0-1.542.292-2.125.874A2.885 2.885 0 0 0 4 7.017v3.962ZM8 0c1.104 0 2.14.208 3.11.624a8.017 8.017 0 0 1 4.266 4.273A7.88 7.88 0 0 1 16 8.016a7.72 7.72 0 0 1-.469 2.682 7.9 7.9 0 0 1-1.312 2.308l-.563-.873a7.429 7.429 0 0 0 .985-1.918c.24-.697.359-1.43.359-2.2 0-.977-.182-1.886-.547-2.728a7.06 7.06 0 0 0-3.719-3.712A6.83 6.83 0 0 0 8 1.029c-.958 0-1.865.182-2.719.546a7.027 7.027 0 0 0-2.234 1.497 7.06 7.06 0 0 0-1.5 2.215A6.794 6.794 0 0 0 1 8.016c0 .79.125 1.533.375 2.23a7.25 7.25 0 0 0 1.031 1.918l-.594.873A8.188 8.188 0 0 1 .484 10.73 7.596 7.596 0 0 1 0 8.016 8.016 8.016 0 0 1 4.89.624 7.798 7.798 0 0 1 8 0ZM5 8.016v-.998c0-.562.198-1.035.594-1.42A1.95 1.95 0 0 1 7 5.021h2c.542 0 1.01.193 1.406.577.396.385.594.858.594 1.42v.998H5Zm-1 6.986h7.969l.687.998H3.344L4 15.002Zm.688-.998.656-1.03h5.281l.688 1.03H4.686ZM5 9.544c0-.27.094-.504.281-.702A.948.948 0 0 1 6 8.546a.95.95 0 0 1 .719.296.985.985 0 0 1 .281.702.97.97 0 0 1-.281.717.974.974 0 0 1-.719.28.974.974 0 0 1-.719-.28A.97.97 0 0 1 5 9.544Zm5-.998a.95.95 0 0 1 .719.296.985.985 0 0 1 .281.702.97.97 0 0 1-.281.717.974.974 0 0 1-.719.28.974.974 0 0 1-.719-.28A.97.97 0 0 1 9 9.544c0-.27.094-.504.281-.702A.948.948 0 0 1 10 8.546Zm1.906 4.46H12c.313 0 .604-.073.875-.218L15 16h-1.156l-1.938-2.994Zm-8.719-.187c.25.124.521.187.813.187h.156l-2 2.994H1l2.188-3.181Z"/></svg>