<svg xmlns="http://www.w3.org/2000/svg" fill="currentColor" viewBox="0 0 16 16"><path d="M0 6c0-.542.198-1.01.594-1.406A1.922 1.922 0 0 1 2 4h3V3c0-.542.198-1.01.594-1.406A1.922 1.922 0 0 1 7 1h2c.563 0 1.037.198 1.422.594.385.396.578.864.578 1.406v1h3c.563 0 1.037.198 1.422.594.385.396.578.864.578 1.406v7c0 .542-.193 1.01-.578 1.406-.386.396-.86.594-1.422.594H2a1.92 1.92 0 0 1-1.406-.594A1.922 1.922 0 0 1 0 13V6Zm12 8V5H4v9h8Zm1 0h1a.947.947 0 0 0 .719-.297A.988.988 0 0 0 15 13V6a.973.973 0 0 0-.281-.719A.974.974 0 0 0 14 5h-1v9ZM1 6v7c0 .27.099.505.297.703A.961.961 0 0 0 2 14h1V5H2a.988.988 0 0 0-.703.281A.947.947 0 0 0 1 6Zm5-3v1h4V3a.973.973 0 0 0-.281-.719A.973.973 0 0 0 9 2H7a.988.988 0 0 0-.703.281A.947.947 0 0 0 6 3Z"/></svg>