<svg xmlns="http://www.w3.org/2000/svg" fill="currentColor" viewBox="0 0 16 16"><path d="M4.625 14H13c.292 0 .531.094.719.281A.974.974 0 0 1 14 15c0 .27-.094.505-.281.703A.947.947 0 0 1 13 16H3.031a.998.998 0 0 1-.734-.297A.961.961 0 0 1 2 15v-.656c0-.209.083-.417.25-.625L7 8 2.25 2.281A1.036 1.036 0 0 1 2 1.625V1c0-.292.099-.531.297-.719C2.495.094 2.74 0 3.03 0H12c.292 0 .531.094.719.281A.973.973 0 0 1 13 1a.973.973 0 0 1-.281.719A.974.974 0 0 1 12 2H4.625l4.438 5.344c.166.208.25.416.25.625 0 .229-.084.448-.25.656L4.625 14Z"/></svg>