<svg xmlns="http://www.w3.org/2000/svg" fill="currentColor" viewBox="0 0 16 16"><path d="M4 10H3c.02-.73.14-1.349.36-1.86.218-.51.51-.921.874-1.234A3.475 3.475 0 0 1 5.5 6.22C5.98 6.073 6.48 6 7 6h1a2.893 2.893 0 0 1-2.125-.875A2.893 2.893 0 0 1 5 3c0-.833.292-1.542.875-2.125A2.893 2.893 0 0 1 8 0c.833 0 1.542.292 2.125.875S11 2.167 11 3s-.292 1.542-.875 2.125A2.893 2.893 0 0 1 8 6h1a5.75 5.75 0 0 1 1.563.203c.479.136.9.36 1.265.672.365.313.651.724.86 1.234C12.896 8.62 13 9.25 13 10h-1V9c0-.23-.078-.464-.234-.703a2.34 2.34 0 0 0-.641-.64 3.87 3.87 0 0 0-.953-.47A3.59 3.59 0 0 0 9 7H7a3.59 3.59 0 0 0-1.172.188 3.87 3.87 0 0 0-.953.468 2.34 2.34 0 0 0-.64.64C4.077 8.537 4 8.772 4 9v1Zm0 1h8v5H4v-5Zm4-6c.563 0 1.036-.198 1.422-.594C9.807 4.01 10 3.542 10 3c0-.542-.193-1.01-.578-1.406A1.907 1.907 0 0 0 8 1a1.92 1.92 0 0 0-1.406.594A1.922 1.922 0 0 0 6 3c0 .542.198 1.01.594 1.406A1.92 1.92 0 0 0 8 5Zm-5.5 6H3v3h-.5c-.417 0-.77-.146-1.063-.438A1.447 1.447 0 0 1 1 12.5c0-.417.146-.77.438-1.063A1.446 1.446 0 0 1 2.5 11ZM13 11h.5c.417 0 .77.146 1.063.438.291.291.437.645.437 1.062 0 .417-.146.77-.438 1.063A1.446 1.446 0 0 1 13.5 14H13v-3Zm-5-1V9h3v1H8Z"/></svg>