<svg xmlns="http://www.w3.org/2000/svg" fill="currentColor" viewBox="0 0 16 16"><path d="M12 4c.27 0 .505.099.703.297A.961.961 0 0 1 13 5v10a.947.947 0 0 1-.297.719A.988.988 0 0 1 12 16H5a.973.973 0 0 1-.719-.281A.974.974 0 0 1 4 15V5c0-.27.094-.505.281-.703A.947.947 0 0 1 5 4h7Zm0 1H5v10h7V5ZM1 11h2v1H1a.973.973 0 0 1-.719-.281A.974.974 0 0 1 0 11V1C0 .73.094.495.281.297A.947.947 0 0 1 1 0h7c.27 0 .505.099.703.297A.961.961 0 0 1 9 1H1v10Zm14-9c.27 0 .505.099.703.297A.961.961 0 0 1 16 3v10a.947.947 0 0 1-.297.719A.988.988 0 0 1 15 14h-1v-1h1V3H7c0-.27.094-.505.281-.703A.947.947 0 0 1 8 2h7Z"/></svg>