<svg xmlns="http://www.w3.org/2000/svg" fill="currentColor" viewBox="0 0 16 16"><path d="M7.977 1.014a6.905 6.905 0 0 0-4.215 1.419 7.41 7.41 0 0 0-1.53 1.59 6.61 6.61 0 0 0-.967 1.981H.235a8.091 8.091 0 0 1 1.077-2.386A8.039 8.039 0 0 1 3.06 1.716 8.128 8.128 0 0 1 5.323.468 7.733 7.733 0 0 1 7.977.016c1.52 0 2.898.38 4.136 1.138a7.778 7.778 0 0 1 2.857 3.01V2.386a.576.576 0 0 1 .187-.358.397.397 0 0 1 .344-.11c.145 0 .26.052.343.156a.536.536 0 0 1 .125.343v2.62a1.119 1.119 0 0 1-.36.702 1.02 1.02 0 0 1-.702.265l-2.653-.25a.43.43 0 0 1-.328-.155.502.502 0 0 1-.14-.343.81.81 0 0 1 .203-.36.4.4 0 0 1 .358-.108l1.905.156a7.18 7.18 0 0 0-2.545-2.838c-1.113-.728-2.357-1.092-3.73-1.092Zm0 13.972c.874 0 1.707-.156 2.497-.468a7.28 7.28 0 0 0 2.108-1.263 6.688 6.688 0 0 0 1.514-1.887 7.067 7.067 0 0 0 .78-2.37h1.03a7.85 7.85 0 0 1-.874 2.745 7.92 7.92 0 0 1-1.748 2.214 8.32 8.32 0 0 1-2.42 1.481 7.672 7.672 0 0 1-2.887.546c-1.499 0-2.862-.374-4.09-1.123a8.003 8.003 0 0 1-2.872-2.963v1.716a.576.576 0 0 1-.187.358.397.397 0 0 1-.344.11.416.416 0 0 1-.343-.156.537.537 0 0 1-.125-.343v-2.62a1.12 1.12 0 0 1 .36-.702 1.06 1.06 0 0 1 .733-.265l2.622.25c.146 0 .26.051.344.155a.536.536 0 0 1 .124.344.542.542 0 0 1-.187.374.537.537 0 0 1-.343.124l-1.936-.187a6.952 6.952 0 0 0 2.513 2.839c1.114.727 2.357 1.091 3.73 1.091Z"/></svg>