<svg xmlns="http://www.w3.org/2000/svg" fill="currentColor" viewBox="0 0 16 16"><path d="M0 3.281c.146 0 .286-.005.422-.015a.803.803 0 0 0 .375-.125.698.698 0 0 0 .265-.344c.063-.156.094-.38.094-.672 0-.375.104-.646.313-.813.208-.166.479-.27.812-.312H3v1H2c0 .438-.042.786-.125 1.047a2.23 2.23 0 0 1-.281.61c-.104.145-.214.239-.328.28A.849.849 0 0 1 1 4a.71.71 0 0 1 .266.078.896.896 0 0 1 .328.281c.104.136.198.334.281.594.083.26.125.61.125 1.047h1v1h-.719c-.333-.042-.604-.146-.812-.313-.209-.166-.313-.437-.313-.812 0-.563-.12-.89-.36-.984A2.17 2.17 0 0 0 0 4.75V3.281ZM13 9h.688c.333.042.604.146.812.313.208.166.313.437.313.812 0 .292.036.516.109.672a.84.84 0 0 0 .265.344c.105.072.23.114.376.125.145.01.291.015.437.015v1.469c-.292 0-.563.047-.813.14-.25.094-.374.422-.374.985 0 .375-.105.646-.313.813-.208.166-.48.27-.813.312H13v-1h1c0-.438.042-.787.125-1.047.083-.26.177-.458.281-.594a.896.896 0 0 1 .328-.28A.709.709 0 0 1 15 12a.848.848 0 0 1-.266-.063c-.114-.041-.224-.135-.328-.28a2.23 2.23 0 0 1-.281-.61c-.083-.26-.125-.61-.125-1.047h-1V9ZM3.969 7.5c0-.146.052-.266.156-.36A.503.503 0 0 1 4.469 7h7c.333 0 .5.167.5.5 0 .125-.047.24-.14.344a.462.462 0 0 1-.36.156h-7a.478.478 0 0 1-.344-.156.478.478 0 0 1-.156-.344Zm0-3c0-.146.052-.266.156-.36A.503.503 0 0 1 4.469 4h7c.333 0 .5.167.5.5 0 .125-.047.24-.14.344a.462.462 0 0 1-.36.156h-7a.478.478 0 0 1-.344-.156.478.478 0 0 1-.156-.344Zm0 6c0-.146.052-.266.156-.36a.503.503 0 0 1 .344-.14h7c.333 0 .5.167.5.5 0 .125-.047.24-.14.344a.462.462 0 0 1-.36.156h-7a.478.478 0 0 1-.344-.156.478.478 0 0 1-.156-.344Z"/></svg>