<svg xmlns="http://www.w3.org/2000/svg" fill="currentColor" viewBox="0 0 16 16"><path d="m.214 14.998 2.569-2.542-.357-2.29c-.071-.358.036-.657.32-.895L8.135 3.83l-.428-.394c-.262-.262-.262-.537 0-.823a.583.583 0 0 1 .428-.179c.142 0 .273.06.392.179L9.74 3.83l1.605-1.61-1.212-1.218c-.262-.262-.262-.525 0-.787.142-.143.285-.215.428-.215.166 0 .297.072.392.215l4.852 4.832c.261.286.261.56 0 .823a.545.545 0 0 1-.393.18c-.095 0-.237-.06-.428-.18L13.77 4.653l-1.605 1.611 1.213 1.217c.285.262.285.537 0 .823a.545.545 0 0 1-.393.18c-.095 0-.237-.06-.428-.18l-.392-.393-5.387 5.404a1.066 1.066 0 0 1-.785.323c-.071 0-.119-.012-.142-.036l-2.248-.358-2.568 2.577A.545.545 0 0 1 .642 16c-.095 0-.238-.06-.428-.179-.285-.286-.285-.56 0-.823Zm3.675-2.864 2.104.358 5.351-5.405L8.92 4.653 7.313 6.264l1.213 1.217c.286.262.286.537 0 .823a.545.545 0 0 1-.392.18c-.095 0-.238-.06-.428-.18L6.493 7.087l-.785.824L6.92 9.128c.261.262.261.524 0 .787a.545.545 0 0 1-.393.179c-.095 0-.237-.06-.428-.179L4.887 8.698l-1.32 1.36.322 2.076Zm6.67-7.48.786.823V5.44l1.605-1.61-.785-.787-1.605 1.61Z"/></svg>