<svg xmlns="http://www.w3.org/2000/svg" fill="currentColor" viewBox="0 0 16 16"><path d="M8 0c1.104 0 2.146.208 3.125.625.98.417 1.828.984 2.547 1.703a7.979 7.979 0 0 1 1.703 2.547c.417.98.625 2.02.625 3.125 0 1.104-.208 2.14-.625 3.11a8.217 8.217 0 0 1-1.703 2.546 7.853 7.853 0 0 1-2.547 1.719c-.98.417-2.02.625-3.125.625a7.785 7.785 0 0 1-3.11-.625 8.081 8.081 0 0 1-2.546-1.719A8.08 8.08 0 0 1 .625 11.11 7.786 7.786 0 0 1 0 8c0-1.104.208-2.146.625-3.125.417-.98.99-1.828 1.719-2.547A8.214 8.214 0 0 1 4.89.625 7.785 7.785 0 0 1 8 0Zm0 15c.958 0 1.865-.182 2.719-.547a7.027 7.027 0 0 0 2.234-1.5 7.027 7.027 0 0 0 1.5-2.234C14.818 9.865 15 8.959 15 8c0-.958-.182-1.865-.547-2.719a7.026 7.026 0 0 0-1.5-2.234 7.026 7.026 0 0 0-2.234-1.5A6.853 6.853 0 0 0 8 1c-.958 0-1.865.182-2.719.547a7.026 7.026 0 0 0-2.234 1.5 7.026 7.026 0 0 0-1.5 2.234A6.853 6.853 0 0 0 1 8c0 .958.182 1.865.547 2.719a7.026 7.026 0 0 0 1.5 2.234 7.026 7.026 0 0 0 2.234 1.5C6.135 14.818 7.041 15 8 15ZM7.906 3.25c.896 0 1.61.224 2.14.672.532.448.798 1.026.798 1.734 0 .459-.136.839-.406 1.14-.271.303-.532.6-.782.891a4.958 4.958 0 0 1-.469.47 1.719 1.719 0 0 0-.359.421 1.706 1.706 0 0 0-.203.563c-.042.218-.042.505 0 .859H7.094c0-.333.005-.62.015-.86a1.89 1.89 0 0 1 .141-.656c.083-.198.208-.39.375-.578.167-.187.396-.406.688-.656l.656-.531c.146-.104.291-.271.437-.5.146-.23.219-.448.219-.657 0-.312-.151-.614-.453-.906C8.87 4.365 8.479 4.22 8 4.22c-.48 0-.875.15-1.188.453-.312.302-.51.693-.593 1.172H4.687c0-.292.079-.594.235-.907.156-.312.375-.593.656-.843s.62-.453 1.016-.61a3.546 3.546 0 0 1 1.312-.234ZM8 11c.292 0 .531.094.719.281A.974.974 0 0 1 9 12c0 .27-.094.505-.281.703A.947.947 0 0 1 8 13a.961.961 0 0 1-.703-.297A.961.961 0 0 1 7 12c0-.292.099-.531.297-.719A.988.988 0 0 1 8 11Z"/></svg>