<svg xmlns="http://www.w3.org/2000/svg" fill="currentColor" viewBox="0 0 16 16"><path d="M0 8c0-1.104.208-2.146.625-3.125.417-.98.99-1.828 1.719-2.547A8.214 8.214 0 0 1 4.89.625 7.785 7.785 0 0 1 8 0c1.104 0 2.146.208 3.125.625.98.417 1.828.984 2.547 1.703a7.979 7.979 0 0 1 1.703 2.547c.417.98.625 2.02.625 3.125 0 1.104-.208 2.14-.625 3.11a8.217 8.217 0 0 1-1.703 2.546 7.853 7.853 0 0 1-2.547 1.719c-.98.417-2.02.625-3.125.625a7.785 7.785 0 0 1-3.11-.625 8.081 8.081 0 0 1-2.546-1.719A8.08 8.08 0 0 1 .625 11.11 7.786 7.786 0 0 1 0 8Zm11.594-4c-.354-.333-.698-.333-1.031 0l-3.22 3.094c-.228.27-.343.562-.343.875 0 .375.125.666.375.875L10.563 12c.166.167.343.25.53.25.188 0 .365-.083.532-.25.167-.167.25-.344.25-.531 0-.188-.083-.365-.25-.531l-3.031-2.97 3-2.905a.797.797 0 0 0 .203-.297.772.772 0 0 0 .047-.235.68.68 0 0 0-.25-.531ZM8 4c-.354-.354-.708-.354-1.063 0L3.75 7.094c-.23.27-.344.562-.344.875 0 .354.115.646.344.875L6.938 12c.166.167.348.25.546.25.198 0 .38-.083.547-.25a.723.723 0 0 0 .219-.531.723.723 0 0 0-.219-.531L4.97 7.967l3-2.905c.125-.105.203-.204.234-.297a.771.771 0 0 0 .047-.235c0-.187-.083-.364-.25-.531Z"/></svg>