<svg xmlns="http://www.w3.org/2000/svg" fill="currentColor" viewBox="0 0 16 16"><path d="M8 0c1.104 0 2.146.208 3.125.625.98.417 1.828.984 2.547 1.703a7.979 7.979 0 0 1 1.703 2.547c.417.98.625 2.02.625 3.125 0 1.104-.208 2.14-.625 3.11a8.217 8.217 0 0 1-1.703 2.546 7.853 7.853 0 0 1-2.547 1.719c-.98.417-2.02.625-3.125.625a7.785 7.785 0 0 1-3.11-.625 8.081 8.081 0 0 1-2.546-1.719A8.08 8.08 0 0 1 .625 11.11 7.786 7.786 0 0 1 0 8c0-1.104.208-2.146.625-3.125.417-.98.99-1.828 1.719-2.547A8.214 8.214 0 0 1 4.89.625 7.785 7.785 0 0 1 8 0Zm0 15c.958 0 1.865-.182 2.719-.547a7.027 7.027 0 0 0 2.234-1.5 7.075 7.075 0 0 0 1.5-2.219A6.819 6.819 0 0 0 15 8c0-.958-.182-1.865-.547-2.719a7.026 7.026 0 0 0-1.5-2.234 7.026 7.026 0 0 0-2.234-1.5A6.853 6.853 0 0 0 8 1c-.98 0-1.89.182-2.734.547a7.074 7.074 0 0 0-2.22 1.5 7.026 7.026 0 0 0-1.5 2.234A6.853 6.853 0 0 0 1 8c0 .98.182 1.89.547 2.734a7.074 7.074 0 0 0 1.5 2.22 7.075 7.075 0 0 0 2.219 1.5A6.819 6.819 0 0 0 8 15Zm4.063-9.844c.083.063.13.146.14.25a.389.389 0 0 1-.078.282l-4.531 6.437a.4.4 0 0 1-.328.219.525.525 0 0 1-.422-.125L3.625 8.563a.37.37 0 0 1-.156-.297.37.37 0 0 1 .156-.297l.688-.719c.229-.23.437-.23.625 0l1.75 1.688c.104.104.229.15.375.14.145-.01.26-.099.343-.265l3.219-4.25c.083-.146.193-.23.328-.25a.48.48 0 0 1 .39.125l.72.718Z"/></svg>