<svg xmlns="http://www.w3.org/2000/svg" fill="currentColor" viewBox="0 0 16 16"><path d="M3.988 0h7.977c.29 0 .53.099.717.297a.99.99 0 0 1 .28.703v1h-.997V1h-6.98v3a.948.948 0 0 1-.296.719.983.983 0 0 1-.7.281H.996v10H6.98v1H1.028c-.29 0-.535-.094-.732-.281A.948.948 0 0 1 0 15V4l3.988-4Zm5.11 9.125a.51.51 0 0 1 .374-.156c.125 0 .24.052.343.156l2.15 2.375v-7c0-.333.166-.5.498-.5a.5.5 0 0 1 .343.14.462.462 0 0 1 .156.36v7l2.119-2.375a.51.51 0 0 1 .374-.156c.124 0 .239.052.342.156.229.25.229.49 0 .719l-2.68 2.844c-.207.208-.435.312-.685.312a.984.984 0 0 1-.716-.313L9.098 9.845c-.228-.25-.228-.49 0-.719Zm.032 3.188a.509.509 0 0 1 .373-.157c.125 0 .24.052.343.156l1.9 1.97a.984.984 0 0 0 .717.312c.25 0 .478-.104.686-.313l1.963-2.031a.509.509 0 0 1 .374-.156c.124 0 .239.052.343.156.228.23.228.469 0 .719l-2.68 2.719a.887.887 0 0 1-.685.312.92.92 0 0 1-.717-.313L9.13 13.031c-.229-.25-.229-.49 0-.719Z"/></svg>