<svg xmlns="http://www.w3.org/2000/svg" fill="currentColor" viewBox="0 0 16 16"><path d="M8 0c1.104 0 2.146.208 3.125.625.98.417 1.828.984 2.547 1.703a7.979 7.979 0 0 1 1.703 2.547c.417.98.625 2.02.625 3.125 0 1.104-.208 2.14-.625 3.11a8.217 8.217 0 0 1-1.703 2.546 7.853 7.853 0 0 1-2.547 1.719c-.98.417-2.02.625-3.125.625a7.785 7.785 0 0 1-3.11-.625 8.081 8.081 0 0 1-2.546-1.719A8.08 8.08 0 0 1 .625 11.11 7.786 7.786 0 0 1 0 8c0-1.104.208-2.146.625-3.125.417-.98.99-1.828 1.719-2.547A8.214 8.214 0 0 1 4.89.625 7.785 7.785 0 0 1 8 0Zm0 15c.958 0 1.865-.182 2.719-.547a7.027 7.027 0 0 0 2.234-1.5 7.027 7.027 0 0 0 1.5-2.234C14.818 9.865 15 8.959 15 8c0-.958-.182-1.865-.547-2.719a7.026 7.026 0 0 0-1.5-2.234 7.026 7.026 0 0 0-2.234-1.5A6.853 6.853 0 0 0 8 1c-.958 0-1.865.182-2.719.547a7.026 7.026 0 0 0-2.234 1.5 7.026 7.026 0 0 0-1.5 2.234A6.853 6.853 0 0 0 1 8c0 .958.182 1.865.547 2.719a7.026 7.026 0 0 0 1.5 2.234 7.026 7.026 0 0 0 2.234 1.5C6.135 14.818 7.041 15 8 15ZM4 8.5v-1h8v1H4Z"/></svg>