<svg xmlns="http://www.w3.org/2000/svg" fill="currentColor" viewBox="0 0 16 16"><path d="M3.996 0h7.992c.292 0 .531.099.718.297a.989.989 0 0 1 .281.703v2h-.999V1H4.995v3a.947.947 0 0 1-.296.719.986.986 0 0 1-.703.281H1v10h5.994v1H1.03c-.291 0-.536-.094-.733-.281A.947.947 0 0 1 0 15V4l3.996-4Zm5.12 12.125a.51.51 0 0 1 .375-.156c.125 0 .24.052.343.156l2.154 2.375v-9c0-.333.167-.5.5-.5.125 0 .24.047.343.14a.462.462 0 0 1 .156.36v9l2.123-2.375a.51.51 0 0 1 .375-.156c.125 0 .24.052.343.156.23.25.23.49 0 .719l-2.685 2.844a.889.889 0 0 1-.686.312.923.923 0 0 1-.719-.313l-2.622-2.843c-.229-.25-.229-.49 0-.719Z"/></svg>