<svg xmlns="http://www.w3.org/2000/svg" fill="currentColor" viewBox="0 0 16 16"><path d="M15.813 9.406a3.356 3.356 0 0 1-.094 2.454 3.598 3.598 0 0 1-.75 1.109 3.598 3.598 0 0 1-1.11.75c-.427.187-.88.281-1.359.281-.48 0-.932-.094-1.36-.281a3.598 3.598 0 0 1-1.109-.75 3.595 3.595 0 0 1-.75-1.11A3.344 3.344 0 0 1 9 10.5c0-.02-.005-.073-.016-.156a.528.528 0 0 0-.109-.25.895.895 0 0 0-.297-.235C8.443 9.786 8.25 9.75 8 9.75c-.25 0-.443.036-.578.11a.895.895 0 0 0-.297.234.528.528 0 0 0-.11.25A1.81 1.81 0 0 0 7 10.5c0 .48-.094.932-.281 1.36a3.594 3.594 0 0 1-.75 1.109 3.598 3.598 0 0 1-1.11.75c-.427.187-.88.281-1.359.281-.48 0-.932-.094-1.36-.281a3.598 3.598 0 0 1-1.109-.75 3.594 3.594 0 0 1-.75-1.11A3.345 3.345 0 0 1 0 10.5c0-.188.02-.375.063-.563.041-.187.093-.374.156-.562l-.031.031c0-.02.005-.036.015-.047a.064.064 0 0 0 .016-.046c.083-.209.187-.417.312-.626.209-.437.448-.921.719-1.453.27-.53.536-1.062.797-1.593.26-.532.515-1.037.765-1.516.25-.48.459-.896.626-1.25.27-.583.76-.875 1.468-.875.271 0 .521.042.75.125.459.167.787.385.985.656.198.271.323.568.375.89.052.324.062.647.03.97A9.808 9.808 0 0 0 7 5.5V6h2V4.969c-.02-.271-.036-.558-.047-.86a2.47 2.47 0 0 1 .11-.843c.083-.26.218-.495.406-.704.187-.208.479-.364.875-.468C10.552 2.03 10.77 2 11 2c.375 0 .719.094 1.031.281.313.188.573.48.781.875.146.334.329.724.547 1.172.22.448.448.922.688 1.422a199.848 199.848 0 0 0 1.39 2.844c.146.25.26.49.344.719 0 .02.005.036.016.046.01.01.015.026.015.047ZM3.5 13a2.41 2.41 0 0 0 1.766-.734c.49-.49.734-1.079.734-1.766a2.41 2.41 0 0 0-.734-1.766A2.407 2.407 0 0 0 3.5 8c-.146 0-.297.02-.453.063a30.65 30.65 0 0 1-.485.124 2.51 2.51 0 0 0-1.124.907A2.394 2.394 0 0 0 1 10.5c0 .688.245 1.276.734 1.766.49.49 1.079.734 1.766.734Zm9 0a2.41 2.41 0 0 0 1.766-.734c.49-.49.734-1.079.734-1.766a2.41 2.41 0 0 0-.734-1.766A2.407 2.407 0 0 0 12.5 8a2.41 2.41 0 0 0-1.766.734A2.407 2.407 0 0 0 10 10.5c0 .688.245 1.276.734 1.766.49.49 1.079.734 1.766.734Z"/></svg>