<svg xmlns="http://www.w3.org/2000/svg" fill="currentColor" viewBox="0 0 17 16"><path d="M.018 9.664c0-.423.063-.804.188-1.142H.174c.021-.021.032-.037.032-.048 0-.01.01-.026.03-.048.063-.211.157-.412.282-.603.208-.444.448-.936.719-1.475l.812-1.619a107.14 107.14 0 0 0 1.375-2.84C3.737 1.296 4.226 1 4.894 1c.374 0 .634.042.78.127.459.17.787.397.985.682.198.286.323.593.375.92.052.329.062.657.03.985a9.068 9.068 0 0 0-.046.84.827.827 0 0 0-.016.27c.01.074.016.133.016.175v.095h2V4.047c-.02-.296-.036-.593-.047-.889a2.78 2.78 0 0 1 .094-.84c.073-.265.208-.503.406-.715.198-.212.485-.37.86-.476a2.43 2.43 0 0 1 .656-.095c.375 0 .724.09 1.047.27.323.18.578.48.765.904.146.317.328.704.547 1.158.219.455.448.937.688 1.444a208.315 208.315 0 0 0 1.39 2.888c.084.106.151.223.203.35.053.127.1.254.141.38.063.064.083.096.063.096h-.032c.146.275.22.656.22 1.142a.866.866 0 0 1-.032.238 1.01 1.01 0 0 0-.031.27h-1c.02-.106.036-.196.046-.27a1.77 1.77 0 0 0 .016-.238c0-.084-.083-.465-.25-1.142a2.729 2.729 0 0 0-.937-1.016 2.435 2.435 0 0 0-1.344-.38c-.709 0-1.297.248-1.766.745a2.521 2.521 0 0 0-.703 1.793v.238c0 .074.01.164.031.27h-1c0-.36-.01-.55-.03-.571-.043-.233-.131-.413-.267-.54-.135-.127-.38-.19-.734-.19-.25 0-.443.037-.578.11a.898.898 0 0 0-.297.239.54.54 0 0 0-.11.254 1.71 1.71 0 0 0-.015.19 3.52 3.52 0 0 1-1.047 2.507 3.792 3.792 0 0 1-1.125.762 3.3 3.3 0 0 1-2.687 0 3.591 3.591 0 0 1-1.11-.762 3.654 3.654 0 0 1-.75-1.126 3.442 3.442 0 0 1-.28-1.38Zm3.469-2.539c-.709 0-1.297.249-1.766.746a2.521 2.521 0 0 0-.703 1.793c0 .698.24 1.296.719 1.793a2.339 2.339 0 0 0 1.75.746c.708 0 1.307-.248 1.797-.746.49-.497.734-1.095.734-1.793 0-.084-.083-.465-.25-1.142a2.728 2.728 0 0 0-.937-1.016 2.435 2.435 0 0 0-1.344-.38Zm5.531 4.03h3V8.11h1v3.047h3v1.015h-3v3.047h-1v-3.047h-3v-1.015Z"/></svg>