<svg xmlns="http://www.w3.org/2000/svg" fill="currentColor" viewBox="0 0 16 16"><path d="M0 15.002V4.023L3.988.031h3.989v.998H4.985v2.994c0 .292-.093.53-.28.718a.97.97 0 0 1-.717.28H.998v9.981h10.998v-1.03h.966v1.03c0 .291-.088.53-.265.717-.176.188-.41.281-.7.281H1.027c-.29 0-.535-.094-.732-.28A.945.945 0 0 1 0 15.001Zm9.098-8.858 2.618-2.838a.92.92 0 0 1 .716-.312c.27 0 .499.104.686.312l2.68 2.838c.228.229.228.468 0 .718a.476.476 0 0 1-.343.156c-.083 0-.208-.052-.374-.156l-2.119-2.37v6.986a.461.461 0 0 1-.156.358.5.5 0 0 1-.342.14c-.333 0-.5-.166-.5-.498V4.49L9.815 6.86a.476.476 0 0 1-.343.157c-.083 0-.207-.052-.374-.156-.228-.25-.228-.489 0-.718Zm.032-3.181L11.747.312A.92.92 0 0 1 12.463 0c.27 0 .499.104.686.312l2.68 2.713c.228.25.228.489 0 .718a.476.476 0 0 1-.343.156c-.083 0-.208-.052-.374-.156l-1.963-2.028a.887.887 0 0 0-.685-.311.92.92 0 0 0-.717.311l-1.9 1.965a.476.476 0 0 1-.344.156c-.083 0-.207-.052-.373-.156-.229-.25-.229-.488 0-.717Z"/></svg>