<svg xmlns="http://www.w3.org/2000/svg" fill="currentColor" viewBox="0 0 16 16"><path d="M3.996 0h3.996v1H4.995v3a.974.974 0 0 1-.28.719.972.972 0 0 1-.719.281H1v10h10.99v-2h.998v2c0 .292-.088.531-.265.719-.177.187-.411.281-.702.281H1.03c-.291 0-.536-.094-.733-.281A.947.947 0 0 1 0 15V4l3.996-4Zm5.12 3.156L11.74.313A.923.923 0 0 1 12.457 0c.27 0 .5.104.686.313l2.685 2.843c.23.23.23.469 0 .719a.477.477 0 0 1-.343.156c-.083 0-.208-.052-.375-.156L12.987 1.5v9a.462.462 0 0 1-.156.36.502.502 0 0 1-.343.14c-.333 0-.5-.167-.5-.5v-9L9.834 3.875a.477.477 0 0 1-.343.156c-.084 0-.208-.052-.375-.156-.229-.25-.229-.49 0-.719Z"/></svg>