<svg xmlns="http://www.w3.org/2000/svg" fill="currentColor" viewBox="0 0 16 16"><path d="M8 0c1.104 0 2.14.208 3.11.625a8.215 8.215 0 0 1 2.546 1.703 7.852 7.852 0 0 1 1.719 2.547c.417.98.625 2.02.625 3.125 0 1.104-.208 2.14-.625 3.11a8.082 8.082 0 0 1-1.719 2.546 8.082 8.082 0 0 1-2.547 1.719A7.785 7.785 0 0 1 8 16a7.897 7.897 0 0 1-3.125-.625 7.852 7.852 0 0 1-2.547-1.719A8.215 8.215 0 0 1 .625 11.11 7.786 7.786 0 0 1 0 8c0-1.104.208-2.146.625-3.125a7.977 7.977 0 0 1 1.703-2.547A7.977 7.977 0 0 1 4.875.625 7.897 7.897 0 0 1 8 0Zm-.156 13.281c.312 0 .583-.114.812-.344.23-.229.344-.5.344-.812a1.06 1.06 0 0 0-.344-.797A1.136 1.136 0 0 0 7.844 11c-.313 0-.578.11-.797.328a1.085 1.085 0 0 0-.328.797c0 .313.11.583.328.813.219.229.484.343.797.343ZM11 5.812c0-.666-.281-1.26-.844-1.78-.562-.522-1.364-.782-2.406-.782-.958 0-1.714.25-2.266.75s-.859 1.115-.921 1.844h1.625c.104-.5.286-.839.546-1.016.26-.177.63-.266 1.11-.266.479 0 .843.13 1.093.391.25.26.376.547.376.86 0 .208-.027.354-.079.437-.052.083-.192.24-.421.469l-.626.531c-.312.25-.552.469-.718.656-.167.188-.287.38-.36.578-.073.198-.12.417-.14.657-.021.24-.032.526-.032.859H8.5c0-.25.005-.448.016-.594.01-.146.041-.276.093-.39a1.12 1.12 0 0 1 .235-.329c.104-.104.26-.24.469-.406l.843-.781.5-.563.281-.5.063-.625Z"/></svg>