<svg xmlns="http://www.w3.org/2000/svg" fill="currentColor" viewBox="0 0 16 16"><path d="M8 0c1.104 0 2.146.208 3.125.625.98.417 1.828.99 2.547 1.719a8.216 8.216 0 0 1 1.703 2.547C15.792 5.859 16 6.896 16 8a7.897 7.897 0 0 1-.625 3.125 7.979 7.979 0 0 1-1.703 2.547 7.979 7.979 0 0 1-2.547 1.703c-.98.417-2.02.625-3.125.625a7.785 7.785 0 0 1-3.11-.625 8.216 8.216 0 0 1-2.546-1.703 7.851 7.851 0 0 1-1.719-2.547A7.898 7.898 0 0 1 0 8c0-1.104.208-2.14.625-3.11a8.08 8.08 0 0 1 1.719-2.546A8.08 8.08 0 0 1 4.89.625 7.785 7.785 0 0 1 8 0Zm0 15c.958 0 1.865-.182 2.719-.547a7.027 7.027 0 0 0 2.234-1.5 7.075 7.075 0 0 0 1.5-2.219A6.819 6.819 0 0 0 15 8c0-.958-.182-1.865-.547-2.719a7.026 7.026 0 0 0-1.5-2.234 7.026 7.026 0 0 0-2.234-1.5A6.853 6.853 0 0 0 8 1c-.958 0-1.865.182-2.719.547a7.026 7.026 0 0 0-2.234 1.5 7.026 7.026 0 0 0-1.5 2.234A6.853 6.853 0 0 0 1 8c0 .98.182 1.89.547 2.734a7.074 7.074 0 0 0 1.5 2.22 7.026 7.026 0 0 0 2.234 1.5C6.135 14.817 7.041 15 8 15Zm3.844-7.875c.229.23.229.458 0 .688-.25.25-.49.25-.719 0l-2.906-3c-.125-.125-.24-.125-.344 0l-2.969 3.03c-.25.25-.49.25-.718 0-.25-.228-.25-.468 0-.718l3.156-3.188a.935.935 0 0 1 .687-.28c.271 0 .51.093.719.28l3.094 3.188Zm0 3.344c.229.229.229.458 0 .687-.25.25-.49.25-.719 0l-2.906-3c-.125-.125-.24-.125-.344 0l-2.969 3.031c-.25.25-.49.25-.718 0-.25-.229-.25-.468 0-.718L7.344 7.28A.935.935 0 0 1 8.03 7c.271 0 .51.094.719.281l3.094 3.188Z"/></svg>