<svg xmlns="http://www.w3.org/2000/svg" fill="currentColor" viewBox="0 0 16 16"><path d="M8 0c1.104 0 2.146.208 3.125.625.98.417 1.828.99 2.547 1.719a8.216 8.216 0 0 1 1.703 2.547C15.792 5.859 16 6.896 16 8a7.897 7.897 0 0 1-.625 3.125 7.979 7.979 0 0 1-1.703 2.547 7.979 7.979 0 0 1-2.547 1.703c-.98.417-2.02.625-3.125.625a7.785 7.785 0 0 1-3.11-.625 8.216 8.216 0 0 1-2.546-1.703 7.851 7.851 0 0 1-1.719-2.547A7.898 7.898 0 0 1 0 8c0-1.104.208-2.14.625-3.11a8.08 8.08 0 0 1 1.719-2.546A8.08 8.08 0 0 1 4.89.625 7.785 7.785 0 0 1 8 0Zm4 11.594c.333-.334.333-.677 0-1.031l-3.094-3.22C8.636 7.116 8.344 7 8.031 7c-.375 0-.666.125-.875.375L4 10.563c-.167.166-.25.343-.25.53 0 .188.083.365.25.532.167.167.344.25.531.25.188 0 .365-.083.532-.25L8.03 8.594l2.906 3a.797.797 0 0 0 .297.203.772.772 0 0 0 .235.047.68.68 0 0 0 .531-.25ZM12 8c.354-.354.354-.708 0-1.063L8.906 3.75c-.27-.23-.562-.344-.875-.344-.354 0-.646.115-.875.344L4 6.938c-.167.166-.25.348-.25.546 0 .198.083.38.25.547a.723.723 0 0 0 .531.219.723.723 0 0 0 .532-.219L8.03 4.97l2.906 3c.105.125.204.203.297.234a.771.771 0 0 0 .235.047c.187 0 .364-.083.531-.25Z"/></svg>