<svg xmlns="http://www.w3.org/2000/svg" fill="currentColor" viewBox="0 0 16 16"><path d="M0 14.438v-2.126c0-.354.177-.53.531-.53.354 0 .531.176.531.53v2.126c0 .354-.177.53-.53.53a.53.53 0 0 1-.36-.155.49.49 0 0 1-.172-.376Zm0-8.563V3.75c0-.354.177-.531.531-.531.354 0 .531.177.531.531v2.125c0 .354-.177.531-.53.531a.53.53 0 0 1-.36-.156A.49.49 0 0 1 0 5.875Zm.531 1.594c.354 0 .531.177.531.531v2.156c0 .354-.177.531-.53.531a.508.508 0 0 1-.36-.171C.057 10.4 0 10.28 0 10.156V8c0-.146.047-.27.14-.375a.499.499 0 0 1 .391-.156ZM3.687 0h2.157c.354 0 .531.177.531.531a.49.49 0 0 1-.172.375.53.53 0 0 1-.36.156H3.689a.541.541 0 0 1-.376-.14.499.499 0 0 1-.156-.39c0-.355.177-.532.531-.532Zm8.594 0h2.125c.354 0 .531.177.531.531a.49.49 0 0 1-.171.375.53.53 0 0 1-.36.156h-2.125a.584.584 0 0 1-.406-.14.499.499 0 0 1-.156-.39c0-.355.187-.532.562-.532ZM7.97 0h2.125c.354 0 .531.177.531.531a.511.511 0 0 1-.156.375.512.512 0 0 1-.375.156H7.969c-.354 0-.532-.177-.532-.53 0-.355.178-.532.532-.532Zm3.75 7.469v3.218h3.219V7.47h-3.22ZM3.188 6.406h3.218V3.22H3.188v3.187Zm4.28 0h3.188V3.22H7.47v3.187Zm7.47 0V3.22h-3.22v3.187h3.22Zm-11.75 8.532h3.218V11.75H3.188v3.188Zm4.28-4.25h3.188v-3.22H7.47v3.22Zm0 4.25h3.188V11.75H7.47v3.188Zm-1.062-4.25v-3.22H3.188v3.22h3.218Zm5.313 1.062v3.188h3.219V11.75h-3.22ZM2.125 3.219c0-.313.104-.568.313-.766a1.05 1.05 0 0 1 .75-.297h11.75c.291 0 .541.1.75.297.208.198.312.453.312.766v11.719c0 .291-.104.541-.313.75a1.023 1.023 0 0 1-.75.312H3.188a1.05 1.05 0 0 1-.75-.297 1.009 1.009 0 0 1-.312-.765V3.217Z"/></svg>