<svg xmlns="http://www.w3.org/2000/svg" fill="currentColor" viewBox="0 0 16 16"><path d="M0 1.143C0 .81.113.536.34.32A1.13 1.13 0 0 1 1.142 0h13.714c.334 0 .607.107.822.321.214.215.321.489.321.822v13.714c0 .334-.107.607-.321.822a1.116 1.116 0 0 1-.822.321H1.143a1.13 1.13 0 0 1-.804-.321A1.082 1.082 0 0 1 0 14.857V1.143ZM10 10V6.107H6V10h4Zm0-5.036V1.143H6v3.821h4Zm-4 6.179v3.714h4v-3.714H6ZM14.857 10V6.107h-3.714V10h3.714Zm-10 0V6.107H1.143V10h3.714ZM1.143 4.964h3.714V1.143H1.143v3.821Zm10-3.821v3.821h3.714V1.143h-3.714Zm0 13.714h3.714v-3.714h-3.714v3.714Zm-6.286 0v-3.714H1.143v3.714h3.714Z"/></svg>