<svg xmlns="http://www.w3.org/2000/svg" fill="currentColor" viewBox="0 0 16 16"><path d="M13.219 5.188c.416 0 .797.083 1.14.25.344.166.636.39.875.671.24.282.428.6.563.954.135.354.203.708.203 1.062 0 .688-.25 1.302-.75 1.844-.5.541-1.323.812-2.469.812H7.156L3.5 15v-4.219l-1.125-.031c-.75-.02-1.333-.313-1.75-.875C.208 9.312 0 8.635 0 7.844c0-.375.057-.76.172-1.157.114-.395.297-.755.547-1.078.25-.323.562-.604.937-.843A3.89 3.89 0 0 1 3 4.25c.02-.5.135-.953.344-1.36.208-.406.474-.75.797-1.03a3.399 3.399 0 0 1 1.093-.641A3.718 3.718 0 0 1 6.5 1c.688 0 1.344.198 1.969.594.625.396 1.073 1.031 1.344 1.906.312-.125.604-.188.874-.188.584 0 1.073.198 1.47.594.395.396.614.834.655 1.313.063-.021.198-.032.407-.032Zm1.344 4.03c.187-.166.307-.348.359-.546A2.16 2.16 0 0 0 15 8.125c0-.48-.162-.922-.484-1.328-.323-.406-.756-.61-1.297-.61a.65.65 0 0 0-.25.032l-1.031.125-.094-1.032c-.042-.208-.162-.427-.36-.656-.197-.229-.463-.343-.796-.343-.146 0-.313.041-.5.125l-1 .406-.344-1.032c-.125-.395-.292-.713-.5-.953a2.527 2.527 0 0 0-.64-.546 1.848 1.848 0 0 0-.657-.235 3.995 3.995 0 0 0-.547-.047 2.65 2.65 0 0 0-1.656.578c-.5.386-.771.943-.813 1.672L4 5.094l-.813.156c-.437.083-.796.219-1.078.406a2.478 2.478 0 0 0-.671.64c-.167.24-.282.496-.344.766a3.327 3.327 0 0 0-.094.75c0 .125.016.292.047.5.031.209.094.422.187.641.094.219.23.406.407.563.177.156.421.234.734.234l2.188.031v2.531l2.218-2.53h6c.813 0 1.406-.188 1.781-.563Z"/></svg>