<svg xmlns="http://www.w3.org/2000/svg" fill="currentColor" viewBox="0 0 16 16"><path d="m6.653 5.061.743-.77 4.93 4.92-.742.8-4.93-4.95Zm-.772.771 3.416 3.38-.772.8-3.416-3.439.772-.741Zm5.911 5.9c.297 0 .555.098.772.296a.959.959 0 0 1 .327.74c0 .297-.109.55-.327.757a1.083 1.083 0 0 1-.772.311c-.277 0-.525-.104-.742-.311a1.005 1.005 0 0 1-.327-.756.96.96 0 0 1 .326-.741c.218-.198.466-.297.743-.297ZM15 9.033v6.492c0 .138-.05.252-.149.34a.479.479 0 0 1-.326.134H8.02a.455.455 0 0 1-.327-.148L.15 8.322A.453.453 0 0 1 0 7.996c0-.119.05-.227.149-.326l6.504-6.522A.487.487 0 0 1 7.01 1c.119 0 .228.05.327.148l7.514 7.53a.485.485 0 0 1 .149.356Zm-1.04.237L7.01 2.304 1.337 7.996l6.95 6.937h5.673V9.27Z"/></svg>