<svg xmlns="http://www.w3.org/2000/svg" fill="currentColor" viewBox="0 0 16 16"><path d="M7.002 7.72c.083 0 .161.01.234.03.073.021.14.042.203.063l4.46-4.522.124-1.154L13.988.016v1.996h1.996L13.957 4.07l-1.154.125L8.218 8.75c0 .041.006.083.016.124.01.042.016.083.016.125 0 .353-.12.655-.359.904-.24.25-.535.375-.889.375a1.23 1.23 0 0 1-.904-.375 1.232 1.232 0 0 1-.375-.904c0-.353.125-.655.375-.904.25-.25.55-.375.904-.375Zm0-1.716c-.832 0-1.538.291-2.12.873a2.887 2.887 0 0 0-.874 2.121c0 .832.291 1.539.873 2.12.583.583 1.29.874 2.121.874a2.86 2.86 0 0 0 1.138-.234c.364-.156.687-.369.967-.64.281-.27.5-.587.655-.95a2.938 2.938 0 0 0 .219-1.45 3.933 3.933 0 0 0-.047-.281l.78-.78c.083.208.15.426.202.655.052.229.078.457.078.686 0 .561-.104 1.081-.312 1.56a4.009 4.009 0 0 1-3.68 2.433 3.869 3.869 0 0 1-1.56-.313 4.058 4.058 0 0 1-2.12-2.12 3.868 3.868 0 0 1-.312-1.56c0-.561.104-1.081.312-1.56a4.057 4.057 0 0 1 2.12-2.12 3.868 3.868 0 0 1 1.56-.312c.478 0 .977.104 1.497.312l-.78.78a10.666 10.666 0 0 0-.343-.063 2.273 2.273 0 0 0-.374-.031Zm5.988-.593c.312.541.556 1.108.733 1.7a6.57 6.57 0 0 1 .265 1.887c0 .977-.182 1.887-.546 2.729a7.062 7.062 0 0 1-1.497 2.214 7.014 7.014 0 0 1-2.23 1.497 6.84 6.84 0 0 1-2.713.546 6.806 6.806 0 0 1-2.729-.546 7.061 7.061 0 0 1-2.214-1.497 7.06 7.06 0 0 1-1.497-2.214 6.805 6.805 0 0 1-.546-2.729c0-.956.182-1.86.546-2.713a7.012 7.012 0 0 1 1.497-2.23 7.06 7.06 0 0 1 2.214-1.497 6.805 6.805 0 0 1 2.73-.546c.664 0 1.314.094 1.948.28a6.63 6.63 0 0 1 1.762.812l-.748.717a6.466 6.466 0 0 0-1.403-.593 5.54 5.54 0 0 0-1.56-.218c-.832 0-1.611.156-2.339.468a6.008 6.008 0 0 0-1.902 1.279 6.008 6.008 0 0 0-1.28 1.902 5.875 5.875 0 0 0-.467 2.339c0 .832.156 1.611.468 2.34A6.007 6.007 0 0 0 2.76 13.24c.54.54 1.174.966 1.902 1.278a5.874 5.874 0 0 0 2.34.468c.81 0 1.58-.156 2.307-.468a6.196 6.196 0 0 0 1.918-1.279 5.88 5.88 0 0 0 1.294-1.902 5.874 5.874 0 0 0 .468-2.339c0-.52-.067-1.019-.203-1.497a7.122 7.122 0 0 0-.545-1.372l.748-.718Z"/></svg>