<svg xmlns="http://www.w3.org/2000/svg" fill="currentColor" viewBox="0 0 16 16"><path d="M2 15V3c0-.292.094-.531.281-.719A.973.973 0 0 1 3 2h2.094c.083-.25.229-.464.437-.64.209-.178.448-.287.719-.329.167-.312.406-.562.719-.75A1.967 1.967 0 0 1 8 0c.375 0 .714.094 1.016.281.302.188.536.438.703.75.291.042.536.151.734.328.198.177.35.391.453.641H13c.27 0 .505.094.703.281A.947.947 0 0 1 14 3v12a.947.947 0 0 1-.297.719A.988.988 0 0 1 13 16H3a.973.973 0 0 1-.719-.281A.974.974 0 0 1 2 15Zm1 0h10V3h-2.094c-.02.146-.135.354-.344.625a.976.976 0 0 1-.78.375H6.218c-.313 0-.584-.125-.813-.375A2.195 2.195 0 0 1 5.094 3H3v12Zm1.969-5.688.718-.812 1.532 1.531 3.031-3.75.75.75-3.781 4.532-2.25-2.25ZM6.5 3h3c.333 0 .5-.167.5-.5 0-.333-.167-.5-.5-.5H9a.947.947 0 0 0-.297-.719A.988.988 0 0 0 8 1a.973.973 0 0 0-.719.281A.973.973 0 0 0 7 2h-.5c-.333 0-.5.167-.5.5 0 .333.167.5.5.5Z"/></svg>