<svg xmlns="http://www.w3.org/2000/svg" fill="currentColor" viewBox="0 0 16 16"><path d="M0 12V8.734c0-.073.01-.161.031-.265.021-.021.032-.073.032-.156 0-.021.026-.105.078-.25.052-.146.088-.23.109-.25a.721.721 0 0 0 .094-.204.389.389 0 0 1 .094-.171.512.512 0 0 0 .062-.079.757.757 0 0 1 .094-.109c0-.02.015-.052.047-.094a.912.912 0 0 1 .078-.093c.25-.271.541-.5.875-.688.27-.417.557-.828.86-1.234.301-.407.603-.766.905-1.079.302-.312.594-.567.875-.765C4.516 3.099 4.771 3 5 3h2v-.5c0-.333.167-.5.5-.5h1c.125 0 .24.047.344.14A.462.462 0 0 1 9 2.5V3h.031c.354 0 .63.047.828.14.198.094.38.261.547.5.167.24.339.553.516.938.177.386.411.86.703 1.422H12c.354 0 .76.104 1.219.313.458.208.896.494 1.312.859.417.364.766.792 1.047 1.281.281.49.422 1.005.422 1.547v2h-2.063a2.33 2.33 0 0 1-.843 1.438A2.45 2.45 0 0 1 11.5 14a2.443 2.443 0 0 1-1.594-.563A2.476 2.476 0 0 1 9.031 12H5.937a2.331 2.331 0 0 1-.843 1.438A2.45 2.45 0 0 1 3.5 14a2.443 2.443 0 0 1-1.594-.563A2.475 2.475 0 0 1 1.031 12H0Zm1.031-1a2.537 2.537 0 0 1 .875-1.422C2.365 9.193 2.896 9 3.5 9c.604 0 1.135.193 1.594.578.458.386.74.86.843 1.422h3.094a2.537 2.537 0 0 1 .875-1.422c.459-.385.99-.578 1.594-.578.604 0 1.135.193 1.594.578.458.386.74.86.844 1.422H15v-1c0-.417-.11-.807-.328-1.172a3.391 3.391 0 0 0-.86-.953 4.348 4.348 0 0 0-1.187-.64A3.88 3.88 0 0 0 11.312 7H3c-.563 0-1.036.198-1.422.594A1.948 1.948 0 0 0 1 9v2h.031Zm2.032-5H10.5a11.522 11.522 0 0 1-.422-.984 4.007 4.007 0 0 0-.265-.61.908.908 0 0 0-.266-.312C9.453 4.03 9.312 4 9.125 4H5c-.125 0-.266.063-.422.188a4.25 4.25 0 0 0-.5.484c-.177.198-.354.411-.531.64A9.23 9.23 0 0 0 3.062 6ZM1.78 11.844c0 .041.005.068.016.078.01.01.016.036.016.078.104.375.312.677.625.906.312.23.666.344 1.062.344A1.685 1.685 0 0 0 5.156 12c0-.042.005-.068.016-.078.01-.01.016-.037.016-.078l.03-.344-.03-.344c0-.041-.006-.068-.016-.078-.01-.01-.016-.036-.016-.078A1.685 1.685 0 0 0 3.5 9.75c-.396 0-.75.115-1.063.344-.312.229-.52.531-.624.906 0 .042-.006.068-.016.078-.01.01-.016.037-.016.078-.02.021-.031.063-.031.125v.438c0 .062.01.104.031.125Zm7.97-.344.031.344c0 .041.005.068.016.078.01.01.015.036.015.078.105.375.313.677.626.906.312.23.666.344 1.062.344A1.685 1.685 0 0 0 13.156 12c0-.042.005-.068.016-.078.01-.01.015-.037.015-.078l.032-.344-.031-.344c0-.041-.006-.068-.016-.078-.01-.01-.016-.036-.016-.078A1.685 1.685 0 0 0 11.5 9.75c-.396 0-.75.115-1.063.344-.312.229-.52.531-.624.906 0 .042-.006.068-.016.078-.01.01-.016.037-.016.078l-.031.344ZM5 8h1v1h1V8h1v1h1V8h1v1H9v1H8V9H7v1H6V9H5V8Z"/></svg>