<svg xmlns="http://www.w3.org/2000/svg" fill="currentColor" viewBox="0 0 16 16"><path d="M16 12.75V16h-3.231l-3.734-4c-.418.354-.873.61-1.364.766A4.611 4.611 0 0 1 6.275 13c-1.13 0-2.15-.281-3.06-.844A6.933 6.933 0 0 1 1.005 10h5.02c.25 0 .491-.104.721-.313.23-.208.44-.49.628-.843A5.504 5.504 0 0 0 8 6.28c0-.458-.058-.885-.173-1.281a4.574 4.574 0 0 0-.439-1.047 2.182 2.182 0 0 0-.627-.703A1.281 1.281 0 0 0 6.024 3h-5.02A6.932 6.932 0 0 1 3.216.844C4.126.28 5.146 0 6.275 0c.878 0 1.699.167 2.462.5a6.648 6.648 0 0 1 2.008 1.344 6.287 6.287 0 0 1 1.365 1.984 6.03 6.03 0 0 1 .502 2.453c0 .459-.053.896-.157 1.313-.105.416-.24.823-.408 1.218L16 12.75Zm-1.004.406-4.141-4.125.282-.625c.314-.75.47-1.458.47-2.125 0-.729-.14-1.411-.423-2.047a5.472 5.472 0 0 0-1.145-1.671 5.444 5.444 0 0 0-1.694-1.141A5.147 5.147 0 0 0 6.275 1c-1.13 0-2.123.333-2.98 1h2.729c.397 0 .779.11 1.145.328.366.219.685.526.956.922.272.396.487.854.644 1.375a5.74 5.74 0 0 1 .235 1.656c0 .563-.073 1.12-.22 1.672a6.306 6.306 0 0 1-.611 1.516 3.662 3.662 0 0 1-.942 1.11A1.937 1.937 0 0 1 6.024 11h-2.73c.418.313.884.557 1.396.734.513.178 1.04.266 1.585.266.292 0 .637-.057 1.035-.172a2.802 2.802 0 0 0 1.066-.578l.753-.656L13.208 15h1.788v-1.844ZM1.506 9 0 7.469V5.53L1.475 4h2.07L5.02 5.5v1.969L3.514 9H1.506Z"/></svg>