<svg xmlns="http://www.w3.org/2000/svg" fill="currentColor" viewBox="0 0 16 16"><path d="M3 7.781V2.5c0-.688.245-1.276.734-1.766A2.407 2.407 0 0 1 5.5 0a2.41 2.41 0 0 1 1.766.734C7.756 1.224 8 1.813 8 2.5v5.281a4.455 4.455 0 0 1 1.453 1.563A4.31 4.31 0 0 1 10 11.5c0 .625-.12 1.213-.36 1.766a4.598 4.598 0 0 1-.968 1.437A4.431 4.431 0 0 1 5.5 16a4.446 4.446 0 0 1-3.172-1.297 4.599 4.599 0 0 1-.969-1.437A4.387 4.387 0 0 1 1 11.5c0-.792.182-1.51.547-2.156A4.455 4.455 0 0 1 3 7.78ZM5.5 15c.48 0 .932-.094 1.36-.281a3.598 3.598 0 0 0 1.109-.75 3.61 3.61 0 0 0 .75-1.11c.187-.427.281-.88.281-1.359 0-.583-.135-1.13-.406-1.64a3.548 3.548 0 0 0-1.125-1.266L7 8.313V2.5c0-.417-.146-.77-.438-1.063A1.447 1.447 0 0 0 5.5 1c-.417 0-.77.146-1.063.438A1.447 1.447 0 0 0 4 2.5v5.813l-.438.28a3.702 3.702 0 0 0-1.14 1.266A3.347 3.347 0 0 0 2 11.5c0 .48.094.932.281 1.36.188.427.438.796.75 1.109.313.312.683.562 1.11.75.427.187.88.281 1.359.281ZM5 9.594V5.5c0-.146.052-.266.156-.36A.503.503 0 0 1 5.5 5c.333 0 .5.167.5.5v4.094a1.93 1.93 0 0 1 1.078.672c.281.343.422.755.422 1.234 0 .563-.193 1.037-.578 1.422-.386.385-.86.578-1.422.578-.542 0-1.01-.193-1.406-.578A1.907 1.907 0 0 1 3.5 11.5c0-.48.146-.89.438-1.234A2.006 2.006 0 0 1 5 9.594ZM11 5h3.5c.333 0 .5.167.5.5 0 .333-.167.5-.5.5H11V5Zm0-3V1h3.5c.333 0 .5.167.5.5 0 .333-.167.5-.5.5H11Zm1.5 5c.333 0 .5.167.5.5 0 .333-.167.5-.5.5H11V7h1.5ZM11 4V3h1.5c.333 0 .5.167.5.5 0 .333-.167.5-.5.5H11Z"/></svg>