<svg xmlns="http://www.w3.org/2000/svg" fill="currentColor" viewBox="0 0 16 16"><path d="M1.583 3C1.194 3 1 2.833 1 2.5c0-.333.194-.5.583-.5h12.834a.64.64 0 0 1 .4.14.435.435 0 0 1 .183.36c0 .146-.06.266-.182.36a.642.642 0 0 1-.401.14H1.583Zm12.834 2a.64.64 0 0 1 .4.14.435.435 0 0 1 .183.36c0 .146-.06.266-.182.36a.642.642 0 0 1-.401.14H1.583C1.194 6 1 5.833 1 5.5c0-.333.194-.5.583-.5h12.834Zm0 3a.64.64 0 0 1 .4.14.435.435 0 0 1 .183.36c0 .146-.06.266-.182.36a.642.642 0 0 1-.401.14H1.583C1.194 9 1 8.833 1 8.5c0-.333.194-.5.583-.5h12.834Zm0 3a.64.64 0 0 1 .4.14.435.435 0 0 1 .183.36c0 .146-.06.266-.182.36a.642.642 0 0 1-.401.14H1.583C1.194 12 1 11.833 1 11.5c0-.333.194-.5.583-.5h12.834Zm0 3a.64.64 0 0 1 .4.14.435.435 0 0 1 .183.36c0 .146-.06.266-.182.36a.642.642 0 0 1-.401.14H1.583C1.194 15 1 14.833 1 14.5c0-.333.194-.5.583-.5h12.834Z"/></svg>