<svg xmlns="http://www.w3.org/2000/svg" fill="currentColor" viewBox="0 0 16 16"><path d="M2.5 3c-.333 0-.5-.167-.5-.5 0-.333.167-.5.5-.5h11c.333 0 .5.167.5.5 0 .333-.167.5-.5.5h-11Zm9 2c.333 0 .5.167.5.5 0 .333-.167.5-.5.5h-7c-.333 0-.5-.167-.5-.5 0-.333.167-.5.5-.5h7Zm0 6c.333 0 .5.167.5.5 0 .333-.167.5-.5.5h-7c-.333 0-.5-.167-.5-.5 0-.333.167-.5.5-.5h7Zm2-3c.333 0 .5.167.5.5 0 .333-.167.5-.5.5h-11c-.333 0-.5-.167-.5-.5 0-.333.167-.5.5-.5h11Zm0 6c.333 0 .5.167.5.5 0 .333-.167.5-.5.5h-11c-.333 0-.5-.167-.5-.5 0-.333.167-.5.5-.5h11Z"/></svg>