<svg xmlns="http://www.w3.org/2000/svg" fill="currentColor" viewBox="0 0 16 16"><path d="M7.438 10.165c.25-.189.407-.126.47.188.04.146.067.382.077.706.01.324.016.528.016.612-.042.669-.287 1.14-.734 1.411-.448.272-.974.272-1.578 0a2.797 2.797 0 0 1-.578-.313 22.17 22.17 0 0 1-.516-.377.796.796 0 0 1-.188-.188c-.062-.084-.083-.147-.062-.188a.588.588 0 0 1 .406-.283 5.13 5.13 0 0 0 1.39-.502c.428-.23.818-.543 1.172-.94a.188.188 0 0 1 .125-.126ZM5.751 9.38c.063-.334.115-.643.156-.925.042-.282.13-.492.266-.628.135-.136.344-.172.625-.11.281.063.692.273 1.234.628-.396.167-.776.34-1.14.518a23.3 23.3 0 0 1-1.14.517Zm-2.937 1.945c0-.669.052-1.145.156-1.427.104-.282.25-.45.438-.502.187-.052.406-.02.656.094.25.115.52.235.812.361-.354.251-.698.497-1.03.737-.334.24-.678.487-1.032.738Zm7.655-8.156c-.104.313-.229.57-.375.768a.812.812 0 0 1-.625.33c-.291.041-.526-.021-.703-.189a23.675 23.675 0 0 1-.515-.502c0-.02.078-.047.234-.078.156-.031.354-.073.594-.125.24-.053.484-.095.734-.126s.469-.057.656-.078Zm2.875 2.133c-.73.23-1.245.193-1.547-.11-.302-.303-.359-.831-.171-1.584.291.314.578.601.859.863.281.261.567.538.859.831Zm-3.406.878c.854.126 1.51.565 1.969 1.318.041.084.078.183.109.298.031.115-.016.214-.14.298-.105.105-.204.11-.297.016a1.062 1.062 0 0 1-.204-.267c-.395-.502-.864-.826-1.406-.972l-.312-.785.281.094Zm5.906-2.698A.87.87 0 0 1 16 4c0 .199-.02.371-.063.518-.166.46-.312.805-.437 1.035-.125.23-.27.523-.437.878-.584 1.13-1.219 2.045-1.907 2.745a6.756 6.756 0 0 1-2.405 1.585.644.644 0 0 0-.25.188c-.042.063-.053.178-.032.345.063 1.569-.312 2.928-1.125 4.079-.27.376-.687.585-1.25.627h-.28c-1 0-1.959-.23-2.875-.69-1-.502-1.844-1.14-2.531-1.914a28.938 28.938 0 0 1-1.906-2.384c-.354-.481-.521-.947-.5-1.396.02-.45.208-.936.562-1.46.146-.208.313-.407.5-.595 1.27-1.276 2.76-2.134 4.468-2.573.188-.042.313-.1.375-.172.063-.074.115-.215.157-.424.02-.146.062-.345.125-.596.062-.25.135-.512.218-.784.084-.272.157-.523.219-.753.063-.23.104-.398.125-.502.146-.9.74-1.443 1.781-1.632a4.59 4.59 0 0 1 .719-.062L9.563 0c1.104.084 2.047.298 2.828.643.781.345 1.536.8 2.265 1.365.271.209.5.45.688.721.187.272.354.523.5.753ZM8.75 14.525c.5-.836.75-1.82.75-2.949 0-1.694-.552-3.524-1.656-5.49a.607.607 0 0 0-.188-.172c-.083-.053-.146-.079-.187-.079-.292.021-.552.032-.781.032-.209.02-.407.031-.594.031-.188 0-.313.01-.375.031-.5.105-1 .298-1.5.58-.5.283-.953.57-1.36.864-.405.292-.744.564-1.015.815-.27.251-.416.398-.437.44-.292.418-.448.731-.469.94-.02.21.115.524.406.942.542.878 1.104 1.61 1.688 2.196a9.543 9.543 0 0 0 1.874 1.474c.855.544 1.813.837 2.875.879h.031c.417 0 .73-.178.938-.534Zm3.156-5.552c.875-.732 1.536-1.49 1.984-2.275.448-.784.828-1.626 1.14-2.525a1.53 1.53 0 0 0-.187-.47c-.063-.106-.13-.215-.203-.33a1.52 1.52 0 0 0-.172-.236c-.77-.669-1.542-1.187-2.312-1.553-.771-.366-1.636-.549-2.594-.549H9a5.38 5.38 0 0 0-.578.079.712.712 0 0 0-.375.188 1.136 1.136 0 0 0-.235.36 4.437 4.437 0 0 0-.187.565l-.172.69a16.94 16.94 0 0 1-.234.848 9.497 9.497 0 0 1-.313 1.004h.031a.69.69 0 0 0 .22.031c.478.042.848.173 1.108.392.26.22.485.518.672.894.084.168.203.46.36.879.156.418.317.847.484 1.286.187.523.385 1.088.594 1.694.062-.042.125-.078.187-.11.063-.031.125-.068.188-.11.208-.125.411-.245.609-.36.198-.115.38-.246.547-.392Z"/></svg>