<svg xmlns="http://www.w3.org/2000/svg" fill="currentColor" viewBox="0 0 16 16"><path d="M.06 8a72.4 72.4 0 0 1 .627-2.438 23.15 23.15 0 0 1 .879-2.609c.334-.823.7-1.52 1.098-2.094C3.06.286 3.49 0 3.95 0h5.021c.418.02.81.099 1.177.234.366.136.685.297.957.485.272.187.486.39.643.61.157.218.236.431.236.64V10a2.293 2.293 0 0 1-.44.594 9.233 9.233 0 0 1-.58.531c-.2.167-.393.323-.58.469a1.859 1.859 0 0 0-.409.406c-.083.083-.172.255-.266.516-.095.26-.189.552-.283.875-.094.322-.183.635-.267.937-.083.302-.146.526-.188.672-.23.354-.518.61-.863.766A2.745 2.745 0 0 1 6.963 16c-.523-.02-.821-.219-.894-.594A7.52 7.52 0 0 1 5.959 14v-4H1.283C.886 10 .551 9.807.28 9.422.007 9.036-.066 8.562.06 8Zm1.286 0c0 .188.068.401.204.64.136.24.465.36.988.36h4.425v5.578c0 .177.01.318.031.422h.063c.418 0 .743-.146.973-.438.167-.604.355-1.223.565-1.859.209-.635.397-1.068.564-1.297.105-.166.24-.318.408-.453a32.3 32.3 0 0 1 .534-.422 7.46 7.46 0 0 0 .596-.531l.282-.281V2c-.041-.146-.24-.344-.596-.594-.355-.25-.826-.396-1.412-.437h-5.02c-.293 0-.56.192-.8.578-.241.385-.466.87-.675 1.453H3.95v1H2.162c-.105.333-.199.672-.283 1.016A24.86 24.86 0 0 0 1.66 6h2.29v1H1.472a9.92 9.92 0 0 0-.095.61 3.93 3.93 0 0 0-.031.39Zm12.646-7H16v9h-2.008V1Z"/></svg>