<svg xmlns="http://www.w3.org/2000/svg" fill="currentColor" viewBox="0 0 16 16"><path d="M7.029 16a5.098 5.098 0 0 1-.894-.172 4.756 4.756 0 0 1-.989-.39 2.951 2.951 0 0 1-.8-.61 1.19 1.19 0 0 1-.33-.828V6a2.33 2.33 0 0 1 .44-.594c.188-.187.387-.364.596-.531.21-.167.403-.323.58-.469A1.97 1.97 0 0 0 6.025 4c.083-.104.172-.286.266-.547.095-.26.189-.547.283-.86.094-.312.183-.619.267-.921.083-.302.146-.526.188-.672.25-.396.533-.661.847-.797C8.19.068 8.576 0 9.037 0c.523.02.821.219.894.594.074.375.11.844.11 1.406v4h4.676c.397 0 .732.188 1.004.563.272.375.345.854.22 1.437a99.142 99.142 0 0 1-.628 2.422 22.747 22.747 0 0 1-.879 2.625c-.334.823-.7 1.52-1.098 2.094-.397.572-.826.859-1.287.859H7.03ZM5.02 6.281V14c.041.125.24.313.596.563.355.25.826.395 1.412.437h5.02c.293 0 .56-.193.8-.578.241-.386.466-.86.675-1.422H12.05v-1h1.788a23.708 23.708 0 0 0 .503-2H12.05V9h2.478c.042-.25.074-.464.095-.64a3.77 3.77 0 0 0 .031-.36c0-.188-.068-.401-.204-.64-.136-.24-.465-.36-.988-.36H9.037V1.422c0-.177-.01-.318-.031-.422h-.063c-.23 0-.418.031-.565.094a1.03 1.03 0 0 0-.408.343 40.694 40.694 0 0 1-.565 1.86c-.209.635-.397 1.068-.564 1.297-.105.166-.24.312-.408.437a8.286 8.286 0 0 0-.534.438 7.924 7.924 0 0 0-.486.36c-.199.155-.33.306-.392.452ZM2.008 15H0V6h2.008v9Z"/></svg>