<svg xmlns="http://www.w3.org/2000/svg" fill="currentColor" viewBox="0 0 16 16"><path d="M7.002 8.998V4.507c0-.333.166-.499.5-.499.124 0 .238.047.342.14A.46.46 0 0 1 8 4.507V8h4.491c.125 0 .24.047.343.14a.46.46 0 0 1 .156.359c0 .125-.052.24-.156.343a.477.477 0 0 1-.343.156H7.002ZM8 14.986a6.897 6.897 0 0 0 4.21-1.419 7.252 7.252 0 0 0 1.513-1.575 6.546 6.546 0 0 0 .951-1.996h1.03a8.33 8.33 0 0 1-1.06 2.386 7.763 7.763 0 0 1-1.732 1.902c-.676.53-1.43.946-2.26 1.248A7.718 7.718 0 0 1 8 15.984a7.882 7.882 0 0 1-3.119-.624 7.835 7.835 0 0 1-2.541-1.715 8.198 8.198 0 0 1-1.7-2.542A7.77 7.77 0 0 1 .016 8c0-.936.15-1.824.452-2.667a8.06 8.06 0 0 1 1.248-2.276 7.883 7.883 0 0 1 1.887-1.731A8.056 8.056 0 0 1 6.004.266v1.029a7.38 7.38 0 0 0-2.011.982A6.81 6.81 0 0 0 2.418 3.79a7.128 7.128 0 0 0-1.03 1.949A6.833 6.833 0 0 0 1.014 8c0 .956.182 1.86.546 2.713a7.012 7.012 0 0 0 1.497 2.23A7.062 7.062 0 0 0 5.27 14.44a6.806 6.806 0 0 0 2.73.546Zm3.493-10.978a.502.502 0 0 0-.343.14.46.46 0 0 0-.156.359c0 .125.052.24.156.343a.477.477 0 0 0 .343.156h3.992a.46.46 0 0 0 .359-.156.502.502 0 0 0 .14-.343c0-.333-.166-.499-.499-.499h-3.992Zm0-1.996a.502.502 0 0 0-.343.14.46.46 0 0 0-.156.359c0 .125.052.24.156.343a.477.477 0 0 0 .343.156h3.992a.46.46 0 0 0 .359-.156.502.502 0 0 0 .14-.343c0-.333-.166-.499-.499-.499h-3.992Zm0-1.996a.502.502 0 0 0-.343.14.46.46 0 0 0-.156.359c0 .125.052.24.156.343a.477.477 0 0 0 .343.156h3.992a.46.46 0 0 0 .359-.156.502.502 0 0 0 .14-.343c0-.333-.166-.499-.499-.499h-3.992Z"/></svg>