<svg xmlns="http://www.w3.org/2000/svg" fill="currentColor" viewBox="0 0 16 16"><path d="M11 11.031h1V15a.974.974 0 0 1-.281.719A.974.974 0 0 1 11 16H1a.973.973 0 0 1-.719-.281A.974.974 0 0 1 0 15V4l4-4h7c.27 0 .505.094.703.281A.947.947 0 0 1 12 1H5v3a.947.947 0 0 1-.297.719A1.027 1.027 0 0 1 3.97 5H1v10h10v-3.969ZM13.5 7c.333 0 .5-.167.5-.5 0-.333-.167-.5-.5-.5h-1.031V4.5c0-.333-.167-.5-.5-.5-.334 0-.5.167-.5.5V7H13.5ZM12 10c.563 0 1.083-.104 1.563-.313A4.015 4.015 0 0 0 16 6a3.88 3.88 0 0 0-.314-1.561 4.064 4.064 0 0 0-2.124-2.125C13.082 2.103 12.563 2 12 2s-1.083.104-1.563.313a4.065 4.065 0 0 0-2.124 2.124A3.876 3.876 0 0 0 8 6a4.016 4.016 0 0 0 2.438 3.688c.479.208 1 .312 1.562.312Zm0-7c.833 0 1.542.292 2.125.875S15 5.167 15 6s-.292 1.542-.875 2.125A2.893 2.893 0 0 1 12 9a2.893 2.893 0 0 1-2.125-.875A2.893 2.893 0 0 1 9 6c0-.833.292-1.542.875-2.125A2.893 2.893 0 0 1 12 3Z"/></svg>