<svg xmlns="http://www.w3.org/2000/svg" fill="currentColor" viewBox="0 0 16 16"><path d="M13.986 14.986V4.008H2.014v10.978h11.973ZM4.01 2.012v.998h.998v-.998H4.01Zm6.984 0v.998h.998v-.998h-.998Zm2.993-.998c.291 0 .53.094.718.28.187.188.28.427.28.718v12.974a.97.97 0 0 1-.28.717.971.971 0 0 1-.718.281H2.014a.971.971 0 0 1-.717-.28.972.972 0 0 1-.28-.718V2.012a.97.97 0 0 1 .28-.717.971.971 0 0 1 .717-.281h1.995V.016h.998v.998h5.986V.016h.998v.998h1.995Zm-7.39 11.103-.468-.468.936-.967-.936-.935.468-.468.967.935.935-.935.499.468-.967.935.967.967-.499.468-.935-.936-.967.936Zm3.991 0-.468-.468.936-.967-.936-.935.468-.468.967.935.935-.935.499.468-.967.935.967.967-.5.468-.934-.936-.967.936Zm-6.579-.125a.971.971 0 0 1-.717-.28.972.972 0 0 1-.28-.718.97.97 0 0 1 .28-.717.971.971 0 0 1 .717-.281c.291 0 .53.094.717.28.187.188.281.427.281.718s-.094.53-.28.717a.971.971 0 0 1-.718.281ZM4.01 8a.97.97 0 0 1-.717-.28.972.972 0 0 1-.28-.718.97.97 0 0 1 .28-.717.97.97 0 0 1 .717-.281.97.97 0 0 1 .717.28c.187.188.281.427.281.718s-.094.53-.28.717a.97.97 0 0 1-.72.281ZM8 8a.971.971 0 0 1-.717-.28.972.972 0 0 1-.28-.718.97.97 0 0 1 .28-.717A.971.971 0 0 1 8 6.004c.291 0 .53.094.717.28.187.188.28.427.28.718s-.093.53-.28.717A.971.971 0 0 1 8 8Zm3.991 0a.971.971 0 0 1-.717-.28.971.971 0 0 1-.28-.718.97.97 0 0 1 .28-.717.971.971 0 0 1 .717-.281.97.97 0 0 1 .717.28c.187.188.28.427.28.718s-.093.53-.28.717a.97.97 0 0 1-.717.281Z"/></svg>