<svg xmlns="http://www.w3.org/2000/svg" fill="currentColor" viewBox="0 0 16 16"><path d="M13 8.5c0 .333-.167.5-.5.5H7V4.5c0-.333.167-.5.5-.5.333 0 .5.167.5.5V8h4.5c.333 0 .5.167.5.5ZM8 0c1.104 0 2.14.208 3.11.625a8.08 8.08 0 0 1 2.546 1.719 8.081 8.081 0 0 1 1.719 2.547C15.792 5.859 16 6.896 16 8c0 1.02-.182 1.984-.547 2.89a8.326 8.326 0 0 1-1.484 2.422 7.934 7.934 0 0 1-2.219 1.75c-.854.459-1.77.75-2.75.876v-1a7.028 7.028 0 0 0 2.36-.797 6.856 6.856 0 0 0 1.906-1.532A7.286 7.286 0 0 0 14.53 10.5 6.747 6.747 0 0 0 15 8c0-.958-.182-1.865-.547-2.719a7.026 7.026 0 0 0-1.5-2.234 7.026 7.026 0 0 0-2.234-1.5A6.853 6.853 0 0 0 8 1a6.91 6.91 0 0 0-4.219 1.422A7.421 7.421 0 0 0 2.25 4.016 6.625 6.625 0 0 0 1.281 6H.25a8.111 8.111 0 0 1 1.078-2.39 8.052 8.052 0 0 1 1.75-1.907A8.134 8.134 0 0 1 5.344.453 7.734 7.734 0 0 1 8 0ZM4.5 15c.333 0 .5.167.5.5 0 .125-.047.24-.14.344A.462.462 0 0 1 4.5 16h-4a.478.478 0 0 1-.344-.156A.478.478 0 0 1 0 15.5c0-.146.052-.266.156-.36A.503.503 0 0 1 .5 15h4Zm0-2c.333 0 .5.167.5.5 0 .125-.047.24-.14.344A.462.462 0 0 1 4.5 14h-4a.478.478 0 0 1-.344-.156A.478.478 0 0 1 0 13.5c0-.146.052-.266.156-.36A.503.503 0 0 1 .5 13h4Zm0-2c.333 0 .5.167.5.5 0 .125-.047.24-.14.344A.462.462 0 0 1 4.5 12h-4a.478.478 0 0 1-.344-.156A.478.478 0 0 1 0 11.5c0-.146.052-.266.156-.36A.503.503 0 0 1 .5 11h4Z"/></svg>