<svg xmlns="http://www.w3.org/2000/svg" fill="currentColor" viewBox="0 0 16 16"><path d="M7.992.016c1.103 0 2.139.208 3.106.624a8.071 8.071 0 0 1 2.545 1.715 8.063 8.063 0 0 1 1.717 2.542c.416.967.624 2.001.624 3.103a7.65 7.65 0 0 1-.546 2.885 8.306 8.306 0 0 1-1.483 2.417 7.924 7.924 0 0 1-2.217 1.746 7.874 7.874 0 0 1-2.747.874v-.998a6.936 6.936 0 0 0 4.261-2.324 7.274 7.274 0 0 0 1.265-2.105c.312-.79.468-1.622.468-2.495a6.8 6.8 0 0 0-.546-2.729 7.059 7.059 0 0 0-3.715-3.711 6.818 6.818 0 0 0-2.732-.546 6.86 6.86 0 0 0-2.263.374 7.139 7.139 0 0 0-3.497 2.62 6.543 6.543 0 0 0-.952 1.996H.25a8.091 8.091 0 0 1 1.077-2.386 8.039 8.039 0 0 1 1.748-1.902A8.128 8.128 0 0 1 5.34.468 7.733 7.733 0 0 1 7.992.016ZM1.467 13.021c.063.458.313.811.75 1.06V12.18c-.687-.229-1.171-.51-1.452-.842-.281-.333-.421-.748-.421-1.247 0-1.04.624-1.664 1.873-1.872v-.436h.749v.436c1.124.23 1.748.77 1.873 1.622l-1.28.187c-.042-.208-.11-.364-.203-.468a1.824 1.824 0 0 0-.39-.311v1.808c.79.208 1.337.468 1.639.78.302.312.453.707.453 1.185 0 .603-.198 1.081-.594 1.435-.395.353-.895.582-1.498.686v.842h-.75v-.78c-.624-.124-1.102-.343-1.435-.655-.333-.311-.552-.78-.656-1.403l1.342-.125Zm5.526-8.514c0-.333.167-.499.5-.499.333 0 .5.166.5.499V8h4.495c.333 0 .5.166.5.499 0 .333-.167.499-.5.499H6.993V4.507Zm-4.027 9.637c.312-.062.51-.166.593-.312a.846.846 0 0 0 .25-.624c0-.228-.068-.405-.203-.53s-.349-.239-.64-.343v1.809Zm-.75-3.275V9.248a1.304 1.304 0 0 0-.468.343.707.707 0 0 0-.187.467c0 .312.219.583.656.811Z"/></svg>