<svg xmlns="http://www.w3.org/2000/svg" fill="currentColor" viewBox="0 0 16 16"><path d="M0 1.501C0 1.167.167 1 .5 1h15c.333 0 .5.167.5.501 0 .334-.167.501-.5.501H15v7.015c0 .543-.198 1.012-.594 1.409A1.92 1.92 0 0 1 13 11.02v-1.002a.972.972 0 0 0 .719-.282.976.976 0 0 0 .281-.72V2.002H2v7.015c0 .292.094.532.281.72a.972.972 0 0 0 .719.282v1.002a1.92 1.92 0 0 1-1.406-.595A1.928 1.928 0 0 1 1 9.016V2.003H.5c-.333 0-.5-.167-.5-.501Zm4.125 10.303a.477.477 0 0 1 .344-.157c.125 0 .24.052.343.157l2.657 2.662V7.482c0-.334.166-.5.5-.5.333 0 .5.166.5.5v7.046l2.719-2.724a.477.477 0 0 1 .343-.157c.146 0 .271.052.375.157.23.23.23.47 0 .72L8.72 15.687A.923.923 0 0 1 8 16a.89.89 0 0 1-.688-.313l-3.187-3.163c-.25-.25-.25-.49 0-.72Zm-.625-8.8h9c.333 0 .5.167.5.501a.51.51 0 0 1-.14.345.462.462 0 0 1-.36.156h-9a.477.477 0 0 1-.344-.156A.48.48 0 0 1 3 3.505c0-.146.052-.266.156-.36a.502.502 0 0 1 .344-.14Zm0 2.004h3c.333 0 .5.167.5.501 0 .126-.047.24-.14.345a.461.461 0 0 1-.36.156h-3a.477.477 0 0 1-.344-.156A.48.48 0 0 1 3 5.509c0-.146.052-.266.156-.36a.502.502 0 0 1 .344-.14Z"/></svg>