<svg xmlns="http://www.w3.org/2000/svg" fill="currentColor" viewBox="0 0 16 16"><path d="M0 3.5c0-.125.047-.24.14-.344A.462.462 0 0 1 .5 3h15c.146 0 .266.052.36.156.093.104.14.219.14.344 0 .333-.167.5-.5.5H15v8c0 .563-.198 1.037-.594 1.422A1.948 1.948 0 0 1 13 14H3c-.542 0-1.01-.193-1.406-.578A1.907 1.907 0 0 1 1 12V4H.5C.167 4 0 3.833 0 3.5ZM2 12c0 .292.094.531.281.719A.973.973 0 0 0 3 13h10a.974.974 0 0 0 .719-.281A.974.974 0 0 0 14 12V4H2v8Zm1 0c0-.73.068-1.297.203-1.703.136-.406.328-.703.578-.89.25-.188.563-.303.938-.345C5.094 9.021 5.52 9 6 9c-.542 0-1.01-.193-1.406-.578A1.907 1.907 0 0 1 4 7c0-.542.198-1.01.594-1.406A1.922 1.922 0 0 1 6 5c.542 0 1.01.198 1.406.594C7.802 5.99 8 6.458 8 7c0 .563-.198 1.036-.594 1.422A1.948 1.948 0 0 1 6 9c.48 0 .906.02 1.281.063.375.041.688.156.938.343.25.188.442.485.578.89.135.407.203.975.203 1.704H3Zm6.5-5h3c.333 0 .5.167.5.5 0 .125-.047.24-.14.344A.462.462 0 0 1 12.5 8h-3a.478.478 0 0 1-.344-.156A.478.478 0 0 1 9 7.5c0-.146.052-.266.156-.36A.503.503 0 0 1 9.5 7Zm0-2h3c.333 0 .5.167.5.5 0 .125-.047.24-.14.344A.462.462 0 0 1 12.5 6h-3a.478.478 0 0 1-.344-.156A.478.478 0 0 1 9 5.5c0-.146.052-.266.156-.36A.503.503 0 0 1 9.5 5Z"/></svg>