<svg xmlns="http://www.w3.org/2000/svg" fill="currentColor" viewBox="0 0 16 16"><path d="M0 1.5c0-.146.052-.266.156-.36A.503.503 0 0 1 .5 1h15c.333 0 .5.167.5.5 0 .333-.167.5-.5.5H15v7c0 .542-.193 1.01-.578 1.406-.386.396-.86.594-1.422.594v-1a.974.974 0 0 0 .719-.281A.973.973 0 0 0 14 9V2H2v7c0 .292.099.531.297.719A.988.988 0 0 0 3 10v1a1.92 1.92 0 0 1-1.406-.594A1.922 1.922 0 0 1 1 9V2H.5a.503.503 0 0 1-.344-.14A.462.462 0 0 1 0 1.5Zm4.156 8.969 3.188-3.156A.89.89 0 0 1 8.03 7c.292 0 .531.104.719.313l3.188 3.156c.229.25.229.49 0 .719-.167.104-.292.156-.376.156-.062 0-.177-.052-.343-.156L8.5 8.467V15.5c0 .333-.167.5-.5.5-.333 0-.5-.167-.5-.5V8.531l-2.656 2.656a.478.478 0 0 1-.344.157c-.063 0-.177-.052-.344-.156-.25-.23-.25-.47 0-.72ZM3.5 3h9c.333 0 .5.167.5.5 0 .125-.047.24-.14.344A.462.462 0 0 1 12.5 4h-9a.478.478 0 0 1-.344-.156A.478.478 0 0 1 3 3.5c0-.146.052-.266.156-.36A.503.503 0 0 1 3.5 3Zm0 2h3c.333 0 .5.167.5.5 0 .125-.047.24-.14.344A.462.462 0 0 1 6.5 6h-3a.478.478 0 0 1-.344-.156A.478.478 0 0 1 3 5.5c0-.146.052-.266.156-.36A.503.503 0 0 1 3.5 5Z"/></svg>