<svg xmlns="http://www.w3.org/2000/svg" fill="currentColor" viewBox="0 0 16 16"><path d="M8 0c1.104 0 2.14.208 3.11.625a8.215 8.215 0 0 1 2.546 1.703 7.852 7.852 0 0 1 1.719 2.547c.417.98.625 2.02.625 3.125 0 1.104-.208 2.14-.625 3.11a8.082 8.082 0 0 1-1.719 2.546 8.082 8.082 0 0 1-2.547 1.719A7.785 7.785 0 0 1 8 16a7.897 7.897 0 0 1-3.125-.625 7.852 7.852 0 0 1-2.547-1.719A8.215 8.215 0 0 1 .625 11.11 7.786 7.786 0 0 1 0 8c0-1.104.208-2.146.625-3.125a7.977 7.977 0 0 1 1.703-2.547A7.977 7.977 0 0 1 4.875.625 7.897 7.897 0 0 1 8 0Zm4 13.719a7.115 7.115 0 0 0 2.172-2.438c.552-1 .828-2.094.828-3.281 0-.958-.182-1.865-.547-2.719a7.026 7.026 0 0 0-1.5-2.234 7.026 7.026 0 0 0-2.234-1.5A6.853 6.853 0 0 0 8 1c-.98 0-1.89.182-2.734.547a7.074 7.074 0 0 0-2.22 1.5 7.026 7.026 0 0 0-1.5 2.234A6.853 6.853 0 0 0 1 8h3.469c.833 0 1.541-.292 2.125-.875A2.893 2.893 0 0 0 7.469 5V3.5L6.312 4.875a.494.494 0 0 1-.718 0 .478.478 0 0 1-.157-.344c0-.125.053-.24.157-.343L7.28 2.28C7.49 2.094 7.73 2 8 2c.27 0 .51.094.719.281l1.594 1.906a.478.478 0 0 1 .156.344c0 .125-.052.24-.156.344a.494.494 0 0 1-.72 0L8.47 3.5V5c0 .563-.104 1.083-.313 1.563-.208.479-.495.9-.86 1.265A4.016 4.016 0 0 1 4.47 9H1.062l.22 1c.228.77.577 1.469 1.046 2.094A7.503 7.503 0 0 0 4 13.719V12.25c0-.167.083-.25.25-.25h1.5c.167 0 .25.083.25.25v2.438c.167.041.333.078.5.109.167.031.333.068.5.11V10.25c0-.167.083-.25.25-.25h1.5c.167 0 .25.083.25.25v4.656c.167-.041.328-.078.484-.11.157-.03.318-.067.485-.108V7.25c0-.167.094-.25.281-.25h1.5c.167 0 .25.083.25.25v6.469Z"/></svg>