<svg xmlns="http://www.w3.org/2000/svg" fill="currentColor" viewBox="0 0 16 16"><path d="M12.683 7.969c.272.104.548.208.83.312.282.104.532.235.751.39.22.157.397.34.533.548.135.208.203.458.203.75v2.062c-.02.375-.193.781-.517 1.219a8.807 8.807 0 0 1-1.11 1.234c-.418.386-.83.714-1.237.985-.407.27-.705.427-.893.469l-.125.03H6.986a.997.997 0 0 0-.157.016.989.989 0 0 1-.156.016c-.605 0-1.106-.23-1.503-.688l-3.694-4.218a1.934 1.934 0 0 1-.47-1.453 1.903 1.903 0 0 1 .69-1.36c.354-.333.792-.5 1.314-.5.605 0 1.106.23 1.503.688l.47.562V4c0-.563.198-1.036.594-1.422A1.953 1.953 0 0 1 6.986 2c.543 0 1.012.193 1.409.578.396.386.594.86.594 1.422v2.938l.22.03c.146.042.412.12.798.235.386.115.777.224 1.174.328.459.146.96.292 1.502.438Zm1.315 2c0-.292-.193-.51-.579-.656-.386-.146-.86-.323-1.424-.532V9.97h-1.002l-.031-1.47-1.018-.297a11.57 11.57 0 0 0-.955-.234v1.5H7.988V4a.972.972 0 0 0-.282-.719.976.976 0 0 0-.72-.281.99.99 0 0 0-.704.281.946.946 0 0 0-.298.719v6.469c0 .229-.052.38-.156.453a.368.368 0 0 1-.345.047c-.167-.042-.323-.188-.47-.438h-.03a12.035 12.035 0 0 1-.36-.375 5.838 5.838 0 0 1-.392-.469 11.162 11.162 0 0 0-.47-.562.922.922 0 0 0-.75-.344c-.23 0-.45.084-.658.25-.188.146-.303.375-.345.688-.02.25.063.49.25.719l3.664 4.218c.187.23.438.344.75.344h2.192c.626 0 1.336-.01 2.129-.031.063 0 .256-.104.58-.313a9.632 9.632 0 0 0 1.016-.765c.355-.303.674-.625.955-.97.282-.343.433-.66.454-.952v-2ZM3.981 6a1.927 1.927 0 0 1-1.41-.594A1.92 1.92 0 0 1 1.978 4V2c0-.542.198-1.01.595-1.406A1.927 1.927 0 0 1 3.98 0h6.01c.543 0 1.012.198 1.409.594.396.396.595.864.595 1.406v2a1.92 1.92 0 0 1-.595 1.406A1.927 1.927 0 0 1 9.99 6V5a.949.949 0 0 0 .72-.297.987.987 0 0 0 .282-.703V2a.973.973 0 0 0-.282-.719A.976.976 0 0 0 9.99 1H3.98a.99.99 0 0 0-.705.281A.946.946 0 0 0 2.98 2v2c0 .27.099.505.297.703A.964.964 0 0 0 3.981 5v1Z"/></svg>