<svg xmlns="http://www.w3.org/2000/svg" fill="currentColor" viewBox="0 0 16 16"><path d="M8.656 13.838a9.105 9.105 0 0 0 2.688-1.193c-.646-.775-1.052-1.685-1.219-2.732H8.781v-1.13h2.781V7.495h1.126v1.288h2.75v1.13h-1.25a6.316 6.316 0 0 1-1.188 2.7c.813.524 1.688.932 2.625 1.225l.375.126-.75 1.005-.188-.063a9.219 9.219 0 0 1-2.906-1.445 7.55 7.55 0 0 1-1.344.864c-.479.24-.99.445-1.53.612L9.124 15l-.844-1.005.375-.157ZM2.625 2h1.156v.126l2.75 6.72H5.22l-.75-2.01h-2.5l-.719 2.01H0L2.625 2ZM4.25 9.568v.345c0 .565.198 1.047.594 1.444.166.189.38.335.64.44.26.105.516.157.766.157h.594l-.563-.565c-.166-.168-.198-.361-.093-.581.104-.22.25-.33.437-.33.125 0 .25.063.375.189l1.438 1.476c.104.104.156.23.156.376a2.44 2.44 0 0 1-.125.314L7 14.278c-.125.125-.25.188-.375.188-.208 0-.365-.1-.469-.298-.104-.199-.062-.403.125-.612l.594-.566h-.594c-.416 0-.807-.078-1.172-.235a3.065 3.065 0 0 1-1.625-1.649 3.085 3.085 0 0 1-.234-1.193v-.345c0-.21.052-.361.156-.456a.54.54 0 0 1 .375-.141c.125 0 .235.047.328.141.094.095.141.246.141.456Zm1.344-5.59c0-.146.041-.261.125-.345l1.5-1.476c.146-.105.26-.157.343-.157.209 0 .365.094.47.283.103.188.062.387-.126.596l-.562.597h.562c.459 0 .854.084 1.188.251.541.21.995.576 1.36 1.1.364.522.546 1.088.546 1.695v.377a.502.502 0 0 1-.156.392.502.502 0 0 1-.344.141.598.598 0 0 1-.39-.14.48.48 0 0 1-.172-.393v-.377c0-.419-.11-.796-.329-1.13a2 2 0 0 0-.921-.754 2.164 2.164 0 0 0-.782-.157h-.562l.562.596c.167.168.193.356.078.566-.114.209-.265.314-.453.314a.477.477 0 0 1-.343-.157l-1.47-1.445c-.083-.084-.124-.21-.124-.377Zm6.531 7.85A4.89 4.89 0 0 0 13 9.913h-1.719c.125.712.406 1.35.844 1.915ZM2.312 5.832l1.782.063-.625-1.602-.281-.816a1.715 1.715 0 0 0-.094.33 2.595 2.595 0 0 1-.094.36l-.688 1.665Z"/></svg>