<svg xmlns="http://www.w3.org/2000/svg" fill="currentColor" viewBox="0 0 16 16"><path d="m0 7.375.813-.813h2.343l1.688-2.25L.188 2 1.938.281 7.155 2 8.313.844c.229-.23.541-.427.937-.594A2.97 2.97 0 0 1 10.406 0c.354 0 .625.094.813.281.146.167.229.38.25.64.02.261-.005.532-.078.813a3.522 3.522 0 0 1-.313.797c-.135.25-.286.459-.453.625L9.469 4.312l1.75 5.22-1.75 1.75-2.313-4.626-2.218 1.657v2.343l-.844.813-1.594-2.5L0 7.375Zm3.094 1 1 1.563V7.905l.343-.218 3-2.282 2.25 4.5.594-.594-1.75-5.218 1.531-1.5c.126-.125.23-.271.313-.438.083-.166.151-.338.203-.515.052-.177.084-.339.094-.485.01-.146-.005-.25-.047-.312h-.063a3.26 3.26 0 0 0-.906.125 1.79 1.79 0 0 0-.781.469l-1.5 1.5-5.219-1.72-.594.563 4.532 2.25-2.532 3.344h-2.03l1.562 1Zm9.437 4.781c.042.292.125.5.25.625.084.146.26.271.531.375v-1.875c-.708-.187-1.166-.448-1.374-.781-.271-.333-.407-.74-.407-1.219 0-.541.167-.969.5-1.281.334-.313.76-.5 1.281-.563l.032-.937h.687L14 8.438c.542.104.958.27 1.25.5.292.291.48.656.563 1.093l-1.157.125c-.062-.333-.281-.573-.656-.719v1.782c.854.208 1.385.458 1.594.75.27.27.406.666.406 1.187 0 .625-.182 1.104-.547 1.438-.364.333-.849.541-1.453.625V16h-.688v-.75c-.583-.083-1.03-.281-1.343-.594-.313-.291-.521-.75-.625-1.375l1.187-.125ZM14 14.22c.292-.042.51-.13.656-.266.146-.135.219-.349.219-.64a.937.937 0 0 0-.156-.5c-.104-.126-.344-.24-.719-.344v1.75Zm-1.219-3.563.25.188c.084.062.177.114.281.156V9.437c-.25.084-.416.188-.5.313a.791.791 0 0 0-.156.469.77.77 0 0 0 .125.437Z"/></svg>