<svg xmlns="http://www.w3.org/2000/svg" fill="currentColor" viewBox="0 0 16 16"><path d="M11.031 0a4.68 4.68 0 0 1 1.938.406c.604.27 1.13.63 1.578 1.077.448.447.802.972 1.062 1.576.26.603.391 1.248.391 1.935a4.83 4.83 0 0 1-.531 2.247 4.999 4.999 0 0 1-1.438 1.717L14 11.486a.475.475 0 0 1-.266.452.485.485 0 0 1-.515-.015l-2.344-1.935c-.104 0-.26-.021-.469-.063.063-.312.094-.624.094-.936v-.031c.083 0 .167.005.25.015.083.01.167.016.25.016h.156L13 10.643l.031-2.216a4.172 4.172 0 0 0 1.422-1.436A3.79 3.79 0 0 0 15 4.994a4.01 4.01 0 0 0-1.172-2.825 4.065 4.065 0 0 0-1.265-.858A3.88 3.88 0 0 0 11 .999c-.938 0-1.755.28-2.453.842a3.993 3.993 0 0 0-1.39 2.123c-.167-.063-.324-.12-.47-.172a5 5 0 0 0-.468-.14 4.57 4.57 0 0 1 .687-1.436 5.554 5.554 0 0 1 1.11-1.155 5.17 5.17 0 0 1 1.406-.78A4.635 4.635 0 0 1 11.032 0ZM5 3.995c.667 0 1.302.135 1.906.406a5.297 5.297 0 0 1 2.688 2.684A4.61 4.61 0 0 1 10 8.989a4.72 4.72 0 0 1-.39 1.92 5.409 5.409 0 0 1-1.047 1.576 4.755 4.755 0 0 1-1.547 1.076 5.06 5.06 0 0 1-1.891.422l-2.344 1.935a.485.485 0 0 1-.515.016A.475.475 0 0 1 2 15.48v-2.528a5.16 5.16 0 0 1-1.453-1.717A4.718 4.718 0 0 1 0 8.99c0-.687.13-1.332.39-1.935a5.008 5.008 0 0 1 1.063-1.576c.448-.448.98-.807 1.594-1.077A4.795 4.795 0 0 1 5 3.995Zm0 8.989a3.88 3.88 0 0 0 1.563-.312 4.066 4.066 0 0 0 2.125-2.123c.208-.478.312-.998.312-1.56a4.011 4.011 0 0 0-1.172-2.825 4.066 4.066 0 0 0-1.265-.858A3.88 3.88 0 0 0 5 4.994a4.017 4.017 0 0 0-2.828 1.17A4.011 4.011 0 0 0 1 8.99c0 .728.182 1.394.547 1.997A4.085 4.085 0 0 0 3 12.422l.031 2.216 1.813-1.654H5Zm-.031-6.617c.5 0 .9.125 1.203.375.302.25.453.582.453.998 0 .25-.073.463-.219.64-.146.177-.291.349-.437.515-.188.23-.334.4-.438.515-.104.115-.156.38-.156.796H4.5c0-.187.005-.348.016-.484.01-.135.036-.26.078-.374a1 1 0 0 1 .203-.328 4.72 4.72 0 0 1 .39-.374c.209-.167.375-.344.5-.531.125-.187.188-.343.188-.468a.561.561 0 0 0-.219-.437c-.146-.125-.364-.187-.656-.187-.563 0-.896.27-1 .811h-.875c0-.333.172-.66.516-.983.343-.323.786-.484 1.328-.484Zm.062 4.401a.55.55 0 0 1 .407.156.55.55 0 0 1 .156.406.603.603 0 0 1-.157.421.524.524 0 0 1-.406.172.524.524 0 0 1-.406-.172.603.603 0 0 1-.156-.421c0-.167.052-.302.156-.406a.55.55 0 0 1 .406-.156Zm6-5.244a.338.338 0 0 1-.25-.093c-.062-.063-.114-.24-.156-.53L10.5 2.62c0-.207.057-.358.172-.452a.6.6 0 0 1 .39-.14c.146 0 .271.052.376.156.104.104.156.26.156.468L11.438 4.9c-.042.292-.089.468-.141.53-.052.063-.14.094-.266.094Zm0 1.748a.539.539 0 0 1-.39-.171.572.572 0 0 1-.172-.422.52.52 0 0 1 .172-.405.565.565 0 0 1 .39-.157c.167 0 .307.052.422.157a.52.52 0 0 1 .172.405.572.572 0 0 1-.172.422.574.574 0 0 1-.422.171Z"/></svg>