<svg xmlns="http://www.w3.org/2000/svg" fill="currentColor" viewBox="0 0 16 16"><path d="M0 15V5.469l2-1.125v1.093L1 5.97l4.719 4.218-.532.563L1 6.969v7.562l6.969-5.344L15 14.438V7l-4.156 3.75-.594-.563L15 5.97l-1-.532V4.375l2 1.094V15a.947.947 0 0 1-.297.719A.988.988 0 0 1 15 16H1a.973.973 0 0 1-.719-.281A.974.974 0 0 1 0 15Zm14.5 0L8 10.187 1.5 15h13ZM3 3c0-.27.094-.505.281-.703A.947.947 0 0 1 4 2h8c.27 0 .505.099.703.297A.961.961 0 0 1 13 3v3.75l-1 .875V3H4v4.656L3 6.75V3Zm2 4.406.75-.093c.042.166.094.291.156.375.063.083.188.177.375.28V6.75c-.479-.146-.791-.328-.937-.547a1.348 1.348 0 0 1-.219-.766c0-.729.385-1.135 1.156-1.218v-.282h.438v.282c.375.041.656.15.843.328.188.177.303.411.344.703l-.75.094c-.02-.188-.166-.344-.437-.469v1.156c.604.167.948.334 1.031.5.188.209.281.469.281.782 0 .375-.099.666-.297.875-.198.208-.536.364-1.015.468v.5H6.28v-.469c-.729-.104-1.156-.53-1.281-1.28ZM7.938 0l2.687 1.5H8.594l-.625-.344-.625.344H5.25L7.938 0ZM9.5 4h1c.125 0 .24.047.344.14A.462.462 0 0 1 11 4.5a.462.462 0 0 1-.156.36.503.503 0 0 1-.344.14h-1c-.333 0-.5-.167-.5-.5 0-.333.167-.5.5-.5ZM9 6.5c0-.333.167-.5.5-.5h1c.125 0 .24.047.344.14A.462.462 0 0 1 11 6.5a.462.462 0 0 1-.156.36.503.503 0 0 1-.344.14h-1c-.333 0-.5-.167-.5-.5ZM7.156 7.813c.104-.167.157-.292.157-.375 0-.146-.032-.256-.094-.329-.063-.073-.23-.15-.5-.234v1.156c.27-.062.416-.135.437-.219ZM5.813 5.374c0 .104.026.193.078.266.052.073.182.161.39.265v-1.03c-.187.063-.312.14-.375.234a.484.484 0 0 0-.093.266Z"/></svg>