<svg xmlns="http://www.w3.org/2000/svg" fill="currentColor" viewBox="0 0 16 16"><path d="M5.031 13.014c0-.44.125-.828.375-1.163.25-.336.573-.577.969-.723l.031-.032c.438-.733 1-1.336 1.688-1.807.687-.472 1.427-.707 2.219-.707h.312a.94.94 0 0 1 .453.094c.115.063.24.178.375.346.136.167.292.413.469.738s.411.739.703 1.242c.417 0 .823.079 1.219.236.396.157.755.372 1.078.644.323.273.583.587.781.943.198.356.297.744.297 1.163v1.006h-2.094a1.528 1.528 0 0 1-.531.723A1.41 1.41 0 0 1 12.5 16c-.313 0-.594-.094-.844-.283a1.528 1.528 0 0 1-.531-.723H8.937a1.528 1.528 0 0 1-.53.723c-.25.189-.542.283-.876.283a1.41 1.41 0 0 1-.875-.283 1.528 1.528 0 0 1-.531-.723H5.031v-1.98ZM.813 6.57h2.312l1.688-2.232L.188 2.012 1.906.282l5.219 1.73L8.281.849c.23-.23.542-.43.938-.598C9.615.084 9.989 0 10.344 0c.354 0 .625.094.812.283.146.168.23.382.25.644.021.262-.005.535-.078.818-.073.283-.172.55-.297.801a2.39 2.39 0 0 1-.437.629L9.438 4.338 10.5 7.576h-.516c-.114 0-.224.01-.328.031L8.5 4.117 10 2.61a1.67 1.67 0 0 0 .313-.44c.083-.168.15-.34.203-.519.052-.178.083-.34.093-.487.01-.147-.005-.251-.046-.314H10.5c-.292 0-.583.042-.875.125a1.787 1.787 0 0 0-.781.472l-1.5 1.509-5.219-1.73-.563.567 4.5 2.263-2.53 3.332h-2l1.562 1.006 1 1.572V7.953l3.312-2.546L8.625 7.89l-.344.141c-.125.053-.25.12-.375.205l-.781-1.572-2.219 1.697v2.327l-.812.817L2.5 8.99 0 7.387l.813-.817Zm4.968 7.67h.282c.062-.357.229-.65.5-.88.27-.231.593-.346.968-.346s.698.115.969.346c.27.23.438.523.5.88h2.031c.063-.357.235-.65.516-.88a1.46 1.46 0 0 1 .953-.346c.375 0 .703.115.984.346.282.23.443.523.485.88h1.281v-.252c0-.314-.078-.602-.234-.864a2.653 2.653 0 0 0-.625-.708 3.037 3.037 0 0 0-.86-.487 2.691 2.691 0 0 0-.937-.173H7.03c-.354 0-.65.12-.89.362-.24.24-.36.54-.36.896v1.226Zm6.032-3.238a63.07 63.07 0 0 1-.766-1.446c-.115-.23-.255-.346-.422-.346-.27 0-.542.01-.813.032-.27.02-.536.089-.796.204a3.12 3.12 0 0 0-.797.534c-.271.241-.552.582-.844 1.022h4.438Zm-5.157 3.992c.146.335.438.503.875.503.438 0 .73-.168.875-.503a1 1 0 0 0 .125-.503c0-.146-.01-.23-.031-.251a.911.911 0 0 0-.328-.535.972.972 0 0 0-.64-.22.96.96 0 0 0-.704.299.97.97 0 0 0-.297.707 1 1 0 0 0 .125.503Zm5.844-1.509a.89.89 0 0 0-.688.315c-.187.21-.28.44-.28.691a1 1 0 0 0 .124.503c.146.335.427.503.844.503.438 0 .73-.168.875-.503a1 1 0 0 0 .125-.503c0-.146-.01-.23-.031-.251a.911.911 0 0 0-.328-.535.971.971 0 0 0-.641-.22Z"/></svg>