<svg xmlns="http://www.w3.org/2000/svg" fill="currentColor" viewBox="0 0 16 16"><path d="M1 12c0-.27.094-.505.281-.703A.947.947 0 0 1 2 11v-1c0-.542.198-1.01.594-1.406A1.922 1.922 0 0 1 4 8h3.5V6H5a.973.973 0 0 1-.719-.281A.973.973 0 0 1 4 5V2c0-.27.094-.505.281-.703A.947.947 0 0 1 5 1h6c.27 0 .505.099.703.297A.961.961 0 0 1 12 2v3a.947.947 0 0 1-.297.719A.988.988 0 0 1 11 6H8.5v2H12c.542 0 1.01.198 1.406.594.396.396.594.864.594 1.406v1c.27 0 .505.099.703.297A.961.961 0 0 1 15 12v2a.947.947 0 0 1-.297.719A.988.988 0 0 1 14 15h-2a.974.974 0 0 1-.719-.281A.974.974 0 0 1 11 14v-2c0-.27.094-.505.281-.703A.947.947 0 0 1 12 11h1v-1a.988.988 0 0 0-.281-.703A.947.947 0 0 0 12 9H8.5v2H9c.27 0 .505.099.703.297A.961.961 0 0 1 10 12v2a.947.947 0 0 1-.297.719A.988.988 0 0 1 9 15H7a.973.973 0 0 1-.719-.281A.974.974 0 0 1 6 14v-2c0-.27.094-.505.281-.703A.947.947 0 0 1 7 11h.5V9H4a.947.947 0 0 0-.719.297A.988.988 0 0 0 3 10v1h1c.27 0 .505.099.703.297A.961.961 0 0 1 5 12v2a.947.947 0 0 1-.297.719A.988.988 0 0 1 4 15H2a.973.973 0 0 1-.719-.281A.974.974 0 0 1 1 14v-2ZM5 2v3h6V2H5Zm2 12h2v-2H7v2Zm7 0v-2h-2v2h2ZM2 12v2h2v-2H2Z"/></svg>