<svg xmlns="http://www.w3.org/2000/svg" fill="currentColor" viewBox="0 0 16 16"><path d="M0 6c0-.542.198-1.01.594-1.406A1.922 1.922 0 0 1 2 4h3V3c0-.542.198-1.01.594-1.406A1.922 1.922 0 0 1 7 1h2c.563 0 1.037.198 1.422.594.385.396.578.864.578 1.406v1h3c.563 0 1.037.198 1.422.594.385.396.578.864.578 1.406v7c0 .542-.193 1.01-.578 1.406-.386.396-.86.594-1.422.594H2a1.92 1.92 0 0 1-1.406-.594A1.922 1.922 0 0 1 0 13V6Zm1 0v7c0 .292.099.531.297.719A.988.988 0 0 0 2 14h12a.974.974 0 0 0 .719-.281A.974.974 0 0 0 15 13V6a.973.973 0 0 0-.281-.719A.974.974 0 0 0 14 5H2a.988.988 0 0 0-.703.281A.947.947 0 0 0 1 6Zm5.969.531.343 3.5 1.875 2.219a2.576 2.576 0 0 1-1.124.375c-.876 0-1.641-.224-2.297-.672-.657-.448-1.037-1.14-1.141-2.078-.083-.792.099-1.5.547-2.125a3.055 3.055 0 0 1 1.797-1.219ZM10 4V3a.973.973 0 0 0-.281-.719A.973.973 0 0 0 9 2H7a.988.988 0 0 0-.703.281A.947.947 0 0 0 6 3v1h4ZM8.594 9.906l2.562-1.656c.167.313.26.656.281 1.031a3.342 3.342 0 0 1-.25 1.578c-.208.49-.5.912-.874 1.266l-1.72-2.219ZM8 5.937c.563 0 1.094.105 1.594.313.5.208.927.542 1.281 1L8.156 8.906 8 5.937Z"/></svg>