<svg xmlns="http://www.w3.org/2000/svg" fill="currentColor" viewBox="0 0 16 16"><path d="M3.76 4.031c.501 0 .982.1 1.441.297a3.832 3.832 0 0 1 2.02 2.016c.2.458.299.937.299 1.437 0 .271-.037.505-.11.703-.073.198-.141.37-.204.516v.031l4.387 4.531c.25.313.376.636.376.97.041.25.02.452-.063.609a2.547 2.547 0 0 1-.25.39c-.21.23-.434.365-.674.406-.24.042-.392.063-.455.063H8.992v-1.438H6.987V13H4.982v-1.469H3.76a3.6 3.6 0 0 1-1.441-.297 3.833 3.833 0 0 1-2.02-2.016A3.58 3.58 0 0 1 0 7.781c0-.5.104-.979.313-1.437.21-.459.486-.86.83-1.203a3.896 3.896 0 0 1 1.191-.813c.45-.198.924-.297 1.426-.297ZM7.77 0a3.6 3.6 0 0 1 1.441.297c.46.198.862.469 1.207.812.344.344.616.745.814 1.204.199.458.298.937.298 1.437 0 .27-.037.51-.11.719a8.465 8.465 0 0 1-.203.531v.031l4.386 4.532c.25.312.376.635.376.968.042.23.021.427-.063.594a2.306 2.306 0 0 1-.25.406c-.21.23-.434.365-.674.406-.24.042-.392.063-.454.063H12v-1.438H9.995v-1.53L8.992 9H8.46c.041-.146.062-.333.062-.563v-.656c0-.229-.02-.448-.062-.656L8.334 6.5h.658V8h2.005v1.594h2.006V11h1.535a.86.86 0 0 0 .188-.031.397.397 0 0 0 .188-.094c.063-.104.083-.188.063-.25 0-.188-.042-.323-.126-.406L9.807 5l.564-.563c.041-.125.068-.229.078-.312.01-.083.026-.156.047-.219 0-.083.01-.135.031-.156 0-.375-.073-.73-.219-1.063A2.827 2.827 0 0 0 8.835 1.22 2.634 2.634 0 0 0 7.77 1c-.626 0-1.196.224-1.707.672-.512.448-.841.974-.987 1.578a3.818 3.818 0 0 0-.972-.188 3.63 3.63 0 0 1 .47-1.187c.23-.375.507-.703.83-.984.324-.282.69-.5 1.097-.657C6.91.078 7.331 0 7.771 0ZM6.705 3.5c0-.292.104-.542.313-.75.21-.208.46-.313.752-.313a.98.98 0 0 1 .737.313c.198.208.297.458.297.75s-.099.536-.297.734a1.001 1.001 0 0 1-.737.297c-.292 0-.543-.099-.752-.297a.971.971 0 0 1-.313-.734ZM2.413 7.344c0 .291.099.536.297.734.199.198.444.297.736.297a.95.95 0 0 0 .721-.297c.188-.198.282-.443.282-.734a.972.972 0 0 0-.282-.719.977.977 0 0 0-.72-.281 1.03 1.03 0 0 0-.737.281.945.945 0 0 0-.297.719Z"/></svg>