<svg xmlns="http://www.w3.org/2000/svg" fill="currentColor" viewBox="0 0 16 16"><path d="M8.031 1.719c1.084 0 2.11.177 3.078.531a8.197 8.197 0 0 1 2.547 1.469 6.96 6.96 0 0 1 1.719 2.187A5.86 5.86 0 0 1 16 8.563l-.031.624c-.104-.354-.422-.645-.953-.874-.532-.23-1.151-.344-1.86-.344a4.73 4.73 0 0 0-1.531.234c-.458.156-.813.35-1.063.578-.229-.229-.572-.422-1.03-.578a4.622 4.622 0 0 0-1.5-.234 4.83 4.83 0 0 0-1.563.234c-.459.156-.802.35-1.032.578-.229-.229-.572-.422-1.03-.578a4.83 4.83 0 0 0-1.563-.234c-.709 0-1.328.114-1.86.343-.53.23-.849.521-.953.876C.011 9.146 0 9.041 0 8.874v-.313c0-.937.208-1.822.625-2.656A6.96 6.96 0 0 1 2.344 3.72a8.157 8.157 0 0 1 2.562-1.47 9.117 9.117 0 0 1 3.125-.531Zm5.125 5.25c.313 0 .61.02.89.062.282.042.537.094.767.157a5.58 5.58 0 0 0-.907-1.766A6.167 6.167 0 0 0 12.391 4a7.677 7.677 0 0 0-2-.938 7.928 7.928 0 0 0-2.36-.343c-.812 0-1.594.114-2.344.344A7.615 7.615 0 0 0 3.672 4 6.586 6.586 0 0 0 2.14 5.406a5.193 5.193 0 0 0-.922 1.782c.25-.063.51-.115.781-.157.27-.041.552-.062.844-.062 1 0 1.864.198 2.594.593.75-.395 1.614-.593 2.593-.593.98 0 1.834.198 2.563.593.729-.395 1.583-.593 2.562-.593ZM8 0c.25.02.443.083.578.188a.995.995 0 0 1 .297.343A.93.93 0 0 1 9 1H7c.02-.187.073-.354.156-.5a1.01 1.01 0 0 1 .297-.344C7.59.052 7.771 0 8 0Zm1.688 13.031c.187 0 .317.057.39.172.073.115.089.38.047.797-.063.667-.214 1.167-.453 1.5-.24.333-.62.5-1.14.5-.355 0-.699-.146-1.032-.438-.333-.291-.5-.802-.5-1.53V9h1v5.031c.042.23.099.432.172.61.073.177.245.276.515.296.188.021.308-.067.36-.265.052-.198.088-.417.11-.656.02-.24.057-.464.109-.672.052-.209.192-.313.421-.313Z"/></svg>