<svg xmlns="http://www.w3.org/2000/svg" fill="currentColor" viewBox="0 0 16 16"><path d="M14.968 9.5c.083.75.005 1.458-.235 2.125a5.256 5.256 0 0 1-1.03 1.75 4.87 4.87 0 0 1-1.641 1.188A4.952 4.952 0 0 1 9.999 15H2a.988.988 0 0 1-.702-.281A.947.947 0 0 1 1 14c0-.27.099-.505.297-.703A.961.961 0 0 1 2 13h7.906a3.2 3.2 0 0 0 1.968-.656 2.674 2.674 0 0 0 1.063-1.75c.083-.48.067-.938-.047-1.375a2.783 2.783 0 0 0-.594-1.14 3.272 3.272 0 0 0-1.015-.782A2.824 2.824 0 0 0 9.998 7H4.375l2.343 2.313a.954.954 0 0 1 .282.703.954.954 0 0 1-.282.703.988.988 0 0 1-.718.312.988.988 0 0 1-.72-.312l-3.999-4A.954.954 0 0 1 1 6.016c0-.282.094-.516.281-.704l4.031-4A.988.988 0 0 1 6.031 1c.27 0 .5.104.687.313A.89.89 0 0 1 7.031 2c0 .27-.104.51-.313.719L4.406 5h5.375c.645 0 1.27.115 1.874.344a5.476 5.476 0 0 1 1.61.937c.468.396.854.87 1.156 1.422a4.63 4.63 0 0 1 .547 1.797Z"/></svg>