<svg xmlns="http://www.w3.org/2000/svg" fill="currentColor" viewBox="0 0 16 16"><path d="M.268 6h5.155c.125 0 .208-.052.25-.156L7.766.156C7.807.052 7.89 0 8.016 0c.104 0 .177.052.218.156l2.094 5.688c.041.104.124.156.25.156h5.186c.104 0 .177.057.218.172.042.114.01.203-.094.266l-4.06 2.875c-.084.062-.115.156-.095.28l2.25 6.063c.041.104.031.188-.032.25a.3.3 0 0 1-.218.094c-.063 0-.104-.01-.125-.031L8.14 12.094c-.021-.021-.063-.031-.125-.031-.084 0-.136.01-.157.03L2.392 15.97c-.02.02-.062.031-.125.031a.3.3 0 0 1-.218-.094c-.063-.062-.073-.146-.032-.25l2.25-6.062c.041-.125.01-.219-.094-.281L.112 6.437c-.105-.062-.136-.15-.094-.265C.06 6.057.143 6 .268 6Zm4.499 2.5c.229.167.385.38.468.64.083.261.073.527-.031.797L3.798 13.75l3.5-2.469c.207-.146.447-.219.718-.219.25 0 .479.063.687.188l3.499 2.5-1.406-3.813a1.17 1.17 0 0 1-.031-.796c.083-.26.24-.474.468-.641L13.39 7h-2.812c-.562 0-.958-.27-1.187-.813l-1.374-3.78-1.406 3.78C6.38 6.73 5.985 7 5.423 7h-2.78l2.124 1.5Z"/></svg>