<svg xmlns="http://www.w3.org/2000/svg" fill="currentColor" viewBox="0 0 16 16"><path d="m3.5 13.992 1.344-2.07a1.234 1.234 0 0 1-.672-.565 1.678 1.678 0 0 1-.234-.847c0-.398.156-.753.468-1.067.292-.314.657-.47 1.094-.47.417 0 .781.156 1.094.47.291.335.437.69.437 1.067 0 .293-.078.575-.234.847-.156.272-.38.46-.672.565l1.375 2.07h-4ZM11.906 0C12.47 0 13 .11 13.5.33c.5.219.932.512 1.297.878.364.366.656.8.875 1.302.219.502.328 1.035.328 1.6v1.663h-1.813V4.11c0-.628-.223-1.166-.671-1.616a2.191 2.191 0 0 0-1.61-.674h-.594c-.645 0-1.192.224-1.64.674C9.224 2.944 9 3.482 9 4.11v2.855c.542 0 1.01.198 1.406.596.396.397.594.868.594 1.412v5.02c0 .543-.198 1.014-.594 1.41A1.919 1.919 0 0 1 9 16H2c-.542 0-1.01-.199-1.406-.596A1.933 1.933 0 0 1 0 13.992v-5.02c0-.334.083-.669.25-1.003.104-.147.208-.283.313-.408a1.16 1.16 0 0 1 .453-.314c.198-.084.453-.152.765-.204A7.654 7.654 0 0 1 3 6.965h4.188V4.11a4.07 4.07 0 0 1 1.219-2.902A4.384 4.384 0 0 1 9.718.329 3.92 3.92 0 0 1 11.313 0h.593ZM2 7.969a.971.971 0 0 0-.719.282.98.98 0 0 0-.281.722v5.02c0 .292.094.532.281.72a.971.971 0 0 0 .719.283h7c.27 0 .5-.094.688-.282a.929.929 0 0 0 .312-.722v-5.02a.93.93 0 0 0-.313-.721A.933.933 0 0 0 9 7.969H2Z"/></svg>