<svg xmlns="http://www.w3.org/2000/svg" fill="currentColor" viewBox="0 0 16 16"><path d="M.03 7.727c0-1.087.197-2.095.588-3.025a7.52 7.52 0 0 1 1.623-2.43A7.904 7.904 0 0 1 4.667.628a7.294 7.294 0 0 1 2.968-.61c1.05 0 2.03.203 2.936.61a7.608 7.608 0 0 1 2.365 1.646 8.064 8.064 0 0 1 1.607 2.413c.402.92.603 1.912.603 2.978h-1.268a6.325 6.325 0 0 0-1.854-4.53 6.658 6.658 0 0 0-1.978-1.363 5.8 5.8 0 0 0-2.411-.501 6.13 6.13 0 0 0-2.458.501 6.182 6.182 0 0 0-2.009 1.38 6.825 6.825 0 0 0-1.36 2.053 6.27 6.27 0 0 0-.51 2.523c0 .856.17 1.671.51 2.445a6.62 6.62 0 0 0 1.345 2.006A6.52 6.52 0 0 0 5.13 13.54a5.857 5.857 0 0 0 2.442.517v1.254a7.273 7.273 0 0 1-2.921-.595 7.716 7.716 0 0 1-2.411-1.63 7.52 7.52 0 0 1-1.623-2.43 7.476 7.476 0 0 1-.587-2.93Zm6.306 1.598c.124.585.402.982.835 1.191V8.291c-1.319-.397-1.978-1.18-1.978-2.35 0-.586.18-1.082.54-1.49.361-.407.84-.642 1.438-.705v-.658h.742v.658c.618.105 1.077.319 1.375.643.3.323.5.726.603 1.206l-1.33.188c-.06-.438-.277-.72-.648-.846v2.1c.639.167 1.164.408 1.576.721.412.314.618.836.618 1.567 0 .669-.2 1.218-.602 1.646-.402.428-.933.695-1.592.8v.97H7.17v-.94c-.721-.104-1.247-.36-1.576-.768-.33-.407-.547-.924-.65-1.551l1.391-.157Zm3.648 5.642 2.04-2.069-2.04-1.974.989-1.035 2.04 2.038 1.947-2.038 1.02 1.035-2.04 1.975 2.04 2.068-1.02 1.003-1.947-2.037-2.04 2.037-.99-1.003ZM7.913 10.61c.247-.062.474-.198.68-.407.165-.23.247-.46.247-.69a.994.994 0 0 0-.185-.58c-.124-.177-.371-.318-.742-.423v2.1ZM7.17 6.755v-1.85c-.453.147-.68.46-.68.941 0 .418.227.721.68.91Z"/></svg>