<svg xmlns="http://www.w3.org/2000/svg" fill="currentColor" viewBox="0 0 16 16"><path d="m8.629 8 1.066 1.094a.418.418 0 0 1 .137.3c0 .292-.146.438-.437.438a.418.418 0 0 1-.301-.137L8 8.63 6.906 9.695a.418.418 0 0 1-.3.137c-.292 0-.438-.146-.438-.437 0-.11.046-.21.137-.301L7.37 8 6.305 6.906a.418.418 0 0 1-.137-.3c0-.292.146-.438.437-.438.11 0 .21.046.301.137L8 7.37l1.094-1.066a.418.418 0 0 1 .3-.137c.292 0 .438.146.438.437 0 .11-.046.21-.137.301L8.63 8Zm5.934-6.098c.127 0 .232.046.314.137a.44.44 0 0 1 .123.3v3.118c0 .292-.146.438-.438.438h-3.09c-.291 0-.437-.146-.437-.438 0-.292.146-.437.438-.437h2.214a6.865 6.865 0 0 0-2.46-2.311c-1.003-.556-2.106-.834-3.309-.834a6.674 6.674 0 0 0-3.596 1.012A6.726 6.726 0 0 0 1.82 5.648a.387.387 0 0 1-.383.247.404.404 0 0 1-.314-.137A.44.44 0 0 1 1 5.457c0-.055.046-.182.137-.383A7.421 7.421 0 0 1 2.299 3.42c.465-.501.993-.93 1.586-1.285A8.112 8.112 0 0 1 5.813 1.3 7.64 7.64 0 0 1 7.944 1c1.24 0 2.397.273 3.473.82a7.751 7.751 0 0 1 2.707 2.27V2.34c0-.11.041-.21.123-.3a.404.404 0 0 1 .315-.138ZM1.437 14.098a.404.404 0 0 1-.314-.137.44.44 0 0 1-.123-.3v-3.118c0-.292.146-.438.438-.438h3.09c.291 0 .437.146.437.438 0 .292-.146.438-.438.438H2.312a6.866 6.866 0 0 0 2.461 2.31 6.654 6.654 0 0 0 3.282.834 6.744 6.744 0 0 0 3.61-1.012 6.696 6.696 0 0 0 2.515-2.761.387.387 0 0 1 .383-.247c.127 0 .232.046.314.137a.44.44 0 0 1 .123.301c0 .055-.046.182-.137.383a6.573 6.573 0 0 1-1.148 1.654 7.5 7.5 0 0 1-1.6 1.285 8.172 8.172 0 0 1-1.914.834c-.683.2-1.399.301-2.146.301a7.553 7.553 0 0 1-3.473-.82 7.751 7.751 0 0 1-2.707-2.27v1.75a.44.44 0 0 1-.123.3.404.404 0 0 1-.315.138Z"/></svg>