<svg xmlns="http://www.w3.org/2000/svg" fill="currentColor" viewBox="0 0 16 16"><path d="M8 0c1.104 0 2.146.208 3.125.625.98.417 1.828.99 2.547 1.719a8.216 8.216 0 0 1 1.703 2.547C15.792 5.859 16 6.896 16 8s-.208 2.14-.625 3.11a8.217 8.217 0 0 1-1.703 2.546 7.853 7.853 0 0 1-2.547 1.719c-.98.417-2.02.625-3.125.625a7.785 7.785 0 0 1-3.11-.625 8.081 8.081 0 0 1-2.546-1.719A8.08 8.08 0 0 1 .625 11.11 7.786 7.786 0 0 1 0 8c0-1.104.208-2.14.625-3.11a8.08 8.08 0 0 1 1.719-2.546A8.08 8.08 0 0 1 4.89.625 7.785 7.785 0 0 1 8 0ZM1.687 11h3.438c.313.48.719.854 1.219 1.125.5.27 1.052.406 1.656.406.604 0 1.156-.135 1.656-.406.5-.27.906-.646 1.219-1.125h3.438c.458-.896.687-1.896.687-3 0-.98-.182-1.89-.547-2.734a7.075 7.075 0 0 0-1.5-2.22 7.074 7.074 0 0 0-2.219-1.5A6.82 6.82 0 0 0 8 1c-.958 0-1.865.182-2.719.547a7.026 7.026 0 0 0-2.234 1.5 7.074 7.074 0 0 0-1.5 2.219A6.819 6.819 0 0 0 1 8c0 1.104.23 2.104.688 3Zm5.188-2.188a2.8 2.8 0 0 1 .234-.359c.115-.156.287-.38.516-.672l2.938-3.75 1.124-1.343c0-.063.053-.094.157-.094.02.02.031.052.031.094v.093l-.531 1.75L9.78 8.97l-.437 1.156c-.334.52-.74.781-1.219.781-.48 0-.833-.161-1.063-.484a1.729 1.729 0 0 1-.343-1.016c0 .063.015.047.047-.047a4 4 0 0 0 .109-.546Z"/></svg>