<svg xmlns="http://www.w3.org/2000/svg" fill="currentColor" viewBox="0 0 16 16"><path d="M15.438 6.625c.374.48.562 1.063.562 1.75 0 .375-.073.698-.219.969a2.024 2.024 0 0 1-.25.469l-.312.437a1.78 1.78 0 0 1-.328.313 1.961 1.961 0 0 1-.391.187c-.396.167-.75.25-1.063.25h-.468v-1h.469c.208 0 .427-.052.656-.156.104-.042.172-.073.203-.094.031-.02.078-.063.14-.125.105-.104.188-.208.25-.313A2.17 2.17 0 0 0 14.844 9l.062-.125a1.12 1.12 0 0 0 .094-.5c0-.458-.115-.833-.344-1.125-.229-.25-.541-.438-.937-.563l-1.313-.343.688-1.125a1.04 1.04 0 0 0 .156-.563c0-.52-.177-.937-.531-1.25a1.783 1.783 0 0 0-1.313-.531c-.479 0-.854.135-1.125.406l-1.031.875-.563-1.25a3.056 3.056 0 0 0-1.124-1.375C7.082 1.177 6.479 1 5.75 1c-.292 0-.635.083-1.031.25a4.553 4.553 0 0 0-1.063.719c-.25.291-.458.614-.625.968-.146.292-.219.657-.219 1.094 0 .417.084.771.25 1.063L3.75 6.25l-1.281.313c-.459.125-.802.343-1.031.656h-.032l-.031.031C1.125 7.542 1 7.917 1 8.375c0 .23.042.427.125.594.02.041.078.125.172.25.094.125.276.302.547.531.041.042.172.094.39.156.22.063.641.094 1.266.094v1a9.07 9.07 0 0 1-1.344-.094c-.416-.062-.74-.198-.969-.406-.5-.438-.822-.813-.968-1.125a2.336 2.336 0 0 1-.219-1c0-.73.219-1.333.656-1.813.396-.479.917-.802 1.563-.968a3.013 3.013 0 0 1-.406-1.563c0-.604.104-1.114.312-1.531.23-.5.52-.927.875-1.281A4.816 4.816 0 0 1 4.313.344C4.813.114 5.292 0 5.75 0c.938 0 1.73.23 2.375.688a4.25 4.25 0 0 1 1.5 1.812c.48-.417 1.073-.625 1.781-.625.813 0 1.48.26 2 .781.563.542.844 1.209.844 2 0 .396-.094.75-.281 1.063a2.793 2.793 0 0 1 1.469.906Zm-3.5 2.344c.229.25.229.49 0 .719-.25.229-.49.229-.72 0L8.5 6.967V15.5c0 .333-.167.5-.5.5-.333 0-.5-.167-.5-.5V7.031L4.844 9.688a.478.478 0 0 1-.344.156.478.478 0 0 1-.344-.156c-.25-.23-.25-.47 0-.72l3.188-3.155A.89.89 0 0 1 8.03 5.5c.271 0 .51.104.719.313l3.188 3.156Z"/></svg>