<svg xmlns="http://www.w3.org/2000/svg" fill="currentColor" viewBox="0 0 16 16"><path d="M11 14.75V9h2.75c.167 0 .25.083.25.25v5.5c0 .167-.083.25-.25.25h-2.5c-.167 0-.25-.083-.25-.25ZM6 2.25c0-.167.083-.25.25-.25h2.5c.167 0 .25.083.25.25v4.5c0 .167-.083.25-.25.25h-2.5C6.083 7 6 6.917 6 6.75v-4.5ZM6 11h2.75c.167 0 .25.083.25.25v3.5c0 .167-.083.25-.25.25h-2.5c-.167 0-.25-.083-.25-.25V11Zm5.25-7h2.5c.167 0 .25.083.25.25v3.5c0 .167-.083.25-.25.25h-2.5c-.167 0-.25-.083-.25-.25v-3.5c0-.167.083-.25.25-.25ZM1 7.75v-2.5c0-.167.083-.25.25-.25h2.5c.167 0 .25.083.25.25v2.5c0 .167-.083.25-.25.25h-2.5C1.083 8 1 7.917 1 7.75ZM1.25 12h2.5c.167 0 .25.083.25.25v2.5c0 .167-.083.25-.25.25h-2.5c-.167 0-.25-.083-.25-.25v-2.5c0-.167.083-.25.25-.25ZM11 2.75v-1.5c0-.167.083-.25.25-.25h2.5c.167 0 .25.083.25.25v1.5c0 .167-.083.25-.25.25h-2.5c-.167 0-.25-.083-.25-.25ZM6.25 8h2.5c.167 0 .25.083.25.25v1.5c0 .167-.083.25-.25.25h-2.5C6.083 10 6 9.917 6 9.75v-1.5c0-.167.083-.25.25-.25Zm-5 1h2.5c.167 0 .25.083.25.25v1.5c0 .167-.083.25-.25.25h-2.5c-.167 0-.25-.083-.25-.25v-1.5c0-.167.083-.25.25-.25Z"/></svg>