<svg xmlns="http://www.w3.org/2000/svg" fill="currentColor" viewBox="0 0 16 16"><path d="M4.723 12H0v-2a4.016 4.016 0 0 1 2.44-3.688A3.883 3.883 0 0 1 4.004 6h1a2.897 2.897 0 0 1-2.126-.875A2.892 2.892 0 0 1 2.002 3c0-.833.292-1.542.876-2.125A2.897 2.897 0 0 1 5.005 0c.834 0 1.543.292 2.127.875.584.583.876 1.292.876 2.125s-.292 1.542-.876 2.125A2.897 2.897 0 0 1 5.005 6h1c.647 0 1.242.146 1.784.438a4.34 4.34 0 0 1 1.376 1.156l-.72.687a2.927 2.927 0 0 0-1.047-.937A2.9 2.9 0 0 0 6.006 7H4.004c-.834 0-1.543.292-2.127.875A2.892 2.892 0 0 0 1 10v1h4.723l-1 1Zm-.281 4a8.93 8.93 0 0 0 .25-.625c.125-.333.25-.688.375-1.063.084-.208.162-.427.235-.656.073-.229.162-.479.266-.75l8.164-8.125a.479.479 0 0 1 .344-.156c.125 0 .24.052.344.156l1.408 1.407c.23.229.23.458 0 .687l-8.133 8.156c-.02.021-.198.084-.532.188-.333.104-.709.208-1.126.312-.459.167-.99.323-1.595.469Zm.563-11c.542 0 1.011-.198 1.408-.594A1.92 1.92 0 0 0 7.007 3a1.92 1.92 0 0 0-.594-1.406A1.925 1.925 0 0 0 5.005 1a1.91 1.91 0 0 0-1.423.594A1.947 1.947 0 0 0 3.002 3c0 .542.194 1.01.58 1.406.385.396.86.594 1.423.594Zm1.408 8.469.719.687L12.794 8.5l-.688-.688-5.693 5.657Zm6.38-6.375.72.718 1.252-1.28-.689-.688-1.282 1.25Z"/></svg>