<svg xmlns="http://www.w3.org/2000/svg" fill="currentColor" viewBox="0 0 16 16"><path d="M16 16H6v-2c0-.563.104-1.083.313-1.563a4.065 4.065 0 0 1 2.125-2.124c.479-.209 1-.313 1.562-.313h1c-.896 0-1.62-.281-2.172-.844C8.276 8.594 8 7.875 8 7c0-.27.01-.417.031-.438a2.97 2.97 0 0 1 .844-1.687 2.97 2.97 0 0 1 1.688-.844c.02-.02.166-.031.437-.031.875 0 1.594.276 2.156.828C13.72 5.38 14 6.104 14 7c0 .833-.292 1.542-.875 2.125A2.893 2.893 0 0 1 11 10h1a4.015 4.015 0 0 1 3.688 2.438c.208.479.312 1 .312 1.562v2ZM0 7c0-.292.094-.531.281-.719A.973.973 0 0 1 1 6h.875c.042-.167.099-.323.172-.469.073-.146.14-.291.203-.437l-.625-.625a1.043 1.043 0 0 1-.281-.719c0-.27.093-.5.281-.688l1.438-1.437a.935.935 0 0 1 .687-.281c.292 0 .531.093.719.281l.625.625c.146-.063.291-.13.437-.203.146-.073.302-.13.469-.172V1c0-.292.094-.531.281-.719A.973.973 0 0 1 7 0h2c.292 0 .531.094.719.281A.973.973 0 0 1 10 1v.875c.167.042.323.099.469.172.146.073.291.14.437.203l.625-.625a.974.974 0 0 1 .719-.281c.27 0 .5.093.688.281l1.437 1.438a.935.935 0 0 1 .281.687c0 .27-.094.51-.281.719l-.188.156-.312-.375a1.992 1.992 0 0 0-.375-.344l.156-.156-1.406-1.406-.719.719a4.97 4.97 0 0 0-.265-.047A1.917 1.917 0 0 0 11 3a4.517 4.517 0 0 0-.75.063c-.02-.021-.063-.032-.125-.032a2.819 2.819 0 0 0-.203-.094l-.235-.093L9 2.594V1H7v1.594l-.688.25a.555.555 0 0 1-.156.047.28.28 0 0 0-.156.078l-.469.187-.625.313L3.75 2.344 2.344 3.75l1.125 1.156-.313.625c-.062.125-.12.255-.172.39a9.185 9.185 0 0 0-.14.391L2.594 7H1v2h1.594l.25.688c.02.041.041.093.062.156.021.062.042.114.063.156 0 .042.02.083.062.125a3.134 3.134 0 0 0 .125.313l.313.656-1.125 1.156 1.406 1.406L4.906 12.5l.282.156c-.105.375-.167.76-.188 1.156l-.531.563a.973.973 0 0 1-.719.281.94.94 0 0 1-.688-.281l-1.437-1.438a.954.954 0 0 1-.281-.703c0-.28.093-.515.281-.703l.625-.625a8.179 8.179 0 0 0-.203-.437A2.282 2.282 0 0 1 1.875 10H1a.947.947 0 0 1-.719-.297A.988.988 0 0 1 0 9V7Zm15 8v-1c0-.833-.292-1.542-.875-2.125A2.893 2.893 0 0 0 12 11h-2c-.833 0-1.542.292-2.125.875A2.893 2.893 0 0 0 7 14v1h8ZM9 7c0 .563.193 1.036.578 1.422.386.385.86.578 1.422.578a1.92 1.92 0 0 0 1.406-.594A1.92 1.92 0 0 0 13 7c0-.563-.193-1.036-.578-1.422A1.933 1.933 0 0 0 11 5a1.92 1.92 0 0 0-1.406.594A1.922 1.922 0 0 0 9 7ZM5 8.156c0-.729.167-1.349.5-1.86.333-.51.833-.89 1.5-1.14l.25-.062a6 6 0 0 1 .281-.063 3.739 3.739 0 0 0-.438 1.031.133.133 0 0 1-.015.063.218.218 0 0 0-.016.094c-.02 0-.03.005-.03.015 0 .01-.011.016-.032.016l-.375.281c-.23.23-.39.453-.484.672A2.02 2.02 0 0 0 6 8c0 .083.005.167.016.25.01.083.026.177.046.281.167.521.48.917.938 1.188l.125.062.125.063A.553.553 0 0 0 7 10a7.495 7.495 0 0 0-.594.531.832.832 0 0 1-.218-.156A1.237 1.237 0 0 0 6 10.219 1.09 1.09 0 0 1 5.781 10c-.27-.313-.458-.594-.562-.844-.104-.25-.177-.583-.219-1Z"/></svg>