<svg xmlns="http://www.w3.org/2000/svg" fill="currentColor" viewBox="0 0 16 16"><path d="m0 4 4-4h7c.27 0 .505.094.703.281A.947.947 0 0 1 12 1v2h-1V1H5v3a.947.947 0 0 1-.297.719A1.027 1.027 0 0 1 3.97 5H1v10h10v-2h1v2a.974.974 0 0 1-.281.719A.974.974 0 0 1 11 16H1a.973.973 0 0 1-.719-.281A.974.974 0 0 1 0 15V4Zm11.156 7a4.935 4.935 0 0 1-2.797-.844A6.055 6.055 0 0 1 6.375 8c.542-1 1.23-1.74 2.063-2.219C9.27 5.302 10.124 5.041 11 5c1.063 0 2.031.26 2.906.781S15.48 7.031 16 7.97c-.48.875-1.073 1.552-1.781 2.031-.709.48-1.448.781-2.219.906-.27.063-.542.094-.813.094h-.03ZM7.562 8a4.63 4.63 0 0 0 1.532 1.422c.604.344 1.24.536 1.906.578 1.604 0 2.875-.677 3.813-2.031-.459-.667-1.01-1.162-1.657-1.485C12.51 6.161 11.792 6 11 6c-.542.042-1.13.214-1.766.516C8.6 6.818 8.042 7.312 7.563 8ZM11 6.594c.438 0 .813.114 1.125.343.313.23.469.584.469 1.063 0 .48-.162.828-.485 1.047A1.931 1.931 0 0 1 11 9.375a1.333 1.333 0 0 1-.875-.453A1.35 1.35 0 0 1 9.781 8c0-.354.115-.667.344-.938.23-.27.52-.427.875-.468Z"/></svg>