<svg xmlns="http://www.w3.org/2000/svg" fill="currentColor" viewBox="0 0 16 16"><path d="M3.594 13.993a2.212 2.212 0 0 1-1.25-.504 2.6 2.6 0 0 1-.781-1.102l-1 .19-.47-2.928a1.41 1.41 0 0 1-.03-.268v-.425a.555.555 0 0 0 .03-.173c0-.052.011-.11.032-.173.02-.02.031-.073.031-.157.021-.042.042-.1.063-.173.02-.074.052-.152.094-.236a.685.685 0 0 1 .125-.252l.03-.063v-.032L.5 7.666a2.83 2.83 0 0 1 .75-.819c.667-1.573 1.453-2.707 2.36-3.4.906-.692 1.963-1.143 3.171-1.353h.032A3.64 3.64 0 0 1 7.563 2c.187 0 .38.037.578.11.198.074.421.22.671.44.25.221.542.52.876.898.333.378.729.87 1.187 1.48H11l2.594-2.645.562.535-1.906 2.015c.333 0 .688.079 1.063.236.374.157.723.383 1.046.677.323.294.604.645.844 1.054.24.41.39.855.453 1.338l.313 1.952-1.969.314a2.618 2.618 0 0 1-.61 1.511c-.364.44-.848.714-1.453.819-.02.02-.135.031-.343.031-.521 0-.99-.147-1.406-.44a2.501 2.501 0 0 1-.907-1.165l-3 .472a2.383 2.383 0 0 1-.593 1.527c-.375.43-.855.697-1.438.802a.51.51 0 0 0-.125.016.51.51 0 0 1-.125.016h6l1-1.008h1l1 1.008h3V15H0v-1.007h3.594ZM1.063 9.492v.062l.312 1.89h.031a2.438 2.438 0 0 1 .782-1.685 2.42 2.42 0 0 1 1.718-.677c.5 0 .953.142 1.36.425.406.284.692.667.859 1.15l3-.473A2.593 2.593 0 0 1 9.922 8.5a2.366 2.366 0 0 1 1.703-.677c.48 0 .927.147 1.344.44.416.295.708.683.875 1.166l1-.158-.125-.976c-.125-.755-.464-1.358-1.016-1.81a2.905 2.905 0 0 0-1.89-.676c-.292 0-.448.01-.47.031L2.689 7.257a1.875 1.875 0 0 0-1.282.77 1.91 1.91 0 0 0-.343 1.465ZM9.78 5.116a19.34 19.34 0 0 0-.875-1.086 7.552 7.552 0 0 0-.625-.645 1.588 1.588 0 0 0-.453-.299 1.08 1.08 0 0 0-.39-.079c-.23 0-.355.01-.375.032-.021 0-.037.005-.047.015-.01.011-.037.016-.079.016a6.214 6.214 0 0 0-2.39.85c-.719.44-1.37 1.228-1.953 2.36L9.78 5.117Zm-7.656 6.705.125.315c.167.461.411.76.734.897.323.136.704.204 1.141.204a1.606 1.606 0 0 0 1.016-.55c.26-.305.4-.667.421-1.086v-.347l-.093-.314c-.23-.462-.485-.761-.766-.898-.281-.136-.65-.204-1.11-.204a1.606 1.606 0 0 0-1.015.55c-.26.305-.4.667-.422 1.087l-.031.346Zm7.844-.913c.125.336.328.603.61.803.28.199.598.299.952.299.188 0 .292-.01.313-.032a1.682 1.682 0 0 0 1-.535c.27-.294.416-.65.437-1.07v-.346l-.125-.347a1.676 1.676 0 0 0-.61-.802 1.609 1.609 0 0 0-.952-.3c-.188 0-.292.011-.313.032a1.614 1.614 0 0 0-.984.535 1.84 1.84 0 0 0-.453 1.07v.347l.125.346Z"/></svg>