<svg xmlns="http://www.w3.org/2000/svg" fill="currentColor" viewBox="0 0 16 16"><path d="M6.906.5C7.22.167 7.583 0 8 0c.458 0 .823.167 1.094.5l.687.844 1.031-.375c.167-.063.323-.094.47-.094a1.402 1.402 0 0 1 1.406 1.188l.156 1.062 1.094.188c.354.062.64.223.859.484.219.26.328.557.328.89a1.4 1.4 0 0 1-.094.5l-.406 1.032.844.687c.354.292.531.657.531 1.094 0 .458-.177.813-.531 1.063l-.844.718.406 1.031c.063.146.094.303.094.47a1.402 1.402 0 0 1-1.188 1.406l-1.093.156-.156 1.094a1.402 1.402 0 0 1-1.407 1.187 1.34 1.34 0 0 1-.469-.094l-1.03-.406-.688.844C8.802 15.823 8.438 16 8 16c-.438 0-.802-.177-1.094-.531l-.687-.844-1.032.406a1.259 1.259 0 0 1-.5.094c-.333 0-.63-.11-.89-.328a1.402 1.402 0 0 1-.485-.86l-.187-1.093-1.063-.156A1.402 1.402 0 0 1 .875 11.28c0-.166.031-.323.094-.469l.375-1.03-.844-.72C.167 8.813 0 8.459 0 8c0-.458.167-.823.5-1.094l.844-.687-.375-1.032a1.415 1.415 0 0 1-.094-.5c0-.333.11-.63.328-.89.219-.26.505-.422.86-.485l1.062-.187.188-1.063c.062-.354.223-.64.484-.859.26-.219.557-.328.89-.328.188 0 .355.031.5.094l1.032.375L6.906.5Zm.469 9.031-2-2-1 1.032 3 2.937 4.969-5.75-1.031-1.031L7.374 9.53Z"/></svg>