<svg xmlns="http://www.w3.org/2000/svg" fill="currentColor" viewBox="0 0 16 16"><path d="M1 1h1v13h13v1H1V1Zm7 7.75v-4.5c0-.167.083-.25.25-.25h1.5c.167 0 .25.083.25.25v4.5c0 .167-.083.25-.25.25h-1.5C8.083 9 8 8.917 8 8.75Zm-4-2v-2.5c0-.167.083-.25.25-.25h1.5c.167 0 .25.083.25.25v2.5c0 .167-.083.25-.25.25h-1.5C4.083 7 4 6.917 4 6.75ZM8.25 10h1.5c.167 0 .25.083.25.25v2.5c0 .167-.083.25-.25.25h-1.5c-.167 0-.25-.083-.25-.25v-2.5c0-.167.083-.25.25-.25Zm-4-2h1.5c.167 0 .25.083.25.25v2.5c0 .167-.083.25-.25.25h-1.5c-.167 0-.25-.083-.25-.25v-2.5c0-.167.083-.25.25-.25Zm8 3h1.5c.167 0 .25.083.25.25v1.5c0 .167-.083.25-.25.25h-1.5c-.167 0-.25-.083-.25-.25v-1.5c0-.167.083-.25.25-.25ZM12 6.75v-1.5c0-.167.083-.25.25-.25h1.5c.167 0 .25.083.25.25v1.5c0 .167-.083.25-.25.25h-1.5c-.167 0-.25-.083-.25-.25Zm0 3v-1.5c0-.167.083-.25.25-.25h1.5c.167 0 .25.083.25.25v1.5c0 .167-.083.25-.25.25h-1.5c-.167 0-.25-.083-.25-.25Zm-4-8.5c0-.167.083-.25.25-.25h1.5c.167 0 .25.083.25.25v1.5c0 .167-.083.25-.25.25h-1.5C8.083 3 8 2.917 8 2.75v-1.5Zm-4 11c0-.167.083-.25.25-.25h1.5c.167 0 .25.083.25.25v.5c0 .167-.083.25-.25.25h-1.5c-.167 0-.25-.083-.25-.25v-.5Z"/></svg>