<svg xmlns="http://www.w3.org/2000/svg" fill="currentColor" viewBox="0 0 16 16"><path d="M12 1.25c0-.167.083-.25.25-.25h1.5c.167 0 .25.083.25.25v11.5c0 .167-.083.25-.25.25h-1.5c-.167 0-.25-.083-.25-.25V1.25Zm-7 4c0-.167.083-.25.25-.25h1.5c.167 0 .25.083.25.25v7.5c0 .167-.083.25-.25.25h-1.5c-.167 0-.25-.083-.25-.25v-7.5ZM1 15v-1h14v1H1Zm8-2.25v-5.5c0-.167.083-.25.25-.25h1.5c.167 0 .25.083.25.25v5.5c0 .167-.083.25-.25.25h-1.5c-.167 0-.25-.083-.25-.25Zm-7-1.5c0-.167.083-.25.25-.25h1.5c.167 0 .25.083.25.25v1.5c0 .167-.083.25-.25.25h-1.5c-.167 0-.25-.083-.25-.25v-1.5Z"/></svg>