<svg xmlns="http://www.w3.org/2000/svg" fill="currentColor" viewBox="0 0 16 16"><path d="M1 .125C1 .042 1.042 0 1.125 0h1.75C2.958 0 3 .042 3 .125v13.25c0 .083-.042.125-.125.125h-1.75c-.083 0-.125-.042-.125-.125V.125ZM16 15v1H0v-1h16ZM5 .125C5 .042 5.042 0 5.125 0h1.75C6.958 0 7 .042 7 .125v4.75C7 4.958 6.958 5 6.875 5h-1.75C5.042 5 5 4.958 5 4.875V.125Zm8 8.5c0-.083.042-.125.125-.125h1.75c.083 0 .125.042.125.125v4.75c0 .083-.042.125-.125.125h-1.75c-.083 0-.125-.042-.125-.125v-4.75Zm-4-3.5C9 5.042 9.042 5 9.125 5h1.75c.083 0 .125.042.125.125v3.25c0 .083-.042.125-.125.125h-1.75C9.042 8.5 9 8.458 9 8.375v-3.25Z"/></svg>