<svg xmlns="http://www.w3.org/2000/svg" fill="currentColor" viewBox="0 0 16 16"><path d="M11 12.75v-9.5c0-.167.083-.25.25-.25h1.5c.167 0 .25.083.25.25v9.5c0 .167-.083.25-.25.25h-1.5c-.167 0-.25-.083-.25-.25Zm-4-7.5c0-.167.083-.25.25-.25h1.5c.167 0 .25.083.25.25v7.5c0 .167-.083.25-.25.25h-1.5c-.167 0-.25-.083-.25-.25v-7.5Zm-6 8.781h14V15H1v-.969Zm2.25-6h1.5c.167 0 .25.084.25.25v4.469c0 .167-.083.25-.25.25h-1.5c-.167 0-.25-.083-.25-.25V8.281c0-.166.083-.25.25-.25ZM14 1v1h-4V1h4ZM6 3.969V3h4v.969H6ZM6 6.03V7H2v-.969h4Z"/></svg>