<svg xmlns="http://www.w3.org/2000/svg" fill="currentColor" viewBox="0 0 16 16"><path d="M0 11V5c0-.542.198-1.01.594-1.406A1.922 1.922 0 0 1 2 3h7c.542 0 1.01.198 1.406.594.396.396.594.864.594 1.406v.906l3.5-3.75A.937.937 0 0 1 15 2c.27 0 .505.094.703.281A.947.947 0 0 1 16 3v10a.947.947 0 0 1-.297.719A.988.988 0 0 1 15 14a.99.99 0 0 1-.5-.125l-3.5-3.75V11c0 .563-.198 1.037-.594 1.422A1.948 1.948 0 0 1 9 13H2c-.542 0-1.01-.193-1.406-.578A1.907 1.907 0 0 1 0 11Zm2 1h7a.973.973 0 0 0 .719-.281A.974.974 0 0 0 10 11V5a.988.988 0 0 0-.281-.703A.947.947 0 0 0 9 4H2a.947.947 0 0 0-.719.297A.988.988 0 0 0 1 5v6c0 .292.094.531.281.719A.973.973 0 0 0 2 12Zm9-4.813v1.657L15 13V3l-4 4.188Z"/></svg>