<svg xmlns="http://www.w3.org/2000/svg" fill="currentColor" viewBox="0 0 16 16"><path d="M5.031 8.955a1.92 1.92 0 0 0 1.407-.595 1.93 1.93 0 0 0 .593-1.41c0-.542-.198-1.012-.593-1.409a1.92 1.92 0 0 0-1.407-.595 1.92 1.92 0 0 0-1.406.595 1.928 1.928 0 0 0-.594 1.41c0 .543.198 1.012.594 1.41a1.92 1.92 0 0 0 1.406.594Zm4 5.011c0-.856-.286-1.566-.86-2.13-.572-.563-1.286-.845-2.14-.845h-2c-.437 0-.817.068-1.14.204-.323.135-.641.35-.954.642a3.188 3.188 0 0 0-.671.97 2.844 2.844 0 0 0-.235 1.16h8Zm-3-4.008a3.68 3.68 0 0 1 1.516.313c.469.208.9.49 1.297.845.354.418.635.862.844 1.331.208.47.312.977.312 1.52V15H0v-1.034c0-.563.11-1.09.328-1.581.219-.49.51-.914.875-1.269a4.153 4.153 0 0 1 1.281-.845 3.902 3.902 0 0 1 1.547-.314h1c-.854 0-1.567-.287-2.14-.86-.573-.575-.86-1.29-.86-2.146 0-.856.287-1.571.86-2.146.573-.574 1.286-.86 2.14-.86.854 0 1.568.286 2.14.86.574.575.86 1.29.86 2.146 0 .856-.286 1.571-.86 2.145-.572.574-1.286.861-2.14.861h1ZM6 1h10v12.966h-4.969v-.97h4V1.97h-8v1.002H6V1Zm7.719 5.732c.187.208.281.448.281.72 0 .25-.094.49-.281.72L11.78 9.99a.477.477 0 0 1-.344.156.444.444 0 0 1-.359-.172.563.563 0 0 1-.14-.36.48.48 0 0 1 .156-.345L12.5 7.984h-3c-.333 0-.5-.167-.5-.5 0-.335.167-.502.5-.502h3l-1.438-1.284a.513.513 0 0 1-.156-.376.48.48 0 0 1 .156-.344.477.477 0 0 1 .344-.157c.125 0 .24.052.344.157l1.969 1.754Z"/></svg>