<svg xmlns="http://www.w3.org/2000/svg" fill="currentColor" viewBox="0 0 16 16"><path d="M14 6.844c0-.5-.177-.933-.531-1.297A1.757 1.757 0 0 0 12.156 5H3.844c-.521 0-.959.182-1.313.547A1.798 1.798 0 0 0 2 6.844v2.343c0 .5.177.928.531 1.282.354.354.792.531 1.313.531.5 0 .927-.177 1.281-.531L6.563 9.03C7 8.635 7.479 8.437 8 8.437c.52 0 1 .198 1.438.594l1.437 1.438c.354.354.781.531 1.281.531.521 0 .959-.177 1.313-.531.354-.354.531-.781.531-1.281V6.844ZM15 5c.292 0 .531.099.719.297A.988.988 0 0 1 16 6v2a.973.973 0 0 1-.281.719A.974.974 0 0 1 15 9v.188c0 .791-.276 1.458-.828 2-.552.541-1.224.812-2.016.812-.791 0-1.458-.27-2-.813L8.72 9.72A.973.973 0 0 0 8 9.438a.973.973 0 0 0-.719.28l-1.437 1.47c-.542.541-1.209.812-2 .812-.792 0-1.464-.27-2.016-.813-.552-.541-.828-1.208-.828-2V9a.973.973 0 0 1-.719-.281A.973.973 0 0 1 0 8V6c0-.27.094-.505.281-.703A.947.947 0 0 1 1 5h.656c.271-.292.594-.531.969-.719A2.687 2.687 0 0 1 3.844 4h8.312c.438 0 .844.094 1.219.281.375.188.698.427.969.719H15ZM5.5 6c.146 0 .266.052.36.156.093.104.14.219.14.344 0 .333-.167.5-.5.5h-1c-.333 0-.5-.167-.5-.5 0-.125.047-.24.14-.344A.462.462 0 0 1 4.5 6h1Z"/></svg>