<svg xmlns="http://www.w3.org/2000/svg" fill="currentColor" viewBox="0 0 16 16"><path d="M3.906 6.156a10.1 10.1 0 0 1-.89-1.39 3.944 3.944 0 0 1-.454-1.579c0-.104.079-.192.235-.265.156-.073.297-.11.422-.11.083 0 .146.021.187.063.292.354.51.52.656.5.042-.02.11-.052.204-.094.093-.041.213-.135.359-.281h.031c.042-.042.104-.063.188-.063.083 0 .146.021.187.063v.031c.042.042.115.104.219.188a.736.736 0 0 0 .313.156c.187.02.416-.146.687-.5.042-.042.104-.063.188-.063a.97.97 0 0 1 .39.11c.156.073.234.161.234.265 0 .167-.036.376-.109.626-.073.25-.14.458-.203.624-.104.23-.255.51-.453.844-.198.334-.38.615-.547.844a4.27 4.27 0 0 1 1.672.828c.51.406.958.88 1.344 1.422a7.16 7.16 0 0 1 .906 1.719 5.13 5.13 0 0 1 .328 1.75c0 .833-.078 1.515-.234 2.047-.157.53-.427.953-.813 1.265-.385.313-.896.531-1.531.656C6.786 15.938 5.979 16 5 16c-.854 0-1.594-.063-2.219-.188-.625-.124-1.146-.343-1.562-.656a2.73 2.73 0 0 1-.922-1.265C.099 13.359 0 12.677 0 11.844c0-.542.099-1.11.297-1.703a7.407 7.407 0 0 1 .812-1.688 6.696 6.696 0 0 1 1.235-1.422c.479-.416 1-.708 1.562-.875Zm1.094 9c1 0 1.776-.062 2.328-.187.552-.125.953-.323 1.203-.594.438-.438.646-1.292.625-2.563 0-.541-.12-1.109-.36-1.703a6.345 6.345 0 0 0-.952-1.625 5.305 5.305 0 0 0-1.36-1.203c-.51-.312-1.036-.468-1.578-.468-.562 0-1.088.166-1.578.5-.49.333-.922.75-1.297 1.25a6.131 6.131 0 0 0-.875 1.624c-.208.584-.312 1.126-.312 1.626 0 .645.062 1.182.187 1.609.125.427.344.77.657 1.031.312.26.74.443 1.28.547.542.104 1.22.156 2.032.156Zm-1.219-2.812c0 .208.063.375.188.5a.882.882 0 0 0 .469.344v-1.563c-.584-.146-.97-.365-1.157-.656a1.575 1.575 0 0 1-.344-1c0-.459.141-.818.422-1.078.282-.26.641-.412 1.079-.454v-.78H5v.78c.48.063.823.198 1.031.407.25.187.407.49.469.906l-.938.094C5.5 9.573 5.313 9.375 5 9.25v1.5c.48.104.875.26 1.188.469.312.208.468.583.468 1.125 0 .541-.15.948-.453 1.219-.302.27-.703.437-1.203.5v.656h-.563v-.625c-.52-.084-.9-.25-1.14-.5-.24-.25-.412-.625-.516-1.125l1-.125Zm8.969-6.25c0-.73.167-1.26.5-1.594.333-.333.708-.5 1.125-.5.292 0 .588.094.89.281.303.188.506.51.61.969.083.146.125.427.125.844 0 .5-.12.984-.36 1.453-.239.469-.65.703-1.234.703-.312 0-.578-.073-.797-.219a1.67 1.67 0 0 1-.515-.531 2.192 2.192 0 0 1-.266-.703 3.62 3.62 0 0 1-.078-.703ZM9.344 0c.583 0 1 .198 1.25.594.25.396.375.916.375 1.562 0 .771-.162 1.313-.485 1.625-.322.313-.692.469-1.109.469-.396 0-.745-.151-1.047-.453-.302-.302-.453-.86-.453-1.672 0-.604.094-1.11.281-1.516C8.344.203 8.74 0 9.344 0Zm4.094 1h1.437l-4.469 6H8.937l4.5-6ZM3.562 4.344c.105.229.271.505.5.828.23.323.407.568.532.734h.468c.063-.083.141-.192.235-.328.094-.135.193-.281.297-.437a7.766 7.766 0 0 0 .468-.797c.021-.042.042-.094.063-.157a.693.693 0 0 0 .031-.218c0-.104-.02-.156-.062-.156-.021 0-.042.01-.063.03A.747.747 0 0 1 5.734 4c-.093.02-.203.031-.328.031a.822.822 0 0 1-.5-.25c-.062-.062-.114-.062-.156 0a1.731 1.731 0 0 1-.531.25c-.271 0-.469-.062-.594-.187-.02-.021-.052-.031-.094-.031-.041 0-.062.052-.062.156 0 .083.01.156.031.219.02.062.042.114.063.156Zm10.844 3c.188 0 .323-.104.406-.313.084-.146.126-.458.126-.937 0-.813-.188-1.219-.563-1.219-.208 0-.354.115-.438.344-.083.229-.124.52-.124.875 0 .375.041.677.124.906.084.23.24.344.47.344ZM8.812 2.156c0 .313.042.594.126.844.083.25.229.375.437.375.23 0 .375-.12.438-.36a3.44 3.44 0 0 0 .093-.859c0-.375-.036-.677-.11-.906-.072-.23-.223-.344-.452-.344-.167 0-.302.115-.406.344-.084.146-.126.448-.126.906ZM5 13.25c.48-.063.719-.313.719-.75 0-.188-.042-.323-.125-.406-.084-.125-.282-.23-.594-.313v1.469Zm-1-2.969c.104.084.198.146.281.188.021.02.073.052.157.094V9.25A.838.838 0 0 0 4 9.531a.66.66 0 0 0-.14.375.46.46 0 0 0 .14.375Z"/></svg>