<svg xmlns="http://www.w3.org/2000/svg" fill="currentColor" viewBox="0 0 16 16"><path d="M15.5 5c.333 0 .5.167.5.5v4c0 .333-.167.5-.5.5-.333 0-.5-.167-.5-.5V6.375l-7.844 7.719a3.05 3.05 0 0 1-1.015.672A3.172 3.172 0 0 1 4.937 15a2.96 2.96 0 0 1-1.218-.25 3.237 3.237 0 0 1-.985-.672 3.236 3.236 0 0 1-.671-.984 2.966 2.966 0 0 1-.25-1.219c0-.854.302-1.583.906-2.188l4.125-4.062a2.05 2.05 0 0 0 .625-1.5c0-.604-.209-1.11-.625-1.516C6.427 2.203 5.917 2 5.312 2c-.583 0-1.083.208-1.5.625L2.75 3.656c.167.271.25.552.25.844 0 .417-.146.77-.438 1.063A1.447 1.447 0 0 1 1.5 6c-.417 0-.77-.146-1.062-.438A1.447 1.447 0 0 1 0 4.5c0-.417.146-.77.438-1.063A1.447 1.447 0 0 1 1.5 3c.083 0 .156.005.219.016.062.01.135.026.218.046l1.157-1.156C3.74 1.302 4.479 1 5.313 1c.437 0 .843.083 1.218.25.375.167.709.39 1 .672.292.281.521.61.688.984.166.375.25.781.25 1.219 0 .896-.313 1.625-.938 2.188l-4.093 4.062a2.046 2.046 0 0 0-.626 1.5c0 .604.209 1.11.626 1.516a2.07 2.07 0 0 0 1.5.609c.604 0 1.114-.208 1.53-.625L13.939 6H11.5c-.333 0-.5-.167-.5-.5 0-.333.167-.5.5-.5h4Z"/></svg>