<svg xmlns="http://www.w3.org/2000/svg" fill="currentColor" viewBox="0 0 16 16"><path d="M1 4h1V2c0-.27.094-.505.281-.703A.947.947 0 0 1 3 1h4c.27 0 .505.099.703.297A.961.961 0 0 1 8 2h3c.27 0 .505.099.703.297A.961.961 0 0 1 12 3v1h1c.27 0 .505.099.703.297A.961.961 0 0 1 14 5v2c.542 0 1.01.198 1.406.594.396.396.594.864.594 1.406v1a1.92 1.92 0 0 1-.594 1.406A1.922 1.922 0 0 1 14 12v2a.947.947 0 0 1-.297.719A.988.988 0 0 1 13 15H1a.973.973 0 0 1-.719-.281A.974.974 0 0 1 0 14V5c0-.27.094-.505.281-.703A.947.947 0 0 1 1 4Zm0 10h12v-2h-2a1.907 1.907 0 0 1-1.422-.594A1.948 1.948 0 0 1 9 10V9c0-.542.193-1.01.578-1.406C9.964 7.198 10.438 7 11 7h2V5H1v9Zm9-4c0 .292.094.531.281.719A.974.974 0 0 0 11 11h3c.27 0 .505-.094.703-.281A.947.947 0 0 0 15 10V9a.961.961 0 0 0-.297-.703A.961.961 0 0 0 14 8h-3a.947.947 0 0 0-.719.297A.988.988 0 0 0 10 9v1ZM7 4V2H3v2h4Zm4 0V3H8v1h3Zm0 5.5c0-.333.167-.5.5-.5.125 0 .24.047.344.14A.462.462 0 0 1 12 9.5a.462.462 0 0 1-.156.36.503.503 0 0 1-.344.14c-.333 0-.5-.167-.5-.5Z"/></svg>