<svg xmlns="http://www.w3.org/2000/svg" fill="currentColor" viewBox="0 0 16 16"><path d="M7.766 10.906c-.193 0-.332-.036-.417-.11-.086-.072-.15-.265-.193-.577l-.642-9c0-.354.117-.646.353-.875.235-.23.535-.344.899-.344.321 0 .605.115.851.344.246.229.37.52.37.875l-.61 9c-.065.291-.14.479-.226.562-.085.084-.214.125-.385.125Zm.032 1.688c.45 0 .846.161 1.188.484.343.323.514.724.514 1.203 0 .459-.171.86-.514 1.203-.342.344-.738.516-1.188.516-.514 0-.942-.172-1.284-.516A1.644 1.644 0 0 1 6 14.281c0-.479.171-.88.514-1.203.342-.323.77-.484 1.284-.484Z"/></svg>