<svg xmlns="http://www.w3.org/2000/svg" fill="currentColor" viewBox="0 0 16 16"><path d="m15.97 7.961-7.985 7.993L0 7.961 7.985 0l7.984 7.961Zm-7.985 6.27 6.23-6.27-6.23-6.237L1.722 7.96l6.263 6.27Zm0-5.267a.58.58 0 0 1-.313-.078c-.084-.052-.147-.204-.188-.454l-.47-3.417c0-.292.089-.533.266-.72.178-.189.412-.283.705-.283.292 0 .527.094.704.282.178.188.266.429.266.721l-.47 3.417c-.041.23-.098.376-.171.438-.074.063-.183.094-.33.094Zm.97 1.85c0 .292-.088.533-.266.72-.177.189-.412.283-.704.283-.293 0-.527-.094-.705-.282a1.011 1.011 0 0 1-.266-.721c0-.251.089-.476.266-.674a.899.899 0 0 1 .705-.298.9.9 0 0 1 .704.298.984.984 0 0 1 .266.674Z"/></svg>