<svg xmlns="http://www.w3.org/2000/svg" fill="currentColor" viewBox="0 0 16 16"><path d="M12 4.969a.961.961 0 0 1-.703-.297.961.961 0 0 1-.297-.703c0-.292.099-.531.297-.719A.988.988 0 0 1 12 2.969c.292 0 .531.094.719.281a.973.973 0 0 1 .281.719c0 .27-.094.505-.281.703a.947.947 0 0 1-.719.297ZM14 1c.292 0 .531.089.719.266.187.177.281.411.281.703v12c0 .27-.094.51-.281.719A.924.924 0 0 1 14 15H2a.938.938 0 0 1-.703-.313A1.013 1.013 0 0 1 1 13.97v-12c0-.292.099-.526.297-.703A1.02 1.02 0 0 1 2 1h12Zm0 .969H2v12h12v-12Zm-6 11a4.017 4.017 0 0 1-3.688-2.438C4.104 10.052 4 9.531 4 8.97c0-.563.104-1.084.313-1.563A4.016 4.016 0 0 1 8 4.968c.562 0 1.088.105 1.577.313.49.209.912.495 1.266.86.354.364.635.786.844 1.265.208.48.312 1 .312 1.563 0 .562-.104 1.083-.313 1.562-.208.48-.49.901-.843 1.266a3.837 3.837 0 0 1-1.266.86A3.989 3.989 0 0 1 8 12.968Zm0-7a2.89 2.89 0 0 0-2.125.875A2.893 2.893 0 0 0 5 8.969c0 .833.292 1.541.875 2.125A2.893 2.893 0 0 0 8 11.969c.833 0 1.542-.292 2.125-.875A2.893 2.893 0 0 0 11 8.969c0-.854-.287-1.568-.86-2.14-.572-.574-1.286-.86-2.14-.86Z"/></svg>