<svg xmlns="http://www.w3.org/2000/svg" fill="currentColor" viewBox="0 0 16 16"><path d="M1.973 1.094c.187.02.334.031.438.031h.22c.062.02.28-.167.657-.562C3.643.188 4.248 0 5.104 0c.563 0 1.038.203 1.424.61.387.406.715.89.987 1.453.02-.021.052-.032.094-.032h.187c.105-.02.194-.031.267-.031h.266c.563 0 .986.161 1.268.484.282.323.423.724.423 1.204 0 .52-.21.87-.627 1.046-.417.177-.908.266-1.471.266h-4.79c-1.086 0-1.88-.099-2.38-.297C.25 4.505 0 4.031 0 3.281c0-.437.068-.797.204-1.078a1.99 1.99 0 0 1 .5-.672c.199-.166.413-.281.642-.343.23-.063.439-.094.627-.094Zm4.383 9.375c.313-.709.804-1.308 1.472-1.797.668-.49 1.471-.797 2.41-.922.043-.146.131-.318.267-.516s.36-.296.673-.296c.418-.021.684.088.798.328.115.24.183.421.204.546.814.167 1.54.495 2.176.985.637.49 1.101 1.068 1.393 1.734.167.417.251.688.251.813s-.084.187-.25.187c-.126 0-.303-.026-.533-.078a3.89 3.89 0 0 0-.845-.078c-.042 0-.376.083-1.002.25a1.261 1.261 0 0 1-.658.188c-.146 0-.308-.021-.485-.063a38.34 38.34 0 0 0-.704-.156v2.437c0 .25.036.49.11.719.072.23.265.344.578.344.21 0 .355-.125.439-.375.083-.25.156-.432.219-.547.063-.115.177-.172.344-.172.21 0 .334.094.376.281.042.188.01.427-.094.719-.104.667-.584 1-1.44 1-.355 0-.7-.146-1.034-.438-.334-.291-.5-.802-.5-1.53v-2.407c-.522.083-.867.146-1.034.188h-.062c-.21 0-.465-.068-.767-.204a2.387 2.387 0 0 0-.987-.203c-.313 0-.584.021-.814.063-.23.041-.407.062-.532.062-.167 0-.256-.068-.266-.203-.01-.135.088-.422.297-.86Zm1.033.156a.642.642 0 0 1 .204-.031h.203c.272 0 .815.114 1.629.344.814-.23 1.356-.344 1.628-.344.25 0 .783.114 1.597.344.814-.23 1.346-.344 1.597-.344.27 0 .417.01.438.031-.292-.563-.767-1.026-1.425-1.39-.657-.365-1.393-.547-2.207-.547-.814 0-1.55.177-2.208.53-.657.355-1.142.824-1.456 1.407ZM.751 6l4.415 4.406a1.152 1.152 0 0 0-.078.281c-.01.084-.026.178-.047.282L.031 6h.72Zm1.096 0h.72L5.73 9.188a4.773 4.773 0 0 1-.125.234 4.782 4.782 0 0 0-.126.234L1.847 6Zm2.787 0 2.067 2.094c-.021.02-.063.057-.126.11a4.05 4.05 0 0 0-.25.233L3.914 6h.72Z"/></svg>