<svg xmlns="http://www.w3.org/2000/svg" fill="currentColor" viewBox="0 0 16 16"><path d="M2.5 15h.938c.124-.27.265-.573.421-.906.157-.334.318-.667.485-1 .166-.334.343-.646.531-.938a4.37 4.37 0 0 1 .563-.719 5.95 5.95 0 0 1-2.485-2.171C2.318 8.296 2 7.208 2 6c0-.833.156-1.615.469-2.344A6.02 6.02 0 0 1 3.75 1.75 6.02 6.02 0 0 1 5.656.469 5.886 5.886 0 0 1 8 0a5.88 5.88 0 0 1 2.344.469A6.02 6.02 0 0 1 12.25 1.75a6.017 6.017 0 0 1 1.281 1.906c.313.73.469 1.51.469 2.344 0 1.208-.318 2.297-.953 3.266a5.95 5.95 0 0 1-2.485 2.171c.167.188.344.428.532.72.187.29.37.603.547.937.177.333.343.666.5 1 .156.333.296.635.421.906h.938c.146 0 .266.052.36.156.093.104.14.219.14.344 0 .333-.167.5-.5.5h-11c-.333 0-.5-.167-.5-.5 0-.125.047-.24.14-.344A.462.462 0 0 1 2.5 15ZM8 11c.688 0 1.333-.13 1.938-.39a5.206 5.206 0 0 0 1.593-1.063c.459-.448.818-.98 1.078-1.594A4.94 4.94 0 0 0 13 6c0-.688-.13-1.333-.39-1.938a5.069 5.069 0 0 0-2.672-2.671A4.842 4.842 0 0 0 8 1c-.688 0-1.333.13-1.938.39a5.07 5.07 0 0 0-2.671 2.673A4.831 4.831 0 0 0 3 6a4.957 4.957 0 0 0 1.469 3.547c.458.448.99.802 1.593 1.062.605.26 1.25.391 1.938.391Zm-3 4h6a13.943 13.943 0 0 0-.297-.781 10.76 10.76 0 0 0-.469-1 4.575 4.575 0 0 0-.578-.86C9.448 12.12 9.23 12 9 12H7c-.208 0-.422.12-.64.36-.22.239-.417.525-.594.859a10.85 10.85 0 0 0-.47 1A13.78 13.78 0 0 0 5 15Zm1-9c0-.542.198-1.01.594-1.406A1.922 1.922 0 0 1 8 4c.542 0 1.01.198 1.406.594C9.802 4.99 10 5.458 10 6c0 .563-.198 1.036-.594 1.422A1.948 1.948 0 0 1 8 8c-.542 0-1.01-.193-1.406-.578A1.907 1.907 0 0 1 6 6Z"/></svg>