<svg xmlns="http://www.w3.org/2000/svg" fill="currentColor" viewBox="0 0 16 16"><path d="M.132 3h2.556c.042 0 .083-.02.125-.063L3.842.095C3.883.03 3.925 0 3.966 0c.083 0 .125.031.125.094l1.06 2.844c.041.041.083.062.124.062H7.8c.062 0 .11.031.14.094.031.062.016.104-.046.125L5.899 4.688c-.083.02-.104.062-.063.125L6.927 7.78c.042.125.01.188-.093.188-.042 0-.073-.01-.094-.032L4.06 6h-.156L1.192 7.938l-.062.03c-.104 0-.146-.062-.125-.187l1.091-2.968c.042-.042.031-.084-.031-.125L.07 3.218c-.062-.02-.083-.062-.062-.124C.028 3.03.07 3 .132 3Zm.343 10.531.468-.5 1.683.031 1.122-1.468-3.023-1.406.935-.938 3.24 1.063 1.06-1.094c.125-.146.296-.271.514-.375.219-.104.452-.156.702-.156.207 0 .353.062.436.187a.59.59 0 0 1 .171.39c.01.157-.01.313-.062.47a2.017 2.017 0 0 1-.218.453c-.094.145-.192.26-.296.343l-1.091 1.063 1.122 3.219-.842.874-1.527-2.874L3.28 14l.156 1.531-.498.469-.967-1.5-1.496-.969ZM11.478 4.75c.062.25.135.438.218.563.083.125.24.25.468.375v-1.72c-.603-.166-1.034-.41-1.294-.734a1.72 1.72 0 0 1-.39-1.109c0-.5.156-.89.468-1.172.312-.281.717-.453 1.216-.515V0h.654v.438c1.018.125 1.59.593 1.715 1.406l-1.154.187a.869.869 0 0 0-.56-.687v1.625c.789.208 1.303.453 1.542.734.239.281.358.63.358 1.047 0 .542-.17.98-.514 1.313-.343.333-.805.53-1.387.593v.813h-.654v-.782c-1.06-.125-1.684-.729-1.87-1.812l1.184-.125Zm-.998 9.563V9.5l4.426-1.063v4.657c.021 0 .032.052.032.156.02.02.03.083.03.188.022.02.032.041.032.062 0 .25-.12.495-.358.734-.24.24-.535.36-.889.36a.893.893 0 0 1-.576-.188c-.156-.125-.234-.312-.234-.562 0-.209.114-.427.343-.656.228-.23.488-.344.779-.344v-1.969l-2.805.781v3.156c.02.021.03.084.03.188 0 .23-.124.453-.373.672-.25.219-.55.328-.904.328-.52 0-.78-.219-.78-.656 0-.25.12-.485.36-.703.238-.22.534-.329.887-.329Zm.78-3.47 2.805-.78v-.626l-2.805.813v.594Zm2.337-5.937c0-.375-.26-.635-.779-.781v1.594c.52-.084.78-.354.78-.813Zm-1.433-2.125V1.344a1.824 1.824 0 0 0-.406.265c-.103.094-.155.245-.155.454 0 .208.046.359.14.453a1.4 1.4 0 0 0 .42.265Z"/></svg>