<svg xmlns="http://www.w3.org/2000/svg" fill="currentColor" viewBox="0 0 16 17"><path d="M1 15.016v-13c0-.27.094-.505.281-.703A.946.946 0 0 1 2 1.016h2v-1h.999v1h5.998v-1h1v1h2c.29 0 .53.099.718.297a.988.988 0 0 1 .281.703v13a.973.973 0 0 1-.281.719.973.973 0 0 1-.719.281H2a.973.973 0 0 1-.719-.281.973.973 0 0 1-.281-.719Zm1 0h11.996v-11H2v11Zm1.968-5.5c0-.333.167-.5.5-.5h5.967L8.092 6.891c-.23-.25-.23-.49 0-.719a.478.478 0 0 1 .343-.156c.125 0 .24.052.344.156l2.874 2.594c.188.208.281.448.281.719 0 .27-.093.51-.28.719L8.778 12.89a.477.477 0 0 1-.344.156c-.062 0-.177-.052-.343-.156-.23-.25-.23-.49 0-.719l2.343-2.156H4.468c-.333 0-.5-.167-.5-.5Zm7.03-7.5v1h.999v-1h-1Zm-6.999 0v1h1v-1h-1Z"/></svg>