<svg xmlns="http://www.w3.org/2000/svg" fill="currentColor" viewBox="0 0 16 16"><path d="M0 14V2a.99.99 0 0 1 .125-.5 1.01 1.01 0 0 1 .297-.344C.557 1.052.75 1 1 1h5.625c.146 0 .27.052.375.156L7.75 2H15c.23 0 .417.052.563.156.145.104.25.219.312.344A.99.99 0 0 1 16 3v11c0 .25-.052.443-.156.578a1.01 1.01 0 0 1-.344.297.99.99 0 0 1-.5.125H1a.99.99 0 0 1-.5-.125 1.01 1.01 0 0 1-.344-.297C.052 14.443 0 14.25 0 14Zm1.5-.125A.99.99 0 0 0 2 14h12a.99.99 0 0 0 .5-.125c.125-.063.24-.156.344-.281.104-.125.156-.323.156-.594V4a1.399 1.399 0 0 0-.313-.703C14.521 3.099 14.293 3 14 3H7.219a.511.511 0 0 1-.375-.156l-.688-.688A.511.511 0 0 0 5.781 2H2c-.25 0-.443.052-.578.156a1.01 1.01 0 0 0-.297.344A.99.99 0 0 0 1 3v10c0 .27.052.469.156.594.104.125.219.219.344.281ZM3 11.969c0-.73.068-1.297.203-1.703.136-.407.328-.704.578-.891.25-.188.563-.302.938-.344C5.094 8.99 5.52 8.97 6 8.97c-.542 0-1.01-.193-1.406-.578A1.907 1.907 0 0 1 4 6.969c0-.542.198-1.01.594-1.407A1.922 1.922 0 0 1 6 4.97c.542 0 1.01.198 1.406.593.396.396.594.865.594 1.407 0 .562-.198 1.036-.594 1.422A1.948 1.948 0 0 1 6 8.969c.48 0 .906.02 1.281.062.375.042.688.156.938.344.25.188.442.484.578.89.135.407.203.975.203 1.704H3Zm6-4.5c0-.146.052-.266.156-.36a.503.503 0 0 1 .344-.14h3c.333 0 .5.166.5.5 0 .125-.047.24-.14.343a.462.462 0 0 1-.36.157h-3a.478.478 0 0 1-.344-.157A.478.478 0 0 1 9 7.47Zm.5-2.5h3c.333 0 .5.166.5.5 0 .125-.047.24-.14.343a.462.462 0 0 1-.36.157h-3a.478.478 0 0 1-.344-.157A.478.478 0 0 1 9 5.47c0-.146.052-.266.156-.36a.503.503 0 0 1 .344-.14Z"/></svg>