<svg xmlns="http://www.w3.org/2000/svg" fill="currentColor" viewBox="0 0 16 16"><path d="M8 0c1.104 0 2.146.208 3.125.625.98.417 1.828.984 2.547 1.703a7.979 7.979 0 0 1 1.703 2.547c.417.98.625 2.02.625 3.125 0 1.104-.208 2.14-.625 3.11a8.217 8.217 0 0 1-1.703 2.546 7.853 7.853 0 0 1-2.547 1.719c-.98.417-2.02.625-3.125.625a7.785 7.785 0 0 1-3.11-.625 8.081 8.081 0 0 1-2.546-1.719A8.08 8.08 0 0 1 .625 11.11 7.786 7.786 0 0 1 0 8c0-1.104.208-2.146.625-3.125.417-.98.99-1.828 1.719-2.547A8.214 8.214 0 0 1 4.89.625 7.785 7.785 0 0 1 8 0ZM5 8c0 .354.02.693.063 1.016.041.323.093.65.156.984h5.593a10.83 10.83 0 0 0 0-4H5.22c-.063.313-.115.635-.157.969A8.31 8.31 0 0 0 5 8Zm5.563-3c-.271-.833-.626-1.557-1.063-2.172-.438-.614-.938-1.078-1.5-1.39-.542.312-1.036.776-1.484 1.39-.448.615-.797 1.339-1.047 2.172h5.093Zm-5.094 6c.25.813.599 1.531 1.047 2.156.448.625.942 1.094 1.484 1.406.563-.312 1.063-.78 1.5-1.406A8.326 8.326 0 0 0 10.563 11H5.468ZM1 8c0 .938.104 1.604.313 2h2.875A10.83 10.83 0 0 1 4 8c0-.354.02-.698.063-1.031.041-.334.083-.657.125-.969H1.313C1.103 6.396 1 7.063 1 8Zm13.719 2A6.926 6.926 0 0 0 15 8c0-.708-.094-1.375-.281-2h-2.906a10.83 10.83 0 0 1 0 4h2.906ZM4.438 5c.458-1.646 1.218-2.938 2.28-3.875a6.777 6.777 0 0 0-3 1.344A7.057 7.057 0 0 0 1.689 5h2.75ZM9.28 1.125C10.344 2 11.115 3.292 11.594 5h2.719a7.056 7.056 0 0 0-2.032-2.531 6.776 6.776 0 0 0-3-1.344Zm-2.56 13.75c-1.063-.938-1.834-2.23-2.313-3.875H1.688a6.932 6.932 0 0 0 2.03 2.516 7.17 7.17 0 0 0 3 1.359ZM14.312 11h-2.718c-.48 1.667-1.24 2.958-2.281 3.875a7.05 7.05 0 0 0 2.984-1.36A6.985 6.985 0 0 0 14.312 11Z"/></svg>