<svg xmlns="http://www.w3.org/2000/svg" fill="currentColor" viewBox="0 0 16 16"><path d="M0 16v-4c0-.563.104-1.083.313-1.563A4.016 4.016 0 0 1 4 8h1.5a3.338 3.338 0 0 1-1.36-.28 3.463 3.463 0 0 1-1.109-.766 3.796 3.796 0 0 1-.75-1.125A3.344 3.344 0 0 1 2 4.468c0-.478.094-.926.281-1.343.188-.417.443-.781.766-1.094a3.796 3.796 0 0 1 1.125-.75A3.27 3.27 0 0 1 5.5 1c.48 0 .927.094 1.344.281a3.86 3.86 0 0 1 1.11.75c.322.313.577.677.765 1.094.187.417.281.865.281 1.344 0 .479-.094.932-.281 1.36a3.796 3.796 0 0 1-.75 1.124 3.463 3.463 0 0 1-1.11.766A3.348 3.348 0 0 1 5.5 8H7a3.69 3.69 0 0 1 1.516.313c.468.208.911.49 1.328.843a.444.444 0 0 1 .078.094c.01.02.036.052.078.094.667.791 1 1.677 1 2.656v4H0Zm1-1h1.844l5.031-5.875C7.729 9.042 7.437 9 7 9H4c-.875 0-1.594.281-2.156.844C1.28 10.406 1 11.125 1 12v3Zm9-11V2h2V0h2v2h2v2h-2v2h-2V4h-2Zm-7 .469c0 .708.25 1.302.75 1.781.48.5 1.063.75 1.75.75.667 0 1.23-.214 1.688-.64.458-.428.718-.964.78-1.61L5.469 4H3.064a3.652 3.652 0 0 0-.047.281A1.66 1.66 0 0 0 3 4.47ZM9 9.75V15h1v-3c0-.896-.333-1.646-1-2.25ZM7.844 3.687a2.34 2.34 0 0 0-.89-1.234A2.455 2.455 0 0 0 5.5 2c-.542 0-1.042.167-1.5.5l3.844 1.188Z"/></svg>