<svg xmlns="http://www.w3.org/2000/svg" fill="currentColor" viewBox="0 0 16 16"><path d="M15.679 12.464c.214.238.321.506.321.804 0 .297-.107.553-.321.768l-1.643 1.643a1.028 1.028 0 0 1-.75.321c-.334 0-.607-.107-.822-.321L6.643 9.82c-.548.239-1.167.358-1.857.358-1.12 0-2.107-.316-2.965-.947C.964 8.602.357 7.81 0 6.857h4.214c.334 0 .661-.113.982-.34.322-.225.483-.505.483-.838V4.536c0-.334-.161-.607-.483-.822-.321-.214-.648-.321-.982-.321H0c.357-1 .964-1.816 1.821-2.447C2.68.316 3.667 0 4.786 0a4.78 4.78 0 0 1 1.982.41 5.381 5.381 0 0 1 1.607 1.108 5.064 5.064 0 0 1 1.482 3.59c0 .475-.071.94-.214 1.392l6.036 5.964Zm-.822.822-6.5-6.465.179-.642a3.4 3.4 0 0 0 .143-.572 3.885 3.885 0 0 0-.268-2.036 3.914 3.914 0 0 0-.84-1.25 4.17 4.17 0 0 0-1.25-.857 3.699 3.699 0 0 0-1.535-.321c-1.096 0-2.012.393-2.75 1.178h2.178c.31 0 .62.06.929.179.31.119.59.274.84.464s.452.423.606.697c.155.274.232.565.232.875v1.143c0 .31-.077.6-.232.875a2.854 2.854 0 0 1-1.446 1.232 2.57 2.57 0 0 1-.929.178H2.036c.357.334.774.596 1.25.786.476.19.976.286 1.5.286.404 0 .893-.096 1.464-.286l.679-.286 6.357 6.393 1.571-1.571Z"/></svg>