<svg xmlns="http://www.w3.org/2000/svg" fill="currentColor" viewBox="0 0 16 16"><path d="m5.27 8.73 7.58-7.584A.443.443 0 0 1 13.17 1c.116 0 .223.049.32.146l1.336 1.312c.232.214.232.438 0 .671l-7.581 7.583c-.02.02-.184.078-.494.175-.31.098-.658.195-1.046.292-.426.136-.92.282-1.48.438.038-.098.11-.297.217-.598.106-.302.218-.623.334-.963.116-.34.223-.641.32-.904.096-.262.154-.403.174-.423ZM1 14.066v-11.2a.9.9 0 0 1 .276-.657.891.891 0 0 1 .653-.277h3.718v.934H1.93v11.2h11.154v-3.734h.93v3.734a.91.91 0 0 1-.262.67.902.902 0 0 1-.668.263H1.929a.916.916 0 0 1-.653-.262.885.885 0 0 1-.276-.671Zm5.751-4.171 5.228-5.25-.639-.671-5.286 5.28c-.02.038-.005.096.043.174.049.078.117.156.204.233.087.078.174.141.261.19.087.049.15.063.189.044Zm5.896-5.921 1.191-1.196-.668-.641-1.19 1.166.667.671Z"/></svg>