<svg xmlns="http://www.w3.org/2000/svg" fill="currentColor" viewBox="0 0 16 16"><path d="M1 15h2v1H1.031a1.03 1.03 0 0 1-.734-.281A.947.947 0 0 1 0 15V4l4-4h7c.292 0 .531.099.719.297A.988.988 0 0 1 12 1v3h-1V1H5v3a.947.947 0 0 1-.297.719A.988.988 0 0 1 4 5H1v10Zm14.844-8.813a.478.478 0 0 1 .156.344c0 .125-.052.24-.156.344l-8.125 8.156c-.021.021-.198.084-.532.188a20.33 20.33 0 0 1-1.125.312c-.479.146-1.01.302-1.593.469A56.3 56.3 0 0 1 5 14.469c.146-.375.276-.724.39-1.047.115-.323.183-.495.204-.516l8.156-8.125a.478.478 0 0 1 .344-.156c.125 0 .24.052.344.156l1.406 1.407ZM12.813 8.5l-.688-.688-5.688 5.657.72.687L12.811 8.5Zm1.968-1.969-.687-.687-1.281 1.25.718.718 1.25-1.28Z"/></svg>