<svg xmlns="http://www.w3.org/2000/svg" fill="currentColor" viewBox="0 0 16 16"><path d="M16 0v.594h-1.638v.531h-.535V.594H12.63v.531h-.536V.594H10.93v.531h-.567V.594H9.197v.531H8.63V.594H7.465v.531h-.567V.594H5.732v.531h-.567V.594H4v.531h-.535V.594H2.268v.531h-.536V.594H0V0h16ZM.567 1.719h.567v.562H.567v1.156h.567V4H.567v1.125h.567v.594H.567v1.125h.567v.593H.567v1.125h.567v.594H.567v1.125h.567v.594H.567V12h.567v.563H.567v1.156h.567v.562H.567V16H0V1.125h.567v.594ZM16 3.437 14.96 4.5H16v9.438h-1.04L16 15h-2.142l-1.04-1.063h-6.36L5.417 15h-2.11l1.04-1.063h-1.04V4.5h1.04l-1.04-1.063h2.11L6.457 4.5h6.362l1.04-1.063H16Zm-1.04 8.938V6.062L11.78 9.22l3.18 3.156ZM8.032 5.531l1.607 1.594 1.606-1.594H8.031Zm-3.685.532v6.312l3.182-3.156-3.182-3.156Zm6.898 6.843-1.606-1.594-1.607 1.594h3.213Zm3.181 0L10.71 9.22l3.716-3.688h-2.11L9.638 8.156 6.992 5.531h-2.11L8.598 9.22l-3.716 3.687h2.11l2.646-2.625 2.677 2.625h2.11Z"/></svg>