<svg xmlns="http://www.w3.org/2000/svg" fill="currentColor" viewBox="0 0 16 16"><path d="M1 6.5c0-.75.146-1.458.438-2.125a5.655 5.655 0 0 1 1.187-1.75c.5-.5 1.083-.896 1.75-1.188A5.243 5.243 0 0 1 6.5 1c.75 0 1.458.146 2.125.438.667.291 1.25.687 1.75 1.187s.896 1.083 1.188 1.75C11.854 5.042 12 5.75 12 6.5a5.11 5.11 0 0 1-.266 1.656 6.805 6.805 0 0 1-.703 1.469l3.656 3.688a.907.907 0 0 1 .313.703.907.907 0 0 1-.313.703A.935.935 0 0 1 14 15c-.25 0-.49-.094-.719-.281L9.625 11.03c-.896.647-1.938.97-3.125.97a5.41 5.41 0 0 1-2.125-.422 5.437 5.437 0 0 1-1.75-1.172c-.5-.5-.896-1.083-1.188-1.75A5.32 5.32 0 0 1 1 6.5Zm1 0c0 .625.115 1.214.344 1.766.229.552.547 1.03.953 1.437.406.406.885.724 1.437.953A4.56 4.56 0 0 0 6.5 11a4.446 4.446 0 0 0 3.172-1.297 4.6 4.6 0 0 0 .969-1.437C10.88 7.714 11 7.125 11 6.5s-.12-1.208-.36-1.75a4.652 4.652 0 0 0-.968-1.422A4.651 4.651 0 0 0 8.25 2.36 4.277 4.277 0 0 0 6.5 2c-.625 0-1.214.12-1.766.36a4.6 4.6 0 0 0-1.437.968A4.431 4.431 0 0 0 2 6.5ZM6 6V3.5h1.031V6h2.5v1h-2.5v2.531H6V7H3.5V6H6Z"/></svg>