<svg xmlns="http://www.w3.org/2000/svg" fill="currentColor" viewBox="0 0 16 16"><path d="M10.75 0a.75.75 0 0 1 .75.75V2h.75A2.75 2.75 0 0 1 15 4.75v8.5A2.75 2.75 0 0 1 12.25 16h-8.5A2.75 2.75 0 0 1 1 13.25v-8.5A2.75 2.75 0 0 1 3.75 2H4V.75a.75.75 0 0 1 1.5 0V2H10V.75a.75.75 0 0 1 .75-.75Zm-7 3.5c-.69 0-1.25.56-1.25 1.25v8.5c0 .69.56 1.25 1.25 1.25h8.5c.69 0 1.25-.56 1.25-1.25v-8.5c0-.69-.56-1.25-1.25-1.25h-.75v.75a.75.75 0 0 1-1.5 0V3.5H5.5v.75a.75.75 0 0 1-1.5 0V3.5h-.25ZM8.255 10a.75.75 0 0 1 0 1.5H4.75a.75.75 0 0 1 0-1.5h3.505Zm2.995-2.5a.75.75 0 0 1 0 1.5h-4.5a.75.75 0 0 1 0-1.5h4.5Z"/></svg>