<svg xmlns="http://www.w3.org/2000/svg" fill="currentColor" viewBox="0 0 16 16"><path d="M12.25 1A2.75 2.75 0 0 1 15 3.75v8.5A2.75 2.75 0 0 1 12.25 15h-8.5A2.75 2.75 0 0 1 1 12.25v-8.5A2.75 2.75 0 0 1 3.75 1h8.5Zm-8.5 1.5c-.69 0-1.25.56-1.25 1.25v8.5c0 .69.56 1.25 1.25 1.25h8.5c.69 0 1.25-.56 1.25-1.25v-8.5c0-.69-.56-1.25-1.25-1.25h-8.5Zm5.706 1.144c.47 0 .85.38.85.85v1.235h1.096c.47 0 .85.38.85.85v2.842c0 .47-.38.85-.85.85h-1.096v1.235c0 .47-.38.85-.85.85H6.562a.85.85 0 0 1-.85-.85V10.27H4.598a.85.85 0 0 1-.85-.85V6.58c0-.47.38-.85.85-.85h1.114V4.492c0-.469.38-.85.85-.85h2.894ZM7.212 6.379c0 .47-.38.85-.85.85H5.248v1.542h1.114c.47 0 .85.38.85.85v1.235h1.594V9.62c0-.47.381-.85.85-.85h1.096V7.23H9.656a.851.851 0 0 1-.85-.851V5.144H7.212v1.235Z"/></svg>