<svg xmlns="http://www.w3.org/2000/svg" fill="currentColor" viewBox="0 0 16 16"><path d="M15.247 14.5a.75.75 0 0 1 0 1.5H10.75a.75.75 0 0 1 0-1.5h4.497ZM5.93 0a4 4 0 0 1 2.678 6.97c.081.037.163.074.244.117a.75.75 0 0 1-.702 1.326C7.415 8.025 6.61 8 5.798 8 3.418 8 1.5 9.911 1.5 12.25v.25h5.75a.75.75 0 0 1 0 1.5H.75a.75.75 0 0 1-.75-.75v-1c0-2.305 1.367-4.287 3.335-5.205A4 4 0 0 1 5.929 0Zm9.321 12a.75.75 0 0 1 0 1.5h-4.5a.75.75 0 0 1 0-1.5h4.5Zm0-2.5a.75.75 0 0 1 0 1.5h-4.5a.75.75 0 0 1 0-1.5h4.5Zm-9.321-8a2.5 2.5 0 1 0 0 5 2.5 2.5 0 0 0 0-5Z"/></svg>