<svg xmlns="http://www.w3.org/2000/svg" fill="currentColor" viewBox="0 0 16 16"><path d="M8.549 0a1.757 1.757 0 0 1 1.568 1.49l.121.805a.251.251 0 0 0 .123.18l1.238.715a.252.252 0 0 0 .217.017l.755-.298a1.75 1.75 0 0 1 2.156.754v.001l.387.673a1.75 1.75 0 0 1-.423 2.244l-.617.49a.251.251 0 0 0-.094.196v1.465c0 .076.035.148.094.196l.616.49c.677.54.858 1.495.425 2.245l-.387.673h-.001a1.75 1.75 0 0 1-2.155.755l-.757-.298a.251.251 0 0 0-.217.016l-1.238.715a.251.251 0 0 0-.122.18l-.12.806A1.75 1.75 0 0 1 8.387 16H7.61a1.75 1.75 0 0 1-1.698-1.333l-.16-1.013a.25.25 0 0 0-.122-.18l-1.184-.684a.251.251 0 0 0-.216-.016l-.803.317a1.75 1.75 0 0 1-2.156-.754l-.387-.675-.001.001a1.753 1.753 0 0 1 .425-2.244l.695-.555A.25.25 0 0 0 2.1 8.67V7.33a.25.25 0 0 0-.095-.195L1.31 6.58a1.753 1.753 0 0 1-.425-2.244l.388-.674a1.75 1.75 0 0 1 2.156-.754l.802.317c.07.027.15.02.216-.017l1.185-.685a.25.25 0 0 0 .122-.18l.16-1.011A1.75 1.75 0 0 1 7.611 0h.938Zm-.982 1.504a.25.25 0 0 0-.19.164l-.14.9a1.75 1.75 0 0 1-.855 1.255l-1.185.685a1.752 1.752 0 0 1-1.516.113l-.803-.315a.25.25 0 0 0-.307.107l-.388.673a.253.253 0 0 0 .06.321l.696.555c.416.332.66.835.66 1.368v1.34a1.75 1.75 0 0 1-.66 1.368l-.695.555a.251.251 0 0 0-.061.321l.387.674a.25.25 0 0 0 .308.107l.802-.315a1.752 1.752 0 0 1 1.517.112l1.185.685c.461.266.775.729.854 1.256l.14.9a.25.25 0 0 0 .235.168h.777a.25.25 0 0 0 .246-.213l.121-.806a1.75 1.75 0 0 1 .855-1.255l1.238-.716a1.751 1.751 0 0 1 1.516-.114l.757.298c.1.04.213.01.28-.07l.415-.71a.25.25 0 0 0-.06-.321l-.617-.492a1.751 1.751 0 0 1-.66-1.369V7.267c0-.533.244-1.037.66-1.369l.616-.49a.25.25 0 0 0 .06-.321l-.387-.675a.249.249 0 0 0-.307-.106l-.758.297a1.75 1.75 0 0 1-1.515-.114L9.61 3.773a1.75 1.75 0 0 1-.855-1.255l-.121-.805a.25.25 0 0 0-.201-.21h-.866ZM8 5a3 3 0 1 1 0 6 3 3 0 0 1 0-6Zm0 1.5a1.5 1.5 0 1 0 0 3 1.5 1.5 0 0 0 0-3Z"/></svg>