<svg xmlns="http://www.w3.org/2000/svg" fill="currentColor" viewBox="0 0 16 16"><path d="M8.25 1a.75.75 0 0 1 0 1.5h-4.5c-.69 0-1.25.56-1.25 1.25v8.5c0 .69.56 1.25 1.25 1.25h8.5c.69 0 1.25-.56 1.25-1.25v-1.48a.75.75 0 0 1 1.5 0v1.481A2.75 2.75 0 0 1 12.25 15h-8.5A2.75 2.75 0 0 1 1 12.25v-8.5A2.75 2.75 0 0 1 3.75 1h4.5Zm2.94-.76A.75.75 0 0 1 12.25.2l3.5 3.249c.315.292.34.774.001 1.098l-3.5 3.253a.751.751 0 0 1-1.021-1.1l2.098-1.95H12c-1.246 0-2.023.479-2.509 1.108-.507.657-.741 1.541-.741 2.373v2.025a.75.75 0 0 1-1.5 0V8.231c0-1.078.297-2.31 1.054-3.29.779-1.01 2.001-1.69 3.696-1.69h1.332L11.23 1.3a.75.75 0 0 1-.04-1.06Z"/></svg>