<svg xmlns="http://www.w3.org/2000/svg" fill="currentColor" viewBox="0 0 16 16"><path d="M8.25 0C9.216 0 10 .784 10 1.75V2h1.25c.966 0 1.75.784 1.75 1.75v4.5a.75.75 0 0 1-1.5 0v-4.5a.25.25 0 0 0-.25-.25H9.98A1.749 1.749 0 0 1 8.25 5h-2.5a1.749 1.749 0 0 1-1.73-1.5H2.75a.25.25 0 0 0-.25.25v10.5c0 .138.112.25.25.25H6.5a.75.75 0 0 1 0 1.5H2.75A1.75 1.75 0 0 1 1 14.25V3.75C1 2.784 1.784 2 2.75 2H4v-.25C4 .784 4.784 0 5.75 0h2.5Zm5.43 11.262a.75.75 0 0 1 1.14.976l-3 3.5a.75.75 0 0 1-1.1.042l-1.5-1.5a.75.75 0 1 1 1.06-1.06l.927.926 2.474-2.884ZM5.75 1.5a.25.25 0 0 0-.25.25v1.5c0 .138.112.25.25.25h2.5a.25.25 0 0 0 .25-.25v-1.5a.25.25 0 0 0-.25-.25h-2.5Z"/></svg>