<svg xmlns="http://www.w3.org/2000/svg" fill="currentColor" viewBox="0 0 16 16"><path d="M8.75 0c.966 0 1.75.784 1.75 1.75V2h1.25c.966 0 1.75.784 1.75 1.75v2.5a.75.75 0 0 1-1.5 0v-2.5a.25.25 0 0 0-.25-.25h-1.27A1.749 1.749 0 0 1 8.75 5h-2.5a1.749 1.749 0 0 1-1.73-1.5H3.25a.25.25 0 0 0-.25.25v10.5c0 .138.112.25.25.25h4.875a.75.75 0 0 1 0 1.5H3.25a1.75 1.75 0 0 1-1.75-1.75V3.75C1.5 2.784 2.284 2 3.25 2H4.5v-.25C4.5.784 5.284 0 6.25 0h2.5Zm4.75 13a2.5 2.5 0 0 1 2.5 2.5.5.5 0 0 1-.5.5h-4a.494.494 0 0 1-.5-.5 2.5 2.5 0 0 1 2.5-2.5Zm0-4a1.5 1.5 0 1 1 0 3 1.5 1.5 0 0 1 0-3ZM6.25 1.5a.25.25 0 0 0-.25.25v1.5c0 .138.112.25.25.25h2.5A.25.25 0 0 0 9 3.25v-1.5a.25.25 0 0 0-.25-.25h-2.5Z"/></svg>