<svg xmlns="http://www.w3.org/2000/svg" fill="currentColor" viewBox="0 0 16 16"><path d="M5.814 7.543a.75.75 0 0 1 1.004.05l1.586 1.585c.29.289.29.77.001 1.06L2.867 15.78a.75.75 0 0 1-.53.22H.75a.75.75 0 0 1-.75-.75v-1.583c0-.199.08-.39.22-.53l5.594-5.594ZM13 9.5a.75.75 0 0 1 .735.602l.277 1.385 1.386.278a.75.75 0 0 1 0 1.47l-1.386.277-.277 1.386a.75.75 0 0 1-1.47 0l-.278-1.386-1.385-.277a.75.75 0 0 1 0-1.47l1.385-.278.278-1.385A.745.745 0 0 1 13 9.5ZM1.5 13.977v.523h.526l4.787-4.792-.525-.523L1.5 13.977Zm7.568-8.758 1.586 1.584a.75.75 0 0 1 .002 1.06l-.788.791a.75.75 0 0 1-1.061.002L7.22 7.072a.75.75 0 0 1-.002-1.06l.902-.885c.266-.201.7-.154.947.092ZM3.5 0a.75.75 0 0 1 .735.603l.277 1.384 1.385.278a.75.75 0 0 1 0 1.47l-1.385.277-.277 1.385a.75.75 0 0 1-1.47 0l-.278-1.385-1.384-.277a.75.75 0 0 1 0-1.47l1.384-.278.278-1.384A.727.727 0 0 1 3.5 0ZM13 0a.75.75 0 0 1 .735.603l.277 1.384 1.386.278a.75.75 0 0 1 0 1.47l-1.386.277-.277 1.385a.75.75 0 0 1-1.47 0l-.278-1.385-1.385-.277a.75.75 0 0 1 0-1.47l1.385-.278.278-1.384C12.332.219 12.623 0 13 0Z"/></svg>