<svg xmlns="http://www.w3.org/2000/svg" fill="currentColor" viewBox="0 0 16 16"><path d="M8.25 0C9.216 0 10 .784 10 1.75V2h1.25c.966 0 1.75.784 1.75 1.75v1.5a.75.75 0 0 1-1.5 0v-1.5a.25.25 0 0 0-.25-.25H9.98A1.749 1.749 0 0 1 8.25 5h-2.5a1.749 1.749 0 0 1-1.73-1.5H2.75a.25.25 0 0 0-.25.25v10.5c0 .138.112.25.25.25h2.5a.75.75 0 0 1 0 1.5h-2.5A1.75 1.75 0 0 1 1 14.25V3.75C1 2.784 1.784 2 2.75 2H4v-.25C4 .784 4.784 0 5.75 0h2.5ZM12 8a4 4 0 1 1 0 8 4 4 0 0 1 0-8Zm0 1.5a2.5 2.5 0 1 0 0 5 2.5 2.5 0 0 0 0-5Zm0 1.5a1 1 0 1 1 0 2 1 1 0 0 1 0-2ZM5.75 1.5a.25.25 0 0 0-.25.25v1.5c0 .138.112.25.25.25h2.5a.25.25 0 0 0 .25-.25v-1.5a.25.25 0 0 0-.25-.25h-2.5Z"/></svg>