<svg xmlns="http://www.w3.org/2000/svg" fill="currentColor" viewBox="0 0 16 16"><path d="M8.825.02a.752.752 0 0 1 .569.091l3.25 2a.75.75 0 0 1 .356.64v3.5a.75.75 0 0 1-1.5 0V3.81l-6 2.444v7.858l.704-.301a.75.75 0 0 1 .592 1.379l-1.75.75A.752.752 0 0 1 4 15.25v-9.5a.75.75 0 0 1 .467-.694l6.076-2.476-1.628-1.002L1.5 4.275v9.975a.75.75 0 0 1-1.5 0V3.75a.75.75 0 0 1 .494-.705L8.825.021ZM12.5 9a.75.75 0 0 1 .75.75v2h2a.75.75 0 0 1 0 1.5h-2v2a.75.75 0 0 1-1.5 0v-2h-2a.75.75 0 0 1 0-1.5h2v-2A.75.75 0 0 1 12.5 9Z"/></svg>