<svg xmlns="http://www.w3.org/2000/svg" fill="currentColor" viewBox="0 0 16 16"><path d="M12.499 8.997a.75.75 0 0 1 .75.75v2.001l2.078.004a.75.75 0 0 1 0 1.493l-2.078.004v2a.75.75 0 1 1-1.5 0v-2H9.748a.75.75 0 0 1 0-1.501h2v-2a.75.75 0 0 1 .75-.751ZM8.68.435l2.072 4.607 4.571.457c.617.062.895.838.456 1.277l-1 1c-.621.622-1.636-.21-1.16-.94l-3.446-.344a.75.75 0 0 1-.61-.439L7.997 2.57 6.43 6.053a.75.75 0 0 1-.61.439l-3.494.348 2.468 2.645a.751.751 0 0 1 .189.653l-.71 3.721 2.624-1.38c.857-.45 1.556.878.7 1.329l-4.002 2.106c-.545.287-1.201-.2-1.086-.805l.93-4.878L.196 6.757C-.22 6.312.064 5.56.67 5.5l4.57-.457L7.365.338c.315-.491 1.076-.437 1.316.097Z"/></svg>