<svg xmlns="http://www.w3.org/2000/svg" fill="currentColor" viewBox="0 0 16 16"><path d="M12.5 9a.75.75 0 0 1 .75.75v2l2.077.004a.75.75 0 0 1 0 1.492l-2.077.004v2a.75.75 0 0 1-1.5 0v-2h-2a.75.75 0 0 1 0-1.5h2v-2A.75.75 0 0 1 12.5 9ZM.2.24A.75.75 0 0 1 1.26.2l3.5 3.249a.757.757 0 0 1 0 1.098L1.26 7.8A.751.751 0 0 1 .24 6.7l2.908-2.703L.24 1.3A.75.75 0 0 1 .2.24Zm4 0A.75.75 0 0 1 5.26.2l3.5 3.249a.757.757 0 0 1 0 1.098L5.26 7.8a.751.751 0 0 1-1.02-1.1l2.908-2.703L4.24 1.3A.75.75 0 0 1 4.2.24Zm4 0A.75.75 0 0 1 9.26.2l3.5 3.249a.757.757 0 0 1 .001 1.098L9.261 7.8a.751.751 0 0 1-1.022-1.1l2.909-2.703L8.24 1.3A.75.75 0 0 1 8.2.24Z"/></svg>