<svg xmlns="http://www.w3.org/2000/svg" fill="currentColor" viewBox="0 0 16 16"><path d="M7.25 1a.75.75 0 0 1 0 1.5H5.875L4.66 4.12a.95.95 0 0 1-.76.38H1.75a.25.25 0 0 0-.25.25v7.5c0 .138.112.25.25.25h1.5a.75.75 0 0 1 0 1.5h-1.5A1.75 1.75 0 0 1 0 12.25v-7.5C0 3.784.784 3 1.75 3h1.875l1.22-1.612A1.25 1.25 0 0 1 5.75 1h1.5ZM8 6a4 4 0 1 1 0 8 4 4 0 0 1 0-8Zm7.25 1.602a.75.75 0 0 1 .75.75v3.898A1.75 1.75 0 0 1 14.25 14h-1.502a.75.75 0 0 1 0-1.5h1.502a.25.25 0 0 0 .25-.25V8.352a.75.75 0 0 1 .75-.75ZM8 7.5a2.5 2.5 0 1 0 0 5 2.5 2.5 0 0 0 0-5ZM3.5 5.75a.75.75 0 1 1 0 1.5.75.75 0 0 1 0-1.5Zm9-5.75a.75.75 0 0 1 .75.75v2l2.077.004a.75.75 0 0 1 0 1.492l-2.077.004v2a.75.75 0 0 1-1.5 0v-2h-2a.75.75 0 0 1 0-1.5h2v-2A.75.75 0 0 1 12.5 0Z"/></svg>