<svg xmlns="http://www.w3.org/2000/svg" fill="currentColor" viewBox="0 0 16 16"><path d="M4.51 0a4.47 4.47 0 0 1 4.51 4.51c0 .407-.052.798-.15 1.17l6.617 6.617a1.754 1.754 0 0 1 0 2.48l-.71.71a1.754 1.754 0 0 1-2.48 0L5.684 8.87a4.64 4.64 0 0 1-1.173.15A4.47 4.47 0 0 1 0 4.511c0-.654.092-1.347.426-1.92a.76.76 0 0 1 1.155-.114l1.725 1.718.895-.89-1.724-1.723A.76.76 0 0 1 2.68.375C3.265.088 3.917 0 4.51 0Zm3.686 7.133c-.29.412-.65.772-1.062 1.063l6.226 6.227a.25.25 0 0 0 .355 0l.709-.71a.251.251 0 0 0 0-.353L8.196 7.133ZM5.797 2.776a.774.774 0 0 1 0 1.064L3.836 5.79a.751.751 0 0 1-1.06 0L1.503 4.52c.005 1.69 1.318 2.998 3.007 2.998 1.693 0 3.007-1.314 3.007-3.007 0-1.688-1.306-3-2.992-3.007l1.272 1.272ZM12.78.251c.415 0 .752.336.752.751v1.504h1.503a.752.752 0 0 1 0 1.503h-1.503v1.504a.752.752 0 1 1-1.504 0V4.009h-1.503a.752.752 0 0 1 0-1.503h1.503V1.002c0-.415.337-.751.752-.751Z"/></svg>