<svg xmlns="http://www.w3.org/2000/svg" fill="currentColor" viewBox="0 0 16 16"><path d="M10.21 1C13.46 1 16 3.519 16 6.745c0 2.32-1.425 4.373-2.718 5.775a16.607 16.607 0 0 1-2.646 2.336.72.72 0 0 1-.758.053c-.699-.413-1.308-.989-1.905-1.532-.515.49-1.215 1.158-1.82 1.501-.256.177-.539.154-.796-.021-.61-.455-2.004-1.641-2.644-2.336C1.423 11.119 0 9.066 0 6.743 0 3.523 2.54 1 5.78 1a5.87 5.87 0 0 1 2.25.438A5.414 5.414 0 0 1 10.21 1ZM5.78 2.499c-2.42 0-4.28 1.86-4.28 4.244 0 1.74 1.093 3.434 2.317 4.764a16.375 16.375 0 0 0 1.96 1.796c.45-.354 1.195-.985 1.933-1.797C8.92 10.176 10 8.481 10 6.743c0-2.405-1.811-4.244-4.22-4.244Zm4.43 0c-.17 0-.335.01-.494.027C10.825 3.568 11.5 5.06 11.5 6.743c0 2.198-1.267 4.159-2.486 5.553.47.425.899.774 1.2 1.008a16.433 16.433 0 0 0 1.965-1.799c1.227-1.33 2.321-3.024 2.321-4.76 0-2.389-1.86-4.246-4.29-4.246ZM5.68 3.992c1.498 0 2.66 1.17 2.66 2.67S7.19 9.334 5.68 9.334c-1.498 0-2.66-1.17-2.66-2.67s1.162-2.67 2.66-2.67Zm0 1.5c-.662 0-1.16.49-1.16 1.17 0 .681.498 1.173 1.16 1.173.67 0 1.16-.489 1.16-1.172 0-.68-.498-1.172-1.16-1.172Z"/></svg>