<svg xmlns="http://www.w3.org/2000/svg" fill="currentColor" viewBox="0 0 16 16"><path d="M4.774 5.518c.23-.69 1.222-.69 1.452 0 .811 2.38 1.873 3.441 4.256 4.252.69.24.69 1.23 0 1.46-2.383.811-3.445 1.871-4.256 4.253-.23.69-1.222.69-1.452 0C3.963 13.1 2.9 12.04.518 11.23c-.69-.24-.69-1.231 0-1.461 2.383-.81 3.445-1.871 4.256-4.252Zm7.83-5.234a.417.417 0 0 1 .791 0c.44 1.298 1.02 1.877 2.32 2.317.38.13.38.669 0 .799-1.3.439-1.88 1.018-2.32 2.316a.417.417 0 0 1-.79 0c-.44-1.298-1.02-1.877-2.32-2.316a.423.423 0 0 1 0-.8c1.3-.439 1.88-1.018 2.32-2.316Z"/></svg>