<svg xmlns="http://www.w3.org/2000/svg" fill="currentColor" viewBox="0 0 16 16"><path d="M1 11a1 1 0 1 1 0 2 1 1 0 0 1 0-2Zm7.25.5a.75.75 0 0 1 0 1.5h-3.5a.75.75 0 0 1 0-1.5h3.5ZM12 11a1 1 0 1 1 0 2 1 1 0 0 1 0-2ZM4.25 7.5a.75.75 0 0 1 0 1.5H.75a.75.75 0 0 1 0-1.5h3.5ZM7 7a1 1 0 1 1 0 2 1 1 0 0 1 0-2Zm8.25.5a.75.75 0 0 1 0 1.5h-4.5a.75.75 0 0 1 0-1.5h4.5ZM1 3a1 1 0 1 1 0 2 1 1 0 0 1 0-2Zm5.25.5a.75.75 0 0 1 0 1.5h-2.5a.75.75 0 0 1 0-1.5h2.5ZM10 3a1 1 0 1 1 0 2 1 1 0 0 1 0-2Zm3 0a1 1 0 1 1 0 2 1 1 0 0 1 0-2Z"/></svg>