<svg xmlns="http://www.w3.org/2000/svg" fill="currentColor" viewBox="0 0 16 16"><path d="M9.25 13.007c.623 0 .975.752.576 1.23l-1.25 1.502a.758.758 0 0 1-1.152 0l-1.25-1.501c-.402-.483-.047-1.231.576-1.231h2.5Zm6.104-8.998a.757.757 0 0 1 .512 1.17l-3.685 5.326h3.069a.75.75 0 0 1 0 1.501h-4.5c-.593 0-.954-.69-.616-1.177l3.685-5.326H10.75a.75.75 0 0 1 0-1.501l4.604.007ZM4.67 4.417l3.25 6.504a.75.75 0 0 1-1.342.67l-.793-1.586H2.214l-.793 1.586a.75.75 0 1 1-1.342-.67l3.25-6.504c.271-.542 1.07-.542 1.342 0ZM2.964 8.504h2.072L4 6.43 2.964 8.504ZM8.576.27l1.25 1.5c.399.48.047 1.232-.576 1.232h-2.5c-.623 0-.976-.751-.576-1.232l1.25-1.5a.758.758 0 0 1 1.152 0Z"/></svg>