<svg xmlns="http://www.w3.org/2000/svg" fill="currentColor" viewBox="0 0 16 16"><path d="M7.995 0A7.97 7.97 0 0 1 16 8c0 1.264-.207 2.255-.69 2.945-.522.745-1.28 1.026-2.07 1.026-.967 0-1.816-.487-2.263-1.343a3.968 3.968 0 0 1-2.972 1.343C5.823 11.97 4.03 10.18 4.03 8c0-2.182 1.792-3.97 3.974-3.97a3.95 3.95 0 0 1 2.473.87c0-.551.336-.87.75-.87a.75.75 0 0 1 .75.75V8c0 1.648.226 1.809.42 2.086.37.529 1.313.529 1.683 0 .222-.317.419-.937.419-2.086 0-3.614-2.887-6.5-6.505-6.5A6.463 6.463 0 0 0 1.5 8c0 3.614 2.887 6.5 6.505 6.5 1.373 0 2.599-.432 3.627-1.093a.75.75 0 0 1 .81 1.262C11.207 15.462 9.704 16 8.005 16A7.971 7.971 0 0 1 0 8c0-4.442 3.548-8 7.995-8Zm.01 5.53A2.488 2.488 0 0 0 5.53 8c0 1.352 1.12 2.47 2.474 2.47A2.481 2.481 0 0 0 10.478 8a2.488 2.488 0 0 0-2.473-2.47Z"/></svg>