<svg xmlns="http://www.w3.org/2000/svg" fill="currentColor" viewBox="0 0 16 16"><path d="M11.25 0C12.216 0 13 .784 13 1.75v5.5a.75.75 0 0 1-1.5 0v-5.5a.25.25 0 0 0-.25-.25H6.71a.25.25 0 0 0-.19.087L6 2.193V5.25a.75.75 0 0 1-.75.75H2.738c-.089.104-.238.37-.238.37v7.88c0 .138.112.25.25.25h.5a.75.75 0 0 1 0 1.5h-.5A1.75 1.75 0 0 1 1 14.25V6.37c0-.417.15-.821.42-1.139L5.38.611A1.751 1.751 0 0 1 6.71 0h4.54ZM8.748 10.192a.75.75 0 0 1 1.004 1.116L7.872 13l1.88 1.692a.75.75 0 0 1-1.004 1.116l-2.5-2.25a.758.758 0 0 1 0-1.116l2.5-2.25Zm3.444.056a.75.75 0 0 1 1.06-.056l2.5 2.25a.758.758 0 0 1 0 1.116l-2.5 2.25a.75.75 0 0 1-1.004-1.116L14.128 13l-1.88-1.692a.75.75 0 0 1-.056-1.06Z"/></svg>