<svg xmlns="http://www.w3.org/2000/svg" fill="currentColor" viewBox="0 0 16 16"><path d="M11.666 0c.854 0 1.751.302 2.37.978.62.665.964 1.52.964 2.433 0 .85-.3 1.735-.96 2.36l.001.001-5.133 5.294-.004.004c-.783.796-1.587.989-2.259.874-.387-.066-.776-.235-1.062-.51-.281-.272-.46-.672-.532-1.05-.134-.695.072-1.517.913-2.309L9.728 4.26a.75.75 0 0 1 1.068 1.053L7.012 9.148c-.217.22-.71.87-.343 1.234.407.274.858-.077 1.167-.364l5.128-5.29c.354-.366.536-.803.536-1.317 0-.543-.202-1.007-.558-1.407-.276-.31-.74-.504-1.276-.504-.533 0-1.043.192-1.379.531-.41.415-2.035 2.043-3.556 3.562-.98.979-1.95 1.968-2.94 2.936l-.001.001-.005.006c-1.152 1.126-1.368 2.173-1.26 3.003.113.877.603 1.621 1.019 2.041a3.415 3.415 0 0 0 1.937.905c1.171.127 2.203-.475 3.006-1.278l5.242-5a.75.75 0 0 1 1.036 1.086l-5.243 5v-.001c-1.41 1.419-2.898 1.826-4.203 1.685-1.08-.117-2.053-.61-2.841-1.342-.58-.587-1.274-1.618-1.44-2.904-.173-1.33.233-2.833 1.692-4.262l.004-.004c.98-.977 1.959-1.956 2.938-2.934C7.195 3.01 8.815 1.388 9.22.978 9.88.31 10.798 0 11.666 0Z"/></svg>