<svg xmlns="http://www.w3.org/2000/svg" fill="currentColor" viewBox="0 0 16 16"><path d="M11.25 0C12.216 0 13 .784 13 1.75v2.5a.75.75 0 0 1-1.5 0v-2.5a.25.25 0 0 0-.25-.25H6.71a.25.25 0 0 0-.19.087L6 2.193V5.25a.75.75 0 0 1-.75.75H2.738c-.089.104-.238.37-.238.37v7.88c0 .138.112.25.25.25h1.5a.75.75 0 0 1 0 1.5h-1.5A1.75 1.75 0 0 1 1 14.25V6.37c0-.417.15-.821.42-1.139L5.38.611A1.751 1.751 0 0 1 6.71 0h4.54Zm.294 7.154a.75.75 0 0 1 1.048.135l1.75 2.25a.75.75 0 0 1-.131 1.053l-2.25 1.75a.75.75 0 0 1-.922-1.184l1.658-1.29-.833-1.07-3.063 2.342 2.339 3.058 3.654-2.794a.75.75 0 0 1 .912 1.192l-4.25 3.25a.75.75 0 0 1-1.052-.14l-3.25-4.25a.75.75 0 0 1 .14-1.052l4.25-3.25Z"/></svg>