<svg xmlns="http://www.w3.org/2000/svg" fill="currentColor" viewBox="0 0 16 16"><path d="M12.25 0C13.216 0 14 .784 14 1.75v12.5A1.75 1.75 0 0 1 12.25 16h-8.5A1.75 1.75 0 0 1 2 14.25V6.37c0-.417.15-.821.42-1.139L6.38.611A1.751 1.751 0 0 1 7.71 0h4.54ZM7.71 1.5a.25.25 0 0 0-.19.087L7 2.193V5.25a.75.75 0 0 1-.75.75H3.738c-.089.104-.238.37-.238.37v5.219l1.848-1.472a.758.758 0 0 1 1.053.26l1.62 2.835 1.944-1.155a.75.75 0 0 1 .735.093l1.8 1.35V1.75a.25.25 0 0 0-.25-.25H7.71ZM9.75 7a1.25 1.25 0 1 1 0 2.5 1.25 1.25 0 0 1 0-2.5Z"/></svg>