<svg xmlns="http://www.w3.org/2000/svg" fill="currentColor" viewBox="0 0 16 16"><path d="M8 2a7 7 0 1 1 0 14A7 7 0 0 1 8 2Zm0 1.5a5.5 5.5 0 1 0 0 11 5.5 5.5 0 0 0 0-11ZM7.75 5a.75.75 0 0 1 .75.75v2.898l1.23 1.026a.75.75 0 0 1-.96 1.152l-1.5-1.25A.75.75 0 0 1 7 9V5.75A.75.75 0 0 1 7.75 5ZM2.834.126a.75.75 0 0 1 .832 1.248 8.264 8.264 0 0 0-2.292 2.292.75.75 0 1 1-1.248-.832A9.764 9.764 0 0 1 2.834.126Zm9.292.208a.75.75 0 0 1 1.04-.208 9.766 9.766 0 0 1 2.708 2.708.75.75 0 1 1-1.248.832 8.264 8.264 0 0 0-2.292-2.292.75.75 0 0 1-.208-1.04Z"/></svg>