<svg xmlns="http://www.w3.org/2000/svg" fill="currentColor" viewBox="0 0 16 16"><path d="M12.25 1A2.75 2.75 0 0 1 15 3.75v8.5A2.75 2.75 0 0 1 12.25 15h-8.5A2.75 2.75 0 0 1 1 12.25v-8.5A2.75 2.75 0 0 1 3.75 1h8.5ZM8.57 11.738a.75.75 0 0 1-1.02.112l-1.46-1.097-2.547 2.727c.067.012.136.02.207.02h8.5c.69 0 1.25-.56 1.25-1.25V9.955a.753.753 0 0 1-.108-.047L11.175 8.7 8.57 11.74ZM3.75 2.5c-.69 0-1.25.56-1.25 1.25v8.5c0 .048.003.096.009.143l3.049-3.248a.751.751 0 0 1 .893.005l1.439 1.08 2.635-3.058a.75.75 0 0 1 .836-.08L13.5 8.26V3.75c0-.69-.56-1.25-1.25-1.25h-8.5ZM5.251 4a1.25 1.25 0 1 1 0 2.5 1.25 1.25 0 0 1 0-2.5Z"/></svg>