<svg xmlns="http://www.w3.org/2000/svg" fill="currentColor" viewBox="0 0 16 16"><path d="M2.25 11a.75.75 0 0 1 .75.75v2.5a.75.75 0 0 1-.75.75h-.5a.75.75 0 0 1-.75-.75v-2.5a.75.75 0 0 1 .75-.75h.5Zm4-6a.75.75 0 0 1 .75.75v8.5a.75.75 0 0 1-.75.75h-.5a.75.75 0 0 1-.75-.75v-8.5A.75.75 0 0 1 5.75 5h.5Zm8-4a.75.75 0 0 1 .75.75v12.5a.75.75 0 0 1-.75.75h-.5a.75.75 0 0 1-.75-.75V1.75a.75.75 0 0 1 .75-.75h.5Zm-4 6a.75.75 0 0 1 .75.75v6.451a.75.75 0 0 1-.75.75h-.5a.75.75 0 0 1-.75-.75V7.75A.75.75 0 0 1 9.75 7h.5Z"/></svg>