<svg xmlns="http://www.w3.org/2000/svg" fill="currentColor" viewBox="0 0 16 16"><path d="M.75 10a.75.75 0 0 1 .75.75v2.5c0 .138.112.25.25.25h2.5a.75.75 0 0 1 0 1.5h-2.5A1.75 1.75 0 0 1 0 13.25v-2.5A.75.75 0 0 1 .75 10Zm14.5 0a.75.75 0 0 1 .75.75v2.5A1.75 1.75 0 0 1 14.25 15h-2.5a.75.75 0 0 1 0-1.5h2.5a.25.25 0 0 0 .25-.25v-2.5a.75.75 0 0 1 .75-.75ZM7 12H5V4h2v8Zm-3-1H2.5V5H4v6Zm5 0H8V5h1v6Zm2 0h-1V5h1v6Zm2.5 0H12V5h1.5v6ZM4.25 1a.75.75 0 0 1 0 1.5h-2.5a.25.25 0 0 0-.25.25v2.5a.75.75 0 0 1-1.5 0v-2.5C0 1.784.784 1 1.75 1h2.5Zm10 0c.966 0 1.75.784 1.75 1.75v2.5a.75.75 0 0 1-1.5 0v-2.5a.25.25 0 0 0-.25-.25h-2.5a.75.75 0 0 1 0-1.5h2.5Z"/></svg>