<svg xmlns="http://www.w3.org/2000/svg" fill="currentColor" viewBox="0 0 16 16"><path d="M8.626 1.326 11.862 6h2.367c1.186 0 2.036 1.13 1.695 2.253l-1.669 5.5A1.77 1.77 0 0 1 12.56 15H3.44a1.769 1.769 0 0 1-1.696-1.247l-1.67-5.5C-.264 7.13.586 6 1.772 6h2.367L7.43 1.254a.772.772 0 0 1 1.195.072ZM1.771 7.5a.25.25 0 0 0-.242.322l1.67 5.5c.032.106.13.178.242.178h9.118c.111 0 .21-.072.242-.178l1.67-5.5a.251.251 0 0 0-.242-.322H1.77ZM8 9a1.51 1.51 0 0 1 1.518 1.5c0 .828-.68 1.5-1.518 1.5a1.509 1.509 0 0 1-1.518-1.5c0-.828.68-1.5 1.518-1.5ZM5.977 6h4.046L8 3.078 5.977 6Z"/></svg>