<svg xmlns="http://www.w3.org/2000/svg" fill="currentColor" viewBox="0 0 16 16"><path d="M14.255 1a.75.75 0 0 1 .75.75v5.42c.71.34 1.141 1.143.95 1.974l-1.04 4.5A1.752 1.752 0 0 1 13.208 15H3.026c-.942 0-1.633-.694-1.775-1.64L.02 5.004A1.751 1.751 0 0 1 1.752 3h1.243V1.75a.75.75 0 0 1 .75-.75h10.51Zm-3.68 8.487A1.753 1.753 0 0 1 9.336 10H3.777a.251.251 0 0 0-.243.19l-.75 3a.25.25 0 0 0 .242.31h10.182a.25.25 0 0 0 .244-.193l1.04-4.5a.25.25 0 0 0-.187-.3L11.564 8.5l-.988.987ZM1.752 4.5a.25.25 0 0 0-.247.286l.694 4.708a1.75 1.75 0 0 1 .796-.808V4.5H1.752Zm4.246-2A1.5 1.5 0 0 1 4.496 4v3a1.5 1.5 0 0 1 1.502 1.5h3.338c.067 0 .13-.027.177-.073l1.323-1.301A.752.752 0 0 1 11.252 7h2.252V4a1.501 1.501 0 0 1-1.501-1.5H5.998ZM9 4a1.5 1.5 0 1 1 .001 3.001 1.5 1.5 0 0 1 0-3.001Z"/></svg>