<svg xmlns="http://www.w3.org/2000/svg" fill="currentColor" viewBox="0 0 16 16"><path d="M8.825.02a.752.752 0 0 1 .569.091l3.25 2a.75.75 0 0 1 .356.64v3.5a.75.75 0 0 1-1.5 0V3.81l-6 2.444v7.858l.704-.301a.751.751 0 0 1 .592 1.379l-1.75.75A.758.758 0 0 1 4 15.25v-9.5a.75.75 0 0 1 .467-.694l6.076-2.476-1.628-1.002L1.5 4.275v9.975a.75.75 0 0 1-1.5 0V3.75a.75.75 0 0 1 .494-.705L8.825.021Zm4.856 9.242a.75.75 0 0 1 1.138.976l-3 3.5a.758.758 0 0 1-1.1.042l-1.5-1.5a.75.75 0 0 1 1.061-1.06l.927.927 2.474-2.885Z"/></svg>