<svg xmlns="http://www.w3.org/2000/svg" fill="currentColor" viewBox="0 0 16 16"><path d="M3.25 11a.75.75 0 0 1 .75.75v3.5a.75.75 0 0 1-.75.75H.75a.75.75 0 0 1-.75-.75v-3.5A.75.75 0 0 1 .75 11h2.5Zm7 1a.75.75 0 0 1 .75.75v2.5a.75.75 0 0 1-.75.75h-4.5a.75.75 0 0 1-.75-.75v-2.5a.75.75 0 0 1 .75-.75h4.5ZM1.5 14.5h1v-2h-1v2Zm5 0h3v-1h-3v1ZM14.24 0C15.211 0 16 .788 16 1.76v7.48A1.76 1.76 0 0 1 14.24 11H6.76A1.76 1.76 0 0 1 5 9.24V1.76C5 .789 5.788 0 6.76 0h7.48ZM3.25 4a.75.75 0 0 1 .75.75v4.5a.75.75 0 0 1-.75.75H.75A.75.75 0 0 1 0 9.25v-4.5A.75.75 0 0 1 .75 4h2.5Zm3.51-2.5a.26.26 0 0 0-.26.26v7.48c0 .143.117.26.26.26h7.48a.26.26 0 0 0 .26-.26V1.76a.26.26 0 0 0-.26-.26H6.76Zm-5.26 7h1v-3h-1v3ZM8.25 4a.75.75 0 0 1 .75.75v2.5a.75.75 0 0 1-1.5 0v-2.5A.75.75 0 0 1 8.25 4Zm2.25-1a.75.75 0 0 1 .75.75v3.5a.75.75 0 0 1-1.5 0v-3.5A.75.75 0 0 1 10.5 3Zm2.25 2a.75.75 0 0 1 .75.75v1.5a.75.75 0 0 1-1.5 0v-1.5a.75.75 0 0 1 .75-.75Z"/></svg>