<svg xmlns="http://www.w3.org/2000/svg" fill="currentColor" viewBox="0 0 16 16"><path d="M8 1c2.21 0 3.628.956 4.451 2.315.789 1.302.99 2.902.99 4.19v.636c0 1.072.341 1.976.691 2.62.189.347.41.678.669.974.442.469.098 1.265-.546 1.265h-3.837c-.281 1.15-1.256 2-2.418 2-1.162 0-2.137-.85-2.418-2H1.745c-.646 0-.989-.798-.544-1.267a5.19 5.19 0 0 0 .666-.971c.35-.645.691-1.55.691-2.621v-.636c0-1.288.202-2.888.99-4.19C4.372 1.955 5.791 1 8 1Zm0 1.5c-1.695 0-2.621.69-3.167 1.592-.582.96-.774 2.237-.774 3.413v.636c0 1.404-.45 2.563-.885 3.359h9.652c-.436-.795-.886-1.955-.886-3.36v-.635c0-1.176-.191-2.453-.773-3.413C10.621 3.19 9.695 2.5 8 2.5Z"/></svg>