<svg xmlns="http://www.w3.org/2000/svg" fill="currentColor" viewBox="0 0 16 16"><path d="M8.13 5.035c2.583 0 4.645 1.676 5.339 4.001a.75.75 0 0 1-1.438.429c-.514-1.722-2.015-2.93-3.901-2.93-2.32 0-4.193 1.866-4.193 4.155 0 1.565.26 3.037.953 4.168a.75.75 0 0 1-1.28.784c-.897-1.466-1.173-3.256-1.173-4.952 0-3.13 2.556-5.655 5.693-5.655ZM8.175 2.5c2.949 0 5.221 1.81 6.21 2.919l.003.002c1.399 1.579 1.87 3.296 1.482 4.696-.398 1.436-1.66 2.36-3.265 2.29-.986-.042-1.66-.532-2.126-1.084-.43-.509-.741-1.159-.93-1.486l-.003-.007c-.144-.257-.295-.47-.493-.624-.182-.14-.445-.262-.878-.262-.96 0-1.729.766-1.729 1.717 0 1.544.816 2.996 2.035 4.014a.75.75 0 1 1-.961 1.15c-1.482-1.238-2.574-3.083-2.574-5.164a3.217 3.217 0 0 1 3.229-3.217c.755 0 1.343.226 1.796.576.433.335.7.753.879 1.069.275.478.462.895.776 1.268.277.328.589.532 1.043.551l.001.001c.934.04 1.55-.456 1.755-1.192.214-.772.01-1.98-1.16-3.301C12.419 5.47 10.522 4 8.175 4h-.002c-3.594-.009-6.511 2.764-6.674 6.284a.75.75 0 0 1-1.498-.068c.2-4.334 3.79-7.726 8.174-7.716Zm.05 7.5a.751.751 0 0 1 .775.726c.046 1.43 1.214 2.53 2.809 2.649a.75.75 0 0 1-.11 1.496c-2.211-.164-4.124-1.76-4.199-4.097A.751.751 0 0 1 8.226 10ZM7.999 0c3.057 0 5.894 1.505 7.82 3.764a.75.75 0 1 1-1.142.972C12.996 2.766 10.559 1.5 7.998 1.5 5.438 1.5 3 2.766 1.321 4.736A.75.75 0 0 1 .18 3.764C2.104 1.504 4.942 0 7.999 0Z"/></svg>