<svg xmlns="http://www.w3.org/2000/svg" fill="currentColor" viewBox="0 0 16 16"><path d="M.75 12a.75.75 0 0 1 .75.75v1.5c0 .138.112.25.25.25h1.5a.75.75 0 0 1 0 1.5h-1.5A1.75 1.75 0 0 1 0 14.25v-1.5A.75.75 0 0 1 .75 12Zm14.5 0a.75.75 0 0 1 .75.75v1.5A1.75 1.75 0 0 1 14.25 16h-1.5a.75.75 0 0 1 0-1.5h1.5a.25.25 0 0 0 .25-.25v-1.5a.75.75 0 0 1 .75-.75ZM4.257 10.185a.75.75 0 0 1 1.058.072c.774.888 1.691 1.243 2.695 1.243.994 0 1.89-.358 2.682-1.24a.75.75 0 1 1 1.116 1.002C10.732 12.458 9.432 13 8.01 13c-1.413 0-2.751-.524-3.825-1.757a.75.75 0 0 1 .072-1.058ZM8.75 4a.75.75 0 0 1 .75.75v2.12c0 .583-.29 1.07-.672 1.413-.38.343-.878.578-1.413.698a.75.75 0 0 1-.33-1.462c.333-.075.585-.21.738-.35.152-.136.177-.244.177-.299V4.75A.75.75 0 0 1 8.75 4Zm-4.5 0a.75.75 0 0 1 .75.75v1.5a.75.75 0 0 1-1.5 0v-1.5A.75.75 0 0 1 4.25 4Zm7.5 0a.75.75 0 0 1 .75.75v1.5a.75.75 0 0 1-1.5 0v-1.5a.75.75 0 0 1 .75-.75Zm-8.5-4a.75.75 0 0 1 0 1.5h-1.5a.25.25 0 0 0-.25.25v1.5a.75.75 0 0 1-1.5 0v-1.5C0 .784.784 0 1.75 0h1.5Zm11 0C15.216 0 16 .784 16 1.75v1.5a.75.75 0 0 1-1.5 0v-1.5a.25.25 0 0 0-.25-.25h-1.5a.75.75 0 0 1 0-1.5h1.5Z"/></svg>