<svg xmlns="http://www.w3.org/2000/svg" fill="currentColor" viewBox="0 0 16 16"><path d="M7.43 0a2.76 2.76 0 0 1 1.98.84l5.812 5.998a2.76 2.76 0 0 1-.03 3.872l-4.483 4.482a2.76 2.76 0 0 1-3.872.03L.84 9.412A2.76 2.76 0 0 1 0 7.429V2.76A2.76 2.76 0 0 1 2.76 0h4.67ZM2.76 1.505c-.693 0-1.255.562-1.255 1.255v4.67c0 .339.138.664.382.9l6 5.812c.491.476 1.274.47 1.758-.014l4.483-4.483c.484-.484.49-1.267.014-1.759l-5.812-6a1.255 1.255 0 0 0-.9-.38H2.76Zm2.76 2.51a1.505 1.505 0 1 1 0 3.01 1.505 1.505 0 0 1 0-3.01Z"/></svg>