<svg xmlns="http://www.w3.org/2000/svg" fill="currentColor" viewBox="0 0 16 16"><path d="M8.544.226c.965.981 1.824 2.085 2.632 3.196.66.908 1.335 1.941 1.856 2.981.515 1.028.912 2.126.947 3.148.006.153.021.306.021.46C14 13.318 11.31 16 8 16s-6-2.682-6-5.99c0-.153.015-.306.02-.459.036-1.022.433-2.12.948-3.148.52-1.04 1.196-2.073 1.856-2.98C5.641 2.3 6.58 1.132 7.512.172a.772.772 0 0 1 1.032.053Zm-.775 1.9a34.651 34.651 0 0 0-1.732 2.18c-.632.87-1.257 1.83-1.728 2.77-.478.952-.765 1.823-.79 2.528-.002.136-.019.271-.019.407A4.497 4.497 0 0 0 8 14.499c2.485 0 4.5-2.013 4.5-4.488 0-.226-.023-.454-.041-.68-.078-.651-.35-1.422-.768-2.255-.47-.94-1.096-1.9-1.728-2.77a34.475 34.475 0 0 0-1.732-2.18c-.081-.094-.16-.18-.231-.262-.071.081-.15.168-.231.263Z"/></svg>