<svg xmlns="http://www.w3.org/2000/svg" fill="currentColor" viewBox="0 0 16 16"><path d="M11.513 13.039a.75.75 0 0 1 .95.474l.5 1.5a.752.752 0 0 1-1.424.475l-.5-1.5a.75.75 0 0 1 .474-.95ZM4.301 6.107c1.545-1.54 3.886-1.431 5.477.11A.75.75 0 0 1 8.72 7.281c-.932-.927-2.394-1.076-3.361-.11L3.163 9.338a2.274 2.274 0 0 0 .003 3.212l.282.283c.985.984 2.436.783 3.36-.141a.75.75 0 0 1 1.06 1.06c-1.503 1.504-3.916 1.705-5.48.142l-.283-.282a3.774 3.774 0 0 1 0-5.337l2.196-2.169Zm8.738 5.406a.75.75 0 0 1 .949-.474l1.5.5a.751.751 0 0 1-.475 1.423l-1.5-.5a.751.751 0 0 1-.474-.949ZM8.271 2.104a3.78 3.78 0 0 1 5.339 0l.283.282a3.774 3.774 0 0 1 0 5.337c-1.184 1.183-1.88 1.823-1.88 1.823S10.675 10.766 9.378 11c-1.002.199-2.043.023-3.034-.62a.75.75 0 0 1 .817-1.258c.669.434 1.313.528 1.924.407.867-.11 1.9-1.075 1.9-1.075s.67-.614 1.847-1.79a2.274 2.274 0 0 0 0-3.215l-.282-.283a2.281 2.281 0 0 0-3.219-.002h.001c-.32.341-.782.38-1.11.052-.328-.327-.245-.818.049-1.111ZM.039 3.514a.75.75 0 0 1 .949-.475l1.5.5a.751.751 0 0 1-.475 1.423l-1.5-.5a.751.751 0 0 1-.474-.949ZM3.513.038a.751.751 0 0 1 .95.474l.5 1.5a.752.752 0 0 1-1.424.475l-.5-1.5a.75.75 0 0 1 .474-.95Z"/></svg>