<svg xmlns="http://www.w3.org/2000/svg" fill="currentColor" viewBox="0 0 16 16"><path d="M10.346 7a3.347 3.347 0 0 1 2.836 5.121l.003.003 2.596 2.596a.752.752 0 0 1-1.061 1.061l-2.596-2.596-.003-.003A3.347 3.347 0 1 1 10.346 7ZM6.5 1c.199 0 .39.08.53.22L8.31 2.5h4.94A2.75 2.75 0 0 1 16 5.25a.75.75 0 0 1-1.5 0c0-.69-.56-1.25-1.25-1.25H8a.75.75 0 0 1-.53-.22L6.19 2.5H2.75c-.69 0-1.25.56-1.25 1.25v8.5c0 .69.56 1.25 1.25 1.25h2.5a.75.75 0 0 1 0 1.5h-2.5A2.75 2.75 0 0 1 0 12.25v-8.5A2.75 2.75 0 0 1 2.75 1H6.5Zm3.846 7.5a1.846 1.846 0 1 0 0 3.692 1.846 1.846 0 0 0 0-3.692Z"/></svg>