<svg xmlns="http://www.w3.org/2000/svg" fill="currentColor" viewBox="0 0 16 16"><path d="M1.75 1a.75.75 0 0 1 .75.75v11.5c0 .138.112.25.25.25h11.5a.75.75 0 0 1 0 1.5H2.75A1.75 1.75 0 0 1 1 13.25V1.75A.75.75 0 0 1 1.75 1Zm7.75 9.75a.75.75 0 1 1 0 1.5.75.75 0 0 1 0-1.5Zm-5-1a.75.75 0 1 1 0 1.5.75.75 0 0 1 0-1.5ZM13 8a1 1 0 1 1 0 2 1 1 0 0 1 0-2ZM9 6a1 1 0 1 1 0 2 1 1 0 0 1 0-2Zm-4.5-.25a.75.75 0 1 1 0 1.5.75.75 0 0 1 0-1.5Zm8-3.75a1.5 1.5 0 1 1 0 3 1.5 1.5 0 0 1 0-3ZM6 1a1 1 0 1 1 0 2 1 1 0 0 1 0-2Z"/></svg>