<svg xmlns="http://www.w3.org/2000/svg" fill="currentColor" viewBox="0 0 16 16"><path d="M8 0a.75.75 0 0 1 .75.75v.913l1.998 1.776A.75.75 0 0 1 11 4v4.5h3.25a.75.75 0 0 1 .75.75v6a.75.75 0 0 1-.75.75H1.75a.753.753 0 0 1-.75-.75v-9c0-.398.352-.75.75-.75H5V4a.777.777 0 0 1 .252-.56L7.25 1.662V.75A.75.75 0 0 1 8 0ZM2.5 14.5H5V13H2.5v1.5Zm4 0h3V13h-3v1.5Zm4.5 0h2.5V13H11v1.5Zm0-3h2.5V10H11v1.5Zm-4.5 0h3V10h-3v1.5Zm-4 0H5V10H2.5v1.5Zm0-3H5V7H2.5v1.5Zm4 0h3V7h-3v1.5Zm0-4.164V5.5h3V4.336L8 3.003 6.5 4.336Z"/></svg>