<svg xmlns="http://www.w3.org/2000/svg" fill="currentColor" viewBox="0 0 16 16"><path d="M9.25 0A2.751 2.751 0 0 1 12 2.752v1.463l3.192 3.195a2.755 2.755 0 0 1 0 3.893l-3.89 3.891a2.748 2.748 0 0 1-3.888 0l-1.183-1.183H2.75A2.751 2.751 0 0 1 0 11.259v-.5a.75.75 0 1 1 1.5 0v.5c0 .69.56 1.25 1.25 1.25h1.98l-1.206-1.207a2.753 2.753 0 0 1-.087-3.797L2.22 6.286a.751.751 0 0 1 1.06-1.061l1.214 1.214 1.944-1.945-1.214-1.215a.751.751 0 0 1 1.06-1.062l1.219 1.22a2.745 2.745 0 0 1 2.997-.474v-.21a1.25 1.25 0 0 0-1.25-1.252h-6.5c-.69 0-1.25.56-1.25 1.251v.5a.75.75 0 1 1-1.5 0v-.5A2.751 2.751 0 0 1 2.75 0h6.5Zm.46 6.355c-1.656 0-3 1.345-3 3.003a3.002 3.002 0 0 0 3 3.002 3 3 0 0 0 3-3.002 3.001 3.001 0 0 0-3-3.003Zm0 1.502a1.5 1.5 0 1 1 0 3 1.5 1.5 0 0 1 0-3ZM.75 5.005a.75.75 0 0 1 .75.75V8.25a.751.751 0 0 1-1.5 0V5.755a.75.75 0 0 1 .75-.75Z"/></svg>