<svg xmlns="http://www.w3.org/2000/svg" fill="currentColor" viewBox="0 0 16 16"><path d="M11.75 0a2.75 2.75 0 0 1 2.75 2.75v1a.75.75 0 0 1 1.5 0V5a.75.75 0 0 1-.75.75h-.75v5.5c0 .854-.39 1.617-1 2.121v1.379a1.25 1.25 0 1 1-2.5 0V14H5v.75a1.25 1.25 0 1 1-2.5 0v-1.379c-.61-.504-1-1.267-1-2.121v-5.5H.75A.75.75 0 0 1 0 5V3.75a.75.75 0 0 1 1.5 0v-1A2.75 2.75 0 0 1 4.25 0h7.5ZM3 11.25c0 .69.56 1.25 1.25 1.25h7.5c.69 0 1.25-.56 1.25-1.25V8H3v3.25ZM5 9a1 1 0 1 1 0 2 1 1 0 0 1 0-2Zm6 0a1 1 0 1 1 0 2 1 1 0 0 1 0-2ZM4.25 1.5C3.56 1.5 3 2.06 3 2.75V6.5h10V2.75c0-.69-.56-1.25-1.25-1.25h-7.5Z"/></svg>