<svg xmlns="http://www.w3.org/2000/svg" fill="currentColor" viewBox="0 0 16 16"><path d="M6.25 0A.75.75 0 0 1 7 .75v14.5a.75.75 0 0 1-.75.75H.75a.75.75 0 0 1-.75-.75V.75A.75.75 0 0 1 .75 0h5.5Zm6.25 9c1.973 0 3.5 1.527 3.5 3.5S14.473 16 12.5 16 9 14.473 9 12.5 10.527 9 12.5 9Zm-11 5.5h4v-13h-4v13Zm11-4c-1.144 0-2 .856-2 2 0 1.144.856 2 2 2 1.144 0 2-.856 2-2 0-1.144-.856-2-2-2ZM15.25 0a.75.75 0 0 1 .75.75v5.5a.75.75 0 0 1-.75.75h-5.5A.75.75 0 0 1 9 6.25V.75A.75.75 0 0 1 9.75 0h5.5ZM10.5 5.5h4v-4h-4v4Z"/></svg>