<svg xmlns="http://www.w3.org/2000/svg" fill="currentColor" viewBox="0 0 16 16"><path d="M8 0a8 8 0 1 1 0 16A8 8 0 0 1 8 0Zm.75 3.25a.75.75 0 0 1-1.5 0V1.544A6.5 6.5 0 0 0 1.544 7.25H3.25a.75.75 0 0 1 0 1.5H1.544a6.5 6.5 0 0 0 5.706 5.705V12.75a.75.75 0 0 1 1.5 0v1.705a6.5 6.5 0 0 0 5.706-5.705H12.75a.75.75 0 0 1 0-1.5h1.706A6.5 6.5 0 0 0 8.75 1.544V3.25Zm3.052 1.088c.376.367.445.943.178 1.4L9.892 9.2a1.426 1.426 0 0 1-.496.507L5.594 11.83c-.45.26-1.038.217-1.406-.169a1.159 1.159 0 0 1-.158-1.42L6.21 6.58a1.4 1.4 0 0 1 .495-.496l3.712-1.925a1.14 1.14 0 0 1 1.386.179ZM8 6.938c-.544 0-.99.506-.99 1.052 0 .545.453 1 .995 1.002.542-.003.984-.457.984-1.002 0-.546-.445-1.052-.989-1.053Z"/></svg>