<svg xmlns="http://www.w3.org/2000/svg" fill="currentColor" viewBox="0 0 16 16"><path d="M2.75 12a.75.75 0 0 1 .75.75v1.5a.75.75 0 0 1-1.5 0v-1.5a.75.75 0 0 1 .75-.75Zm3.5-4a.75.75 0 0 1 .75.75v5.5a.75.75 0 0 1-1.5 0v-5.5A.75.75 0 0 1 6.25 8Zm3.5 2a.75.75 0 0 1 .75.75v3.5a.75.75 0 0 1-1.5 0v-3.5a.75.75 0 0 1 .75-.75Zm3.5-3a.75.75 0 0 1 .75.75v6.5a.75.75 0 0 1-1.5 0v-6.5a.75.75 0 0 1 .75-.75Zm1.25-7A1.5 1.5 0 0 1 16 1.5c0 1.007-1.004 1.758-1.964 1.426L10.99 5.668a1.499 1.499 0 0 1-2.949.175L5.978 4.296c-.2.106-.439.114-.684.062l-2.371 2.67A1.497 1.497 0 0 1 1.5 9a1.5 1.5 0 1 1 .303-2.97l2.306-2.594c-.406-.957.34-2.061 1.391-2.061.934 0 1.678.896 1.47 1.791l1.573 1.179a1.505 1.505 0 0 1 1.781-.098l2.708-2.436C12.812.898 13.56 0 14.5 0Z"/></svg>