<svg xmlns="http://www.w3.org/2000/svg" fill="currentColor" viewBox="0 0 16 16"><path d="M.75 13a.75.75 0 0 1 .75.75v1.5a.75.75 0 0 1-1.5 0v-1.5A.75.75 0 0 1 .75 13ZM3.5 9a.75.75 0 0 1 .75.75l-.004 5.577a.75.75 0 0 1-1.492 0L2.75 9.75A.75.75 0 0 1 3.5 9Zm2.75 2a.75.75 0 0 1 .75.75v3.5a.75.75 0 0 1-1.5 0v-3.5a.75.75 0 0 1 .75-.75Zm8.43-.738a.75.75 0 0 1 1.14.976l-3 3.5a.75.75 0 0 1-1.1.042l-1.5-1.5a.75.75 0 0 1 1.06-1.06l.927.927 2.474-2.885Zm-2.18-6.26a2.5 2.5 0 0 1 2.5 2.5.5.5 0 0 1-.5.5h-4a.504.504 0 0 1-.5-.5 2.5 2.5 0 0 1 2.5-2.5ZM4.25 5.5a.75.75 0 0 1 0 1.5H.75a.75.75 0 0 1 0-1.5h3.5Zm2.077-2.746a.75.75 0 0 1 0 1.492L.75 4.25a.75.75 0 0 1 0-1.5l5.577.004ZM12.5.001a1.5 1.5 0 1 1 0 3 1.5 1.5 0 0 1 0-3ZM6.327.004a.75.75 0 0 1 0 1.492L.75 1.5a.75.75 0 0 1 0-1.5l5.577.004Z"/></svg>