<svg xmlns="http://www.w3.org/2000/svg" fill="currentColor" viewBox="0 0 16 16"><path d="M.75 11a.75.75 0 0 1 .75.75v3.5a.75.75 0 0 1-1.5 0v-3.5A.75.75 0 0 1 .75 11Zm3-3a.75.75 0 0 1 .75.75v6.5a.75.75 0 0 1-1.5 0v-6.5A.75.75 0 0 1 3.75 8Zm3 2a.75.75 0 0 1 .75.75v4.5a.75.75 0 0 1-1.5 0v-4.5a.75.75 0 0 1 .75-.75Zm7-2.5c.414 0 .75.32.75.75v.25c.246 0 .602 0 .827.004.142 0 .673.121.673.746a.75.75 0 0 1-.75.75h-2.317c-.25 0-.433.269-.433.5 0 .243.194.5.45.5h.9c.638 0 1.188.215 1.58.607.385.387.571.809.57 1.398-.001.594-.161.987-.584 1.403-.292.287-.76.475-.916.51v.332a.75.75 0 0 1-.75.75c-.414 0-.75-.353-.75-.71V15h-1.25a.75.75 0 0 1 0-1.5h2.1c.315 0 .647-.137.65-.495a.44.44 0 0 0-.13-.337c-.218-.187-.26-.168-1.42-.168S11 11.494 11 10.5c0-.987.85-2 2-2v-.25a.733.733 0 0 1 .75-.75ZM1 5c.6 0 1 .4 1 1s-.4 1-1 1H0V6c0-.6.4-1 1-1ZM5.72.22a.75.75 0 0 1 1.06 1.06l-3.5 3.5a.75.75 0 0 1-1.06-1.06l3.5-3.5ZM10 3c.6 0 1 .4 1 1s-.4 1-1 1-1-.4-1-1 .4-1 1-1Zm5.25 0a.75.75 0 0 1 0 1.5h-2.5a.75.75 0 0 1 0-1.5h2.5ZM10 0c.6 0 1 .4 1 1s-.4 1-1 1-1-.4-1-1 .4-1 1-1Zm5.15 0a.75.75 0 0 1 0 1.5h-2.4a.75.75 0 0 1 0-1.5h2.4Z"/></svg>