<svg xmlns="http://www.w3.org/2000/svg" fill="currentColor" viewBox="0 0 16 16"><path d="M5.61 1.015c.667 0 1.27.372 1.568.968l.877 1.753.003.006c.496 1.013-.087 1.986-1.005 2.445.394 1.219 1.553 2.367 2.76 2.758l.106-.211a1.743 1.743 0 0 1 2.353-.777l1.447.723A2.288 2.288 0 0 1 15 10.74v.635c0 .905-.19 1.632-.538 2.2-.775 1.261-2.247 1.622-3.633 1.33C5.926 13.646 2.5 9.9 1.091 5.139c-.088-.352-.215-1.335.19-2.275.21-.49.568-.97 1.14-1.319.967-.589 2.094-.564 3.188-.53ZM3.202 2.823c-.633.387-.828 1.266-.656 1.953a12.085 12.085 0 0 0 8.678 8.673c.69.172 1.57-.024 1.959-.657.374-.61.316-1.364.316-2.052a.79.79 0 0 0-.447-.717l-.006-.003-1.451-.726-.006-.003a.242.242 0 0 0-.326.107l-.003.005c-.224.447-.416 1.119-1.024 1.119-1.2 0-2.325-.811-3.137-1.624-.813-.812-1.625-1.936-1.625-3.135 0-.605.667-.796 1.114-1.02a.258.258 0 0 0 .124-.338l-.877-1.752a.247.247 0 0 0-.227-.14c-.787 0-1.705-.117-2.406.31Z"/></svg>