<svg xmlns="http://www.w3.org/2000/svg" fill="currentColor" viewBox="0 0 16 16"><path d="M10.25 1c.344 0 .67.142.905.388L12.375 3h1.875c.966 0 1.75.784 1.75 1.75v7.5A1.75 1.75 0 0 1 14.25 14h-1.502a.75.75 0 0 1 0-1.5h1.502a.25.25 0 0 0 .25-.25v-7.5a.25.25 0 0 0-.25-.25H12.1a.95.95 0 0 1-.76-.38L10.125 2.5h-4.25L4.66 4.12a.95.95 0 0 1-.76.38H1.75a.25.25 0 0 0-.25.25v7.5c0 .138.112.25.25.25h1.5a.75.75 0 0 1 0 1.5h-1.5A1.75 1.75 0 0 1 0 12.25v-7.5C0 3.784.784 3 1.75 3h1.875l1.22-1.612A1.25 1.25 0 0 1 5.75 1h4.5ZM8 6a4 4 0 1 1 0 8 4 4 0 0 1 0-8Zm0 1.5a2.5 2.5 0 1 0 0 5 2.5 2.5 0 0 0 0-5ZM3.5 5.75a.75.75 0 1 1 0 1.5.75.75 0 0 1 0-1.5Z"/></svg>