<svg xmlns="http://www.w3.org/2000/svg" fill="currentColor" viewBox="0 0 16 16"><path d="M4.5 0C7.017 0 9 1.987 9 4.51c0 .407-.053.798-.15 1.17l6.601 6.617a1.757 1.757 0 0 1 0 2.48l-.707.71a1.748 1.748 0 0 1-2.474 0L5.67 8.87c-.372.098-.764.15-1.17.15C1.983 9.02 0 7.033 0 4.51c0-.654.092-1.347.425-1.92a.757.757 0 0 1 1.152-.114L3.3 4.195l.892-.89-1.72-1.723A.76.76 0 0 1 2.674.375C3.258.088 3.909 0 4.5 0Zm3.678 7.133c-.29.412-.649.772-1.06 1.063l6.212 6.227a.25.25 0 0 0 .354 0l.707-.71a.251.251 0 0 0 0-.353L8.178 7.133ZM5.784 2.776c.385.355.281.782 0 1.064L3.827 5.79a.748.748 0 0 1-1.057 0L1.5 4.52c.005 1.689 1.314 2.998 3 2.998 1.689 0 3-1.314 3-3.007 0-1.688-1.303-3-2.985-3.007l1.27 1.272ZM14.72.22a.749.749 0 0 1 1.06 0 .753.753 0 0 1 0 1.063l-1.22 1.223 1.22 1.222a.753.753 0 0 1 0 1.064.749.749 0 0 1-1.06 0L13.5 3.569l-1.22 1.223a.749.749 0 0 1-1.06 0 .753.753 0 0 1 0-1.064l1.22-1.222-1.22-1.223a.753.753 0 0 1 0-1.063.749.749 0 0 1 1.06 0l1.22 1.223L14.72.22Z"/></svg>