<svg xmlns="http://www.w3.org/2000/svg" fill="currentColor" viewBox="0 0 16 16"><path d="M8.825 3.132a.75.75 0 0 1 .85 1.236L5.83 7.011a3 3 0 0 1 .01 1.946l4.688 2.344A3 3 0 1 1 13 16c-1.744-.001-3.148-1.551-2.987-3.281l-5.001-2.501A2.984 2.984 0 0 1 3 11a3 3 0 0 1 0-6c.767 0 1.465.29 1.995.764l3.83-2.632ZM13 11.5a1.5 1.5 0 1 0 0 3 1.5 1.5 0 0 0 0-3Zm-10-5a1.5 1.5 0 1 0 0 3 1.5 1.5 0 0 0 0-3ZM14.72.22a.75.75 0 1 1 1.06 1.06L14.56 2.5l1.22 1.22a.75.75 0 0 1-1.06 1.06L13.5 3.56l-1.22 1.22a.75.75 0 0 1-1.06-1.06l1.22-1.22-1.22-1.22A.75.75 0 0 1 12.28.22l1.22 1.22L14.72.22Z"/></svg>