<svg xmlns="http://www.w3.org/2000/svg" fill="currentColor" viewBox="0 0 16 16"><path d="M5.5 0a.75.75 0 0 1 .75.75v.94l1.53 1.53c.14.14.22.331.22.53v11.5a.75.75 0 0 1-.75.75H.75a.772.772 0 0 1-.75-.75v-9c0-.398.352-.75.75-.75H3V3.603c0-.142.114-.278.22-.383l1.53-1.53V.75A.75.75 0 0 1 5.5 0Zm-4 14.5h5V13h-5v1.5ZM13.25 3a.75.75 0 0 1 .75.75v.75h1.25a.75.75 0 0 1 0 1.5h-3.02c-.429 0-.73.339-.73.75 0 .405.312.75.73.75h1.42c.717 0 1.32.254 1.743.698.413.435.607 1.003.607 1.558 0 .567-.203 1.134-.622 1.563-.353.361-.827.588-1.378.657v.774a.75.75 0 0 1-1.5 0V12h-1.75a.75.75 0 0 1 0-1.5h2.9c.342 0 .541-.112.655-.229.264-.27.26-.767 0-1.04-.11-.116-.306-.23-.655-.231h-1.42C10.884 9 10 7.88 10 6.75c0-1.125.863-2.25 2.23-2.25h.27v-.75a.75.75 0 0 1 .75-.75ZM1.5 11.5H3V10H1.5v1.5Zm3 0h2V10h-2v1.5Zm0-3h2V7h-2v1.5Zm-3 0H3V7H1.5v1.5Zm3-4.44V5.5h2V4.06l-1-1-1 1Z"/></svg>