<svg xmlns="http://www.w3.org/2000/svg" fill="currentColor" viewBox="0 0 16 16"><path d="M12.132 1a2.75 2.75 0 0 1 2.563 1.753l1.118 2.876c.124.317.187.655.187.996v7.125a1.25 1.25 0 1 1-2.5 0V13h-11v.75a1.25 1.25 0 1 1-2.5 0V6.625c0-.34.063-.679.187-.996l1.118-2.876A2.75 2.75 0 0 1 3.868 1h8.264ZM1.5 11.25c0 .138.112.25.25.25h12.5a.25.25 0 0 0 .25-.25V7h-13v4.25ZM4.25 8a1.25 1.25 0 1 1 0 2.5 1.25 1.25 0 0 1 0-2.5Zm7.5 0a1.25 1.25 0 1 1 0 2.5 1.25 1.25 0 0 1 0-2.5ZM3.868 2.5a1.25 1.25 0 0 0-1.165.797L1.847 5.5h12.306l-.856-2.203a1.25 1.25 0 0 0-1.165-.797H3.868Z"/></svg>