<svg xmlns="http://www.w3.org/2000/svg" fill="currentColor" viewBox="0 0 16 16"><path d="M12.25 1A2.75 2.75 0 0 1 15 3.75v8.5A2.75 2.75 0 0 1 12.25 15h-8.5A2.75 2.75 0 0 1 1 12.25v-8.5A2.75 2.75 0 0 1 3.75 1h8.5Zm-8.5 1.5c-.69 0-1.25.56-1.25 1.25v8.5c0 .69.56 1.25 1.25 1.25h8.5c.69 0 1.25-.56 1.25-1.25v-8.5c0-.69-.56-1.25-1.25-1.25h-8.5Zm2.21 4.903A.7.7 0 0 1 7.246 7.4l1.15 2.668.742-.859a.7.7 0 0 1 1.119.08l1.248 1.94a.5.5 0 0 1-.421.771H4.757a.5.5 0 0 1-.46-.696l1.663-3.9ZM10.75 5a1.25 1.25 0 1 1 0 2.5 1.25 1.25 0 0 1 0-2.5Z"/></svg>