<svg xmlns="http://www.w3.org/2000/svg" fill="currentColor" viewBox="0 0 16 16"><path d="M11.5 0c.966 0 1.75.784 1.75 1.75v1.44A2.749 2.749 0 0 1 15 5.75v4.255a2.75 2.75 0 0 1-1.972 2.638l-.615.18 1.443 1.986a.75.75 0 0 1-1.212.882l-1.758-2.417-2.39.707a1.75 1.75 0 0 1-.991 0l-2.392-.707-1.757 2.417a.75.75 0 0 1-1.212-.882l1.442-1.986-.614-.18A2.75 2.75 0 0 1 1 10.005V5.75c0-1.166.726-2.16 1.75-2.56V1.75C2.75.784 3.534 0 4.5 0h7Zm-6 11.824 1.75.517V9.5H5.5v2.324Zm3.25.517 1.75-.517V9.5H8.75v2.84ZM2.5 10.005c0 .554.365 1.042.896 1.2l.604.177V9.5H2.5v.505Zm9.5 1.377.604-.178c.53-.157.896-.645.896-1.2V9.5H12v1.882ZM3.75 4.5c-.69 0-1.25.56-1.25 1.25V8h11V5.75c0-.69-.56-1.25-1.25-1.25h-8.5ZM8 5a1 1 0 1 1 0 2 1 1 0 0 1 0-2Zm.75-2h3V1.75a.25.25 0 0 0-.25-.25H8.75V3ZM4.5 1.5a.25.25 0 0 0-.25.25V3h3V1.5H4.5Z"/></svg>