<svg xmlns="http://www.w3.org/2000/svg" fill="currentColor" viewBox="0 0 16 16"><path d="M4.5 13a1.5 1.5 0 1 1 0 3 1.5 1.5 0 0 1 0-3Zm8 0a1.5 1.5 0 1 1 0 3 1.5 1.5 0 0 1 0-3ZM2.356 1.008a.75.75 0 0 1 .57.418C3.9 3.459 4.95 5.474 5.964 7.5h6.116l2.53-4.14a.75.75 0 1 1 1.28.78l-2.75 4.5a.75.75 0 0 1-.64.36H5.957c-.3.505-.596 1.023-.882 1.5h8.175a.75.75 0 0 1 0 1.5h-9.5c-.571 0-.937-.646-.644-1.136l1.495-2.491C3.674 6.534 2.71 4.441 1.778 2.5H.75a.75.75 0 0 1 0-1.5l1.606.008ZM10.334 4H6V0h7.934l-3.6 4Z"/></svg>