<svg xmlns="http://www.w3.org/2000/svg" fill="currentColor" viewBox="0 0 16 16"><path d="M4.5 13a1.5 1.5 0 1 1 0 3 1.5 1.5 0 0 1 0-3Zm8 0a1.5 1.5 0 1 1 0 3 1.5 1.5 0 0 1 0-3ZM2.356 1.008a.75.75 0 0 1 .57.418c.978 2.04 2.026 4.05 3.038 6.074h6.116l2.53-4.14a.75.75 0 1 1 1.28.78l-2.75 4.5a.75.75 0 0 1-.64.36H5.957l-.882 1.5h8.175a.75.75 0 0 1 0 1.5h-9.5c-.571 0-.937-.646-.644-1.136l1.495-2.491L1.778 2.5H.75a.75.75 0 0 1 0-1.5l1.606.008ZM9.01 0a.75.75 0 0 1 .557.248l2.25 2.5a.75.75 0 0 1-1.115 1.004L9.75 2.693V5.25a.75.75 0 0 1-1.5 0V2.715l-.933 1.037a.75.75 0 0 1-1.115-1.004L8.382.324A.76.76 0 0 1 9.01 0Z"/></svg>