<svg xmlns="http://www.w3.org/2000/svg" fill="currentColor" viewBox="0 0 16 16"><path d="M4.302 6.107c1.538-1.533 3.943-1.432 5.476.11a.75.75 0 0 1-1.057 1.064c-.913-.93-2.395-1.076-3.362-.11l-.002.003L3.163 9.34a2.273 2.273 0 0 0 .003 3.212l.282.282a2.28 2.28 0 0 0 3.22 0 .75.75 0 0 1 1.06 1.062 3.78 3.78 0 0 1-5.34 0l-.282-.283a3.773 3.773 0 0 1 0-5.337l.002-.003 2.194-2.166Zm3.97-4.002a3.779 3.779 0 0 1 5.34 0l.283.282a3.774 3.774 0 0 1 0 5.337l-.008.007-1.865 1.807-.01.01c-2.087 1.949-4.55 1.617-5.69.815a.75.75 0 0 1 .864-1.226c.58.407 2.252.763 3.802-.685l1.848-1.792a2.273 2.273 0 0 0-.002-3.212l-.282-.283a2.28 2.28 0 0 0-3.219-.002l.001.001-.05.05a.75.75 0 0 1-1.06.002c-.329-.327-.278-.785.049-1.111Z"/></svg>