<svg xmlns="http://www.w3.org/2000/svg" fill="currentColor" viewBox="0 0 16 16"><path d="M13.25 1A2.75 2.75 0 0 1 16 3.75v8.5A2.75 2.75 0 0 1 13.25 15H2.75A2.75 2.75 0 0 1 0 12.25v-8.5A2.75 2.75 0 0 1 2.75 1h10.5ZM1.525 12.5c.116.57.62 1 1.225 1h10.5a1.25 1.25 0 0 0 1.225-1H1.525Zm1.225-10c-.69 0-1.25.56-1.25 1.25V11h13V3.75c0-.69-.56-1.25-1.25-1.25H2.75Zm1.084 1.626A.75.75 0 0 1 5 4.75v4.5a.75.75 0 0 1-1.5 0V6.151l-.334.223a.75.75 0 1 1-.832-1.248l1.5-1ZM8.72 6.22a.75.75 0 1 1 1.06 1.06L9.06 8l.72.72a.75.75 0 1 1-1.06 1.06L8 9.06l-.72.72a.75.75 0 1 1-1.06-1.06L6.94 8l-.72-.72a.75.75 0 1 1 1.06-1.06l.72.72.72-.72Zm3.114-2.094A.747.747 0 0 1 13 4.75v4.5a.75.75 0 0 1-1.5 0V6.151l-.334.223a.75.75 0 1 1-.832-1.248l1.5-1Z"/></svg>