<svg xmlns="http://www.w3.org/2000/svg" fill="currentColor" viewBox="0 0 16 16"><path d="M14.243 8C15.217 8 16 8.799 16 9.766v4.468c0 .967-.783 1.766-1.757 1.766H1.757A1.764 1.764 0 0 1 0 14.234V9.766C0 8.799.783 8 1.757 8h12.486ZM1.5 14.234c0 .15.123.266.257.266H5V13H1.5v1.234Zm5 .266h3V13h-3v1.5Zm4.5 0h3.243a.264.264 0 0 0 .257-.266V13H11v1.5Zm-9.243-5a.264.264 0 0 0-.257.266V11.5H5v-2H1.757Zm4.743 2h3v-2h-3v2Zm4.5 0h3.5V9.766a.264.264 0 0 0-.257-.266H11v2ZM.75 0a.75.75 0 0 1 .75.75v3.5a.75.75 0 0 1-1.5 0V.75A.75.75 0 0 1 .75 0Zm10.5 3.5a.75.75 0 0 1 0 1.5h-6.5a.75.75 0 0 1 0-1.5h6.5Zm4-3.5a.75.75 0 0 1 0 1.5H4.75a.75.75 0 0 1 0-1.5h10.5Z"/></svg>