<svg xmlns="http://www.w3.org/2000/svg" fill="currentColor" viewBox="0 0 16 16"><path d="M12.25 1c.966 0 1.75.784 1.75 1.75v7.713c0 .59-.298 1.141-.791 1.465l-4.25 2.786a1.75 1.75 0 0 1-1.918 0l-4.25-2.786A1.752 1.752 0 0 1 2 10.463V2.751A1.75 1.75 0 0 1 3.75 1h8.5Zm-8.5 1.5a.25.25 0 0 0-.25.25v7.713a.25.25 0 0 0 .113.21l4.25 2.786a.25.25 0 0 0 .274 0l4.25-2.787a.25.25 0 0 0 .113-.209V2.751a.25.25 0 0 0-.25-.25h-8.5Zm5.93 2.763a.75.75 0 1 1 1.14.977l-3 3.502a.758.758 0 0 1-1.1.042l-1.5-1.501a.75.75 0 0 1 1.06-1.061l.927.927 2.474-2.886Z"/></svg>