<svg xmlns="http://www.w3.org/2000/svg" fill="currentColor" viewBox="0 0 16 16"><path d="M12.25 4.001c.966 0 1.75.784 1.75 1.75v5.713c0 .59-.298 1.14-.791 1.464l-4.25 2.786a1.75 1.75 0 0 1-1.918 0l-4.25-2.786A1.752 1.752 0 0 1 2 11.464V5.752c0-.967.784-1.75 1.75-1.75h8.5Zm-.543 2.794a1 1 0 0 0-1.414 0L7.5 9.59 6.207 8.296A1 1 0 1 0 4.793 9.71l2 2a1 1 0 0 0 1.414 0l3.5-3.5a1 1 0 0 0 0-1.415Zm-.457-4.794a.75.75 0 0 1 0 1.5h-6.5a.75.75 0 0 1 0-1.5h6.5ZM10.25 0a.75.75 0 0 1 0 1.5h-4.5a.75.75 0 0 1 0-1.5h4.5Z"/></svg>