<svg xmlns="http://www.w3.org/2000/svg" fill="currentColor" viewBox="0 0 16 16"><path d="M12.25 4.001c.966 0 1.75.784 1.75 1.75v5.713c0 .59-.298 1.14-.791 1.464l-4.25 2.786a1.75 1.75 0 0 1-1.918 0l-4.25-2.786A1.752 1.752 0 0 1 2 11.464V5.752c0-.967.784-1.75 1.75-1.75h8.5Zm-8.5 1.5a.25.25 0 0 0-.25.25v5.713c0 .084.043.162.113.209l4.25 2.786a.25.25 0 0 0 .274 0l4.25-2.786a.251.251 0 0 0 .113-.21v-5.71a.25.25 0 0 0-.25-.25h-8.5Zm5.93 1.763a.75.75 0 1 1 1.14.977l-3 3.501a.75.75 0 0 1-1.1.042l-1.5-1.5a.75.75 0 0 1 1.06-1.061l.927.927 2.474-2.886Zm1.57-5.263a.75.75 0 0 1 0 1.5h-6.5a.75.75 0 0 1 0-1.5h6.5ZM10.25 0a.75.75 0 0 1 0 1.5h-4.5a.75.75 0 0 1 0-1.5h4.5Z"/></svg>