<svg xmlns="http://www.w3.org/2000/svg" fill="currentColor" viewBox="0 0 16 16"><path d="M11.25 0a.75.75 0 0 1 .75.75V2c1.583 0 3 1.058 3 2.75v5.49a.75.75 0 0 1-1.5 0V7.5h-.75a.75.75 0 0 1 0-1.5h.75V4.75c0-.868-.741-1.25-1.5-1.25v.75a.75.75 0 0 1-1.5 0V3.5h-5v.75a.75.75 0 0 1-1.5 0V3.5c-.759 0-1.5.382-1.5 1.25V6h1.25a.75.75 0 0 1 0 1.5H2.5v5.75c0 .69.56 1.25 1.25 1.25h5.531a.75.75 0 0 1 0 1.5H3.75A2.75 2.75 0 0 1 1 13.25v-8.5C1 3.058 2.417 2 4 2V.75a.75.75 0 0 1 1.5 0V2h5V.75a.75.75 0 0 1 .75-.75ZM9.02 6.5a3.52 3.52 0 0 1 2.959 5.42l.032.03 2.77 2.77a.75.75 0 0 1-1.061 1.06l-2.77-2.77-.03-.031A3.52 3.52 0 1 1 9.02 6.5Zm0 1.5a2.02 2.02 0 1 0 0 4.04 2.02 2.02 0 0 0 0-4.04Z"/></svg>