<svg xmlns="http://www.w3.org/2000/svg" fill="currentColor" viewBox="0 0 16 16"><path d="M6 0s-.015.792.337.792L7.4.796c.368 0 .636.368.5.704-.272.672-.82 1.66-1.292 2.17-.6.657-1.28 1.065-1.847 1.097-.864.056-1.239-.11-1.727.314-.415.368-.179 1.056.173 1.296.48.328 1.17.223 1.21.927.04.703.399.704.823.709.991.011 2.113-.026 2.389.28.276.306.326.683.147 1.454-.178.771-.432 1.128-.865 1.563-.43.434-1.493 1.158-1.503 1.165-.597.332-.592 1.056-.592 1.64v1.59a.29.29 0 0 1-.496.208l-.855-.855a.827.827 0 0 1-.256-.608c0-.76-.155-2.852-.155-3.188 0-.44-.585-.344-.801-.8-.216-.456-.4-1.583-.08-2 .32-.415.56-.4.696-.4.288 0 .412-.337.348-.561-.064-.224-.512-.24-1.016-.28-.76-.055-1.449-.327-1.929-1.35C.045 5.39.006 4.577.001 4.2V0H6Zm10 0v7.83c0 .559-.6.562-1 .17-.312-.296-.5-.5-.5-.5-.224-.136-.787.073-.628.425.088.192 1.88 2.208 1.88 2.208.104.112.056.295-.088.351-.4.16-1.056.553-1.056 1.424 0 .592.256 2.192-1.007 3.175C12.337 16.067 12 15.368 12 15v-2.5c-.224-.208-.592-.217-.592-.513 0-.727.092-.987-.408-.987h-1c-1 0-1.012-1.37-1-2 0-.572.489-1.278 1-1.5.971-.334 1.569-.334 2.097-.27.464.055 1.391.007 1.695-.384.456-.576.343-1.525.007-1.822-.336-.295-.82-.397-.82.199-.002.377 0-.043 0 .34 0 .636-.97.612-.97-.047 0-.256.003-.168 0-.462-.002-.354-.575-.218-.786.065a6.998 6.998 0 0 1-.536.646c-.398.381-1.07.316-1.39.015-.355-.333-.47-1.133.078-1.527.51-.356.834-.166 1.01-.318.175-.152.111-.363.28-.674.175-.457.35-.932 1.423-1.02C13.016 1.856 13.993.013 14 0h2Z"/></svg>