<svg xmlns="http://www.w3.org/2000/svg" fill="currentColor" viewBox="0 0 16 16"><path d="M2.194 11.19a.751.751 0 0 1 1.004 1.115l-.503.453h3.559a.75.75 0 0 1 0 1.5H2.717l.481.434a.751.751 0 0 1-1.004 1.115l-1.946-1.75a.759.759 0 0 1 0-1.117l1.946-1.75Zm10.557.056a.75.75 0 0 1 1.06-.058l1.95 1.752a.759.759 0 0 1 0 1.117l-1.95 1.752a.75.75 0 0 1-1.003-1.118l.481-.432H9.756a.75.75 0 0 1 0-1.501h3.555l-.503-.452a.751.751 0 0 1-.057-1.06ZM9.506 0a3.502 3.502 0 0 1 2.476 5.977 5.8 5.8 0 0 1 2.964 2.973.75.75 0 0 1-1.374.604c-.66-1.502-2.14-2.55-3.857-2.55h-.399a4.232 4.232 0 0 0-3.875 2.55.75.75 0 0 1-1.376-.6 5.769 5.769 0 0 1 1.353-1.91 3.891 3.891 0 0 0-.665-.04c-1.106 0-2.06.755-2.287 1.475a.75.75 0 0 1-1.43-.452c.261-.83.915-1.55 1.749-2.008A2.987 2.987 0 0 1 2 4.002a3.002 3.002 0 0 1 4.64-2.515A3.498 3.498 0 0 1 9.506 0ZM5.003 2.502a1.5 1.5 0 0 0 0 3.001c.527 0 .988-.273 1.257-.687a3.523 3.523 0 0 1-.21-1.887 1.493 1.493 0 0 0-1.047-.427ZM9.506 1.5a2.001 2.001 0 1 0 0 4.002 2.001 2.001 0 0 0 0-4.002Z"/></svg>