<svg xmlns="http://www.w3.org/2000/svg" fill="currentColor" viewBox="0 0 16 16"><path d="M14.72 11.22a.75.75 0 1 1 1.06 1.06l-1.22 1.22 1.22 1.22a.75.75 0 1 1-1.06 1.06l-1.22-1.22-1.22 1.22a.75.75 0 1 1-1.06-1.06l1.22-1.22-1.22-1.22a.75.75 0 0 1 1.06-1.06l1.22 1.22 1.22-1.22ZM13.358 0c.602 0 .802.841.461 1.238L9.5 6.278v3.972a.75.75 0 0 1-.281.586l-2.5 2c-.482.385-1.219.03-1.219-.586V6.277L1.18 1.238C.773.761 1.123 0 1.75 0h11.608ZM6.82 5.512A.75.75 0 0 1 7 6v4.688l1-.8V6a.75.75 0 0 1 .18-.488L11.62 1.5H3.38l3.44 4.012Z"/></svg>