<svg xmlns="http://www.w3.org/2000/svg" fill="currentColor" viewBox="0 0 16 16"><path d="M9.25 0C10.216 0 11 .784 11 1.75V2h1.25c.966 0 1.75.784 1.75 1.75v10.5A1.75 1.75 0 0 1 12.25 16h-8.5A1.75 1.75 0 0 1 2 14.25V3.75C2 2.784 2.784 2 3.75 2H5v-.25C5 .784 5.784 0 6.75 0h2.5Zm-5.5 3.5a.25.25 0 0 0-.25.25v10.5c0 .138.112.25.25.25h8.5a.25.25 0 0 0 .25-.25V3.75a.25.25 0 0 0-.25-.25h-1.27A1.749 1.749 0 0 1 9.25 5h-2.5a1.749 1.749 0 0 1-1.73-1.5H3.75ZM6 10a1 1 0 1 1 0 2 1 1 0 0 1 0-2Zm4.25 0a.75.75 0 0 1 0 1.5h-1.5a.75.75 0 0 1 0-1.5h1.5ZM6 7a1 1 0 1 1 0 2 1 1 0 0 1 0-2Zm4.25 0a.75.75 0 0 1 0 1.5h-1.5a.75.75 0 0 1 0-1.5h1.5Zm-3.5-5.5a.25.25 0 0 0-.25.25v1.5c0 .138.112.25.25.25h2.5a.25.25 0 0 0 .25-.25v-1.5a.25.25 0 0 0-.25-.25h-2.5Z"/></svg>