<svg xmlns="http://www.w3.org/2000/svg" fill="currentColor" viewBox="0 0 16 16"><path d="M7.155 2.006a.75.75 0 0 1 .19 1.488c-1.59.203-2.826 1.748-2.826 3.31 0 .347-.01.672-.02.983a.75.75 0 0 1-.75.726c-1.17 0-2.249.712-2.249 1.994 0 1.1.894 1.993 1.987 1.993h8.382c1.384 0 2.595-1.47 2.63-2.77a.75.75 0 0 1 1.5.04c-.057 2.113-1.941 4.23-4.13 4.23H3.487a3.493 3.493 0 0 1-.472-6.954c0-.08.004-.16.004-.241 0-2.306 1.815-4.503 4.136-4.8Zm7.526.256a.75.75 0 0 1 1.138.976l-3 3.5a.75.75 0 0 1-1.1.042l-1.5-1.5a.75.75 0 0 1 1.061-1.06l.927.926 2.474-2.884Z"/></svg>