<svg xmlns="http://www.w3.org/2000/svg" fill="currentColor" viewBox="0 0 16 16"><path d="M7.813 2c2.085 0 3.828 1.332 4.497 3.168 2.099.363 3.69 2.248 3.69 4.38C16 11.724 14.152 14 11.87 14H3.486a3.493 3.493 0 0 1-.472-6.954c0-.08.004-.16.004-.241A4.8 4.8 0 0 1 7.813 2Zm0 1.5A3.3 3.3 0 0 0 4.52 6.805c0 .346-.01.67-.021.982a.75.75 0 0 1-.749.726c-1.243 0-2.249.712-2.249 1.994 0 1.1.894 1.993 1.987 1.993h8.382c1.473 0 2.621-1.59 2.621-2.962a2.937 2.937 0 0 0-2.79-2.933.75.75 0 0 1-.69-.57C10.655 4.578 9.364 3.5 7.813 3.5Z"/></svg>