<svg xmlns="http://www.w3.org/2000/svg" fill="currentColor" viewBox="0 0 16 16"><path d="M5.25 11a.75.75 0 0 1 0 1.5h-.818l1.544 1.342c1.194.876 2.861.875 4.044.003l1.548-1.345h-.818a.75.75 0 0 1 0-1.5h2.5a.75.75 0 0 1 .75.75v2.5a.75.75 0 0 1-1.5 0v-.572L10.98 15a.725.725 0 0 1-.043.035c-1.723 1.287-4.14 1.285-5.87.001A.777.777 0 0 1 5.023 15L3.5 13.678v.572a.75.75 0 0 1-1.5 0v-2.5a.75.75 0 0 1 .75-.75h2.5ZM8.045 0a3.37 3.37 0 0 1 2.77 1.45 2.865 2.865 0 0 1 4.405 2.416c0 .927-.442 1.749-1.125 2.273a4.064 4.064 0 0 1 1.615 1.815.75.75 0 0 1-1.373.607c-.4-.906-1.395-1.56-2.51-1.561h-.322a5.567 5.567 0 0 1 1.492 1.94.75.75 0 0 1-1.361.628C11.002 8.192 9.6 7.222 7.999 7.222c-1.6 0-3.003.975-3.638 2.353a.75.75 0 0 1-1.363-.627 5.583 5.583 0 0 1 1.495-1.945A2.697 2.697 0 0 0 4.383 7h-.269C3 7 2.007 7.653 1.606 8.557a.75.75 0 0 1-1.371-.609c.392-.885 1.108-1.587 1.977-2.009A2.866 2.866 0 0 1 4.186 1c.435.001.848.101 1.217.275A3.369 3.369 0 0 1 8.045 0Zm0 1.5a1.875 1.875 0 1 0 0 3.75 1.875 1.875 0 0 0 0-3.75Zm-3.86 1a1.366 1.366 0 1 0 .862 2.425 3.36 3.36 0 0 1-.293-2.301 1.36 1.36 0 0 0-.568-.124Zm8.17 0a1.36 1.36 0 0 0-.97.405 3.366 3.366 0 0 1-.19 1.678 1.363 1.363 0 0 0 2.526-.718c0-.754-.611-1.365-1.365-1.365Z"/></svg>