<svg xmlns="http://www.w3.org/2000/svg" fill="currentColor" viewBox="0 0 16 16"><path d="M6.25 2a.75.75 0 1 1 0 1.5H3.868a1.25 1.25 0 0 0-1.165.797L1.847 6.5H4.25a.75.75 0 0 1 0 1.5H1.5v4.25c0 .138.112.25.25.25h10.5a.25.25 0 0 0 .25-.25v-1.5a.75.75 0 0 1 1.5 0v4a1.25 1.25 0 0 1-2.5 0V14h-9v.75a1.25 1.25 0 0 1-2.5 0V7.625c0-.34.063-.679.187-.996l1.118-2.876A2.75 2.75 0 0 1 3.868 2H6.25ZM4 9a1 1 0 1 1 0 2 1 1 0 0 1 0-2Zm6 0a1 1 0 1 1 0 2 1 1 0 0 1 0-2Zm.652-8.477c.382-.696 1.312-.698 1.694-.001l3.514 5.862c.39.712-.082 1.616-.846 1.616H7.987c-.764 0-1.237-.903-.846-1.616l3.511-5.86ZM11.501 6a.75.75 0 1 0 0 1.5.75.75 0 0 0 0-1.5Zm0-4.5a.5.5 0 0 0-.5.5v2.5a.5.5 0 0 0 1 0V2a.5.5 0 0 0-.5-.5Z"/></svg>