<svg xmlns="http://www.w3.org/2000/svg" fill="currentColor" viewBox="0 0 16 16"><path d="M.751 7.982a.75.75 0 0 1 .751.75V11.5c0 .69.56 1.251 1.252 1.251H4.62l-.437-.517a.75.75 0 0 1 .09-1.056.752.752 0 0 1 1.058.09l1.479 1.75a.749.749 0 0 1 0 .966l-1.479 1.75a.75.75 0 1 1-1.148-.967l.437-.516H2.754A2.753 2.753 0 0 1 0 11.499V8.732a.75.75 0 0 1 .751-.75Zm12.495 1.022c.415 0 .75.336.751.75v3.5c0 .966-.785 1.75-1.752 1.75H8.739a.75.75 0 1 1 0-1.5h3.505a.25.25 0 0 0 .25-.25v-3.5a.75.75 0 0 1 .752-.75ZM7.488 11a.5.5 0 1 1 0 1 .5.5 0 0 1 0-1ZM9.74 8.998a.75.75 0 0 1 .75.75v1.502a.75.75 0 0 1-1.501 0V9.748a.75.75 0 0 1 .75-.75ZM5.485 9a.5.5 0 1 1 0 1 .5.5 0 0 1 0-1Zm2.003 0a.5.5 0 1 1 0 1 .5.5 0 0 1 0-1ZM10.673.262a.75.75 0 1 1 1.14.977l-.439.51h1.872A2.753 2.753 0 0 1 16 4.499v2.768a.75.75 0 0 1-1.502 0V4.499c0-.69-.561-1.25-1.252-1.25h-1.873l.44.513a.75.75 0 1 1-1.14.976L9.17 2.988a.75.75 0 0 1 0-.976l1.502-1.75ZM5.485 7a.5.5 0 1 1 0 1 .5.5 0 0 1 0-1Zm2.003 0a.5.5 0 1 1 0 1 .5.5 0 0 1 0-1ZM9.49 7a.5.5 0 1 1 .001 1 .5.5 0 0 1 0-1ZM7.237 1a.75.75 0 1 1 0 1.5H3.732a.25.25 0 0 0-.25.25v3.5a.75.75 0 0 1-1.503 0v-3.5c0-.966.785-1.75 1.753-1.75h3.505Zm.997 3a.75.75 0 1 1 0 1.5H5.735a.75.75 0 1 1 0-1.5h2.499Z"/></svg>