<svg xmlns="http://www.w3.org/2000/svg" fill="currentColor" viewBox="0 0 16 16"><path d="M.75 8.5a.75.75 0 0 1 .75.75v2.5c0 .69.56 1.25 1.25 1.25H3v-.75a.751.751 0 0 1 1.28-.53l1.5 1.5a.75.75 0 0 1 0 1.06l-1.5 1.5A.75.75 0 0 1 3 15.25v-.75h-.25A2.75 2.75 0 0 1 0 11.75v-2.5a.75.75 0 0 1 .75-.75ZM8 3.25a.75.75 0 0 1 .75.75v.75h.75a.75.75 0 0 1 0 1.5H7.183c-.25 0-.433.27-.433.5 0 .243.194.5.45.5h.9c.638 0 1.188.216 1.58.608.385.386.57.896.57 1.397 0 .914-.629 1.682-1.5 1.912V12a.75.75 0 0 1-1.5 0v-.75H6a.75.75 0 0 1 0-1.5h2.1c.312 0 .65-.082.65-.495s-.33-.505-.65-.505h-.9c-1.16 0-1.95-1.005-1.95-2 0-1.106.905-2 2-2V4A.75.75 0 0 1 8 3.25ZM11.72.22A.75.75 0 0 1 13 .75v.75h.25A2.75 2.75 0 0 1 16 4.25v2.5a.75.75 0 0 1-1.5 0v-2.5c0-.69-.56-1.25-1.25-1.25H13v.75a.75.75 0 0 1-1.28.53l-1.5-1.5a.75.75 0 0 1 0-1.06l1.5-1.5Z"/></svg>