<svg xmlns="http://www.w3.org/2000/svg" fill="currentColor" viewBox="0 0 16 16"><path d="M2.39 2c1.365 0 2.73.731 3.473 1.894l1.381 2.07.007.01A2.717 2.717 0 0 0 9.47 7.19h3.808L11.24 5.3a.75.75 0 0 1 1.02-1.1l3.5 3.248a.757.757 0 0 1 0 1.099l-3.5 3.253a.75.75 0 0 1-1.02-1.1l2.095-1.95H10.51c-2.006 0-2.828.56-3.25 1.215l-.006.012-.001-.001-1.379 2.07v-.001C5.137 13.18 3.796 14 2.399 14H.75a.75.75 0 0 1 0-1.5H2.4c.84 0 1.733-.518 2.22-1.275l.006-.011 1.38-2.07a3.623 3.623 0 0 1 1.188-1.152 4.123 4.123 0 0 1-1.198-1.197l-1.38-2.07-.01-.014C4.145 3.983 3.257 3.5 2.39 3.5H.75a.75.75 0 0 1 0-1.5h1.64Z"/></svg>