<svg xmlns="http://www.w3.org/2000/svg" fill="currentColor" viewBox="0 0 16 16"><path d="M13.639 0C14.939 0 16 1.061 16 2.362v7.817c0 1.3-1.061 2.362-2.361 2.362h-9.34l-3 3.226c-.454.489-1.299.156-1.299-.51V2.361A2.367 2.367 0 0 1 2.361 0H13.64ZM2.36 1.5a.866.866 0 0 0-.861.862v10.986l1.979-2.122a.751.751 0 0 1 .494-.185h9.666c.472 0 .861-.39.861-.862V2.362a.866.866 0 0 0-.861-.861H2.36Zm6.89 5.504a.75.75 0 0 1 0 1.5h-4.5a.75.75 0 0 1 0-1.5h4.5Zm2-3.001a.75.75 0 0 1 0 1.5h-6.5a.75.75 0 0 1 0-1.5h6.5Z"/></svg>