<svg xmlns="http://www.w3.org/2000/svg" fill="currentColor" viewBox="0 0 16 16"><path d="M8 1c1.133 0 2.155.472 2.883 1.229a2.976 2.976 0 0 1 4.114 2.747c0 .865-.373 1.642-.963 2.186A4.283 4.283 0 0 1 16 10.75v1.5a.75.75 0 0 1-.75.75h-1.257c.004.083.007.166.007.25v1a.75.75 0 0 1-.75.75H2.75a.75.75 0 0 1-.75-.75v-1c0-.084.003-.167.007-.25H.75a.75.75 0 0 1-.75-.75v-1.5c0-1.485.78-2.824 1.963-3.587A2.966 2.966 0 0 1 1 4.976 2.975 2.975 0 0 1 5.115 2.23 3.987 3.987 0 0 1 8 1Zm-.202 8C5.418 9 3.5 10.911 3.5 13.25v.25h9v-.25C12.5 10.911 10.581 9 8.202 9h-.404ZM4.212 8C2.725 8 1.5 9.253 1.5 10.75v.75h.774A5.837 5.837 0 0 1 5.391 8H4.21Zm6.401 0a5.83 5.83 0 0 1 3.113 3.5h.774v-.75C14.5 9.253 13.275 8 11.788 8h-1.175ZM8 2.5a2.5 2.5 0 1 0 0 5 2.5 2.5 0 0 0 0-5ZM3.975 3.501a1.475 1.475 0 0 0 0 2.95 1.5 1.5 0 0 0 .286-.031 3.99 3.99 0 0 1 .017-2.887 1.52 1.52 0 0 0-.303-.032Zm8.046 0c-.103 0-.204.011-.301.031a3.985 3.985 0 0 1 .017 2.892 1.476 1.476 0 1 0 .284-2.923Z"/></svg>