<svg xmlns="http://www.w3.org/2000/svg" fill="currentColor" viewBox="0 0 16 16"><path d="M8 0c.74 0 1.385.403 1.73 1h2.77a.75.75 0 0 1 .75.75v1.843c.617 1.419 1.282 2.88 1.653 4.386.05.206.097.44.097.646C15 9.983 13.83 11 12.5 11S10 9.983 10 8.625c0-.207.046-.44.097-.646.37-1.506 1.036-2.967 1.653-4.386V2.5H9.935A2 2 0 0 1 8.75 3.853V14.5h6.5a.75.75 0 0 1 0 1.5H.75a.75.75 0 0 1 0-1.5h6.5V3.853A2 2 0 0 1 6.065 2.5H4.25v1.093c.617 1.419 1.282 2.88 1.653 4.386.05.206.097.44.097.646C6 9.983 4.83 11 3.5 11S1 9.983 1 8.625c0-.207.046-.44.097-.646.37-1.506 1.036-2.967 1.653-4.386V1.75A.75.75 0 0 1 3.5 1h2.77C6.615.403 7.26 0 8 0Zm3.648 8h1.704c-.191-.629-.537-1.536-.852-2.313-.315.777-.66 1.684-.852 2.313Zm-9 0h1.704c-.239-.786-.544-1.552-.852-2.313-.308.761-.613 1.527-.852 2.313Z"/></svg>