<svg xmlns="http://www.w3.org/2000/svg" fill="currentColor" viewBox="0 0 16 16"><path d="M12.263.038a.75.75 0 0 1 .987.712v1.843c.617 1.42 1.282 2.88 1.653 4.387.05.205.097.438.097.645C15 8.983 13.83 10 12.5 10S10 8.983 10 7.625c0-.207.046-.44.097-.645.37-1.507 1.036-2.968 1.653-4.387v-.802l-1.79.596a2 2 0 0 1-1.21 1.466V14.5h6.5a.75.75 0 0 1 0 1.5H.75a.75.75 0 0 1 0-1.5h6.5V3.853a1.996 1.996 0 0 1-.586-.367L4.25 4.29c0 .425-.005.889-.005 1.291.22.506 1.005 2.335 1.444 3.67.144.436.31.909.311 1.373C6 11.983 4.83 13 3.5 13S1 11.983 1 10.625c0-.464.167-.937.31-1.373.44-1.335 1.224-3.164 1.444-3.67 0-.582.002-1.312.006-1.95a.75.75 0 0 1 .503-.594l2.743-.915C5.937.99 6.86 0 8 0c.698 0 1.312.359 1.67.902l2.593-.864ZM2.648 10h1.704c-.191-.628-.538-1.536-.852-2.312-.314.776-.661 1.684-.852 2.312Zm9-3h1.704c-.191-.628-.538-1.536-.852-2.312-.314.776-.661 1.684-.852 2.312Z"/></svg>