<svg xmlns="http://www.w3.org/2000/svg" fill="currentColor" viewBox="0 0 16 16"><path d="M12.25 1a.75.75 0 0 1 .75.75V3h1.748c.662 0 1.278.523 1.251 1.276v.004c-.09 2.21-.755 3.511-1.844 4.174-.839.511-1.82.546-2.524.545-.352.493-.61.809-.813 1.22a2.928 2.928 0 0 0-.268.88c1.38.364 2.45 1.638 2.45 3.151a.75.75 0 0 1-.75.75h-8.5a.75.75 0 0 1-.75-.75c0-1.527 1.09-2.81 2.488-3.16a2.85 2.85 0 0 0-.271-.874c-.205-.41-.47-.723-.83-1.217-.705.002-1.695-.03-2.542-.545C.756 7.791.09 6.491 0 4.28v-.004C-.025 3.523.591 3 1.252 3H3V1.75A.75.75 0 0 1 3.75 1h8.5Zm-6 11.496c-.668 0-1.28.415-1.57 1.004h6.64c-.29-.588-.902-1.004-1.57-1.004h-3.5ZM4.5 4.25c0 1.43.273 2.735 1.122 3.897.283.388.661.85.936 1.398.206.412.356.874.427 1.43l2.067.01c.07-.553.218-1.014.42-1.425.27-.551.641-1.015.92-1.406C11.23 6.984 11.5 5.68 11.5 4.25V2.5h-7v1.75Zm-2.983.25c.12 1.748.65 2.394 1.108 2.673.266.162.564.24.893.282-.295-.75-.491-1.694-.514-2.955H1.517Zm11.48 0c-.023 1.26-.218 2.204-.509 2.954.327-.041.623-.12.887-.281.459-.28.988-.926 1.108-2.673h-1.487Z"/></svg>