<svg xmlns="http://www.w3.org/2000/svg" fill="currentColor" viewBox="0 0 16 16"><path d="M.22.22a.75.75 0 0 1 1.06 0l2.554 2.553a2.75 2.75 0 0 1 3.875.026l5.486 5.524a2.75 2.75 0 0 1 .031 3.843l2.554 2.554a.75.75 0 1 1-1.06 1.06l-2.544-2.544a2.747 2.747 0 0 1-3.859-.034L2.82 7.682a2.75 2.75 0 0 1-.039-3.84L.22 1.28a.75.75 0 0 1 0-1.06Zm6.932 9.687 2.229 2.238a1.25 1.25 0 0 0 1.78-.01l.978-1a1.25 1.25 0 0 0-.007-1.754L9.913 7.146l-2.76 2.761Zm-.508-6.05a1.25 1.25 0 0 0-1.778.002l-.988 1.005a1.25 1.25 0 0 0 .005 1.76l2.212 2.22 2.76-2.761-2.21-2.227Z"/></svg>