<svg xmlns="http://www.w3.org/2000/svg" fill="currentColor" viewBox="0 0 16 16"><path d="M12.25 1c1.288 0 2.365.887 2.664 2.082A.75.75 0 0 1 16 3.75v2.501a.75.75 0 0 1-.75.75.744.744 0 0 1-.25-.047v2.092a.746.746 0 0 1 1 .705v2.501a.742.742 0 0 1-1.086.667A2.748 2.748 0 0 1 12.25 15h-8.5a2.749 2.749 0 0 1-2.643-1.996H.75a.75.75 0 0 1 0-1.5H1V9.999H.75a.75.75 0 0 1 0-1.5H1V7.25H.75a.75.75 0 0 1 0-1.5H1V4.501H.75a.75.75 0 0 1 0-1.5h.356A2.748 2.748 0 0 1 3.75 1h8.5Zm-8.5 1.5c-.69 0-1.25.56-1.25 1.25v8.5c0 .69.56 1.25 1.25 1.25h8.5c.69 0 1.25-.56 1.25-1.25v-8.5c0-.69-.56-1.25-1.25-1.25h-8.5Zm7.5 1.5a.75.75 0 0 1 0 1.5h-6.5a.75.75 0 0 1 0-1.5h6.5Z"/></svg>