<svg xmlns="http://www.w3.org/2000/svg" fill="currentColor" viewBox="0 0 16 16"><path d="M11.25 0C12.216 0 13 .784 13 1.75v4.5a.75.75 0 0 1-1.5 0v-4.5a.25.25 0 0 0-.25-.25h-8.5a.25.25 0 0 0-.25.25v12.5c0 .138.112.25.25.25h3.495a.75.75 0 0 1 0 1.5H2.75A1.75 1.75 0 0 1 1 14.25V1.75C1 .784 1.784 0 2.75 0h8.5Zm1.25 9a.75.75 0 0 1 .75.75v2h2c.422 0 .75.326.75.75s-.336.75-.75.75h-2v2a.75.75 0 0 1-1.5 0v-2h-2a.75.75 0 0 1 0-1.5h2v-2A.75.75 0 0 1 12.5 9Zm-5.75.5a.75.75 0 0 1 0 1.5h-2a.75.75 0 0 1 0-1.5h2Zm2.5-3a.75.75 0 0 1 0 1.5h-4.5a.75.75 0 0 1 0-1.5h4.5Zm0-3a.75.75 0 0 1 0 1.5h-4.5a.75.75 0 0 1 0-1.5h4.5Z"/></svg>