<svg xmlns="http://www.w3.org/2000/svg" fill="currentColor" viewBox="0 0 16 16"><path d="M7.25 1a.75.75 0 0 1 0 1.5h-4.5c-.69 0-1.25.56-1.25 1.25V5h5.75a.75.75 0 0 1 0 1.5H1.5v5.75c0 .69.56 1.25 1.25 1.25h8.5c.69 0 1.25-.56 1.25-1.25v-2.5a.75.75 0 0 1 1.5 0v2.5A2.75 2.75 0 0 1 11.25 15h-8.5A2.75 2.75 0 0 1 0 12.25v-8.5A2.75 2.75 0 0 1 2.75 1h4.5Zm5.278.3c.18-.4.74-.4.92 0l.6 1.32h.02l1.5.22c.41.06.58.56.29.86l-1.09 1.16.26 1.54c.07.42-.37.74-.74.53l-1.29-.73-1.29.73a.502.502 0 0 1-.74-.53l.26-1.54-1.09-1.16c-.28-.3-.11-.8.29-.86l1.5-.22.6-1.32Z"/></svg>