<svg xmlns="http://www.w3.org/2000/svg" fill="currentColor" viewBox="0 0 16 16"><path d="M11.25 0C12.216 0 13 .784 13 1.75v5.5a.75.75 0 0 1-1.5 0v-5.5a.25.25 0 0 0-.25-.25H6.71a.25.25 0 0 0-.19.087L6 2.193V5.25a.75.75 0 0 1-.75.75H2.738c-.089.104-.238.37-.238.37v7.88c0 .138.112.25.25.25h3.5a.75.75 0 0 1 0 1.5h-3.5A1.75 1.75 0 0 1 1 14.25V6.37c0-.417.15-.821.42-1.139L5.38.611A1.751 1.751 0 0 1 6.71 0h4.54Zm1.22 10.3.628 1.36 1.46.208c.406.058.584.57.3.867l-1.063 1.116.267 1.545a.52.52 0 0 1-.761.539l-1.3-.729-1.3.729a.521.521 0 0 1-.762-.539l.266-1.545-1.062-1.116a.521.521 0 0 1 .3-.867l1.46-.208.665-1.426a.521.521 0 0 1 .902.066Z"/></svg>