<svg xmlns="http://www.w3.org/2000/svg" fill="currentColor" viewBox="0 0 16 16"><path d="M7.5 1a.75.75 0 0 1 0 1.5c-3.334 0-6 2.666-6 6s2.666 6 6 6 6-2.666 6-6a.75.75 0 0 1 1.5 0c0 4.162-3.338 7.5-7.5 7.5A7.475 7.475 0 0 1 0 8.5C0 4.338 3.338 1 7.5 1Zm-.25 3a.75.75 0 0 1 .75.75v3.826l1.65 1.04a.75.75 0 0 1-.8 1.269l-2-1.26a.751.751 0 0 1-.35-.635V4.75A.75.75 0 0 1 7.25 4Zm5.25-4a.75.75 0 0 1 .75.75v2h2c.395 0 .75.326.75.75s-.348.75-.75.75h-2v2a.75.75 0 0 1-1.5 0v-2h-2a.75.75 0 0 1 0-1.5h2v-2A.75.75 0 0 1 12.5 0Z"/></svg>