<svg xmlns="http://www.w3.org/2000/svg" fill="currentColor" viewBox="0 0 16 16"><path d="M12.499 9a.75.75 0 0 1 .75.75v2l2.078.004a.75.75 0 0 1 0 1.492l-2.078.004v2a.75.75 0 0 1-1.5 0v-2H9.747a.75.75 0 1 1 0-1.5h2v-2a.75.75 0 0 1 .75-.75ZM7.497 0a.75.75 0 0 1 .75.75v1.302a5.283 5.283 0 0 1 2.571 1.1l.891-.923a.751.751 0 0 1 1.08 1.042l-.934.967c.39.54.686 1.153.867 1.814a.75.75 0 0 1-1.43.448h-.9c-.232.337-.442.75-.911.75h-.978c-.47 0-.676-.411-.905-.75h-.203c-.228.339-.435.75-.904.75h-.978c-.47 0-.68-.413-.912-.75h-.98c-.576 2.1.724 4.228 2.815 4.774a.75.75 0 1 1-.38 1.452 5.567 5.567 0 0 1-1.868-.882l-.906.93a.75.75 0 0 1-1.074-1.047l.902-.926A5.287 5.287 0 0 1 2.046 8.25H.75a.75.75 0 1 1 0-1.5h1.298A5.47 5.47 0 0 1 3.11 4.178l-.896-.898a.75.75 0 1 1 1.06-1.06l.898.897a5.474 5.474 0 0 1 2.574-1.065V.75a.75.75 0 0 1 .75-.75ZM5.243 8.194a.75.75 0 0 1 1.004-.002c.63.63 1.806.854 2.413.091a.75.75 0 0 1 1.175.934c-.589.739-1.414 1.033-2.338 1.033-.88 0-1.683-.308-2.307-.997a.749.749 0 0 1 .053-1.059ZM7.497 3.5A3.993 3.993 0 0 0 4.375 5h6.178a3.838 3.838 0 0 0-3.056-1.5Z"/></svg>