<svg xmlns="http://www.w3.org/2000/svg" fill="currentColor" viewBox="0 0 16 16"><path d="M10.25 0a.75.75 0 0 1 .75.75V2h1.25c.966 0 1.75.784 1.75 1.75v10.5A1.75 1.75 0 0 1 12.25 16h-.5a.75.75 0 0 1 0-1.5h.5a.25.25 0 0 0 .25-.25V3.75a.25.25 0 0 0-.25-.25H11v.75a.75.75 0 0 1-.75.75h-4.5A.75.75 0 0 1 5 4.25V3.5H3.75a.25.25 0 0 0-.25.25v10.5c0 .138.112.25.25.25h.5a.75.75 0 0 1 0 1.5h-.5A1.75 1.75 0 0 1 2 14.25V3.75C2 2.784 2.784 2 3.75 2H5V.75A.75.75 0 0 1 5.75 0h4.5Zm-.78 12.22a.75.75 0 0 1 1.06 1.06l-2.003 2a.772.772 0 0 1-1.06 0l-1.997-2a.75.75 0 0 1 1.06-1.06l1.468 1.47 1.472-1.47ZM10.25 9a.75.75 0 0 1 0 1.5h-4.5a.75.75 0 0 1 0-1.5h4.5Zm0-3a.75.75 0 0 1 0 1.5h-4.5a.75.75 0 0 1 0-1.5h4.5ZM6.5 3.5h3v-2h-3v2Z"/></svg>