<svg xmlns="http://www.w3.org/2000/svg" fill="currentColor" viewBox="0 0 16 16"><path d="M6.25 14.5a.75.75 0 0 1 0 1.5h-4.5a.75.75 0 0 1 0-1.5h4.5Zm6.219-4.2.628 1.36 1.46.208c.406.058.584.57.3.867l-1.063 1.116.266 1.545a.52.52 0 0 1-.76.539l-1.3-.729-1.3.729a.521.521 0 0 1-.762-.539l.266-1.545-1.062-1.116a.522.522 0 0 1 .3-.867l1.46-.208.665-1.426a.521.521 0 0 1 .902.066ZM6.25 12a.75.75 0 0 1 0 1.5h-4.5a.75.75 0 0 1 0-1.5h4.5Zm0-2.5a.75.75 0 0 1 0 1.5h-4.5a.75.75 0 0 1 0-1.5h4.5Zm6.5-9.5a.75.75 0 0 1 .75.75V1l.827.004A.75.75 0 0 1 14.25 2.5h-2.317c-.25 0-.433.269-.433.5 0 .243.194.5.45.5h.9c.638 0 1.188.215 1.58.607.78.782.757 2.05-.014 2.801-.25.244-.562.415-.916.509v.333a.75.75 0 0 1-1.5 0V7.5h-1.25a.75.75 0 0 1 0-1.5h2.1c.312 0 .65-.137.65-.495 0-.362-.33-.505-.65-.505h-.9C10.79 5 10 3.994 10 3c0-1.106.905-2 2-2V.75a.75.75 0 0 1 .75-.75ZM4 4a2.5 2.5 0 0 1 2.5 2.5.5.5 0 0 1-.5.5H2a.515.515 0 0 1-.5-.5A2.5 2.5 0 0 1 4 4Zm0-4a1.5 1.5 0 1 1 0 3 1.5 1.5 0 0 1 0-3Z"/></svg>