<svg xmlns="http://www.w3.org/2000/svg" fill="currentColor" viewBox="0 0 16 16"><path d="M13.22 10.22a.75.75 0 0 1 1.06 0l1.5 1.5a.75.75 0 1 1-1.06 1.06l-1.5-1.5a.75.75 0 0 1 0-1.06Zm1.5-6a.75.75 0 1 1 1.06 1.06l-5.5 5.5a.757.757 0 0 1-1.09-.032L5.742 6.871l-4.438 4.884a.75.75 0 0 1-1.11-1.01L5.251 5.19a.758.758 0 0 1 1.06.063l3.47 3.905L14.72 4.22ZM6 9a1 1 0 1 1 0 2 1 1 0 0 1 0-2Zm4-4a1 1 0 1 1 0 2 1 1 0 0 1 0-2ZM.22 3.22a.75.75 0 0 1 1.06 0l1.5 1.5a.75.75 0 0 1-1.06 1.06l-1.5-1.5a.75.75 0 0 1 0-1.06Z"/></svg>