<svg xmlns="http://www.w3.org/2000/svg" fill="currentColor" viewBox="0 0 16 16"><path d="M10.952 5.062a.751.751 0 0 1 .562-.014l4 1.5A.75.75 0 0 1 16 7.25v7.5a.75.75 0 0 1-1.5 0V7.77l-3.184-1.195-1.737.993 2.908.97A.75.75 0 0 1 13 9.25v6a.75.75 0 0 1-.987.712l-4.5-1.5A.75.75 0 0 1 7 13.75v-6a.75.75 0 0 1 .378-.651l3.574-2.037ZM8.5 13.209l3 1V9.791l-3-1v4.418ZM6.5 0c.199 0 .39.08.53.22L8.31 1.5h4.94A2.75 2.75 0 0 1 16 4.25a.75.75 0 0 1-1.5 0c0-.69-.56-1.25-1.25-1.25H8a.75.75 0 0 1-.53-.22L6.19 1.5H2.75c-.69 0-1.25.56-1.25 1.25v8.5c0 .69.56 1.25 1.25 1.25h1.5a.75.75 0 0 1 0 1.5h-1.5A2.75 2.75 0 0 1 0 11.25v-8.5A2.75 2.75 0 0 1 2.75 0H6.5Z"/></svg>