<svg xmlns="http://www.w3.org/2000/svg" fill="currentColor" viewBox="0 0 16 16"><path d="M8 0c3.405 0 6.31 1.914 7.453 4.988a.75.75 0 0 1-1.406.524C13.139 3.069 10.827 1.5 8 1.5a6.5 6.5 0 0 0 0 13c.067 0 .133.007.2.002a.75.75 0 1 1 .1 1.496c-.1.007-.2.002-.3.002A8 8 0 1 1 8 0Zm5.5 12a2.5 2.5 0 0 1 2.5 2.5.5.5 0 0 1-.5.5h-4a.515.515 0 0 1-.5-.5 2.5 2.5 0 0 1 2.5-2.5ZM8.25 3a.75.75 0 0 1 .75.75v4.24a.75.75 0 0 1-.298.599l-3 2.263a.75.75 0 0 1-.904-1.197L7.5 7.616V3.75A.75.75 0 0 1 8.25 3Zm5.25 5a1.5 1.5 0 1 1 0 3 1.5 1.5 0 0 1 0-3Z"/></svg>