<svg xmlns="http://www.w3.org/2000/svg" fill="currentColor" viewBox="0 0 16 16"><path d="M9.75 12a.75.75 0 0 1 .75.75v2.5a.75.75 0 0 1-1.5 0v-2.5a.75.75 0 0 1 .75-.75Zm2.75-3a.75.75 0 0 1 .75.75l-.004 5.577a.75.75 0 0 1-1.492 0L11.75 9.75A.75.75 0 0 1 12.5 9Zm2.75 2a.75.75 0 0 1 .75.75v3.5a.75.75 0 0 1-1.5 0v-3.5a.75.75 0 0 1 .75-.75Zm-10-2C6.216 9 7 9.784 7 10.75v1.75a1.75 1.75 0 0 1-1.75 1.75H2.81l-1.53 1.53c-.463.463-1.28.125-1.28-.53v-4.5C0 9.784.784 9 1.75 9h3.5Zm-3.5 1.5a.25.25 0 0 0-.25.25v2.69l.584-.564a.75.75 0 0 1 .416-.126h2.75a.25.25 0 0 0 .25-.25v-1.75a.25.25 0 0 0-.25-.25h-3.5Zm2.5-5a.75.75 0 0 1 0 1.5H.75a.75.75 0 0 1 0-1.5h3.5ZM13.5 4A2.5 2.5 0 0 1 16 6.5a.5.5 0 0 1-.5.5h-4a.515.515 0 0 1-.5-.5A2.5 2.5 0 0 1 13.5 4ZM6.327 2.754a.75.75 0 0 1 0 1.492L.75 4.25a.75.75 0 0 1 0-1.5l5.577.004ZM13.5 0a1.5 1.5 0 1 1 0 3 1.5 1.5 0 0 1 0-3ZM6.327.004a.75.75 0 0 1 0 1.492L.75 1.5a.75.75 0 0 1 0-1.5l5.577.004Z"/></svg>