<svg xmlns="http://www.w3.org/2000/svg" fill="currentColor" viewBox="0 0 16 16"><path d="M15.25 10a.75.75 0 0 1 .75.75v4.5a.75.75 0 0 1-.75.75h-6.5a.75.75 0 0 1-.75-.75v-4.5a.75.75 0 0 1 .75-.75h6.5Zm-2.962 2.942a.75.75 0 0 1-.576 0L9.5 12.021V14.5h5v-2.48l-2.212.922ZM8 0a4 4 0 0 1 2.617 7.022c.38.173.737.385 1.068.631a.75.75 0 0 1-.897 1.202A4.307 4.307 0 0 0 8.202 8h-.404C5.418 8 3.5 9.911 3.5 12.25v.25h1.75a.75.75 0 0 1 0 1.5h-2.5a.75.75 0 0 1-.75-.75c0-.416-.011-.834.007-1.25H.75a.75.75 0 0 1-.75-.75v-1.5c0-1.485.78-2.824 1.964-3.587A2.965 2.965 0 0 1 1 3.975a2.975 2.975 0 0 1 4.116-2.746A3.988 3.988 0 0 1 8 0ZM4.212 7C2.725 7 1.5 8.253 1.5 9.75v.75h.774A5.85 5.85 0 0 1 5.398 7H4.212ZM8 1.5a2.5 2.5 0 1 0 0 5 2.5 2.5 0 0 0 0-5Zm-4.025 1a1.475 1.475 0 1 0 .286 2.92 3.99 3.99 0 0 1 .018-2.888c-.098-.02-.2-.032-.304-.032Z"/></svg>