<svg xmlns="http://www.w3.org/2000/svg" fill="currentColor" viewBox="0 0 16 16"><path d="M12.25 1c1.288 0 2.365.887 2.664 2.082A.75.75 0 0 1 16 3.75v2.5a.75.75 0 0 1-.75.75.745.745 0 0 1-.25-.046v2.09a.746.746 0 0 1 1 .706v2.5a.75.75 0 0 1-.75.75.742.742 0 0 1-.336-.083A2.747 2.747 0 0 1 12.25 15h-8.5a2.747 2.747 0 0 1-2.447-1.5H.75a.75.75 0 0 1 0-1.5H1v-1.5H.75a.75.75 0 0 1 0-1.5H1V7.5H.75a.75.75 0 0 1 0-1.5H1V4.5H.75a.75.75 0 0 1 0-1.5h.356A2.749 2.749 0 0 1 3.75 1h8.5Zm-8.5 1.5c-.69 0-1.25.56-1.25 1.25v8.5c0 .69.56 1.25 1.25 1.25h8.5c.69 0 1.25-.56 1.25-1.25v-8.5c0-.69-.56-1.25-1.25-1.25h-8.5ZM8 8a2.5 2.5 0 0 1 2.5 2.5.5.5 0 0 1-.5.5H6a.515.515 0 0 1-.5-.5A2.5 2.5 0 0 1 8 8Zm0-4a1.5 1.5 0 1 1 0 3 1.5 1.5 0 0 1 0-3Z"/></svg>