<svg xmlns="http://www.w3.org/2000/svg" fill="currentColor" viewBox="0 0 16 16"><path d="M8.25 0a.75.75 0 0 1 0 1.5H6.71a.25.25 0 0 0-.19.087L6 2.193V4.25A1.75 1.75 0 0 1 4.25 6H2.738c-.089.104-.238.37-.238.37v7.88c0 .138.112.25.25.25h8.5a.25.25 0 0 0 .25-.25v-2a.75.75 0 0 1 1.5 0v2A1.75 1.75 0 0 1 11.25 16h-8.5A1.75 1.75 0 0 1 1 14.25V6.37c0-.417.15-.821.42-1.139L5.38.611A1.751 1.751 0 0 1 6.71 0h1.54ZM7 10a2.5 2.5 0 0 1 2.5 2.5.5.5 0 0 1-.5.5H5a.515.515 0 0 1-.5-.5A2.5 2.5 0 0 1 7 10Zm6.75-10a.75.75 0 0 1 .75.75v.75h.75a.75.75 0 0 1 0 1.5h-2.317c-.25 0-.433.269-.433.5 0 .243.194.5.45.5h.9c.638 0 1.188.215 1.58.607.78.782.757 2.05-.014 2.801-.25.244-.562.415-.916.509v.833a.75.75 0 0 1-1.5 0V8h-1.25a.75.75 0 0 1 0-1.5h2.1c.312 0 .65-.137.65-.495 0-.362-.33-.505-.65-.505h-.9c-1.16 0-1.95-1.006-1.95-2 0-1.106.87-2 2-2V.75a.75.75 0 0 1 .75-.75ZM7 6a1.5 1.5 0 1 1 0 3 1.5 1.5 0 0 1 0-3Z"/></svg>