<svg xmlns="http://www.w3.org/2000/svg" fill="currentColor" viewBox="0 0 16 16"><path d="M9.5 11a2.5 2.5 0 0 1 2.385 1.75h3.365a.75.75 0 0 1 0 1.5h-3.365A2.5 2.5 0 1 1 9.5 11Zm0 1.5a1 1 0 1 0 0 2 1 1 0 0 0 0-2Zm-5 .25a.75.75 0 0 1 0 1.5H.75a.75.75 0 0 1 0-1.5H4.5ZM4.5 6a2.5 2.5 0 1 1-2.45 3H.75a.75.75 0 0 1 0-1.5h1.46A2.499 2.499 0 0 1 4.5 6Zm0 1.5a1 1 0 1 0 0 2 1 1 0 0 0 0-2Zm10.75 0a.75.75 0 0 1 0 1.5h-5.5a.75.75 0 0 1 0-1.5h5.5ZM11.5 0a2.5 2.5 0 0 1 2.45 2h1.3a.75.75 0 0 1 0 1.5h-1.46A2.499 2.499 0 0 1 9 2.5 2.5 2.5 0 0 1 11.5 0ZM6.25 2a.75.75 0 0 1 0 1.5H.75a.75.75 0 0 1 0-1.5h5.5Zm5.25-.5a1 1 0 1 0 0 2 1 1 0 0 0 0-2Z"/></svg>