<svg xmlns="http://www.w3.org/2000/svg" fill="currentColor" viewBox="0 0 16 16"><path d="M7.307 0c.974 0 1.764.784 1.764 1.75V2h1.165C11.21 2 12 2.784 12 3.75v.5c0 .414-.338.75-.756.75a.753.753 0 0 1-.756-.75v-.5a.251.251 0 0 0-.252-.25H9.051A1.758 1.758 0 0 1 7.307 5h-2.52a1.758 1.758 0 0 1-1.744-1.5h-1.28a.251.251 0 0 0-.251.25v10.5c0 .138.113.25.252.25h.504c.417 0 .756.336.756.75s-.339.75-.756.75h-.504A1.757 1.757 0 0 1 0 14.25V3.75C0 2.784.79 2 1.764 2h1.26v-.25c0-.966.79-1.75 1.764-1.75h2.52ZM10.9 7.543a.761.761 0 0 1 1.012.05l1.598 1.585a.752.752 0 0 1 .001 1.06L7.93 15.78a.76.76 0 0 1-.534.22h-1.6a.753.753 0 0 1-.756-.75v-1.583c0-.199.08-.39.222-.53L10.9 7.543Zm-4.35 6.434v.523h.53l4.826-4.792-.53-.523-4.826 4.792ZM5.291 9.5c.418 0 .756.336.756.75s-.338.75-.756.75H3.78a.753.753 0 0 1-.756-.75c0-.414.338-.75.756-.75h1.51Zm8.888-4.281 1.599 1.584a.745.745 0 0 1 .002 1.06l-.794.791a.783.783 0 0 1-1.07.002l-1.599-1.584a.745.745 0 0 1-.002-1.06l.91-.885a.781.781 0 0 1 .954.092ZM8.315 6.5c.418 0 .756.336.756.75S8.733 8 8.315 8H3.78a.753.753 0 0 1-.756-.75c0-.414.338-.75.756-.75h4.535Zm-3.527-5a.251.251 0 0 0-.252.25v1.5c0 .138.112.25.252.25h2.52a.25.25 0 0 0 .251-.25v-1.5a.251.251 0 0 0-.252-.25h-2.52Z"/></svg>