<svg xmlns="http://www.w3.org/2000/svg" fill="currentColor" viewBox="0 0 16 16"><path d="M12 0a.75.75 0 0 1 .62.326l3.25 4.752a.75.75 0 0 1-.018.871l-7.25 9.753a.756.756 0 0 1-1.204 0L.148 5.95a.75.75 0 0 1-.017-.871L3.437.254A.75.75 0 0 1 4 0h8ZM1.67 5.484 8 13.998l6.328-8.514L11.605 1.5h-7.21L1.671 5.484Zm7.5-2.25a.35.35 0 0 1 .66 0c.37 1.084.85 1.575 1.93 1.937.32.11.32.562 0 .662-1.08.371-1.57.853-1.93 1.936a.35.35 0 0 1-.66 0c-.37-1.083-.85-1.575-1.93-1.936-.32-.11-.32-.562 0-.662 1.08-.372 1.57-.853 1.93-1.937Z"/></svg>