<svg xmlns="http://www.w3.org/2000/svg" fill="currentColor" viewBox="0 0 16 16"><path d="M6.182 1.03c.555-.162 1.088.366.933.922a5.663 5.663 0 0 0 1.423 5.524c1.508 1.517 3.312 2.059 5.542 1.542a.758.758 0 0 1 .89.94c-.329 1.136-.894 2.073-1.774 2.953a7.149 7.149 0 0 1-10.1 0 7.128 7.128 0 0 1-.013-10.084c.903-.915 1.992-1.477 3.099-1.798Zm-.763 1.915a5.18 5.18 0 0 0-1.267.936l-.002.003a5.629 5.629 0 0 0-.192 7.757c2.172 2.274 5.899 2.487 8.175.21a5.61 5.61 0 0 0 .909-1.165c-2.102.146-4.095-.66-5.578-2.142C5.926 7.007 5.26 4.947 5.419 2.945Z"/></svg>