<svg xmlns="http://www.w3.org/2000/svg" fill="currentColor" viewBox="0 0 16 16"><path d="M10.5 14.686 8.372 15.9a.75.75 0 0 1-.744 0L5.5 14.686v-3.728l1.88 1.074c.384.22.856.22 1.24 0l1.88-1.074v3.728ZM4 10.349v3.802l-3-2V8.35l3 2Zm11 1.802-3 2V10.35l3-2v3.802Zm-4.5-5.337v2.372L8 10.614 5.5 9.186V6.814L8 5.386l2.5 1.428ZM6.71 4.221 4.589 5.549A1.25 1.25 0 0 0 4 6.609v1.605l-3-1.5V4.25a.75.75 0 0 1 .378-.651L3.5 2.386 6.71 4.22Zm7.912-.622A.75.75 0 0 1 15 4.25v2.464l-3 1.5V6.608c0-.43-.222-.83-.588-1.06L9.29 4.222l3.21-1.836 2.122 1.213ZM7.717.056a.75.75 0 0 1 .655.043l2.89 1.651L8 3.614 4.738 1.75 7.717.056Z"/></svg>