<svg xmlns="http://www.w3.org/2000/svg" fill="currentColor" viewBox="0 0 16 16"><path d="M11.25 0a.75.75 0 0 1 .75.75V2c1.583 0 3 1.058 3 2.75v.5a.75.75 0 0 1-1.5 0v-.5c0-.868-.741-1.25-1.5-1.25v.75a.75.75 0 0 1-1.5 0V3.5h-5v.75a.75.75 0 0 1-1.5 0V3.5c-.759 0-1.5.382-1.5 1.25V6h1.82a.75.75 0 0 1 0 1.5H2.5v5.75c0 .69.56 1.25 1.25 1.25h.5a.75.75 0 0 1 0 1.5h-.5A2.75 2.75 0 0 1 1 13.25v-8.5C1 3.058 2.417 2 4 2V.75a.75.75 0 0 1 1.5 0V2h5V.75a.75.75 0 0 1 .75-.75ZM11 6a5 5 0 1 1 0 10 5 5 0 0 1 0-10Zm0 1.5a3.5 3.5 0 1 0 0 7 3.5 3.5 0 0 0 0-7Zm-.25 1a.75.75 0 0 1 .75.75v1.639l.969.775a.75.75 0 0 1-.938 1.172l-1.25-1A.75.75 0 0 1 10 11.25v-2a.75.75 0 0 1 .75-.75Z"/></svg>