<svg xmlns="http://www.w3.org/2000/svg" fill="currentColor" viewBox="0 0 16 16"><path d="M12.821 3.999c.492.4 1.045.991 1.145 1.647.176 1.16-.256 2.314-1.03 3.172a5.2 5.2 0 0 1-.536.511c.665.77.775 1.812.115 2.647a1.943 1.943 0 0 1-1.89.698 1.5 1.5 0 0 1-.524.763h.001c-.45.381-1.033.57-1.617.462-.264.613-.86.974-1.51 1.077a1.799 1.799 0 0 1-1.593-.522l-.012-.012-3.445-3.6C1.325 10.174 1 9.275 1 8.322c0-1.05.379-1.853 1.024-2.625l.828-.908A.75.75 0 0 1 3.961 5.8l-.828.909C2.72 7.188 2.5 7.77 2.5 8.322c0 .659.238 1.219.608 1.59l.012.01 3.323 3.473c.287.289.857.083.66-.34-.189-.313-.1-.8.17-1.007.314-.242.752-.222 1.012.077.153.175.312.306.565.306.283 0 .425-.364.239-.55a.75.75 0 0 1 .945-1.155l.455.302c.258.162.597.277.85.017.142-.146.202-.42.06-.582-.682-.776-1.392-1.522-2.101-2.272l-.598.961-.013.02a1.753 1.753 0 0 1-1.452.778h-.869a.75.75 0 0 1-.75-.75V6.213c0-1.28.878-2.373 2.106-2.676l2.18-.531c1.01-.122 2.153.368 2.92.993Zm-4.74.994c-.57.141-.965.643-.965 1.22V8.45c.122 0 .247.005.323-.11l1.148-1.837a.758.758 0 0 1 1.132-.049l1.67 1.765c.137-.11.288-.245.433-.406.437-.483.981-1.504.54-2.134-.513-.734-1.41-1.155-2.293-1.176l-1.988.49ZM2.22 1.22a.75.75 0 1 1 1.06 1.06l-2 2A.75.75 0 0 1 .22 3.22l2-2Zm10.5 0a.75.75 0 0 1 1.06 0l2 2a.75.75 0 1 1-1.06 1.06l-2-2a.75.75 0 0 1 0-1.06Z"/></svg>