<svg xmlns="http://www.w3.org/2000/svg" fill="currentColor" viewBox="0 0 16 16"><path d="m4.78 9.22 2.5 2.5a.75.75 0 0 1-1.06 1.06L5 11.56l-.004 3.767a.75.75 0 0 1-1.492 0L3.5 11.56l-1.22 1.22a.75.75 0 0 1-1.06-1.06l2.5-2.5a.76.76 0 0 1 1.06 0Zm9.547 4.284a.75.75 0 0 1 0 1.492L8.75 15a.75.75 0 0 1 0-1.5l5.577.004ZM14.25 10.5a.75.75 0 0 1 0 1.5h-3.5a.75.75 0 0 1 0-1.5h3.5Zm.077-3.246a.75.75 0 0 1 0 1.492L8.75 8.75a.75.75 0 1 1 0-1.5l5.577.004ZM4.25 0A.75.75 0 0 1 5 .75v3.69l1.22-1.22a.75.75 0 0 1 1.06 1.06l-2.5 2.5a.757.757 0 0 1-1.06 0l-2.5-2.5a.75.75 0 0 1 1.06-1.06L3.5 4.44V.75A.75.75 0 0 1 4.25 0Zm10 4a.75.75 0 0 1 0 1.5h-3.5a.75.75 0 0 1 0-1.5h3.5Zm.077-2.996a.75.75 0 0 1 0 1.492l-.077.004h-5.5a.75.75 0 1 1 0-1.5h5.5l.077.004Z"/></svg>