<svg xmlns="http://www.w3.org/2000/svg" fill="currentColor" viewBox="0 0 16 16"><path d="M10.25 0A2.75 2.75 0 0 1 13 2.75v2.5a.75.75 0 0 1-1.5 0v-2.5c0-.69-.56-1.25-1.25-1.25h-6.5c-.69 0-1.25.56-1.25 1.25v10.5c0 .69.56 1.25 1.25 1.25h.5a.75.75 0 0 1 0 1.5h-.5A2.75 2.75 0 0 1 1 13.25V2.75A2.75 2.75 0 0 1 3.75 0h6.5ZM10 8a3 3 0 0 1 3 3c0 .556-.154 1.075-.418 1.521l2.198 2.199a.75.75 0 1 1-1.06 1.06l-2.199-2.198A2.982 2.982 0 0 1 10 14a3 3 0 1 1 0-6Zm0 1.5a1.5 1.5 0 1 0 0 3 1.5 1.5 0 0 0 0-3Zm-.75-6a.75.75 0 0 1 0 1.5h-4.5a.75.75 0 0 1 0-1.5h4.5Z"/></svg>