<svg xmlns="http://www.w3.org/2000/svg" fill="currentColor" viewBox="0 0 16 16"><path d="M5.749 10.192a.75.75 0 0 1 1.004 1.116L4.872 13l1.88 1.693a.75.75 0 0 1-1.003 1.115l-2.5-2.25a.758.758 0 0 1 0-1.115l2.5-2.25Zm6.444.056a.75.75 0 0 1 1.06-.056l2.5 2.25a.758.758 0 0 1 0 1.116l-2.5 2.25a.75.75 0 0 1-1.004-1.115L14.129 13l-1.88-1.692a.75.75 0 0 1-.056-1.06Zm-2.654.265a.75.75 0 0 1 1.424.474l-1.5 4.5a.75.75 0 0 1-1.424-.474l1.5-4.5ZM8.049 0a1.57 1.57 0 0 1 1.504 1.105l.274 1.19 1.459.849.96-.395a1.573 1.573 0 0 1 2 .736l.584 1.147a1.551 1.551 0 0 1-.461 1.953l-.795.608V8.25a.75.75 0 0 1-1.5 0V7.193c0-.49.235-.962.645-1.255l.755-.557c.026-.02.041-.052.014-.099l-.58-1.122c-.017-.03-.057-.038-.091-.024l-.957.393h-.001a1.594 1.594 0 0 1-1.411-.108l-1.396-.84a1.523 1.523 0 0 1-.72-1.016l-.211-1.013a.072.072 0 0 0-.072-.052H6.931c-.028 0-.046.014-.05.036l-.21 1.017a1.57 1.57 0 0 1-.708 1.02c-.462.291-.937.563-1.405.845v-.002c-.433.268-.963.3-1.417.112l-.95-.39c-.041-.008-.076-.013-.1.027l-.585 1.15c-.01.029-.005.046.021.066l.9.675c.32.293.5.708.5 1.137v1.614c0 .487-.232.953-.637 1.248l-.764.563c-.041.03-.03.04-.02.065l.584 1.152a.75.75 0 0 1-1.336.68l-.582-1.148a1.55 1.55 0 0 1 .46-1.952l.795-.608V7.193l-.793-.606-.002-.002a1.55 1.55 0 0 1-.461-1.953l.583-1.147a1.566 1.566 0 0 1 1.853-.788l1.108.447 1.51-.885s.099-.705.167-1.022A1.572 1.572 0 0 1 6.932 0h1.117ZM7.5 5c1.74 0 3.212 1.598 2.995 3.343a.75.75 0 0 1-.837.651C9.147 8.93 9 8.61 9 8a1.5 1.5 0 0 0-3 0c0 .598-.052.918-.658.994a.75.75 0 0 1-.836-.651C4.287 6.593 5.748 5 7.5 5Z"/></svg>