<svg xmlns="http://www.w3.org/2000/svg" fill="currentColor" viewBox="0 0 16 16"><path d="M14.646 6.126a1.252 1.252 0 0 1 1.352 1.249v5.766c0 .59-.413 1.102-.99 1.225l-7.496 1.607A1.251 1.251 0 0 1 6 14.749V8.882c0-.596.42-1.11 1.004-1.228l7.642-1.528ZM7.5 9.086v5.352l6.998-1.5V7.68L7.5 9.087Zm4.648-5.989a.75.75 0 0 1 .258 1.48L4.5 5.962V12.1a.75.75 0 1 1-1.5 0V5.753c0-.608.436-1.128 1.034-1.233l8.114-1.423Zm-3-3.085a.75.75 0 0 1 .258 1.48L1.5 2.877v6.138a.751.751 0 1 1-1.5 0V2.668C0 2.06.436 1.54 1.034 1.435L9.148.012Z"/></svg>