<svg xmlns="http://www.w3.org/2000/svg" fill="currentColor" viewBox="0 0 16 16"><path d="m12.308 7.248.938 1.044a2.746 2.746 0 0 1-.107 3.786l2.641 2.642a.75.75 0 1 1-1.06 1.06l-2.673-2.672c-1.258 1.17-2.825 1.174-3.946.053l-.881-.88a.75.75 0 0 1 0-1.061l4.056-4.052c.306-.266.774-.207 1.032.08ZM8.81 11.75l.35.35a1.25 1.25 0 0 0 1.738.028l1.159-1.085a1.25 1.25 0 0 0 .074-1.748l-.411-.456-2.91 2.911ZM.22.22a.75.75 0 0 1 1.06 0l2.672 2.672c1.114-1.169 2.82-1.18 3.947-.053l.881.88a.75.75 0 0 1 0 1.061l-.47.47 1.22 1.22a.75.75 0 0 1-1.06 1.06L7.25 6.31l-.94.94 1.22 1.22a.75.75 0 0 1-1.06 1.06L5.25 8.31l-.526.522a.759.759 0 0 1-1.032-.08l-.938-1.044a2.747 2.747 0 0 1 .106-3.787L.22 1.28a.75.75 0 0 1 0-1.06ZM6.839 3.9A1.25 1.25 0 0 0 5.1 3.871L3.942 4.957a1.25 1.25 0 0 0-.074 1.748l.411.456L7.19 4.25l-.35-.35Z"/></svg>