<svg xmlns="http://www.w3.org/2000/svg" fill="currentColor" viewBox="0 0 16 16"><path d="M15.25 5.004a.75.75 0 0 1 .75.75v8.502c0 .667-.845 1-1.299.511l-2.111-2.27-6.839.008a.75.75 0 0 1-.002-1.5l7.167-.009a.75.75 0 0 1 .55.24l1.034 1.111V5.754a.75.75 0 0 1 .75-.75ZM10.083 0A1.92 1.92 0 0 1 12 1.918v5.66a1.92 1.92 0 0 1-1.917 1.917H3.411L1.3 11.765c-.454.49-1.299.157-1.299-.51V1.918A1.919 1.919 0 0 1 1.917 0h8.166ZM1.917 1.5a.42.42 0 0 0-.417.418v7.428l1.034-1.112A.746.746 0 0 1 3.083 8h7a.425.425 0 0 0 .417-.422v-5.66a.42.42 0 0 0-.417-.417H1.917Z"/></svg>