<svg xmlns="http://www.w3.org/2000/svg" fill="currentColor" viewBox="0 0 16 16"><path d="M10.083 0A1.92 1.92 0 0 1 12 1.918V3h2.083C15.139 3 16 3.862 16 4.918v9.337c0 .667-.845 1-1.299.511l-2.112-2.27H5.917A1.92 1.92 0 0 1 4 10.58V9.495h-.589L1.3 11.765c-.454.49-1.299.157-1.299-.51V1.918A1.919 1.919 0 0 1 1.917 0h8.166ZM12 7.578a1.92 1.92 0 0 1-1.917 1.917H5.5v1.085c0 .227.19.416.417.416h7a.75.75 0 0 1 .549.24l1.034 1.111V4.92a.42.42 0 0 0-.417-.417H12v3.076ZM1.917 1.501a.42.42 0 0 0-.417.417v7.428l1.034-1.112a.75.75 0 0 1 .549-.24h7a.42.42 0 0 0 .417-.416v-5.66a.42.42 0 0 0-.417-.417H1.917Z"/></svg>