<svg xmlns="http://www.w3.org/2000/svg" fill="currentColor" viewBox="0 0 16 16"><path d="M12.25 1A2.75 2.75 0 0 1 15 3.75v8.5A2.75 2.75 0 0 1 12.25 15h-8.5A2.75 2.75 0 0 1 1 12.25v-8.5A2.75 2.75 0 0 1 3.75 1h8.5ZM2.5 12.25c0 .69.56 1.25 1.25 1.25h8.5c.69 0 1.25-.56 1.25-1.25V4h-11v8.25ZM6 8c2.058 0 3.514 2.132 2.817 4.032a.75.75 0 1 1-1.408-.516C7.757 10.566 7.03 9.5 6 9.5c-1.025 0-1.754 1.06-1.412 2.009a.75.75 0 0 1-1.411.509C2.493 10.12 3.949 8 6 8Zm4.055 0a3 3 0 0 1 3 3 .75.75 0 0 1-1.5 0 1.5 1.5 0 0 0-1.5-1.5.75.75 0 1 1 0-1.5ZM7.764 5.284a.75.75 0 0 1 1.174.932l-.483.61a.75.75 0 0 1-1.176-.932l.485-.61Zm2.927 0a.75.75 0 0 1 1.175.932l-.483.61a.75.75 0 0 1-1.176-.932l.484-.61Z"/></svg>