<svg xmlns="http://www.w3.org/2000/svg" fill="currentColor" viewBox="0 0 16 16"><path d="M5.25 2a.75.75 0 1 1 0 1.5H3.53a.251.251 0 0 0-.243.186l-.94 3.511A3.516 3.516 0 0 1 3.513 7c1.221 0 2.297.622 2.926 1.565A2.503 2.503 0 0 1 8.026 8c.603 0 1.155.213 1.588.565a3.512 3.512 0 0 1 4.09-1.368l-.938-3.511a.251.251 0 0 0-.243-.186H10.76a.758.758 0 0 1-.76-.75c0-.414.344-.75.76-.75h1.763c.795 0 1.492.533 1.697 1.299 0 0 .993 3.68 1.571 5.876.8 2.604-.784 4.825-3.25 4.825a3.506 3.506 0 0 1-3.511-3.5c0-.552-.45-1-1.004-1s-1.003.448-1.003 1c0 1.933-1.572 3.5-3.511 3.5-1.987 0-3.61-1.712-3.507-3.685.013-.248.128-.776.256-1.14l1.572-5.876A1.755 1.755 0 0 1 3.53 2h1.72ZM3.512 8.5a2.003 2.003 0 0 0-2.007 2c0 1.105.898 2 2.007 2a2.003 2.003 0 0 0 2.006-2c0-1.105-.898-2-2.006-2Zm9.03 0a2.003 2.003 0 0 0-2.007 2c0 1.105.898 2 2.006 2a2.003 2.003 0 0 0 2.007-2c0-1.105-.898-2-2.007-2Z"/></svg>