<svg xmlns="http://www.w3.org/2000/svg" fill="currentColor" viewBox="0 0 16 16"><path d="M11.25 0C12.216 0 13 .784 13 1.75v3.996a.75.75 0 0 1-1.5 0V1.75a.25.25 0 0 0-.25-.25H6.71a.25.25 0 0 0-.19.087L6 2.193V5.25a.75.75 0 0 1-.75.75H2.738c-.089.104-.238.37-.238.37v7.88c0 .138.112.25.25.25h3.5a.75.75 0 0 1 0 1.5h-3.5A1.75 1.75 0 0 1 1 14.25V6.37c0-.417.15-.821.42-1.139L5.38.611A1.751 1.751 0 0 1 6.71 0h4.54Zm1.997 14.5a.75.75 0 0 1 0 1.5H9.75a.75.75 0 0 1 0-1.5h3.497Zm2.003-3a.75.75 0 0 1 0 1.5h-5.5a.75.75 0 0 1 0-1.5h5.5Zm0-3a.75.75 0 0 1 0 1.5h-5.5a.75.75 0 0 1 0-1.5h5.5Z"/></svg>