<svg xmlns="http://www.w3.org/2000/svg" fill="currentColor" viewBox="0 0 16 16"><path d="M8 0a4 4 0 0 1 2.616 7.023C12.61 7.931 14 9.927 14 12.25v2a.75.75 0 0 1-.75.75h-1a.75.75 0 0 1 0-1.5h.25v-1.25C12.5 9.911 10.581 8 8.202 8h-.404C5.418 8 3.5 9.911 3.5 12.25v1.25h.25a.75.75 0 0 1 0 1.5h-1a.75.75 0 0 1-.75-.75v-2c0-2.323 1.39-4.319 3.383-5.227A4 4 0 0 1 8 0Zm0 10a.75.75 0 0 1 .75.75v1h1a.75.75 0 0 1 0 1.5h-1l-.004 1.077a.75.75 0 0 1-1.492 0L7.25 13.25h-1a.75.75 0 0 1 0-1.5h1v-1A.75.75 0 0 1 8 10Zm0-8.5a2.5 2.5 0 1 0 0 5 2.5 2.5 0 0 0 0-5Z"/></svg>