<svg xmlns="http://www.w3.org/2000/svg" fill="currentColor" viewBox="0 0 16 16"><path d="M3.686.256a.75.75 0 0 1 1.128.988L1.5 5.031v10.22a.75.75 0 0 1-1.5 0V4.75a.75.75 0 0 1 .186-.495l3.5-4ZM14.25 0C15.216 0 16 .784 16 1.75v12.5A1.75 1.75 0 0 1 14.25 16h-9a1.75 1.75 0 0 1-1.75-1.75V6.37c0-.417.15-.821.42-1.139L7.88.611A1.751 1.751 0 0 1 9.21 0h5.04ZM9.21 1.5a.25.25 0 0 0-.19.087l-.277.323s.007 2.25.007 3.34A.75.75 0 0 1 8 6c-.92 0-1.842.013-2.762 0A3.3 3.3 0 0 0 5 6.37v7.88c0 .138.112.25.25.25h9a.25.25 0 0 0 .25-.25V1.75a.25.25 0 0 0-.25-.25H9.21Zm3.04 9.5a.75.75 0 0 1 0 1.5h-5a.75.75 0 0 1 0-1.5h5Zm0-3a.75.75 0 0 1 0 1.5h-5a.75.75 0 0 1 0-1.5h5Z"/></svg>