<svg xmlns="http://www.w3.org/2000/svg" fill="currentColor" viewBox="0 0 16 16"><path d="M7.75 2a.75.75 0 0 1 0 1.5c-.52 0-.957.12-1.412.35a3.306 3.306 0 0 0-1.82 2.955c0 .346-.01.67-.02.982a.75.75 0 0 1-.749.726c-1.17 0-2.249.712-2.249 1.994 0 1.1.894 1.993 1.987 1.993h8.382c1.224 0 2.413-1.275 2.647-2.402a.75.75 0 0 1 1.468.304C15.604 12.24 13.814 14 11.87 14H3.487a3.493 3.493 0 0 1-.472-6.954c0-2.095.894-3.653 2.647-4.536A4.507 4.507 0 0 1 7.75 2ZM11 2a.75.75 0 0 1 .75.75v4.545l.942-1.047a.75.75 0 0 1 1.116 1.004l-2.25 2.5a.758.758 0 0 1-1.116 0l-2.25-2.5a.75.75 0 0 1 1.116-1.004l.942 1.047V2.75A.75.75 0 0 1 11 2Z"/></svg>