<svg xmlns="http://www.w3.org/2000/svg" fill="currentColor" viewBox="0 0 16 16"><path d="M14.5 0a1.5 1.5 0 0 1 .75 2.798V6.7a1.5 1.5 0 0 1 0 2.597V13.2a1.499 1.499 0 1 1-2.048 2.049H9.298a1.498 1.498 0 0 1-2.596 0H2.798A1.498 1.498 0 0 1 0 14.5a1.5 1.5 0 0 1 .75-1.299V9.298a1.498 1.498 0 0 1 0-2.597V2.798A1.498 1.498 0 1 1 2.798.75h3.904a1.498 1.498 0 0 1 2.596 0h3.904c.26-.448.743-.75 1.298-.75ZM2.798 2.25c-.132.227-.32.416-.548.548V6.7a1.499 1.499 0 0 1 0 2.597V13.2c.227.132.416.322.548.549h3.904a1.498 1.498 0 0 1 2.596 0h3.904a1.51 1.51 0 0 1 .548-.549V9.298a1.498 1.498 0 0 1 0-2.597V2.798a1.505 1.505 0 0 1-.548-.548H9.298a1.498 1.498 0 0 1-2.596 0H2.798Z"/></svg>