<svg xmlns="http://www.w3.org/2000/svg" fill="currentColor" viewBox="0 0 16 16"><path d="M14.665 1c.58 0 .874.55 1.02 1.043.115.383.205.892.259 1.47a14.3 14.3 0 0 1-.258 4.245c-.337 1.543-.994 3.151-2.19 4.38-1.215 1.25-2.932 2.052-5.256 2.052-1.34 0-2.536-.48-3.505-1.103L3.033 14.57c-.77.67-1.942.542-2.553-.28l-.129-.174a1.789 1.789 0 0 1 .225-2.379L2.27 10.18a4.302 4.302 0 0 1-.307-1.57c0-1.626.99-3.033 2.286-3.998C5.556 3.641 7.28 3.03 8.993 3.03c1.117 0 1.784.077 2.534-.107.691-.169 1.483-.582 2.61-1.703a.75.75 0 0 1 .527-.22Zm-.298 2.058c-.893.744-1.684 1.147-2.485 1.343-.982.24-1.963.15-2.89.15-1.377 0-2.79.5-3.85 1.287-.992.739-1.856 1.905-1.633 3.21.976-.819 2.192-1.246 3.347-1.442 1.727-.3 3.325-.179 4.818-2.016a.748.748 0 0 1 1.06-.106.767.767 0 0 1 .104 1.071c-1.94 2.388-4.3 2.303-5.727 2.55h-.003c-1.107.189-2.137.6-2.862 1.316a.655.655 0 0 1-.02.02L1.59 12.863a.256.256 0 0 0-.033.34l.129.172a.25.25 0 0 0 .365.04l2.156-1.876a.747.747 0 0 1 1.05.067c.856.613 1.88 1.06 2.984 1.06 1.947 0 3.268-.656 4.181-1.595.932-.958 1.494-2.267 1.794-3.64.31-1.42.386-2.935.152-4.374Z"/></svg>