<svg xmlns="http://www.w3.org/2000/svg" fill="currentColor" viewBox="0 0 16 16"><path d="M4.25.994a.75.75 0 0 1 0 1.5h-2.5a.25.25 0 0 0-.25.25v8.5c0 .138.112.25.25.25h12.5a.25.25 0 0 0 .25-.25v-.5a.75.75 0 0 1 1.5 0v.5a1.75 1.75 0 0 1-1.75 1.75H9v1.503l3.249-.003a.75.75 0 0 1 .002 1.5l-8.5.008a.75.75 0 0 1-.002-1.5L7 14.498v-1.504H1.75A1.75 1.75 0 0 1 0 11.244v-8.5C0 1.778.784.994 1.75.994h2.5Zm6.723-.95 4.202 1.525c.495.18.825.65.825 1.176v4.14a.75.75 0 0 1-1.5 0V2.92l-3.669-1.325-.96.58 2.326.893c.484.186.803.65.803 1.167v4.43a1.25 1.25 0 0 1-1.697 1.167l-3.5-1.342A1.25 1.25 0 0 1 7 7.323V2.894c0-.424.246-.882.615-1.106L10.361.127c.237-.137.395-.16.612-.083ZM8.5 7.15l3 1.15V4.408l-3-1.15V7.15Z"/></svg>