<svg xmlns="http://www.w3.org/2000/svg" fill="currentColor" viewBox="0 0 16 16"><path d="M14.68 11.262a.75.75 0 0 1 1.14.976l-3 3.5a.75.75 0 0 1-1.1.042l-1.5-1.5a.75.75 0 0 1 1.06-1.06l.927.926 2.474-2.884ZM8 0c.744 0 1.485.06 2.218.282a.75.75 0 0 1 .51.9l-.088.348C13.14 2.595 15 5.087 15 8a1 1 0 1 1 0 2H1a1 1 0 1 1 0-2c0-2.913 1.86-5.404 4.36-6.47l-.088-.348a.75.75 0 0 1 .51-.9C6.515.06 7.256 0 8 0Zm1.991 5.364A.75.75 0 0 1 9.25 6h-2.5a.75.75 0 0 1-.741-.636l-.358-2.32C3.815 3.954 2.5 5.85 2.5 8h11c0-2.15-1.316-4.047-3.152-4.956l-.357 2.32ZM6.914 1.566l.51 2.886h1.151l.51-2.886c-.71-.1-1.46-.1-2.17 0Z"/></svg>