<svg xmlns="http://www.w3.org/2000/svg" fill="currentColor" viewBox="0 0 16 16"><path d="M11.625.515a1.75 1.75 0 0 1 2.48 0l1.384 1.388a1.75 1.75 0 0 1-.005 2.477L4.031 15.781A.752.752 0 0 1 3.5 16H.751A.75.75 0 0 1 0 15.25v-2.751a.75.75 0 0 1 .219-.53L11.625.515Zm1.095 10.202a.75.75 0 0 1 1.06 0l2.001 1.997a.758.758 0 0 1 0 1.061l-2 2.004a.75.75 0 0 1-1.061-1.06l.702-.704h-2.669a.75.75 0 1 1 0-1.5h2.704l-.737-.737a.75.75 0 0 1 0-1.061Zm-10.912 1.78L3.5 14.19l7.938-7.9-1.743-1.712-7.887 7.92ZM13.042 1.575a.25.25 0 0 0-.354 0l-1.933 1.94 1.747 1.716 1.924-1.914a.25.25 0 0 0 0-.353l-1.384-1.389Z"/></svg>