<svg xmlns="http://www.w3.org/2000/svg" fill="currentColor" viewBox="0 0 16 16"><path d="M15.25 1a.75.75 0 0 1 .75.75V11a.75.75 0 0 1-.63.74c-2.274.367-4.183 1.189-6.94 3.124a.75.75 0 0 1-.86 0C4.812 12.93 2.903 12.107.63 11.74A.75.75 0 0 1 0 11V1.75a.75.75 0 0 1 1.5 0v8.625c1.934.391 3.664 1.127 5.75 2.467V4.5c0-.2.08-.393.224-.534C8.81 2.65 11.814 1 15.25 1Zm-.75 1.53c-2.505.2-4.665 1.354-5.75 2.298v8.014c2.086-1.34 3.816-2.076 5.75-2.467V2.53ZM3.66 1.03l2 .67c.21.06.34.25.34.47v5.58c0 .25-.337.372-.56.15-.23-.24-.94-.9-.94-.9s-.64.67-.85.9c-.193.194-.65.198-.65-.16V1.5c0-.328.35-.594.66-.47Z"/></svg>