<svg xmlns="http://www.w3.org/2000/svg" fill="currentColor" viewBox="0 0 16 16"><path d="M4.327 1.004a.75.75 0 0 1 0 1.492L2.76 2.5c-.69 0-1.26.569-1.26 1.265v6.232h.691L3.576 5.42c.256-.625 1.2-.526 1.393.114l1.747 5.822 1.186-2.062a.757.757 0 0 1 1.229.048l1.666 2.592.852-1.137a.75.75 0 0 1 .601-.3h2a.75.75 0 0 1 .75.75l-.001.01.001.01v1.968A2.768 2.768 0 0 1 12.241 16H2.76A2.761 2.761 0 0 1 0 13.235v-9.47A2.768 2.768 0 0 1 2.759 1l1.568.004Zm-.858 9.959a.75.75 0 0 1-.719.534H1.5v1.738c0 .699.563 1.265 1.259 1.265h9.482c.689 0 1.259-.569 1.259-1.265v-1.238h-.874l-1.275 1.701a.758.758 0 0 1-1.232-.045l-1.582-2.46-1.386 2.427c-.32.56-1.184.462-1.37-.156L4.25 8.36l-.78 2.603ZM13.107 0a.75.75 0 0 1 .75.75v1.393h1.393a.75.75 0 0 1 .75.75v3.214a.75.75 0 0 1-.75.75h-1.393V8.25a.75.75 0 0 1-.75.75H9.893a.75.75 0 0 1-.75-.75V6.857H7.75a.75.75 0 0 1-.75-.75V2.893a.75.75 0 0 1 .75-.75h1.393V.75a.75.75 0 0 1 .75-.75h3.214Zm-2.464 2.893a.75.75 0 0 1-.75.75H8.5v1.714h1.393a.75.75 0 0 1 .75.75V7.5h1.714V6.107a.75.75 0 0 1 .75-.75H14.5V3.643h-1.393a.75.75 0 0 1-.75-.75V1.5h-1.714v1.393Z"/></svg>