<svg xmlns="http://www.w3.org/2000/svg" fill="currentColor" viewBox="0 0 16 16"><path d="M3.72 3.501a.75.75 0 0 1 .758.567l2.257 9.034 1.647-3.277a.757.757 0 0 1 1.275.064l2.269 4.124 1.408-1.387a.75.75 0 0 1 .416-.126h1.5a.75.75 0 0 1 0 1.5h-1.19l-1.78 1.78a.758.758 0 0 1-1.187-.169L9.03 11.863l-1.86 3.722c-.305.609-1.233.507-1.399-.153L3.896 7.93l-.906 5.442a.75.75 0 0 1-.74.627H.75a.75.75 0 0 1 0-1.5h.864L3.01 4.127a.75.75 0 0 1 .71-.626ZM13.267 0c.72 0 1.403.279 1.918.791.505.505.815 1.207.815 1.926a2.75 2.75 0 0 1-.79 1.912c-1.038 1.07-2.119 2.102-3.176 3.153a.75.75 0 0 1-1.057.001l-3.174-3.14A2.678 2.678 0 0 1 7 2.718c0-.736.299-1.406.79-1.911L7.803.79A2.751 2.751 0 0 1 9.724 0a2.45 2.45 0 0 1 1.77.732A2.456 2.456 0 0 1 13.266 0Zm0 1.5c-.45 0-.935.336-1.035.754a.75.75 0 0 1-1.449.101c-.146-.468-.555-.855-1.06-.855-.66 0-1.223.555-1.223 1.217 0 .545.377.878.735 1.227l.004.005 2.265 2.243L13.76 3.95l.005-.006c.356-.347.725-.631.725-1.227A1.23 1.23 0 0 0 13.267 1.5Z"/></svg>