<svg xmlns="http://www.w3.org/2000/svg" fill="currentColor" viewBox="0 0 16 16"><path d="M13.72 11.22a.75.75 0 1 1 1.06 1.06l-1.22 1.22 1.22 1.22a.75.75 0 1 1-1.06 1.06l-1.22-1.22-1.22 1.22a.75.75 0 1 1-1.06-1.06l1.22-1.22-1.22-1.22a.75.75 0 0 1 1.06-1.06l1.22 1.22 1.22-1.22ZM7 0a4 4 0 0 1 2.668 6.979c.369.174.723.404 1.07.702a.75.75 0 0 1-.976 1.138C8.912 8.083 7.995 8 6.798 8 4.418 8 2.5 9.911 2.5 12.25v.25h4.75a.75.75 0 0 1 0 1.5h-5.5a.75.75 0 0 1-.75-.75v-1c0-2.323 1.39-4.319 3.383-5.227A4 4 0 0 1 7 0Zm0 1.5a2.5 2.5 0 1 0 0 5 2.5 2.5 0 0 0 0-5Z"/></svg>