<svg xmlns="http://www.w3.org/2000/svg" fill="currentColor" viewBox="0 0 16 16"><path d="M8 1a4 4 0 0 1 2.616 7.023C12.61 8.931 14 10.927 14 13.25v1a.75.75 0 0 1-.75.75H2.75a.75.75 0 0 1-.75-.75v-1c0-2.323 1.39-4.319 3.383-5.227A4 4 0 0 1 8 1ZM6.034 9.375C4.54 10.042 3.5 11.53 3.5 13.25v.25h3.75v-2.797l-.848-.444a.75.75 0 0 1-.368-.884Zm3.93 0c.031.099.044.203.031.309a.75.75 0 0 1-.397.575l-.848.444V13.5h3.75v-.25c0-1.72-1.04-3.208-2.535-3.875ZM10.25 11a.75.75 0 0 1 0 1.5h-.5a.75.75 0 0 1 0-1.5h.5ZM8 2.5a2.5 2.5 0 1 0 0 5 2.5 2.5 0 0 0 0-5Z"/></svg>