<svg xmlns="http://www.w3.org/2000/svg" fill="currentColor" viewBox="0 0 16 16"><path d="M4 8a.75.75 0 0 1 .75.75v.348c.426.11.816.308 1.147.578l.428-.294a.75.75 0 0 1 .85 1.236l-.39.268c.156.392.234.834.21 1.277l.437.11a.75.75 0 0 1-.364 1.454l-.53-.132a3.05 3.05 0 0 1-.717.785l.303.454a.75.75 0 1 1-1.248.832l-.464-.695a3.08 3.08 0 0 1-.825 0l-.463.695a.75.75 0 0 1-1.248-.832l.302-.454a3.01 3.01 0 0 1-.716-.785l-.53.132a.75.75 0 0 1-.364-1.454l.436-.11c-.024-.445.055-.89.214-1.283l-.384-.256a.75.75 0 0 1 .832-1.248l.442.295c.33-.268.718-.464 1.142-.573V8.75A.75.75 0 0 1 4 8Zm8.5 1a.75.75 0 0 1 .53.219l1.5 1.5c.184.184.26.45.202.702l-.426 1.825 1.474 1.474a.75.75 0 0 1-1.06 1.06l-1.477-1.475-1.822.425a.752.752 0 0 1-.701-.2l-1.5-1.5A.75.75 0 0 1 9 12.5v-.75a.75.75 0 0 1 1.5 0v.44l.985.985 1.37-.32.32-1.37-.986-.985h-.439a.75.75 0 0 1 0-1.5h.75ZM4 10.5a1.5 1.5 0 1 0 0 3 1.5 1.5 0 0 0 0-3ZM3.5 4A2.5 2.5 0 0 1 6 6.5a.5.5 0 0 1-.5.5h-4a.515.515 0 0 1-.5-.5A2.5 2.5 0 0 1 3.5 4Zm9.75 1.5a.75.75 0 0 1 0 1.5h-3.5a.75.75 0 0 1 0-1.5h3.5Zm1-2.75a.75.75 0 0 1 0 1.5h-4.5a.75.75 0 0 1 0-1.5h4.5ZM3.5 0a1.5 1.5 0 1 1 0 3 1.5 1.5 0 0 1 0-3Zm10.75 0a.75.75 0 0 1 0 1.5h-4.5a.75.75 0 0 1 0-1.5h4.5Z"/></svg>