<svg xmlns="http://www.w3.org/2000/svg" fill="currentColor" viewBox="0 0 16 16"><path d="M12.608 12.438a.5.5 0 0 1 .83.554l-.972 1.755c.216.649-.317 1.253-.966 1.253a1 1 0 0 1-.144-1.99l1.252-1.572ZM11.5 9.5c2.432 0 4.5 1.858 4.5 4.25a.75.75 0 0 1-1.5 0c0-1.468-1.297-2.75-3-2.75s-3 1.282-3 2.75a.75.75 0 0 1-1.5 0c0-2.392 2.068-4.25 4.5-4.25ZM6 0a4 4 0 0 1 2.615 7.024c.373.167.734.372 1.073.617a.75.75 0 0 1-.876 1.217C7.852 8.163 7.13 8 5.798 8 3.418 8 1.5 9.911 1.5 12.25v.25h2.75a.75.75 0 0 1 0 1.5H.75a.75.75 0 0 1-.75-.75v-1c0-2.323 1.39-4.319 3.383-5.227A4 4 0 0 1 6 0Zm0 1.5a2.5 2.5 0 1 0 0 5 2.5 2.5 0 0 0 0-5Z"/></svg>