<svg xmlns="http://www.w3.org/2000/svg" fill="currentColor" viewBox="0 0 16 16"><path d="M8 0a8 8 0 0 1 8 8c0 .718-.069 1.72-.28 2.456a.75.75 0 1 1-1.44-.412c.153-.535.22-1.375.22-2.044a6.5 6.5 0 0 0-9-6.002V7.73c0 .414.35.79.845.79.456 0 .905-.29.905-.79v-.225c0-1.302 1.092-2.318 2.375-2.318S12 6.203 12 7.505v2.745a.75.75 0 0 1-1.5 0V7.505c0-.424-.37-.818-.875-.818s-.875.394-.875.818v.225c0 1.292-1.072 2.29-2.345 2.29h-.06C5.072 10.02 4 9.022 4 7.73V2.878A6.487 6.487 0 0 0 1.5 8c0 2.99 2.035 5.848 5.157 6.517a.75.75 0 0 1-.314 1.466C2.465 15.153 0 11.63 0 8a8 8 0 0 1 8-8Zm3 14a1 1 0 1 1 0 2 1 1 0 0 1 0-2Zm-2-2a1 1 0 1 1 0 2 1 1 0 0 1 0-2Zm4 0a1 1 0 1 1 0 2 1 1 0 0 1 0-2Z"/></svg>