<svg xmlns="http://www.w3.org/2000/svg" fill="currentColor" viewBox="0 0 16 16"><path d="M12.25 1A2.75 2.75 0 0 1 15 3.75v8.5A2.75 2.75 0 0 1 12.25 15H4.89a3.864 3.864 0 1 1 0-7.727H5V5.75a.751.751 0 0 1 1.252-.558l2.5 2.25a.749.749 0 0 1 0 1.116l-2.5 2.25A.75.75 0 0 1 5 10.25V8.773h-.11a2.363 2.363 0 1 0 0 4.727h7.36c.69 0 1.25-.56 1.25-1.25v-8.5c0-.69-.56-1.25-1.25-1.25h-8.5c-.69 0-1.25.56-1.25 1.25v1.27a.75.75 0 0 1-1.5 0V3.75A2.75 2.75 0 0 1 3.75 1h8.5ZM9.22 5.22a.75.75 0 0 1 1.06 0l2 1.997a.772.772 0 0 1 0 1.06l-2 2.003a.75.75 0 0 1-1.06-1.06l1.47-1.472L9.22 6.28a.75.75 0 0 1 0-1.06Z"/></svg>