<svg xmlns="http://www.w3.org/2000/svg" fill="currentColor" viewBox="0 0 16 16"><path d="M5.254 10.003a.75.75 0 0 1 .75.75v3.503a.75.75 0 0 1-1.5 0V12.64l-3.23 3.146a.75.75 0 1 1-1.046-1.074l3.293-3.209H1.758a.75.75 0 0 1 0-1.5h3.496Zm8.996-1a.75.75 0 0 1 .75.75v2.5a2.75 2.75 0 0 1-2.75 2.75h-2.5a.75.75 0 0 1 0-1.5h2.5c.69 0 1.25-.56 1.25-1.25v-2.5a.75.75 0 0 1 .75-.75Zm-8-8a.75.75 0 0 1 0 1.5h-2.5c-.69 0-1.25.56-1.25 1.25v2.5a.75.75 0 0 1-1.5 0v-2.5a2.75 2.75 0 0 1 2.75-2.75h2.5Zm8.46-.776a.75.75 0 1 1 1.073 1.046l-3.146 3.23h1.615a.75.75 0 0 1 0 1.5H10.75a.75.75 0 0 1-.75-.75V1.757a.75.75 0 0 1 1.5 0v1.764L14.71.227Z"/></svg>