<svg xmlns="http://www.w3.org/2000/svg" fill="currentColor" viewBox="0 0 16 16"><path d="M4.25 1a.75.75 0 0 1 .75.75V7h1.25V4.75c0-.597.695-.956 1.183-.612L10.5 6.304V4.75c0-.606.716-.963 1.2-.6l3.6 2.7c.44.33.7.85.7 1.4v6a.75.75 0 0 1-.75.75H.75a.772.772 0 0 1-.75-.75V1.603C0 1.25.402 1 .75 1h3.5ZM1.5 13.5h2v-2h-2v2Zm6.25-5.75A.74.74 0 0 1 7 8.5H5v5h9.5V8.25a.25.25 0 0 0-.1-.2L12 6.25v1.5c0 .597-.695.956-1.183.612L7.75 6.197V7.75ZM8 10a1 1 0 1 1 0 2 1 1 0 0 1 0-2Zm4 0a1 1 0 1 1 0 2 1 1 0 0 1 0-2ZM1.5 10h2V8.5h-2V10Zm0-3h2V5.5h-2V7Zm0-3h2V2.5h-2V4Z"/></svg>