<svg xmlns="http://www.w3.org/2000/svg" fill="currentColor" viewBox="0 0 16 16"><path d="M6.5 1c.199 0 .39.08.53.22L8.31 2.5h4.94A2.75 2.75 0 0 1 16 5.25a.75.75 0 0 1-1.5 0c0-.69-.56-1.25-1.25-1.25H8a.75.75 0 0 1-.53-.22L6.19 2.5H2.75c-.69 0-1.25.56-1.25 1.25v8.5c0 .69.56 1.25 1.25 1.25h9.75a2 2 0 1 0 0-4H6.56l1.22 1.22a.75.75 0 1 1-1.06 1.06l-2.5-2.5a.75.75 0 0 1 0-1.06l2.5-2.5a.75.75 0 0 1 1.06 1.06L6.56 8h5.94a3.5 3.5 0 1 1 0 7H2.75A2.75 2.75 0 0 1 0 12.25v-8.5A2.75 2.75 0 0 1 2.75 1H6.5Z"/></svg>