<svg xmlns="http://www.w3.org/2000/svg" fill="currentColor" viewBox="0 0 16 16"><path d="M10.642 4.02a3 3 0 0 1 2.608 4.96A4.93 4.93 0 0 1 16 13.417v.833a.75.75 0 0 1-.75.75H12v.25a.75.75 0 0 1-.75.75h-6.5a.75.75 0 0 1-.75-.75V15H.75a.75.75 0 0 1-.75-.75v-.833A4.93 4.93 0 0 1 2.749 8.98a3 3 0 0 1 2.61-4.959c1.327.188 2.43 1.186 2.6 2.481h.081c.214-1.318 1.269-2.29 2.602-2.481Zm-2.777 8.14c-.514 0-1.113.255-1.593.724-.446.437-.734 1.009-.766 1.616h4.987c-.065-1.292-1.26-2.34-2.358-2.34h-.27ZM5.163 10h-.326C3.009 10 1.5 11.518 1.5 13.417v.083h2.674a4.118 4.118 0 0 1 1.05-1.688 4.25 4.25 0 0 1 .665-.53 2.777 2.777 0 0 1-.722-1.283L5.163 10Zm5.672 0a2.778 2.778 0 0 1-.717 1.274A4.146 4.146 0 0 1 11.83 13.5h2.67v-.083c0-1.9-1.51-3.417-3.337-3.417h-.328ZM8.27 8.021c-.949-.157-1.687.528-1.687 1.308 0 .708.604 1.33 1.417 1.33.902 0 1.541-.755 1.395-1.574v-.002c-.09-.504-.543-.961-1.125-1.062ZM5.28 5.524A1.502 1.502 0 1 0 5 8.5c.07 0 .14-.002.209.002a2.83 2.83 0 0 1 1.287-1.596A1.508 1.508 0 0 0 5.28 5.524ZM12.5 7c0-.918-.817-1.642-1.78-1.476a1.51 1.51 0 0 0-1.217 1.382 2.844 2.844 0 0 1 1.288 1.596c.07-.004.14-.002.209-.002.83 0 1.5-.67 1.5-1.5ZM7.865.012a.75.75 0 0 1 .4.037l7.25 2.75a.75.75 0 0 1-.53 1.402L8 1.552l-6.984 2.65a.75.75 0 0 1-.532-1.403L7.865.012Z"/></svg>