<svg xmlns="http://www.w3.org/2000/svg" fill="currentColor" viewBox="0 0 16 16"><path d="M11.5 2a3 3 0 0 1 1.7 5.47c1.664.811 2.8 2.574 2.8 4.53v1.25a.75.75 0 0 1-.75.75H12v.25a.75.75 0 0 1-.75.75h-6.5a.75.75 0 0 1-.75-.75V14H.75a.75.75 0 0 1-.75-.75V12c0-1.956 1.137-3.719 2.8-4.53A3 3 0 0 1 4.5 2c1.654 0 3.021 1.392 2.998 3.043a3.335 3.335 0 0 1 1.003-.003A3.006 3.006 0 0 1 11.5 2Zm-6 11.5h5c0-1.332-1.14-2.5-2.483-2.5C6.643 11 5.5 12.111 5.5 13.5Zm-.663-5C3.028 8.5 1.5 10.08 1.5 12v.5h2.622a4.108 4.108 0 0 1 1.053-1.839c.269-.273.577-.51.91-.7A2.793 2.793 0 0 1 5.168 8.5l-.33.001Zm5.999-.001a2.798 2.798 0 0 1-.952 1.486c.959.523 1.711 1.426 1.994 2.515H14.5V12c0-1.92-1.528-3.5-3.337-3.5l-.327-.001ZM8.27 6.521c-.949-.156-1.687.53-1.687 1.31 0 .707.604 1.329 1.417 1.33.902-.001 1.541-.757 1.395-1.575v-.002c-.09-.504-.543-.961-1.125-1.063ZM4.5 3.5a1.5 1.5 0 1 0 0 3 1.5 1.5 0 0 0 0-3Zm7 0a1.5 1.5 0 1 0 0 3 1.5 1.5 0 0 0 0-3Z"/></svg>