<svg xmlns="http://www.w3.org/2000/svg" fill="currentColor" viewBox="0 0 16 16"><path d="M14.252 14.5c.414 0 .743.335.743.75 0 .414-.329.75-.743.75h-3.5a.757.757 0 0 1-.757-.75c0-.415.343-.75.757-.75h3.5ZM8.684.434l2.073 4.607 4.573.457c.617.062.895.838.456 1.277l-1 1a.75.75 0 0 1-1.16-.94l-3.448-.344a.75.75 0 0 1-.61-.439L8 2.57 6.433 6.053a.75.75 0 0 1-.61.439l-3.496.348 2.469 2.645a.75.75 0 0 1 .189.653l-.7 3.666 2.596-1.459a.751.751 0 0 1 .737 1.307l-4.003 2.251c-.545.307-1.222-.179-1.105-.794l.93-4.878L.196 6.757C-.219 6.312.064 5.56.671 5.5l4.572-.457L7.368.338c.315-.491 1.076-.437 1.316.097Zm5.57 11.563c.415 0 .74.336.74.75a.74.74 0 0 1-.74.75h-3.502a.756.756 0 0 1-.757-.75c0-.414.343-.75.757-.75h3.503Zm0-2.501c.415 0 .74.336.74.75a.74.74 0 0 1-.74.75h-3.502a.757.757 0 0 1-.757-.75c0-.414.343-.75.757-.75h3.503Z"/></svg>