<svg xmlns="http://www.w3.org/2000/svg" fill="currentColor" viewBox="0 0 16 16"><path d="M13.25 0a.75.75 0 0 1 .75.75v2.856a2.75 2.75 0 0 1 2 2.644v7A2.75 2.75 0 0 1 13.25 16H2.75A2.75 2.75 0 0 1 0 13.25v-.5a.75.75 0 0 1 1.5 0v.5c0 .69.56 1.25 1.25 1.25h10.5c.69 0 1.25-.56 1.25-1.25v-7c0-.69-.56-1.25-1.25-1.25h-6.5A.75.75 0 0 1 6 4.25V.75A.75.75 0 0 1 6.75 0h6.5Zm-6 11.5a.75.75 0 1 1 0 1.5.75.75 0 0 1 0-1.5Zm2.5 0a.75.75 0 1 1 0 1.5.75.75 0 0 1 0-1.5Zm2.5 0a.75.75 0 1 1 0 1.5.75.75 0 0 1 0-1.5Zm-5-2.5a.75.75 0 1 1 0 1.5.75.75 0 0 1 0-1.5Zm2.5 0a.75.75 0 1 1 0 1.5.75.75 0 0 1 0-1.5Zm2.5 0a.75.75 0 1 1 0 1.5.75.75 0 0 1 0-1.5Zm-9-9C4.216 0 5 .784 5 1.75v6.5A1.75 1.75 0 0 1 3.25 10h-1.5A1.75 1.75 0 0 1 0 8.25v-6.5C0 .784.784 0 1.75 0h1.5Zm-1.5 1.5a.25.25 0 0 0-.25.25v6.5c0 .138.112.25.25.25h1.5a.25.25 0 0 0 .25-.25v-6.5a.25.25 0 0 0-.25-.25h-1.5Zm5.5 5a.75.75 0 1 1 0 1.5.75.75 0 0 1 0-1.5Zm2.5 0a.75.75 0 1 1 0 1.5.75.75 0 0 1 0-1.5Zm2.5 0a.75.75 0 1 1 0 1.5.75.75 0 0 1 0-1.5Zm-4.75-3h5v-2h-5v2Z"/></svg>