<svg xmlns="http://www.w3.org/2000/svg" fill="currentColor" viewBox="0 0 16 16"><path d="M2.361 0a.75.75 0 0 1 0 1.5.866.866 0 0 0-.861.861v10.982l1.979-2.121a.751.751 0 0 1 .494-.186h9.666c.472 0 .861-.39.861-.861a.75.75 0 0 1 1.5 0c0 1.3-1.061 2.361-2.361 2.361h-9.34l-3 3.225A.75.75 0 0 1 0 15.25V2.361C0 1.061 1.061 0 2.361 0ZM10 0a5 5 0 1 1 0 10 5 5 0 0 1 0-10Zm0 1.5a3.5 3.5 0 1 0 0 7 3.5 3.5 0 0 0 0-7ZM8.042 5.045a.5.5 0 0 1 .663.247c.184.403.693.708 1.282.708.575 0 1.113-.35 1.323-.738a.5.5 0 0 1 .88.476C11.798 6.461 10.916 7 9.987 7c-.881 0-1.808-.45-2.192-1.292a.5.5 0 0 1 .247-.663ZM8.5 3a.5.5 0 1 1 0 1 .5.5 0 0 1 0-1Zm3 0a.5.5 0 1 1 0 1 .5.5 0 0 1 0-1Z"/></svg>