<svg xmlns="http://www.w3.org/2000/svg" fill="currentColor" viewBox="0 0 16 16"><path d="M2.75 0a.75.75 0 0 1 .75.75v.564a4.565 4.565 0 0 1 4.191.454c1.606 1.07 3.532 1.436 5.208.319A.753.753 0 0 1 14 2.75v7.45c0 .518-.514.763-.905.98-1.747.994-3.932 1.2-5.74-.032l-.45-.3c-.993-.67-2.287-.565-3.405.168v4.234a.75.75 0 0 1-1.5 0V.75A.75.75 0 0 1 2.75 0Zm4.154 3.043A3.08 3.08 0 0 0 3.5 2.985v6.333c1.343-.584 2.904-.618 4.243.286l.451.301.006.004c1.31.892 3.006.685 4.3-.122V3.951c-1.911.745-3.951.201-5.596-.908Z"/></svg>