<svg xmlns="http://www.w3.org/2000/svg" fill="currentColor" viewBox="0 0 16 16"><path d="M8.004 0c.69 0 1.25.56 1.25 1.25v3.86c1.832 1.18 5.716 3.69 6.059 3.938.448.324.816.732.647 1.258-.17.525-.733.815-1.259.646l-5.447-1.75v3.273l2.199 1.63c.553.395.694.848.447 1.342a1 1 0 0 1-1.342.448L8.004 15l-2.554.895a1.001 1.001 0 0 1-1.343-.448c-.247-.494-.105-.947.448-1.341l2.198-1.543V9.2l-5.447 1.751a1.001 1.001 0 0 1-1.258-.646c-.17-.526.144-.913.646-1.258.383-.263 4.237-2.758 6.06-3.937V1.25c0-.69.56-1.25 1.25-1.25Z"/></svg>