<svg xmlns="http://www.w3.org/2000/svg" fill="currentColor" viewBox="0 0 16 16"><path d="M6.5 1c.199 0 .39.08.53.22L8.31 2.5h4.94A2.75 2.75 0 0 1 16 5.25v7A2.75 2.75 0 0 1 13.25 15H2.75A2.75 2.75 0 0 1 0 12.25v-8.5A2.75 2.75 0 0 1 2.75 1H6.5Zm-5 11.25c0 .69.56 1.25 1.25 1.25h10.5c.69 0 1.25-.56 1.25-1.25V9.5h-13v2.75ZM2.75 2.5c-.69 0-1.25.56-1.25 1.25V8H3V5.75A.75.75 0 0 1 3.75 5h8.5a.75.75 0 0 1 .75.75V8h1.5V5.25c0-.69-.56-1.25-1.25-1.25H8a.75.75 0 0 1-.53-.22L6.19 2.5H2.75ZM4.5 8h7V6.5h-7V8Z"/></svg>