<svg xmlns="http://www.w3.org/2000/svg" fill="currentColor" viewBox="0 0 16 16"><path d="M6.5 1c.199 0 .39.08.53.22L8.31 2.5h4.94A2.75 2.75 0 0 1 16 5.25v7A2.75 2.75 0 0 1 13.25 15H2.75A2.75 2.75 0 0 1 0 12.25v-8.5A2.75 2.75 0 0 1 2.75 1H6.5ZM2.75 2.5c-.69 0-1.25.56-1.25 1.25v8.5c0 .69.56 1.25 1.25 1.25h10.5c.69 0 1.25-.56 1.25-1.25v-7c0-.69-.56-1.25-1.25-1.25H8a.75.75 0 0 1-.53-.22L6.19 2.5H2.75ZM4 9a1 1 0 1 1 0 2 1 1 0 0 1 0-2Zm8.25.5a.75.75 0 0 1 0 1.5h-4.5a.75.75 0 0 1 0-1.5h4.5ZM4 6a1 1 0 1 1 0 2 1 1 0 0 1 0-2Zm8.25.5a.75.75 0 0 1 0 1.5h-4.5a.75.75 0 0 1 0-1.5h4.5Z"/></svg>