<svg xmlns="http://www.w3.org/2000/svg" fill="currentColor" viewBox="0 0 16 16"><path d="M12.25 0C13.216 0 14 .784 14 1.75v12.5A1.75 1.75 0 0 1 12.25 16h-8.5A1.75 1.75 0 0 1 2 14.25V1.75C2 .784 2.784 0 3.75 0h8.5Zm-8.5 1.5a.25.25 0 0 0-.25.25v12.5c0 .138.112.25.25.25h8.5a.25.25 0 0 0 .25-.25V1.75a.25.25 0 0 0-.25-.25h-8.5ZM6.008 10a1 1 0 1 1 0 2 1 1 0 0 1 0-2Zm4.233 0a.75.75 0 0 1 .008 1.5l-1.485.007a.75.75 0 1 1-.008-1.5L10.24 10ZM6.008 7a1 1 0 1 1 0 2 1 1 0 0 1 0-2Zm4.233 0a.75.75 0 0 1 .008 1.5l-1.485.007a.75.75 0 0 1-.008-1.5L10.24 7ZM6.008 4a1 1 0 1 1 0 2 1 1 0 0 1 0-2Zm4.233 0a.75.75 0 0 1 .008 1.5l-1.485.007a.75.75 0 0 1-.008-1.5L10.24 4Z"/></svg>