<svg xmlns="http://www.w3.org/2000/svg" fill="currentColor" viewBox="0 0 16 16"><path d="M11.25 0A2.75 2.75 0 0 1 14 2.75v10.5A2.75 2.75 0 0 1 11.25 16h-6.5A2.75 2.75 0 0 1 2 13.25V2.75A2.75 2.75 0 0 1 4.75 0h6.5ZM3.5 13.25c0 .69.56 1.25 1.25 1.25h6.5c.69 0 1.25-.56 1.25-1.25V7h-9v6.25ZM5.75 8a.75.75 0 0 1 .75.75v2.5a.75.75 0 0 1-1.5 0v-2.5A.75.75 0 0 1 5.75 8Zm-1-6.5c-.69 0-1.25.56-1.25 1.25V5.5h9V2.75c0-.69-.56-1.25-1.25-1.25h-6.5Zm1 1.488a.75.75 0 0 1 .75.75v.5a.75.75 0 0 1-1.5 0v-.5a.75.75 0 0 1 .75-.75Z"/></svg>