<svg xmlns="http://www.w3.org/2000/svg" fill="currentColor" viewBox="0 0 16 16"><path d="M1.75 1a.75.75 0 0 1 .75.75v11.5c0 .138.112.25.25.25h11.5a.75.75 0 0 1 0 1.5H2.75A1.75 1.75 0 0 1 1 13.25V1.75A.75.75 0 0 1 1.75 1Zm3 9.5a.75.75 0 1 1 0 1.5.75.75 0 0 1 0-1.5Zm4.5 0a.75.75 0 0 1 0 1.5h-1.5a.75.75 0 0 1 0-1.5h1.5Zm5 0a.75.75 0 0 1 0 1.5h-2.5a.75.75 0 0 1 0-1.5h2.5Zm-8-4a.75.75 0 0 1 0 1.5h-1.5a.75.75 0 0 1 0-1.5h1.5Zm3 0a.75.75 0 1 1 0 1.5.75.75 0 0 1 0-1.5Zm5 0a.75.75 0 0 1 0 1.5h-2.5a.75.75 0 0 1 0-1.5h2.5Zm-9.5-4a.75.75 0 1 1 0 1.5.75.75 0 0 1 0-1.5Zm4.5 0a.75.75 0 0 1 0 1.5h-1.5a.75.75 0 0 1 0-1.5h1.5Zm2.5 0a.75.75 0 1 1 0 1.5.75.75 0 0 1 0-1.5Zm2.5 0a.75.75 0 1 1 0 1.5.75.75 0 0 1 0-1.5Z"/></svg>