<svg xmlns="http://www.w3.org/2000/svg" fill="currentColor" viewBox="0 0 16 16"><path d="M4.926 9.99a.75.75 0 0 1 1.06-.02.752.752 0 0 1 .021 1.062l-3.33 3.466h1.575a.75.75 0 0 1 0 1.502H.75a.75.75 0 0 1-.75-.75v-3.5a.75.75 0 1 1 1.5 0v1.808l3.426-3.567Zm9.323-.98a.75.75 0 0 1 .75.75v2.503a2.752 2.752 0 0 1-2.75 2.753H9.752a.75.75 0 0 1 0-1.502h2.499c.69 0 1.25-.56 1.25-1.251V9.76a.75.75 0 0 1 .75-.75ZM6.252 1a.75.75 0 0 1 0 1.502h-2.5c-.69 0-1.25.56-1.25 1.25v2.503a.75.75 0 1 1-1.5 0V3.754A2.755 2.755 0 0 1 3.753 1h2.5Zm9-1.001a.75.75 0 0 1 .749.75v3.5a.75.75 0 1 1-1.5 0V2.444L11.076 6.01a.75.75 0 1 1-1.081-1.04l3.33-3.467h-1.577a.75.75 0 0 1 0-1.502h3.502Z"/></svg>