<svg xmlns="http://www.w3.org/2000/svg" fill="currentColor" viewBox="0 0 16 16"><path d="M14.25 14.5a.75.75 0 0 1 0 1.5H1.75a.75.75 0 0 1 0-1.5h12.5ZM8 0a5.5 5.5 0 0 1 5.5 5.5c0 2.059-1.373 3.932-2.581 5.204-.696.732-1.833 1.663-2.493 2.163-.305.195-.524.176-.75.06a15.37 15.37 0 0 1-2.595-2.223C3.873 9.432 2.5 7.56 2.5 5.5A5.5 5.5 0 0 1 8 0Zm0 1.5a4 4 0 0 0-4 4c0 1.441 1.002 2.943 2.169 4.17A16.346 16.346 0 0 0 8 11.313 16.386 16.386 0 0 0 9.831 9.67C10.998 8.443 12 6.94 12 5.5a4 4 0 0 0-4-4ZM8 3a2.5 2.5 0 1 1 0 5 2.5 2.5 0 0 1 0-5Zm0 1.5a1 1 0 1 0 0 2 1 1 0 0 0 0-2Z"/></svg>