<svg xmlns="http://www.w3.org/2000/svg" fill="currentColor" viewBox="0 0 16 16"><path d="M15.25 0a.75.75 0 0 1 .75.75v5a.75.75 0 0 1-.75.75h-4.5a.75.75 0 0 1 0-1.5h2.935A6.46 6.46 0 0 0 7.95 1.5C4.37 1.5 1.5 4.39 1.5 8.01c0 3.43 2.566 6.196 5.867 6.493a.75.75 0 0 1-.135 1.494C3.154 15.63 0 12.212 0 8.01 0 3.574 3.53 0 7.95 0a7.965 7.965 0 0 1 6.55 3.442V.75a.75.75 0 0 1 .75-.75Zm-3.259 13.2a.75.75 0 0 1 1.018 1.1c-.723.669-1.63 1.138-2.54 1.417a.75.75 0 1 1-.439-1.434c.737-.226 1.434-.596 1.961-1.084Zm2.52-4.585a.751.751 0 0 1 1.477.27 12.97 12.97 0 0 1-.794 2.65.75.75 0 0 1-1.388-.57c.319-.777.555-1.522.706-2.35ZM7.75 3a.75.75 0 0 1 .75.75v3.866l2.702 2.04a.75.75 0 0 1-.904 1.196l-3-2.263A.75.75 0 0 1 7 7.99V3.75A.75.75 0 0 1 7.75 3Z"/></svg>