<svg xmlns="http://www.w3.org/2000/svg" fill="currentColor" viewBox="0 0 16 16"><path d="M7 9c.381 0 .712.271.782.643l.262 1.313 1.313.262c.372.07.643.4.643.782a.796.796 0 0 1-.643.782l-1.313.262-.262 1.313A.796.796 0 0 1 7 15a.796.796 0 0 1-.782-.643l-.262-1.313-1.313-.262A.796.796 0 0 1 4 12c0-.381.271-.712.643-.782l1.313-.262.262-1.313A.796.796 0 0 1 7 9Zm6.25-8A2.75 2.75 0 0 1 16 3.75v7.5A2.75 2.75 0 0 1 13.25 14h-.5a.75.75 0 0 1 0-1.5h.5c.69 0 1.25-.56 1.25-1.25V5.5h-13v5.75c0 .777.58 1.25 1.375 1.25a.75.75 0 0 1 0 1.5C1.289 14 0 12.846 0 11.25v-7.5A2.75 2.75 0 0 1 2.75 1h10.5ZM11 6.999a.75.75 0 0 1 .75.75v.5h.5a.75.75 0 0 1 0 1.5h-.5v.5a.75.75 0 0 1-1.5 0v-.5h-.5a.75.75 0 0 1 0-1.5h.5v-.5a.75.75 0 0 1 .75-.75ZM2.417 2.546A1.25 1.25 0 0 0 1.5 3.75V4h1.724l-.807-1.454ZM4.938 4h2.264L6.37 2.5H4.107L4.938 4Zm3.979 0h2.262l-.832-1.5H8.086L8.917 4Zm3.977 0H14.5v-.25c0-.69-.56-1.25-1.25-1.25h-1.188l.832 1.5Z"/></svg>