<svg xmlns="http://www.w3.org/2000/svg" fill="currentColor" viewBox="0 0 16 16"><path d="M1.75 9.985a.75.75 0 0 1 .75.749v2.52c0 .69.56 1.248 1.25 1.248h8.5c.69 0 1.25-.559 1.25-1.248v-.501a.75.75 0 0 1 1.5 0v.501A2.748 2.748 0 0 1 12.25 16h-8.5A2.748 2.748 0 0 1 1 13.254v-2.52a.75.75 0 0 1 .75-.75Zm12.499 0a.75.75 0 1 1 0 1.498h-1.753v.25a.75.75 0 0 1-1.5 0v-.25h-1.5v.25a.75.75 0 0 1-1.5 0v-1a.75.75 0 0 1 .75-.748h5.503ZM7.254 6.989a.75.75 0 0 1 .75.75v.98a.75.75 0 0 1-1.5 0v-.232H1.75a.75.75 0 1 1 0-1.498h5.504ZM11.25 0a.75.75 0 0 1 .75.749v1.248h.25c1.519 0 2.75 1.23 2.75 2.746v2.483a.75.75 0 0 1-1.5 0V4.743c0-.69-.56-1.248-1.25-1.248H12v.749a.75.75 0 0 1-1.5 0v-.75h-5v.75a.75.75 0 0 1-1.5 0v-.75h-.25c-.69 0-1.25.56-1.25 1.249v.5a.75.75 0 0 1-1.5 0v-.5a2.748 2.748 0 0 1 2.75-2.746H4V.749a.75.75 0 0 1 1.5 0v1.248h5V.749A.75.75 0 0 1 11.25 0Z"/></svg>