<svg xmlns="http://www.w3.org/2000/svg" fill="currentColor" viewBox="0 0 16 16"><path d="M8 0a.75.75 0 0 1 .75.75v1.298a5.968 5.968 0 0 1 2.928 1.213L12.72 2.22a.75.75 0 1 1 1.06 1.06l-1.042 1.041a5.967 5.967 0 0 1 1.213 2.929h1.299a.75.75 0 0 1 0 1.5h-1.299a5.966 5.966 0 0 1-1.213 2.928l1.042 1.042a.75.75 0 1 1-1.06 1.06l-1.042-1.042a5.966 5.966 0 0 1-2.928 1.213v1.299a.75.75 0 0 1-1.5 0v-1.299a5.967 5.967 0 0 1-2.929-1.213l-1.04 1.042a.75.75 0 1 1-1.061-1.06l1.04-1.042A5.967 5.967 0 0 1 2.05 8.75H.75a.75.75 0 0 1 0-1.5h1.299A5.968 5.968 0 0 1 3.26 4.321l-1.04-1.04A.75.75 0 1 1 3.28 2.22l1.041 1.04A5.968 5.968 0 0 1 7.25 2.049V.75A.75.75 0 0 1 8 0ZM3.758 6.5a4.5 4.5 0 1 0 8.484 0h-.506l-.472 1.057a.75.75 0 0 1-.685.443H9.307a.75.75 0 0 1-.684-.443L8.148 6.5h-.312l-.46 1.057A.75.75 0 0 1 6.694 8H5.421a.75.75 0 0 1-.685-.443L4.264 6.5h-.506Zm1.858 2.666a.751.751 0 0 1 1.056.112c.74.916 1.944.921 2.687 0a.75.75 0 0 1 1.167.944c-1.333 1.65-3.692 1.646-5.022 0a.751.751 0 0 1 .112-1.056ZM8 3.5A4.49 4.49 0 0 0 4.646 5h6.708A4.488 4.488 0 0 0 8 3.5Z"/></svg>