<svg xmlns="http://www.w3.org/2000/svg" fill="currentColor" viewBox="0 0 16 16"><path d="M8.25.004a.75.75 0 0 1 .75.75v2.5a.75.75 0 0 1-.75.75L7 4v1.25a.757.757 0 0 1-.75.758l-1.118-.004L6.846 8H9.25a.75.75 0 0 1 .75.75v1.975c1.21-.037 2.415.214 3.005 1.422 1.047-1.264 1.47-2.781 1.495-4.393a.75.75 0 0 1 1.5 0v.252a8.001 8.001 0 0 1-16 0C0 3.467 3.756.004 8.25.004Zm-6.417 5.95A6.5 6.5 0 0 0 8 14.504V12.3c-1.367-.203-2.287-.951-2.45-2.3L1.833 5.954ZM13.5.004a2.5 2.5 0 1 1 0 5 2.5 2.5 0 0 1 0-5Zm0 1.5a1 1 0 1 0 0 2 1 1 0 0 0 0-2Z"/></svg>