<svg xmlns="http://www.w3.org/2000/svg" fill="currentColor" viewBox="0 0 16 16"><path d="M8 0a8 8 0 1 1 0 16A8 8 0 0 1 8 0Zm0 1.5a6.5 6.5 0 1 0 0 13 6.5 6.5 0 0 0 0-13ZM8.75 12a.75.75 0 1 1 0 1.5.75.75 0 0 1 0-1.5ZM5.5 11a.75.75 0 1 1 0 1.5.75.75 0 0 1 0-1.5Zm6.25-1a.75.75 0 1 1 0 1.5.75.75 0 0 1 0-1.5ZM8 5.25a2.75 2.75 0 1 1 0 5.5 2.75 2.75 0 0 1 0-5.5Zm-4.25 3a.75.75 0 1 1 0 1.5.75.75 0 0 1 0-1.5ZM8 6.75a1.25 1.25 0 1 0 0 2.5 1.25 1.25 0 0 0 0-2.5ZM7.75 3C10.65 3 13 5.35 13 8.25a.75.75 0 0 1-1.5 0A3.75 3.75 0 0 0 7.75 4.5a.75.75 0 0 1 0-1.5Zm-3.5 2a.75.75 0 1 1 0 1.5.75.75 0 0 1 0-1.5Z"/></svg>