<svg xmlns="http://www.w3.org/2000/svg" fill="currentColor" viewBox="0 0 16 16"><path d="M3.25 1a.75.75 0 0 1 0 1.5h-1.5a.25.25 0 0 0-.25.25v10.5c0 .138.112.25.25.25h1.5a.75.75 0 0 1 0 1.5h-1.5A1.75 1.75 0 0 1 0 13.25V2.75C0 1.784.784 1 1.75 1h1.5Zm11 0c.966 0 1.75.784 1.75 1.75v10.5A1.75 1.75 0 0 1 14.25 15h-1.5a.75.75 0 0 1 0-1.5h1.5a.25.25 0 0 0 .25-.25V2.75a.25.25 0 0 0-.25-.25h-1.5a.75.75 0 0 1 0-1.5h1.5Zm-7 9a.75.75 0 0 1 0 1.5h-2.5a.75.75 0 0 1 0-1.5h2.5Zm4-3a.75.75 0 0 1 0 1.5h-6.5a.75.75 0 0 1 0-1.5h6.5Zm0-3a.75.75 0 0 1 0 1.5h-6.5a.75.75 0 0 1 0-1.5h6.5Z"/></svg>