<svg xmlns="http://www.w3.org/2000/svg" fill="currentColor" viewBox="0 0 16 16"><path d="M9 1a4 4 0 0 1 2.616 7.023C13.61 8.931 15 10.927 15 13.25v1a.75.75 0 0 1-.75.75H3.75a.75.75 0 0 1-.75-.75v-1c0-.084.003-.167.007-.25H1.75a.75.75 0 0 1-.75-.75v-1.5c0-1.485.78-2.824 1.964-3.587A2.965 2.965 0 0 1 2 4.975a2.975 2.975 0 0 1 4.117-2.747A3.988 3.988 0 0 1 9 1Zm0 8c-2.5 0-4.5 1.911-4.5 4.25v.25h9v-.25C13.5 10.606 11.5 9 9 9ZM5.212 8C3.725 8 2.5 9.253 2.5 10.75v.75h.774A5.844 5.844 0 0 1 6.394 8H5.213ZM9 2.5a2.5 2.5 0 1 0 0 5 2.5 2.5 0 0 0 0-5Zm-4.025 1a1.475 1.475 0 0 0 0 2.95c.098 0 .192-.013.285-.031a3.99 3.99 0 0 1 .02-2.887 1.48 1.48 0 0 0-.305-.032Z"/></svg>