<svg xmlns="http://www.w3.org/2000/svg" fill="currentColor" viewBox="0 0 16 16"><path d="M7.25 2a.75.75 0 0 1 .75.75v10.5a.75.75 0 0 1-1.5 0V9h-5v4.25a.75.75 0 0 1-1.5 0V2.75a.75.75 0 0 1 1.5 0V7.5h5V2.75A.75.75 0 0 1 7.25 2Zm7 2c.966 0 1.75.784 1.75 1.75v2c0 .372-.117.716-.315 1 .198.284.315.628.315 1v2.5A1.75 1.75 0 0 1 14.25 14h-3.5a.75.75 0 0 1 0-1.5h3.5a.25.25 0 0 0 .25-.25v-2.5a.25.25 0 0 0-.25-.25h-3.5a.75.75 0 0 1 0-1.5h3.5a.25.25 0 0 0 .25-.25v-2a.25.25 0 0 0-.25-.25h-3.5a.75.75 0 0 1 0-1.5h3.5Z"/></svg>