<svg xmlns="http://www.w3.org/2000/svg" fill="currentColor" viewBox="0 0 16 16"><path d="M8 0a7 7 0 0 1 7 7v4.25A4.75 4.75 0 0 1 10.25 16h-2.5a.75.75 0 0 1-.75-.75v-1a.75.75 0 0 1 1.5 0v.25h1.75c1.202 0 2.25-.653 2.813-1.623a2.75 2.75 0 0 1-.813.123h-1.5a.75.75 0 0 1-.75-.75v-4.5a.75.75 0 0 1 .75-.75h2.75a5.5 5.5 0 1 0-11 0h2.75a.75.75 0 0 1 .75.75v4.5a.75.75 0 0 1-.75.75h-1.5A2.75 2.75 0 0 1 1 10.25V7a7 7 0 0 1 7-7ZM2.5 10.25c0 .69.56 1.25 1.25 1.25h.75v-3h-2v1.75Zm9 1.25h.75c.69 0 1.25-.56 1.25-1.25V8.5h-2v3Z"/></svg>