<svg xmlns="http://www.w3.org/2000/svg" fill="currentColor" viewBox="0 0 16 16"><path d="M14.5 6c0-1.876-1.528-3.493-3.402-3.5-1.05.004-1.862.86-2.5 1.702l-.594.786-.6-.782C6.756 3.36 5.964 2.5 4.914 2.5 3.034 2.5 1.5 4.12 1.5 6c0 .852.348 1.527 1.027 2.217l5.322 5.209a.25.25 0 0 0 .35-.001l5.274-5.208C14.158 7.53 14.5 6.857 14.5 6ZM16 6c0 1.36-.584 2.395-1.47 3.28l-.003.003-5.273 5.21a1.75 1.75 0 0 1-2.454.005L1.476 9.286l-.01-.009C.596 8.397 0 7.363 0 6c0-2.656 2.155-5 4.914-5C6.3 1 7.318 1.824 8 2.571c.686-.749 1.71-1.562 3.087-1.57l.02-.001C13.854 1.011 16 3.35 16 6Z"/></svg>