<svg xmlns="http://www.w3.org/2000/svg" fill="currentColor" viewBox="0 0 16 16"><path d="M8.25 0A.75.75 0 0 1 9 .75v3.69l1.97-1.97a.75.75 0 1 1 1.06 1.06L9 6.56V7h2.398l2.276-2.73a.75.75 0 0 1 1.152.96L13.352 7h1.898a.75.75 0 0 1 0 1.5h-1.898l1.474 1.77a.75.75 0 0 1-1.152.96L11.398 8.5H9v.44l3.03 3.03a.75.75 0 1 1-1.06 1.06L9 11.06v4.19a.75.75 0 0 1-1.5 0v-3.282a4 4 0 0 1 0-7.937V.75A.75.75 0 0 1 8.25 0ZM2.122 11.737a.75.75 0 0 1 1.06 1.06l-1 1a.75.75 0 0 1-1.06-1.06l1-1ZM7.5 5.55a2.501 2.501 0 0 0 0 4.9v-4.9ZM2.25 7a.75.75 0 0 1 0 1.5H.75a.75.75 0 0 1 0-1.5h1.5Zm-.53-5.28a.75.75 0 0 1 1.06 0l1 1a.75.75 0 1 1-1.06 1.06l-1-1a.75.75 0 0 1 0-1.06Z"/></svg>