<svg xmlns="http://www.w3.org/2000/svg" fill="currentColor" viewBox="0 0 16 16"><path d="M7.625 13.25a1.375 1.375 0 1 1 0 2.75 1.375 1.375 0 0 1 0-2.75ZM.875 14a.875.875 0 1 1 0 1.75.875.875 0 0 1 0-1.75Zm3.25 0a.875.875 0 1 1 0 1.75.875.875 0 0 1 0-1.75Zm7.25 0a.875.875 0 1 1 0 1.75.875.875 0 0 1 0-1.75Zm3.5 0a.875.875 0 1 1 0 1.75.875.875 0 0 1 0-1.75ZM7.75 9.5a1.75 1.75 0 1 1 0 3.5 1.75 1.75 0 0 1 0-3.5Zm-3.375.5a1.375 1.375 0 1 1 0 2.75 1.375 1.375 0 0 1 0-2.75Zm7 0a1.375 1.375 0 1 1 0 2.75 1.375 1.375 0 0 1 0-2.75Zm-10.5.25a.875.875 0 1 1 0 1.75.875.875 0 0 1 0-1.75Zm14 0a.875.875 0 1 1 0 1.75.875.875 0 0 1 0-1.75ZM11.25 6a1.75 1.75 0 1 1 0 3.5 1.75 1.75 0 0 1 0-3.5Zm-6.875.25a1.375 1.375 0 1 1 0 2.75 1.375 1.375 0 0 1 0-2.75Zm3.25 0a1.375 1.375 0 1 1 0 2.75 1.375 1.375 0 0 1 0-2.75ZM.875 7a.875.875 0 1 1 0 1.75.875.875 0 0 1 0-1.75Zm14 0a.875.875 0 1 1 0 1.75.875.875 0 0 1 0-1.75Zm-7.25-4a1.375 1.375 0 1 1 0 2.75 1.375 1.375 0 0 1 0-2.75Zm3.75 0a1.375 1.375 0 1 1 0 2.75 1.375 1.375 0 0 1 0-2.75Zm3.25 0a1.375 1.375 0 1 1 0 2.75 1.375 1.375 0 0 1 0-2.75Zm-13.75.25a.875.875 0 1 1 0 1.75.875.875 0 0 1 0-1.75Zm3.5 0a.875.875 0 1 1 0 1.75.875.875 0 0 1 0-1.75ZM.875 0a.875.875 0 1 1 0 1.75.875.875 0 0 1 0-1.75Zm3.5 0a.875.875 0 1 1 0 1.75.875.875 0 0 1 0-1.75Zm3.5 0a.875.875 0 1 1 0 1.75.875.875 0 0 1 0-1.75Zm3.5 0a.875.875 0 1 1 0 1.75.875.875 0 0 1 0-1.75Zm3.5 0a.875.875 0 1 1 0 1.75.875.875 0 0 1 0-1.75Z"/></svg>