<svg xmlns="http://www.w3.org/2000/svg" fill="currentColor" viewBox="0 0 16 16"><path d="M7.995 0C12.345 0 16 3.642 16 8c0 4.355-3.665 8-8.005 8H.75a.75.75 0 0 1-.64-1.14l1.352-2.23C.52 11.32 0 9.73 0 8c0-4.421 3.576-8 7.995-8ZM1.712 6.344A6.53 6.53 0 0 0 1.5 8c0 1.58.525 2.991 1.447 4.102a.75.75 0 0 1 .064.869L2.082 14.5H7v-1.991c-.89-.348-1.601-1.326-1.713-2.252L1.712 6.344ZM10 3.25a.75.75 0 0 1-.75.75H7v1.25a.75.75 0 0 1-.75.75H4.781l1.78 2H9.25a.75.75 0 0 1 .75.75v2.194h.38c1.028 0 1.968.583 2.388 1.464A6.494 6.494 0 0 0 14.49 8 6.496 6.496 0 0 0 10 1.815V3.25Z"/></svg>