<svg xmlns="http://www.w3.org/2000/svg" fill="currentColor" viewBox="0 0 16 16"><path d="M.22.22a.75.75 0 0 1 1.06 0l14.5 14.5a.75.75 0 1 1-1.06 1.06l-3.025-3.024C10.656 13.372 9.438 14 8 14 4.737 14 2.105 11.866.1 8.373a.75.75 0 0 1 .033-.799c1.19-1.725 2.154-2.8 2.917-3.464L.22 1.28a.75.75 0 0 1 0-1.06Zm3.893 4.954c-.589.497-1.406 1.367-2.469 2.86C3.468 11.025 5.61 12.5 8 12.5c.899 0 1.718-.348 2.597-.843l-1.074-1.073a3 3 0 0 1-4.106-4.106L4.113 5.174ZM8 2c3.288 0 5.868 1.975 7.905 5.635a.752.752 0 0 1-.018.762c-.648 1.039-1.155 1.836-1.556 2.328a.75.75 0 0 1-1.162-.95c.286-.35.666-.933 1.204-1.79C12.536 4.861 10.443 3.5 8 3.5c-.493 0-1.246.041-1.612.11a.75.75 0 0 1-.276-1.475C6.617 2.04 7.482 2 8 2ZM6.552 7.612c-.286 1.07.743 2.125 1.835 1.835L6.552 7.612Z"/></svg>