<svg xmlns="http://www.w3.org/2000/svg" fill="currentColor" viewBox="0 0 16 16"><path d="M7.92 0C12.394 0 16 3.55 16 8s-3.606 8-8.08 8C4.066 16 .832 13.341.02 9.778a.751.751 0 0 1 1.463-.334C2.139 12.325 4.766 14.5 7.92 14.5c3.662 0 6.58-2.895 6.58-6.5s-2.918-6.5-6.58-6.5C5.38 1.5 3.143 2.927 2.06 5h3.19a.75.75 0 0 1 0 1.5H.75A.75.75 0 0 1 0 5.75v-5a.75.75 0 0 1 1.5 0v2.362A8.155 8.155 0 0 1 7.92 0Zm-.17 3a.75.75 0 0 1 .75.75v3.866l2.703 2.04a.75.75 0 0 1-.905 1.196l-3-2.263A.751.751 0 0 1 7 7.99V3.75A.75.75 0 0 1 7.75 3Z"/></svg>