<svg xmlns="http://www.w3.org/2000/svg" fill="currentColor" viewBox="0 0 16 16"><path d="M6.121.734A2.77 2.77 0 0 1 9.673.562s4.201 3.793 4.642 4.296A2.76 2.76 0 0 1 15 6.683v6.567A2.746 2.746 0 0 1 12.25 16h-8.5A2.746 2.746 0 0 1 1 13.25v-6.5c0-.745.3-1.556.886-2.098L6.12.735h.001Zm2.74 1.102a1.272 1.272 0 0 0-1.723 0L2.905 5.754c-.24.223-.404.615-.404.997v6.5c0 .694.556 1.25 1.25 1.25H5V9.75C5 8.776 5.79 8 6.75 8h2.5c.96 0 1.75.776 1.75 1.75v4.75h1.25c.694 0 1.25-.556 1.25-1.25V6.683c0-.312-.111-.607-.313-.836L8.861 1.836ZM6.75 9.5c-.14 0-.25.11-.25.25v4.75h3V9.75c0-.14-.11-.25-.25-.25h-2.5Z"/></svg>