<svg xmlns="http://www.w3.org/2000/svg" fill="currentColor" viewBox="0 0 16 16"><path d="M6.121.734A2.77 2.77 0 0 1 9.673.562l4.548 4.195c.515.538.779 1.294.779 1.993v6.5c0 1.529-1.251 2.75-2.767 2.75H5.278A4.28 4.28 0 0 1 1 11.726C1 9.364 2.897 7.5 5.25 7.5h4.19l-.72-.72a.75.75 0 0 1 1.06-1.06l2 1.997c.28.298.3.728 0 1.06l-2 2.003a.75.75 0 0 1-1.06-1.06L9.438 9H5.25C3.712 9 2.5 10.204 2.5 11.726A2.78 2.78 0 0 0 5.278 14.5h6.955a1.26 1.26 0 0 0 1.267-1.25v-6.5a1.46 1.46 0 0 0-.318-.906l-4.32-4.007a1.272 1.272 0 0 0-1.724-.001L2.905 5.75c-.211.197-.377.467-.426.672a.75.75 0 0 1-1.458-.346c.132-.56.49-1.077.864-1.424L6.12.734h.001Z"/></svg>