<svg xmlns="http://www.w3.org/2000/svg" fill="currentColor" viewBox="0 0 16 16"><path d="M1.75 1a.75.75 0 0 1 .75.75v11.5c0 .138.112.25.25.25h11.5a.75.75 0 0 1 0 1.5H2.75A1.75 1.75 0 0 1 1 13.25V1.75A.75.75 0 0 1 1.75 1Zm8.5 0a1.26 1.26 0 0 1 1.235 1.425l1.59 1.589A1.24 1.24 0 0 1 14.5 5.25c0 .667-.523 1.21-1.18 1.246l-.893 1.338c.108.229.12.549.013.794l1.34 1.873a1.25 1.25 0 1 1-1.221.871l-1.34-1.874a1.249 1.249 0 0 1-.04-2.495l.892-1.34a1.274 1.274 0 0 1-.057-.589l-1.59-1.589A1.26 1.26 0 0 1 9 2.25C9 1.56 9.56 1 10.25 1Zm-1 9a.75.75 0 0 1 0 1.5h-4.5a.75.75 0 0 1 0-1.5h4.5Zm-2-3a.75.75 0 0 1 0 1.5h-2.5a.75.75 0 0 1 0-1.5h2.5Zm1-3a.75.75 0 0 1 0 1.5h-3.5a.75.75 0 0 1 0-1.5h3.5Zm-2-3a.75.75 0 0 1 0 1.5h-1.5a.75.75 0 0 1 0-1.5h1.5Z"/></svg>