<svg xmlns="http://www.w3.org/2000/svg" fill="currentColor" viewBox="0 0 16 16"><path d="M13.68 11.262a.75.75 0 0 1 1.14.976l-3 3.5a.758.758 0 0 1-1.1.042l-1.5-1.5a.75.75 0 1 1 1.06-1.06l.927.926 2.474-2.884ZM7 1a4 4 0 0 1 2.617 7.022c.367.167.703.38 1.04.598a.75.75 0 0 1-.814 1.26l-.25-.161C8.748 9.116 7.807 9 6.798 9 4.418 9 2.5 10.911 2.5 13.25v.25h3.75a.75.75 0 0 1 0 1.5h-4.5a.75.75 0 0 1-.75-.75v-1c0-2.323 1.39-4.319 3.383-5.227A4 4 0 0 1 7 1Zm-.75 10a.75.75 0 0 1 0 1.5h-1.5a.75.75 0 0 1 0-1.5h1.5ZM7 2.5a2.5 2.5 0 1 0 0 5 2.5 2.5 0 0 0 0-5Z"/></svg>