<svg xmlns="http://www.w3.org/2000/svg" fill="currentColor" viewBox="0 0 16 16"><path d="M2.5 13A2.5 2.5 0 0 1 5 15.5a.5.5 0 0 1-.5.5h-4a.515.515 0 0 1-.5-.5A2.5 2.5 0 0 1 2.5 13Zm11 0a2.5 2.5 0 0 1 2.5 2.5.5.5 0 0 1-.5.5h-4a.515.515 0 0 1-.5-.5 2.5 2.5 0 0 1 2.5-2.5Zm-4.25-2a.75.75 0 0 1 0 1.5h-2.5a.75.75 0 0 1 0-1.5h2.5ZM2.5 9a1.5 1.5 0 1 1 0 3 1.5 1.5 0 0 1 0-3Zm11 0a1.5 1.5 0 1 1 0 3 1.5 1.5 0 0 1 0-3ZM8 3c1.724 0 3 1.387 3 3.103 0 .775-.24 1.303-.543 1.81-.3.5-.608.912-.96 1.657a.75.75 0 0 1-.679.43H7.182a.75.75 0 0 1-.677-.428c-.35-.733-.647-1.09-.955-1.582C5.23 7.478 5 6.947 5 6.103 5 4.387 6.276 3 8 3Zm0 1.5c-.832 0-1.5.65-1.5 1.603 0 .5.113.758.321 1.091.181.29.493.707.819 1.306h.716c.321-.605.627-1.045.815-1.358.225-.377.329-.634.329-1.04C9.5 5.15 8.832 4.5 8 4.5ZM13.25 0A2.75 2.75 0 0 1 16 2.75v3.5a.75.75 0 0 1-1.5 0v-3.5c0-.69-.56-1.25-1.25-1.25H2.75c-.69 0-1.25.56-1.25 1.25v3.5a.75.75 0 0 1-1.5 0v-3.5A2.75 2.75 0 0 1 2.75 0h10.5Z"/></svg>