<svg xmlns="http://www.w3.org/2000/svg" fill="currentColor" viewBox="0 0 16 16"><path d="M.75 2.996a.75.75 0 0 1 .75.75v9.498c0 .69.56 1.25 1.249 1.25l9.002.006a.75.75 0 0 1-.002 1.5l-9-.006A2.75 2.75 0 0 1 0 13.244V3.746a.75.75 0 0 1 .75-.75ZM13.25 0A2.75 2.75 0 0 1 16 2.75v7.5A2.75 2.75 0 0 1 13.25 13h-7.5A2.75 2.75 0 0 1 3 10.25v-7.5A2.75 2.75 0 0 1 5.75 0h7.5Zm-3.009 8.514.288.178a.75.75 0 0 1-.789 1.276L7.29 8.45c-.78.772-2.571 2.505-2.571 2.505.225.328.603.544 1.031.544h7.5c.69 0 1.25-.56 1.25-1.25V7.157l-1.944-.904-2.315 2.26ZM5.75 1.5c-.69 0-1.25.56-1.25 1.25v6.354l1.953-1.93a1.25 1.25 0 0 1 1.365-.154l1.109.68 2.704-2.64a1.25 1.25 0 0 1 1.22-.307l1.649.75V2.75c0-.69-.56-1.25-1.25-1.25h-7.5Zm1 1.5a1.25 1.25 0 1 1 0 2.5 1.25 1.25 0 0 1 0-2.5Z"/></svg>