<svg xmlns="http://www.w3.org/2000/svg" fill="currentColor" viewBox="0 0 16 16"><path d="M4.251 2a.75.75 0 0 1 0 1.5H3.75c-.69 0-1.25.56-1.25 1.25V9h2.75c.72 0 1.171.57 1.286 1.081A1.5 1.5 0 0 0 8 11.25c.855 0 1.299-.627 1.522-1.361C9.696 9.437 10.12 9 10.75 9h2.75V4.75c0-.69-.56-1.25-1.25-1.25h-.499a.75.75 0 0 1 0-1.5h.499A2.75 2.75 0 0 1 15 4.75v8.5A2.75 2.75 0 0 1 12.25 16h-8.5A2.75 2.75 0 0 1 1 13.25v-8.5A2.75 2.75 0 0 1 3.75 2h.501ZM2.5 13.25c0 .69.56 1.25 1.25 1.25h8.5c.69 0 1.25-.56 1.25-1.25V10.5h-2.598a2.998 2.998 0 0 1-5.804 0H2.5v2.75ZM8 0a.75.75 0 0 1 .75.75v4.674l.72-.72a.75.75 0 0 1 1.06 1.06l-1.997 2a.757.757 0 0 1-1.06 0l-2.003-2a.75.75 0 0 1 1.06-1.06l.72.718V.75A.75.75 0 0 1 8 0Z"/></svg>