<svg xmlns="http://www.w3.org/2000/svg" fill="currentColor" viewBox="0 0 16 16"><path d="M4.618 2.002c.667 0 1.269.374 1.567.971l.876 1.758.003.006C7.56 5.753 6.978 6.73 6.06 7.188c.205.634.644 1.193 1.107 1.658.463.465 1.019.903 1.651 1.108.463-.924 1.442-1.51 2.458-.99l1.445.725a2.295 2.295 0 0 1 1.28 2.066v.636c0 .907-.19 1.636-.537 2.205-.769 1.257-2.235 1.568-3.602 1.33A13.597 13.597 0 0 1 .105 6.143l-.002-.004c-.33-1.325.14-2.876 1.33-3.604.966-.59 2.098-.53 3.185-.532Zm-.99 1.502c-1.321-.004-2.423.85-2.07 2.27a12.097 12.097 0 0 0 8.671 8.697c.171.043.79.117 1.321-.112 1.014-.437.953-1.675.953-2.604 0-.31-.17-.584-.447-.72l-.006-.003-1.45-.727-.006-.003a.242.242 0 0 0-.326.106l-.003.005c-.224.449-.415 1.123-1.023 1.123-1.2 0-2.323-.814-3.135-1.628-.812-.815-1.624-1.942-1.624-3.144 0-.607.667-.798 1.114-1.023a.26.26 0 0 0 .124-.339l-.877-1.757a.247.247 0 0 0-.226-.14h-.99ZM10.753.193a.75.75 0 0 1 1.059.055.753.753 0 0 1-.056 1.061l-1.046.944h4.542a.75.75 0 0 1 0 1.502H10.71l1.046.943a.753.753 0 0 1 .056 1.061.749.749 0 0 1-1.059.056L8.254 3.562a.76.76 0 0 1 0-1.117L10.752.193Z"/></svg>