<svg xmlns="http://www.w3.org/2000/svg" fill="currentColor" viewBox="0 0 16 16"><path d="m4.78.22 2.5 2.5a.75.75 0 0 1-1.06 1.06L5 2.56v10.88l1.22-1.22a.75.75 0 0 1 1.06 1.06l-2.5 2.5a.756.756 0 0 1-1.06 0l-2.5-2.5a.75.75 0 0 1 1.06-1.06l1.22 1.22V2.56L2.28 3.78a.75.75 0 0 1-1.06-1.06l2.5-2.5a.751.751 0 0 1 1.06 0Zm9.547 13.284a.75.75 0 0 1 0 1.492L8.75 15a.75.75 0 0 1 0-1.5l5.577.004ZM14.25 10.5a.75.75 0 0 1 0 1.5h-3.5a.75.75 0 0 1 0-1.5h3.5Zm.077-3.246a.75.75 0 0 1 0 1.492L8.75 8.75a.75.75 0 1 1 0-1.5l5.577.004ZM14.25 4a.75.75 0 0 1 0 1.5h-3.5a.75.75 0 0 1 0-1.5h3.5Zm.077-2.996a.75.75 0 0 1 0 1.492L8.75 2.5a.75.75 0 1 1 0-1.5l5.577.004Z"/></svg>