<svg xmlns="http://www.w3.org/2000/svg" fill="currentColor" viewBox="0 0 16 16"><path d="M.75 2.996a.75.75 0 0 1 .75.75v9.504c0 .69.56 1.25 1.25 1.25h9a.75.75 0 0 1 0 1.5h-9A2.75 2.75 0 0 1 0 13.25V3.746a.75.75 0 0 1 .75-.75ZM13.25 0A2.75 2.75 0 0 1 16 2.75v7.5A2.75 2.75 0 0 1 13.25 13h-7.5A2.75 2.75 0 0 1 3 10.25v-7.5A2.75 2.75 0 0 1 5.75 0h7.5Zm-7.5 1.5c-.69 0-1.25.56-1.25 1.25v7.5c0 .69.56 1.25 1.25 1.25h7.5c.69 0 1.25-.56 1.25-1.25v-7.5c0-.69-.56-1.25-1.25-1.25h-7.5Zm5.5 2.5a.75.75 0 0 1 .75.75v2.5a.75.75 0 0 1-1.5 0v-.745L8.008 8.802a.75.75 0 0 1-1.016-1.104L9.378 5.5H8.75a.75.75 0 0 1 0-1.5h2.5Z"/></svg>