<svg xmlns="http://www.w3.org/2000/svg" fill="currentColor" viewBox="0 0 16 16"><path d="M5.25 5a.75.75 0 0 1 0 1.5h-3.5a.25.25 0 0 0-.25.25v7.5c0 .138.112.25.25.25h12.5a.25.25 0 0 0 .25-.25v-3.5a.75.75 0 0 1 1.5 0v3.5A1.75 1.75 0 0 1 14.25 16H1.75A1.75 1.75 0 0 1 0 14.25v-7.5C0 5.784.784 5 1.75 5h3.5ZM3.22 7.72a.75.75 0 0 1 1.06 0l2 1.997a.772.772 0 0 1 0 1.06l-2 2.003a.75.75 0 0 1-1.06-1.06l1.47-1.472L3.22 8.78a.75.75 0 0 1 0-1.06Zm3.5 0a.75.75 0 0 1 1.06 0l2 1.997a.772.772 0 0 1 0 1.06l-2 2.003a.75.75 0 0 1-1.06-1.06l1.47-1.472L6.72 8.78a.75.75 0 0 1 0-1.06Zm5.5 1.998a.75.75 0 0 1 1.06 1.06l-2 2.002a.75.75 0 0 1-1.06-1.06l1-1.001 1-1.001ZM11.75 0a4.25 4.25 0 1 1 0 8.5 4.25 4.25 0 0 1 0-8.5Zm0 1.5a2.75 2.75 0 1 0 0 5.5 2.75 2.75 0 0 0 0-5.5Zm0 .5a.75.75 0 0 1 .75.75v1.144l.502.533a.75.75 0 0 1-1.092 1.028l-.706-.75A.75.75 0 0 1 11 4.191V2.75a.75.75 0 0 1 .75-.75Z"/></svg>