<svg xmlns="http://www.w3.org/2000/svg" fill="currentColor" viewBox="0 0 16 16"><path d="M11.25 0C12.216 0 13 .784 13 1.75v2.5a.75.75 0 0 1-1.5 0v-2.5a.25.25 0 0 0-.25-.25H6.71a.25.25 0 0 0-.19.087L6 2.193V5.25a.75.75 0 0 1-.75.75H2.738c-.089.104-.238.37-.238.37v7.88c0 .138.112.25.25.25h1.5a.75.75 0 0 1 0 1.5h-1.5A1.75 1.75 0 0 1 1 14.25V6.37c0-.417.15-.821.42-1.139L5.38.611A1.751 1.751 0 0 1 6.71 0h4.54Zm2.41 7c.605 0 1.238.333 1.535.94l.081.21.7 2.706a.75.75 0 0 1 .024.188V15a1 1 0 1 1-2 0H9a1 1 0 1 1-2 0v-3.956c0-.06.007-.12.021-.178L7.68 8.16l.033-.1A1.674 1.674 0 0 1 9.3 7h4.358ZM8.5 11v2.486h6V11h-6Zm1.25.5a.75.75 0 1 1 0 1.5.75.75 0 0 1 0-1.5Zm3.5 0a.75.75 0 1 1 0 1.5.75.75 0 0 1 0-1.5Zm-3.95-3c-.077 0-.144.022-.182.092l-.223.922h5.184l-.237-.921c-.033-.066-.112-.093-.183-.093H9.301Z"/></svg>