<svg xmlns="http://www.w3.org/2000/svg" fill="currentColor" viewBox="0 0 16 16"><path d="M11.25 0C12.216 0 13 .784 13 1.75v3.5a.75.75 0 0 1-1.5 0v-3.5a.25.25 0 0 0-.25-.25H6.71a.25.25 0 0 0-.19.087L6 2.193V5.25a.75.75 0 0 1-.75.75H2.738c-.089.104-.238.37-.238.37v7.88c0 .138.112.25.25.25h2.5a.75.75 0 0 1 0 1.5h-2.5A1.75 1.75 0 0 1 1 14.25V6.37c0-.417.15-.821.42-1.139L5.38.611A1.751 1.751 0 0 1 6.71 0h4.54Zm.423 8.075a.75.75 0 0 1 .754.059l3.25 2.25A.75.75 0 0 1 16 11v4.25a.75.75 0 0 1-.75.75h-6.5a.75.75 0 0 1-.75-.75V11a.75.75 0 0 1 .323-.616l3.35-2.309ZM9.5 11.392V14.5H11V13a1 1 0 1 1 2 0v1.5h1.5v-3.108L12 9.662l-2.5 1.73Z"/></svg>