<svg xmlns="http://www.w3.org/2000/svg" fill="currentColor" viewBox="0 0 16 16"><path d="M11.25 0C12.216 0 13 .784 13 1.75v3.5a.75.75 0 0 1-1.5 0v-3.5a.25.25 0 0 0-.25-.25H6.71a.25.25 0 0 0-.19.087L6 2.193V5.25a.75.75 0 0 1-.75.75H2.738c-.089.104-.238.37-.238.37v7.88c0 .138.112.25.25.25h2.5a.75.75 0 0 1 0 1.5h-2.5A1.75 1.75 0 0 1 1 14.25V6.37c0-.417.15-.821.42-1.139L5.38.611A1.751 1.751 0 0 1 6.71 0h4.54ZM10 13a2.5 2.5 0 0 1 2.5 2.5.5.5 0 0 1-.5.5H8a.515.515 0 0 1-.5-.5A2.5 2.5 0 0 1 10 13Zm3.5-1a2.5 2.5 0 0 1 2.5 2.5.5.5 0 0 1-.5.5h-2.126a4.005 4.005 0 0 0-1.61-2.297A2.499 2.499 0 0 1 13.5 12ZM10 9a1.5 1.5 0 1 1 0 3 1.5 1.5 0 0 1 0-3Zm3.5-1a1.5 1.5 0 1 1 0 3 1.5 1.5 0 0 1 0-3Z"/></svg>