<svg xmlns="http://www.w3.org/2000/svg" fill="currentColor" viewBox="0 0 16 16"><path d="M10 4a6 6 0 1 1 0 12 6 6 0 0 1 0-12Zm2.25-4A2.75 2.75 0 0 1 15 2.75v1.43a.75.75 0 0 1-1.5 0V2.75c0-.69-.56-1.25-1.25-1.25h-9.5c-.69 0-1.25.56-1.25 1.25v.75h3.75a.75.75 0 0 1 0 1.5H1.5v7.25c0 .69.56 1.25 1.25 1.25h.5a.75.75 0 0 1 0 1.5h-.5A2.75 2.75 0 0 1 0 12.25v-9.5A2.75 2.75 0 0 1 2.75 0h9.5ZM9.22 12.5c.194.62.459 1.188.78 1.67.321-.482.586-1.05.78-1.67H9.22Zm-2.961 0c.49.73 1.186 1.31 2.008 1.653a8.836 8.836 0 0 1-.604-1.653H6.26Zm6.078 0a8.835 8.835 0 0 1-.605 1.653 4.514 4.514 0 0 0 2.01-1.653h-1.405ZM5.613 9a4.553 4.553 0 0 0-.013 2h1.795a10.093 10.093 0 0 1-.01-2H5.613Zm3.282 0a8.69 8.69 0 0 0 .008 2h2.194c.08-.662.083-1.35.008-2h-2.21Zm3.72 0a10.05 10.05 0 0 1-.01 2h1.782a4.618 4.618 0 0 0 0-2h-1.772ZM8.34 5.817A4.513 4.513 0 0 0 6.259 7.5h1.397c.161-.592.388-1.16.684-1.683Zm1.66.2c-.328.427-.586.93-.775 1.483h1.55A5.173 5.173 0 0 0 10 6.018Zm1.66-.2c.296.523.523 1.091.684 1.683h1.397a4.513 4.513 0 0 0-2.082-1.683Z"/></svg>