<svg xmlns="http://www.w3.org/2000/svg" fill="currentColor" viewBox="0 0 16 16"><path d="M9.75 1c.966 0 1.75.784 1.75 1.75V3h1.795c.74 0 1.4.465 1.648 1.161l.955 2.674c.068.189.102.388.102.588v2.827A1.75 1.75 0 0 1 14.25 12h-.3a2.502 2.502 0 0 1-1.06 2.578 2.503 2.503 0 0 1-2.779 0 2.502 2.502 0 0 1-1.063-2.566L9.05 12H6.924l.003.012a2.502 2.502 0 0 1-1.063 2.566 2.503 2.503 0 0 1-2.778 0 2.502 2.502 0 0 1-1.064-2.566L2.025 12H1.25C.56 12 0 11.44 0 10.75a.747.747 0 0 1 1.454-.25H14.25a.25.25 0 0 0 .25-.25V8.5h-3.75a.75.75 0 0 1-.75-.75v-5a.25.25 0 0 0-.25-.25h-1a.75.75 0 0 1 0-1.5h1ZM3.61 12a1.015 1.015 0 0 0-.06.883c.152.365.53.617.925.617s.772-.252.923-.617a1.014 1.014 0 0 0-.06-.883H3.61Zm7.026 0a1.015 1.015 0 0 0-.06.883c.151.365.529.617.924.617s.772-.252.924-.617a1.014 1.014 0 0 0-.06-.883h-1.728ZM1 7a1 1 0 1 1 0 2 1 1 0 0 1 0-2Zm5.25 0a.75.75 0 0 1 0 1.5h-2.5a.75.75 0 0 1 0-1.5h2.5Zm5.25 0h2.864l-.834-2.334a.25.25 0 0 0-.235-.166H11.5V7ZM1 4a1 1 0 1 1 0 2 1 1 0 0 1 0-2Zm5.25 0a.75.75 0 0 1 0 1.5h-2.5a.75.75 0 0 1 0-1.5h2.5ZM1 1a1 1 0 1 1 0 2 1 1 0 0 1 0-2Zm5.25 0a.75.75 0 0 1 0 1.5h-2.5a.75.75 0 0 1 0-1.5h2.5Z"/></svg>