<svg xmlns="http://www.w3.org/2000/svg" fill="currentColor" viewBox="0 0 16 16"><path d="M11.25 0A2.75 2.75 0 0 1 14 2.75v10.5A2.75 2.75 0 0 1 11.25 16h-6.5A2.75 2.75 0 0 1 2 13.25V2.75A2.75 2.75 0 0 1 4.75 0h6.5Zm-6.5 1.5c-.69 0-1.25.56-1.25 1.25v10.5c0 .69.56 1.25 1.25 1.25h6.5c.69 0 1.25-.56 1.25-1.25V2.75c0-.69-.56-1.25-1.25-1.25h-6.5Zm5.508 9.5a.75.75 0 0 1 0 1.5h-4.5a.75.75 0 0 1 0-1.5h4.5Zm-.013-2.5a.75.75 0 0 1 0 1.5H5.758a.75.75 0 0 1 0-1.5h4.487Zm0-2.503a.75.75 0 0 1 0 1.5H5.758a.75.75 0 0 1 0-1.5h4.487ZM10.008 3a1 1 0 1 1 0 2 1 1 0 0 1 0-2Z"/></svg>