<svg xmlns="http://www.w3.org/2000/svg" fill="currentColor" viewBox="0 0 16 16"><path d="M13.25 0A2.75 2.75 0 0 1 16 2.75v7.5A2.75 2.75 0 0 1 13.25 13H10v.25A2.75 2.75 0 0 1 7.25 16h-4.5A2.75 2.75 0 0 1 0 13.25v-7.5A2.75 2.75 0 0 1 2.75 3H6v-.25A2.75 2.75 0 0 1 8.75 0h4.5ZM2.75 4.5c-.69 0-1.25.56-1.25 1.25v7.5c0 .69.56 1.25 1.25 1.25h4.5c.69 0 1.25-.56 1.25-1.25v-7.5c0-.69-.56-1.25-1.25-1.25h-4.5Zm3.5 7a.75.75 0 0 1 0 1.5h-2.5a.75.75 0 0 1 0-1.5h2.5Zm2.5-10c-.69 0-1.25.56-1.25 1.25v.263A2.749 2.749 0 0 1 10 5.75V8.5h2.25a.75.75 0 0 1 0 1.5H10v1.5h3.25c.69 0 1.25-.56 1.25-1.25v-7.5c0-.69-.56-1.25-1.25-1.25h-4.5Zm-2 4.25a.75.75 0 1 1 0 1.5.75.75 0 0 1 0-1.5Zm6-3a.75.75 0 1 1 0 1.5.75.75 0 0 1 0-1.5Z"/></svg>