<svg xmlns="http://www.w3.org/2000/svg" fill="currentColor" viewBox="0 0 16 16"><path d="M5.935 5.022c1.76 0 3.179 1.19 3.51 2.845 1.572.121 2.864 1.61 2.296 3.345-.381 1.162-1.52 1.78-2.604 1.78H7.62l-3.57 2.844c-.483.385-1.217.028-1.218-.588v-2.27C1.25 12.854-.05 11.672.001 9.933l.001-.006C.056 8.523 1.1 7.261 2.496 6.981c.099-.02.197-.033.293-.043a3.499 3.499 0 0 1 3.146-1.916Zm0 1.504c-.62 0-1.165.259-1.536.687.46.218.862.543 1.181.926a.754.754 0 0 1-.094 1.059.75.75 0 0 1-1.056-.093c-.433-.518-1.014-.774-1.64-.648-.704.14-1.26.805-1.288 1.526-.022.863.62 1.506 1.612 1.506h.47c.414 0 .75.337.75.752v1.448l2.66-2.107a.753.753 0 0 1 .363-.093h1.78c.577 0 1.04-.326 1.179-.747.226-.695-.281-1.378-1.078-1.379h-.471a.752.752 0 0 1-.75-.752c0-1.196-.894-2.085-2.082-2.085ZM12.058 0c1.22 0 2.15.933 2.15 2.156h.361c.79 0 1.43.65 1.431 1.443a1.44 1.44 0 0 1-1.43 1.444v1.263c0 .591-.676.914-1.141.581l-1.711-1.834H9.946c-1.03 0-1.98-.843-1.94-1.875.04-.972.81-1.724 1.79-1.724h.26C10.357.557 11.117 0 12.059 0Z"/></svg>