<svg xmlns="http://www.w3.org/2000/svg" fill="currentColor" viewBox="0 0 16 16"><path d="M12.25 1A2.75 2.75 0 0 1 15 3.75v8.5A2.75 2.75 0 0 1 12.25 15h-8.5A2.75 2.75 0 0 1 1 12.25v-.5a.75.75 0 0 1 1.5 0v.5c0 .69.56 1.25 1.25 1.25h8.5c.69 0 1.25-.56 1.25-1.25v-8.5c0-.69-.56-1.25-1.25-1.25h-8.5c-.69 0-1.25.56-1.25 1.25v.5a.75.75 0 0 1-1.5 0v-.5A2.75 2.75 0 0 1 3.75 1h8.5ZM7.72 5.47a.75.75 0 0 1 1.06 0l2 1.997a.75.75 0 0 1 0 1.06l-2 2.003a.75.75 0 0 1-1.06-1.06l.718-.72H.753a.75.75 0 0 1 0-1.5H8.44l-.72-.72a.75.75 0 0 1 0-1.06Z"/></svg>