<svg xmlns="http://www.w3.org/2000/svg" fill="currentColor" viewBox="0 0 16 16"><path d="M12 8a.75.75 0 0 1 .75.75v.348c.426.11.816.308 1.146.578l.43-.294a.75.75 0 0 1 .849 1.236l-.39.268c.156.392.234.834.21 1.277l.437.11a.75.75 0 1 1-.364 1.454l-.53-.132a3.032 3.032 0 0 1-.717.785l.303.454a.75.75 0 1 1-1.248.832l-.464-.695c-.267.065-.518.06-.825 0l-.463.695a.75.75 0 1 1-1.248-.832l.302-.454a3.011 3.011 0 0 1-.716-.785l-.53.132a.75.75 0 0 1-.364-1.454l.436-.11c-.024-.445.055-.89.214-1.283l-.384-.256a.75.75 0 0 1 .832-1.248l.442.295c.33-.268.718-.464 1.142-.573V8.75A.75.75 0 0 1 12 8ZM6 0a4 4 0 0 1 .355 7.983c-.242.022-.374.017-.557.017C3.418 8 1.5 9.911 1.5 12.25v.25h3.75a.75.75 0 0 1 0 1.5H.75a.75.75 0 0 1-.75-.75v-1c0-2.323 1.39-4.319 3.383-5.227A4 4 0 0 1 6 0Zm6 10.5a1.5 1.5 0 1 0 0 3 1.5 1.5 0 0 0 0-3ZM5.25 10a.75.75 0 0 1 0 1.5h-1.5a.75.75 0 0 1 0-1.5h1.5ZM6 1.5a2.5 2.5 0 1 0 0 5 2.5 2.5 0 0 0 0-5Z"/></svg>