<svg xmlns="http://www.w3.org/2000/svg" fill="currentColor" viewBox="0 0 16 16"><path d="M4.777 0a4.739 4.739 0 0 1 4.779 4.777v1.301l6.224 6.225c.14.14.22.331.22.53v2.417a.75.75 0 0 1-.75.75H13c-.57 0-.752-.576-.964-1H10.75a.75.75 0 0 1-.75-.75v-.75H8.75a.75.75 0 0 1-.75-.75v-.765L7.264 12a.773.773 0 0 1-.764-.75v-1.19l-.56-.56H4.75C2.087 9.5 0 7.454 0 4.777A4.739 4.739 0 0 1 4.777 0Zm0 1.5A3.239 3.239 0 0 0 1.5 4.777C1.5 6.612 2.902 8 4.75 8l1.647.015a.75.75 0 0 1 .383.205l1 1c.14.14.22.331.22.53v.735l.736-.012a.757.757 0 0 1 .764.75V12h1.25a.75.75 0 0 1 .75.75v.75l1.105.008c.503.071.662.598.859.992H14.5v-1.356L8.275 6.919a.75.75 0 0 1-.22-.53V4.777A3.24 3.24 0 0 0 4.778 1.5ZM4.75 3.25c.827 0 1.5.673 1.5 1.5s-.673 1.5-1.5 1.5-1.5-.673-1.5-1.5.673-1.5 1.5-1.5Z"/></svg>