<svg xmlns="http://www.w3.org/2000/svg" fill="currentColor" viewBox="0 0 16 16"><path d="M10.238 10.23c.21-.22.53-.29.82-.19l4.401 1.47a.8.8 0 0 1 .1 1.47l-.66.33.96 1.45c.21.32.17.74-.1 1.01-.271.271-.646.304-.99.08l-1.45-.96-.33.66a.798.798 0 0 1-1.47-.1l-1.47-4.4c-.1-.29-.02-.6.19-.82Zm3.016-9.228a2.75 2.75 0 0 1 2.75 2.75V8.25a.75.75 0 0 1-1.5 0V3.752c0-.69-.56-1.25-1.25-1.25h-10.5c-.69 0-1.25.56-1.25 1.25v5.5c0 .69.56 1.25 1.25 1.25H7.25a.75.75 0 0 1 0 1.5H2.754a2.75 2.75 0 0 1-2.75-2.75v-5.5a2.75 2.75 0 0 1 2.75-2.75h10.5ZM3.75 7.5a.75.75 0 1 1 0 1.5.75.75 0 0 1 0-1.5Zm5 0a.75.75 0 0 1 0 1.5h-2a.75.75 0 0 1 0-1.5h2Zm-5-3.25a.75.75 0 1 1 0 1.5.75.75 0 0 1 0-1.5Zm3 0a.75.75 0 1 1 0 1.5.75.75 0 0 1 0-1.5Zm3 0a.75.75 0 1 1 0 1.5.75.75 0 0 1 0-1.5Zm3 0a.75.75 0 1 1 0 1.5.75.75 0 0 1 0-1.5Z"/></svg>