<svg xmlns="http://www.w3.org/2000/svg" fill="currentColor" viewBox="0 0 16 16"><path d="M15.195 11.998a.75.75 0 0 1 .75.75v.502a2.75 2.75 0 0 1-2.75 2.75H2.75A2.75 2.75 0 0 1 0 13.25v-.502a.75.75 0 0 1 1.5 0v.502c0 .69.56 1.25 1.25 1.25h10.445c.69 0 1.25-.56 1.25-1.25v-.502a.75.75 0 0 1 .75-.75ZM5.5 5a1.5 1.5 0 0 1 1.37 2.107l2.272 2.984c.375-.085.774-.02 1.104.179l2.768-1.574c-.115-.88.59-1.695 1.486-1.695A1.5 1.5 0 0 1 16 8.5c0 1.05-1.1 1.773-2.056 1.392l-2.973 1.69a1.499 1.499 0 0 1-1.498 1.47c-.994 0-1.722-1-1.436-1.938L5.657 7.99a1.525 1.525 0 0 1-.738-.108L2.992 9.35A1.516 1.516 0 0 1 1.5 11 1.5 1.5 0 0 1 0 9.5c0-1.076 1.113-1.807 2.114-1.367l1.899-1.445A1.516 1.516 0 0 1 5.5 5Zm1.75-4a.75.75 0 0 1 0 1.5h-4.5c-.69 0-1.25.56-1.25 1.25v1.5a.75.75 0 0 1-1.5 0v-1.5A2.75 2.75 0 0 1 2.75 1h4.5Zm7.43-.738a.75.75 0 0 1 1.14.976l-3 3.5a.758.758 0 0 1-1.1.042l-1.5-1.5a.75.75 0 1 1 1.06-1.06l.927.926L14.681.262Z"/></svg>