<svg xmlns="http://www.w3.org/2000/svg" fill="currentColor" viewBox="0 0 16 16"><path d="M15.25 14.5a.75.75 0 0 1 0 1.5h-4.5a.75.75 0 0 1 0-1.5h4.5ZM5.25 0a4 4 0 0 1 2.41 7.192 4.15 4.15 0 0 1 1.109.766.75.75 0 0 1-1.039 1.084c-.811-.648-1.485-.792-2.654-.792-1.934 0-3.577 1.676-3.577 3.833v.419h5.684a.75.75 0 1 1 0 1.5H.75a.75.75 0 0 1-.75-.75v-1.169C0 9.971 1.183 8.11 2.923 7.252A4 4 0 0 1 5.25 0Zm10 11.5a.75.75 0 0 1 0 1.5h-4.5a.75.75 0 0 1 0-1.5h4.5Zm-10-10a2.5 2.5 0 1 0 0 5 2.5 2.5 0 0 0 0-5ZM14.68.262a.75.75 0 0 1 1.14.976l-3 3.5a.758.758 0 0 1-1.1.042l-1.5-1.5a.75.75 0 1 1 1.06-1.06l.927.926L14.681.262Z"/></svg>