<svg xmlns="http://www.w3.org/2000/svg" fill="currentColor" viewBox="0 0 16 16"><path d="M5.75 0a.75.75 0 0 1 .75.75v5.5c0 .781-.364 1.368-.86 1.863l-3.722 3.92-.014.014c-.319.319-.404.699-.404 1.13 0 .722.6 1.323 1.324 1.323h10.352c.724 0 1.324-.6 1.324-1.323 0-.431-.085-.811-.404-1.13l-.012-.012-3.755-3.923C9.81 7.592 9.5 7.004 9.5 6.25V.75a.75.75 0 0 1 .75-.75h2a.75.75 0 0 1 0 1.5H11v4.75c0 .272.084.497.39.802l.011.011 3.767 3.935c.593.599.832 1.355.832 2.179A2.834 2.834 0 0 1 13.176 16H2.824A2.834 2.834 0 0 1 0 13.177c0-.823.239-1.579.83-2.177l3.736-3.934.014-.014c.33-.33.42-.557.42-.802V1.5H3.75a.75.75 0 0 1 0-1.5h2ZM6 11a1 1 0 1 1 0 2 1 1 0 0 1 0-2Zm4 0a1 1 0 1 1 0 2 1 1 0 0 1 0-2ZM8 9a1 1 0 1 1 0 2 1 1 0 0 1 0-2Z"/></svg>