<svg xmlns="http://www.w3.org/2000/svg" fill="currentColor" viewBox="0 0 16 16"><path d="M12.25 0c.398 0 .75.352.75.75 0 2.346-.567 3.97-1.475 5.202-.633.861-1.415 1.5-2.191 2.048.776.548 1.558 1.187 2.191 2.048C12.433 11.28 13 12.904 13 15.25a.75.75 0 0 1-.75.75h-8.5a.75.75 0 0 1-.75-.75c0-2.346.567-3.97 1.475-5.202.633-.86 1.414-1.5 2.19-2.048-.776-.548-1.557-1.187-2.19-2.048C3.567 4.72 3 3.096 3 .75A.75.75 0 0 1 3.75 0h8.5ZM8 8.904c-.906.61-1.705 1.199-2.318 2.033A5.36 5.36 0 0 0 5.073 12h5.854a5.364 5.364 0 0 0-.609-1.063C9.705 10.103 8.906 9.514 8 8.904ZM4.522 1.5c.105 1.655.56 2.749 1.16 3.563.613.834 1.412 1.422 2.318 2.032.906-.61 1.705-1.198 2.318-2.032.6-.814 1.055-1.908 1.16-3.563H4.521Z"/></svg>