<svg xmlns="http://www.w3.org/2000/svg" fill="currentColor" viewBox="0 0 16 16"><path d="M9.27 14.376a.75.75 0 0 1 .29 1.472c-1.01.2-2.11.2-3.12 0a.75.75 0 0 1 .29-1.472c.82.162 1.72.162 2.54 0Zm-7.716-2.97a.75.75 0 0 1 1.04.205 6.54 6.54 0 0 0 1.795 1.794.75.75 0 0 1-.834 1.247 8.042 8.042 0 0 1-2.207-2.207.75.75 0 0 1 .206-1.04Zm11.851.205a.75.75 0 0 1 1.247.834 8.044 8.044 0 0 1-2.207 2.207.75.75 0 0 1-.834-1.247 6.54 6.54 0 0 0 1.794-1.794ZM8.25 3.25A.75.75 0 0 1 9 4v.75h.75a.75.75 0 1 1 0 1.5H7.433c-.25 0-.433.269-.433.5 0 .243.194.5.45.5h.9c.638 0 1.188.215 1.58.607.78.782.757 2.05-.014 2.801-.25.244-.562.415-.916.509V12a.75.75 0 0 1-1.5 0v-.75H6.25a.75.75 0 0 1 0-1.5h2.1c.312 0 .65-.137.65-.495 0-.362-.33-.505-.65-.505h-.9c-1.16 0-1.95-1.006-1.95-2 0-1.106.905-2 2-2V4a.75.75 0 0 1 .75-.75ZM.152 6.44a.75.75 0 0 1 1.472.29 6.685 6.685 0 0 0 0 2.54.75.75 0 0 1-1.472.29c-.2-1.01-.2-2.11 0-3.12Zm14.815-.59a.75.75 0 0 1 .88.59c.2 1.01.2 2.11 0 3.12a.75.75 0 0 1-1.471-.29c.162-.82.162-1.72 0-2.54a.75.75 0 0 1 .59-.88ZM3.555 1.348a.75.75 0 0 1 .834 1.247 6.54 6.54 0 0 0-1.794 1.794.75.75 0 0 1-1.247-.834 8.043 8.043 0 0 1 2.207-2.207Zm7.85.206a.75.75 0 0 1 1.04-.206 8.045 8.045 0 0 1 2.207 2.207.75.75 0 0 1-1.247.834 6.54 6.54 0 0 0-1.794-1.794.75.75 0 0 1-.206-1.041ZM9.561.152a.75.75 0 0 1-.291 1.472 6.685 6.685 0 0 0-2.54 0A.75.75 0 0 1 6.44.152c1.01-.2 2.11-.2 3.12 0Z"/></svg>