<svg xmlns="http://www.w3.org/2000/svg" fill="currentColor" viewBox="0 0 16 16"><path d="M8 0a8 8 0 1 1 0 16A8 8 0 0 1 8 0Zm0 1.5a6.5 6.5 0 1 0 0 13 6.5 6.5 0 0 0 0-13Zm.25 1.75A.75.75 0 0 1 9 4v.75h.75a.75.75 0 0 1 0 1.5H7.433c-.25 0-.433.269-.433.5 0 .243.194.5.45.5h.9c.638 0 1.188.215 1.58.607.78.782.757 2.05-.014 2.801-.25.244-.562.415-.916.509V12a.75.75 0 0 1-1.5 0v-.75H6.25a.75.75 0 0 1 0-1.5h2.1c.312 0 .65-.137.65-.495 0-.362-.33-.505-.65-.505h-.9c-1.16 0-1.95-1.006-1.95-2 0-1.106.867-2 2-2V4a.75.75 0 0 1 .75-.75Z"/></svg>