<svg xmlns="http://www.w3.org/2000/svg" fill="currentColor" viewBox="0 0 16 16"><path d="M13.75 6.5a.75.75 0 0 1 .75.75V8h.75a.75.75 0 0 1 0 1.5h-2.317c-.25 0-.433.269-.433.5 0 .243.194.5.45.5h.9c.638 0 1.188.215 1.58.607.78.782.757 2.05-.014 2.801-.25.244-.562.415-.916.509v.833a.75.75 0 0 1-1.5 0v-.75h-1.25a.75.75 0 0 1 0-1.5h2.1c.312 0 .65-.137.65-.495 0-.362-.33-.505-.65-.505h-.9C11.79 12 11 10.994 11 10c0-1.106.905-2 2-2v-.75a.75.75 0 0 1 .75-.75ZM8 0a4 4 0 0 1 .355 7.983C8.167 8 7.981 8 7.798 8 5.418 8 3.5 9.911 3.5 12.25v.25h4.75a.75.75 0 0 1 0 1.5h-5.5a.75.75 0 0 1-.75-.75v-1c0-.084.003-.167.007-.25H.75a.75.75 0 0 1-.75-.75v-1.5c0-1.485.78-2.824 1.964-3.587a2.963 2.963 0 0 1-.965-2.188 2.975 2.975 0 0 1 4.116-2.746A3.988 3.988 0 0 1 8 0ZM4.212 7C2.725 7 1.5 8.253 1.5 9.75v.75h.774A5.837 5.837 0 0 1 5.391 7H4.21ZM8 1.5a2.5 2.5 0 1 0 0 5 2.5 2.5 0 0 0 0-5Zm-4.026 1a1.475 1.475 0 1 0 .287 2.92 3.99 3.99 0 0 1 .017-2.888c-.098-.02-.2-.032-.304-.032Z"/></svg>