<svg xmlns="http://www.w3.org/2000/svg" fill="currentColor" viewBox="0 0 16 16"><path d="M13.5 12a2.5 2.5 0 0 1 2.5 2.5.5.5 0 0 1-.5.5h-4a.515.515 0 0 1-.5-.5 2.5 2.5 0 0 1 2.5-2.5ZM11.625 2c1.387 0 2.739.471 4.045 1.354.206.14.33.374.33.623v1.218a.75.75 0 0 1-1.5 0V4.39c-.992-.605-1.947-.889-2.875-.889-.928 0-1.883.284-2.875.889v8.861c0 .59-.682.951-1.17.621-1.11-.751-2.175-1.098-3.205-1.098-1.03 0-2.095.347-3.205 1.098-.488.33-1.17-.032-1.17-.621V3.977c0-.25.125-.484.332-.623 1.306-.879 2.657-1.346 4.043-1.346 1.238 0 2.448.373 3.623 1.079C9.174 2.377 10.386 2 11.625 2Zm-7.25 1.508c-.928 0-1.883.28-2.875.88v7.567c.939-.447 1.898-.682 2.875-.682.977 0 1.936.235 2.875.682V4.39c-.992-.6-1.947-.881-2.875-.881ZM13.5 8a1.5 1.5 0 1 1 0 3 1.5 1.5 0 0 1 0-3Z"/></svg>