<svg xmlns="http://www.w3.org/2000/svg" fill="currentColor" viewBox="0 0 16 16"><path d="M13.25 0C14.216 0 15 .784 15 1.75v12.5A1.75 1.75 0 0 1 13.25 16H2.75A1.75 1.75 0 0 1 1 14.25V1.75C1 .784 1.784 0 2.75 0h10.5ZM2.75 1.5a.25.25 0 0 0-.25.25v12.5c0 .138.112.25.25.25h10.5a.25.25 0 0 0 .25-.25V1.75a.25.25 0 0 0-.25-.25H2.75Zm2.22 8.715a1 1 0 1 1 0 2 1 1 0 0 1 0-2Zm6.13.25a.75.75 0 0 1 0 1.5H7.6a.75.75 0 0 1 0-1.5h3.5ZM4.97 7a1 1 0 1 1 0 2 1 1 0 0 1 0-2Zm6.13.25a.75.75 0 0 1 0 1.5H7.6a.75.75 0 0 1 0-1.5h3.5ZM4.97 3.786a1 1 0 1 1 0 2 1 1 0 0 1 0-2Zm6.13.25a.75.75 0 0 1 0 1.5H7.6a.75.75 0 0 1 0-1.5h3.5Z"/></svg>