<svg xmlns="http://www.w3.org/2000/svg" fill="currentColor" viewBox="0 0 16 16"><path d="M13.25 2A2.75 2.75 0 0 1 16 4.75v6.5A2.75 2.75 0 0 1 13.25 14H2.75A2.75 2.75 0 0 1 0 11.25v-6.5A2.75 2.75 0 0 1 2.75 2h10.5ZM2.75 3.5c-.69 0-1.25.56-1.25 1.25v6.5c0 .69.56 1.25 1.25 1.25h10.5c.69 0 1.25-.56 1.25-1.25v-6.5c0-.69-.56-1.25-1.25-1.25H2.75ZM6.25 8a.75.75 0 0 1 0 1.5h-2.5a.75.75 0 0 1 0-1.5h2.5Zm6-3a.75.75 0 0 1 .75.75v1.5a.75.75 0 0 1-.75.75h-1.5a.75.75 0 0 1-.75-.75v-1.5a.75.75 0 0 1 .75-.75h1.5Zm-4.996.5a.75.75 0 0 1 0 1.5H3.75a.75.75 0 0 1 0-1.5h3.504Z"/></svg>