<svg xmlns="http://www.w3.org/2000/svg" fill="currentColor" viewBox="0 0 16 16"><path d="M8 13a.75.75 0 0 1 .75.75v1.5a.75.75 0 0 1-1.5 0v-1.5A.75.75 0 0 1 8 13Zm-5.28-.78a.75.75 0 1 1 1.06 1.06l-1 1a.75.75 0 1 1-1.06-1.06l1-1Zm9.5 0a.75.75 0 0 1 1.06 0l1 1a.75.75 0 1 1-1.06 1.06l-1-1a.75.75 0 0 1 0-1.06ZM8 4a4 4 0 1 1 0 8 4 4 0 0 1 0-8Zm0 1.5a2.5 2.5 0 1 0 0 5 2.5 2.5 0 0 0 0-5ZM2.25 7.25a.75.75 0 0 1 0 1.5H.75a.75.75 0 0 1 0-1.5h1.5Zm13 0a.75.75 0 0 1 0 1.5h-1.5a.75.75 0 0 1 0-1.5h1.5ZM1.72 1.72a.75.75 0 0 1 1.06 0l1 1a.75.75 0 1 1-1.06 1.06l-1-1a.75.75 0 0 1 0-1.06Zm11.5 0a.75.75 0 1 1 1.06 1.06l-1 1a.75.75 0 1 1-1.06-1.06l1-1ZM8 0a.75.75 0 0 1 .75.75v1.5a.75.75 0 0 1-1.5 0V.75A.75.75 0 0 1 8 0Z"/></svg>