<svg xmlns="http://www.w3.org/2000/svg" fill="currentColor" viewBox="0 0 16 16"><path d="M10.25 14.5a.75.75 0 0 1 0 1.5h-4.5a.75.75 0 0 1 0-1.5h4.5ZM8 0c2.984 0 6 2.253 6 5.5 0 1.671-.945 2.757-1.663 3.661-.74.93-1.337 1.757-1.337 3.089a.75.75 0 0 1-.75.75h-4.5a.75.75 0 0 1-.75-.75c0-1.377-.604-2.227-1.337-3.15C2.953 8.208 2 7.136 2 5.5 2 2.341 5.008 0 8 0Zm0 1.5c-2.359 0-4.5 1.851-4.5 4 0 1.018.547 1.673 1.337 2.667.662.832 1.418 1.84 1.613 3.333h3.102c.2-1.46.957-2.45 1.611-3.272.782-.984 1.337-1.665 1.337-2.728 0-2.221-2.133-4-4.5-4Z"/></svg>