<svg xmlns="http://www.w3.org/2000/svg" fill="currentColor" viewBox="0 0 16 16"><path d="M14.25 1a.75.75 0 0 1 .75.75v11.5A1.75 1.75 0 0 1 13.25 15H2.75A1.75 1.75 0 0 1 1 13.25V1.75a.75.75 0 0 1 1.5 0v11.5c0 .138.112.25.25.25h10.5a.25.25 0 0 0 .25-.25V1.75a.75.75 0 0 1 .75-.75Zm-3.053 8.243a.75.75 0 0 1 1.106 1.014l-1.606 1.75a.75.75 0 0 1-.779.208l-2.914-.924-2.496.913a.75.75 0 0 1-.516-1.408L6.85 9.763a.75.75 0 0 1 .364.022l2.702.856 1.282-1.398Zm.24-3.175a.75.75 0 0 1 .627 1.364L9.615 8.557a.752.752 0 0 1-.545.032l-2.038-.66-2.471 1.129a.75.75 0 0 1-.624-1.366l2.869-1.296a.75.75 0 0 1 .41.015l2.038.66 2.181-1.003Zm-.308-4.738a.75.75 0 0 1 1.242.84l-2.026 3a.75.75 0 0 1-.88.284L7.05 4.57 4.61 5.907a.75.75 0 1 1-.72-1.314L6.7 3.058a.75.75 0 0 1 .544-.012l2.186.798 1.699-2.514Z"/></svg>