<svg xmlns="http://www.w3.org/2000/svg" fill="currentColor" viewBox="0 0 16 16"><path d="M2.986 10.048a.75.75 0 0 1 .834.214l2.64 3.08 2.994-1.281a.752.752 0 0 1 .777.113l2.303 1.92 2.061-3.708a.75.75 0 0 1 1.31.728l-2.5 4.5a.757.757 0 0 1-1.135.212L9.622 13.62l-3.076 1.32a.751.751 0 0 1-.865-.202l-2.588-3.02-1.957 1.176a.751.751 0 0 1-.772-1.287l2.622-1.56ZM11 0a5 5 0 1 1 0 10 5 5 0 0 1 0-10Zm0 1.5a3.5 3.5 0 1 0 0 7 3.5 3.5 0 0 0 0-7Zm-.25 1a.75.75 0 0 1 .75.75v1.639l.969.775a.75.75 0 0 1-.938 1.172l-1.25-1a.75.75 0 0 1-.28-.586v-2a.75.75 0 0 1 .75-.75Z"/></svg>