<svg xmlns="http://www.w3.org/2000/svg" fill="currentColor" viewBox="0 0 16 16"><path d="M8.75 11c0-.254-.183-.5-.55-.5h-.644c-1.156 0-1.962-.992-1.962-2 0-1.002.752-1.97 1.91-1.998L7.5 4.532h-.712c-.08 0-.28.053-.61.269-.926.606-1.64 1.494-2.357 2.321-.21.242-.321.542-.321.838v4.27a2.271 2.271 0 0 0 2.28 2.27H7V13h-.5a.75.75 0 0 1 0-1.5h1.7c.366 0 .55-.242.55-.5Zm-.494-8.74a.75.75 0 0 1-.512 0l-.763-.277.347 1.038h1.344l.346-1.038-.762.278ZM14 12.23A3.771 3.771 0 0 1 10.22 16H5.78A3.771 3.771 0 0 1 2 12.23V7.96c0-.671.252-1.317.688-1.82.81-.934 1.624-1.91 2.667-2.593.146-.095.305-.19.476-.273L5.067.987a.75.75 0 0 1 .967-.942L8 .757 9.966.045a.75.75 0 0 1 .967.942l-.77 2.3c.162.081.314.173.451.264 1.04.691 1.867 1.656 2.69 2.58.446.5.696 1.152.696 1.829v4.27ZM8.995 6.5h.255a.75.75 0 0 1 0 1.5H7.556c-.252 0-.462.2-.462.5 0 .28.231.5.462.5H8.2c1.242 0 2.05.965 2.05 2 0 .947-.671 1.838-1.75 1.979V14.5h1.72a2.271 2.271 0 0 0 2.28-2.27V7.96c0-.31-.114-.605-.315-.83-.736-.826-1.47-1.712-2.4-2.33-.336-.223-.52-.269-.573-.269H9L8.995 6.5Z"/></svg>