<svg xmlns="http://www.w3.org/2000/svg" fill="currentColor" viewBox="0 0 16 16"><path d="M13.448.064a.75.75 0 0 1 .636.014l1.5.747a.75.75 0 0 1-.668 1.343l-1.133-.563L12 2.675v.65l1.783 1.07 1.133-.563a.75.75 0 1 1 .668 1.343l-1.5.747a.75.75 0 0 1-.72-.028L12 5.074v.176a.75.75 0 0 1-1.5 0v-.66l-4.749.549A1915.77 1915.77 0 0 1 9.704 11H11.5a2.5 2.5 0 0 1 0 5h-9a2.5 2.5 0 0 1 0-5h.415l-1.34-5.36A2.999 2.999 0 0 1 3 0c.625 0 1.205.192 1.686.519l5.814.861V.75a.75.75 0 0 1 1.5 0v.175l1.448-.861ZM2.5 12.5a1 1 0 0 0 0 2h9a1 1 0 1 0 0-2h-9Zm1.814-6.807c-.338.166-.71.271-1.106.298l1.252 5.01h3.463L4.314 5.692ZM3 1.5a1.5 1.5 0 1 0 0 3 1.5 1.5 0 0 0 0-3Zm2.893.715c.12.442.139.94.045 1.392l4.562-.526v-.184l-4.607-.682Z"/></svg>