<svg xmlns="http://www.w3.org/2000/svg" fill="currentColor" viewBox="0 0 16 16"><path d="M2.5 13A2.5 2.5 0 0 1 5 15.5a.5.5 0 0 1-.5.5h-4a.515.515 0 0 1-.5-.5A2.5 2.5 0 0 1 2.5 13Zm11 0a2.5 2.5 0 0 1 2.5 2.5.5.5 0 0 1-.5.5h-4a.515.515 0 0 1-.5-.5 2.5 2.5 0 0 1 2.5-2.5Zm-11-4a1.5 1.5 0 1 1 0 3 1.5 1.5 0 0 1 0-3Zm11 0a1.5 1.5 0 1 1 0 3 1.5 1.5 0 0 1 0-3ZM8 8a.75.75 0 0 1 .75.75v1.064l1.372.785a.75.75 0 0 1-.744 1.302L8 11.113l-1.378.788a.75.75 0 0 1-.744-1.302l1.372-.785V8.75A.75.75 0 0 1 8 8Zm0-4a2.5 2.5 0 0 1 2.5 2.5.5.5 0 0 1-.5.5H6a.515.515 0 0 1-.5-.5A2.5 2.5 0 0 1 8 4Zm0-4a1.5 1.5 0 1 1 0 3 1.5 1.5 0 0 1 0-3Z"/></svg>