<svg xmlns="http://www.w3.org/2000/svg" fill="currentColor" viewBox="0 0 16 16"><path d="M3.686.256a.75.75 0 0 1 1.128.988L1.5 5.031v10.22a.75.75 0 0 1-1.5 0V4.75a.75.75 0 0 1 .186-.495l3.5-4ZM14.25 0C15.216 0 16 .784 16 1.75v12.5A1.75 1.75 0 0 1 14.25 16h-9a1.75 1.75 0 0 1-1.75-1.75V6.37c0-.417.15-.821.42-1.139L7.88.611A1.751 1.751 0 0 1 9.21 0h5.04ZM9.21 1.5a.25.25 0 0 0-.19.087l-.52.606V5.25a.75.75 0 0 1-.75.75H5.238L5 6.37v7.88c0 .138.112.25.25.25h9a.25.25 0 0 0 .25-.25V1.75a.25.25 0 0 0-.25-.25H9.21ZM6.75 11a.75.75 0 0 1 .75.75v.5a.75.75 0 0 1-1.5 0v-.5a.75.75 0 0 1 .75-.75Zm2.75-1a.75.75 0 0 1 .75.75v1.5a.75.75 0 0 1-1.5 0v-1.5A.75.75 0 0 1 9.5 10Zm2.75-1a.75.75 0 0 1 .75.75v2.5a.75.75 0 0 1-1.5 0v-2.5a.75.75 0 0 1 .75-.75Zm-1.17-5.085a.75.75 0 0 1 1.34.67l-1.5 3a.75.75 0 0 1-.67.415H9.095L7.819 9.488a.75.75 0 0 1-1.138-.976l1.556-1.809c.142-.156.321-.203.513-.203h1.036l1.293-2.585Z"/></svg>