<svg xmlns="http://www.w3.org/2000/svg" fill="currentColor" viewBox="0 0 16 16"><path d="M12.25 1A2.75 2.75 0 0 1 15 3.75v8.5A2.75 2.75 0 0 1 12.25 15h-8.5A2.75 2.75 0 0 1 1 12.25v-8.5A2.75 2.75 0 0 1 3.75 1h8.5Zm-8.5 1.5c-.69 0-1.25.56-1.25 1.25v8.5c0 .69.56 1.25 1.25 1.25h8.5c.69 0 1.25-.56 1.25-1.25v-8.5c0-.69-.56-1.25-1.25-1.25h-8.5Zm.001 8.992a.75.75 0 0 1 1.387.571l-.195.473a.75.75 0 0 1-1.386-.572l.194-.472Zm2.828-.827a.75.75 0 0 1 1.006-.336l2 1a.75.75 0 0 1-.67 1.342l-2-1a.75.75 0 0 1-.336-1.006ZM4.918 8.659a.75.75 0 0 1 1.387.571l-.39.944a.75.75 0 1 1-1.386-.571l.389-.944ZM11 5c1.128 0 2 .907 2 2.025C13 8.5 11 10 11 10S9 8.5 9 7.025C9 5.907 9.872 5 11 5Zm-4.916.826a.75.75 0 0 1 1.388.57l-.39.946a.75.75 0 0 1-1.387-.572l.389-.944ZM3.329 3.415a.75.75 0 0 1 1.006-.336l1 .5a.75.75 0 0 1-.67 1.342l-1-.5a.75.75 0 0 1-.336-1.006Zm3.728.05a.75.75 0 0 1 1.387.57l-.195.473a.75.75 0 0 1-1.387-.57l.195-.473Z"/></svg>