<svg xmlns="http://www.w3.org/2000/svg" fill="currentColor" viewBox="0 0 16 16"><path d="M8 0c3.68 0 6.5 2.987 6.5 6.625 0 2.477-1.565 4.813-3.009 6.45-.822.932-1.734 1.86-2.754 2.584-.249.177-.499.341-.737.341-.258 0-.555-.205-.737-.34-.546-.409-1.648-1.332-2.754-2.586C3.065 11.438 1.5 9.102 1.5 6.625 1.5 2.987 4.32 0 8 0Zm0 1.5c-2.81 0-5 2.273-5 5.125 0 1.898 1.238 3.875 2.634 5.457.682.773 1.37 1.417 1.895 1.865.18.154.34.282.471.385.131-.103.291-.231.47-.385a19.346 19.346 0 0 0 1.896-1.865C11.762 10.5 13 8.523 13 6.625 13 3.773 10.81 1.5 8 1.5Zm0 2a3 3 0 1 1 0 6 3 3 0 0 1 0-6ZM8 5a1.5 1.5 0 1 0 0 3 1.5 1.5 0 0 0 0-3Z"/></svg>