<svg xmlns="http://www.w3.org/2000/svg" fill="currentColor" viewBox="0 0 16 16"><path d="M14.852 1.114c.265-.155.523-.152.761-.02A.75.75 0 0 1 16 1.75v10.5a.75.75 0 0 1-1.148.635 25.434 25.434 0 0 0-2.712-1.456c-1.258-.59-2.692-1.14-3.945-1.344l.538 2.508a.75.75 0 0 1-.203.687l-1.5 1.5a.75.75 0 0 1-1.2-.195L3.535 10H3a3 3 0 0 1 0-6h4.25c1.432 0 3.3-.683 4.89-1.429 0 0 2.446-1.301 2.712-1.457ZM3 5.5a1.5 1.5 0 0 0 0 3h1a.75.75 0 0 1 .67.415l2.035 4.068.476-.475L6.5 9.25V5.5H3Zm11.5-2.45c-.472.259-1.063.569-1.723.879-1.386.65-3.165 1.348-4.777 1.526v3.09c1.612.178 3.39.875 4.777 1.526.66.31 1.251.62 1.723.878v-7.9Z"/></svg>