<svg xmlns="http://www.w3.org/2000/svg" fill="currentColor" viewBox="0 0 16 16"><path d="M1.736 15.003c-1.359 0-2.118-1.61-1.541-2.582.576-.973.632-1.06.632-1.06a.75.75 0 1 1 1.289.77l-.595.994a.25.25 0 0 0 .215.378h12.51a.25.25 0 0 0 .215-.378L8.209 2.621a.252.252 0 0 0-.43 0l-.602 1.01a.752.752 0 0 1-1.29-.768l.6-1.008c.68-1.14 2.334-1.14 3.013 0l6.251 10.504c.694 1.166-.147 2.644-1.505 2.644H1.736Zm2.755-5.01a2.502 2.502 0 0 1-2.503-2.5c0-1.38 1.12-2.5 2.503-2.5a2.502 2.502 0 0 1 2.503 2.5c0 1.381-1.121 2.5-2.503 2.5Z"/></svg>