<svg xmlns="http://www.w3.org/2000/svg" fill="currentColor" viewBox="0 0 16 16"><path d="M9.25 0C10.216 0 11 .784 11 1.75V2h1.25c.966 0 1.75.784 1.75 1.75v2.5a.75.75 0 0 1-1.5 0v-2.5a.25.25 0 0 0-.25-.25h-1.27A1.749 1.749 0 0 1 9.25 5h-2.5a1.749 1.749 0 0 1-1.73-1.5H3.75a.25.25 0 0 0-.25.25v10.5c0 .138.112.25.25.25H7A.75.75 0 0 1 7 16H3.75A1.75 1.75 0 0 1 2 14.25V3.75C2 2.784 2.784 2 3.75 2H5v-.25C5 .784 5.784 0 6.75 0h2.5Zm.5 7a.75.75 0 0 1 .75.75v.75h.75a.75.75 0 0 1 0 1.5h-.75v1.5h.75a.75.75 0 0 1 0 1.5h-.75v1.25c0 .138.112.25.25.25h2.5a.25.25 0 0 0 .25-.25V10a.75.75 0 0 1 .08-.335l1-2a.75.75 0 0 1 1.34.67L15 10.177v4.073A1.75 1.75 0 0 1 13.25 16h-2.5A1.75 1.75 0 0 1 9 14.25v-6.5A.75.75 0 0 1 9.75 7Zm-2.5 4.5a.75.75 0 0 1 0 1.5h-1.5a.75.75 0 0 1 0-1.5h1.5Zm0-2.75a.75.75 0 0 1 0 1.5h-1.5a.75.75 0 0 1 0-1.5h1.5Zm0-2.75a.75.75 0 0 1 0 1.5h-1.5a.75.75 0 0 1 0-1.5h1.5Zm-.5-4.5a.25.25 0 0 0-.25.25v1.5c0 .138.112.25.25.25h2.5a.25.25 0 0 0 .25-.25v-1.5a.25.25 0 0 0-.25-.25h-2.5Z"/></svg>