<svg xmlns="http://www.w3.org/2000/svg" fill="currentColor" viewBox="0 0 16 16"><path d="M8.587 9.585a.5.5 0 0 1 .82 0l2.541 3.628a.5.5 0 0 1-.409.786H6.46a.5.5 0 0 1-.41-.786l2.537-3.628ZM14.25 3c.966 0 1.75.784 1.75 1.75v4.5c0 .906-.7 1.75-1.571 1.75h-1.636a.75.75 0 0 1 0-1.5l1.508-.005a.25.25 0 0 0 .199-.245v-4.5a.25.25 0 0 0-.25-.25h-.75v1.75a.75.75 0 0 1-1.5 0V4.5h-1.5v1.75a.75.75 0 0 1-1.5 0V4.5H7.5v1.75a.75.75 0 0 1-1.5 0V4.5H4.5v1.75a.75.75 0 0 1-1.5 0V4.5H1.75a.25.25 0 0 0-.25.25v4.5c0 .138.112.25.25.25h2.496a.75.75 0 1 1 0 1.5H1.75A1.75 1.75 0 0 1 0 9.25v-4.5C0 3.784.784 3 1.75 3h12.5Z"/></svg>