<svg xmlns="http://www.w3.org/2000/svg" fill="currentColor" viewBox="0 0 16 16"><path d="M7.75 2a.75.75 0 0 1 .75.75V6.5h1.75a.75.75 0 0 1 0 1.5H8.5v1.5h1.75a.75.75 0 0 1 0 1.5H8.5v1.25c0 .138.112.25.25.25h3a.25.25 0 0 0 .25-.25v-6c0-.136.037-.27.107-.386l1.5-2.5a.751.751 0 0 1 1.287.772L13.5 6.458v5.792A1.75 1.75 0 0 1 11.75 14h-3A1.75 1.75 0 0 1 7 12.25v-9.5A.75.75 0 0 1 7.75 2Zm-5.498.192 2.5 2.25a.75.75 0 0 1 0 1.116l-2.5 2.25C1.779 8.233 1 7.886 1 7.25v-4.5c0-.636.779-.983 1.252-.558Z"/></svg>