<svg xmlns="http://www.w3.org/2000/svg" fill="currentColor" viewBox="0 0 16 16"><path d="M10.5 13a2.5 2.5 0 0 1 2.5 2.5.5.5 0 0 1-.5.5h-4a.515.515 0 0 1-.5-.5 2.5 2.5 0 0 1 2.5-2.5Zm2.75-12A2.75 2.75 0 0 1 16 3.75v.5a.75.75 0 0 1-1.5 0v-.5c0-.69-.56-1.25-1.25-1.25H2.75c-.69 0-1.25.56-1.25 1.25v8.5c0 .69.56 1.25 1.25 1.25h2.5a.75.75 0 0 1 0 1.5h-2.5A2.75 2.75 0 0 1 0 12.25v-8.5A2.75 2.75 0 0 1 2.75 1h10.5Zm.25 10a2.5 2.5 0 0 1 2.5 2.5.5.5 0 0 1-.5.5h-1.679a.263.263 0 0 1-.23-.142 3.515 3.515 0 0 0-1.275-1.35.168.168 0 0 1-.03-.26 2.435 2.435 0 0 0 .609-1.03.252.252 0 0 1 .192-.182c.136-.023.274-.036.413-.036Zm-3-2a1.5 1.5 0 1 1 0 3 1.5 1.5 0 0 1 0-3Zm3-2a1.5 1.5 0 1 1 0 3 1.5 1.5 0 0 1 0-3ZM6.25 7a.75.75 0 0 1 0 1.5h-2.5a.75.75 0 0 1 0-1.5h2.5Zm3-3a.75.75 0 0 1 0 1.5h-5.5a.75.75 0 0 1 0-1.5h5.5Z"/></svg>