<svg xmlns="http://www.w3.org/2000/svg" fill="currentColor" viewBox="0 0 16 16"><path d="M13.639 0C14.939 0 16 1.061 16 2.362v7.817c0 1.3-1.061 2.321-2.361 2.321h-9.34l-3 3.267c-.454.489-1.299.156-1.299-.51V2.361A2.367 2.367 0 0 1 2.361 0H13.64ZM2.36 1.5a.866.866 0 0 0-.861.862v10.986l1.979-2.122c.136-.119.311-.226.494-.226h9.666c.472 0 .861-.349.861-.821V2.362a.866.866 0 0 0-.861-.861H2.36ZM8 8.004a1 1 0 1 1 0 2 1 1 0 0 1 0-2Zm0-5.502a.75.75 0 0 1 .75.75v3.002a.75.75 0 1 1-1.5 0V3.25A.75.75 0 0 1 8 2.5Z"/></svg>