<svg xmlns="http://www.w3.org/2000/svg" fill="currentColor" viewBox="0 0 16 16"><path d="M7.25 0A2.75 2.75 0 0 1 10 2.75V9.5h1.75a.75.75 0 0 1 .75.75V13a.5.5 0 0 0 1 0V6.434c-.16.04-.327.066-.5.066a2 2 0 0 1-.67-3.883l-1.156-1.386A.75.75 0 0 1 12.326.27l2.5 3a.751.751 0 0 1 .174.48V13a2 2 0 0 1-4 0v-2h-1v2.25A2.75 2.75 0 0 1 7.25 16h-3.5A2.75 2.75 0 0 1 1 13.25V2.75A2.75 2.75 0 0 1 3.75 0h3.5ZM2.5 13.25c0 .69.56 1.25 1.25 1.25h3.5c.69 0 1.25-.56 1.25-1.25V6.5h-6v6.75ZM3.75 1.5c-.69 0-1.25.56-1.25 1.25V5h6V2.75c0-.69-.56-1.25-1.25-1.25h-3.5ZM13 4a.5.5 0 1 0 0 1 .5.5 0 0 0 0-1Z"/></svg>