<svg xmlns="http://www.w3.org/2000/svg" fill="currentColor" viewBox="0 0 16 16"><path d="M8.566 1C12.678 1 16 4.365 16 8.5S12.678 16 8.566 16C5.9 16 3.57 14.585 2.262 12.47c-.079-.127-.132-.272-.194-.408a.75.75 0 1 1 1.364-.624l.126.275A5.903 5.903 0 0 0 8.566 14.5c3.27 0 5.934-2.68 5.934-6s-2.664-6-5.934-6c-.51 0-1.134.097-1.626.226a.75.75 0 0 1-.38-1.452A8.422 8.422 0 0 1 8.566 1ZM3.323 0a.75.75 0 1 1 0 1.5h-.716a1.107 1.107 0 0 0-.848 1.818c.662.788 1.908 2.266 2.741 3.244V5A.75.75 0 0 1 6 5v3.25a.75.75 0 0 1-.75.75h-3.5a.75.75 0 1 1 .001-1.5h1.577c-.85-1-2.08-2.458-2.717-3.216A2.608 2.608 0 0 1 2.607 0h.716Z"/></svg>