<svg xmlns="http://www.w3.org/2000/svg" fill="currentColor" viewBox="0 0 16 16"><path d="M8.593 1C12.694 1 16 4.377 16 8.505 16 12.635 12.693 16 8.593 16c-2.812 0-5.245-1.569-6.502-3.894A.75.75 0 0 1 2.75 11H6.5c.821 0 1.5-.67 1.5-1.5V4.414c0-.81-.296-1.145-.548-1.318-.306-.21-.67-.265-.923-.301a.75.75 0 0 1-.127-1.456A7.028 7.028 0 0 1 8.592 1Zm-5.27-1a.75.75 0 1 1 0 1.5h-.716a1.107 1.107 0 0 0-.848 1.818c.662.788 1.908 2.266 2.741 3.244V5A.75.75 0 0 1 6 5v3.25a.75.75 0 0 1-.75.75h-3.5a.75.75 0 1 1 .001-1.5h1.577c-.85-1-2.08-2.458-2.717-3.216A2.608 2.608 0 0 1 2.607 0h.716Z"/></svg>