<svg xmlns="http://www.w3.org/2000/svg" fill="currentColor" viewBox="0 0 16 16"><path d="M12.599.064a1.75 1.75 0 0 1 2.146 1.203l.612 2.121c.392.326.643.817.643 1.364v6.828c0 1.019-1.006 1.42-1.414 1.42-.408 0-.59.004-.59.004l-10.338 2.93a1.75 1.75 0 0 1-2.155-1.202l-.553-1.91a1.773 1.773 0 0 1-.95-1.57v-6.5c0-.97.786-1.768 1.757-1.768h.299L12.599.064ZM2.944 14.313a.25.25 0 0 0 .308.171l5.18-1.464h-5.86l.372 1.293ZM2.896 4.74a1.358 1.358 0 0 1-1.34 1.17H1.5v4.181h.056c.75 0 1.354.592 1.354 1.423H7v-.502h-.25a.752.752 0 0 1 0-1.505h1.4c.2-.001.35-.218.35-.403 0-.227-.193-.39-.35-.39h-.31C6.806 8.714 6 7.855 6 6.846c0-.884.616-1.634 1.451-1.814V4.74H2.896Zm6.055 0v.25h.299a.752.752 0 0 1 0 1.505H7.84c-.182 0-.34.15-.34.351 0 .21.166.362.34.362h.31c1.052 0 1.85.906 1.85 1.896 0 .871-.621 1.695-1.5 1.871v.539h4.59c0-.805.6-1.423 1.41-1.423v-4.18h-.056a1.358 1.358 0 0 1-1.34-1.171H8.951Zm4.047-3.227-5.304 1.47h5.986l-.375-1.297a.25.25 0 0 0-.307-.173Z"/></svg>