<svg xmlns="http://www.w3.org/2000/svg" fill="currentColor" viewBox="0 0 16 16"><path d="M13.5 13a2.5 2.5 0 0 1 2.5 2.5.5.5 0 0 1-.5.5h-4a.515.515 0 0 1-.5-.5 2.5 2.5 0 0 1 2.5-2.5Zm-.25-12A2.75 2.75 0 0 1 16 3.75v1.48a.75.75 0 0 1-1.5 0V3.75c0-.69-.56-1.25-1.25-1.25H2.75c-.69 0-1.25.56-1.25 1.25v8.5c0 .69.56 1.25 1.25 1.25h5.5a.75.75 0 0 1 0 1.5h-5.5A2.75 2.75 0 0 1 0 12.25v-8.5A2.75 2.75 0 0 1 2.75 1h10.5Zm-8.5 2a.75.75 0 0 1 .75.75v.75h.75a.75.75 0 0 1 0 1.5H4a.5.5 0 0 0 0 1h1a1.998 1.998 0 0 1 .5 3.934v.816a.75.75 0 0 1-1.5 0V11H2.75a.75.75 0 0 1 0-1.5H5a.5.5 0 0 0 0-1H4a2 2 0 1 1 0-4v-.75A.75.75 0 0 1 4.75 3Zm8.75 6a1.5 1.5 0 1 1 0 3 1.5 1.5 0 0 1 0-3Zm-4.25.5a.75.75 0 0 1 0 1.5h-.5a.75.75 0 0 1 0-1.5h.5Zm1-2.5a.75.75 0 0 1 0 1.5h-1.5a.75.75 0 0 1 0-1.5h1.5Zm2-2.5a.75.75 0 0 1 0 1.5h-3.5a.75.75 0 0 1 0-1.5h3.5Z"/></svg>