<svg xmlns="http://www.w3.org/2000/svg" fill="currentColor" viewBox="0 0 16 16"><path d="M8 0a.75.75 0 0 1 .558.248l2.25 2.5a.75.75 0 0 1-1.116 1.004L8.75 2.704V7.25h4.545l-1.047-.942a.75.75 0 0 1 1.004-1.116l2.5 2.25a.75.75 0 0 1 0 1.116l-2.5 2.25a.75.75 0 0 1-1.004-1.116l1.047-.942H8.75v4.545l.942-1.047a.75.75 0 0 1 1.116 1.004l-2.25 2.5a.75.75 0 0 1-1.116 0l-2.25-2.5a.75.75 0 0 1 1.116-1.004l.942 1.047V8.75H2.705l1.047.942a.75.75 0 0 1-1.004 1.116l-2.5-2.25a.75.75 0 0 1 0-1.116l2.5-2.25a.75.75 0 0 1 1.004 1.116l-1.047.942H7.25V2.704l-.942 1.048a.75.75 0 0 1-1.116-1.004l2.25-2.5A.75.75 0 0 1 8 0Z"/></svg>