<svg xmlns="http://www.w3.org/2000/svg" fill="currentColor" viewBox="0 0 16 16"><path d="M8 0a8 8 0 0 1 0 16c-1.96 0-3.54-.402-4.996-1.688a.75.75 0 0 1 .992-1.124C5.097 14.16 6.282 14.5 8 14.5a6.5 6.5 0 0 0 0-13c-2.438 0-4.438 1.178-5.548 3.122a.75.75 0 0 1-1.303-.744C2.536 1.45 5.043 0 8 0Zm-.01 2.5c3.026 0 5.51 2.477 5.51 5.5 0 2.622-1.746 4.06-2.276 4.477a.75.75 0 1 1-.93-1.176C10.757 10.937 12 9.889 12 8c0-2.192-1.81-4-4.01-4-1.11 0-1.793.163-2.48.8a.75.75 0 0 1-1.02-1.1c1.075-1 2.2-1.2 3.5-1.2Zm.26 7.5a.75.75 0 0 1 0 1.5H.75a.75.75 0 0 1 0-1.5h7.5ZM8 7a1 1 0 1 1 0 2 1 1 0 0 1 0-2ZM5.25 7a.75.75 0 0 1 0 1.5H.75a.75.75 0 0 1 0-1.5h4.5Z"/></svg>