<svg xmlns="http://www.w3.org/2000/svg" fill="currentColor" viewBox="0 0 16 16"><path d="M3.5 9C5.473 9 7 10.527 7 12.5S5.473 16 3.5 16 0 14.473 0 12.5 1.527 9 3.5 9Zm9 0c1.973 0 3.5 1.527 3.5 3.5S14.473 16 12.5 16 9 14.473 9 12.5 10.527 9 12.5 9Zm-9 1.5c-1.144 0-2 .856-2 2 0 .642.269 1.193.707 1.553l1.543-1.544v-1.994a2.23 2.23 0 0 0-.25-.015ZM3.5 0C5.473 0 7 1.527 7 3.5S5.473 7 3.5 7 0 5.473 0 3.5 1.527 0 3.5 0Zm9 0C14.473 0 16 1.527 16 3.5S14.473 7 12.5 7 9 5.473 9 3.5 10.527 0 12.5 0Zm-9 1.5c-1.144 0-2 .856-2 2 0 1.144.856 2 2 2 1.144 0 2-.856 2-2h-2v-2Zm9 0c-1.144 0-2 .856-2 2 0 1.144.856 2 2 2 .085 0 .169-.006.251-.016L12.75 3.75V1.515a2.225 2.225 0 0 0-.25-.015Z"/></svg>