<svg xmlns="http://www.w3.org/2000/svg" fill="currentColor" viewBox="0 0 16 16"><path d="M.75 9a.75.75 0 0 1 .75.75v3.454l1.021-1.241a.751.751 0 0 1 .525-.213h1.579l1.275-1.7a.75.75 0 0 1 1.2.9l-1.5 2a.75.75 0 0 1-.6.3H3.4L2.378 14.5H6.25a.75.75 0 0 1 0 1.5H.75a.75.75 0 0 1-.75-.75v-5.5A.75.75 0 0 1 .75 9Zm9 0a.75.75 0 0 1 .75.75v1.26h1.567l1.305-1.341a.75.75 0 0 1 1.129.215l1.404 2.51a.75.75 0 0 1-1.308.733l-.913-1.63-.758.785a.75.75 0 0 1-.54.229H10.5V14.5h4.75a.75.75 0 0 1 0 1.5h-5.5a.75.75 0 0 1-.75-.75v-5.5A.75.75 0 0 1 9.75 9Zm-9-9a.75.75 0 0 1 .75.75v3.484l.911-1.917a.75.75 0 0 1 .791-.296l1.389.34.99-1.935a.75.75 0 0 1 1.335.681L5.657 3.57a.75.75 0 0 1-.845.388l-1.37-.335-.88 1.877H6.25a.75.75 0 0 1 0 1.5H.75A.75.75 0 0 1 0 6.25V.75A.75.75 0 0 1 .75 0Zm9 0a.75.75 0 0 1 .75.75V1h1.988a.75.75 0 0 1 .622.331l.788 1.169h1.352a.75.75 0 0 1 0 1.5H13.5a.75.75 0 0 1-.622-.331L12.09 2.5H10.5v3h4.75a.75.75 0 0 1 0 1.5h-5.5A.75.75 0 0 1 9 6.25V.75A.75.75 0 0 1 9.75 0Z"/></svg>