<svg xmlns="http://www.w3.org/2000/svg" fill="currentColor" viewBox="0 0 16 16"><path d="M5.25 11a.75.75 0 0 1 .75.75v3.5a.75.75 0 0 1-.75.75h-3.5a.75.75 0 0 1-.75-.75v-3.5a.75.75 0 0 1 .75-.75h3.5ZM2.5 14.5h2v-2h-2v2Zm12.5-.75c0 .424-.339.75-.75.75h-5.5a.75.75 0 0 1 0-1.5h5.5c.416 0 .75.326.75.75ZM5.68 5.262a.75.75 0 0 1 1.14.976l-3 3.5a.758.758 0 0 1-1.1.042l-1.5-1.5a.75.75 0 1 1 1.06-1.06l.927.926 2.474-2.884ZM15 8.25c0 .424-.336.75-.75.75h-5.5a.75.75 0 0 1 0-1.5h5.5c.402 0 .75.326.75.75ZM5.68.262a.75.75 0 0 1 1.14.976l-3 3.5a.758.758 0 0 1-1.1.042l-1.5-1.5a.75.75 0 1 1 1.06-1.06l.927.926L5.681.262ZM15 2.75c0 .424-.338.75-.75.75h-5.5a.75.75 0 0 1 0-1.5h5.5a.75.75 0 0 1 .75.75Z"/></svg>