<svg xmlns="http://www.w3.org/2000/svg" fill="currentColor" viewBox="0 0 16 16"><path d="M5.25 11.5a.75.75 0 0 1 .75.75v3a.75.75 0 0 1-.75.75h-3.5a.75.75 0 0 1-.75-.75v-3a.75.75 0 0 1 .75-.75h3.5Zm-2.75 3h2V13h-2v1.5Zm12.5-.75c0 .424-.336.75-.75.75h-5.5a.75.75 0 0 1 0-1.5h5.5c.41 0 .75.326.75.75Zm-9.75-8A.75.75 0 0 1 6 6.5v3a.75.75 0 0 1-.75.75h-3.5A.75.75 0 0 1 1 9.5v-3a.75.75 0 0 1 .75-.75h3.5Zm-2.75 3h2v-1.5h-2v1.5ZM14.25 7a.75.75 0 0 1 0 1.5h-5.5a.75.75 0 0 1 0-1.5h5.5Zm-9-7A.75.75 0 0 1 6 .75v3a.75.75 0 0 1-.75.75h-3.5A.75.75 0 0 1 1 3.75v-3A.75.75 0 0 1 1.75 0h3.5ZM2.5 3h2V1.5h-2V3ZM15 2.25c0 .424-.328.75-.75.75h-5.5a.75.75 0 0 1 0-1.5h5.5c.406 0 .75.326.75.75Z"/></svg>