<svg xmlns="http://www.w3.org/2000/svg" fill="currentColor" viewBox="0 0 16 16"><path d="M2.701 9.062a.75.75 0 0 1 .69.048l2.25 1.376a.75.75 0 0 1 .359.64v2.75a.75.75 0 0 1-.36.639L3.39 15.89a.75.75 0 0 1-.78 0L.36 14.515a.75.75 0 0 1-.36-.64l.006-2.847a.75.75 0 0 1 .353-.543l2.342-1.423Zm10 0a.75.75 0 0 1 .69.048l2.25 1.376a.75.75 0 0 1 .359.64v2.75a.75.75 0 0 1-.36.639l-2.25 1.375a.75.75 0 0 1-.78 0l-2.25-1.375a.75.75 0 0 1-.36-.64v-2.75a.75.75 0 0 1 .36-.64l2.34-1.422Zm-11.049 2.39L3.75 12.5l-2.097 1.048L3 14.371l1.5-.917v-1.909L3 10.628l-1.348.823Zm9.848.093v1.205L13 12v2.371l1.5-.917v-1.909l-1.5-.917-1.5.917ZM2.701.062a.75.75 0 0 1 .69.048l2.25 1.375a.75.75 0 0 1 .359.64v2.75a.75.75 0 0 1-.36.64L3.39 6.89a.749.749 0 0 1-.78 0L.36 5.515a.75.75 0 0 1-.36-.64v-2.75a.75.75 0 0 1 .36-.64L2.7.062Zm10 0a.75.75 0 0 1 .69.048l2.25 1.375a.75.75 0 0 1 .359.64v2.75a.75.75 0 0 1-.36.64L13.39 6.89a.749.749 0 0 1-.78 0l-2.25-1.375a.75.75 0 0 1-.36-.64l.006-2.847a.75.75 0 0 1 .353-.543L12.701.062ZM1.5 2.545v1.91L3 5.37l1.5-.917V3.25L3 4V1.628l-1.5.917Zm10 0v1.91l1.5.916v-2.37l1.5.75V2.544L13 1.628l-1.5.917Z"/></svg>