<svg xmlns="http://www.w3.org/2000/svg" fill="currentColor" viewBox="0 0 16 16"><path d="M3.686.256a.75.75 0 0 1 1.128.988L1.5 5.031v10.22a.75.75 0 0 1-1.5 0V4.75a.75.75 0 0 1 .186-.495l3.5-4ZM7.5 13a2.5 2.5 0 0 1 2.5 2.5.5.5 0 0 1-.5.5h-4a.515.515 0 0 1-.5-.5A2.5 2.5 0 0 1 7.5 13Zm6.25-6.5a.75.75 0 0 1 .75.75V8h.75a.75.75 0 0 1 0 1.5h-2.317c-.25 0-.433.269-.433.5 0 .243.194.5.45.5h.9c.638 0 1.188.215 1.58.607.78.782.757 2.05-.014 2.801a2.06 2.06 0 0 1-.916.51v.832a.75.75 0 0 1-1.5 0v-.75h-1.25a.75.75 0 0 1 0-1.5h2.1c.312 0 .65-.137.65-.495 0-.362-.33-.505-.65-.505h-.9C11.79 12 11 10.994 11 10c0-1.106.905-2 2-2v-.75a.75.75 0 0 1 .75-.75Zm-.5-6.5C14.216 0 15 .784 15 1.75v2a.75.75 0 0 1-1.5 0v-2a.25.25 0 0 0-.25-.25H9.21a.25.25 0 0 0-.19.087l-.52.606V5.25a.75.75 0 0 1-.75.75H5.238L5 6.37v6.13a.75.75 0 0 1-1.5 0V6.37c0-.417.15-.821.42-1.139L7.88.611A1.751 1.751 0 0 1 9.21 0h4.04ZM7.5 9a1.5 1.5 0 1 1 0 3 1.5 1.5 0 0 1 0-3Z"/></svg>