<svg xmlns="http://www.w3.org/2000/svg" fill="currentColor" viewBox="0 0 16 16"><path d="M14.25 0C15.216 0 16 .783 16 1.75v9.495a1.75 1.75 0 0 1-1.75 1.749H9v1.502l3.249-.003a.75.75 0 0 1 .002 1.5l-8.5.007a.75.75 0 1 1-.002-1.5L7 14.498v-1.503H1.75A1.75 1.75 0 0 1 0 11.244V1.75C0 .783.784 0 1.75 0h12.5ZM1.75 1.5a.25.25 0 0 0-.25.25v9.495c0 .138.112.25.25.25h12.5a.25.25 0 0 0 .25-.25V1.748a.25.25 0 0 0-.25-.25H1.75ZM8 6.996a2.5 2.5 0 0 1 2.5 2.498.5.5 0 0 1-.5.5H6a.515.515 0 0 1-.5-.5A2.498 2.498 0 0 1 8 6.997Zm0-3.998a1.5 1.5 0 1 1 0 2.999 1.5 1.5 0 0 1 0-3Z"/></svg>