<svg xmlns="http://www.w3.org/2000/svg" fill="currentColor" viewBox="0 0 16 16"><path d="M.009 3.334c.057-.33.397-.362.67-.33.038.004 3.57.413 3.82.423.744 0 1.283-.42 1.98-.42.141 0 .291.01.461.03 1.002.12 1.443 1.21 1.443 1.74l.63 9.63c0 .28.066.593-.25.593-.317 0-.432-.172-.54-.312-.211-.27-2.414-3.58-2.624-3.86-1.451-2-.05-4.1-.05-5.13 0-.47-.618-.855-1.081-.96-.402-.091-3.98-.824-3.98-.824-.36-.08-.53-.29-.48-.58Zm15.91-.214c.08.12.101.33.061.63-.07.69-1.262 2.87-2.483 3.97-.841.76-2.686 2.112-2.952 2.237a.915.915 0 0 1-.422.113c-.15 0-.227-.092-.227-.222L9.653 6.45c-.03-.21.156-.477.43-.6l5.316-2.81c.178-.099.4-.12.52.08Zm-2.88-2.112c.16.04.208.142.178.292l-.3 1.5c-.05.26-.11.47-.33.61l-2.444 1.41c-.19.105-.416.12-.53-.05-.1-.17-.2-.505-.1-.71.186-.383 3.154-2.91 3.154-2.91.117-.13.252-.172.372-.142Z"/></svg>