<svg xmlns="http://www.w3.org/2000/svg" fill="currentColor" viewBox="0 0 16 16"><path d="M10.25 0C11.216 0 12 .784 12 1.75v7.88c0 .417-.15.821-.42 1.139l-3.96 4.62A1.75 1.75 0 0 1 6.29 16H1.75A1.75 1.75 0 0 1 0 14.25V1.75C0 .784.784 0 1.75 0h8.5Zm4 0a.75.75 0 0 1 .75.75v10.5a.75.75 0 0 1-.185.494l-3.5 4a.75.75 0 0 1-1.13-.988l3.315-3.787V.75a.75.75 0 0 1 .75-.75ZM1.75 1.5a.25.25 0 0 0-.25.25v12.5c0 .138.112.25.25.25h4.54a.25.25 0 0 0 .19-.087l.52-.607V10.75a.75.75 0 0 1 .75-.75h2.512c.089-.104.238-.37.238-.37V1.75a.25.25 0 0 0-.25-.25h-8.5Zm3.5 9.5a.75.75 0 0 1 0 1.5h-1.5a.75.75 0 0 1 0-1.5h1.5ZM6 8.5A.75.75 0 0 1 6 10H3.75a.75.75 0 0 1 0-1.5H6ZM8.25 6a.75.75 0 0 1 0 1.5h-4.5a.75.75 0 0 1 0-1.5h4.5ZM4.327 3.004A.75.75 0 0 1 5 3.75l-.004.577A.75.75 0 0 1 4.25 5h-.5A.75.75 0 0 1 3 4.25v-.5A.75.75 0 0 1 3.75 3l.577.004Zm4 0A.75.75 0 0 1 9 3.75l-.004.577A.75.75 0 0 1 8.25 5h-1.5A.75.75 0 0 1 6 4.25v-.5A.75.75 0 0 1 6.75 3l1.577.004Z"/></svg>