<svg xmlns="http://www.w3.org/2000/svg" fill="currentColor" viewBox="0 0 16 16"><path d="M11.621.515a1.75 1.75 0 0 1 2.48 0l1.383 1.388a1.752 1.752 0 0 1-.004 2.477L4.03 15.781A.751.751 0 0 1 3.5 16H.75a.75.75 0 0 1-.75-.75v-2.751a.75.75 0 0 1 .219-.53L11.62.515Zm3.099 10.702a.75.75 0 0 1 1.06 1.06l-1.22 1.221 1.22 1.22a.75.75 0 0 1-1.06 1.061l-1.22-1.22-1.22 1.22a.75.75 0 1 1-1.06-1.06l1.22-1.221-1.22-1.22a.75.75 0 0 1 1.06-1.061l1.22 1.22 1.22-1.22Zm-12.912 1.28 1.691 1.693 7.936-7.9-1.743-1.712-7.884 7.92Zm11.23-10.923a.25.25 0 0 0-.354 0l-1.932 1.94 1.746 1.716 1.924-1.914a.25.25 0 0 0 0-.353l-1.384-1.389Z"/></svg>