<svg xmlns="http://www.w3.org/2000/svg" fill="currentColor" viewBox="0 0 16 16"><path d="M11.25 0a.75.75 0 0 1 .75.75V2c1.583 0 3 1.058 3 2.75v8.5A2.75 2.75 0 0 1 12.25 16h-8.5A2.75 2.75 0 0 1 1 13.25v-8.5C1 3.058 2.417 2 4 2V.75a.75.75 0 0 1 1.5 0V2h5V.75a.75.75 0 0 1 .75-.75ZM2.5 4.75v8.5c0 .69.56 1.25 1.25 1.25h8.5c.69 0 1.25-.56 1.25-1.25v-8.5c0-.868-.741-1.25-1.5-1.25v.75a.75.75 0 0 1-1.5 0V3.5h-5v.75a.75.75 0 0 1-1.5 0V3.5c-.759 0-1.5.382-1.5 1.25Zm5.75 5.253a.75.75 0 0 1 0 1.5h-3.5a.75.75 0 0 1 0-1.5h3.5Zm3-2.503a.75.75 0 0 1 0 1.5h-6.5a.75.75 0 0 1 0-1.5h6.5Z"/></svg>