<svg xmlns="http://www.w3.org/2000/svg" fill="currentColor" viewBox="0 0 16 16"><path d="M2.1 9c.724 0 1.33.352 1.658.907.907 1.543-.733 2.77-1.808 3.593h1.3a.75.75 0 0 1 0 1.5H.75a.75.75 0 0 1-.75-.75c0-.568.094-1.072.51-1.497.127-.13.54-.464.88-.73.34-.265.931-.757 1.062-.999l.001-.001c.156-.286-.056-.523-.353-.523-.333 0-.702.242-.948.363s-.553.23-.875-.031c-.321-.261-.336-.773-.148-.996C.617 9.256 1.353 9 2.099 9Zm13.15 2.5a.75.75 0 0 1 0 1.5h-8.5a.75.75 0 0 1 0-1.5h8.5ZM2.25 1a.75.75 0 0 1 .75.75V6h.25a.75.75 0 0 1 0 1.5H.75a.75.75 0 0 1 0-1.5h.75V2.5H.75a.75.75 0 0 1 0-1.5h1.5Zm13 2.5a.75.75 0 0 1 0 1.5h-8.5a.75.75 0 0 1 0-1.5h8.5Z"/></svg>