<svg xmlns="http://www.w3.org/2000/svg" fill="currentColor" viewBox="0 0 16 16"><path d="M10.586 0c1.3 0 2.021 1.504 1.21 2.519l-.35.437c.24.402.45.924.527 1.564.173 1.456-.398 2.674-1.355 3.503C12.611 8.932 14 10.927 14 13.25v2a.75.75 0 0 1-.75.75h-1.5a.75.75 0 0 1 0-1.5h.75v-1.25C12.5 10.911 10.471 9 7.984 9 5.602 9 3.5 10.911 3.5 13.25v1.25h.75a.75.75 0 0 1 0 1.5h-1.5a.75.75 0 0 1-.75-.75v-2c0-2.322 1.389-4.318 3.38-5.227A3.989 3.989 0 0 1 4 5c0-.789.196-1.436.575-2.018l-.37-.463C3.391 1.504 4.114 0 5.414 0h5.17ZM8 10a.75.75 0 0 1 .75.75v1h1a.75.75 0 0 1 0 1.5h-1v1c0 .426-.326.75-.75.75a.744.744 0 0 1-.75-.75v-1h-1a.75.75 0 0 1 0-1.5h1v-1A.75.75 0 0 1 8 10Zm2.297-6.003H5.715C4.918 5.574 6.199 7.5 8 7.5c1.88 0 3-1.897 2.297-3.503ZM5.375 1.581l.735.919h3.78l.735-.919s.043-.081-.066-.081h-5.11c-.125 0-.074.081-.074.081Z"/></svg>