<svg xmlns="http://www.w3.org/2000/svg" fill="currentColor" viewBox="0 0 16 16"><path d="M9.75 0a.75.75 0 0 1 0 1.5H9.5a.73.73 0 0 0-.75.75v1.664C9.335 3.423 10.178 3 11.625 3c1.636 0 2.777.767 3.472 1.902.666 1.09.903 2.478.903 3.78 0 2.223-.737 4.03-1.751 5.294-.99 1.233-2.318 2.024-3.53 2.024-1.05 0-1.636-.245-2.086-.516-.444-.266-.444-.301-.633-.301-.19 0-.19.035-.633.301-.45.271-1.036.516-2.086.516-1.212 0-2.54-.79-3.53-2.024C.737 12.713 0 10.905 0 8.683c0-1.308.236-2.697.903-3.786C1.6 3.763 2.741 3 4.375 3c1.447 0 2.29.423 2.875.914V2.25C7.25.983 8.25 0 9.5 0h.25Zm1.875 4.5c-1.17 0-1.671.34-1.988.628-.462.47-.92 1.017-1.637 1.017-.718 0-1.175-.547-1.637-1.017-.317-.288-.818-.628-1.988-.628-1.084 0-1.755.468-2.192 1.182-.466.76-.683 1.837-.683 3 0 1.884.622 3.36 1.42 4.354.823 1.024 1.761 1.464 2.361 1.464.763 0 1.083-.164 1.313-.302.236-.142.69-.515 1.406-.515.717 0 1.17.373 1.406.515.23.138.55.302 1.313.302.6 0 1.538-.44 2.36-1.464.799-.994 1.421-2.47 1.421-4.353 0-1.159-.216-2.237-.683-2.998-.438-.716-1.109-1.185-2.192-1.185Z"/></svg>