<svg xmlns="http://www.w3.org/2000/svg" fill="currentColor" viewBox="0 0 16 16"><path d="M14.25 14.5a.75.75 0 1 1 0 1.5H1.75a.75.75 0 1 1 0-1.5h12.5ZM2.75 7a.75.75 0 0 1 .75.75v4.5a.75.75 0 0 1-1.5 0v-4.5A.75.75 0 0 1 2.75 7Zm3.5 0a.75.75 0 0 1 .75.75v4.5a.75.75 0 0 1-1.5 0v-4.5A.75.75 0 0 1 6.25 7Zm3.5 0a.75.75 0 0 1 .75.75v4.5a.75.75 0 0 1-1.5 0v-4.5A.75.75 0 0 1 9.75 7Zm3.5 0a.75.75 0 0 1 .75.75v4.5a.75.75 0 0 1-1.5 0v-4.5a.75.75 0 0 1 .75-.75ZM7.72.054a.75.75 0 0 1 .646.042l6.25 3.5A.75.75 0 0 1 14.25 5H1.75a.75.75 0 0 1-.366-1.404L7.72.054ZM4.625 3.5h6.752L8 1.61 4.624 3.5Z"/></svg>