<svg xmlns="http://www.w3.org/2000/svg" fill="currentColor" viewBox="0 0 16 16"><path d="M9.25 0a.75.75 0 0 1 .75.75v3.5a.75.75 0 0 1-1.5 0V1.5h-7v13H6v-2.75c0-.398.352-.75.75-.75h2.5a.75.75 0 0 1 .75.75v3.5a.75.75 0 0 1-.75.75H.75a.75.75 0 0 1-.75-.75V.75A.75.75 0 0 1 .75 0h8.5ZM7.5 14.5h1v-2h-1v2ZM3.25 11a.75.75 0 1 1 0 1.5.75.75 0 0 1 0-1.5Zm8.942-5.757a.75.75 0 0 1 1.059-.056l2.501 2.25a.751.751 0 0 1 0 1.116l-2.5 2.25a.751.751 0 0 1-1.004-1.116l1.043-.937H9.25a.75.75 0 0 1 0-1.5h4.05l-1.052-.947a.75.75 0 0 1-.056-1.06ZM3.25 8a.75.75 0 1 1 0 1.5.75.75 0 0 1 0-1.5Zm3.5 0a.75.75 0 1 1 0 1.5.75.75 0 0 1 0-1.5Zm-3.5-3a.75.75 0 1 1 0 1.5.75.75 0 0 1 0-1.5Zm3.5 0a.75.75 0 1 1 0 1.5.75.75 0 0 1 0-1.5Zm-3.5-3a.75.75 0 1 1 0 1.5.75.75 0 0 1 0-1.5Zm3.5 0a.75.75 0 1 1 0 1.5.75.75 0 0 1 0-1.5Z"/></svg>