<svg xmlns="http://www.w3.org/2000/svg" fill="currentColor" viewBox="0 0 16 16"><path d="M5.146 2.015c.144.028.279.1.384.205L6.811 3.5l4.621.009c.883.09 1.572.835 1.572 1.741V6h1.244a1.75 1.75 0 0 1 1.706 2.144l-1.038 4.5A1.752 1.752 0 0 1 13.209 14H2.959a1.751 1.751 0 0 1-1.75-1.71L.018 3.999A1.75 1.75 0 0 1 1.751 2l3.394.015ZM3.826 7.5a.251.251 0 0 0-.247.203l-.867 4.5a.25.25 0 0 0 .247.297h10.25a.25.25 0 0 0 .244-.193l1.039-4.5a.25.25 0 0 0-.244-.307H3.825Zm-2.074-4a.25.25 0 0 0-.249.285l.556 3.871.046-.236c.159-.824.88-1.42 1.72-1.42h7.679v-.75a.25.25 0 0 0-.25-.25H6.5a.751.751 0 0 1-.531-.22L4.689 3.5H1.752Z"/></svg>