<svg xmlns="http://www.w3.org/2000/svg" fill="currentColor" viewBox="0 0 16 16"><path d="M13.75 6.5a.75.75 0 0 1 .75.75V8h.75a.75.75 0 0 1 0 1.5h-2.317c-.25 0-.433.269-.433.5 0 .243.194.5.45.5h.9c.638 0 1.188.215 1.58.607.385.386.57.896.57 1.398a1.95 1.95 0 0 1-.584 1.403c-.25.244-.562.415-.916.509v.833a.75.75 0 0 1-1.5 0v-.75h-1.25a.75.75 0 0 1 0-1.5h2.1c.312 0 .65-.137.65-.495 0-.362-.33-.505-.65-.505h-.9C11.79 12 11 10.994 11 10c0-1.106.844-2 2-2v-.75a.75.75 0 0 1 .75-.75ZM6 0a4 4 0 0 1 2.586 7.049c.4.172.768.37 1.078.575a.751.751 0 0 1-.828 1.252C8.12 8.403 7.05 8 6.202 8h-.404C3.418 8 1.5 9.911 1.5 12.25v.25h7a.75.75 0 0 1 0 1.5H.75a.75.75 0 0 1-.75-.75v-1c0-2.323 1.39-4.319 3.383-5.227A4 4 0 0 1 6 0Zm0 1.5a2.5 2.5 0 1 0 0 5 2.5 2.5 0 0 0 0-5ZM15.25 3a.75.75 0 0 1 0 1.5h-3.5a.75.75 0 0 1 0-1.5h3.5Zm0-3a.75.75 0 0 1 0 1.5h-3.5a.75.75 0 0 1 0-1.5h3.5Z"/></svg>