<svg xmlns="http://www.w3.org/2000/svg" fill="currentColor" viewBox="0 0 16 16"><path d="M15.195 11.993a.75.75 0 0 1 .75.75v.502a2.75 2.75 0 0 1-2.75 2.75H2.75A2.75 2.75 0 0 1 0 13.245v-.502a.75.75 0 1 1 1.5 0v.502c0 .69.56 1.25 1.25 1.25h10.445c.69 0 1.25-.56 1.25-1.25v-.502a.75.75 0 0 1 .75-.75ZM5.5 4.995a1.5 1.5 0 0 1 1.37 2.108l2.272 2.983c.375-.085.775-.02 1.105.18l2.767-1.574A1.515 1.515 0 0 1 14.5 6.996a1.5 1.5 0 0 1 1.5 1.5c0 1.048-1.1 1.773-2.055 1.393l-2.974 1.691a1.499 1.499 0 0 1-1.498 1.469c-.994 0-1.721-1-1.436-1.938l-2.38-3.125a1.524 1.524 0 0 1-.737-.108L2.992 9.346A1.516 1.516 0 0 1 1.5 10.995a1.5 1.5 0 1 1 .615-2.867l1.898-1.444A1.515 1.515 0 0 1 5.5 4.995Zm1.75-4a.75.75 0 0 1 0 1.5h-4.5c-.69 0-1.25.56-1.25 1.25v1.5a.75.75 0 0 1-1.5 0v-1.5A2.75 2.75 0 0 1 2.75.995h4.5Zm6.219-.7.628 1.36 1.46.208c.406.058.584.57.3.867l-1.063 1.116.266 1.545a.52.52 0 0 1-.76.539L13 5.2l-1.3.729a.521.521 0 0 1-.761-.538l.265-1.546-1.062-1.116a.522.522 0 0 1 .3-.867l1.46-.208s.571-1.28.665-1.426a.521.521 0 0 1 .902.066Z"/></svg>