<svg xmlns="http://www.w3.org/2000/svg" fill="currentColor" viewBox="0 0 16 16"><path d="M11.25 0C12.216 0 13 .784 13 1.75v3a.75.75 0 0 1-1.5 0v-3a.25.25 0 0 0-.25-.25H6.71a.25.25 0 0 0-.19.087L6 2.193V5.25a.75.75 0 0 1-.75.75H2.76l-.26.37v8.88a.75.75 0 0 1-1.5 0V6.37c0-.417.15-.821.42-1.139L5.38.611A1.751 1.751 0 0 1 6.71 0h4.54ZM7.72 11.22a.75.75 0 1 1 1.06 1.06L7.56 13.5l1.22 1.22a.75.75 0 1 1-1.06 1.06L6.5 14.56l-1.22 1.22a.75.75 0 1 1-1.06-1.06l1.22-1.22-1.22-1.22a.75.75 0 1 1 1.06-1.06l1.22 1.22 1.22-1.22Zm6.53 1.28a.75.75 0 0 1 0 1.5h-2.5a.75.75 0 0 1 0-1.5h2.5ZM8.68 5.262a.75.75 0 0 1 1.14.976l-3 3.5a.75.75 0 0 1-1.1.042l-1.5-1.5a.75.75 0 1 1 1.06-1.06l.927.926 2.474-2.884ZM14.25 7.5a.75.75 0 0 1 0 1.5h-2.5a.75.75 0 0 1 0-1.5h2.5Z"/></svg>