<svg xmlns="http://www.w3.org/2000/svg" fill="currentColor" viewBox="0 0 16 16"><path d="M3.255 1a.75.75 0 0 1 0 1.5H2.75a.25.25 0 0 0-.25.25V8h2.75a.75.75 0 0 1 .75.75c0 .794.853 1.75 2 1.75s2-.956 2-1.75a.75.75 0 0 1 .75-.75h2.75V2.75a.25.25 0 0 0-.25-.25h-.501a.75.75 0 0 1 0-1.5h.501c.966 0 1.75.783 1.75 1.75v9.5A2.75 2.75 0 0 1 12.25 15h-8.5A2.75 2.75 0 0 1 1 12.25v-9.5C1 1.783 1.784 1 2.75 1h.505ZM2.5 12.25c0 .69.56 1.25 1.25 1.25h8.5c.69 0 1.25-.56 1.25-1.25V9.5h-2.104C11.01 10.883 9.607 12 8 12s-3.011-1.117-3.396-2.5H2.5v2.75ZM8.558.248l2.25 2.5a.751.751 0 0 1-1.116 1.004l-.919-1.023v4.333a.75.75 0 0 1-1.5 0V2.68l-.965 1.073A.75.75 0 0 1 5.192 2.75L7.443.248a.757.757 0 0 1 1.115 0Z"/></svg>