<svg xmlns="http://www.w3.org/2000/svg" fill="currentColor" viewBox="0 0 16 16"><path d="M14.25 13.5a.75.75 0 0 1 0 1.5H1.75a.75.75 0 0 1 0-1.5h12.5Zm.75-2.25c0 .424-.332.75-.75.75h-5.5a.75.75 0 0 1 0-1.5h5.5c.414 0 .75.326.75.75ZM3.748 5.192a.75.75 0 0 1 1.004 1.116L2.872 8l1.88 1.692a.75.75 0 0 1-1.004 1.116l-2.5-2.25a.758.758 0 0 1 0-1.116l2.5-2.25ZM15 8c0 .424-.328.75-.75.75h-5.5a.75.75 0 0 1 0-1.5h5.5c.414 0 .75.326.75.75Zm0-3.25c0 .424-.328.75-.75.75h-5.5a.75.75 0 0 1 0-1.5h5.5c.414 0 .75.326.75.75ZM14.25 1a.75.75 0 0 1 0 1.5H1.75a.75.75 0 0 1 0-1.5h12.5Z"/></svg>