<svg xmlns="http://www.w3.org/2000/svg" fill="currentColor" viewBox="0 0 16 16"><path d="M4.61 1.998c.667 0 1.27.373 1.568.97l.877 1.754.003.006a1.756 1.756 0 0 1-.787 2.337l-.218.11c.34 1.053 1.289 2 2.246 2.532.188.105.36.178.513.228l.107-.212a1.743 1.743 0 0 1 2.353-.777l1.447.723A2.29 2.29 0 0 1 14 11.731c0 .978-.008 1.972-.538 2.836-.73 1.189-2.275 1.66-3.6 1.33l-.005-.002A13.59 13.59 0 0 1 .093 6.13L.09 6.126C.003 5.774-.124 4.79.28 3.85a2.83 2.83 0 0 1 1.14-1.32c.569-.347 1.297-.533 2.201-.53l.987-.002Zm-.99 1.5c-1.324-.005-2.427.847-2.073 2.264a12.09 12.09 0 0 0 8.678 8.68c.171.043.791.117 1.322-.111 1.01-.434.953-1.675.953-2.6a.791.791 0 0 0-.447-.718l-.006-.003-1.451-.726-.006-.003a.243.243 0 0 0-.326.106l-.003.005c-.224.448-.416 1.12-1.024 1.12-1.784 0-3.465-1.653-4.266-3.094-.285-.512-.496-1.092-.496-1.667a.75.75 0 0 1 .414-.67l.7-.351a.258.258 0 0 0 .124-.339l-.877-1.753a.247.247 0 0 0-.227-.14h-.99Zm8.572-3a.751.751 0 0 1 1.06-.056l2.5 2.248a.757.757 0 0 1 0 1.115l-2.5 2.248a.751.751 0 0 1-1.004-1.114l1.047-.942H8.75a.75.75 0 1 1 0-1.499h4.545l-1.047-.941a.75.75 0 0 1-.056-1.06Z"/></svg>