<svg xmlns="http://www.w3.org/2000/svg" fill="currentColor" viewBox="0 0 16 16"><path d="M6.25 0A.75.75 0 0 1 7 .75v2.5a.75.75 0 0 1-.75.75h-.19L8 5.94 9.94 4h-.19A.75.75 0 0 1 9 3.25V.75A.75.75 0 0 1 9.75 0h3.5a.75.75 0 0 1 .75.75v2.5a.75.75 0 0 1-.75.75h-1.192l-2.25 2.252A.745.745 0 0 1 10 6.75v.5h1v-.5a.75.75 0 0 1 .75-.75h3.5a.75.75 0 0 1 .75.75v2.5a.75.75 0 0 1-.75.75h-3.5a.75.75 0 0 1-.75-.75v-.5h-1v.5a.744.744 0 0 1-.192.497L12.058 12h1.192a.75.75 0 0 1 .75.75v2.5a.75.75 0 0 1-.75.75h-3.5a.75.75 0 0 1-.75-.75v-2.5a.75.75 0 0 1 .75-.75h.19L8 10.06 6.06 12h.19a.75.75 0 0 1 .75.75v2.5a.75.75 0 0 1-.75.75h-3.5a.75.75 0 0 1-.75-.75v-2.5a.75.75 0 0 1 .75-.75h1.192l2.25-2.253A.745.745 0 0 1 6 9.25v-.5H5v.5a.75.75 0 0 1-.75.75H.75A.75.75 0 0 1 0 9.25v-2.5A.75.75 0 0 1 .75 6h3.5a.75.75 0 0 1 .75.75v.5h1v-.5c0-.192.073-.365.191-.498L3.942 4H2.75A.75.75 0 0 1 2 3.25V.75A.75.75 0 0 1 2.75 0h3.5ZM3.5 14.5h2v-1h-2v1Zm7 0h2v-1h-2v1Zm-9-6h2v-1h-2v1Zm6 0h1v-1h-1v1Zm5 0h2v-1h-2v1Zm-9-6h2v-1h-2v1Zm7 0h2v-1h-2v1Z"/></svg>