<svg xmlns="http://www.w3.org/2000/svg" fill="currentColor" viewBox="0 0 16 16"><path d="M8.02 0c4.09 0 7.564 3.05 7.976 7.14a.75.75 0 0 1-1.492.15C14.17 3.988 11.36 1.5 8.02 1.5 4.447 1.5 1.5 4.447 1.5 8.02c0 3.317 2.505 6.132 5.794 6.484a.75.75 0 0 1-.16 1.492C3.075 15.562 0 12.094 0 8.021 0 3.619 3.619 0 8.02 0Zm6.66 10.262a.75.75 0 0 1 1.14.976l-3 3.5a.758.758 0 0 1-1.1.042l-1.5-1.5a.75.75 0 0 1 1.06-1.06l.927.926 2.474-2.884ZM8.25 3.5a.75.75 0 0 1 .75.75V5h.75a.75.75 0 0 1 0 1.5H7.433C7.183 6.5 7 6.769 7 7c0 .243.194.5.45.5h.9c.638 0 1.188.215 1.58.607.78.782.757 2.05-.014 2.801-.25.244-.562.415-.916.509v.833a.75.75 0 0 1-1.5 0v-.75H6.25a.75.75 0 0 1 0-1.5h2.1c.312 0 .65-.137.65-.495C9 9.143 8.67 9 8.35 9h-.9C6.29 9 5.5 7.994 5.5 7c0-1.106.871-2 2-2v-.75a.75.75 0 0 1 .75-.75Z"/></svg>