<svg xmlns="http://www.w3.org/2000/svg" fill="currentColor" viewBox="0 0 16 16"><path d="M13.148 11.41c.39-.63 1.311-.63 1.701 0C15.39 12.28 16 13.39 16 14c0 1.1-.9 2-2.002 2-1.1 0-2.002-.9-2.002-2 0-.61.601-1.71 1.152-2.59ZM3.968.21a.752.752 0 0 1 1.061.02l6.455 6.539a1.749 1.749 0 0 1 0 2.475l-4.247 4.243a1.754 1.754 0 0 1-2.478 0L.513 9.244a1.749 1.749 0 0 1 0-2.475l4.246-4.243c.07-.069.144-.13.221-.185L3.95 1.27A.75.75 0 0 1 3.968.21Zm2.208 3.377a.252.252 0 0 0-.355 0c-.79.79-4.319 4.412-4.319 4.412h8.934l-4.26-4.412Z"/></svg>