<svg xmlns="http://www.w3.org/2000/svg" fill="currentColor" viewBox="0 0 16 16"><path d="M8 0a8 8 0 0 1 8 8c0 .258-.013.54-.036.826-.111 1.356-1.3 2.174-2.501 2.174H9.435a.935.935 0 0 0-.227 1.842l.81.202c.63.157 1.037.673 1.07 1.25.034.593-.334 1.158-.987 1.344C9.404 15.836 8.63 16 8 16A8 8 0 1 1 8 0Zm0 1.5a6.5 6.5 0 0 0 0 13c.283 0 .652-.056 1.065-.148C7.915 14.13 7 13.192 7 11.935A2.435 2.435 0 0 1 9.435 9.5h4.028c.584 0 .972-.373 1.007-.797.02-.25.03-.49.03-.703A6.5 6.5 0 0 0 8 1.5ZM4 6a1 1 0 1 1 0 2 1 1 0 0 1 0-2Zm8 0a1 1 0 1 1 0 2 1 1 0 0 1 0-2ZM6 3a1 1 0 1 1 0 2 1 1 0 0 1 0-2Zm4 0a1 1 0 1 1 0 2 1 1 0 0 1 0-2Z"/></svg>