<svg xmlns="http://www.w3.org/2000/svg" fill="currentColor" viewBox="0 0 16 16"><path d="M8.05 0C12.47 0 16 3.574 16 8.01c0 4.202-3.153 7.62-7.232 7.987a.75.75 0 0 1-.135-1.494c3.301-.298 5.868-3.063 5.868-6.493 0-3.62-2.871-6.51-6.45-6.51A6.461 6.461 0 0 0 2.313 5H5.25a.75.75 0 0 1 0 1.5H.75A.75.75 0 0 1 0 5.75v-5a.75.75 0 1 1 1.5 0v2.692A7.965 7.965 0 0 1 8.05 0Zm-5.1 13.241a.75.75 0 0 1 1.06-.042c.526.487 1.224.858 1.96 1.084a.75.75 0 0 1-.44 1.434c-.908-.279-1.816-.748-2.538-1.416a.75.75 0 0 1-.042-1.06ZM.616 8.011a.751.751 0 0 1 .873.604c.15.828.387 1.573.706 2.35a.751.751 0 0 1-1.389.57 12.97 12.97 0 0 1-.794-2.65.751.751 0 0 1 .604-.873ZM7.75 3a.75.75 0 0 1 .75.75v3.866l2.702 2.04a.75.75 0 0 1-.905 1.196l-3-2.263A.75.75 0 0 1 7 7.99V3.75A.75.75 0 0 1 7.75 3Z"/></svg>