<svg xmlns="http://www.w3.org/2000/svg" fill="currentColor" viewBox="0 0 16 16"><path d="M12.25 1A2.75 2.75 0 0 1 15 3.75v3.5a.75.75 0 0 1-1.5 0v-3.5c0-.69-.56-1.25-1.25-1.25h-8.5c-.69 0-1.25.56-1.25 1.25v8.5c0 .69.56 1.25 1.25 1.25h4.498a.75.75 0 0 1 0 1.5H3.75A2.75 2.75 0 0 1 1 12.25v-8.5A2.75 2.75 0 0 1 3.75 1h8.5Zm2.43 9.262a.75.75 0 0 1 1.14.976l-3 3.5a.758.758 0 0 1-1.1.042l-1.5-1.5a.75.75 0 0 1 1.06-1.06l.927.926 2.474-2.884ZM7.75 3.5a.75.75 0 0 1 .75.75V5h.75a.75.75 0 0 1 0 1.5H6.933c-.25 0-.433.269-.433.5 0 .243.194.5.45.5h.9c.638 0 1.188.215 1.58.607.78.782.757 2.05-.014 2.801-.25.244-.562.415-.916.509v.833a.75.75 0 0 1-1.5 0v-.75H5.75a.75.75 0 0 1 0-1.5h2.1c.312 0 .65-.137.65-.495C8.5 9.143 8.17 9 7.85 9h-.9C5.79 9 5 7.994 5 7c0-.987.78-2 2-2v-.75a.75.75 0 0 1 .75-.75Z"/></svg>