<svg xmlns="http://www.w3.org/2000/svg" fill="currentColor" viewBox="0 0 16 16"><path d="M12.25 13a.75.75 0 0 1 .75.75v1.5a.75.75 0 0 1-.75.75H.75a.75.75 0 0 1-.75-.75v-1.5a.75.75 0 0 1 1.5 0v.75h10v-.75a.75.75 0 0 1 .75-.75ZM2.27 5a2.276 2.276 0 0 1 2.27 2.27c0 1.283-1.056 2.23-2.27 2.23H1.5v.75a.75.75 0 0 1-1.5 0v-4.5A.75.75 0 0 1 .75 5h1.52Zm5.5 0C9.053 5 10 6.055 10 7.27v1.52C10 10.06 8.997 11 7.77 11H6.25a.75.75 0 0 1-.75-.75v-4.5A.75.75 0 0 1 6.25 5h1.52Zm7.48 0a.75.75 0 0 1 0 1.5H13v1h1.25a.75.75 0 0 1 0 1.5H13v1.25a.75.75 0 0 1-1.5 0v-4.5a.75.75 0 0 1 .75-.75h3ZM7 9.5h.77c.432 0 .73-.3.73-.71V7.27c0-.446-.334-.77-.73-.77H7v3ZM1.5 8h.77c.445 0 .77-.334.77-.73a.776.776 0 0 0-.77-.77H1.5V8Zm6.25-8c.199 0 .39.08.53.22l1.5 1.5a.75.75 0 1 1-1.06 1.06L7.44 1.5H2.5v.75a.75.75 0 0 1-1.5 0V.75A.75.75 0 0 1 1.75 0h6Z"/></svg>