<svg xmlns="http://www.w3.org/2000/svg" fill="currentColor" viewBox="0 0 16 16"><path d="M.75 12a.75.75 0 0 1 .75.75v1.5c0 .138.112.25.25.25h1.5a.75.75 0 0 1 0 1.5h-1.5A1.75 1.75 0 0 1 0 14.25v-1.5A.75.75 0 0 1 .75 12Zm14.5 0a.75.75 0 0 1 .75.75v1.5A1.75 1.75 0 0 1 14.25 16h-1.5a.75.75 0 0 1 0-1.5h1.5a.25.25 0 0 0 .25-.25v-1.5a.75.75 0 0 1 .75-.75ZM2.27 5a2.276 2.276 0 0 1 2.27 2.27c0 1.283-1.056 2.23-2.27 2.23H1.5v.75a.75.75 0 0 1-1.5 0v-4.5A.75.75 0 0 1 .75 5h1.52Zm5.5 0C9.053 5 10 6.055 10 7.27v1.52C10 10.06 8.997 11 7.77 11H6.25a.75.75 0 0 1-.75-.75v-4.5A.75.75 0 0 1 6.25 5h1.52Zm7.48 0a.75.75 0 0 1 0 1.5H13v1h1.25a.75.75 0 0 1 0 1.5H13v1.25a.75.75 0 0 1-1.5 0v-4.5a.75.75 0 0 1 .75-.75h3ZM7 9.5h.77c.432 0 .73-.3.73-.71V7.27c0-.446-.334-.77-.73-.77H7v3ZM1.5 8h.77c.445 0 .77-.334.77-.73a.776.776 0 0 0-.77-.77H1.5V8Zm1.75-8a.75.75 0 0 1 0 1.5h-1.5a.25.25 0 0 0-.25.25v1.5a.75.75 0 0 1-1.5 0v-1.5C0 .784.784 0 1.75 0h1.5Zm11 0C15.216 0 16 .784 16 1.75v1.5a.75.75 0 0 1-1.5 0v-1.5a.25.25 0 0 0-.25-.25h-1.5a.75.75 0 0 1 0-1.5h1.5Z"/></svg>