<svg xmlns="http://www.w3.org/2000/svg" fill="currentColor" viewBox="0 0 16 16"><path d="M8.766.596a.751.751 0 0 1 .889-.58C13.298.783 16 4.168 16 8.001c0 3.835-2.694 7.223-6.346 7.984a.75.75 0 0 1-.307-1.469c2.93-.61 5.153-3.362 5.153-6.515 0-3.147-2.229-5.9-5.154-6.516a.75.75 0 0 1-.58-.889ZM3.402 13.8a.75.75 0 0 1 1.05-.147c.54.408 1.24.69 1.963.833a.75.75 0 0 1-.29 1.472c-.895-.177-1.817-.536-2.576-1.108a.75.75 0 0 1-.147-1.05ZM.537 8.782a.75.75 0 0 1 .932.506c.221.745.528 1.425.91 2.122a.751.751 0 0 1-1.316.721A12.16 12.16 0 0 1 .032 9.713a.75.75 0 0 1 .505-.931ZM7.75 3a.75.75 0 0 1 .75.75v3.866l2.703 2.039a.75.75 0 0 1-.905 1.197l-3-2.264A.75.75 0 0 1 7 7.991V3.75A.75.75 0 0 1 7.75 3Zm-6.687.64a.75.75 0 0 1 1.315.72 10.67 10.67 0 0 0-.909 2.123.75.75 0 0 1-1.437-.427c.259-.874.613-1.654 1.03-2.417ZM6.125.014a.75.75 0 1 1 .29 1.47c-.718.143-1.421.434-1.97.839a.75.75 0 1 1-.89-1.207C4.307.562 5.224.193 6.125.015Z"/></svg>