<svg xmlns="http://www.w3.org/2000/svg" fill="currentColor" viewBox="0 0 16 16"><path d="M8 6a3 3 0 0 1 3 3c0 .879-.38 1.666-.983 2.215 1.233.672 1.983 2 1.983 3.485v.55a.75.75 0 0 1-.75.75h-6.5a.75.75 0 0 1-.75-.75v-.55c0-1.485.749-2.813 1.981-3.485A2.989 2.989 0 0 1 5 9a3 3 0 0 1 3-3Zm0 6.25c-1.521 0-2.404.957-2.491 2.25h4.982c-.088-1.293-.95-2.25-2.491-2.25ZM8 7.5a1.5 1.5 0 1 0 0 3 1.5 1.5 0 0 0 0-3Zm-5.996.3c.957 0 1.575.431 1.917 1.114A.758.758 0 0 1 3.25 10H.75a.758.758 0 0 1-.671-1.086C.42 8.231 1.059 7.8 2.004 7.8Zm11.991 0c.943 0 1.584.431 1.926 1.114A.758.758 0 0 1 15.25 10h-2.5a.757.757 0 0 1-.677-1.072c.328-.689.997-1.128 1.922-1.128ZM2 5a1 1 0 1 1 0 2 1 1 0 0 1 0-2Zm12 0a1 1 0 1 1 0 2 1 1 0 0 1 0-2ZM8 2.8c.98 0 1.526.446 1.894 1.066C10.186 4.357 9.822 5 9.25 5h-2.5c-.571 0-.937-.644-.645-1.135C6.5 3.205 7.061 2.8 8 2.8ZM4.056 1.025a.75.75 0 0 1 .388 1.45c-.576.154-1.219.591-1.546 1.153a.751.751 0 0 1-1.297-.756c.553-.949 1.55-1.604 2.455-1.847Zm6.97.53a.75.75 0 0 1 .918-.53c.904.243 1.901.898 2.454 1.847a.751.751 0 0 1-1.297.756c-.327-.562-.97-.999-1.546-1.153a.75.75 0 0 1-.53-.92ZM8 0a1 1 0 1 1 0 2 1 1 0 0 1 0-2Z"/></svg>