<svg xmlns="http://www.w3.org/2000/svg" fill="currentColor" viewBox="0 0 16 16"><path d="M11.25 0a.75.75 0 0 1 .75.75V2c1.583 0 3 1.058 3 2.75v.5a.75.75 0 0 1-1.5 0v-.5c0-.868-.741-1.25-1.5-1.25v.75a.75.75 0 0 1-1.5 0V3.5h-5v.75a.75.75 0 0 1-1.5 0V3.5c-.759 0-1.5.382-1.5 1.25V6h5.75a.75.75 0 0 1 0 1.5H2.5v5.75c0 .69.56 1.25 1.25 1.25h3a.75.75 0 0 1 0 1.5h-3A2.75 2.75 0 0 1 1 13.25v-8.5C1 3.058 2.417 2 4 2V.75a.75.75 0 0 1 1.5 0V2h5V.75a.75.75 0 0 1 .75-.75Zm1.5 6.5a.75.75 0 0 1 .75.75V8h.75a.75.75 0 0 1 0 1.5h-2.317c-.25 0-.433.269-.433.5 0 .243.194.5.45.5h.9c.638 0 1.188.215 1.58.607.78.782.757 2.05-.014 2.801-.25.244-.562.415-.916.509v.833a.75.75 0 0 1-1.5 0v-.75h-1.25a.75.75 0 0 1 0-1.5h2.1c.312 0 .65-.137.65-.495 0-.362-.33-.505-.65-.505h-.9C10.79 12 10 10.994 10 10c0-1.106.848-2 2-2v-.75a.75.75 0 0 1 .75-.75Z"/></svg>