<svg xmlns="http://www.w3.org/2000/svg" fill="currentColor" viewBox="0 0 16 16"><path d="M8 0a8 8 0 1 1 0 16A8 8 0 0 1 8 0Zm0 1.5a6.5 6.5 0 1 0 0 13 6.5 6.5 0 0 0 0-13Zm0 10A.75.75 0 1 1 8 13a.75.75 0 0 1 0-1.5Zm-3-1.25a.75.75 0 1 1 0 1.5.75.75 0 0 1 0-1.5Zm6 0a.75.75 0 1 1 0 1.5.75.75 0 0 1 0-1.5Zm-.28-6.03a.75.75 0 1 1 1.06 1.06L9.447 7.612a1.5 1.5 0 1 1-1.06-1.06L10.72 4.22ZM3.75 7.25a.75.75 0 1 1 0 1.5.75.75 0 0 1 0-1.5Zm8.5 0a.75.75 0 1 1 0 1.5.75.75 0 0 1 0-1.5Zm-7.5-3a.75.75 0 1 1 0 1.5.75.75 0 0 1 0-1.5ZM8 3a.75.75 0 1 1 0 1.5A.75.75 0 0 1 8 3Z"/></svg>