<svg xmlns="http://www.w3.org/2000/svg" fill="currentColor" viewBox="0 0 16 16"><path d="M11.25 0C12.216 0 13 .784 13 1.75v3.5a.75.75 0 0 1-1.5 0v-3.5a.25.25 0 0 0-.25-.25H6.71a.25.25 0 0 0-.19.087L6 2.193V5.25a.75.75 0 0 1-.75.75H2.738l-.238.37v7.88c0 .138.112.25.25.25h2.5a.75.75 0 0 1 0 1.5h-2.5A1.75 1.75 0 0 1 1 14.25V6.37c0-.417.15-.821.42-1.139L5.38.611A1.751 1.751 0 0 1 6.71 0h4.54Zm2.604 8.25c1.028 0 1.906.744 2.075 1.758l.061.369a.75.75 0 0 1-1.48.246l-.062-.37a.603.603 0 0 0-1.198.1V11a.75.75 0 0 1 .75.75v3.5a.75.75 0 0 1-.75.75h-4.5a.75.75 0 0 1-.75-.75v-3.5a.75.75 0 0 1 .75-.75h3v-.646c0-1.162.942-2.104 2.104-2.104ZM9.5 14.5h3v-2h-3v2Z"/></svg>