<svg xmlns="http://www.w3.org/2000/svg" fill="currentColor" viewBox="0 0 16 16"><path d="M12.25 1A2.75 2.75 0 0 1 15 3.75v.5a.75.75 0 0 1-1.5 0v-.5c0-.69-.56-1.25-1.25-1.25h-8.5c-.69 0-1.25.56-1.25 1.25v8.5c0 .69.56 1.25 1.25 1.25h.5a.75.75 0 0 1 0 1.5h-.5A2.75 2.75 0 0 1 1 12.25v-8.5A2.75 2.75 0 0 1 3.75 1h8.5Zm-1.5 4.5a2.75 2.75 0 0 1 2.75 2.75 2.74 2.74 0 0 1-.776 1.911c1.333.629 2.276 1.92 2.276 3.464v.625a.75.75 0 0 1-.75.75h-7a.75.75 0 0 1-.75-.75v-.625c0-1.544.943-2.835 2.275-3.464A2.75 2.75 0 0 1 10.75 5.5Zm0 5.75c-1.627 0-2.672 1.043-2.743 2.25h5.486c-.071-1.207-1.165-2.25-2.743-2.25Zm0-4.25a1.25 1.25 0 1 0 0 2.5 1.25 1.25 0 0 0 0-2.5Z"/></svg>