<svg xmlns="http://www.w3.org/2000/svg" fill="currentColor" viewBox="0 0 16 16"><path d="M12.25 0a.75.75 0 0 1 .75.75v2.5a.75.75 0 0 1-.75.75h-.875v.27c0 .577.22 1.124.614 1.538 0 0 .14.147.332.313A4.682 4.682 0 0 1 14 9.71v3.54c0 1.521-1.252 2.75-2.77 2.75H4.77C3.252 16 2 14.771 2 13.25V9.71C2 8.319 2.61 7 3.82 5.979a2.23 2.23 0 0 0 .795-1.71V4H3.75A.75.75 0 0 1 3 3.25V.75A.75.75 0 0 1 3.75 0h8.5ZM6.115 4.27c0 1.1-.48 2.14-1.325 2.852-.87.738-1.29 1.64-1.29 2.588v3.54c0 .679.566 1.25 1.27 1.25h6.46c.704 0 1.27-.571 1.27-1.25V9.71c0-.93-.32-1.746-1.105-2.43a6.874 6.874 0 0 1-.563-.573c-.246-.281-.957-1.338-.957-2.437V4h-3.76v.27ZM8 7a.75.75 0 0 1 .75.75v1.5h1.5a.75.75 0 0 1 0 1.5h-1.5v1.5a.75.75 0 0 1-1.5 0v-1.5h-1.5a.75.75 0 0 1 0-1.5h1.5v-1.5A.75.75 0 0 1 8 7ZM4.5 2.5h7v-1h-7v1Z"/></svg>