<svg xmlns="http://www.w3.org/2000/svg" fill="currentColor" viewBox="0 0 16 16"><path d="M14.72 10.22c.463-.463 1.28-.125 1.28.53v4.5a.75.75 0 0 1-.75.75h-4.5c-.655 0-.993-.817-.53-1.28l4.5-4.5Zm-1-4a.75.75 0 1 1 1.06 1.06l-7.5 7.5a.75.75 0 1 1-1.06-1.06l7.5-7.5Zm-1.16 8.28h1.94v-1.94l-1.94 1.94ZM5 8a.75.75 0 0 1 .75.75v.5a.75.75 0 0 1-1.5 0v-.5A.75.75 0 0 1 5 8Zm-3.353-.707a.75.75 0 1 1 1.061 1.06l-.354.354a.75.75 0 1 1-1.06-1.06l.353-.354Zm5.645 0a.75.75 0 0 1 1.06 0l.354.353a.75.75 0 1 1-1.06 1.061l-.354-.353a.75.75 0 0 1 0-1.061ZM5 2.5a2.5 2.5 0 1 1 0 5 2.5 2.5 0 0 1 0-5ZM5 4a1 1 0 1 0 0 2 1 1 0 0 0 0-2Zm-3.75.25a.75.75 0 0 1 0 1.5h-.5a.75.75 0 0 1 0-1.5h.5Zm8 0a.75.75 0 0 1 0 1.5h-.5a.75.75 0 0 1 0-1.5h.5ZM1.294 1.293a.75.75 0 0 1 1.06 0l.354.353a.75.75 0 1 1-1.06 1.061l-.354-.353a.75.75 0 0 1 0-1.061Zm6.352 0a.75.75 0 1 1 1.06 1.06l-.353.354a.75.75 0 1 1-1.061-1.06l.354-.354ZM5 0a.75.75 0 0 1 .75.75v.5a.75.75 0 0 1-1.5 0v-.5A.75.75 0 0 1 5 0Z"/></svg>