<svg xmlns="http://www.w3.org/2000/svg" fill="currentColor" viewBox="0 0 16 16"><path d="M8.715 4.006c.241-.03.5.01.647.238.336.523.641 1.041 1.08 1.491.653.67 1.582 1.284 2.809 1.284a.75.75 0 0 1 0 1.5c-1.915 0-3.26-1.04-4.07-1.94l-.362 1.668 1.944 2.032c.133.14.208.326.208.519v4.452a.75.75 0 0 1-1.5 0v-4.151L8.264 9.836 7.192 12.5a.75.75 0 0 1-.89.444l-3.747-1.01a.75.75 0 1 1 .39-1.448l3.103.836 1.227-3.045.576-2.653-2.331.291v1.863a.751.751 0 0 1-1.5 0V5.255a.75.75 0 0 1 .656-.744l4.04-.505ZM9.5 0a1.5 1.5 0 1 1 0 3 1.5 1.5 0 0 1 0-3Z"/></svg>