<svg xmlns="http://www.w3.org/2000/svg" fill="currentColor" viewBox="0 0 16 16"><path d="M12.126 12c1.017 0 1.543.65 1.854 1.01.23.27.547.633.937.44a.75.75 0 0 1 .666 1.343c-.243.12-.538.207-.888.207-1.016 0-1.541-.65-1.852-1.01-.334-.39-.454-.49-.717-.49-.262 0-.382.101-.716.49-.31.36-.837 1.01-1.853 1.01-1.018 0-1.542-.65-1.85-1.012-.331-.386-.451-.488-.72-.488-.267 0-.384.1-.714.486C5.963 14.35 5.44 15 4.418 15c-1.021 0-1.546-.648-1.858-1.012-.334-.389-.375-.5-.711-.488-.272.01-.598.354-.598.354a.75.75 0 0 1-1.057-1.061C.53 12.424 1.018 12 1.85 12c1.018 0 1.541.65 1.85 1.012.33.386.45.488.719.488.267 0 .385-.1.714-.486.31-.364.833-1.014 1.855-1.014 1.021 0 1.547.648 1.859 1.012.333.389.45.488.71.488.263 0 .383-.1.717-.49.31-.36.836-1.01 1.853-1.01Zm.003-3c1.018 0 1.54.652 1.85 1.013.238.278.556.634.955.428a.75.75 0 1 1 .633 1.36 2.005 2.005 0 0 1-.87.199c-1.022 0-1.546-.649-1.858-1.013-.333-.389-.45-.487-.71-.487-.262 0-.382.1-.716.49-.31.36-.836 1.01-1.852 1.01-1.017 0-1.542-.65-1.853-1.01-.334-.39-.453-.49-.715-.49-.26 0-.377.098-.71.487C5.972 11.351 5.447 12 4.426 12c-1.02 0-1.547-.648-1.859-1.01-.332-.388-.451-.49-.72-.49-.267 0-.596.354-.596.354A.75.75 0 0 1 .194 9.793C.528 9.424 1.017 9 1.848 9c1.02 0 1.545.648 1.857 1.01.333.388.453.49.72.49.268 0 .389-.102.719-.487C5.452 9.652 5.975 9 6.994 9c1.016 0 1.541.65 1.852 1.01.334.39.453.49.715.49.262 0 .38-.1.714-.49.311-.36.837-1.01 1.854-1.01Zm-7.84-8c1.287 0 2.526.518 3.429 1.436l3.063 3.093a.75.75 0 0 1 .013 1.046L9.634 7.78a.751.751 0 0 1-1.013.046 1.054 1.054 0 0 0-1.344 0 .751.751 0 0 1-1.017-.052L5.183 6.59a.75.75 0 0 1 .021-1.005l1.714-1.822C6.196 3.027 5.36 2.5 4.288 2.5H3.75a.75.75 0 0 1 0-1.5h.538ZM11.5 1a1.5 1.5 0 1 1 0 3 1.5 1.5 0 0 1 0-3Z"/></svg>