<svg xmlns="http://www.w3.org/2000/svg" fill="currentColor" viewBox="0 0 16 16"><path d="M4.25 1a.75.75 0 1 1 0 1.499h-2.5a.25.25 0 0 0-.25.25v8.496c0 .138.112.25.25.25h12.5a.25.25 0 0 0 .25-.25v-2.5a.75.75 0 0 1 1.5 0v2.5a1.75 1.75 0 0 1-1.75 1.749H9v1.502l3.249-.003a.75.75 0 0 1 .002 1.5l-8.5.007a.75.75 0 1 1-.002-1.5L7 14.498v-1.503H1.75A1.75 1.75 0 0 1 0 11.244V2.75A1.75 1.75 0 0 1 1.75.999h2.5Zm10.5-1C15.44 0 16 .56 16 1.25v4.497c0 .69-.56 1.25-1.25 1.25h-6.5c-.69 0-1.25-.56-1.25-1.25V1.25C7 .56 7.56 0 8.25 0h6.5ZM8.5 5.497h6V1.5h-6v3.998Z"/></svg>