<svg xmlns="http://www.w3.org/2000/svg" fill="currentColor" viewBox="0 0 16 16"><path d="M7.128.003a.75.75 0 0 1 .134 1.494C3.955 1.793 1.5 4.56 1.5 8A6.47 6.47 0 0 0 8 14.5c3.44 0 6.207-2.454 6.503-5.762a.75.75 0 0 1 1.494.134C15.628 12.996 12.172 16 8 16a7.97 7.97 0 0 1-8-8C0 3.828 3.004.372 7.128.003ZM7.75 3a.75.75 0 0 1 .75.75v3.866l2.702 2.04a.75.75 0 0 1-.904 1.197l-3-2.264A.75.75 0 0 1 7 7.99V3.75A.75.75 0 0 1 7.75 3ZM13.469.3l.628 1.36 1.46.208c.406.058.584.57.3.867l-1.063 1.116.267 1.546a.52.52 0 0 1-.761.538L13 5.206l-1.3.729a.521.521 0 0 1-.761-.538l.265-1.546-1.062-1.116a.521.521 0 0 1 .3-.867l1.46-.208.665-1.426A.521.521 0 0 1 13.47.3Z"/></svg>