<svg xmlns="http://www.w3.org/2000/svg" fill="currentColor" viewBox="0 0 16 16"><path d="M13 8a2 2 0 0 1 2 2v1h.25a.75.75 0 0 1 .75.75v3.5a.75.75 0 0 1-.75.75h-4.5a.75.75 0 0 1-.75-.75v-3.5a.75.75 0 0 1 .75-.75H11v-1a2 2 0 0 1 2-2Zm-1.5 6.5h3v-2h-3v2ZM6 0a4 4 0 0 1 2.566 7.066c.398.169.77.357 1.076.544a.75.75 0 0 1-.784 1.28C7.983 8.355 7.297 8 6 8c-2.672 0-4.5 1.758-4.5 4.25v.25h5.75a.75.75 0 0 1 0 1.5H.75a.75.75 0 0 1-.75-.75v-1c0-2.323 1.39-4.319 3.383-5.227A4 4 0 0 1 6 0Zm7 9.5a.5.5 0 0 0-.5.5v1h1v-1a.5.5 0 0 0-.5-.5Zm-7-8a2.5 2.5 0 1 0 0 5 2.5 2.5 0 0 0 0-5Z"/></svg>