<svg xmlns="http://www.w3.org/2000/svg" fill="currentColor" viewBox="0 0 16 16"><path d="M7.1.375A.75.75 0 0 1 8.126.1l6.5 3.75A.75.75 0 0 1 15 4.5v7a.75.75 0 0 1-.364.643l-6.25 3.75a.75.75 0 0 1-.772 0l-6.25-3.75A.75.75 0 0 1 1 11.5V5a.75.75 0 0 1 .323-.616l3.345-2.307a.75.75 0 0 1 .727.035l5.25 3.25A.75.75 0 0 1 11 6v3.5a.75.75 0 0 1-1.5 0V6.417L5.022 3.645 2.5 5.392v5.682L8 14.375l5.5-3.3V4.932L7.375 1.399A.75.75 0 0 1 7.101.375Zm-3.005 8.51a.75.75 0 0 1 1.02-.29l2.25 1.25a.75.75 0 1 1-.73 1.31l-2.25-1.25a.75.75 0 0 1-.29-1.02Z"/></svg>