<svg xmlns="http://www.w3.org/2000/svg" fill="currentColor" viewBox="0 0 16 16"><path d="m5.17.407 2.372 4.745a.749.749 0 0 1 1.129.258L9 6.068l1.83-3.66c.27-.543 1.07-.543 1.34 0l3.751 7.504a.758.758 0 0 1-.67 1.086h-3.787l1.457 2.916A.758.758 0 0 1 12.25 15h-8.5a.758.758 0 0 1-.67-1.086l2.456-4.917H.75A.758.758 0 0 1 .08 7.91L3.83.407c.27-.543 1.07-.543 1.34 0Zm-.206 13.085h6.072L8 7.422l-3.036 6.07Zm4.874-5.746.876 1.746h3.322L11.5 4.42 9.838 7.746Zm-7.874-.25h4.322l.376-.753L4.5 2.42 1.964 7.496Z"/></svg>