<svg xmlns="http://www.w3.org/2000/svg" fill="currentColor" viewBox="0 0 16 16"><path d="M5.25 12.5a.75.75 0 0 1 0 1.5h-2.5a.75.75 0 0 1 0-1.5h2.5Zm7 0a.75.75 0 0 1 0 1.5h-2.5a.75.75 0 0 1 0-1.5h2.5Zm1-10.5A2.75 2.75 0 0 1 16 4.75v4.5A2.75 2.75 0 0 1 13.25 12H2.75A2.75 2.75 0 0 1 0 9.25v-4.5A2.75 2.75 0 0 1 2.75 2h10.5ZM2.75 3.5c-.69 0-1.25.56-1.25 1.25v4.5c0 .69.56 1.25 1.25 1.25h10.5c.69 0 1.25-.56 1.25-1.25v-4.5c0-.69-.56-1.25-1.25-1.25H2.75ZM11 4.75a2.25 2.25 0 1 1 0 4.5 2.25 2.25 0 0 1 0-4.5ZM3.75 5a.75.75 0 0 1 .75.75v2.5a.75.75 0 0 1-1.5 0v-2.5A.75.75 0 0 1 3.75 5Zm2 0a.75.75 0 0 1 .75.75v2.5a.75.75 0 0 1-1.5 0v-2.5A.75.75 0 0 1 5.75 5ZM11 6.25a.75.75 0 1 0 0 1.5.75.75 0 0 0 0-1.5Z"/></svg>