<svg xmlns="http://www.w3.org/2000/svg" fill="currentColor" viewBox="0 0 16 16"><path d="M12 8a.75.75 0 0 1 .75.75v.348c.426.11.816.308 1.146.578l.43-.294a.75.75 0 0 1 .849 1.236l-.39.268c.156.392.234.834.21 1.277l.437.11a.75.75 0 1 1-.364 1.454l-.53-.132a3.032 3.032 0 0 1-.717.785l.303.454a.75.75 0 1 1-1.248.832l-.464-.695a3.08 3.08 0 0 1-.825 0l-.463.695a.75.75 0 1 1-1.248-.832l.302-.454a3.011 3.011 0 0 1-.716-.785l-.53.132a.75.75 0 0 1-.364-1.454l.436-.11s-.052-.724.214-1.283l-.384-.256a.75.75 0 0 1 .832-1.248l.442.295c.33-.268.718-.464 1.142-.573V8.75A.75.75 0 0 1 12 8Zm-.75-8A2.75 2.75 0 0 1 14 2.75v2.5a.75.75 0 0 1-.75.75H5.5v7.25a.75.75 0 0 1-.75.75h-2A2.75 2.75 0 0 1 0 11.25v-8.5A2.75 2.75 0 0 1 2.75 0h8.5ZM12 10.5a1.5 1.5 0 1 0 0 3 1.5 1.5 0 0 0 0-3Zm-10.5.75c0 .69.56 1.25 1.25 1.25H4V10H1.5v1.25Zm0-2.75H4V6H1.5v2.5Zm1.25-7c-.69 0-1.25.56-1.25 1.25V4.5H4v-3H2.75Zm2.75 3h3v-3h-3v3Zm4.5 0h2.5V2.75c0-.69-.56-1.25-1.25-1.25H10v3Z"/></svg>