<svg xmlns="http://www.w3.org/2000/svg" fill="currentColor" viewBox="0 0 16 16"><path d="M6.327 9.004A.75.75 0 0 1 7 9.75v5.5a.75.75 0 0 1-.75.75H.75a.75.75 0 0 1-.75-.75l.004-5.577A.75.75 0 0 1 .75 9l5.577.004ZM8.75 13a.75.75 0 0 1 .75.75v.75h2.75a.75.75 0 0 1 0 1.5h-3.5a.75.75 0 0 1-.75-.75v-1.5a.75.75 0 0 1 .75-.75Zm6.55 1a.7.7 0 0 1 .7.7v.6a.7.7 0 0 1-.7.7h-.6a.7.7 0 0 1-.7-.7v-.6a.7.7 0 0 1 .7-.7h.6Zm-13.8.5h4v-4h-4v4Zm2.3-3a.7.7 0 0 1 .7.7v.6a.7.7 0 0 1-.7.7h-.6a.7.7 0 0 1-.7-.7v-.6a.7.7 0 0 1 .7-.7h.6Zm7.5-.5a.7.7 0 0 1 .7.7v.6a.7.7 0 0 1-.7.7h-.6a.7.7 0 0 1-.7-.7v-.6a.7.7 0 0 1 .7-.7h.6Zm2.2-3a.75.75 0 0 1 .75.75v1.75h1a.75.75 0 0 1 0 1.5H13.5a.75.75 0 0 1-.75-.75V9.5h-2a.75.75 0 0 1 0-1.5h2.75ZM6.327.004A.75.75 0 0 1 7 .75v5.5a.75.75 0 0 1-.75.75H.75A.75.75 0 0 1 0 6.25L.004.673A.75.75 0 0 1 .75 0l5.577.004Zm9 0A.75.75 0 0 1 16 .75v5.5a.75.75 0 0 1-.75.75h-5.5A.75.75 0 0 1 9 6.25L9.004.673A.75.75 0 0 1 9.75 0l5.577.004ZM1.5 5.5h4v-4h-4v4Zm9 0h4v-4h-4v4Zm-6.7-3a.7.7 0 0 1 .7.7v.6a.7.7 0 0 1-.7.7h-.6a.7.7 0 0 1-.7-.7v-.6a.7.7 0 0 1 .7-.7h.6Zm9 0a.7.7 0 0 1 .7.7v.6a.7.7 0 0 1-.7.7h-.6a.7.7 0 0 1-.7-.7v-.6a.7.7 0 0 1 .7-.7h.6Z"/></svg>