<svg xmlns="http://www.w3.org/2000/svg" fill="currentColor" viewBox="0 0 16 16"><path d="M1.752 15.003c-1.357 0-2.197-1.478-1.504-2.644L6.492 1.856A1.75 1.75 0 0 1 9.5 1.855l.601 1.008a.75.75 0 0 1-1.29.768l-.6-1.01a.251.251 0 0 0-.43 0L1.537 13.125a.25.25 0 0 0 .215.378h12.494a.25.25 0 0 0 .214-.378l-.593-.993a.75.75 0 0 1 1.287-.77l.595.997c.694 1.166-.146 2.644-1.504 2.644H1.752Zm9.993-9.51a.75.75 0 0 1 0-1.5h3.5a.75.75 0 1 1 0 1.5h-3.5Zm-3.75 3.5a.75.75 0 0 1-.75-.75v-2.5a.75.75 0 0 1 1.5 0v2.5a.75.75 0 0 1-.75.75Zm3.75-1.5a.75.75 0 0 1 0-1.5h3.5a.75.75 0 1 1 0 1.5h-3.5Zm0 2a.75.75 0 0 1 0-1.5h3.5a.75.75 0 1 1 0 1.5h-3.5Zm-3.75 2.5a1 1 0 1 1 0-2 1 1 0 0 1 0 2Z"/></svg>