<svg xmlns="http://www.w3.org/2000/svg" fill="currentColor" viewBox="0 0 16 16"><path d="M7.691.066a.75.75 0 0 1 .713.052l6.25 4A.75.75 0 0 1 15 4.75v6.5a.75.75 0 0 1-.346.632l-6.25 4a.75.75 0 0 1-.808 0l-6.25-4A.75.75 0 0 1 1 11.25v-6.5a.75.75 0 0 1 .346-.632L7.69.066ZM2.5 5.16v5.679l5.5 3.52 5.5-3.52V5.16L8 1.64 2.5 5.16Zm8-1.16a1.5 1.5 0 0 1 .632 2.858l-1.37 3.833a1.5 1.5 0 1 1-2.76.872L4.437 8.996A1.498 1.498 0 0 1 4.5 6a1.5 1.5 0 0 1 .808.236L9.14 4.867A1.5 1.5 0 0 1 10.5 4ZM5.995 7.582c-.013.24-.08.464-.192.66l1.954 1.954c.196-.112.42-.179.659-.192l1.182-3.308a1.506 1.506 0 0 1-.295-.295L5.995 7.582Z"/></svg>