<svg xmlns="http://www.w3.org/2000/svg" fill="currentColor" viewBox="0 0 16 16"><path d="M5.25 0c.199 0 .39.08.53.22l.92.919.78-.93A.75.75 0 0 1 8 0h2.75a.75.75 0 0 1 .576.27l1.026 1.23h.898a.75.75 0 0 1 .75.75v13a.75.75 0 0 1-.75.75h-2.5a.75.75 0 0 1-.53-.22l-.854-.853-.492.739A.75.75 0 0 1 8.25 16h-3a.75.75 0 0 1-.67-.415L4.035 14.5H2.75a.75.75 0 0 1-.75-.75v-13A.75.75 0 0 1 2.75 0h2.5ZM3.5 13l1.105.008a.75.75 0 0 1 .566.407l.543 1.085h2.135l.827-1.233a.759.759 0 0 1 1.104-.047l1.28 1.28h1.44V3H12a.75.75 0 0 1-.576-.27L10.398 1.5H8.352L7.326 2.73a.758.758 0 0 1-1.106.05L4.94 1.5H3.5V13Zm6.5-3a1 1 0 1 1 0 2 1 1 0 0 1 0-2Zm-2.75.25a.75.75 0 0 1 0 1.5h-1.5a.75.75 0 0 1 0-1.5h1.5ZM10 7a1 1 0 1 1 0 2 1 1 0 0 1 0-2Zm-2.75.25a.75.75 0 0 1 0 1.5h-1.5a.75.75 0 0 1 0-1.5h1.5ZM10 4a1 1 0 1 1 0 2 1 1 0 0 1 0-2Zm-2.75.25a.75.75 0 0 1 0 1.5h-1.5a.75.75 0 0 1 0-1.5h1.5Z"/></svg>