<svg xmlns="http://www.w3.org/2000/svg" fill="currentColor" viewBox="0 0 16 16"><path d="M10.25 0C11.216 0 12 .784 12 1.75v.5a.75.75 0 0 1-1.5 0v-.5a.25.25 0 0 0-.25-.25H5.71a.25.25 0 0 0-.19.087L5 2.193V5.25a.75.75 0 0 1-.75.75H1.738c-.089.104-.238.37-.238.37v7.88c0 .138.112.25.25.25h.5a.75.75 0 0 1 0 1.5h-.5A1.75 1.75 0 0 1 0 14.25V6.37c0-.417.15-.821.42-1.139L4.38.611A1.751 1.751 0 0 1 5.71 0h4.54Zm.565 7.543a.75.75 0 0 1 1.003.05l1.586 1.585c.29.289.29.77.001 1.06L7.867 15.78a.75.75 0 0 1-.53.22H5.75a.75.75 0 0 1-.75-.75v-1.583c0-.199.08-.39.22-.53l5.595-5.594ZM6.5 13.977v.523h.526l4.787-4.792-.525-.523L6.5 13.977ZM5.25 10a.75.75 0 0 1 0 1.5h-1.5a.75.75 0 0 1 0-1.5h1.5Zm8.287-5a.72.72 0 0 1 .531.219l1.586 1.584a.75.75 0 0 1 .002 1.06l-.788.791a.75.75 0 0 1-1.061.002L12.22 7.072a.75.75 0 0 1-.002-1.06l.855-.828A.613.613 0 0 1 13.537 5ZM7.25 7a.75.75 0 0 1 0 1.5H3.74a.75.75 0 0 1 0-1.5h3.51Z"/></svg>