<svg xmlns="http://www.w3.org/2000/svg" fill="currentColor" viewBox="0 0 16 16"><path d="M3.72.22a.75.75 0 0 1 1.06 1.06L3.56 2.5h4.641C11.946 2.5 15 5.52 15 9.25S11.946 16 8.201 16C4.52 16 1 13.04 1 9.25a.75.75 0 1 1 1.5 0c0 2.83 2.71 5.25 5.701 5.25 2.928 0 5.299-2.36 5.299-5.25S11.13 4 8.201 4h-4.64l1.22 1.22A.75.75 0 1 1 3.72 6.28l-2.5-2.5a.75.75 0 0 1 0-1.06l2.5-2.5Zm5.5 6.75a.75.75 0 1 1 1.06 1.06L9.06 9.25l1.22 1.22a.75.75 0 1 1-1.06 1.06L8 10.31l-1.22 1.22a.75.75 0 0 1-1.06-1.06l1.22-1.22-1.22-1.22a.75.75 0 1 1 1.06-1.06L8 8.19l1.22-1.22Z"/></svg>