<svg xmlns="http://www.w3.org/2000/svg" fill="currentColor" viewBox="0 0 16 16"><path d="M8.25 1a.75.75 0 1 1 0 1.499h-6.5a.25.25 0 0 0-.25.25v8.496c0 .138.112.25.25.25h12.5a.25.25 0 0 0 .25-.25v-.5a.75.75 0 0 1 1.5 0v.5a1.75 1.75 0 0 1-1.75 1.749H9v1.502l3.249-.003a.75.75 0 0 1 .002 1.5l-8.5.007a.75.75 0 1 1-.002-1.5L7 14.498v-1.503H1.75A1.75 1.75 0 0 1 0 11.244V2.75A1.75 1.75 0 0 1 1.75.999h6.5Zm6.5-1C15.44 0 16 .56 16 1.25v5.996c0 .69-.56 1.25-1.25 1.25h-3c-.69 0-1.25-.56-1.25-1.25V1.25c0-.69.56-1.25 1.25-1.25h3ZM12 6.997h2.5V1.499H12v5.498Z"/></svg>