<svg xmlns="http://www.w3.org/2000/svg" fill="currentColor" viewBox="0 0 16 16"><path d="M9.249 0a2.75 2.75 0 0 1 2.75 2.75V4C13.77 4 15 5.231 15 6.75v6.5A2.75 2.75 0 0 1 12.25 16h-8.5A2.75 2.75 0 0 1 1 13.25v-6.5C1 5.231 2.23 4 3.999 4V2.75A2.75 2.75 0 0 1 6.749 0h2.5ZM3.75 5.5c-.69 0-1.25.56-1.25 1.25v6.5c0 .69.56 1.25 1.25 1.25h8.5c.69 0 1.25-.56 1.25-1.25v-6.5c0-.69-.56-1.25-1.25-1.25h-8.5Zm1.5 4.5a.75.75 0 0 1 .75.75v1.5a.75.75 0 0 1-1.5 0v-1.5a.75.75 0 0 1 .75-.75Zm2.749-2a.75.75 0 0 1 .75.75v3.5a.75.75 0 0 1-1.5 0v-3.5a.75.75 0 0 1 .75-.75Zm2.751-1a.75.75 0 0 1 .75.75v4.5a.75.75 0 0 1-1.5 0v-4.5a.75.75 0 0 1 .75-.75ZM6.749 1.5c-.69 0-1.25.56-1.25 1.25V4h5V2.75c0-.69-.56-1.25-1.25-1.25h-2.5Z"/></svg>