<svg xmlns="http://www.w3.org/2000/svg" fill="currentColor" viewBox="0 0 16 16"><path d="M12.842 3.01a1.75 1.75 0 0 1 1.656 1.184L15.9 8.316c.213.64.098 1.331-.41 1.845s-.99.715-1.479.802v4.287a.75.75 0 0 1-1.5 0v-4.464c-.282-.122-.59-.263-.808-.546-.42.46-1.09.722-1.695.757v4.253a.75.75 0 0 1-.75.75H2.751a.75.75 0 0 1-.75-.75v-4.287c-.498-.088-1.083-.318-1.513-.791-.43-.473-.608-1.198-.4-1.82v-.004l1.423-4.162A1.752 1.752 0 0 1 3.172 3l9.67.009Zm-4.837 7.23c-1.012.982-2.723 1.033-3.698 0-.233.26-.524.424-.804.546V14.5h5.004v-3.871c-.167-.1-.356-.215-.502-.389ZM3.17 4.501a.25.25 0 0 0-.236.169L1.512 8.826v.001c-.046.13.024.29.122.403.393.456 1.169.377 1.597-.036 0 0 .38-.389.633-.621.253-.232.671-.182.89.04.219.223.324.328.711.653.387.324 1.06.317 1.463-.072l.552-.54a.752.752 0 0 1 1.051 0l.551.54c.43.415 1.117.415 1.547-.002l.548-.538a.752.752 0 0 1 1.052 0l.55.54a1.15 1.15 0 0 0 1.588-.003c.098-.09.169-.242.131-.353l-1.421-4.16a.25.25 0 0 0-.236-.168L3.168 4.5ZM13.261 0a.75.75 0 1 1 0 1.5H2.75a.75.75 0 0 1 0-1.5h10.51Z"/></svg>