<svg xmlns="http://www.w3.org/2000/svg" fill="currentColor" viewBox="0 0 16 16"><path d="M13.854 8.25c1.028 0 1.906.744 2.075 1.758l.061.369a.75.75 0 0 1-1.48.246l-.062-.37a.603.603 0 0 0-1.198.1V11a.75.75 0 0 1 .75.75v3.5a.75.75 0 0 1-.75.75h-4.5a.75.75 0 0 1-.75-.75v-3.5a.75.75 0 0 1 .75-.75h3v-.646c0-1.162.942-2.104 2.104-2.104ZM9.5 14.5h3v-2h-3v2ZM6 0a4 4 0 0 1 2.586 7.049c.4.172.768.37 1.078.575a.751.751 0 0 1-.828 1.252A5.177 5.177 0 0 0 6 8c-2.725 0-4.5 1.758-4.5 4.25v.25h3.75a.75.75 0 0 1 0 1.5H.75a.75.75 0 0 1-.75-.75v-1c0-2.323 1.39-4.319 3.383-5.227A4 4 0 0 1 6 0Zm0 1.5a2.5 2.5 0 1 0 0 5 2.5 2.5 0 0 0 0-5Z"/></svg>