<svg xmlns="http://www.w3.org/2000/svg" fill="currentColor" viewBox="0 0 16 16"><path d="M14.25 6c.966 0 1.75.783 1.75 1.75v6.5A1.75 1.75 0 0 1 14.25 16h-6.5A1.75 1.75 0 0 1 6 14.25v-6.5C6 6.783 6.784 6 7.75 6h6.5Zm-6.5 1.5a.25.25 0 0 0-.25.25v6.5c0 .138.112.25.25.25h6.5a.25.25 0 0 0 .25-.25v-6.5a.25.25 0 0 0-.25-.25h-6.5ZM3.987.22a.75.75 0 0 1 1.06 0l1.768 1.767a.75.75 0 0 1 0 1.06L5.048 4.816a.75.75 0 1 1-1.06-1.06l.473-.474H2.75c-.69 0-1.25.56-1.25 1.25v2.722a.75.75 0 0 1-1.5 0V4.53a2.75 2.75 0 0 1 2.75-2.75h1.738l-.5-.5a.75.75 0 0 1 0-1.061Z"/></svg>