<svg xmlns="http://www.w3.org/2000/svg" fill="currentColor" viewBox="0 0 16 16"><path d="M3.5 10a.75.75 0 0 1 .75.75v4.5a.75.75 0 0 1-1.5 0v-4.5A.75.75 0 0 1 3.5 10Zm2.75 2a.75.75 0 0 1 .75.75v2.5a.75.75 0 0 1-1.5 0v-2.5a.75.75 0 0 1 .75-.75ZM12 8a.75.75 0 0 1 .75.75v.348c.426.11.816.308 1.146.578l.43-.294a.75.75 0 0 1 .849 1.236l-.39.268c.265.573.21 1.277.21 1.277l.437.11a.75.75 0 1 1-.364 1.454l-.53-.132a3.032 3.032 0 0 1-.717.785l.303.454a.75.75 0 1 1-1.248.832l-.464-.695a3.08 3.08 0 0 1-.825 0l-.463.695a.75.75 0 1 1-1.248-.832l.302-.454a3.011 3.011 0 0 1-.716-.785l-.53.132a.75.75 0 0 1-.364-1.454l.436-.11s-.07-.816.214-1.283l-.384-.256a.75.75 0 0 1 .832-1.248l.442.295c.33-.268.718-.464 1.142-.573V8.75A.75.75 0 0 1 12 8ZM.75 13a.75.75 0 0 1 .75.75v1.45a.75.75 0 0 1-1.5 0v-1.45A.75.75 0 0 1 .75 13ZM12 10.5a1.5 1.5 0 1 0 0 3 1.5 1.5 0 0 0 0-3ZM3.75 0a.75.75 0 0 1 .75.75V1l.827.004A.75.75 0 0 1 5.25 2.5H2.933c-.259 0-.433.254-.433.5 0 .26.187.5.45.5h.9c.638 0 1.188.215 1.58.607.385.386.57.896.57 1.398a1.95 1.95 0 0 1-.584 1.403c-.25.244-.562.415-.916.509v.333a.75.75 0 0 1-1.5 0V7.5H1.75a.75.75 0 0 1 0-1.5h2.1c.312 0 .65-.137.65-.495C4.5 5.143 4.17 5 3.85 5h-.9C1.79 5 1 3.994 1 3c0-.987.78-2 2-2V.75A.75.75 0 0 1 3.75 0Zm8.498 0a.75.75 0 0 1 .75.75V1l1.477.009a.75.75 0 0 1 .585.472l.89 2.32c.033.085.05.177.05.268V5.25a.75.75 0 0 1-.75.75H15a1 1 0 1 1-2 0h-2a1 1 0 1 1-2 0h-.25A.75.75 0 0 1 8 5.25V.75A.75.75 0 0 1 8.75 0h3.498ZM9.5 4.5h1.998v-3H9.5v3Zm3.5 0h1.5v-.292L13.845 2.5H13v2Z"/></svg>