<svg xmlns="http://www.w3.org/2000/svg" fill="currentColor" viewBox="0 0 16 16"><path d="M9.25 0C10.216 0 11 .784 11 1.75V2h1.25c.966 0 1.75.784 1.75 1.75v.5a.75.75 0 0 1-1.5 0v-.5a.25.25 0 0 0-.25-.25h-1.27A1.749 1.749 0 0 1 9.25 5h-2.5a1.749 1.749 0 0 1-1.73-1.5H3.75a.25.25 0 0 0-.25.25v10.5c0 .138.112.25.25.25h4.5a.75.75 0 0 1 0 1.5h-4.5A1.75 1.75 0 0 1 2 14.25V3.75C2 2.784 2.784 2 3.75 2H5v-.25C5 .784 5.784 0 6.75 0h2.5Zm4.5 6.5a.75.75 0 0 1 .75.75V8h.75a.75.75 0 0 1 0 1.5h-2.285c-.304 0-.465.316-.465.5 0 .18.136.508.465.508.39 0 .885-.008.885-.008.638 0 1.188.215 1.58.607.78.782.757 2.05-.014 2.801-.25.244-.562.415-.916.509v.833a.75.75 0 0 1-1.5 0v-.75h-1.25a.75.75 0 0 1 0-1.5s1.343.017 2.163.017c.353 0 .587-.212.587-.512 0-.29-.256-.505-.605-.505h-.945C11.79 12 11 10.994 11 10c0-.987.78-2 2-2v-.75a.75.75 0 0 1 .75-.75Zm-7-5a.25.25 0 0 0-.25.25v1.5c0 .138.112.25.25.25h2.5a.25.25 0 0 0 .25-.25v-1.5a.25.25 0 0 0-.25-.25h-2.5Z"/></svg>