<svg xmlns="http://www.w3.org/2000/svg" fill="currentColor" viewBox="0 0 16 16"><path d="M11.25 0C12.216 0 13 .784 13 1.75v2.5a.75.75 0 0 1-1.5 0v-2.5a.25.25 0 0 0-.25-.25H6.71a.25.25 0 0 0-.19.087L6 2.193V5.25a.75.75 0 0 1-.75.75H2.738l-.238.37v7.88c0 .138.112.25.25.25h4.5a.75.75 0 0 1 0 1.5h-4.5A1.75 1.75 0 0 1 1 14.25V6.37c0-.417.15-.821.42-1.139L5.38.611A1.751 1.751 0 0 1 6.71 0h4.54Zm1 6.5a.75.75 0 0 1 .75.75V8h.75a.75.75 0 0 1 0 1.5h-2.258c-.259 0-.492.164-.492.5 0 .306.249.5.511.5h.839c.638 0 1.188.215 1.58.607.385.386.57.896.57 1.398a1.95 1.95 0 0 1-.584 1.403c-.25.244-.562.415-.916.509v.833a.75.75 0 0 1-1.5 0v-.75h-1.25a.75.75 0 0 1 0-1.5h2.1c.287 0 .65-.095.65-.495S12.643 12 12.35 12h-.9c-1.16 0-1.95-1.006-1.95-2 0-.987.78-2 2-2v-.75a.75.75 0 0 1 .75-.75Z"/></svg>