<svg xmlns="http://www.w3.org/2000/svg" fill="currentColor" viewBox="0 0 16 16"><path d="M9.25 0C10.216 0 11 .784 11 1.75V2h1.25c.966 0 1.75.784 1.75 1.75v.5a.75.75 0 0 1-1.5 0v-.5a.25.25 0 0 0-.25-.25h-1.27A1.749 1.749 0 0 1 9.25 5h-.5v1.25h.7a.75.75 0 0 1 0 1.5h-2A.483.483 0 0 0 7 8.2c0 .226.224.45.45.45h.8c1.054 0 1.95.896 1.95 1.95 0 .882-.629 1.65-1.452 1.879l.002.021v2h3.5a.25.25 0 0 0 .25-.25v-1.5a.75.75 0 0 1 1.5 0v1.5A1.75 1.75 0 0 1 12.25 16h-8.5A1.75 1.75 0 0 1 2 14.25v-1.5a.75.75 0 0 1 1.5 0v1.5c0 .138.112.25.25.25h3.5v-1.95h-1a.75.75 0 0 1 0-1.5h2c.226 0 .45-.225.45-.45a.483.483 0 0 0-.45-.45h-.8c-1.054 0-1.95-.896-1.95-1.95 0-.987.785-1.835 1.75-1.94V5h-.5a1.749 1.749 0 0 1-1.73-1.5H3.75a.25.25 0 0 0-.25.25v.5a.75.75 0 0 1-1.5 0v-.5C2 2.784 2.783 2 3.75 2H5v-.25C5 .784 5.783 0 6.75 0h2.5ZM.415 7.08a.75.75 0 0 1 1.006.335l.75 1.5a.75.75 0 0 1-1.342.67l-.75-1.5a.75.75 0 0 1 .336-1.006Zm2.25 0a.75.75 0 0 1 1.006.335l.75 1.5a.75.75 0 0 1-1.342.67l-.75-1.5a.75.75 0 0 1 .336-1.006Zm9.664.335a.75.75 0 0 1 1.342.67l-.75 1.5a.75.75 0 0 1-1.342-.67l.75-1.5Zm2.25 0a.75.75 0 0 1 1.342.67l-.75 1.5a.75.75 0 0 1-1.342-.67l.75-1.5ZM6.75 1.5a.25.25 0 0 0-.25.25v1.5c0 .138.112.25.25.25h2.5a.25.25 0 0 0 .25-.25v-1.5a.25.25 0 0 0-.25-.25h-2.5Z"/></svg>