<svg xmlns="http://www.w3.org/2000/svg" fill="currentColor" viewBox="0 0 16 16"><path d="M13.639 0C14.939 0 16 1.061 16 2.361v7.778c0 1.3-1.061 2.361-2.361 2.361h-9.34l-3 3.26A.75.75 0 0 1 0 15.25V2.361C0 1.061 1.061 0 2.361 0H13.64ZM2.36 1.5a.866.866 0 0 0-.861.861v10.982l1.979-2.158A.751.751 0 0 1 3.973 11h.779L4.75 9.55h-1a.75.75 0 1 1 0-1.5h2c.226 0 .45-.225.45-.45a.483.483 0 0 0-.45-.45h-.8C3.896 7.15 3 6.254 3 5.2c0-.987.785-1.835 1.75-1.94V1.5H2.361Zm3.89 1.75h.7a.75.75 0 0 1 0 1.5h-2a.483.483 0 0 0-.45.45c0 .226.224.45.45.45h.8c1.054 0 1.95.896 1.95 1.95 0 .882-.628 1.65-1.45 1.879L6.248 11h7.39c.473 0 .862-.39.862-.861V2.36a.866.866 0 0 0-.861-.861H6.25v1.75Zm6 5.25a.75.75 0 0 1 0 1.5h-1.5a.75.75 0 0 1 0-1.5h1.5Zm0-2.75a.75.75 0 0 1 0 1.5h-1.5a.75.75 0 0 1 0-1.5h1.5Zm0-2.75a.75.75 0 0 1 0 1.5h-1.5a.75.75 0 0 1 0-1.5h1.5Z"/></svg>