<svg xmlns="http://www.w3.org/2000/svg" fill="currentColor" viewBox="0 0 16 16"><path d="M8.729.046a.75.75 0 0 1 .601.037l4.776 2.467a.75.75 0 0 1 .202.208l1.57 2.417a.75.75 0 0 1 .122.408v6.444a.75.75 0 0 1-.472.698l-8.076 3.221a.75.75 0 0 1-.619-.028L.409 12.635A.75.75 0 0 1 0 11.968V3.77a.75.75 0 0 1 .492-.705L8.73.046ZM2.623 3.882l3.384 1.727a.75.75 0 0 1 .204.207l1.61 2.457c.08.123.124.268.123.415l-.017 5.454 2.546-1.016v-5.45l-1.011-.533a.75.75 0 0 1-.4-.663V5.188L4.878 3.057l-2.254.826ZM1.5 11.509l4.927 2.516.015-4.78-1.088-.762a.75.75 0 0 1-.319-.614V6.79L1.5 4.993v6.516ZM6.798 2.35l3.237 1.658c.08.055.15.125.203.207l1.612 2.457a.75.75 0 0 1 .123.411v5.443L14.5 11.52v-5.5l-1.007-.526a.751.751 0 0 1-.403-.665V3.706L8.936 1.567l-2.138.784Z"/></svg>