<svg xmlns="http://www.w3.org/2000/svg" fill="currentColor" viewBox="0 0 16 16"><path d="M7.934 0c1.936 1.204 4.615 1.806 6.174 3.704 2.45 2.741 2.08 7.593-.62 10.104C12.048 15.31 10.118 16 8.198 16c-3.25 0-6.51-1.991-7.43-5.423-.66-1.98-.1-4.572 1.64-5.903 1.08-.99 2.491-1.54 3.551-2.47-.29 1.16-1.49 1.65-2.2 2.54-2.08 2.011-1.27 6.073 1.72 6.303h.1c1.79 0 2.23-2.4.57-2.54-.314-.04-.642.045-.86.28a.864.864 0 0 1-.06-.701c.52-1.44 3.08-1.79 3.82-3.091.17-.24.25-.46.25-.67.19.42.22.78.13 1.18-.04.19-.1.37-.16.54.43-.16.77-.46 1.05-.73.11-.13.21-.25.29-.38.07.52.07 1.01-.03 1.46-.04.19-.1.35-.16.48.16-.05.36-.19.54-.25.11-.06.22-.13.35-.19.01.42-.17.79-.41 1.08-.1.15-.23.28-.38.41.24.22.49.321.75.321.94 0 1.87-1.28 1.8-2.231-.07-1.921-1.63-3.261-3.37-4.332-.68-.39-1.16-.75-1.53-1.24C8.062.29 7.963.12 7.934 0ZM6.809 7.396c-.223 0-.554.16-.577.26h.287c.05.08.15.14.29.14.18 0 .33-.09.33-.2 0-.11-.15-.2-.33-.2Z"/></svg>