<svg xmlns="http://www.w3.org/2000/svg" fill="currentColor" viewBox="0 0 16 16"><path d="M1.75 1a.75.75 0 0 1 .75.75v11.5c0 .138.112.25.25.25h11.5a.75.75 0 0 1 0 1.5H2.75A1.75 1.75 0 0 1 1 13.25V1.75A.75.75 0 0 1 1.75 1Zm2.875 10a1 1 0 1 1 0 2 1 1 0 0 1 0-2ZM8.25 9a.75.75 0 0 1 .75.75v2.5a.75.75 0 0 1-1.5 0v-2.5A.75.75 0 0 1 8.25 9Zm4.375 2a1 1 0 1 1 0 2 1 1 0 0 1 0-2Zm1.625-4a.75.75 0 0 1 0 1.5H3.75a.75.75 0 0 1 0-1.5h10.5Zm-2.625-2.625a1 1 0 1 1 0 2 1 1 0 0 1 0-2Zm-7-1a1 1 0 1 1 0 2 1 1 0 0 1 0-2ZM8.25 1a.75.75 0 0 1 .75.75v2.5a.75.75 0 0 1-1.5 0v-2.5A.75.75 0 0 1 8.25 1Zm5.375 0a1 1 0 1 1 0 2 1 1 0 0 1 0-2Z"/></svg>