<svg xmlns="http://www.w3.org/2000/svg" fill="currentColor" viewBox="0 0 16 16"><path d="M11 6a.75.75 0 0 1 .75.75v.826a3.7 3.7 0 0 1 1.428.635l.675-.45a.75.75 0 0 1 .833 1.248l-.494.328c.609.88.495 2.057.495 2.057l.745.186a.75.75 0 0 1-.364 1.455l-.766-.192a3.706 3.706 0 0 1-1.147 1.345l.431.646a.75.75 0 0 1-1.248.832l-.575-.861a3.788 3.788 0 0 1-1.527 0l-.574.861a.75.75 0 0 1-1.248-.832l.43-.646a3.707 3.707 0 0 1-1.147-1.345l-.765.192a.75.75 0 0 1-.364-1.455l.745-.186s-.132-1.232.407-1.897l-.732-.488A.75.75 0 0 1 7.82 7.76l.85.566c.45-.367.99-.629 1.58-.75V6.75A.75.75 0 0 1 11 6Zm0 3a2.193 2.193 0 1 0 0 4.385A2.193 2.193 0 0 0 11 9ZM4 0a.75.75 0 0 1 .75.75v.348c.426.11.816.308 1.147.578l.428-.294a.75.75 0 0 1 .85 1.236l-.39.268c.283.449.21 1.277.21 1.277l.437.11a.75.75 0 0 1-.364 1.455l-.53-.133a3.01 3.01 0 0 1-.717.785l.303.454a.75.75 0 1 1-1.248.832l-.464-.695a3.08 3.08 0 0 1-.825 0l-.463.695a.75.75 0 0 1-1.248-.832l.302-.454a3.011 3.011 0 0 1-.716-.785l-.53.133a.75.75 0 0 1-.364-1.456l.436-.109s-.063-.768.214-1.283l-.384-.256a.75.75 0 0 1 .832-1.248l.442.295c.33-.268.718-.464 1.142-.573V.75A.75.75 0 0 1 4 0Zm0 2.5a1.5 1.5 0 1 0 0 3 1.5 1.5 0 0 0 0-3Z"/></svg>