<svg xmlns="http://www.w3.org/2000/svg" fill="currentColor" viewBox="0 0 16 16"><path d="M3.25 8c.199 0 .39.08.53.22l2.5 2.5a.75.75 0 0 1-1.06 1.06L4 10.56v1.69a2.25 2.25 0 0 0 2.25 2.25h7a.75.75 0 0 1 0 1.5h-7a3.75 3.75 0 0 1-3.75-3.75v-1.69l-1.22 1.22a.75.75 0 0 1-1.06-1.06l2.5-2.5A.75.75 0 0 1 3.25 8Zm6.5-8a3.75 3.75 0 0 1 3.75 3.75v1.69l1.22-1.22a.75.75 0 0 1 1.06 1.06l-2.5 2.5a.75.75 0 0 1-1.06 0l-2.5-2.5a.75.75 0 0 1 1.06-1.06L12 5.44V3.75A2.25 2.25 0 0 0 9.75 1.5h-7a.75.75 0 0 1 0-1.5h7Z"/></svg>