<svg xmlns="http://www.w3.org/2000/svg" fill="currentColor" viewBox="0 0 16 16"><path d="M7.876.01a.75.75 0 0 1 .331.024l5.265 1.61a.75.75 0 0 1 .53.718V8c0 2.71-1.479 4.709-2.875 5.99a12.623 12.623 0 0 1-1.925 1.447c-.523.32-.702.404-.901.495a.751.751 0 0 1-.627 0c-.199-.092-.377-.175-.898-.496A12.567 12.567 0 0 1 4.86 13.99c-1.346-1.242-2.77-3.157-2.857-5.738l.006-6.012a.75.75 0 0 1 .52-.595L7.875.009ZM3.538 8.663c.208 1.803 1.24 3.21 2.338 4.223.481.444.965.8 1.374 1.07V9.371l-3.712-.707Zm5.212.708v4.574c.407-.27.886-.623 1.362-1.06 1.103-1.013 2.138-2.419 2.348-4.219l-3.71.705ZM3.498 2.915V7.13l3.752.715V1.761L3.498 2.916ZM8.75 7.843l3.752-.71V2.914L8.75 1.767v6.076Z"/></svg>