<svg xmlns="http://www.w3.org/2000/svg" fill="currentColor" viewBox="0 0 16 16"><path d="M9.75 1c.966 0 1.75.784 1.75 1.75V3h1.795c.74 0 1.4.465 1.648 1.161l.955 2.674c.068.189.102.388.102.588v2.827A1.75 1.75 0 0 1 14.25 12c-.04 0-.219.012-.298.012.097.484.047.987-.142 1.444A2.524 2.524 0 0 1 11.5 15c-1 0-1.927-.62-2.31-1.544A2.51 2.51 0 0 1 9.05 12c-.707 0-1.948 0-2.123.012.096.484.047.987-.142 1.444A2.524 2.524 0 0 1 4.475 15c-1 0-1.927-.62-2.31-1.544A2.542 2.542 0 0 1 2.022 12H1.75A1.75 1.75 0 0 1 0 10.25v-7.5C0 1.784.784 1 1.75 1h8ZM3.611 12a1.013 1.013 0 0 0-.06.883c.151.365.528.617.924.617.395 0 .772-.252.923-.617a1.013 1.013 0 0 0-.06-.883H3.61Zm7.026 0a1.013 1.013 0 0 0-.06.883c.15.365.528.617.923.617s.772-.252.924-.617a1.013 1.013 0 0 0-.06-.883h-1.727ZM1.75 2.5a.25.25 0 0 0-.25.25v7.5c0 .138.112.25.25.25h12.5a.25.25 0 0 0 .25-.25V8.5h-3.75a.75.75 0 0 1-.75-.75v-5a.25.25 0 0 0-.25-.25h-8ZM11.5 7h2.864l-.834-2.334a.25.25 0 0 0-.235-.166H11.5V7Z"/></svg>