<svg xmlns="http://www.w3.org/2000/svg" fill="currentColor" viewBox="0 0 16 16"><path d="M8.004 2c3.12 0 5.67 2.323 7.35 4.754.178.259.646.908.646 1.25 0 .341-.468.983-.646 1.242-1.68 2.43-4.23 4.754-7.35 4.754-3.12 0-5.67-2.323-7.35-4.754C.477 8.988 0 8.324 0 7.996c0-.331.476-.984.655-1.242C2.334 4.324 4.884 2 8.005 2Zm0 1.5c-1.87 0-3.5 1.136-4.719 2.396C2.686 6.516 1.628 8 1.628 8s1.058 1.484 1.657 2.104c1.219 1.26 2.848 2.396 4.72 2.396 1.87 0 3.5-1.136 4.718-2.396C13.68 9.045 14.38 8 14.38 8s-.564-.938-1.656-2.104C11.504 4.636 9.875 3.5 8.004 3.5Zm0 1.5a3.001 3.001 0 1 1 .001 6.002 3.001 3.001 0 0 1 0-6.002Zm0 1.5a1.5 1.5 0 1 0 0 3 1.5 1.5 0 0 0 0-3Z"/></svg>