<svg xmlns="http://www.w3.org/2000/svg" fill="currentColor" viewBox="0 0 16 16"><path d="M3.63 11.729a.75.75 0 0 1 1.074 1.045l-1.266 1.304a.25.25 0 0 0 .178.424h7.634a.75.75 0 0 1 0 1.5H3.616c-1.546 0-2.332-1.861-1.253-2.97l1.266-1.303ZM11.627.499a1.75 1.75 0 0 1 2.464.015l1.396 1.4a1.75 1.75 0 0 1 .003 2.47l-6.359 6.397a.752.752 0 0 1-.532.221H5.75a.75.75 0 0 1-.75-.75v-2.95c0-.201.082-.395.226-.536L11.628.5ZM6.5 7.618l1.788 1.885 3.745-3.768-1.786-1.785L6.5 7.617Zm6.53-6.043a.25.25 0 0 0-.352-.003L11.32 2.9l1.77 1.77 1.336-1.343a.25.25 0 0 0 0-.353l-1.396-1.4Z"/></svg>