<svg xmlns="http://www.w3.org/2000/svg" fill="currentColor" viewBox="0 0 16 16"><path d="M11.25 0A2.75 2.75 0 0 1 14 2.75v10.5A2.75 2.75 0 0 1 11.25 16h-6.5A2.75 2.75 0 0 1 2 13.25V2.75A2.75 2.75 0 0 1 4.75 0h6.5Zm-6.5 1.5c-.69 0-1.25.56-1.25 1.25v10.5c0 .69.56 1.25 1.25 1.25h6.5c.69 0 1.25-.56 1.25-1.25V2.75c0-.69-.56-1.25-1.25-1.25h-6.5Zm3.5 1.25A.75.75 0 0 1 9 3.5v.75h1.25a.75.75 0 0 1 0 1.5H7.23c-.429 0-.73.339-.73.75 0 .405.312.75.73.75h1.42c.717 0 1.32.254 1.743.698.413.435.607 1.003.607 1.558 0 .567-.203 1.134-.622 1.563-.353.361-.827.588-1.378.657v.774a.75.75 0 0 1-1.5 0v-.75H5.75a.75.75 0 0 1 0-1.5h2.9c.486 0 .85-.322.85-.744 0-.457-.378-.756-.85-.756H7.23C5.884 8.75 5 7.63 5 6.5c0-1.125.86-2.25 2.5-2.25V3.5a.75.75 0 0 1 .75-.75Z"/></svg>