<svg xmlns="http://www.w3.org/2000/svg" fill="currentColor" viewBox="0 0 16 16"><path d="M12.252 1c.966 0 1.75.784 1.75 1.75v10.5a1.75 1.75 0 0 1-1.75 1.75h-8.5C2.846 15 2 14.317 2 13.429L2.002 2.75c0-.966.783-1.75 1.75-1.75h8.5Zm-8.5 1.5a.25.25 0 0 0-.25.25l.005 10.55c.002.116.124.2.245.2h8.5a.25.25 0 0 0 .25-.25V2.75a.25.25 0 0 0-.25-.25h-8.5ZM5.5 11a.5.5 0 1 1 0 1 .5.5 0 0 1 0-1Zm2 0a.5.5 0 1 1 0 1 .5.5 0 0 1 0-1Zm2.25-2.002a.75.75 0 0 1 .75.75v1.502a.75.75 0 0 1-1.5 0V9.748a.75.75 0 0 1 .75-.75ZM5.5 9a.5.5 0 1 1 0 1 .5.5 0 0 1 0-1Zm2 0a.5.5 0 1 1 0 1 .5.5 0 0 1 0-1Zm-2-2a.5.5 0 1 1 0 1 .5.5 0 0 1 0-1Zm2 0a.5.5 0 1 1 0 1 .5.5 0 0 1 0-1Zm2 0a.5.5 0 1 1 0 1 .5.5 0 0 1 0-1Zm.5-3.5a1 1 0 1 1 0 2H6a1 1 0 0 1 0-2h4Z"/></svg>