<svg xmlns="http://www.w3.org/2000/svg" fill="currentColor" viewBox="0 0 16 16"><path d="M8.153.001c2.025-.042 4.094.96 5.512 2.36 1.839 1.818 2.654 4.452 2.221 6.99-.256 1.635-1.052 3.141-2.221 4.31-1.525 1.525-3.596 2.34-5.742 2.34a7.9 7.9 0 0 1-5.573-2.34A8.088 8.088 0 0 1 .11 6.652C.496 4.184 2.114 2.06 4.3.892 5.494.245 6.813.029 8.153 0Zm-1.171 10.84-1.19 1.66.56 1.69c1.09.258 2.14.24 3.261-.01l.59-1.78-1.16-1.56H6.982Zm-5.373-2.5c.02 1.09.35 2.12 1.001 3.1h1.97l1.192-1.66-.59-1.75-2.192-.69-1.38 1Zm9.195-.31-.56 1.72 1.25 1.69h1.87a6.15 6.15 0 0 0 1.001-3.1l-1.34-1-2.221.69Zm-2-4.91v2.5l1.279.94v.01l2.251-.69.631-1.91a6.626 6.626 0 0 0-2.661-1.94l-1.5 1.09Zm-3.092-1.1c-1.09.42-1.971 1.06-2.661 1.94l.59 1.91 2.25.69.01-.01 1.281-.94v-2.5l-1.47-1.09Z"/></svg>