<svg xmlns="http://www.w3.org/2000/svg" fill="currentColor" viewBox="0 0 16 16"><path d="M15.25 0a.75.75 0 0 1 0 1.5H14v.75a.75.75 0 0 1-1.5 0V1.5H11v.75a.75.75 0 0 1-1.5 0V1.5H8v.75a.75.75 0 0 1-1.5 0V1.5H5v.75a.75.75 0 0 1-1.5 0V1.5h-2V4h.75a.75.75 0 0 1 0 1.5H1.5V7h.75a.75.75 0 0 1 0 1.5H1.5V10h.75a.75.75 0 0 1 0 1.5H1.5V13h.75a.75.75 0 0 1 0 1.5H1.5v.75a.75.75 0 0 1-1.5 0V.75A.75.75 0 0 1 .75 0h14.5ZM8.42 7.076a.75.75 0 0 1 1.004.345c.643 1.319 1.737 1.641 2.156 1.847a.78.78 0 0 1 .405.891c-.042.161-.192.353-.407.599-.215.246-1.15 1.275-1.74 1.929-.173.19-.494.313-.788.313H7.5v1.25a.75.75 0 0 1-1.5 0v-2a.75.75 0 0 1 .75-.75h2.138l1.17-1.3a4.934 4.934 0 0 1-1.982-2.12.75.75 0 0 1 .345-1.004ZM12.5 6c.814 0 1.5.661 1.5 1.5S13.314 9 12.5 9 11 8.339 11 7.5 11.686 6 12.5 6Z"/></svg>