<svg xmlns="http://www.w3.org/2000/svg" fill="currentColor" viewBox="0 0 16 16"><path d="M12.196 1.994a.75.75 0 0 1 1.06-.048C14.949 3.491 16 5.648 16 8c0 2.352-1.05 4.51-2.744 6.054a.75.75 0 0 1-1.012-1.108C13.654 11.66 14.5 9.894 14.5 8c0-1.894-.845-3.66-2.256-4.946a.75.75 0 0 1-.048-1.06ZM7.8 2.15a.75.75 0 0 1 1.2.6v10.5a.75.75 0 0 1-1.2.6L4 11H.75a.75.75 0 0 1-.75-.75v-4.5A.75.75 0 0 1 .75 5H4l3.8-2.85Zm2.408 1.831a.75.75 0 0 1 1.06-.023A5.59 5.59 0 0 1 13 8c0 1.616-.693 3.06-1.735 4.045a.75.75 0 1 1-1.03-1.09A4.074 4.074 0 0 0 11.5 8a4.09 4.09 0 0 0-1.269-2.958.75.75 0 0 1-.023-1.06ZM4.7 6.35a.751.751 0 0 1-.45.15H1.5v3h2.75c.162 0 .32.053.45.15l2.8 2.1v-7.5l-2.8 2.1Z"/></svg>