<svg xmlns="http://www.w3.org/2000/svg" fill="currentColor" viewBox="0 0 16 16"><path d="M12.226.22a.75.75 0 0 1 1.062 0l2.5 2.5a.772.772 0 0 1 0 1.06l-2.5 2.5a.75.75 0 0 1-1.062-1.06L13.446 4h-3.01c-.79 0-1.589.433-2.009 1.093l-.008.013-1.281 1.92h-.001c-.267.413-.62.713-1.01.933.4.327.753.713 1.01 1.115l1.282 1.92.008.014c.395.62 1.169.992 2.008.992h3.012l-1.22-1.22a.75.75 0 1 1 1.06-1.06l2.502 2.5a.772.772 0 0 1 0 1.06l-2.501 2.5a.75.75 0 0 1-1.062-1.06l1.22-1.22h-3.01c-1.237 0-2.539-.544-3.266-1.675L5.889 9.906l-.009-.013a3.47 3.47 0 0 0-.982-.978C4.483 8.64 4.076 8.5 3.752 8.5H.75a.75.75 0 1 1 0-1.5h3.002c.991 0 1.789-.26 2.128-.793l.009-.013 1.28-1.92C7.873 3.182 9.15 2.5 10.436 2.5h3.012l-1.22-1.22a.75.75 0 0 1 0-1.06Z"/></svg>