<svg xmlns="http://www.w3.org/2000/svg" fill="currentColor" viewBox="0 0 16 16"><path d="M8.536 13.651a.75.75 0 0 1 1.061 1.062l-1.07 1.07a.75.75 0 0 1-1.062 0l-1.07-1.07a.75.75 0 0 1 1.06-1.062l.54.54.541-.54Zm3.151-3.15a.75.75 0 1 1 1.061 1.06l-1.23 1.23a.75.75 0 0 1-1.061-1.06l1.23-1.23Zm-8.464-.021a.75.75 0 0 1 1.06 0l1.211 1.21a.75.75 0 1 1-1.06 1.062L3.222 11.54a.75.75 0 0 1 0-1.061ZM1.282 6.397A.75.75 0 0 1 2.343 7.46l-.54.54.54.54A.75.75 0 0 1 1.282 9.6L.212 8.53a.772.772 0 0 1 0-1.062l1.07-1.07Zm12.366 0a.75.75 0 0 1 1.061 0l1.071 1.071a.75.75 0 0 1 0 1.061L14.71 9.6a.75.75 0 0 1-1.062-1.06l.54-.541-.54-.54a.75.75 0 0 1 0-1.062Zm-3.151-3.15a.75.75 0 0 1 1.061 0l1.25 1.25a.75.75 0 0 1-1.06 1.061l-1.251-1.25a.75.75 0 0 1 0-1.062Zm-6.054-.011a.751.751 0 0 1 1.062 1.062l-1.2 1.2a.75.75 0 1 1-1.062-1.062l1.2-1.2ZM8.526.214l1.071 1.071a.75.75 0 0 1-1.061 1.061l-.54-.54-.54.54a.75.75 0 0 1-1.062-1.06S7.457.201 7.58.12a.77.77 0 0 1 .947.093Z"/></svg>