<svg xmlns="http://www.w3.org/2000/svg" fill="currentColor" viewBox="0 0 16 16"><path d="M14.25 7.5a.75.75 0 0 1 0 1.5h-2.508c.47.606.758 1.34.758 2.15 0 2.197-2.079 3.85-4.375 3.85S3.75 13.347 3.75 11.15a.75.75 0 0 1 1.5 0c0 1.164 1.186 2.35 2.875 2.35S11 12.314 11 11.15c0-.883-.655-1.757-1.735-2.15H1.75a.75.75 0 0 1 0-1.5h12.5ZM8.12 1c1.133 0 2.197.327 2.997.907.803.583 1.373 1.455 1.373 2.503a.75.75 0 0 1-1.5 0c0-.461-.245-.92-.755-1.289C9.723 2.75 8.977 2.5 8.12 2.5c-.857 0-1.604.25-2.116.621-.51.37-.754.828-.754 1.29 0 .214.05.38.142.652a.75.75 0 0 1-1.423.474c-.09-.268-.219-.642-.219-1.127 0-1.048.57-1.92 1.373-2.503C5.923 1.327 6.987 1 8.12 1Z"/></svg>