<svg xmlns="http://www.w3.org/2000/svg" fill="currentColor" viewBox="0 0 16 16"><path d="M11.25 0A3.75 3.75 0 0 1 15 3.75v5.5a3.75 3.75 0 0 1-2.593 3.566l1.45 1.993a.75.75 0 0 1-1.213.882L10.687 13H5.313l-1.957 2.691a.75.75 0 0 1-1.212-.882l1.448-1.993A3.75 3.75 0 0 1 1 9.25v-5.5A3.75 3.75 0 0 1 4.75 0h6.5ZM2.5 9.25a2.25 2.25 0 0 0 2.25 2.25h6.5a2.25 2.25 0 0 0 2.25-2.25V5.5h-11v3.75ZM5.25 7.5a1.25 1.25 0 1 1 0 2.5 1.25 1.25 0 0 1 0-2.5Zm5.5 0a1.25 1.25 0 1 1 0 2.5 1.25 1.25 0 0 1 0-2.5Zm-6-6C3.507 1.5 2.5 2.51 2.5 4h4.755V1.5H4.75ZM8.755 4H13.5c0-1.49-1.007-2.5-2.25-2.5H8.755V4Z"/></svg>