<svg xmlns="http://www.w3.org/2000/svg" fill="currentColor" viewBox="0 0 16 16"><path d="M8 0a4 4 0 0 1 2.616 7.023C12.61 7.931 14 9.927 14 12.25v1a.75.75 0 0 1-.75.75H12v.25A1.75 1.75 0 0 1 10.25 16h-4.5A1.75 1.75 0 0 1 4 14.25V14H2.75a.75.75 0 0 1-.75-.75v-1c0-2.323 1.39-4.319 3.383-5.227A4 4 0 0 1 8 0ZM5.75 11.5a.25.25 0 0 0-.25.25v2.5c0 .138.112.25.25.25h4.5a.25.25 0 0 0 .25-.25v-2.5a.25.25 0 0 0-.25-.25h-4.5ZM7.798 8C5.418 8 3.5 9.911 3.5 12.25v.25H4v-.75c0-.966.784-1.75 1.75-1.75h4.5c.966 0 1.75.784 1.75 1.75v.75h.5v-.25C12.5 9.911 10.581 8 8.202 8h-.404ZM8 1.5a2.5 2.5 0 1 0 0 5 2.5 2.5 0 0 0 0-5Z"/></svg>