<svg xmlns="http://www.w3.org/2000/svg" fill="currentColor" viewBox="0 0 16 16"><path d="M4.72 11.22a.75.75 0 1 1 1.06 1.06L4.56 13.5l1.22 1.22a.75.75 0 0 1-1.06 1.06L3.5 14.56l-1.22 1.22a.75.75 0 0 1-1.06-1.06l1.22-1.22-1.22-1.22a.75.75 0 1 1 1.06-1.06l1.22 1.22 1.22-1.22ZM15 13.75c0 .424-.335.75-.75.75h-5.5a.75.75 0 0 1 0-1.5h5.5a.74.74 0 0 1 .75.75ZM5.68 5.262a.75.75 0 0 1 1.14.976l-3 3.5a.75.75 0 0 1-1.1.042l-1.5-1.5a.75.75 0 1 1 1.06-1.06l.927.926 2.474-2.884ZM15 8.25c0 .424-.344.75-.75.75h-5.5a.75.75 0 0 1 0-1.5h5.5c.395 0 .75.326.75.75ZM5.68.262a.75.75 0 0 1 1.14.976l-3 3.5a.75.75 0 0 1-1.1.042l-1.5-1.5a.75.75 0 1 1 1.06-1.06l.927.926L5.681.262ZM15 2.75c0 .424-.336.75-.75.75h-5.5a.75.75 0 0 1 0-1.5h5.5c.402 0 .75.326.75.75Z"/></svg>