<svg xmlns="http://www.w3.org/2000/svg" fill="currentColor" viewBox="0 0 16 16"><path d="M8.25 0C9.216 0 10 .782 10 1.747v.28h3.25c.966 0 1.75.782 1.75 1.747v7.485c0 .965-.784 1.747-1.75 1.747H13v1.247c0 .965-.784 1.747-1.75 1.747h-5.5C4.784 16 4 15.218 4 14.253V10.98H2.75c-.966 0-1.75-.782-1.75-1.747V1.747C1 .782 1.784 0 2.75 0h5.5Zm-2.5 6.519a.25.25 0 0 0-.25.249v7.485c0 .138.112.25.25.25h5.5a.25.25 0 0 0 .25-.25V6.768a.25.25 0 0 0-.25-.25h-5.5Zm2-2.995a.25.25 0 0 0-.25.25V5.02h3.75c.966 0 1.75.782 1.75 1.747v4.74h.25a.25.25 0 0 0 .25-.249V3.774a.25.25 0 0 0-.25-.25h-5.5Zm-5-2.027a.25.25 0 0 0-.25.25v7.485c0 .138.112.25.25.25H4V6.767c0-.965.784-1.747 1.75-1.747H6V3.774c0-.965.784-1.747 1.75-1.747h.75v-.28a.25.25 0 0 0-.25-.25h-5.5Z"/></svg>