<svg xmlns="http://www.w3.org/2000/svg" fill="currentColor" viewBox="0 0 16 16"><path d="M10.25 3A2.75 2.75 0 0 1 13 5.75v7.5A2.75 2.75 0 0 1 10.25 16h-7.5A2.75 2.75 0 0 1 0 13.25v-7.5A2.75 2.75 0 0 1 2.75 3h7.5Zm-7.5 1.5c-.69 0-1.25.56-1.25 1.25v7.5c0 .69.56 1.25 1.25 1.25h7.5c.69 0 1.25-.56 1.25-1.25v-7.5c0-.69-.56-1.25-1.25-1.25h-7.5ZM6.5 10A2.5 2.5 0 0 1 9 12.5a.5.5 0 0 1-.5.5h-4c-.276 0-.496-.266-.5-.5A2.5 2.5 0 0 1 6.5 10ZM13.25.002A2.75 2.75 0 0 1 16 2.752v9.496a.75.75 0 0 1-1.5 0V2.752c0-.69-.56-1.25-1.25-1.25H3.746a.75.75 0 0 1 0-1.5h9.504ZM6.5 6a1.5 1.5 0 1 1 0 3 1.5 1.5 0 0 1 0-3Z"/></svg>