<svg xmlns="http://www.w3.org/2000/svg" fill="currentColor" viewBox="0 0 16 16"><path d="M4.069 2c.524 0 .925.336.925.75a.75.75 0 0 1-.75.75h-.175a.819.819 0 0 0-.826.825V5.55c0 .643-.259 1.27-.745 1.756L1.803 8l.695.694c.486.486.745 1.113.745 1.756v1.225c0 .46.365.825.826.825.46 0 .925.291.925.75 0 .414-.339.75-.925.75a2.32 2.32 0 0 1-2.327-2.325V10.45a.98.98 0 0 0-.306-.695L.211 8.53a.772.772 0 0 1 0-1.06l1.225-1.225a.98.98 0 0 0 .306-.695V4.325A2.32 2.32 0 0 1 4.07 2Zm7.854 0a2.32 2.32 0 0 1 2.326 2.325V5.55a.98.98 0 0 0 .306.695L15.78 7.47c.14.14.22.335.22.53s-.08.39-.22.53l-1.225 1.225a.98.98 0 0 0-.306.695v1.225A2.32 2.32 0 0 1 11.923 14c-.523 0-.926-.336-.926-.75 0-.523.465-.75.926-.75a.819.819 0 0 0 .825-.825V10.45c0-.643.26-1.27.746-1.756L14.188 8l-.694-.694a2.478 2.478 0 0 1-.746-1.756V4.325a.82.82 0 0 0-.825-.825h-.175a.75.75 0 0 1-.75-.75c0-.414.328-.75.925-.75ZM5.995 7a1 1 0 1 1 0 2 1 1 0 0 1 0-2Zm4.002 0a1 1 0 1 1 0 2 1 1 0 0 1 0-2Z"/></svg>