<svg xmlns="http://www.w3.org/2000/svg" fill="currentColor" viewBox="0 0 16 16"><path d="M10.22.22a.75.75 0 0 1 1.06 0l4.5 4.5a.75.75 0 1 1-1.06 1.06L13.5 4.56l-.94.94 1.22 1.22a.75.75 0 1 1-1.06 1.06l-.095-.095L6.53 13.78A.75.75 0 0 1 6 14H3.06l-1.78 1.78a.75.75 0 1 1-1.06-1.06L2 12.94V10c0-.199.079-.39.22-.53l6.094-6.095-.094-.095a.75.75 0 1 1 1.06-1.06l1.22 1.22.94-.94-1.22-1.22a.75.75 0 0 1 0-1.06ZM8.136 5.675l.594.594A.75.75 0 0 1 7.67 7.33l-.595-.595-.64.64.595.595a.75.75 0 0 1-1.06 1.06l-.595-.594L3.5 10.31v2.19h2.19l5.75-5.75-2.19-2.19-1.114 1.115Z"/></svg>