<svg xmlns="http://www.w3.org/2000/svg" fill="currentColor" viewBox="0 0 16 16"><path d="M12.25 0a.75.75 0 0 1 0 1.5H6.71a.25.25 0 0 0-.19.087L6 2.193V5.25a.75.75 0 0 1-.75.75H2.738c-.089.104-.238.37-.238.37v7.88c0 .138.112.25.25.25H11a.25.25 0 0 0 .25-.25V12h-1.5a.75.75 0 0 1-.558-1.252l2.25-2.5a.75.75 0 0 1 1.116 0l2.25 2.5A.75.75 0 0 1 14.25 12h-1.5v2.25A1.75 1.75 0 0 1 11 16H2.75A1.75 1.75 0 0 1 1 14.25V6.37c0-.417.15-.821.42-1.139L5.38.611A1.751 1.751 0 0 1 6.71 0h5.54ZM12 4a.75.75 0 0 1 .558.248l2.25 2.5a.75.75 0 0 1-1.116 1.004L12 5.872l-1.692 1.88a.75.75 0 0 1-1.116-1.004l2.25-2.5A.75.75 0 0 1 12 4Z"/></svg>