<svg xmlns="http://www.w3.org/2000/svg" fill="currentColor" viewBox="0 0 16 16"><path d="M11.75 0c.966 0 1.75.784 1.75 1.75v7.545l.942-1.047a.75.75 0 0 1 1.116 1.004l-2.25 2.5a.75.75 0 0 1-1.116 0l-2.25-2.5a.75.75 0 0 1 1.116-1.004L12 9.295V1.75a.25.25 0 0 0-.25-.25H7.71a.25.25 0 0 0-.19.087L7 2.193V5.25a.75.75 0 0 1-.75.75H3.738c-.089.104-.238.37-.238.37v7.88c0 .138.112.25.25.25h8.5a.75.75 0 0 1 0 1.5h-8.5A1.75 1.75 0 0 1 2 14.25V6.37c0-.417.15-.821.42-1.139L6.38.611A1.751 1.751 0 0 1 7.71 0h4.04Z"/></svg>