<svg xmlns="http://www.w3.org/2000/svg" fill="currentColor" viewBox="0 0 16 16"><path d="M11.411 1.998c1.063 0 1.976.635 2.382 1.544.406.909 1.675 4.853 1.842 5.34.167.49.369 1.058.369 1.618a3.5 3.5 0 0 1-6.992.22l.002-.764C9.014 9.4 8.505 9 8.01 9c-.544 0-.986.429-1.01.967l-.009.754A3.499 3.499 0 0 1 0 10.5c0-.409.07-.801.198-1.166C.327 8.969 1.775 4.4 2.19 3.509a2.607 2.607 0 0 1 4.932.648 2.508 2.508 0 0 1 1.724-.01 2.608 2.608 0 0 1 2.566-2.149ZM3.5 8.5a2 2 0 1 0 0 4 2 2 0 0 0 0-4Zm9.004 0a2 2 0 1 0 0 4 2 2 0 0 0 0-4Zm-4.502-3c-.497 0-.911.359-.996.831L7 6.33v1.383a2.502 2.502 0 0 1 2.004-.007V6.33l-.007.002a1.012 1.012 0 0 0-.995-.831Zm3.41-2.002c-.376 0-.708.187-.908.472v3.658a3.484 3.484 0 0 1 2.928-.503L12.4 4.141a.755.755 0 0 1-.02-.066 1.106 1.106 0 0 0-.969-.577Zm-6.857 0a1.11 1.11 0 0 0-1.076.838l-.004-.002-.972 2.81a3.5 3.5 0 0 1 2.997.484V4.029a1.107 1.107 0 0 0-.945-.53Z"/></svg>