<svg xmlns="http://www.w3.org/2000/svg" fill="currentColor" viewBox="0 0 16 16"><path d="M12.25 0a.75.75 0 0 1 0 1.5H7.71a.25.25 0 0 0-.19.087L7 2.193V5.25a.75.75 0 0 1-.75.75H3.738c-.089.104-.238.37-.238.37v7.88c0 .138.112.25.25.25h8a.25.25 0 0 0 .25-.25V6.704l-.942 1.048a.75.75 0 0 1-1.116-1.004l2.25-2.5a.75.75 0 0 1 1.116 0l2.25 2.5a.75.75 0 0 1-1.116 1.004L13.5 6.704v7.546A1.75 1.75 0 0 1 11.75 16h-8A1.75 1.75 0 0 1 2 14.25V6.37c0-.417.15-.821.42-1.139L6.38.611A1.751 1.751 0 0 1 7.71 0h4.54Z"/></svg>