<svg xmlns="http://www.w3.org/2000/svg" fill="currentColor" viewBox="0 0 16 16"><path d="M12.502 9a.75.75 0 0 1 .75.75v2l2.077.004c.359 0 .673.358.673.746s-.3.746-.673.746l-2.077.004v2a.75.75 0 0 1-1.5 0v-2h-2a.75.75 0 0 1 0-1.5h2v-2a.75.75 0 0 1 .75-.75Zm-1.11-8c1.062 0 1.975.635 2.381 1.544.407.908 1.69 4.85 1.836 5.298.147.447.395 1.095.395 1.658 0 .14-.017.323-.049.5-.03.164-.085.403-.198.61a.75.75 0 0 1-1.018.298c-.363-.198-.42-.572-.299-1.017.05-.179.064-.391.064-.391a2 2 0 1 0-4 0c0 .181.028.236.061.385.108.478.072.818-.29 1.02a.75.75 0 0 1-1.02-.289 1.65 1.65 0 0 1-.192-.481c-.073-.359-.06-.688-.06-1.176S8.506 8 8.01 8c-.544 0-.986.429-1.01.967 0 0-.005.74-.01.777A3.498 3.498 0 0 1 0 9.5c0-.41.072-.768.2-1.167.126-.4 1.559-4.826 1.958-5.754a2.608 2.608 0 0 1 4.964.583 2.506 2.506 0 0 1 1.705-.024A2.608 2.608 0 0 1 11.392 1ZM3.5 7.5a2 2 0 1 0 0 4 2 2 0 0 0 0-4Zm4.512-3c-.497 0-.912.359-.996.831L7 5.328v1.384a2.502 2.502 0 0 1 2.004-.007V5.317c-.09-.465-.5-.817-.992-.817Zm-3.457-2a1.11 1.11 0 0 0-1.076.838l-.001-.001-.97 2.806a3.501 3.501 0 0 1 2.992.485V3.03a1.107 1.107 0 0 0-.945-.531Zm6.837 0c-.364 0-.686.176-.888.446v3.682a3.484 3.484 0 0 1 2.924-.504s-.854-2.598-1.03-2.98a1.108 1.108 0 0 0-1.006-.644Z"/></svg>