<svg xmlns="http://www.w3.org/2000/svg" fill="currentColor" viewBox="0 0 16 16"><path d="M11 0c.966 0 1.75.784 1.75 1.75V4h1.5a.75.75 0 0 1 .558 1.252l-2.25 2.5a.75.75 0 0 1-1.116 0l-2.25-2.5A.75.75 0 0 1 9.75 4h1.5V1.75A.25.25 0 0 0 11 1.5H6.71a.25.25 0 0 0-.19.087L6 2.193V5.25a.75.75 0 0 1-.75.75H2.738c-.089.104-.238.37-.238.37v7.88c0 .138.112.25.25.25h9.5a.75.75 0 0 1 0 1.5h-9.5A1.75 1.75 0 0 1 1 14.25V6.37c0-.417.15-.821.42-1.139L5.38.611A1.751 1.751 0 0 1 6.71 0H11Zm2.692 8.248a.75.75 0 0 1 1.116 1.004l-2.25 2.5a.75.75 0 0 1-1.116 0l-2.25-2.5a.75.75 0 0 1 1.116-1.004L12 10.128l1.692-1.88Z"/></svg>