<svg xmlns="http://www.w3.org/2000/svg" fill="currentColor" viewBox="0 0 16 16"><path d="M12.25 1A2.75 2.75 0 0 1 15 3.75v8.5A2.75 2.75 0 0 1 12.25 15h-8.5A2.75 2.75 0 0 1 1 12.25v-8.5A2.75 2.75 0 0 1 3.75 1h8.5ZM2.5 11v1.25c0 .69.56 1.25 1.25 1.25H5V11H2.5Zm4 0v2.5h3V11h-3Zm4.5 0v2.5h1.25c.69 0 1.25-.56 1.25-1.25V11H11ZM2.5 9.5H5V6.501H2.5V9.5Zm4 0h3V6.501h-3V9.5Zm4.5 0h2.5V6.501H11V9.5Zm-7.25-7c-.69 0-1.25.56-1.25 1.25v1.251H5V2.5H3.75ZM6.5 5.001h3V2.5h-3v2.501Zm4.5 0h2.5V3.75c0-.69-.56-1.25-1.25-1.25H11v2.501Z"/></svg>