<svg xmlns="http://www.w3.org/2000/svg" fill="currentColor" viewBox="0 0 16 16"><path d="M5.76 4.012h8.49c.965 0 1.748.783 1.748 1.748v8.492c0 .965-.783 1.748-1.748 1.748H5.76a1.748 1.748 0 0 1-1.749-1.748V5.76c0-.965.783-1.748 1.748-1.748ZM.75 10.989a.75.75 0 0 1 .748.75v2.497a.75.75 0 1 1-1.498 0v-2.498a.75.75 0 0 1 .75-.749Zm4.76 0v3.263c0 .138.111.25.25.25h3.48v-3.513H5.51Zm5.228 0v3.512h3.512a.25.25 0 0 0 .25-.25V10.99h-3.762ZM5.76 5.51a.25.25 0 0 0-.25.25v3.73h3.73V5.51H5.76Zm4.98 3.98h3.76V5.76a.25.25 0 0 0-.249-.25h-3.512v3.98ZM.748 4.996a.75.75 0 0 1 .75.75v2.497a.75.75 0 1 1-1.499 0V5.744a.75.75 0 0 1 .75-.749ZM8.241 0a.75.75 0 0 1 0 1.499H5.744a.75.75 0 0 1 0-1.499H8.24Zm5.993 0a.75.75 0 0 1 0 1.499h-2.497a.75.75 0 0 1 0-1.499h2.497Z"/></svg>