<svg xmlns="http://www.w3.org/2000/svg" fill="currentColor" viewBox="0 0 16 16"><path d="M8.005 1c2.348 0 4.293 1.748 4.646 4.033C14.525 5.055 16 6.66 16 8.513c0 1.855-1.56 3.463-3.396 3.463h-5.43l-2.882 2.811a.75.75 0 0 1-1.273-.537v-2.388c-.007-.001-.013-.004-.02-.006C1.279 11.438 0 9.92 0 8a3.984 3.984 0 0 1 3.614-3.959C4.34 2.316 6 1.001 8.004 1Zm0 1.5c-1.172 0-2.226.691-2.813 1.722A3.986 3.986 0 0 1 7.854 7.18a.75.75 0 0 1-1.468.308C6.152 6.38 5.32 5.534 3.979 5.534S1.51 6.726 1.509 8.01c0 1.122.776 2.096 1.825 2.386.151.037.308.062.47.072.182.01.343.088.467.204a.745.745 0 0 1 .248.554v1.244l1.938-1.872a.752.752 0 0 1 .411-.122h5.736c1.015 0 1.891-.955 1.891-2.052-.047-1.055-.903-1.892-1.882-1.892h-.654a.75.75 0 0 1-.75-.75c0-1.835-1.456-3.282-3.204-3.282Z"/></svg>