<svg xmlns="http://www.w3.org/2000/svg" fill="currentColor" viewBox="0 0 16 16"><path d="M7.43 0a2.76 2.76 0 0 1 1.98.84l5.812 5.998a2.76 2.76 0 0 1-.03 3.872l-4.483 4.482a2.76 2.76 0 0 1-3.872.03L.84 9.412A2.76 2.76 0 0 1 0 7.429V3.763c0-.2.08-.39.22-.532 0 0 3.003-3.023 3.126-3.105A.753.753 0 0 1 3.763 0H7.43ZM1.504 4.075v3.354c0 .34.138.665.382.901l6 5.812c.491.476 1.274.47 1.758-.014l4.483-4.483c.484-.484.49-1.267.014-1.759l-5.812-6a1.255 1.255 0 0 0-.9-.38H4.074l-2.57 2.569Zm9.002 5.177a.752.752 0 1 1 1.064 1.064l-1.756 1.757a.753.753 0 1 1-1.065-1.065l1.757-1.756Zm-.753-3.01a.753.753 0 1 1 1.064 1.064l-2.76 2.76A.753.753 0 1 1 6.995 9l2.76-2.76ZM5.519 4.014a1.505 1.505 0 1 1 0 3.01 1.505 1.505 0 0 1 0-3.01Z"/></svg>