<svg xmlns="http://www.w3.org/2000/svg" fill="currentColor" viewBox="0 0 16 16"><path d="M7.5 1c.625 0 1.273.066 1.898.225a.75.75 0 0 1-.37 1.454A6.238 6.238 0 0 0 7.5 2.5c-3.293 0-6 2.707-6 6s2.707 6 6 6 6-2.707 6-6c0-.54-.047-1.036-.176-1.518a.75.75 0 0 1 1.45-.389A7.28 7.28 0 0 1 15 8.5c0 4.122-3.378 7.5-7.5 7.5S0 12.622 0 8.5C0 4.38 3.378 1 7.5 1Zm-.354 3.002a.75.75 0 0 1 .101 1.496C5.71 5.603 4.5 6.915 4.5 8.5c0 1.564 1.369 3 3 3 1.561 0 2.88-1.205 3.002-2.754a.75.75 0 0 1 1.496.117C11.815 11.206 9.831 13 7.5 13 5.017 13 3 10.87 3 8.5c0-2.346 1.792-4.338 4.146-4.498ZM12.68.262A.75.75 0 0 1 14 .75V2h1.25a.75.75 0 0 1 .487 1.32l-1.75 1.5A.751.751 0 0 1 13.5 5h-1.44L8.948 8.113a1.5 1.5 0 1 1-1.06-1.06L11 3.938V2.5c0-.179.064-.352.18-.488l1.5-1.75Z"/></svg>