<svg xmlns="http://www.w3.org/2000/svg" fill="currentColor" viewBox="0 0 16 16"><path d="M3.747 0a3.711 3.711 0 0 1 3.744 3.743c0 .181-.015.359-.039.533 1.422 1.421 4.277 4.279 4.277 4.279a3.95 3.95 0 0 1 .49-.037 3.711 3.711 0 0 1 3.785 3.702c.005.473-.05 1.03-.304 1.54a.75.75 0 0 1-1.193.203l-1.283-1.25-.495.503 1.281 1.253a.749.749 0 0 1-.188 1.204c-.492.247-1.036.325-1.52.33a3.711 3.711 0 0 1-3.785-3.702 4.05 4.05 0 0 1 .035-.576L4.275 7.45a3.899 3.899 0 0 1-.528.037A3.711 3.711 0 0 1 .004 3.743c0-.473.06-1.03.32-1.537a.75.75 0 0 1 1.195-.19l1.269 1.265.501-.498-1.267-1.267a.75.75 0 0 1 .2-1.202C2.718.072 3.263 0 3.748 0Zm8.489 10.015a2.214 2.214 0 0 0-2.222 2.27c.013 1.125.796 2.014 1.86 2.19l-.73-.714a.756.756 0 0 1-.009-1.06l1.543-1.57a.749.749 0 0 1 1.056-.011l.731.711c-.195-1.061-1.102-1.828-2.23-1.816Zm-5.36-4.198a3.684 3.684 0 0 1-1.058 1.058l3.311 3.312a3.697 3.697 0 0 1 1.06-1.058L6.876 5.817ZM4.88 2.256a.755.755 0 0 1-.002 1.06l-1.56 1.552a.749.749 0 0 1-1.056 0l-.724-.72C1.721 5.213 2.62 5.99 3.747 5.99c1.266 0 2.246-.98 2.246-2.246 0-1.125-.774-2.023-1.835-2.209l.721.722Z"/></svg>