<svg xmlns="http://www.w3.org/2000/svg" fill="currentColor" viewBox="0 0 16 16"><path d="M5.5 0a3 3 0 0 1 3 3v5.153c.901.824 1.5 2.037 1.5 3.347 0 2.467-2.016 4.5-4.5 4.5S1 13.967 1 11.5c0-1.345.55-2.528 1.5-3.354V3a3 3 0 0 1 3-3Zm0 1.5A1.5 1.5 0 0 0 4 3v5.504a.75.75 0 0 1-.31.606c-.746.543-1.19 1.38-1.19 2.39 0 1.642 1.348 3 3 3s3-1.358 3-3c0-.948-.486-1.852-1.207-2.405A.75.75 0 0 1 7 8.5V3a1.5 1.5 0 0 0-1.5-1.5Zm0 2.5a.75.75 0 0 1 .75.75v5.451a1.499 1.499 0 1 1-1.5 0V4.75A.75.75 0 0 1 5.5 4Zm8.75 3a.75.75 0 0 1 0 1.5h-2.5a.75.75 0 0 1 0-1.5h2.5Zm-1-3a.75.75 0 0 1 0 1.5h-1.5a.75.75 0 0 1 0-1.5h1.5Zm1-3a.75.75 0 0 1 0 1.5h-2.5a.75.75 0 0 1 0-1.5h2.5Z"/></svg>