<svg xmlns="http://www.w3.org/2000/svg" fill="currentColor" viewBox="0 0 16 16"><path d="M14.835.125c.243-.14.525-.166.768-.036a.75.75 0 0 1 .397.66V7.25c0 3.28-2.71 4.947-5.284 5.719a.746.746 0 0 1-.473-.019c-.985 1.563-2.786 2.497-4.527 3.019a.752.752 0 0 1-.432 0C2.711 15.197 0 13.529 0 10.25v-5a.75.75 0 0 1 .3-.6c.41-.307 1.169-.713 2.067-1.042.77-.281 1.689-.522 2.633-.589V.647A.759.759 0 0 1 5.396.09c.244-.13.51-.1.74.028.231.129.94.519 1.347.693.826.354 1.908.69 3.017.69 1.11 0 2.191-.336 3.017-.69.408-.174 1.075-.544 1.318-.685ZM5.5 4.5c-.884 0-1.814.223-2.617.517a8.755 8.755 0 0 0-1.383.638v4.595c0 2.153 1.684 3.47 4 4.212 2.316-.742 4-2.059 4-4.212V5.685C8.593 5.187 7.053 4.5 5.5 4.5ZM8 10v.456c0 1-.5 2.545-2.5 2.545C3.413 13 3 11.456 3 10.456v-.455h5Zm6.5-7.988S12.554 3 10.5 3c-2.018 0-4-.988-4-.988v1.06c1.815.25 3.408 1.098 4.136 1.534.226.136.364.38.364.644v2.086s1.031.159 1.78.884a.75.75 0 0 1-1.06 1.06c-.188-.188-.448-.316-.72-.4v1.37c0 .38-.038.738-.106 1.075 2.11-.762 3.606-2.046 3.606-4.075V2.012ZM3.75 7a.75.75 0 1 1 0 1.5.75.75 0 0 1 0-1.5Zm3.5 0a.75.75 0 1 1 0 1.5.75.75 0 0 1 0-1.5Zm5-3a.75.75 0 1 1 0 1.5.75.75 0 0 1 0-1.5Z"/></svg>