<svg xmlns="http://www.w3.org/2000/svg" fill="currentColor" viewBox="0 0 16 16"><path d="M10.083 0A1.92 1.92 0 0 1 12 1.917V4h2.083A1.92 1.92 0 0 1 16 5.917v5.658a1.92 1.92 0 0 1-1.917 1.916H7.411L5.3 15.761A.75.75 0 0 1 4 15.25V9.491h-.589L1.3 11.761A.75.75 0 0 1 0 11.25V1.917A1.92 1.92 0 0 1 1.917 0h8.166ZM5.917 5.5a.42.42 0 0 0-.417.417v7.425l1.034-1.112a.75.75 0 0 1 .549-.239h7a.42.42 0 0 0 .417-.416V5.917a.42.42 0 0 0-.417-.417H5.917Zm-4-4a.42.42 0 0 0-.417.417v7.425L2.534 8.23a.75.75 0 0 1 .549-.239H4V5.917A1.92 1.92 0 0 1 5.917 4H10.5V1.917a.42.42 0 0 0-.417-.417H1.917Z"/></svg>