<svg xmlns="http://www.w3.org/2000/svg" fill="currentColor" viewBox="0 0 16 16"><path d="M8.1 0c.591 0 .9.336.9.75s-.311.75-.9.75C4.43 1.5 1.5 4.418 1.5 8s2.948 6.5 6.618 6.5c2.932 0 5.544-1.93 6.422-4.493a.75.75 0 0 1 1.42.486C14.872 13.67 11.685 16 8.118 16 3.643 16 0 12.433 0 8s3.625-8 8.1-8Zm-.35 3a.75.75 0 0 1 .75.75v3.866l2.702 2.04a.75.75 0 0 1-.904 1.197l-3-2.264A.75.75 0 0 1 7 7.99V3.75A.75.75 0 0 1 7.75 3Zm7.497 3a.75.75 0 0 1 0 1.5H11.75a.75.75 0 0 1 0-1.5h3.497Zm.003-3a.75.75 0 0 1 0 1.5h-3.5a.75.75 0 0 1 0-1.5h3.5Zm0-3a.75.75 0 0 1 0 1.5h-3.5a.75.75 0 0 1 0-1.5h3.5Z"/></svg>