<svg xmlns="http://www.w3.org/2000/svg" fill="currentColor" viewBox="0 0 16 16"><path d="M11.25 0a.75.75 0 0 1 .75.75V2h.25A2.75 2.75 0 0 1 15 4.75v8.5A2.75 2.75 0 0 1 12.25 16h-8.5A2.75 2.75 0 0 1 1 13.25v-8.5A2.75 2.75 0 0 1 3.75 2H4V.75a.75.75 0 0 1 1.5 0V2h5V.75a.75.75 0 0 1 .75-.75ZM2.5 7.5v5.75c0 .69.56 1.25 1.25 1.25h8.5c.69 0 1.25-.56 1.25-1.25V7.5h-11Zm6.72 1.22a.75.75 0 1 1 1.06 1.06L9.06 11l1.22 1.22a.75.75 0 1 1-1.06 1.06L8 12.06l-1.22 1.22a.75.75 0 1 1-1.06-1.06L6.94 11 5.72 9.78a.75.75 0 1 1 1.06-1.06L8 9.94l1.22-1.22ZM3.75 3.5c-.69 0-1.25.56-1.25 1.25V6h11V4.75c0-.69-.56-1.25-1.25-1.25H12v.75a.75.75 0 0 1-1.5 0V3.5h-5v.75a.75.75 0 0 1-1.5 0V3.5h-.25Z"/></svg>