<svg xmlns="http://www.w3.org/2000/svg" fill="currentColor" viewBox="0 0 16 16"><path d="M8.118 0c2.982 0 5.688 1.627 7.134 4.002a.75.75 0 0 1-1.281.78C12.788 2.84 10.559 1.5 8.118 1.5 4.448 1.5 1.5 4.418 1.5 8s2.948 6.5 6.618 6.5c.58 0 .882.336.882.75s-.3.75-.882.75C3.643 16 0 12.433 0 8s3.643-8 8.118-8Zm5.632 6.5a.75.75 0 0 1 .75.75V8h.75a.75.75 0 0 1 0 1.5h-2.317c-.307 0-.433.293-.433.5 0 .207.143.5.45.5h.9c.638 0 1.188.215 1.58.607.385.386.57.896.57 1.398a1.95 1.95 0 0 1-.584 1.403c-.25.244-.562.415-.916.509v.833a.75.75 0 0 1-1.5 0v-.75h-1.25a.75.75 0 0 1 0-1.5h2.1c.312 0 .65-.137.65-.495 0-.362-.33-.505-.65-.505h-.9C11.79 12 11 10.994 11 10c0-.987.78-2 2-2v-.75a.75.75 0 0 1 .75-.75ZM8.25 3a.75.75 0 0 1 .75.75v4.24a.75.75 0 0 1-.298.599l-3 2.263a.75.75 0 0 1-.904-1.197L7.5 7.616V3.75A.75.75 0 0 1 8.25 3Z"/></svg>