<svg xmlns="http://www.w3.org/2000/svg" fill="currentColor" viewBox="0 0 16 16"><path d="M8.118 0c3.567 0 6.754 2.331 7.842 5.507a.75.75 0 0 1-1.42.486C13.662 3.43 11.05 1.5 8.118 1.5 4.448 1.5 1.5 4.418 1.5 8s2.948 6.5 6.618 6.5c.535 0 .882.336.882.75s-.287.75-.882.75C3.643 16 0 12.433 0 8s3.643-8 8.118-8Zm7.132 14.5a.75.75 0 0 1 0 1.5h-3.5a.75.75 0 0 1 0-1.5h3.5Zm0-3a.75.75 0 0 1 0 1.5h-3.5a.75.75 0 0 1 0-1.5h3.5Zm-7-8.5a.75.75 0 0 1 .75.75v4.24a.75.75 0 0 1-.298.599l-3 2.263a.75.75 0 0 1-.904-1.197L7.5 7.616V3.75A.75.75 0 0 1 8.25 3Zm6.997 5.5a.75.75 0 0 1 0 1.5H11.75a.75.75 0 0 1 0-1.5h3.497Z"/></svg>