<svg xmlns="http://www.w3.org/2000/svg" fill="currentColor" viewBox="0 0 16 16"><path d="M10.25 0C11.216 0 12 .784 12 1.75v1.495a.75.75 0 0 1-1.5 0V1.75a.25.25 0 0 0-.25-.25H5.71a.25.25 0 0 0-.19.087L5 2.193V5.25a.75.75 0 0 1-.75.75H1.738c-.089.104-.238.37-.238.37v7.88c0 .138.112.25.25.25h1.499a.75.75 0 0 1 0 1.5H1.75A1.75 1.75 0 0 1 0 14.25V6.37c0-.417.15-.821.42-1.139L4.38.611A1.751 1.751 0 0 1 5.71 0h4.54ZM11 6a5 5 0 1 1 0 10 5 5 0 0 1 0-10Zm0 1.5a3.5 3.5 0 1 0 0 7 3.5 3.5 0 0 0 0-7Zm-.25 1a.75.75 0 0 1 .75.75v1.639l.969.775a.75.75 0 0 1-.938 1.172l-1.25-1A.75.75 0 0 1 10 11.25v-2a.75.75 0 0 1 .75-.75Z"/></svg>