<svg xmlns="http://www.w3.org/2000/svg" fill="currentColor" viewBox="0 0 16 16"><path d="M6.054.805a2.75 2.75 0 0 1 3.889 0l5.248 5.248a2.75 2.75 0 0 1 0 3.89c-.293.292-.781.615-1.229.167-.434-.434-.125-.936.168-1.228a1.25 1.25 0 0 0 0-1.768L8.882 1.866a1.25 1.25 0 0 0-1.767 0L1.867 7.114a1.25 1.25 0 0 0 0 1.768l5.248 5.248a1.25 1.25 0 0 0 1.767 0c.293-.293.848-.373 1.14-.08.293.292.213.847-.08 1.14a2.75 2.75 0 0 1-3.888 0L.805 9.942a2.75 2.75 0 0 1 0-3.889L6.055.805Zm2.939 5.197a3 3 0 0 1 3 3 2.98 2.98 0 0 1-.42 1.52l2.2 2.2a.75.75 0 0 1-1.06 1.06l-2.2-2.2a2.982 2.982 0 0 1-1.52.42 3 3 0 0 1 0-6Zm0 1.5a1.5 1.5 0 1 0 0 3 1.5 1.5 0 0 0 0-3Z"/></svg>