<svg xmlns="http://www.w3.org/2000/svg" fill="currentColor" viewBox="0 0 16 16"><path d="M15.25 2a.75.75 0 0 1 .75.75l-.004.577c0 .396-.358.673-.746.673H15v7.25A2.75 2.75 0 0 1 12.25 14h-8.5A2.75 2.75 0 0 1 1 11.25V4H.75A.75.75 0 0 1 0 3.25v-.5A.75.75 0 0 1 .75 2h14.5ZM2.5 11.25c0 .69.56 1.25 1.25 1.25h8.5c.69 0 1.25-.56 1.25-1.25V4h-11v7.25ZM5.75 8.5c.95 0 1.808.566 2.183 1.44.21.49-.141 1.06-.683 1.06h-3c-.542 0-.893-.57-.683-1.06A2.375 2.375 0 0 1 5.75 8.5Zm5.5-1a.75.75 0 0 1 0 1.5h-1.5a.75.75 0 0 1 0-1.5h1.5Zm-5.5-2a1.25 1.25 0 1 1 0 2.5 1.25 1.25 0 0 1 0-2.5Zm5.5-.5a.75.75 0 0 1 0 1.5h-2.5a.75.75 0 0 1 0-1.5h2.5Z"/></svg>