<svg xmlns="http://www.w3.org/2000/svg" fill="currentColor" viewBox="0 0 16 16"><path d="M8 0a8 8 0 1 1 0 16A8 8 0 0 1 8 0Zm0 1.5a6.5 6.5 0 0 0-6.48 6h1.807a3.25 3.25 0 0 0 2.538-1.22L7.29 4.5H5.75a.75.75 0 0 1 0-1.5h3.5a.75.75 0 0 1 .75.75v3.5a.75.75 0 0 1-1.5 0V5.389L7.037 7.218A4.751 4.751 0 0 1 3.327 9h-1.75A6.504 6.504 0 0 0 6.5 14.323V12.75a.75.75 0 0 1 1.5 0v1.75c.34 0 .674-.027 1-.077V10.75a.75.75 0 0 1 1.5 0v3.251a6.52 6.52 0 0 0 1-.526V7.75a.75.75 0 0 1 1.5 0v4.402A6.5 6.5 0 0 0 8 1.5Z"/></svg>