<svg xmlns="http://www.w3.org/2000/svg" fill="currentColor" viewBox="0 0 16 16"><path d="M7 3c.553 0 .91.442.938.896L8.418 8h2.832a.75.75 0 0 1 .56.252l2 2.25a.75.75 0 0 1 .17.67l-1 4.25a.75.75 0 0 1-.73.578h-6a.75.75 0 0 1-.627-.338l-3.36-5.115-.005-.007a1.616 1.616 0 0 1 .28-2.08l.001-.001c.598-.514 1.432-.608 2.01-.097.58.51 1.459 1.314 1.459 1.314l.03-5.728C6.04 3.377 6.526 3 7 3Zm.5 8.254a.75.75 0 0 1-.75.746c-.355 0-.522-.072-.66-.2L3.683 9.563a.127.127 0 0 0-.152.011c-.043.04-.03.124-.01.155L6.654 14.5h5l.775-3.294L10.913 9.5H7.51l-.01 1.754ZM7 0a4 4 0 0 1 4 4c0 .523-.138 1.095-.3 1.518a.75.75 0 0 1-1.4-.536c.114-.298.2-.687.2-.982a2.5 2.5 0 0 0-5 0c0 .4.21 1.01.21 1.01a.75.75 0 0 1-1.392.552C3.076 5.032 3 4.565 3 4a4 4 0 0 1 4-4Z"/></svg>