<svg xmlns="http://www.w3.org/2000/svg" fill="currentColor" viewBox="0 0 16 16"><path d="M12.5 6a.75.75 0 0 1 .704.492l2.75 7.5a.75.75 0 0 1-1.408.516L13.9 12.75h-2.8l-.645 1.758a.75.75 0 0 1-1.408-.516l2.799-7.606A.75.75 0 0 1 12.5 6ZM5.75 1a.75.75 0 0 1 .75.75v.75h3.75a.75.75 0 0 1 0 1.5H8.871a9.72 9.72 0 0 1-2.084 4.175l1.876 1.449c.352.272.44.692.213 1.038a.75.75 0 0 1-1.038.214s-.143-.075-.574-.403a90.163 90.163 0 0 1-1.51-1.207l-3.467 3.507v.002a.751.751 0 0 1-1.072-1.05L4.668 8.23c-.623-.65-1.212-1.385-1.59-2.148a.75.75 0 1 1 1.344-.666c.285.575.749 1.164 1.275 1.72A8.2 8.2 0 0 0 7.324 4H.75a.75.75 0 0 1 0-1.5H5v-.75A.75.75 0 0 1 5.75 1Zm5.898 10.25h1.704L12.5 8.928l-.852 2.322Z"/></svg>