<svg xmlns="http://www.w3.org/2000/svg" fill="currentColor" viewBox="0 0 16 16"><path d="M9.998 14a1 1 0 1 1 0 2 1 1 0 0 1 0-2Zm5.25.25a.75.75 0 0 1 0 1.5h-2.5a.75.75 0 0 1 0-1.5h2.5ZM6.75 0C7.44 0 8 .56 8 1.25v2.473s4.79 3.38 4.915 3.473c.424.317.821.664.69 1.203-.132.54-.762.7-1.206.545L8 7.406l.002 4.452a1 1 0 0 1-.583.91l-2.736 1.167c-.4.145-.888.04-1.088-.386-.2-.427-.087-.82.363-1.16L5.5 11.235V7.406L1.1 8.944C.656 9.1.108 8.791.02 8.284c-.087-.507.14-.77.564-1.087C.709 7.104 5.5 3.722 5.5 3.722V1.25C5.5.56 6.06 0 6.75 0Zm3.248 11a1 1 0 1 1 0 2 1 1 0 0 1 0-2Zm5.25.25a.75.75 0 0 1 0 1.5h-2.5a.75.75 0 0 1 0-1.5h2.5Z"/></svg>