<svg xmlns="http://www.w3.org/2000/svg" fill="currentColor" viewBox="0 0 16 16"><path d="M13.752 6.5a.75.75 0 0 1 .75.75V8h.75a.75.75 0 0 1 0 1.5h-2.317c-.259 0-.433.274-.433.5 0 .216.187.5.45.5h.9c.638 0 1.188.215 1.58.607.385.386.57.896.57 1.398a1.95 1.95 0 0 1-.584 1.403c-.25.244-.562.415-.916.509v.833a.75.75 0 0 1-1.5 0v-.75h-1.25a.75.75 0 1 1 0-1.5h2.1c.287 0 .65-.097.65-.495 0-.411-.357-.505-.65-.505h-.9c-1.16 0-1.95-1.006-1.95-2 0-.987.778-2 2-2v-.75a.75.75 0 0 1 .75-.75ZM6.75 0C7.44 0 8 .56 8 1.25v2.474l3.904 2.754a4.803 4.803 0 0 0-1.89 1.631L8 7.407v3.761l1.543 1.222c.446.339.562.732.362 1.159-.2.426-.67.539-1.087.386l-2.068-.773-2.067.773c-.4.145-.888.04-1.088-.386-.2-.427-.087-.82.362-1.16L5.5 11.235V7.406L1.1 8.944C.656 9.1.108 8.791.02 8.284c-.087-.507.14-.77.564-1.086C.709 7.105 5.5 3.723 5.5 3.723V1.25C5.5.56 6.06 0 6.75 0Z"/></svg>