<svg xmlns="http://www.w3.org/2000/svg" fill="currentColor" viewBox="0 0 16 16"><path d="M7.854.015a.75.75 0 0 1 .433.042l6.015 2.489A2.75 2.75 0 0 1 16 5.087v8.163A2.75 2.75 0 0 1 13.25 16H2.75A2.75 2.75 0 0 1 0 13.25V5.087a2.75 2.75 0 0 1 1.698-2.541S7.71.043 7.854.015ZM2.272 3.932a1.25 1.25 0 0 0-.645.605l2.084 1.621a.75.75 0 0 1-.922 1.184L1.5 6.339v6.515l1.54-1.196a.75.75 0 0 1 .92 1.184l-1.88 1.462c.194.123.423.196.67.196h10.5c.187 0 .363-.043.521-.116l-1.982-1.542a.75.75 0 0 1 .922-1.184l1.789 1.39v-6.71l-1.29 1.004a.75.75 0 0 1-.92-1.184l2.082-1.62a1.25 1.25 0 0 0-.645-.606L8 1.562l-5.728 2.37ZM8.25 3.5a.75.75 0 0 1 .75.75V5h.75a.75.75 0 0 1 0 1.5H7.433C7.174 6.5 7 6.72 7 7c0 .292.187.5.45.5h.9c.638 0 1.188.215 1.58.607.385.387.57.896.57 1.398a1.95 1.95 0 0 1-.584 1.403c-.25.244-.562.415-.916.509v.833a.75.75 0 0 1-1.5 0v-.75H6.25a.75.75 0 0 1 0-1.5h2.1c.287 0 .65-.09.65-.495C9 9.077 8.643 9 8.35 9h-.9C6.29 9 5.5 7.994 5.5 7c0-.987.72-2 2-2v-.75a.75.75 0 0 1 .75-.75Z"/></svg>