<svg xmlns="http://www.w3.org/2000/svg" fill="currentColor" viewBox="0 0 16 16"><path d="M2.25 4a.75.75 0 0 1 .75.75c0 .414-.273.754-.664.754-.39 0-.192-.004-.419-.004a.42.42 0 0 0-.417.417v7.425l1.034-1.112a.75.75 0 0 1 .549-.239h7c.193 0 .309-.053.358-.093a.138.138 0 0 0 .041-.047.23.23 0 0 0 .018-.101.75.75 0 0 1 1.5 0c0 .548-.235 1.013-.627 1.324-.373.296-.842.417-1.29.417H3.411L1.3 15.761A.75.75 0 0 1 0 15.25V5.917A1.92 1.92 0 0 1 1.917 4h.333Zm11.833-4A1.92 1.92 0 0 1 16 1.917v9.333a.75.75 0 0 1-1.299.51l-2.334-2.507a.75.75 0 0 1 1.099-1.023L14.5 9.342V1.917a.42.42 0 0 0-.417-.417H5.917a.42.42 0 0 0-.417.417v.33a.75.75 0 0 1-1.5 0v-.33A1.92 1.92 0 0 1 5.917 0h8.166ZM5.5 10a.75.75 0 1 1 0 1.5.75.75 0 0 1 0-1.5Zm.495-6C7.21 4 8 4.995 8 6c0 1.075-.72 1.668-1.192 2.001-.287.202-.386.269-.581.464C6.03 8.66 5.86 9 5.5 9a.75.75 0 0 1-.75-.75c0-.524.35-.857.546-1.018.189-.155.496-.35.646-.457.403-.284.558-.484.558-.775 0-.266-.205-.5-.505-.5-.3 0-.645.216-.735.3a.75.75 0 1 1-1.02-1.1c.261-.242.794-.7 1.755-.7Zm4.255 3a.75.75 0 1 1 0 1.5.75.75 0 0 1 0-1.5Zm0-4.5a.75.75 0 0 1 .75.75v2a.75.75 0 0 1-1.5 0v-2a.75.75 0 0 1 .75-.75Z"/></svg>