<svg xmlns="http://www.w3.org/2000/svg" fill="currentColor" viewBox="0 0 16 16"><path d="M10.249 0c.966 0 1.75.784 1.75 1.75V3h1.251A2.75 2.75 0 0 1 16 5.75v7.5A2.75 2.75 0 0 1 13.25 16H2.75A2.75 2.75 0 0 1 0 13.25v-7.5A2.75 2.75 0 0 1 2.75 3h1.249V1.75c0-.966.784-1.75 1.75-1.75h4.5ZM2.75 4.5c-.69 0-1.25.56-1.25 1.25v7.5c0 .69.56 1.25 1.25 1.25h10.5c.69 0 1.25-.56 1.25-1.25v-7.5c0-.69-.56-1.25-1.25-1.25H2.75ZM6 5.5a4 4 0 1 1 0 8 4 4 0 0 1 0-8Zm6.75 5.5a.75.75 0 0 1 0 1.5h-1a.75.75 0 0 1 0-1.5h1ZM5 7.209a2.5 2.5 0 0 0 1.501 4.74l-1.136-1.47A1.75 1.75 0 0 1 5 9.409v-2.2Zm1.5 2.2a.25.25 0 0 0 .052.153l1.27 1.644A2.487 2.487 0 0 0 8.5 9.5a2.5 2.5 0 0 0-2-2.45v2.36ZM12.75 9a.75.75 0 0 1 0 1.5h-1a.75.75 0 0 1 0-1.5h1Zm0-2a.75.75 0 0 1 0 1.5h-1a.75.75 0 0 1 0-1.5h1ZM5.749 1.5a.25.25 0 0 0-.25.25V3h5V1.75a.25.25 0 0 0-.25-.25h-4.5Z"/></svg>