<svg xmlns="http://www.w3.org/2000/svg" fill="currentColor" viewBox="0 0 16 16"><path d="M4 8a4 4 0 0 1 3.464 2h6.786a.75.75 0 0 1 .567.26c.142.164 1.057 1.574 1.057 1.574.326.489-.037 1.166-.624 1.166h-.75v.75a.75.75 0 0 1-1.5 0V13h-2v.75a.75.75 0 0 1-1.5 0V13H7.874A4.002 4.002 0 0 1 0 12a4 4 0 0 1 4-4Zm0 2a2 2 0 1 0 0 4 2 2 0 0 0 0-4Zm8-10a4 4 0 1 1-3.874 5H6.5v.75a.75.75 0 0 1-1.5 0V5H3v.75a.75.75 0 0 1-1.5 0V5H.75C.163 5-.2 4.323.126 3.834c0 0 .915-1.41 1.057-1.574A.75.75 0 0 1 1.75 2h6.786A3.998 3.998 0 0 1 12 0Zm0 2a2 2 0 1 0 0 4 2 2 0 0 0 0-4Z"/></svg>