<svg xmlns="http://www.w3.org/2000/svg" fill="currentColor" viewBox="0 0 16 16"><path d="m8.683.435 2.072 4.607 4.572.458c.607.06.89.812.474 1.258l-3.243 3.474.93 4.878c.116.605-.54 1.093-1.086.805l-4.403-2.317-4.403 2.317c-.545.288-1.201-.2-1.086-.805l.929-4.878L.197 6.758C-.22 6.312.064 5.56.67 5.5l4.57-.458L7.368.34C7.68-.153 8.443-.1 8.683.435ZM6.432 6.054a.75.75 0 0 1-.61.438l-3.495.35 2.468 2.644a.751.751 0 0 1 .189.653l-.71 3.722 3.375-1.776a.752.752 0 0 1 .7 0l3.374 1.776-.709-3.722a.75.75 0 0 1 .189-.653l2.467-2.645-3.494-.349a.75.75 0 0 1-.61-.438L8 2.57 6.432 6.054Z"/></svg>