<svg xmlns="http://www.w3.org/2000/svg" fill="currentColor" viewBox="0 0 16 16"><path d="M12 0c2.188 0 4 1.76 4 3.936v.314a.75.75 0 0 1-1.5 0v-.314c0-1.32-1.113-2.436-2.5-2.436-1.388 0-2.5 1.107-2.5 2.436V7h.75c.966 0 1.75.784 1.75 1.75v5.5A1.75 1.75 0 0 1 10.25 16h-8.5A1.75 1.75 0 0 1 0 14.25v-5.5C0 7.784.784 7 1.75 7H8V3.936C8 1.749 9.813 0 12 0ZM1.75 8.5a.25.25 0 0 0-.25.25v5.5c0 .138.112.25.25.25h8.5a.25.25 0 0 0 .25-.25v-5.5a.25.25 0 0 0-.25-.25h-8.5ZM6 10a1.5 1.5 0 1 1 0 3 1.5 1.5 0 0 1 0-3Z"/></svg>