<svg xmlns="http://www.w3.org/2000/svg" fill="currentColor" viewBox="0 0 16 16"><path d="M8 0a.75.75 0 0 1 0 1.5A6.47 6.47 0 0 0 1.5 8 6.47 6.47 0 0 0 8 14.5 6.47 6.47 0 0 0 14.5 8 .75.75 0 0 1 16 8c0 4.442-3.558 8-8 8a7.97 7.97 0 0 1-8-8c0-4.442 3.558-8 8-8Zm.25 3.25A.75.75 0 0 1 9 4v.75h.75a.75.75 0 0 1 0 1.5H7.433c-.25 0-.433.269-.433.5 0 .243.194.5.45.5h.9c.638 0 1.188.215 1.58.607.385.386.57.896.57 1.398a1.95 1.95 0 0 1-.584 1.403c-.25.244-.562.415-.916.509V12a.75.75 0 0 1-1.5 0v-.75H6.25a.75.75 0 0 1 0-1.5h2.1c.312 0 .65-.137.65-.495 0-.362-.33-.505-.65-.505h-.9c-1.16 0-1.95-1.006-1.95-2 0-1.106.905-2 2-2V4a.75.75 0 0 1 .75-.75ZM14.72.22a.75.75 0 1 1 1.06 1.06L14.56 2.5l1.22 1.22a.75.75 0 1 1-1.06 1.06L13.5 3.56l-1.22 1.22a.75.75 0 1 1-1.06-1.06l1.22-1.22-1.22-1.22A.75.75 0 1 1 12.28.22l1.22 1.22L14.72.22Z"/></svg>