<svg xmlns="http://www.w3.org/2000/svg" fill="currentColor" viewBox="0 0 16 16"><path d="M4.25 10a.75.75 0 0 1 0 1.5H2.118c1.409 1.823 3.647 3 5.882 3 2.754 0 5.345-1.543 6.575-4.077a.75.75 0 0 1 1.35.654C14.435 14.147 11.305 16 8 16c-2.435 0-4.821-1.127-6.5-2.917v1.167a.75.75 0 0 1-1.5 0v-3.5c0-.41.345-.75.75-.75h3.5Zm4.97-4.28a.75.75 0 1 1 1.06 1.06L9.06 8l1.22 1.22a.75.75 0 1 1-1.06 1.06L8 9.06l-1.22 1.22a.75.75 0 1 1-1.06-1.06L6.94 8 5.72 6.78a.75.75 0 1 1 1.06-1.06L8 6.94l1.22-1.22ZM8 0a8.864 8.864 0 0 1 6.5 2.834V1.75a.75.75 0 0 1 1.5 0v3.5c0 .406-.345.75-.75.75h-3.5a.75.75 0 0 1 0-1.5h2.179c-1.37-1.887-3.59-3-5.929-3-2.657 0-5.318 1.663-6.585 4.097a.75.75 0 0 1-1.33-.694C1.598 2 4.757 0 8 0Z"/></svg>