<svg xmlns="http://www.w3.org/2000/svg" fill="currentColor" viewBox="0 0 16 16"><path d="M8 0c.979 0 1.865.178 2.654.441a.75.75 0 0 1-.474 1.423A6.846 6.846 0 0 0 8 1.5 6.47 6.47 0 0 0 1.5 8 6.47 6.47 0 0 0 8 14.5 6.47 6.47 0 0 0 14.5 8c0-.809-.096-1.364-.312-2.01a.75.75 0 0 1 1.423-.473C15.88 6.32 16 7.037 16 8c0 4.442-3.558 8-8 8a7.97 7.97 0 0 1-8-8c0-4.442 3.558-8 8-8Zm0 12a.75.75 0 1 1 0 1.5.75.75 0 0 1 0-1.5Zm-3.5-1.25a.75.75 0 1 1 0 1.5.75.75 0 0 1 0-1.5Zm7 0a.75.75 0 1 1 0 1.5.75.75 0 0 1 0-1.5Zm1.836-8.625a.75.75 0 0 1 .997 1.097l-4.88 6.033c-.37.456-.905.745-1.503.745C6.865 10 6 9.105 6 8.031c0-.752.417-1.395 1.03-1.728l6.306-4.178ZM3.5 7.25a.75.75 0 1 1 0 1.5.75.75 0 0 1 0-1.5Zm9.25 0a.75.75 0 1 1 0 1.5.75.75 0 0 1 0-1.5Zm-4.916.32c-.176.116-.334.223-.334.461 0 .267.215.469.45.469.145 0 .248-.087.338-.19l1.816-2.246-2.27 1.505ZM4.5 3.75a.75.75 0 1 1 0 1.5.75.75 0 0 1 0-1.5ZM8 2.5A.75.75 0 1 1 8 4a.75.75 0 0 1 0-1.5Z"/></svg>