<svg xmlns="http://www.w3.org/2000/svg" fill="currentColor" viewBox="0 0 16 16"><path d="M7.75 2a.75.75 0 0 1 0 1.5c-.52 0-.957.12-1.412.35a3.306 3.306 0 0 0-1.82 2.955c0 .346-.01.67-.02.982a.75.75 0 0 1-.749.726c-1.17 0-2.249.712-2.249 1.994 0 1.1.894 1.993 1.987 1.993h8.382c.209 0 .48-.023.744-.082 1.055-.237 1.697-1.325 1.903-2.32a.75.75 0 0 1 1.468.304c-.23 1.116-.872 2.335-1.905 3.001-.628.446-1.453.597-2.21.597H3.487a3.493 3.493 0 0 1-.472-6.954c0-2.003.894-3.653 2.647-4.536A4.507 4.507 0 0 1 7.75 2Zm4.808.248 2.25 2.5a.75.75 0 0 1-1.116 1.004l-.942-1.048V9.25a.75.75 0 0 1-1.5 0V4.704l-.942 1.048a.75.75 0 0 1-1.116-1.004l2.25-2.5a.758.758 0 0 1 1.116 0Z"/></svg>