<svg xmlns="http://www.w3.org/2000/svg" fill="currentColor" viewBox="0 0 16 16"><path d="M10.798 7.543a.749.749 0 0 1 1.002.05l1.583 1.585a.75.75 0 0 1 .002 1.06l-5.53 5.542a.75.75 0 0 1-.53.22H5.742a.75.75 0 0 1-.749-.75v-1.583c0-.199.08-.39.22-.53l5.586-5.594ZM6.49 13.977v.523h.525l4.78-4.792-.524-.523-4.781 4.792ZM5.99 0a3.997 3.997 0 0 1 3.994 4 3.996 3.996 0 0 1-3.638 3.983C6.108 8 5.97 8 5.789 8c-2.375 0-4.291 1.911-4.291 4.25v.25h.749a.75.75 0 0 1 0 1.5H.749A.75.75 0 0 1 0 13.25v-1c0-2.323 1.387-4.319 3.378-5.227A3.992 3.992 0 0 1 1.997 4c0-2.21 1.788-4 3.994-4Zm7.526 5c.199 0 .39.078.53.219l1.584 1.584a.75.75 0 0 1 .002 1.06l-.787.791a.749.749 0 0 1-1.06.002l-1.583-1.584a.75.75 0 0 1-.002-1.06l.787-.791a.746.746 0 0 1 .53-.221ZM5.991 1.5A2.498 2.498 0 0 0 3.495 4c0 1.38 1.117 2.5 2.496 2.5A2.498 2.498 0 0 0 8.487 4c0-1.38-1.118-2.5-2.496-2.5Z"/></svg>