<svg xmlns="http://www.w3.org/2000/svg" fill="currentColor" viewBox="0 0 16 16"><path d="M9.25 5c.966 0 1.75.784 1.75 1.75v6.5A1.75 1.75 0 0 1 9.25 15h-6.5A1.75 1.75 0 0 1 1 13.25v-6.5C1 5.784 1.784 5 2.75 5h6.5Zm-6.5 1.5a.25.25 0 0 0-.25.25v6.5c0 .138.112.25.25.25h6.5a.25.25 0 0 0 .25-.25v-6.5a.25.25 0 0 0-.25-.25h-6.5ZM13.25 1c.966 0 1.75.784 1.75 1.75v6.5A1.75 1.75 0 0 1 13.25 11h-.5a.75.75 0 0 1 0-1.5h.5a.25.25 0 0 0 .25-.25v-6.5a.25.25 0 0 0-.25-.25h-6.5a.25.25 0 0 0-.25.25v.5a.75.75 0 0 1-1.5 0v-.5C5 1.784 5.784 1 6.75 1h6.5Z"/></svg>