<svg xmlns="http://www.w3.org/2000/svg" fill="currentColor" viewBox="0 0 16 16"><path d="M10.25 0C11.216 0 12 .784 12 1.75v4.496a.75.75 0 0 1-1.5 0V1.75a.25.25 0 0 0-.25-.25H5.71a.25.25 0 0 0-.19.087L5 2.193V5.25a.75.75 0 0 1-.75.75H1.738c-.089.104-.238.37-.238.37v7.88c0 .138.112.25.25.25h.5a.75.75 0 0 1 0 1.5h-.5A1.75 1.75 0 0 1 0 14.25V6.37c0-.417.15-.821.42-1.139L4.38.611A1.751 1.751 0 0 1 5.71 0h4.54Zm.25 9c1.67 0 3.022.803 3.922 1.547.552.457 1.138.998 1.503 1.627.1.206.1.446 0 .652-.349.609-.967 1.184-1.503 1.627-.9.744-2.253 1.547-3.922 1.547-1.67 0-3.022-.803-3.922-1.547a8.307 8.307 0 0 1-1.441-1.521l-.004-.005a.752.752 0 0 1 0-.854l.002-.002c.041-.06.55-.785 1.443-1.524C7.478 9.803 8.83 9 10.5 9Zm0 1.5c-1.495 0-2.828.915-3.787 2 .959 1.085 2.292 2 3.787 2 1.496 0 2.827-.915 3.786-2-.959-1.085-2.29-2-3.786-2Zm0 .537c.824 0 1.458.647 1.458 1.463 0 .816-.634 1.463-1.458 1.463A1.443 1.443 0 0 1 9.043 12.5c0-.816.633-1.463 1.457-1.463Z"/></svg>