<svg xmlns="http://www.w3.org/2000/svg" fill="currentColor" viewBox="0 0 16 16"><path d="M10.576.04a2.751 2.751 0 0 1 2.698 1.104l.118.175c.574.94 1.599 2.044 1.786 3.16h.002l.79 4.373a1.754 1.754 0 0 1-1.414 2.043h-.004l-.671.118 2.033 3.889A.757.757 0 0 1 15.251 16H9.754a.757.757 0 0 1-.664-1.098l1.751-3.348-7.723 1.372.37 1.873c.11.54-.245 1.093-.785 1.193-.477.089-1.09-.355-1.175-.802-.235-1.19-.497-2.378-.707-3.573L.042 7.34l-.001-.006a2.757 2.757 0 0 1 0-.948L.603 3.51l.001-.003a2.626 2.626 0 0 1 2.099-2.083h.006L10.574.04h.002Zm.417 14.459h3.018l-1.51-2.887-1.508 2.887Zm-9.37-6.845.674 3.698v.004c.018.099.115.17.22.153l11.821-2.105a.252.252 0 0 0 .155-.284l-.668-3.701L1.623 7.654Zm3.138.375a1 1 0 1 1 .517 1.933 1 1 0 0 1-.517-1.933Zm6.242-1.035a1 1 0 1 1-.001 2 1 1 0 0 1 .001-2Zm-.171-5.474-.002-.001L2.969 2.9h-.002c-.45.085-.801.437-.892.898l-.001-.001-.449 2.33L13.27 3.995l-1.157-1.893c-.27-.44-.778-.67-1.281-.582Z"/></svg>