<svg xmlns="http://www.w3.org/2000/svg" fill="currentColor" viewBox="0 0 16 16"><path d="M8 .592c.81 0 1.74-.794 2.47-.543.76.261 1.06 1.474 1.69 1.965.64.49 1.84.407 2.31 1.076.46.658.02 1.828.27 2.622C14.98 6.475 16 7.154 16 8c0 .846-1.02 1.525-1.26 2.288-.25.794.19 1.964-.27 2.622-.47.669-1.67.596-2.31 1.076-.63.481-.93 1.704-1.69 1.965-.73.25-1.66-.543-2.47-.543-.81 0-1.74.794-2.47.543-.76-.261-1.06-1.474-1.69-1.965-.64-.49-1.84-.407-2.31-1.076-.46-.658-.02-1.828-.27-2.622C1.02 9.525 0 8.846 0 8c0-.846 1.02-1.525 1.26-2.288.25-.794-.19-1.964.27-2.622.47-.67 1.67-.596 2.31-1.076.63-.48.93-1.704 1.69-1.965.73-.25 1.66.543 2.47.543Zm3.707 5.201a1 1 0 0 0-1.414 0L7.5 8.586 6.207 7.293a1 1 0 1 0-1.414 1.414l2 2a1 1 0 0 0 1.414 0l3.5-3.5a1 1 0 0 0 0-1.414Z"/></svg>