<svg xmlns="http://www.w3.org/2000/svg" fill="currentColor" viewBox="0 0 16 16"><path d="M14.25 13.5a.75.75 0 0 1 0 1.5H1.75a.75.75 0 0 1 0-1.5h12.5ZM1.75 9a.75.75 0 0 1 .75.75v1.5a.75.75 0 0 1-1.5 0v-1.5A.75.75 0 0 1 1.75 9Zm3-7a.75.75 0 0 1 .75.75v8.5a.75.75 0 0 1-1.5 0v-8.5A.75.75 0 0 1 4.75 2Zm3 4a.75.75 0 0 1 .75.75v4.5a.75.75 0 0 1-1.5 0v-4.5A.75.75 0 0 1 7.75 6Zm3.5-5a.75.75 0 0 1 .75.75v9.5a.75.75 0 0 1-1.5 0v-9.5a.75.75 0 0 1 .75-.75Zm3 4a.75.75 0 0 1 .75.75v5.5a.75.75 0 0 1-1.5 0v-5.5a.75.75 0 0 1 .75-.75Z"/></svg>