<svg xmlns="http://www.w3.org/2000/svg" fill="currentColor" viewBox="0 0 16 16"><path d="M14.25 13.5a.75.75 0 0 1 0 1.5H1.75a.75.75 0 0 1 0-1.5h12.5ZM1.75 7a.75.75 0 0 1 .75.75v3.5a.75.75 0 0 1-1.5 0v-3.5A.75.75 0 0 1 1.75 7Zm3-2a.75.75 0 0 1 .75.75v5.5a.75.75 0 0 1-1.5 0v-5.5A.75.75 0 0 1 4.75 5ZM8 3a.75.75 0 0 1 .75.75v7.5a.75.75 0 0 1-1.5 0v-7.5A.75.75 0 0 1 8 3Zm3.25 2a.75.75 0 0 1 .75.75v5.5a.75.75 0 0 1-1.5 0v-5.5a.75.75 0 0 1 .75-.75Zm3-4a.75.75 0 0 1 .75.75v9.5a.75.75 0 0 1-1.5 0v-9.5a.75.75 0 0 1 .75-.75Z"/></svg>