<svg xmlns="http://www.w3.org/2000/svg" fill="currentColor" viewBox="0 0 16 16"><path d="M1.75 1a.75.75 0 0 1 .75.75v11.5c0 .138.112.25.25.25h11.5a.75.75 0 0 1 0 1.5H2.75A1.75 1.75 0 0 1 1 13.25V1.75A.75.75 0 0 1 1.75 1ZM5 10a1 1 0 1 1 0 2 1 1 0 0 1 0-2Zm4-1a.75.75 0 0 1 .75.75v1.5a.75.75 0 0 1-1.5 0v-1.5A.75.75 0 0 1 9 9Zm4 1a1 1 0 1 1 0 2 1 1 0 0 1 0-2Zm0-4a.75.75 0 0 1 .75.75v1.5a.75.75 0 0 1-1.5 0v-1.5A.75.75 0 0 1 13 6ZM5 3a.75.75 0 0 1 .75.75v3.5a.75.75 0 0 1-1.5 0v-3.5A.75.75 0 0 1 5 3Zm4 3a1 1 0 1 1 0 2 1 1 0 0 1 0-2Zm0-5a.75.75 0 0 1 .75.75v2.5a.75.75 0 0 1-1.5 0v-2.5A.75.75 0 0 1 9 1Zm4 2a1 1 0 1 1 0 2 1 1 0 0 1 0-2Z"/></svg>