<svg xmlns="http://www.w3.org/2000/svg" fill="currentColor" viewBox="0 0 16 16"><path d="M1.5 8.25a2.75 2.75 0 0 1 3.078-2.731 2.737 2.737 0 0 1 2.403 2.403 2.747 2.747 0 0 1-.757 2.24C7.557 10.79 8.5 12.08 8.5 13.624v.625a.75.75 0 0 1-.75.75h-7a.75.75 0 0 1-.75-.75v-.625c0-1.543.942-2.835 2.274-3.464A2.739 2.739 0 0 1 1.5 8.25ZM15.25 1a.75.75 0 0 1 .75.75v12.5a.75.75 0 0 1-.75.75h-4a.75.75 0 0 1 0-1.5h3.25v-11H9v1.25a.75.75 0 0 1-1.5 0v-2A.75.75 0 0 1 8.25 1h7ZM4.115 11.25c-1.447 0-2.537 1.043-2.608 2.25h5.486c-.071-1.207-1.161-2.25-2.608-2.25h-.27ZM9.72 6.22a.75.75 0 0 1 1.06 0l2 1.997a.772.772 0 0 1 0 1.06l-2 2.003a.75.75 0 0 1-1.06-1.06l.718-.72H8.75a.75.75 0 0 1 0-1.5h1.69l-.72-.72a.75.75 0 0 1 0-1.06Zm-5.384.783A1.248 1.248 0 0 0 3 8.25a1.251 1.251 0 1 0 2.48-.235c-.098-.574-.591-1.012-1.144-1.012Z"/></svg>