<svg xmlns="http://www.w3.org/2000/svg" fill="currentColor" viewBox="0 0 16 16"><path d="M12.25 4a2.75 2.75 0 0 1 2.643 2.002h.157c.524 0 .95.427.95.952v2.103a.951.951 0 0 1-.95.952H15v.233c0 1.974-2.013 3.308-3.827 2.535L8.881 11.8a2.248 2.248 0 0 0-1.762 0l-2.292.977C3.013 13.55 1 12.217 1 10.242v-.233H.95A.951.951 0 0 1 0 9.057V6.954c0-.525.425-.952.95-.952h.157A2.75 2.75 0 0 1 3.751 4h8.498Zm-8.5 1.503c-.69 0-1.25.56-1.25 1.252v3.487a1.25 1.25 0 0 0 1.74 1.152l2.292-.976c.938-.4 1.998-.4 2.936 0l2.292.976a1.25 1.25 0 0 0 1.74-1.152V6.755a1.25 1.25 0 0 0-1.25-1.252h-8.5Zm1.5 1.501a.75.75 0 0 1 0 1.503h-.5a.75.75 0 0 1 0-1.503h.5Z"/></svg>