<svg xmlns="http://www.w3.org/2000/svg" fill="currentColor" viewBox="0 0 16 16"><path d="M7.253 1a.75.75 0 0 1 .05 1.5 5.99 5.99 0 0 0-5.803 6c0 3.277 2.801 6 6 6 3.203 0 5.876-2.572 6.001-5.777a.75.75 0 1 1 1.498.058C14.842 12.79 11.51 16 7.5 16 3.486 16 0 12.618 0 8.5A7.49 7.49 0 0 1 7.253 1Zm.497 3a.75.75 0 0 1 .75.75v.75h.75a.75.75 0 0 1 0 1.5H6.933c-.25 0-.433.269-.433.5 0 .243.194.5.45.5h.9c.638 0 1.188.215 1.58.607.385.386.57.896.57 1.398a1.95 1.95 0 0 1-.584 1.403c-.25.244-.562.415-.916.509v.833a.75.75 0 0 1-1.5 0V12H5.75a.75.75 0 0 1 0-1.5h2.1c.312 0 .65-.137.65-.495 0-.362-.33-.505-.65-.505h-.9C5.79 9.5 5 8.494 5 7.5c0-1.106.905-2 2-2v-.75A.75.75 0 0 1 7.75 4ZM15 4a1 1 0 1 1 0 2 1 1 0 0 1 0-2ZM14.72.22a.75.75 0 1 1 1.06 1.06l-4.25 4.25a.75.75 0 1 1-1.06-1.06L14.72.22ZM11 0a1 1 0 1 1 0 2 1 1 0 0 1 0-2Z"/></svg>