<svg xmlns="http://www.w3.org/2000/svg" fill="currentColor" viewBox="0 0 16 16"><path d="M3.438 1.887A3.315 3.315 0 0 1 7.9 1.841a3.307 3.307 0 0 1 .105 4.838l-3.69 3.594a1.88 1.88 0 0 0 .074 2.763 1.885 1.885 0 0 0 2.572-.085l6.478-6.472h-1.69a.75.75 0 1 1 0-1.499h3.5a.75.75 0 0 1 .75.75v3.496a.75.75 0 0 1-1.5 0V7.539L8.022 14.01a3.386 3.386 0 0 1-4.62.154A3.378 3.378 0 0 1 3.27 9.2l3.69-3.595a1.81 1.81 0 0 0-.057-2.646 1.815 1.815 0 0 0-2.443.025L2.993 4.348A1.5 1.5 0 1 1 1.5 2.982c.22 0 .428.049.616.134l1.321-1.229Z"/></svg>