<svg xmlns="http://www.w3.org/2000/svg" fill="currentColor" viewBox="0 0 16 16"><path d="M12.25 1A2.75 2.75 0 0 1 15 3.75v8.5A2.75 2.75 0 0 1 12.25 15h-8.5A2.75 2.75 0 0 1 1 12.25v-8.5A2.75 2.75 0 0 1 3.75 1h8.5Zm-8.5 1.5c-.69 0-1.25.56-1.25 1.25v8.5c0 .69.56 1.25 1.25 1.25h8.5c.69 0 1.25-.56 1.25-1.25V12H8.75A2.75 2.75 0 0 1 6 9.25v-2.5A2.75 2.75 0 0 1 8.75 4h4.75v-.25c0-.69-.56-1.25-1.25-1.25h-8.5Zm5 3c-.69 0-1.25.56-1.25 1.25v2.5c0 .69.56 1.25 1.25 1.25h4.75v-5H8.75ZM9.5 7a1 1 0 1 1 0 2 1 1 0 0 1 0-2Z"/></svg>