<svg xmlns="http://www.w3.org/2000/svg" fill="currentColor" viewBox="0 0 16 16"><path d="M12.25 1A2.75 2.75 0 0 1 15 3.75v8.5A2.75 2.75 0 0 1 12.25 15h-8.5A2.75 2.75 0 0 1 1 12.25v-8.5A2.75 2.75 0 0 1 3.75 1h8.5Zm-8.5 1.5c-.69 0-1.25.56-1.25 1.25v8.5c0 .69.56 1.25 1.25 1.25h8.5c.69 0 1.25-.56 1.25-1.25v-8.5c0-.69-.56-1.25-1.25-1.25h-8.5ZM8 5.5a3.5 3.5 0 1 1 0 7 3.5 3.5 0 0 1 0-7ZM8 7a2 2 0 0 0-1.968 2.346 1.92 1.92 0 0 1 1.955-.086l.269.143c.188.1.413.11.61.025l.835-.364A.75.75 0 0 1 10 9.003V9a2 2 0 0 0-2-2Zm3-4a1 1 0 1 1 0 2 1 1 0 0 1 0-2Zm-4.752.25a.75.75 0 0 1 0 1.5H4.751a.75.75 0 1 1 0-1.5h1.497Z"/></svg>