<svg xmlns="http://www.w3.org/2000/svg" fill="currentColor" viewBox="0 0 16 16"><path d="M8.269 10c.415 0 .752.336.752.75v3.5a.751.751 0 0 1-1.506 0v-3.5c0-.414.338-.75.754-.75ZM5.258 9c.415 0 .752.336.752.75v3.5a.751.751 0 0 1-1.506 0v-3.5c0-.414.338-.75.754-.75Zm6.022 0c.415 0 .752.336.752.75v3.5a.751.751 0 0 1-1.505 0v-3.5c0-.414.337-.75.753-.75Zm2.151-2.62a.754.754 0 0 1 1.023-.291C15.44 6.633 16 7.69 16 8.896c0 1.196-.574 2.126-1.213 2.846a.756.756 0 0 1-1.064.066.75.75 0 0 1-.065-1.06c.52-.584.836-1.172.837-1.852 0-.74-.331-1.252-.77-1.496a.749.749 0 0 1-.294-1.02ZM7.831 1c.492 0 .966.074 1.413.212A.749.749 0 1 1 8.8 2.645c-1.15-.354-2.548-.082-3.433.74-.585.543-.955 1.334-.955 2.336 0 .414-.337.75-.753.75-1.205 0-2.153.82-2.153 2.086 0 .753.407 1.664 1.1 2.023a.75.75 0 0 1 .32 1.012.754.754 0 0 1-1.015.32C.723 11.294.001 9.867 0 8.556 0 6.842 1.194 5.233 2.955 5c.15-1.086.64-2.018 1.386-2.712C5.243 1.45 6.476 1 7.831 1Zm4.885 1.262a.755.755 0 0 1 1.061-.081c.316.27.352.743.081 1.057l-3.01 3.5a.763.763 0 0 1-1.104.042l-1.506-1.5a.748.748 0 0 1 0-1.06.755.755 0 0 1 1.065 0l.93.926 2.482-2.884Z"/></svg>