<svg xmlns="http://www.w3.org/2000/svg" fill="currentColor" viewBox="0 0 16 16"><path d="M15.824 9.396a.604.604 0 0 1 0 .843l-1.407 1.43c.005.018.72 2.68.826 3.26.108.582-.373.707-.513.695a.551.551 0 0 1-.42-.235l-1.357-2.233-1.178 1.198.226 1.085a.473.473 0 0 1-.125.428.456.456 0 0 1-.73-.112l-.55-1.047-1.028-.556a.472.472 0 0 1-.11-.743.458.458 0 0 1 .421-.127l1.068.23 1.178-1.198-2.197-1.38c-.252-.158-.276-.485-.132-.704.184-.28.508-.244.788-.17l3.005.766 1.407-1.43a.58.58 0 0 1 .828 0ZM3.501 9c.234 0 .449.137.547.35l.732 1.587 1.703.243a.602.602 0 0 1 .352 1.011l-1.241 1.301.31 1.804a.602.602 0 0 1-.886.628l-1.517-.85-1.519.85a.602.602 0 0 1-.886-.628l.31-1.804-1.24-1.3a.604.604 0 0 1 .35-1.012l1.704-.243.776-1.664c.11-.168.3-.273.505-.273Zm9.249-9a.75.75 0 0 1 .75.75V1h.75a.75.75 0 0 1 0 1.5h-2.317c-.25 0-.433.269-.433.5 0 .243.194.5.45.5h.9c.638 0 1.188.215 1.58.607.385.386.57.896.57 1.398a1.95 1.95 0 0 1-.584 1.403c-.25.244-.562.415-.916.509v.333a.75.75 0 0 1-1.5 0V7.5h-1.25a.75.75 0 0 1 0-1.5h2.1c.312 0 .65-.137.65-.495 0-.362-.33-.505-.65-.505h-.9C10.79 5 10 3.994 10 3c0-1.106.905-2 2-2V.75a.75.75 0 0 1 .75-.75ZM6.064.023A.75.75 0 0 1 7 .75V5.5A1.5 1.5 0 1 1 5.5 4V1.715l-2.5.64V5.5A1.5 1.5 0 1 1 1.5 4V1.772a.75.75 0 0 1 .564-.726l4-1.023Z"/></svg>