<svg xmlns="http://www.w3.org/2000/svg" fill="currentColor" viewBox="0 0 16 16"><path d="M6.5 1c.199 0 .39.08.53.22L8.31 2.5h4.94A2.75 2.75 0 0 1 16 5.25v7A2.75 2.75 0 0 1 13.25 15H2.75A2.75 2.75 0 0 1 0 12.25v-8.5A2.75 2.75 0 0 1 2.75 1H6.5ZM2.75 2.5c-.69 0-1.25.56-1.25 1.25v8.5c0 .69.56 1.25 1.25 1.25h10.5c.69 0 1.25-.56 1.25-1.25v-7c0-.69-.56-1.25-1.25-1.25H8a.75.75 0 0 1-.53-.22L6.19 2.5H2.75ZM5.5 9A2.5 2.5 0 0 1 8 11.5a.5.5 0 0 1-.5.5h-4a.515.515 0 0 1-.5-.5A2.5 2.5 0 0 1 5.5 9Zm6.75-.5a.75.75 0 0 1 0 1.5h-1.5a.75.75 0 0 1 0-1.5h1.5ZM5.5 5a1.5 1.5 0 1 1 0 3 1.5 1.5 0 0 1 0-3Zm6.75 1a.75.75 0 0 1 0 1.5h-1.5a.75.75 0 0 1 0-1.5h1.5Z"/></svg>