<svg xmlns="http://www.w3.org/2000/svg" fill="currentColor" viewBox="0 0 16 16"><path d="M11.256 0a.75.75 0 0 1 .75.75V2h.25a2.75 2.75 0 0 1 2.752 2.75v.5a.75.75 0 0 1-1.5 0v-.5c0-.69-.56-1.25-1.251-1.25h-.25v.75a.75.75 0 0 1-1.501 0V3.5H5.503v.75a.75.75 0 0 1-1.501 0V3.5h-.25A1.25 1.25 0 0 0 2.5 4.75v8.5c0 .69.56 1.25 1.25 1.25h8.506c.69 0 1.25-.56 1.25-1.25v-.5a.75.75 0 0 1 1.501 0v.5a2.75 2.75 0 0 1-2.75 2.75H3.752A2.75 2.75 0 0 1 1 13.25v-8.5A2.75 2.75 0 0 1 3.752 2h.25V.75a.75.75 0 0 1 1.5 0V2h5.004V.75a.75.75 0 0 1 .75-.75Zm1.47 6.47a.751.751 0 0 1 1.062 0l2 1.997a.772.772 0 0 1 0 1.06l-2 2.003a.751.751 0 0 1-1.061-1.06l.719-.72h-2.687a.75.75 0 1 1 0-1.5h2.689l-.721-.72a.75.75 0 0 1 0-1.06ZM5.003 8a1 1 0 1 1 0 2 1 1 0 0 1 0-2Zm3.002 0a1 1 0 1 1 0 2 1 1 0 0 1 0-2Z"/></svg>