<svg xmlns="http://www.w3.org/2000/svg" fill="currentColor" viewBox="0 0 16 16"><path d="M4.14 6.535H1.666a6.785 6.785 0 0 0 0 2.93h2.476a10.104 10.104 0 0 1 0-2.93Zm1.91 4.43c.574 1.675 1.496 3 1.907 3.533h.085c.41-.533 1.334-1.858 1.907-3.533H6.051Zm-3.844 0a6.456 6.456 0 0 0 3.707 3.196 13.702 13.702 0 0 1-1.436-3.196H2.206Zm9.317 0a13.695 13.695 0 0 1-1.437 3.196 6.455 6.455 0 0 0 3.708-3.196h-2.27Zm-1.437-9.127a13.697 13.697 0 0 1 1.437 3.197h2.27a6.456 6.456 0 0 0-3.707-3.197ZM7.957 1.5c-.41.533-1.332 1.858-1.906 3.534h3.898C9.375 3.36 8.453 2.033 8.042 1.501h-.085Zm-2.044.337a6.456 6.456 0 0 0-3.707 3.197h2.27a13.704 13.704 0 0 1 1.437-3.197ZM5.66 9.465h4.68a8.639 8.639 0 0 0 0-2.93H5.66a8.64 8.64 0 0 0 0 2.93Zm6.2 0h2.475a6.787 6.787 0 0 0 0-2.93h-2.476a10.06 10.06 0 0 1 0 2.93ZM16 8a7.964 7.964 0 0 1-7.41 7.976 7.64 7.64 0 0 1-1.182 0A7.964 7.964 0 0 1 0 8 7.964 7.964 0 0 1 7.408.024a7.903 7.903 0 0 1 1.183 0A7.964 7.964 0 0 1 16 8Z"/></svg>