<svg xmlns="http://www.w3.org/2000/svg" fill="currentColor" viewBox="0 0 16 16"><path d="M8 1a4 4 0 0 1 2.616 7.023C12.61 8.931 14 10.927 14 13.25v1a.75.75 0 0 1-.75.75H2.75a.75.75 0 0 1-.75-.75v-1c0-2.323 1.39-4.319 3.383-5.227A4 4 0 0 1 8 1Zm3.3 12.5h1.2v-.25c0-1.14-.457-2.18-1.2-2.944V13.5ZM7.798 9C5.418 9 3.5 10.911 3.5 13.25v.25h3.17l3.1-4.207A4.325 4.325 0 0 0 8.202 9h-.404ZM5.954 3.564a2.5 2.5 0 1 0 4.523 1.755L5.954 3.564ZM8 2.5a2.51 2.51 0 0 0-.509.052l2.53.981A2.493 2.493 0 0 0 8 2.5Z"/></svg>