<svg xmlns="http://www.w3.org/2000/svg" fill="currentColor" viewBox="0 0 16 16"><path d="M4.51 0a4.47 4.47 0 0 1 4.511 4.51c0 .407-.053.798-.15 1.17l6.617 6.617a1.754 1.754 0 0 1 0 2.48l-.71.71a1.755 1.755 0 0 1-2.48 0L5.684 8.87a4.64 4.64 0 0 1-1.172.15A4.47 4.47 0 0 1 0 4.511c0-.654.092-1.347.426-1.92a.751.751 0 0 1 1.155-.114l1.726 1.718.894-.89-1.723-1.723A.753.753 0 0 1 2.679.375C3.266.088 3.918 0 4.511 0Zm3.687 7.133a4.43 4.43 0 0 1-1.062 1.063l6.226 6.227a.25.25 0 0 0 .355 0l.709-.71a.251.251 0 0 0 0-.353L8.197 7.133Zm-2.4-4.357a.774.774 0 0 1 0 1.064l-1.96 1.95a.751.751 0 0 1-1.06 0L1.504 4.52C1.509 6.21 2.82 7.518 4.51 7.518c1.693 0 3.007-1.314 3.007-3.007 0-1.688-1.307-3-2.993-3.007l1.273 1.272Z"/></svg>