<svg xmlns="http://www.w3.org/2000/svg" fill="currentColor" viewBox="0 0 16 16"><path d="M10.25 0C11.216 0 12 .784 12 1.75v.5a.75.75 0 0 1-1.5 0v-.5a.25.25 0 0 0-.25-.25H5.71a.25.25 0 0 0-.19.087L5 2.193V5.25a.75.75 0 0 1-.75.75H1.738c-.089.104-.238.37-.238.37v7.88c0 .138.112.25.25.25h.499a.75.75 0 0 1 0 1.5H1.75A1.75 1.75 0 0 1 0 14.25V6.37c0-.417.15-.821.42-1.139L4.38.611A1.751 1.751 0 0 1 5.71 0h4.54Zm.685 7.543a.75.75 0 0 1 1.004.05l1.586 1.585a.75.75 0 0 1 .001 1.06L7.988 15.78a.75.75 0 0 1-.53.22H5.87a.75.75 0 0 1-.75-.75v-1.583c0-.199.079-.39.22-.53l5.594-5.594Zm-4.314 6.434v.523h.526l4.787-4.792-.525-.523-4.788 4.792Zm7.568-8.758 1.586 1.584a.75.75 0 0 1 .002 1.06l-.788.791a.75.75 0 0 1-1.062.002l-1.585-1.584a.75.75 0 0 1-.003-1.06l.903-.885c.281-.22.7-.154.947.092Z"/></svg>