<svg xmlns="http://www.w3.org/2000/svg" fill="currentColor" viewBox="0 0 16 16"><path d="M11.621.521a1.75 1.75 0 0 1 2.48 0l1.383 1.387a1.75 1.75 0 0 1-.005 2.477L4.03 15.78a.75.75 0 0 1-.53.22H.75a.75.75 0 0 1-.75-.75V12.5a.75.75 0 0 1 .219-.53L11.62.522ZM15.25 10a.75.75 0 0 1 .75.75v3.5A1.75 1.75 0 0 1 14.251 16H10.75a.75.75 0 0 1 0-1.5h3.501a.25.25 0 0 0 .249-.25v-3.5a.75.75 0 0 1 .75-.75ZM1.808 12.5l1.691 1.69 7.936-7.897-1.743-1.711L1.808 12.5ZM5.25 0a.75.75 0 0 1 0 1.5H1.749a.25.25 0 0 0-.249.25v3.5a.75.75 0 0 1-1.5 0v-3.5C0 .784.782 0 1.749 0H5.25Zm7.788 1.58a.25.25 0 0 0-.354 0L10.75 3.52l1.747 1.715 1.924-1.914a.25.25 0 0 0 0-.353L13.038 1.58Z"/></svg>