<svg xmlns="http://www.w3.org/2000/svg" fill="currentColor" viewBox="0 0 16 16"><path d="M15.25 0a.75.75 0 0 1 0 1.5H14v.75a.75.75 0 0 1-1.5 0V1.5H11v.75a.75.75 0 0 1-1.5 0V1.5H8v.75a.75.75 0 0 1-1.5 0V1.5H5v.75a.75.75 0 0 1-1.5 0V1.5h-2V4h.75a.75.75 0 0 1 0 1.5H1.5V7h.75a.75.75 0 0 1 0 1.5H1.5V10h.75a.75.75 0 0 1 0 1.5H1.5V13h.75a.75.75 0 0 1 0 1.5H1.5v.75a.75.75 0 0 1-1.5 0V.75A.75.75 0 0 1 .75 0h14.5Zm-3 6a.75.75 0 0 1 0 1.5c-.24 0-.465.064-.617.265l-1.671 2.252 1.668 2.213v.001c.153.203.378.269.62.269a.75.75 0 0 1 0 1.5h-.081a2.17 2.17 0 0 1-1.736-.868l-1.404-1.86-1.377 1.856-.002.003A2.249 2.249 0 0 1 5.912 14H5.75a.75.75 0 0 1 0-1.5h.162a.74.74 0 0 0 .538-.269l1.639-2.208-1.625-2.155A.948.948 0 0 0 5.75 7.5a.75.75 0 0 1 0-1.5c.64 0 1.255.276 1.704.728l.194.22 1.373 1.82 1.408-1.896.003-.003c.37-.495.99-.869 1.737-.869h.081Z"/></svg>