<svg xmlns="http://www.w3.org/2000/svg" viewBox="0 0 13 25">
	<path data-shape-id="fill-1" d="M10.6,23c1.4-1.6,1-4.3,1-4.3s-2.7-0.1-4.2,1.4s-1,4.3-1,4.3S9.2,24.6,10.6,23z"/>
	<path data-shape-id="fill-2" d="M5,16.2c1.4,1.6,1,4.3,1,4.3s-2.7,0.1-4.2-1.4s-1-4.3-1-4.3S3.6,14.6,5,16.2z"/>
	<path data-shape-id="fill-3" d="M11.2,16.3c1.4-1.6,1-4.3,1-4.3S9.4,11.8,8,13.4s-1,4.3-1,4.3S9.8,17.8,11.2,16.3z"/>
	<path data-shape-id="fill-4" d="M5,9.8c1.4,1.6,1,4.3,1,4.3s-2.7,0.1-4.2-1.4s-1-4.3-1-4.3S3.6,8.2,5,9.8z"/>
	<path data-shape-id="fill-5" d="M11.2,9.8c1.4-1.6,1-4.3,1-4.3S9.4,5.3,8,6.9s-1,4.3-1,4.3S9.8,11.4,11.2,9.8z"/>
	<path data-shape-id="fill-6" d="M7.3,4.2C7.1,2.1,4.9,0.5,4.9,0.5s-2,1.8-1.9,4c0.1,2.1,2.3,3.7,2.3,3.7S7.4,6.4,7.3,4.2z"/>
</svg>
