<svg xmlns="http://www.w3.org/2000/svg" viewBox="0 0 25 25">
	<path d="M8.8,24.5C8.8,24.5,8.8,24.5,8.8,24.5c-0.1,0-0.2-0.1-0.2-0.1l-2.9-4.9l-0.2-0.2l-4.8-2.9
		c-0.1,0-0.1-0.1-0.1-0.2c0-0.1,0-0.1,0.1-0.2c0-0.1,0.9-1.2,1-1.4c0,0,0,0,0,0c0.1-0.1,0.2-0.1,0.2-0.1l4.7,1.6l5.5-6.7L2.3,2.8
		C2.2,2.7,2.2,2.6,2.2,2.5l0.6-1.1C2.9,1.3,3,1.2,3.1,1.3l12.4,4.8l3.5-3.4c0.9-0.8,1.8-1.4,2.7-1.8c0.2-0.1,0.4-0.1,0.5-0.2
		c0,0,1.1-0.4,1.8,0.3c0.7,0.7,0.3,1.7,0.3,1.8c-0.1,0.2-0.1,0.4-0.2,0.5c-0.4,0.9-1,1.8-1.8,2.7l-3.4,3.5l4.8,12.4
		c0,0.1,0,0.2-0.1,0.3l-1.1,0.6c-0.1,0.1-0.2,0-0.3-0.1l-6.7-9.8l-6.7,5.5l1.6,4.7c0,0.1,0,0.2-0.1,0.2c0,0,0,0,0,0
		c-0.1,0.1-1.3,1-1.4,1C8.9,24.5,8.8,24.5,8.8,24.5z"/>
</svg>
