<svg xmlns="http://www.w3.org/2000/svg" viewBox="0 0 54 25">
<path data-shape-id="fill-1" d="M6.7,12.1h-6V0.5h6V12.1z"/>
<path data-shape-id="fill-2" d="M13.6,12.1h-6V0.5h6V12.1z"/>
<path data-shape-id="fill-3" d="M20.5,12.1h-6V0.5h6V12.1z"/>
<path data-shape-id="fill-4" d="M27.6,12.1h-6V0.5h6V12.1z"/>
<path data-shape-id="fill-5" d="M34.7,12.1h-6V0.5h6V12.1z"/>
<path data-shape-id="fill-6" d="M41.8,12.1h-6V0.5h6V12.1z"/>
<path fill="grey" d="M51.1,8.1C51,7.9,50.5,6.3,49,6.3h-5.9v6.8H0.7v7.3H3h0.4c-0.1,0.3-0.1,0.6-0.1,0.8c0,1.8,1.4,3.2,3.2,3.2
	c1.8,0,3.2-1.4,3.2-3.2c0-0.3-0.1-0.6-0.1-0.8h3.9c-0.1,0.3-0.1,0.6-0.1,0.8c0,1.8,1.4,3.2,3.2,3.2c1.8,0,3.2-1.4,3.2-3.2
	c0-0.3-0.1-0.6-0.1-0.8h3.9c-0.1,0.3-0.1,0.6-0.1,0.8c0,1.8,1.4,3.2,3.2,3.2c1.8,0,3.2-1.4,3.2-3.2c0-0.3-0.1-0.6-0.1-0.8h14
	c-0.1,0.3-0.1,0.6-0.1,0.8c0,1.8,1.4,3.2,3.2,3.2c1.8,0,3.2-1.4,3.2-3.2c0-0.3-0.1-0.6-0.1-0.8h0.4h3.2v-6.8L51.1,8.1z"/>
</svg>
