<svg xmlns="http://www.w3.org/2000/svg" xmlns:xlink="http://www.w3.org/1999/xlink" style="isolation:isolate" viewBox="0 0 20 20" version="1.1" shape-rendering="crispEdges"><path d="M3 20v-3h1v-1h4v-2H6v-1H5v-1H4v-1H3V9H2V7h1V4h1V3h1V2h10v1h1v1h1v3h1v2h-1v2h-1v1h-1v1h-1v1h-2v2h4v1h1v3H3z" fill="#FFDBAC"/><path d="M14 14v-1h1v-1h1v-1h1V9h1V7h-1V4h-1V3h-1V2H5v1H4v1H3v3H2v2h1v2h1v1h1v1h1v1h8z" fill="#FFF" fill-opacity=".1"/><path d="M5 7h3v3H5V7zm7 0h3v3h-3V7z" fill="#FFF"/><path d="M6 8h1v1H6V8zm7 0h1v1h-1V8z" fill="#647b90"/><path d="M6 5h1v1h1v1H5V6h1V5zm7 0h1v1h1v1h-3V6h1V5z" fill-rule="evenodd" fill="#8c7058"/><path d="M9 12v1h2v-1h1v-1h-1v1H9z" fill="#e32153"/><path d="M4 20v-2h1v-1h1v-1h2v1h1v1h2v-1h1v-1h2v1h1v1h1v2H4z" fill="#eeba30"/><path d="M2 9v3h1v1H2v2H1v1h1v-1h1v-1h1v-1h1v-1H4v-1H3V9H2zm16 0v3h-1v1h1v2h1v1h-1v-1h-1v-1h-1v-1h-1v-1h1v-1h1V9h1zm-1-2h1V3h-1V2h-1V1H4v1H3v1H2v4h1V6h1V5h2V4h9v1h1v1h1v1z" fill-rule="evenodd" fill="#a7856a"/></svg>