<svg xmlns="http://www.w3.org/2000/svg" viewBox="0 0 24 24"><path class="fn-svg-icon" fill-rule="evenodd" d="M9.21179 5.38459C9.4013 5.14187 9.69206 5 10 5H20C20.3079 5 20.5987 5.14187 20.7882 5.38459 20.9777 5.6273 21.0448 5.94379 20.9701 6.24254L17.9701 18.2425C17.8589 18.6877 17.4589 19 17 19H13C12.5411 19 12.1411 18.6877 12.0299 18.2425L9.02986 6.24254C8.95517 5.94379 9.02229 5.6273 9.21179 5.38459ZM11.2808 7 13.7808 17H16.2192L18.7192 7H11.2808ZM3 10C3 9.44772 3.44772 9 4 9H6C6.55228 9 7 9.44772 7 10 7 10.5523 6.55228 11 6 11H4C3.44772 11 3 10.5523 3 10ZM3 14C3 13.4477 3.44772 13 4 13H6C6.55228 13 7 13.4477 7 14 7 14.5523 6.55228 15 6 15H4C3.44772 15 3 14.5523 3 14Z" clip-rule="evenodd"/><path class="fn-svg-icon" fill-rule="evenodd" d="M3 6C3 5.44772 3.44772 5 4 5H6C6.55228 5 7 5.44772 7 6 7 6.55228 6.55228 7 6 7H5V17H6C6.55228 17 7 17.4477 7 18 7 18.5523 6.55228 19 6 19H4C3.44772 19 3 18.5523 3 18V6ZM10 10C10 9.44772 10.4477 9 11 9H19C19.5523 9 20 9.44772 20 10 20 10.5523 19.5523 11 19 11H11C10.4477 11 10 10.5523 10 10ZM11 14C11 13.4477 11.4477 13 12 13H18C18.5523 13 19 13.4477 19 14 19 14.5523 18.5523 15 18 15H12C11.4477 15 11 14.5523 11 14Z" clip-rule="evenodd"/></svg>
