<svg xmlns="http://www.w3.org/2000/svg" viewBox="0 0 24 24"><path class="fn-svg-icon" fill-rule="evenodd" d="M12.5356 11.4645C11.364 10.2929 9.4645 10.2929 8.29292 11.4645L5.4645 14.2929C4.29292 15.4645 4.29292 17.364 5.4645 18.5356C6.63607 19.7071 8.53556 19.7071 9.70714 18.5356L11.1213 17.1213C11.5119 16.7308 12.145 16.7308 12.5356 17.1213C12.9261 17.5119 12.9261 18.145 12.5356 18.5356L11.1213 19.9498C9.16873 21.9024 6.0029 21.9024 4.05028 19.9498C2.09766 17.9972 2.09766 14.8313 4.05028 12.8787L6.87871 10.0503C8.83133 8.09766 11.9972 8.09766 13.9498 10.0503C14.3403 10.4408 14.3403 11.074 13.9498 11.4645C13.5593 11.855 12.9261 11.855 12.5356 11.4645Z" clip-rule="evenodd"/><path class="fn-svg-icon" fill-rule="evenodd" d="M18.5356 5.4645C17.364 4.29292 15.4645 4.29292 14.2929 5.4645L12.8787 6.87871C12.4882 7.26923 11.855 7.26923 11.4645 6.87871C11.074 6.48818 11.074 5.85502 11.4645 5.46449L12.8787 4.05028C14.8313 2.09766 17.9972 2.09766 19.9498 4.05028C21.9024 6.0029 21.9024 9.16873 19.9498 11.1213L17.1213 13.9498C15.1687 15.9024 12.0029 15.9024 10.0503 13.9498C9.65976 13.5593 9.65976 12.9261 10.0503 12.5356C10.4408 12.145 11.074 12.145 11.4645 12.5356C12.6361 13.7071 14.5356 13.7071 15.7071 12.5356L18.5356 9.70714C19.7071 8.53556 19.7071 6.63607 18.5356 5.4645Z" clip-rule="evenodd"/></svg>
