<svg xmlns="http://www.w3.org/2000/svg" viewBox="0 0 24 24"><path class="fn-svg-icon" fill-rule="evenodd" d="M4 4.99997C3.44772 4.99997 3 5.44769 3 5.99997V18C3 18.5523 3.44772 19 4 19H6C6.55228 19 7 19.4477 7 20C7 20.5523 6.55228 21 6 21H4C2.34315 21 1 19.6568 1 18V5.99997C1 4.34312 2.34315 2.99997 4 2.99997H20C21.6569 2.99997 23 4.34312 23 5.99997V18C23 19.6568 21.6569 21 20 21H14C13.4477 21 13 20.5523 13 20C13 19.4477 13.4477 19 14 19H20C20.5523 19 21 18.5523 21 18V5.99997C21 5.44769 20.5523 4.99997 20 4.99997H4Z" clip-rule="evenodd"/><path class="fn-svg-icon" fill-rule="evenodd" d="M5.55279 3.10555C6.04677 2.85856 6.64744 3.05878 6.89443 3.55276L8.89443 7.55276C9.14142 8.04674 8.94119 8.64741 8.44721 8.8944C7.95324 9.14139 7.35256 8.94117 7.10557 8.44719L5.10557 4.44719C4.85858 3.95321 5.05881 3.35254 5.55279 3.10555Z" clip-rule="evenodd"/><path class="fn-svg-icon" fill-rule="evenodd" d="M1 7.99998C1 7.44769 1.44772 6.99998 2 6.99998H22C22.5523 6.99998 23 7.44769 23 7.99998 23 8.55226 22.5523 8.99998 22 8.99998H2C1.44772 8.99998 1 8.55226 1 7.99998ZM10 13C10.4767 13 10.8871 13.3364 10.9806 13.8039L11.3498 15.6501 13.1961 16.0194C13.6635 16.1129 14 16.5233 14 17 14 17.4767 13.6635 17.8871 13.1961 17.9806L11.3498 18.3498 10.9806 20.1961C10.8871 20.6635 10.4767 21 10 21 9.52332 21 9.1129 20.6635 9.01942 20.1961L8.65016 18.3498 6.80388 17.9806C6.33646 17.8871 6 17.4767 6 17 6 16.5233 6.33646 16.1129 6.80388 16.0194L8.65016 15.6501 9.01942 13.8039C9.1129 13.3364 9.52332 13 10 13ZM13 13C13 12.4477 13.4477 12 14 12H18C18.5523 12 19 12.4477 19 13 19 13.5523 18.5523 14 18 14H14C13.4477 14 13 13.5523 13 13Z" clip-rule="evenodd"/><path class="fn-svg-icon" fill-rule="evenodd" d="M16 9.99998C16.5523 9.99998 17 10.4477 17 11V15C17 15.5523 16.5523 16 16 16 15.4477 16 15 15.5523 15 15V11C15 10.4477 15.4477 9.99998 16 9.99998ZM10.5528 3.10555C11.0468 2.85856 11.6474 3.05878 11.8944 3.55276L13.8944 7.55276C14.1414 8.04674 13.9412 8.64741 13.4472 8.8944 12.9532 9.14139 12.3526 8.94117 12.1056 8.44719L10.1056 4.44719C9.85858 3.95321 10.0588 3.35254 10.5528 3.10555ZM15.5528 3.10555C16.0468 2.85856 16.6474 3.05878 16.8944 3.55276L18.8944 7.55276C19.1414 8.04674 18.9412 8.64741 18.4472 8.8944 17.9532 9.14139 17.3526 8.94117 17.1056 8.44719L15.1056 4.44719C14.8586 3.95321 15.0588 3.35254 15.5528 3.10555Z" clip-rule="evenodd"/></svg>
