<svg xmlns="http://www.w3.org/2000/svg" viewBox="0 0 24 24"><path class="fn-svg-icon" fill-rule="evenodd" d="M3 4C3 3.44772 3.44772 3 4 3H10C10.5523 3 11 3.44772 11 4 11 4.55228 10.5523 5 10 5H4C3.44772 5 3 4.55228 3 4ZM3 7C3 6.44772 3.44772 6 4 6H10C10.5523 6 11 6.44772 11 7 11 7.55228 10.5523 8 10 8H4C3.44772 8 3 7.55228 3 7ZM3 15C3 13.8954 3.89543 13 5 13H9C10.1046 13 11 13.8954 11 15V17C11 18.1046 10.1046 19 9 19H6.41421L4.70711 20.7071C4.42111 20.9931 3.99099 21.0787 3.61732 20.9239 3.24364 20.7691 3 20.4045 3 20V15ZM9 15H5V17.5858L5.29289 17.2929C5.48043 17.1054 5.73478 17 6 17H9V15ZM3 10C3 9.44772 3.44772 9 4 9H8C8.55228 9 9 9.44772 9 10 9 10.5523 8.55228 11 8 11H4C3.44772 11 3 10.5523 3 10ZM15.1305 8.31672C15.5471 8.10844 16.0064 8 16.4721 8H17.5279C17.9936 8 18.4529 8.10844 18.8695 8.31672L20.4472 9.10557C20.862 9.31298 21.0798 9.77838 20.9732 10.2298 20.8667 10.6811 20.4638 11 20 11H14C13.5362 11 13.1333 10.6811 13.0268 10.2298 12.9202 9.77838 13.138 9.31298 13.5528 9.10557L15.1305 8.31672ZM17 7C18.1046 7 19 6.10457 19 5 19 3.89543 18.1046 3 17 3 15.8954 3 15 3.89543 15 5 15 6.10457 15.8954 7 17 7ZM14 17C14.5523 17 15 17.4477 15 18V20C15 20.5523 14.5523 21 14 21 13.4477 21 13 20.5523 13 20V18C13 17.4477 13.4477 17 14 17ZM17 13C17.5523 13 18 13.4477 18 14V20C18 20.5523 17.5523 21 17 21 16.4477 21 16 20.5523 16 20V14C16 13.4477 16.4477 13 17 13ZM20 15C20.5523 15 21 15.4477 21 16V20C21 20.5523 20.5523 21 20 21 19.4477 21 19 20.5523 19 20V16C19 15.4477 19.4477 15 20 15Z" clip-rule="evenodd"/></svg>
