<svg xmlns="http://www.w3.org/2000/svg" viewBox="0 0 24 24"><path class="fn-svg-icon" fill-rule="evenodd" d="M10.1414 4.01006C10.6882 4.08816 11.0681 4.59469 10.9899 5.14143L8.98995 19.1414C8.91184 19.6882 8.40531 20.0681 7.85858 19.99 7.31184 19.9118 6.93195 19.4053 7.01005 18.8586L9.01005 4.85858C9.08816 4.31185 9.59469 3.93195 10.1414 4.01006ZM16.1414 4.01006C16.6882 4.08816 17.0681 4.59469 16.9899 5.14143L14.9899 19.1414C14.9118 19.6882 14.4053 20.0681 13.8586 19.99 13.3118 19.9118 12.9319 19.4053 13.01 18.8586L15.01 4.85858C15.0882 4.31185 15.5947 3.93195 16.1414 4.01006Z" clip-rule="evenodd"/><path class="fn-svg-icon" fill-rule="evenodd" d="M4 9.00001C4 8.44772 4.44772 8.00001 5 8.00001H19C19.5523 8.00001 20 8.44772 20 9.00001 20 9.55229 19.5523 10 19 10H5C4.44772 10 4 9.55229 4 9.00001ZM4 15C4 14.4477 4.44772 14 5 14H19C19.5523 14 20 14.4477 20 15 20 15.5523 19.5523 16 19 16H5C4.44772 16 4 15.5523 4 15Z" clip-rule="evenodd"/></svg>
