<svg xmlns="http://www.w3.org/2000/svg" viewBox="0 0 24 24"><path class="fn-svg-icon" fill-rule="evenodd" d="M4 10C4 9.44772 4.44772 9 5 9H19C19.5523 9 20 9.44772 20 10C20 10.5523 19.5523 11 19 11H5C4.44772 11 4 10.5523 4 10Z" clip-rule="evenodd"/><path class="fn-svg-icon" fill-rule="evenodd" d="M12 2C12.5523 2 13 2.44772 13 3V10C13 10.5523 12.5523 11 12 11C11.4477 11 11 10.5523 11 10V3C11 2.44772 11.4477 2 12 2Z" clip-rule="evenodd"/><path class="fn-svg-icon" fill-rule="evenodd" d="M3 7C3 4.23858 5.23858 2 8 2H16C18.7614 2 21 4.23858 21 7V15C21 17.7614 18.7614 20 16 20H8C5.23858 20 3 17.7614 3 15V7ZM8 4C6.34315 4 5 5.34315 5 7V15C5 16.6569 6.34315 18 8 18H16C17.6569 18 19 16.6569 19 15V7C19 5.34315 17.6569 4 16 4H8Z" clip-rule="evenodd"/><path class="fn-svg-icon" fill-rule="evenodd" d="M15.2929 18.2929C15.6834 17.9024 16.3166 17.9024 16.7071 18.2929L20.7071 22.2929C21.0976 22.6834 21.0976 23.3166 20.7071 23.7071 20.3166 24.0976 19.6834 24.0976 19.2929 23.7071L15.2929 19.7071C14.9024 19.3166 14.9024 18.6834 15.2929 18.2929ZM8.70711 18.2929C9.09763 18.6834 9.09763 19.3166 8.70711 19.7071L4.70711 23.7071C4.31658 24.0976 3.68342 24.0976 3.29289 23.7071 2.90237 23.3166 2.90237 22.6834 3.29289 22.2929L7.29289 18.2929C7.68342 17.9024 8.31658 17.9024 8.70711 18.2929ZM8.5 16C9.32843 16 10 15.3284 10 14.5 10 13.6716 9.32843 13 8.5 13 7.67157 13 7 13.6716 7 14.5 7 15.3284 7.67157 16 8.5 16ZM15.5 16C16.3284 16 17 15.3284 17 14.5 17 13.6716 16.3284 13 15.5 13 14.6716 13 14 13.6716 14 14.5 14 15.3284 14.6716 16 15.5 16Z" clip-rule="evenodd"/></svg>
