<svg xmlns="http://www.w3.org/2000/svg" viewBox="0 0 24 24"><path class="fn-svg-icon" fill-rule="evenodd" d="M12.6585 4.90502C12.2815 4.57512 11.7185 4.57512 11.3415 4.90502L5.3415 10.155C5.12448 10.3449 5 10.6192 5 10.9076V19.0001C5 19.5523 5.44772 20.0001 6 20.0001H18C18.5523 20.0001 19 19.5523 19 19.0001V10.9076C19 10.6192 18.8755 10.3449 18.6585 10.155L12.6585 4.90502ZM10.0245 3.39986C11.1556 2.41017 12.8444 2.41017 13.9755 3.39986L19.9755 8.64986C20.6266 9.21953 21 10.0425 21 10.9076V19.0001C21 20.6569 19.6569 22.0001 18 22.0001H6C4.34315 22.0001 3 20.6569 3 19.0001V10.9076C3 10.0425 3.37344 9.21953 4.02449 8.64986L10.0245 3.39986Z" clip-rule="evenodd"/><path class="fn-svg-icon" fill-rule="evenodd" d="M8.5 14.0001C8.5 12.8955 9.39543 12.0001 10.5 12.0001H13.5C14.6046 12.0001 15.5 12.8955 15.5 14.0001V21.0001C15.5 21.5523 15.0523 22.0001 14.5 22.0001C13.9477 22.0001 13.5 21.5523 13.5 21.0001V14.0001H10.5V21.0001C10.5 21.5523 10.0523 22.0001 9.5 22.0001C8.94772 22.0001 8.5 21.5523 8.5 21.0001V14.0001Z" clip-rule="evenodd"/></svg>
