<svg xmlns="http://www.w3.org/2000/svg" viewBox="0 0 24 24"><path class="fn-svg-icon" fill-rule="evenodd" d="M3 6C3 4.34315 4.34315 3 6 3H18C19.6569 3 21 4.34315 21 6V18C21 19.6569 19.6569 21 18 21H6C4.34315 21 3 19.6569 3 18V6ZM6 5C5.44772 5 5 5.44772 5 6V18C5 18.5523 5.44772 19 6 19H18C18.5523 19 19 18.5523 19 18V6C19 5.44772 18.5523 5 18 5H6Z" clip-rule="evenodd"/><path class="fn-svg-icon" fill-rule="evenodd" d="M9 1C9.55228 1 10 1.44772 10 2V6C10 6.55228 9.55228 7 9 7 8.44772 7 8 6.55228 8 6V2C8 1.44772 8.44772 1 9 1ZM3 10C3 9.44772 3.44772 9 4 9H20C20.5523 9 21 9.44772 21 10 21 10.5523 20.5523 11 20 11H4C3.44772 11 3 10.5523 3 10Z" clip-rule="evenodd"/><path class="fn-svg-icon" d="M10 14C10 13.4477 10.4477 13 11 13H13C13.5523 13 14 13.4477 14 14V16C14 16.5523 13.5523 17 13 17H11C10.4477 17 10 16.5523 10 16V14Z"/><path class="fn-svg-icon" fill-rule="evenodd" d="M16.5 16C17.0523 16 17.5 15.5523 17.5 15 17.5 14.4477 17.0523 14 16.5 14 15.9477 14 15.5 14.4477 15.5 15 15.5 15.5523 15.9477 16 16.5 16ZM7.5 16C8.05228 16 8.5 15.5523 8.5 15 8.5 14.4477 8.05228 14 7.5 14 6.94772 14 6.5 14.4477 6.5 15 6.5 15.5523 6.94772 16 7.5 16ZM15 1C15.5523 1 16 1.44772 16 2V6C16 6.55228 15.5523 7 15 7 14.4477 7 14 6.55228 14 6V2C14 1.44772 14.4477 1 15 1Z" clip-rule="evenodd"/></svg>
