<svg xmlns="http://www.w3.org/2000/svg" viewBox="0 0 24 24"><path class="fn-svg-icon" fill-rule="evenodd" d="M8.55276 2.10557C8.80824 1.97783 9.10616 1.96544 9.37137 2.07152L19.3714 6.07152C19.751 6.22339 20 6.5911 20 7V19C20 19.5523 19.5523 20 19 20C18.4477 20 18 19.5523 18 19V7.67703L9.04553 4.09526L5.44719 5.89443C4.95321 6.14142 4.35254 5.94119 4.10555 5.44721C3.85856 4.95324 4.05878 4.35256 4.55276 4.10557L8.55276 2.10557Z" clip-rule="evenodd"/><path class="fn-svg-icon" fill-rule="evenodd" d="M4.43935 4.17193C4.71412 3.9859 5.06327 3.94829 5.37137 4.07152L15.3714 8.07152C15.751 8.22339 16 8.5911 16 9V21C16 21.3318 15.8354 21.642 15.5606 21.8281C15.2858 22.0141 14.9367 22.0517 14.6286 21.9285L4.62858 17.9285C4.24893 17.7766 3.99997 17.4089 3.99997 17V5C3.99997 4.66818 4.16457 4.35796 4.43935 4.17193ZM5.99997 6.47703V16.323L14 19.523V9.67703L5.99997 6.47703Z" clip-rule="evenodd"/></svg>
