<svg xmlns="http://www.w3.org/2000/svg" viewBox="0 0 24 24"><path class="fn-svg-icon" fill-rule="evenodd" d="M11 13C8.23858 13 6 15.2386 6 18V19H18V18C18 15.2386 15.7614 13 13 13H11ZM4 18C4 14.134 7.13401 11 11 11H13C16.866 11 20 14.134 20 18V20C20 20.5523 19.5523 21 19 21H5C4.44772 21 4 20.5523 4 20V18Z" clip-rule="evenodd"/><path class="fn-svg-icon" fill-rule="evenodd" d="M7 8C7 5.23858 9.23858 3 12 3C14.7614 3 17 5.23858 17 8C17 10.7614 14.7614 13 12 13C9.23858 13 7 10.7614 7 8ZM12 5C10.3431 5 9 6.34315 9 8C9 9.65685 10.3431 11 12 11C13.6569 11 15 9.65685 15 8C15 6.34315 13.6569 5 12 5Z" clip-rule="evenodd"/></svg>
