<svg xmlns="http://www.w3.org/2000/svg" viewBox="0 0 24 24"><path class="fn-svg-icon" fill-rule="evenodd" d="M14 5C14 4.44772 14.4477 4 15 4H17C18.6569 4 20 5.34315 20 7V15C20 15.5523 19.5523 16 19 16 18.4477 16 18 15.5523 18 15V7C18 6.44772 17.5523 6 17 6H15C14.4477 6 14 5.55228 14 5ZM4 7C4 5.34315 5.34315 4 7 4H9C9.55228 4 10 4.44772 10 5 10 5.55228 9.55228 6 9 6H7C6.44772 6 6 6.44772 6 7V19C6 19.5523 6.44772 20 7 20H13C13.5523 20 14 20.4477 14 21 14 21.5523 13.5523 22 13 22H7C5.34315 22 4 20.6569 4 19V7Z" clip-rule="evenodd"/><path class="fn-svg-icon" fill-rule="evenodd" d="M8 14C8 11.7909 9.79086 10 12 10C14.2091 10 16 11.7909 16 14C16 16.2091 14.2091 18 12 18C9.79086 18 8 16.2091 8 14ZM12 12C10.8954 12 10 12.8954 10 14C10 15.1046 10.8954 16 12 16C13.1046 16 14 15.1046 14 14C14 12.8954 13.1046 12 12 12Z" clip-rule="evenodd"/><path class="fn-svg-icon" fill-rule="evenodd" d="M14.2929 16.2929C14.6834 15.9024 15.3166 15.9024 15.7071 16.2929L18.7071 19.2929C19.0976 19.6834 19.0976 20.3166 18.7071 20.7071 18.3166 21.0976 17.6834 21.0976 17.2929 20.7071L14.2929 17.7071C13.9024 17.3166 13.9024 16.6834 14.2929 16.2929ZM8 4C8 2.89543 8.89543 2 10 2H14C15.1046 2 16 2.89543 16 4V6C16 7.10457 15.1046 8 14 8H10C8.89543 8 8 7.10457 8 6V4ZM14 4H10V6H14V4Z" clip-rule="evenodd"/></svg>
