<svg xmlns="http://www.w3.org/2000/svg" viewBox="0 0 24 24"><path class="fn-svg-icon" fill-rule="evenodd" d="M20.5606 3.17194C20.8354 3.35797 21 3.66818 21 4V18C21 18.4089 20.751 18.7766 20.3714 18.9285L15.3714 20.9285C15.1518 21.0163 14.9082 21.0235 14.6838 20.9487L9.03128 19.0645L4.37139 20.9285C4.0633 21.0517 3.71414 21.0141 3.43937 20.8281C3.1646 20.642 3 20.3318 3 20V6C3 5.5911 3.24895 5.22339 3.62861 5.07153L8.62861 3.07153C8.84821 2.98369 9.09184 2.97653 9.31623 3.05132L14.9687 4.93548L19.6286 3.07153C19.9367 2.94829 20.2859 2.98591 20.5606 3.17194ZM9.03128 5.06452L5 6.67704V18.523L8.62861 17.0715C8.84821 16.9837 9.09184 16.9765 9.31623 17.0513L14.9687 18.9355L19 17.323V5.47704L15.3714 6.92848C15.1518 7.01632 14.9082 7.02348 14.6838 6.94869L9.03128 5.06452Z" clip-rule="evenodd"/><path class="fn-svg-icon" fill-rule="evenodd" d="M9 3C9.55228 3 10 3.44772 10 4V18C10 18.5523 9.55228 19 9 19 8.44772 19 8 18.5523 8 18V4C8 3.44772 8.44772 3 9 3ZM15 5C15.5523 5 16 5.44772 16 6V20C16 20.5523 15.5523 21 15 21 14.4477 21 14 20.5523 14 20V6C14 5.44772 14.4477 5 15 5Z" clip-rule="evenodd"/></svg>
