<svg xmlns="http://www.w3.org/2000/svg" viewBox="0 0 24 24"><path class="fn-svg-icon" fill-rule="evenodd" d="M2 6C2 4.34315 3.34315 3 5 3H9.99805C10.2634 3 10.518 3.1055 10.7055 3.29326L12.4105 5H19C20.6569 5 22 6.34315 22 8V18C22 19.6569 20.6569 21 19 21H5C3.34315 21 2 19.6569 2 18V6ZM5 5C4.44772 5 4 5.44772 4 6V18C4 18.5523 4.44772 19 5 19H19C19.5523 19 20 18.5523 20 18V8C20 7.44772 19.5523 7 19 7H11.996C11.7306 7 11.4761 6.8945 11.2885 6.70674L9.58353 5H5Z" clip-rule="evenodd"/><path class="fn-svg-icon" fill-rule="evenodd" d="M11 11C11 10.4477 11.4477 10 12 10H17C17.5523 10 18 10.4477 18 11 18 11.5523 17.5523 12 17 12H12C11.4477 12 11 11.5523 11 11ZM8 12.5C8.82843 12.5 9.5 11.8284 9.5 11 9.5 10.1716 8.82843 9.5 8 9.5 7.17157 9.5 6.5 10.1716 6.5 11 6.5 11.8284 7.17157 12.5 8 12.5ZM11 15C11 14.4477 11.4477 14 12 14H17C17.5523 14 18 14.4477 18 15 18 15.5523 17.5523 16 17 16H12C11.4477 16 11 15.5523 11 15ZM8 16.5C8.82843 16.5 9.5 15.8284 9.5 15 9.5 14.1716 8.82843 13.5 8 13.5 7.17157 13.5 6.5 14.1716 6.5 15 6.5 15.8284 7.17157 16.5 8 16.5Z" clip-rule="evenodd"/></svg>
