<svg xmlns="http://www.w3.org/2000/svg" viewBox="0 0 24 24"><path class="fn-svg-icon" fill-rule="evenodd" d="M12 22C6.47715 22 2 17.5228 2 12C2 6.47715 6.47715 2 12 2C17.5228 2 22 6.47715 22 12C22 17.5228 17.5228 22 12 22ZM12 18C12.8284 18 13.5 17.3284 13.5 16.5C13.5 15.6716 12.8284 15 12 15C11.1716 15 10.5 15.6716 10.5 16.5C10.5 17.3284 11.1716 18 12 18ZM11 13C11 13.5523 11.4477 14 12 14C12.4653 14 12.8563 13.6822 12.968 13.2519C13.0003 13.2301 13.0431 13.2032 13.0966 13.172C13.1338 13.1503 13.2567 13.0842 13.4031 13.0055C13.6184 12.8897 13.8847 12.7466 14.0041 12.6769C15.2758 11.9346 16 10.9888 16 9.5C16 7.52257 14.1729 6 12 6C9.82708 6 8 7.52257 8 9.5C8 10.0523 8.44772 10.5 9 10.5C9.55228 10.5 10 10.0523 10 9.5C10 8.71601 10.8592 8 12 8C13.1408 8 14 8.71601 14 9.5C14 10.1571 13.7143 10.5303 12.9959 10.9496C12.9194 10.9943 12.7236 11.0996 12.5307 11.2035C12.343 11.3045 12.1579 11.4041 12.088 11.445C11.3978 11.848 11 12.2739 11 13Z" clip-rule="evenodd"/></svg>
