<svg xmlns="http://www.w3.org/2000/svg" viewBox="0 0 24 24"><path class="fn-svg-icon" fill-rule="evenodd" d="M16.5013 6.5C15.2353 6.50103 13.9242 6.92143 12.5537 7.83272C12.2179 8.056 11.7809 8.05574 11.4453 7.83207C10.0782 6.92072 8.76759 6.50145 7.50085 6.50119C6.37219 6.50096 5.20822 6.83336 4 7.55126V17.295C5.14379 16.7721 6.31265 16.4989 7.50223 16.4993C9.23631 16.4998 10.9249 17.0815 12.5547 18.1679C13.0142 18.4743 13.1384 19.0951 12.8321 19.5547C12.5257 20.0142 11.9049 20.1384 11.4453 19.8321C10.0761 18.9193 8.76674 18.4997 7.50162 18.4993C6.23658 18.4989 4.92621 18.9177 3.55471 19.832C3.24785 20.0366 2.85331 20.0557 2.52815 19.8817C2.20299 19.7077 2 19.3688 2 19V7C2 6.66569 2.16706 6.35348 2.44521 6.16801C4.07574 5.08075 5.76661 4.50084 7.50126 4.50119C9.03996 4.50151 10.5436 4.95838 12.0006 5.81953C13.4583 4.95945 14.9614 4.50125 16.4997 4.5C18.2343 4.49859 19.9246 5.07825 21.5557 6.16865C21.8333 6.35422 22 6.66609 22 7V11C22 11.5523 21.5523 12 21 12C20.4477 12 20 11.5523 20 11V7.55052C18.792 6.83093 17.6292 6.49908 16.5013 6.5Z" clip-rule="evenodd"/><path class="fn-svg-icon" fill-rule="evenodd" d="M16.1305 17.3167C16.5471 17.1084 17.0064 17 17.4721 17H18.5279C18.9936 17 19.4529 17.1084 19.8695 17.3167L21.4472 18.1056C21.862 18.313 22.0798 18.7784 21.9732 19.2298 21.8667 19.6811 21.4638 20 21 20H15C14.5362 20 14.1333 19.6811 14.0268 19.2298 13.9202 18.7784 14.138 18.313 14.5528 18.1056L16.1305 17.3167ZM18 16C19.1046 16 20 15.1046 20 14 20 12.8954 19.1046 12 18 12 16.8954 12 16 12.8954 16 14 16 15.1046 16.8954 16 18 16ZM12 6C12.5523 6 13 6.44772 13 7V19C13 19.5523 12.5523 20 12 20 11.4477 20 11 19.5523 11 19V7C11 6.44772 11.4477 6 12 6Z" clip-rule="evenodd"/></svg>
