<svg xmlns="http://www.w3.org/2000/svg" viewBox="0 0 24 24"><path class="fn-svg-icon" fill-rule="evenodd" d="M11.5 10C11.2239 10 11 10.2239 11 10.5C11 10.7761 11.2239 11 11.5 11H12.5C13.8807 11 15 12.1193 15 13.5C15 14.8807 13.8807 16 12.5 16H10C9.44772 16 9 15.5523 9 15C9 14.4477 9.44772 14 10 14H12.5C12.7761 14 13 13.7761 13 13.5C13 13.2239 12.7761 13 12.5 13H11.5C10.1193 13 9 11.8807 9 10.5C9 9.11929 10.1193 8 11.5 8H14C14.5523 8 15 8.44772 15 9C15 9.55228 14.5523 10 14 10H11.5Z" clip-rule="evenodd"/><path class="fn-svg-icon" fill-rule="evenodd" d="M12 14C12.5523 14 13 14.4477 13 15V17C13 17.5523 12.5523 18 12 18 11.4477 18 11 17.5523 11 17V15C11 14.4477 11.4477 14 12 14ZM12 6C12.5523 6 13 6.44772 13 7V9C13 9.55228 12.5523 10 12 10 11.4477 10 11 9.55228 11 9V7C11 6.44772 11.4477 6 12 6Z" clip-rule="evenodd"/><path class="fn-svg-icon" fill-rule="evenodd" d="M5 5C5 3.34315 6.34315 2 8 2H16C17.6569 2 19 3.34315 19 5V19C19 20.6569 17.6569 22 16 22H8C6.34315 22 5 20.6569 5 19V5ZM8 4C7.44772 4 7 4.44772 7 5V19C7 19.5523 7.44772 20 8 20H16C16.5523 20 17 19.5523 17 19V5C17 4.44772 16.5523 4 16 4H8Z" clip-rule="evenodd"/></svg>
