<svg xmlns="http://www.w3.org/2000/svg" viewBox="0 0 24 24"><path class="fn-svg-icon" fill-rule="evenodd" d="M10.2929 2.29289C10.4804 2.10536 10.7348 2 11 2H19C19.2652 2 19.5196 2.10536 19.7071 2.29289C19.8946 2.48043 20 2.73478 20 3V21C20 21.5523 19.5523 22 19 22H5C4.44772 22 4 21.5523 4 21V9C4 8.73478 4.10536 8.48043 4.29289 8.29289L10.2929 2.29289ZM11.4142 4L6 9.41421V20H18V4H11.4142Z" clip-rule="evenodd"/><path class="fn-svg-icon" fill-rule="evenodd" d="M6 9H9C10.1046 9 11 8.10457 11 7V4M15.7071 11.2929C16.0976 11.6834 16.0976 12.3166 15.7071 12.7071L11.7071 16.7071C11.3166 17.0976 10.6834 17.0976 10.2929 16.7071L8.29289 14.7071C7.90237 14.3166 7.90237 13.6834 8.29289 13.2929 8.68342 12.9024 9.31658 12.9024 9.70711 13.2929L11 14.5858 14.2929 11.2929C14.6834 10.9024 15.3166 10.9024 15.7071 11.2929Z" clip-rule="evenodd"/></svg>
