<svg xmlns="http://www.w3.org/2000/svg" viewBox="0 0 24 24"><path class="fn-svg-icon" fill-rule="evenodd" d="M2 12C2 6.47715 6.47715 2 12 2C17.5228 2 22 6.47715 22 12C22 17.5228 17.5228 22 12 22C6.47715 22 2 17.5228 2 12ZM12 4C7.58172 4 4 7.58172 4 12C4 16.4183 7.58172 20 12 20C16.4183 20 20 16.4183 20 12C20 7.58172 16.4183 4 12 4Z" clip-rule="evenodd"/><path class="fn-svg-icon" fill-rule="evenodd" d="M12 6.5C12.5523 6.5 13 6.94772 13 7.5V11.5C13 12.0523 12.5523 12.5 12 12.5 11.4477 12.5 11 12.0523 11 11.5V7.5C11 6.94772 11.4477 6.5 12 6.5ZM12 17.5C12.8284 17.5 13.5 16.8284 13.5 16 13.5 15.1716 12.8284 14.5 12 14.5 11.1716 14.5 10.5 15.1716 10.5 16 10.5 16.8284 11.1716 17.5 12 17.5Z" clip-rule="evenodd"/></svg>
