<svg xmlns="http://www.w3.org/2000/svg" viewBox="0 0 24 24"><path class="fn-svg-icon" fill-rule="evenodd" d="M21.7071 3.29289C22.0976 3.68342 22.0976 4.31658 21.7071 4.70711L13.7071 12.7071C13.4952 12.919 13.1996 13.0247 12.9014 12.9951 12.6033 12.9656 12.3341 12.804 12.1679 12.5547L8.95195 7.73072 3.79998 14.6C3.46861 15.0418 2.84181 15.1314 2.39998 14.8 1.95816 14.4686 1.86861 13.8418 2.19998 13.4L8.19998 5.4C8.39471 5.14037 8.70332 4.99138 9.02773 5.00039 9.35214 5.00939 9.65201 5.17527 9.83203 5.4453L13.1554 10.4304 20.2929 3.29289C20.6834 2.90237 21.3166 2.90237 21.7071 3.29289ZM21.848 13.47C22.1407 13.9383 21.9983 14.5553 21.53 14.848L13.53 19.848C13.1796 20.067 12.7306 20.0479 12.4 19.8L8.966 17.2245 3.55468 20.8321C3.09516 21.1384 2.47429 21.0142 2.16793 20.5547 1.86158 20.0952 1.98576 19.4743 2.44528 19.1679L8.44528 15.168C8.79806 14.9328 9.2608 14.9456 9.59998 15.2L13.0514 17.7886 20.47 13.152C20.9383 12.8593 21.5553 13.0017 21.848 13.47Z" clip-rule="evenodd"/></svg>
