<svg xmlns="http://www.w3.org/2000/svg" viewBox="0 0 24 24"><path class="fn-svg-icon" fill-rule="evenodd" d="M11 13C8.23858 13 6 15.2386 6 18V19H11C11.5523 19 12 19.4477 12 20C12 20.5523 11.5523 21 11 21H5C4.44772 21 4 20.5523 4 20V18C4 14.134 7.13401 11 11 11H13C14.7901 11 16.4253 11.6732 17.6625 12.7787C18.0744 13.1467 18.1099 13.7789 17.7419 14.1907C17.374 14.6026 16.7418 14.6381 16.3299 14.2701C15.4451 13.4795 14.2797 13 13 13H11Z" clip-rule="evenodd"/><path class="fn-svg-icon" fill-rule="evenodd" d="M21.7071 15.2929C22.0976 15.6834 22.0976 16.3166 21.7071 16.7071L17.7071 20.7071C17.3166 21.0976 16.6834 21.0976 16.2929 20.7071L14.2929 18.7071C13.9024 18.3166 13.9024 17.6834 14.2929 17.2929 14.6834 16.9024 15.3166 16.9024 15.7071 17.2929L17 18.5858 20.2929 15.2929C20.6834 14.9024 21.3166 14.9024 21.7071 15.2929ZM7 8C7 5.23858 9.23858 3 12 3 14.7614 3 17 5.23858 17 8 17 10.7614 14.7614 13 12 13 9.23858 13 7 10.7614 7 8ZM12 5C10.3431 5 9 6.34315 9 8 9 9.65685 10.3431 11 12 11 13.6569 11 15 9.65685 15 8 15 6.34315 13.6569 5 12 5Z" clip-rule="evenodd"/></svg>
