<svg xmlns="http://www.w3.org/2000/svg" viewBox="0 0 24 24"><path class="fn-svg-icon" fill-rule="evenodd" d="M12 6C12.5523 6 13 6.44772 13 7V11.6667L15.8 15.4C16.1314 15.8418 16.0418 16.4686 15.6 16.8C15.1582 17.1314 14.5314 17.0418 14.2 16.6L11.2 12.6C11.0702 12.4269 11 12.2164 11 12V7C11 6.44772 11.4477 6 12 6Z" clip-rule="evenodd"/><path class="fn-svg-icon" fill-rule="evenodd" d="M2.06134 10.8869C2.61563 5.88746 6.85315 2 12 2C17.5228 2 22 6.47715 22 12C22 17.5228 17.5228 22 12 22C11.4477 22 11 21.5523 11 21C11 20.4477 11.4477 20 12 20C16.4183 20 20 16.4183 20 12C20 7.58172 16.4183 4 12 4C7.88373 4 4.49238 7.10965 4.04916 11.1073C3.9883 11.6562 3.49397 12.0519 2.94505 11.991C2.39613 11.9302 2.00048 11.4358 2.06134 10.8869Z" clip-rule="evenodd"/><path class="fn-svg-icon" fill-rule="evenodd" d="M2 15C2 14.4477 2.44772 14 3 14H8C8.55228 14 9 14.4477 9 15 9 15.5523 8.55228 16 8 16H3C2.44772 16 2 15.5523 2 15ZM2 18C2 17.4477 2.44772 17 3 17H8C8.55228 17 9 17.4477 9 18 9 18.5523 8.55228 19 8 19H3C2.44772 19 2 18.5523 2 18ZM2 21C2 20.4477 2.44772 20 3 20H8C8.55228 20 9 20.4477 9 21 9 21.5523 8.55228 22 8 22H3C2.44772 22 2 21.5523 2 21Z" clip-rule="evenodd"/></svg>
