<svg xmlns="http://www.w3.org/2000/svg" viewBox="0 0 24 24"><path class="fn-svg-icon" fill-rule="evenodd" d="M9 14C9 13.4477 9.44772 13 10 13H19C19.5523 13 20 13.4477 20 14 20 14.5523 19.5523 15 19 15H10C9.44772 15 9 14.5523 9 14ZM9 6C9 5.44772 9.44772 5 10 5H19C19.5523 5 20 5.44772 20 6 20 6.55228 19.5523 7 19 7H10C9.44772 7 9 6.55228 9 6ZM5.5 15.5C6.32843 15.5 7 14.8284 7 14 7 13.1716 6.32843 12.5 5.5 12.5 4.67157 12.5 4 13.1716 4 14 4 14.8284 4.67157 15.5 5.5 15.5ZM9 18C9 17.4477 9.44772 17 10 17H19C19.5523 17 20 17.4477 20 18 20 18.5523 19.5523 19 19 19H10C9.44772 19 9 18.5523 9 18ZM5.5 19.5C6.32843 19.5 7 18.8284 7 18 7 17.1716 6.32843 16.5 5.5 16.5 4.67157 16.5 4 17.1716 4 18 4 18.8284 4.67157 19.5 5.5 19.5ZM5.5 11.5C6.32843 11.5 7 10.8284 7 10 7 9.17157 6.32843 8.5 5.5 8.5 4.67157 8.5 4 9.17157 4 10 4 10.8284 4.67157 11.5 5.5 11.5ZM5.5 7.5C6.32843 7.5 7 6.82843 7 6 7 5.17157 6.32843 4.5 5.5 4.5 4.67157 4.5 4 5.17157 4 6 4 6.82843 4.67157 7.5 5.5 7.5ZM9 10C9 9.44772 9.44772 9 10 9H19C19.5523 9 20 9.44772 20 10 20 10.5523 19.5523 11 19 11H10C9.44772 11 9 10.5523 9 10Z" clip-rule="evenodd"/></svg>
