<svg xmlns="http://www.w3.org/2000/svg" viewBox="0 0 24 24"><path class="fn-svg-icon" fill-rule="evenodd" d="M2 7C2 5.34315 3.34315 4 5 4H19C20.6569 4 22 5.34315 22 7V17C22 18.6569 20.6569 20 19 20H5C3.34315 20 2 18.6569 2 17V7ZM5 6C4.44772 6 4 6.44772 4 7V17C4 17.5523 4.44772 18 5 18H19C19.5523 18 20 17.5523 20 17V7C20 6.44772 19.5523 6 19 6H5Z" clip-rule="evenodd"/><path class="fn-svg-icon" fill-rule="evenodd" d="M3.152 6.47C3.44471 6.00166 4.06166 5.85929 4.53 6.152L11.47 10.4895C11.7943 10.6922 12.2057 10.6922 12.53 10.4895L19.47 6.152C19.9383 5.85929 20.5553 6.00166 20.848 6.47C21.1407 6.93834 20.9983 7.55529 20.53 7.848L13.59 12.1855C12.6172 12.7935 11.3828 12.7935 10.41 12.1855L3.47 7.848C3.00166 7.55529 2.85929 6.93834 3.152 6.47Z" clip-rule="evenodd"/></svg>
