<svg xmlns="http://www.w3.org/2000/svg" viewBox="0 0 24 24"><path class="fn-svg-icon" fill-rule="evenodd" d="M2 4C2 3.44772 2.44772 3 3 3H7C7.55228 3 8 3.44772 8 4V20C8 20.5523 7.55228 21 7 21H3C2.44772 21 2 20.5523 2 20V4ZM4 5V19H6V5H4Z" clip-rule="evenodd"/><path class="fn-svg-icon" fill-rule="evenodd" d="M10.5668 7.0987C10.9133 6.93218 11.3245 6.979 11.6247 7.21913L15 9.91938V8C15 7.61559 15.2203 7.26522 15.5668 7.0987C15.9133 6.93218 16.3245 6.979 16.6247 7.21913L21.6247 11.2191C21.8619 11.4089 22 11.6962 22 12V20C22 20.5523 21.5523 21 21 21H7C6.44772 21 6 20.5523 6 20C6 19.4477 6.44772 19 7 19H20V12.4806L17 10.0806V12C17 12.3844 16.7797 12.7348 16.4332 12.9013C16.0867 13.0678 15.6755 13.021 15.3753 12.7809L12 10.0806V12C12 12.5523 11.5523 13 11 13H3C2.44772 13 2 12.5523 2 12C2 11.4477 2.44772 11 3 11H10V8C10 7.61559 10.2203 7.26522 10.5668 7.0987Z" clip-rule="evenodd"/><path class="fn-svg-icon" fill-rule="evenodd" d="M13 17.5C13.8284 17.5 14.5 16.8284 14.5 16 14.5 15.1716 13.8284 14.5 13 14.5 12.1716 14.5 11.5 15.1716 11.5 16 11.5 16.8284 12.1716 17.5 13 17.5ZM17 17.5C17.8284 17.5 18.5 16.8284 18.5 16 18.5 15.1716 17.8284 14.5 17 14.5 16.1716 14.5 15.5 15.1716 15.5 16 15.5 16.8284 16.1716 17.5 17 17.5ZM2 16C2 15.4477 2.44772 15 3 15H9C9.55228 15 10 15.4477 10 16 10 16.5523 9.55228 17 9 17H3C2.44772 17 2 16.5523 2 16ZM2 8C2 7.44772 2.44772 7 3 7H7C7.55228 7 8 7.44772 8 8 8 8.55228 7.55228 9 7 9H3C2.44772 9 2 8.55228 2 8Z" clip-rule="evenodd"/></svg>
