<svg xmlns="http://www.w3.org/2000/svg" viewBox="0 0 24 24"><path class="fn-svg-icon" fill-rule="evenodd" d="M4 12C4 11.4477 4.44772 11 5 11H19C19.5523 11 20 11.4477 20 12 20 12.5523 19.5523 13 19 13H5C4.44772 13 4 12.5523 4 12ZM3 6C3.55228 6 4 6.44772 4 7V8C4.55228 8 5 8.44772 5 9 5 9.55228 4.55228 10 4 10H3C2.44772 10 2 9.55228 2 9V7C2 6.44772 2.44772 6 3 6ZM21 6C21.5523 6 22 6.44772 22 7V9C22 9.55228 21.5523 10 21 10H19C18.4477 10 18 9.55228 18 9 18 8.44772 18.4477 8 19 8H20V7C20 6.44772 20.4477 6 21 6ZM7.5 18.1338C7.35291 18.0487 7.18214 18 7 18 6.44772 18 6 18.4477 6 19V21C6 21.2652 6.10536 21.5196 6.29289 21.7071 6.48043 21.8946 6.73478 22 7 22H8C8.55228 22 9 21.5523 9 21V19C9 18.4477 8.55228 18 8 18 7.81786 18 7.64709 18.0487 7.5 18.1338ZM16.5 18.1338C16.3529 18.0487 16.1821 18 16 18 15.4477 18 15 18.4477 15 19V21C15 21.2652 15.1054 21.5196 15.2929 21.7071 15.4804 21.8946 15.7348 22 16 22H17C17.5523 22 18 21.5523 18 21V19C18 18.4477 17.5523 18 17 18 16.8179 18 16.6471 18.0487 16.5 18.1338ZM8.5 17C9.32843 17 10 16.3284 10 15.5 10 14.6716 9.32843 14 8.5 14 7.67157 14 7 14.6716 7 15.5 7 16.3284 7.67157 17 8.5 17ZM15.5 17C16.3284 17 17 16.3284 17 15.5 17 14.6716 16.3284 14 15.5 14 14.6716 14 14 14.6716 14 15.5 14 16.3284 14.6716 17 15.5 17Z" clip-rule="evenodd"/><path class="fn-svg-icon" fill-rule="evenodd" d="M4 5C4 3.34315 5.34315 2 7 2H17C18.6569 2 20 3.34315 20 5V17C20 18.6569 18.6569 20 17 20H7C5.34315 20 4 18.6569 4 17V5ZM7 4C6.44772 4 6 4.44772 6 5V17C6 17.5523 6.44772 18 7 18H17C17.5523 18 18 17.5523 18 17V5C18 4.44772 17.5523 4 17 4H7Z" clip-rule="evenodd"/></svg>
