<svg xmlns="http://www.w3.org/2000/svg" viewBox="0 0 24 24"><path class="fn-svg-icon" fill-rule="evenodd" d="M3 8C3 6.34315 4.34315 5 6 5H18C19.6569 5 21 6.34315 21 8V16C21 17.6569 19.6569 19 18 19H6C4.34315 19 3 17.6569 3 16V8ZM6 7C5.44772 7 5 7.44772 5 8V16C5 16.5523 5.44772 17 6 17H18C18.5523 17 19 16.5523 19 16V8C19 7.44772 18.5523 7 18 7H6Z" clip-rule="evenodd"/><path class="fn-svg-icon" fill-rule="evenodd" d="M7 14C7 13.4477 7.44772 13 8 13H12C12.5523 13 13 13.4477 13 14 13 14.5523 12.5523 15 12 15H8C7.44772 15 7 14.5523 7 14ZM7 10C7 9.44772 7.44772 9 8 9H16C16.5523 9 17 9.44772 17 10 17 10.5523 16.5523 11 16 11H8C7.44772 11 7 10.5523 7 10Z" clip-rule="evenodd"/></svg>
