<svg xmlns="http://www.w3.org/2000/svg" viewBox="0 0 24 24"><path class="fn-svg-icon" fill-rule="evenodd" d="M5 9C5 5.13401 8.13401 2 12 2C15.866 2 19 5.13401 19 9C19 12.866 15.866 16 12 16C8.13401 16 5 12.866 5 9ZM12 4C9.23858 4 7 6.23858 7 9C7 11.7614 9.23858 14 12 14C14.7614 14 17 11.7614 17 9C17 6.23858 14.7614 4 12 4Z" clip-rule="evenodd"/><path class="fn-svg-icon" fill-rule="evenodd" d="M12 12C13.6569 12 15 10.6569 15 9 15 7.34315 13.6569 6 12 6 10.3431 6 9 7.34315 9 9 9 10.6569 10.3431 12 12 12ZM10.3162 14.0513C10.8402 14.226 11.1233 14.7923 10.9487 15.3162L9.38743 20H14.6126L13.0513 15.3162C12.8767 14.7923 13.1598 14.226 13.6838 14.0513 14.2077 13.8767 14.774 14.1598 14.9487 14.6838L16.9487 20.6838C17.0503 20.9887 16.9992 21.3239 16.8112 21.5847 16.6233 21.8455 16.3214 22 16 22H8C7.67856 22 7.37671 21.8455 7.18876 21.5847 7.00081 21.3239 6.94967 20.9887 7.05132 20.6838L9.05132 14.6838C9.22596 14.1598 9.79228 13.8767 10.3162 14.0513Z" clip-rule="evenodd"/></svg>
