<svg xmlns="http://www.w3.org/2000/svg" viewBox="0 0 24 24"><path class="fn-svg-icon" fill-rule="evenodd" d="M3 2C3 1.44772 3.44772 1 4 1H7.99609C8.26085 1 8.51479 1.10499 8.70225 1.29195L10.0003 2.58648L11.2926 1.29315C11.4802 1.10546 11.7347 1 12 1H15.999C16.2639 1 16.518 1.10512 16.7055 1.29229L18.4162 3H20C20.5523 3 21 3.44772 21 4V22C21 22.5523 20.5523 23 20 23H16C15.7348 23 15.4804 22.8946 15.2929 22.7071L14.0002 21.4144L12.7083 22.7069C12.5207 22.8946 12.2663 23 12.001 23H8C7.73478 23 7.48043 22.8946 7.29289 22.7071L5.58579 21H4C3.44772 21 3 20.5523 3 20V2ZM5 3V19H6C6.26522 19 6.51957 19.1054 6.70711 19.2929L8.41421 21H11.5866L13.2927 19.2931C13.4802 19.1055 13.7346 19 13.9999 19C14.2651 19 14.5195 19.1053 14.7071 19.2929L16.4142 21H19V5H18.0024C17.7375 5 17.4834 4.89488 17.2959 4.70771L15.5853 3H12.4144L10.7088 4.70685C10.3187 5.09725 9.68609 5.09779 9.29531 4.70805L7.58267 3H5Z" clip-rule="evenodd"/><path class="fn-svg-icon" fill-rule="evenodd" d="M7 8C7 7.44772 7.44772 7 8 7H12C12.5523 7 13 7.44772 13 8 13 8.55228 12.5523 9 12 9H8C7.44772 9 7 8.55228 7 8ZM7 12C7 11.4477 7.44772 11 8 11H12C12.5523 11 13 11.4477 13 12 13 12.5523 12.5523 13 12 13H8C7.44772 13 7 12.5523 7 12ZM7 16C7 15.4477 7.44772 15 8 15H12C12.5523 15 13 15.4477 13 16 13 16.5523 12.5523 17 12 17H8C7.44772 17 7 16.5523 7 16ZM16 9.5C16.8284 9.5 17.5 8.82843 17.5 8 17.5 7.17157 16.8284 6.5 16 6.5 15.1716 6.5 14.5 7.17157 14.5 8 14.5 8.82843 15.1716 9.5 16 9.5ZM16 13.5C16.8284 13.5 17.5 12.8284 17.5 12 17.5 11.1716 16.8284 10.5 16 10.5 15.1716 10.5 14.5 11.1716 14.5 12 14.5 12.8284 15.1716 13.5 16 13.5ZM16 17.5C16.8284 17.5 17.5 16.8284 17.5 16 17.5 15.1716 16.8284 14.5 16 14.5 15.1716 14.5 14.5 15.1716 14.5 16 14.5 16.8284 15.1716 17.5 16 17.5Z" clip-rule="evenodd"/></svg>
