<svg xmlns="http://www.w3.org/2000/svg" viewBox="0 0 24 24"><path class="fn-svg-icon" fill-rule="evenodd" d="M5.00003 4C5.00003 3.44772 5.44774 3 6.00003 3H18C18.5523 3 19 3.44772 19 4 19 4.55228 18.5523 5 18 5H6.00003C5.44774 5 5.00003 4.55228 5.00003 4ZM6.00003 14C6.55231 14 7.00003 14.4477 7.00003 15V19H13V15C13 14.4477 13.4477 14 14 14 14.5523 14 15 14.4477 15 15V20C15 20.5523 14.5523 21 14 21H6.00003C5.44774 21 5.00003 20.5523 5.00003 20V15C5.00003 14.4477 5.44774 14 6.00003 14ZM18 14C18.5523 14 19 14.4477 19 15V20C19 20.5523 18.5523 21 18 21 17.4477 21 17 20.5523 17 20V15C17 14.4477 17.4477 14 18 14Z" clip-rule="evenodd"/><path class="fn-svg-icon" fill-rule="evenodd" d="M5.05134 6.68377C5.18746 6.27543 5.5696 6 6.00003 6H18C18.4305 6 18.8126 6.27543 18.9487 6.68377L20.9487 12.6838C21.0685 13.0431 20.975 13.4393 20.7071 13.7071L20.1213 14.2929C18.9894 15.4248 17.1779 15.4631 16 14.4077C14.8633 15.4262 13.1367 15.4262 12 14.4077C10.8634 15.4262 9.13671 15.4262 8.00003 14.4078C6.82211 15.4631 5.01065 15.4248 3.87871 14.2929L3.29292 13.7071C3.02509 13.4393 2.93157 13.0431 3.05134 12.6838L5.05134 6.68377ZM6.72079 8L5.14415 12.7299L5.29292 12.8787C5.68344 13.2692 6.31661 13.2692 6.70713 12.8787L7.29292 12.2929C7.68344 11.9024 8.31661 11.9024 8.70713 12.2929L9.29292 12.8787C9.68344 13.2692 10.3166 13.2692 10.7071 12.8787L11.2929 12.2929C11.6834 11.9024 12.3166 11.9024 12.7071 12.2929L13.2929 12.8787C13.6834 13.2692 14.3166 13.2692 14.7071 12.8787L15.2929 12.2929C15.6834 11.9024 16.3166 11.9024 16.7071 12.2929L17.2929 12.8787C17.6834 13.2692 18.3166 13.2692 18.7071 12.8787L18.8559 12.7299L17.2793 8H6.72079Z" clip-rule="evenodd"/></svg>
