<svg xmlns="http://www.w3.org/2000/svg" viewBox="0 0 24 24"><path class="fn-svg-icon" fill-rule="evenodd" d="M12 6C9.23858 6 7 8.23858 7 11C7 11.5523 6.55228 12 6 12H5C3.34315 12 2 13.3431 2 15C2 16.6569 3.34315 18 5 18H18C20.2091 18 22 16.2091 22 14C22 11.7909 20.2091 10 18 10C17.9088 10 17.8184 10.003 17.729 10.009C17.2809 10.0389 16.8679 9.76631 16.719 9.34257C16.0348 7.39438 14.179 6 12 6ZM5.07089 10C5.55612 6.60771 8.47353 4 12 4C14.7972 4 17.2091 5.64019 18.3303 8.00894C21.4904 8.18039 24 10.7971 24 14C24 17.3137 21.3137 20 18 20H5C2.23858 20 0 17.7614 0 15C0 12.2386 2.23858 10 5 10H5.07089Z" clip-rule="evenodd"/></svg>
