<svg xmlns="http://www.w3.org/2000/svg" viewBox="0 0 24 24"><path class="fn-svg-icon" fill-rule="evenodd" d="M11.5939 2.08619C11.8524 1.97127 12.1476 1.97127 12.4061 2.08619L20.2184 5.55831C21.3018 6.03981 22 7.11418 22 8.29975V19C22 20.6569 20.6569 22 19 22H5C3.34315 22 2 20.6569 2 19V8.29975C2 7.11418 2.6982 6.03982 3.78158 5.55831L11.5939 2.08619ZM12 4.09432L4.59386 7.38593C4.23273 7.54644 4 7.90456 4 8.29975V19C4 19.5523 4.44772 20 5 20H19C19.5523 20 20 19.5523 20 19V8.29975C20 7.90456 19.7673 7.54644 19.4061 7.38593L12 4.09432Z" clip-rule="evenodd"/><path class="fn-svg-icon" fill-rule="evenodd" d="M3.152 8.47C3.44471 8.00166 4.06166 7.85929 4.53 8.152L11.47 12.4895C11.7943 12.6922 12.2057 12.6922 12.53 12.4895L19.47 8.152C19.9383 7.85929 20.5553 8.00166 20.848 8.47C21.1407 8.93834 20.9983 9.55529 20.53 9.848L13.59 14.1855C12.6172 14.7935 11.3828 14.7935 10.41 14.1855L3.47 9.848C3.00166 9.55529 2.85929 8.93834 3.152 8.47Z" clip-rule="evenodd"/></svg>
