<svg xmlns="http://www.w3.org/2000/svg" viewBox="0 0 24 24"><path class="fn-svg-icon" fill-rule="evenodd" d="M2 12C2 6.47715 6.47715 2 12 2C17.5228 2 22 6.47715 22 12C22 13.1675 21.7995 14.2903 21.4303 15.3346C21.2461 15.8553 20.6748 16.1281 20.1541 15.944C19.6334 15.7599 19.3605 15.1885 19.5447 14.6678C19.8393 13.8347 20 12.9372 20 12C20 7.58172 16.4183 4 12 4C7.58172 4 4 7.58172 4 12C4 16.4183 7.58172 20 12 20C12.5523 20 13 20.4477 13 21C13 21.5523 12.5523 22 12 22C6.47715 22 2 17.5228 2 12Z" clip-rule="evenodd"/><path class="fn-svg-icon" fill-rule="evenodd" d="M8 3C8.55228 3 9 3.44772 9 4V12C9 12.5523 9.44772 13 10 13 10.5516 13 11 12.5519 11 11.999 11 10.3428 12.3425 8.99799 14 8.99799 15.6569 8.99799 17 10.3411 17 11.998V15C17 15.5523 16.5523 16 16 16 15.4477 16 15 15.5523 15 15V11.998C15 11.4457 14.5523 10.998 14 10.998 13.4484 10.998 13 11.4461 13 11.999 13 13.6552 11.6575 15 10 15 8.34315 15 7 13.6569 7 12V4C7 3.44772 7.44772 3 8 3ZM16 21C16.5523 21 17 20.5523 17 20 17 19.4477 16.5523 19 16 19 15.4477 19 15 19.4477 15 20 15 20.5523 15.4477 21 16 21ZM18 19C18.5523 19 19 18.5523 19 18 19 17.4477 18.5523 17 18 17 17.4477 17 17 17.4477 17 18 17 18.5523 17.4477 19 18 19ZM14 19C14.5523 19 15 18.5523 15 18 15 17.4477 14.5523 17 14 17 13.4477 17 13 17.4477 13 18 13 18.5523 13.4477 19 14 19Z" clip-rule="evenodd"/></svg>
