<svg xmlns="http://www.w3.org/2000/svg" viewBox="0 0 24 24"><path class="fn-svg-icon" fill-rule="evenodd" d="M11 7C11 6.44772 11.4477 6 12 6H19C19.5523 6 20 6.44772 20 7 20 7.55228 19.5523 8 19 8H12C11.4477 8 11 7.55228 11 7ZM9.70711 3.29289C10.0976 3.68342 10.0976 4.31658 9.70711 4.70711L5.70711 8.70711C5.31658 9.09763 4.68342 9.09763 4.29289 8.70711L2.29289 6.70711C1.90237 6.31658 1.90237 5.68342 2.29289 5.29289 2.68342 4.90237 3.31658 4.90237 3.70711 5.29289L5 6.58579 8.29289 3.29289C8.68342 2.90237 9.31658 2.90237 9.70711 3.29289ZM5.5 13.5C6.32843 13.5 7 12.8284 7 12 7 11.1716 6.32843 10.5 5.5 10.5 4.67157 10.5 4 11.1716 4 12 4 12.8284 4.67157 13.5 5.5 13.5ZM9 12C9 11.4477 9.44772 11 10 11H19C19.5523 11 20 11.4477 20 12 20 12.5523 19.5523 13 19 13H10C9.44772 13 9 12.5523 9 12ZM5.5 18.5C6.32843 18.5 7 17.8284 7 17 7 16.1716 6.32843 15.5 5.5 15.5 4.67157 15.5 4 16.1716 4 17 4 17.8284 4.67157 18.5 5.5 18.5ZM9 17C9 16.4477 9.44772 16 10 16H19C19.5523 16 20 16.4477 20 17 20 17.5523 19.5523 18 19 18H10C9.44772 18 9 17.5523 9 17Z" clip-rule="evenodd"/></svg>
