<svg xmlns="http://www.w3.org/2000/svg" viewBox="0 0 24 24"><path class="fn-svg-icon" fill-rule="evenodd" d="M5 6C5 4.34315 6.34315 3 8 3H16C17.6569 3 19 4.34315 19 6V18C19 19.6569 17.6569 21 16 21H8C6.34315 21 5 19.6569 5 18V6ZM8 5C7.44772 5 7 5.44772 7 6V18C7 18.5523 7.44772 19 8 19H16C16.5523 19 17 18.5523 17 18V6C17 5.44772 16.5523 5 16 5H8Z" clip-rule="evenodd"/><path class="fn-svg-icon" fill-rule="evenodd" d="M8 14C8 13.4477 8.44772 13 9 13H15C15.5523 13 16 13.4477 16 14 16 14.5523 15.5523 15 15 15H9C8.44772 15 8 14.5523 8 14ZM8 17C8 16.4477 8.44772 16 9 16H15C15.5523 16 16 16.4477 16 17 16 17.5523 15.5523 18 15 18H9C8.44772 18 8 17.5523 8 17ZM8 11C8 10.4477 8.44772 10 9 10H15C15.5523 10 16 10.4477 16 11 16 11.5523 15.5523 12 15 12H9C8.44772 12 8 11.5523 8 11ZM15 8C15.5523 8 16 7.55228 16 7 16 6.44772 15.5523 6 15 6 14.4477 6 14 6.44772 14 7 14 7.55228 14.4477 8 15 8Z" clip-rule="evenodd"/></svg>
