<svg xmlns="http://www.w3.org/2000/svg" viewBox="0 0 24 24"><path class="fn-svg-icon" fill-rule="evenodd" d="M11.2929 15.2929C11.6834 14.9024 12.3166 14.9024 12.7071 15.2929L15.7071 18.2929C16.0976 18.6834 16.0976 19.3166 15.7071 19.7071 15.3166 20.0976 14.6834 20.0976 14.2929 19.7071L12 17.4142 9.70711 19.7071C9.31658 20.0976 8.68342 20.0976 8.29289 19.7071 7.90237 19.3166 7.90237 18.6834 8.29289 18.2929L11.2929 15.2929ZM8.29289 4.29289C8.68342 3.90237 9.31658 3.90237 9.70711 4.29289L12 6.58579 14.2929 4.29289C14.6834 3.90237 15.3166 3.90237 15.7071 4.29289 16.0976 4.68342 16.0976 5.31658 15.7071 5.70711L12.7071 8.70711C12.3166 9.09763 11.6834 9.09763 11.2929 8.70711L8.29289 5.70711C7.90237 5.31658 7.90237 4.68342 8.29289 4.29289Z" clip-rule="evenodd"/></svg>
