<svg xmlns="http://www.w3.org/2000/svg" viewBox="0 0 24 24"><path class="fn-svg-icon" fill-rule="evenodd" d="M12 6C12.5523 6 13 6.44772 13 7V11.6667L15.8 15.4C16.1314 15.8418 16.0418 16.4686 15.6 16.8 15.1582 17.1314 14.5314 17.0418 14.2 16.6L11.2 12.6C11.0702 12.4269 11 12.2164 11 12V7C11 6.44772 11.4477 6 12 6ZM15 3C15 2.44772 15.4477 2 16 2H21C21.5523 2 22 2.44772 22 3 22 3.55228 21.5523 4 21 4H16C15.4477 4 15 3.55228 15 3ZM15 6C15 5.44772 15.4477 5 16 5H21C21.5523 5 22 5.44772 22 6 22 6.55228 21.5523 7 21 7H16C15.4477 7 15 6.55228 15 6ZM15 9C15 8.44772 15.4477 8 16 8H21C21.5523 8 22 8.44772 22 9 22 9.55228 21.5523 10 21 10H16C15.4477 10 15 9.55228 15 9Z" clip-rule="evenodd"/><path class="fn-svg-icon" fill-rule="evenodd" d="M2 12C2 6.47715 6.47715 2 12 2C12.5523 2 13 2.44772 13 3C13 3.55228 12.5523 4 12 4C7.58172 4 4 7.58172 4 12C4 16.4183 7.58172 20 12 20C16.117 20 19.5088 16.8892 19.9511 12.8905C20.0118 12.3416 20.506 11.9458 21.0549 12.0065C21.6039 12.0672 21.9997 12.5615 21.939 13.1104C21.3859 18.1112 17.1478 22 12 22C6.47715 22 2 17.5228 2 12Z" clip-rule="evenodd"/></svg>
