<svg xmlns="http://www.w3.org/2000/svg" viewBox="0 0 24 24"><path class="fn-svg-icon" fill-rule="evenodd" d="M7 6C6.44772 6 6 6.44772 6 7V19C6 19.5523 6.44772 20 7 20H17C17.5523 20 18 19.5523 18 19V7C18 6.44772 17.5523 6 17 6H15C14.4477 6 14 5.55228 14 5C14 4.44772 14.4477 4 15 4H17C18.6569 4 20 5.34315 20 7V19C20 20.6569 18.6569 22 17 22H7C5.34315 22 4 20.6569 4 19V7C4 5.34315 5.34315 4 7 4H9C9.55228 4 10 4.44772 10 5C10 5.55228 9.55228 6 9 6H7Z" clip-rule="evenodd"/><path class="fn-svg-icon" fill-rule="evenodd" d="M8 14C8 13.4477 8.44772 13 9 13H15C15.5523 13 16 13.4477 16 14C16 14.5523 15.5523 15 15 15H9C8.44772 15 8 14.5523 8 14Z" clip-rule="evenodd"/><path class="fn-svg-icon" fill-rule="evenodd" d="M12 10C12.5523 10 13 10.4477 13 11V17C13 17.5523 12.5523 18 12 18 11.4477 18 11 17.5523 11 17V11C11 10.4477 11.4477 10 12 10ZM8 4C8 2.89543 8.89543 2 10 2H14C15.1046 2 16 2.89543 16 4V6C16 7.10457 15.1046 8 14 8H10C8.89543 8 8 7.10457 8 6V4ZM14 4H10V6H14V4Z" clip-rule="evenodd"/></svg>
