<svg xmlns="http://www.w3.org/2000/svg" viewBox="0 0 24 24"><path class="fn-svg-icon" fill-rule="evenodd" d="M2 3C2 2.44772 2.44772 2 3 2H21C21.5523 2 22 2.44772 22 3C22 3.55228 21.5523 4 21 4H4V21C4 21.5523 3.55228 22 3 22C2.44772 22 2 21.5523 2 21V3Z" clip-rule="evenodd"/><path class="fn-svg-icon" fill-rule="evenodd" d="M7 2C7.55228 2 8 2.44772 8 3V5C8 5.55228 7.55228 6 7 6 6.44772 6 6 5.55228 6 5V3C6 2.44772 6.44772 2 7 2ZM2 7C2 6.44772 2.44772 6 3 6H5C5.55228 6 6 6.44772 6 7 6 7.55228 5.55228 8 5 8H3C2.44772 8 2 7.55228 2 7ZM2 11C2 10.4477 2.44772 10 3 10H5C5.55228 10 6 10.4477 6 11 6 11.5523 5.55228 12 5 12H3C2.44772 12 2 11.5523 2 11ZM2 15C2 14.4477 2.44772 14 3 14H5C5.55228 14 6 14.4477 6 15 6 15.5523 5.55228 16 5 16H3C2.44772 16 2 15.5523 2 15ZM2 19C2 18.4477 2.44772 18 3 18H5C5.55228 18 6 18.4477 6 19 6 19.5523 5.55228 20 5 20H3C2.44772 20 2 19.5523 2 19ZM11 2C11.5523 2 12 2.44772 12 3V5C12 5.55228 11.5523 6 11 6 10.4477 6 10 5.55228 10 5V3C10 2.44772 10.4477 2 11 2ZM15 2C15.5523 2 16 2.44772 16 3V5C16 5.55228 15.5523 6 15 6 14.4477 6 14 5.55228 14 5V3C14 2.44772 14.4477 2 15 2ZM19 2C19.5523 2 20 2.44772 20 3V5C20 5.55228 19.5523 6 19 6 18.4477 6 18 5.55228 18 5V3C18 2.44772 18.4477 2 19 2ZM18 13C19.1046 13 20 12.1046 20 11 20 9.89543 19.1046 9 18 9 16.8954 9 16 9.89543 16 11 16 12.1046 16.8954 13 18 13ZM12.5528 11.1056C13.0468 10.8586 13.6474 11.0588 13.8944 11.5528 14.2635 12.2909 14.8 12.643 15.2464 12.8215 15.4748 12.9129 15.6801 12.9582 15.8239 12.9804 15.8952 12.9913 15.9493 12.9963 15.9809 12.9985 15.9967 12.9995 16.0066 12.9999 16.0101 13 16.01 13 16.0101 13 16.0101 13 16.3749 13.0037 16.7093 13.206 16.8817 13.5281 17.0557 13.8533 17.0366 14.2478 16.8321 14.5547L14.8321 17.5547C14.6466 17.8329 14.3344 18 14 18H12V20C12 20.5523 11.5523 21 11 21 10.4477 21 10 20.5523 10 20V17C10 16.4477 10.4477 16 11 16H13.4648L14.3801 14.627C13.6031 14.2897 12.7045 13.6451 12.1056 12.4472 11.8586 11.9532 12.0588 11.3526 12.5528 11.1056Z" clip-rule="evenodd"/></svg>
