<svg xmlns="http://www.w3.org/2000/svg" viewBox="0 0 24 24"><path class="fn-svg-icon" fill-rule="evenodd" d="M20 3C20.5523 3 21 3.44772 21 4V20C21 20.5523 20.5523 21 20 21 19.4477 21 19 20.5523 19 20V4C19 3.44772 19.4477 3 20 3ZM12 7C12.5523 7 13 7.44772 13 8V20C13 20.5523 12.5523 21 12 21 11.4477 21 11 20.5523 11 20V8C11 7.44772 11.4477 7 12 7ZM16 10C16.5523 10 17 10.4477 17 11V20C17 20.5523 16.5523 21 16 21 15.4477 21 15 20.5523 15 20V11C15 10.4477 15.4477 10 16 10ZM8 21C8.55228 21 9 20.5523 9 20 9 19.4477 8.55228 19 8 19 7.44772 19 7 19.4477 7 20 7 20.5523 7.44772 21 8 21ZM8 18C8.55228 18 9 17.5523 9 17 9 16.4477 8.55228 16 8 16 7.44772 16 7 16.4477 7 17 7 17.5523 7.44772 18 8 18ZM8 15C8.55228 15 9 14.5523 9 14 9 13.4477 8.55228 13 8 13 7.44772 13 7 13.4477 7 14 7 14.5523 7.44772 15 8 15ZM4 21C4.55228 21 5 20.5523 5 20 5 19.4477 4.55228 19 4 19 3.44772 19 3 19.4477 3 20 3 20.5523 3.44772 21 4 21ZM4 18C4.55228 18 5 17.5523 5 17 5 16.4477 4.55228 16 4 16 3.44772 16 3 16.4477 3 17 3 17.5523 3.44772 18 4 18Z" clip-rule="evenodd"/></svg>
