<svg xmlns="http://www.w3.org/2000/svg" viewBox="0 0 24 24"><path class="fn-svg-icon" fill-rule="evenodd" d="M7 9C7 7.34315 8.34315 6 10 6H18C19.6569 6 21 7.34315 21 9V19C21 20.6569 19.6569 22 18 22H10C8.34315 22 7 20.6569 7 19V9ZM10 8C9.44772 8 9 8.44772 9 9V19C9 19.5523 9.44772 20 10 20H18C18.5523 20 19 19.5523 19 19V9C19 8.44772 18.5523 8 18 8H10Z" clip-rule="evenodd"/><path class="fn-svg-icon" fill-rule="evenodd" d="M6 4C5.44772 4 5 4.44772 5 5V17C5 17.5523 4.55228 18 4 18C3.44772 18 3 17.5523 3 17V5C3 3.34315 4.34315 2 6 2H16C16.5523 2 17 2.44772 17 3C17 3.55228 16.5523 4 16 4H6Z" clip-rule="evenodd"/></svg>
