<svg xmlns="http://www.w3.org/2000/svg" viewBox="0 0 24 24"><path class="fn-svg-icon" fill-rule="evenodd" d="M3 6C3 4.34315 4.34315 3 6 3H18C19.6569 3 21 4.34315 21 6V18C21 19.6569 19.6569 21 18 21H6C4.34315 21 3 19.6569 3 18V6ZM6 5C5.44772 5 5 5.44772 5 6V18C5 18.5523 5.44772 19 6 19H18C18.5523 19 19 18.5523 19 18V6C19 5.44772 18.5523 5 18 5H6Z" clip-rule="evenodd"/><path class="fn-svg-icon" fill-rule="evenodd" d="M9 12C9.55228 12 10 11.5523 10 11 10 10.4477 9.55228 10 9 10 8.44772 10 8 10.4477 8 11 8 11.5523 8.44772 12 9 12ZM7 14C7.55228 14 8 13.5523 8 13 8 12.4477 7.55228 12 7 12 6.44772 12 6 12.4477 6 13 6 13.5523 6.44772 14 7 14ZM9 8C9.55228 8 10 7.55228 10 7 10 6.44772 9.55228 6 9 6 8.44772 6 8 6.44772 8 7 8 7.55228 8.44772 8 9 8ZM11 10C11.5523 10 12 9.55228 12 9 12 8.44772 11.5523 8 11 8 10.4477 8 10 8.44772 10 9 10 9.55228 10.4477 10 11 10ZM13 8C13.5523 8 14 7.55228 14 7 14 6.44772 13.5523 6 13 6 12.4477 6 12 6.44772 12 7 12 7.55228 12.4477 8 13 8ZM14.7529 14.0022C15.1242 14.5236 15.8758 14.5236 16.2471 14.0022 16.9837 12.9674 18 11.3803 18 10.5 18 9.11929 16.8807 8 15.5 8 14.1193 8 13 9.11929 13 10.5 13 11.3803 14.0163 12.9674 14.7529 14.0022ZM11 14C11.5523 14 12 13.5523 12 13 12 12.4477 11.5523 12 11 12 10.4477 12 10 12.4477 10 13 10 13.5523 10.4477 14 11 14ZM13 16C13.5523 16 14 15.5523 14 15 14 14.4477 13.5523 14 13 14 12.4477 14 12 14.4477 12 15 12 15.5523 12.4477 16 13 16ZM15 18C15.5523 18 16 17.5523 16 17 16 16.4477 15.5523 16 15 16 14.4477 16 14 16.4477 14 17 14 17.5523 14.4477 18 15 18Z" clip-rule="evenodd"/></svg>
