<svg xmlns="http://www.w3.org/2000/svg" viewBox="0 0 24 24"><path class="fn-svg-icon" fill-rule="evenodd" d="M9.99998 8C9.99998 4.68629 12.6863 2 16 2C19.3137 2 22 4.68629 22 8C22 11.3137 19.3137 14 16 14C12.6863 14 9.99998 11.3137 9.99998 8ZM16 4C13.7908 4 12 5.79086 12 8C12 10.2091 13.7908 12 16 12C18.2091 12 20 10.2091 20 8C20 5.79086 18.2091 4 16 4Z" clip-rule="evenodd"/><path class="fn-svg-icon" fill-rule="evenodd" d="M21.4473 14.1056C21.9412 14.3526 22.1414 14.9533 21.8944 15.4473L18.8938 21.4473C18.75 21.7348 18.4768 21.9356 18.1595 21.9871 17.8422 22.0386 17.5195 21.9344 17.2922 21.7071L13.8025 18.2168 10.4472 19.8944C10.0622 20.0869 9.59724 20.0115 9.29288 19.7071L5.87257 16.2868 3.55468 17.8321C3.09516 18.1384 2.47429 18.0142 2.16793 17.5547 1.86158 17.0952 1.98576 16.4743 2.44528 16.1679L5.44528 14.1679C5.84191 13.9035 6.37003 13.9558 6.70709 14.2929L10.1974 17.7832 13.5528 16.1056C13.9378 15.9131 14.4028 15.9885 14.7071 16.2929L17.7256 19.3118 20.1056 14.5527C20.3526 14.0588 20.9533 13.8586 21.4473 14.1056ZM16 5C16.5523 5 17 5.44772 17 6V7.58579L17.7071 8.29289C18.0976 8.68342 18.0976 9.31658 17.7071 9.70711 17.3166 10.0976 16.6834 10.0976 16.2929 9.70711L15.2929 8.70711C15.1053 8.51957 15 8.26522 15 8V6C15 5.44772 15.4477 5 16 5Z" clip-rule="evenodd"/></svg>
