<svg xmlns="http://www.w3.org/2000/svg" viewBox="0 0 24 24"><path class="fn-svg-icon" fill-rule="evenodd" d="M3 2C3.55228 2 4 2.44772 4 3V20H21C21.5523 20 22 20.4477 22 21C22 21.5523 21.5523 22 21 22H3C2.44772 22 2 21.5523 2 21V3C2 2.44772 2.44772 2 3 2Z" clip-rule="evenodd"/><path class="fn-svg-icon" fill-rule="evenodd" d="M7 2C7.55228 2 8 2.44772 8 3V17C8 17.5523 7.55228 18 7 18 6.44772 18 6 17.5523 6 17V3C6 2.44772 6.44772 2 7 2ZM11 2C11.5523 2 12 2.44772 12 3V6C12 6.55228 11.5523 7 11 7 10.4477 7 10 6.55228 10 6V3C10 2.44772 10.4477 2 11 2ZM15 5C15.5523 5 16 5.44772 16 6V12C16 12.5523 15.5523 13 15 13 14.4477 13 14 12.5523 14 12V6C14 5.44772 14.4477 5 15 5ZM19 11C19.5523 11 20 11.4477 20 12V17C20 17.5523 19.5523 18 19 18 18.4477 18 18 17.5523 18 17V12C18 11.4477 18.4477 11 19 11Z" clip-rule="evenodd"/></svg>
