<svg xmlns="http://www.w3.org/2000/svg" viewBox="0 0 24 24"><path class="fn-svg-icon" fill-rule="evenodd" d="M12 3C12.5523 3 13 3.44772 13 4V20C13 20.5523 12.5523 21 12 21C11.4477 21 11 20.5523 11 20V4C11 3.44772 11.4477 3 12 3Z" clip-rule="evenodd"/><path class="fn-svg-icon" fill-rule="evenodd" d="M3 12C3 11.4477 3.44772 11 4 11H20C20.5523 11 21 11.4477 21 12 21 12.5523 20.5523 13 20 13H4C3.44772 13 3 12.5523 3 12ZM11.2929 2.29289C11.6834 1.90237 12.3166 1.90237 12.7071 2.29289L15.7071 5.29289C16.0976 5.68342 16.0976 6.31658 15.7071 6.70711 15.3166 7.09763 14.6834 7.09763 14.2929 6.70711L12 4.41421 9.70711 6.70711C9.31658 7.09763 8.68342 7.09763 8.29289 6.70711 7.90237 6.31658 7.90237 5.68342 8.29289 5.29289L11.2929 2.29289Z" clip-rule="evenodd"/><path class="fn-svg-icon" fill-rule="evenodd" d="M17.2929 8.29289C17.6834 7.90237 18.3166 7.90237 18.7071 8.29289L21.7071 11.2929C22.0976 11.6834 22.0976 12.3166 21.7071 12.7071L18.7071 15.7071C18.3166 16.0976 17.6834 16.0976 17.2929 15.7071 16.9024 15.3166 16.9024 14.6834 17.2929 14.2929L19.5858 12 17.2929 9.70711C16.9024 9.31658 16.9024 8.68342 17.2929 8.29289ZM6.70711 8.29289C7.09763 8.68342 7.09763 9.31658 6.70711 9.70711L4.41421 12 6.70711 14.2929C7.09763 14.6834 7.09763 15.3166 6.70711 15.7071 6.31658 16.0976 5.68342 16.0976 5.29289 15.7071L2.29289 12.7071C1.90237 12.3166 1.90237 11.6834 2.29289 11.2929L5.29289 8.29289C5.68342 7.90237 6.31658 7.90237 6.70711 8.29289ZM8.29289 17.2929C8.68342 16.9024 9.31658 16.9024 9.70711 17.2929L12 19.5858 14.2929 17.2929C14.6834 16.9024 15.3166 16.9024 15.7071 17.2929 16.0976 17.6834 16.0976 18.3166 15.7071 18.7071L12.7071 21.7071C12.3166 22.0976 11.6834 22.0976 11.2929 21.7071L8.29289 18.7071C7.90237 18.3166 7.90237 17.6834 8.29289 17.2929Z" clip-rule="evenodd"/></svg>
