<svg xmlns="http://www.w3.org/2000/svg" viewBox="0 0 24 24"><path class="fn-svg-icon" fill-rule="evenodd" d="M12 17C12.5523 17 13 17.4477 13 18V21C13 21.5523 12.5523 22 12 22C11.4477 22 11 21.5523 11 21V18C11 17.4477 11.4477 17 12 17Z" clip-rule="evenodd"/><path class="fn-svg-icon" fill-rule="evenodd" d="M6 11C6.55228 11 7 11.4477 7 12C7 14.7614 9.23858 17 12 17C14.7614 17 17 14.7614 17 12C17 11.4477 17.4477 11 18 11C18.5523 11 19 11.4477 19 12C19 15.866 15.866 19 12 19C8.13401 19 5 15.866 5 12C5 11.4477 5.44772 11 6 11Z" clip-rule="evenodd"/><path class="fn-svg-icon" fill-rule="evenodd" d="M9 6C9 4.34315 10.3431 3 12 3C13.6569 3 15 4.34315 15 6V12C15 13.6569 13.6569 15 12 15C10.3431 15 9 13.6569 9 12V6ZM12 5C11.4477 5 11 5.44772 11 6V12C11 12.5523 11.4477 13 12 13C12.5523 13 13 12.5523 13 12V6C13 5.44772 12.5523 5 12 5Z" clip-rule="evenodd"/></svg>
