<svg xmlns="http://www.w3.org/2000/svg" viewBox="0 0 24 24"><path class="fn-svg-icon" fill-rule="evenodd" d="M21.7071 7.29289C22.0976 7.68342 22.0976 8.31658 21.7071 8.70711L14.7071 15.7071C14.3166 16.0976 13.6834 16.0976 13.2929 15.7071L9 11.4142 3.70711 16.7071C3.31658 17.0976 2.68342 17.0976 2.29289 16.7071 1.90237 16.3166 1.90237 15.6834 2.29289 15.2929L8.29289 9.29289C8.68342 8.90237 9.31658 8.90237 9.70711 9.29289L14 13.5858 20.2929 7.29289C20.6834 6.90237 21.3166 6.90237 21.7071 7.29289ZM2.29289 8.29289C2.68342 7.90237 3.31658 7.90237 3.70711 8.29289L4.70711 9.29289C5.09763 9.68342 5.09763 10.3166 4.70711 10.7071 4.31658 11.0976 3.68342 11.0976 3.29289 10.7071L2.29289 9.70711C1.90237 9.31658 1.90237 8.68342 2.29289 8.29289ZM18.2929 14.2929C18.6834 13.9024 19.3166 13.9024 19.7071 14.2929L21.7071 16.2929C22.0976 16.6834 22.0976 17.3166 21.7071 17.7071 21.3166 18.0976 20.6834 18.0976 20.2929 17.7071L18.2929 15.7071C17.9024 15.3166 17.9024 14.6834 18.2929 14.2929Z" clip-rule="evenodd"/><path class="fn-svg-icon" fill-rule="evenodd" d="M9 16C9.55228 16 10 15.5523 10 15 10 14.4477 9.55228 14 9 14 8.44772 14 8 14.4477 8 15 8 15.5523 8.44772 16 9 16ZM14 11C14.5523 11 15 10.5523 15 10 15 9.44772 14.5523 9 14 9 13.4477 9 13 9.44772 13 10 13 10.5523 13.4477 11 14 11Z" clip-rule="evenodd"/></svg>
