<svg xmlns="http://www.w3.org/2000/svg" viewBox="0 0 24 24"><path class="fn-svg-icon" fill-rule="evenodd" d="M2.00003 17C2.00003 14.2386 4.23861 12 7.00003 12 9.76145 12 12 14.2386 12 17 12 19.7614 9.76145 22 7.00003 22 4.23861 22 2.00003 19.7614 2.00003 17ZM7.00003 14C5.34317 14 4.00003 15.3431 4.00003 17 4.00003 18.6569 5.34317 20 7.00003 20 8.65688 20 10 18.6569 10 17 10 15.3431 8.65688 14 7.00003 14ZM12 7C12 4.23858 14.2386 2 17 2 19.7615 2 22 4.23858 22 7 22 9.76142 19.7615 12 17 12 14.2386 12 12 9.76142 12 7ZM17 4C15.3432 4 14 5.34315 14 7 14 8.65685 15.3432 10 17 10 18.6569 10 20 8.65685 20 7 20 5.34315 18.6569 4 17 4Z" clip-rule="evenodd"/><path class="fn-svg-icon" fill-rule="evenodd" d="M10 16C10 15.4477 10.4477 15 11 15H20C20.2652 15 20.5196 15.1054 20.7071 15.2929L21.7071 16.2929C21.9931 16.5789 22.0787 17.009 21.9239 17.3827 21.7691 17.7564 21.4045 18 21 18H11C10.4477 18 10 17.5523 10 17 10 16.8179 10.0487 16.6471 10.1338 16.5 10.0487 16.3529 10 16.1821 10 16ZM3.29292 5.29289C3.48046 5.10536 3.73481 5 4.00003 5H13C13.5523 5 14 5.44772 14 6 14 6.18214 13.9513 6.35291 13.8662 6.5 13.9513 6.64709 14 6.81786 14 7 14 7.55228 13.5523 8 13 8H3.00003C2.59557 8 2.23093 7.75636 2.07615 7.38268 1.92137 7.00901 2.00692 6.57889 2.29292 6.29289L3.29292 5.29289Z" clip-rule="evenodd"/><path class="fn-svg-icon" fill-rule="evenodd" d="M19 16C19.5523 16 20 16.4477 20 17V19C20 19.5523 19.5523 20 19 20 18.4477 20 18 19.5523 18 19V17C18 16.4477 18.4477 16 19 16ZM15 16C15.5523 16 16 16.4477 16 17V19C16 19.5523 15.5523 20 15 20 14.4477 20 14 19.5523 14 19V17C14 16.4477 14.4477 16 15 16ZM9.00003 6C9.55231 6 10 6.44772 10 7V9C10 9.55228 9.55231 10 9.00003 10 8.44774 10 8.00003 9.55228 8.00003 9V7C8.00003 6.44772 8.44774 6 9.00003 6ZM5.00003 6C5.55231 6 6.00003 6.44772 6.00003 7V9C6.00003 9.55228 5.55231 10 5.00003 10 4.44774 10 4.00003 9.55228 4.00003 9V7C4.00003 6.44772 4.44774 6 5.00003 6Z" clip-rule="evenodd"/></svg>
