<svg xmlns="http://www.w3.org/2000/svg" viewBox="0 0 24 24"><path class="fn-svg-icon" fill-rule="evenodd" d="M3 4C3 2.34315 4.34315 1 6 1H18C19.6569 1 21 2.34315 21 4V20C21 21.6569 19.6569 23 18 23H6C4.34315 23 3 21.6569 3 20V4ZM6 3C5.44772 3 5 3.44772 5 4V20C5 20.5523 5.44772 21 6 21H18C18.5523 21 19 20.5523 19 20V4C19 3.44772 18.5523 3 18 3H6Z" clip-rule="evenodd"/><path class="fn-svg-icon" fill-rule="evenodd" d="M4 3C4 2.44772 4.44772 2 5 2H19C19.5523 2 20 2.44772 20 3 20 3.55228 19.5523 4 19 4L5 4C4.44772 4 4 3.55228 4 3ZM4 21C4 20.4477 4.44772 20 5 20H19C19.5523 20 20 20.4477 20 21 20 21.5523 19.5523 22 19 22H5C4.44772 22 4 21.5523 4 21Z" clip-rule="evenodd"/></svg>
