<svg xmlns="http://www.w3.org/2000/svg" viewBox="0 0 24 24"><path class="fn-svg-icon" fill-rule="evenodd" d="M2 5C2 3.34315 3.34315 2 5 2H19C20.6569 2 22 3.34315 22 5V15C22 16.6569 20.6569 18 19 18H5C3.34315 18 2 16.6569 2 15V5ZM5 4C4.44772 4 4 4.44772 4 5V15C4 15.5523 4.44772 16 5 16H19C19.5523 16 20 15.5523 20 15V5C20 4.44772 19.5523 4 19 4H5Z" clip-rule="evenodd"/><path class="fn-svg-icon" fill-rule="evenodd" d="M10.1305 11.3167C10.5471 11.1084 11.0064 11 11.4721 11H12.5279C12.9936 11 13.4529 11.1084 13.8695 11.3167L15.4472 12.1056C15.862 12.313 16.0798 12.7784 15.9732 13.2298 15.8667 13.6811 15.4638 14 15 14H9C8.53622 14 8.13331 13.6811 8.02675 13.2298 7.9202 12.7784 8.13797 12.313 8.55279 12.1056L10.1305 11.3167ZM12 10C13.1046 10 14 9.10457 14 8 14 6.89543 13.1046 6 12 6 10.8954 6 10 6.89543 10 8 10 9.10457 10.8954 10 12 10ZM10.2425 16.0299C10.7783 16.1638 11.1041 16.7067 10.9701 17.2425L9.97014 21.2425C9.83619 21.7783 9.29326 22.1041 8.75746 21.9701 8.22167 21.8362 7.89591 21.2933 8.02986 20.7575L9.02986 16.7575C9.16381 16.2217 9.70674 15.8959 10.2425 16.0299ZM13.7575 16.0299C14.2933 15.8959 14.8362 16.2217 14.9701 16.7575L15.9701 20.7575C16.1041 21.2933 15.7783 21.8362 15.2425 21.9701 14.7067 22.1041 14.1638 21.7783 14.0299 21.2425L13.0299 17.2425C12.8959 16.7067 13.2217 16.1638 13.7575 16.0299Z" clip-rule="evenodd"/><path class="fn-svg-icon" fill-rule="evenodd" d="M6 21C6 20.4477 6.44772 20 7 20H17C17.5523 20 18 20.4477 18 21C18 21.5523 17.5523 22 17 22H7C6.44772 22 6 21.5523 6 21Z" clip-rule="evenodd"/></svg>
