<svg xmlns="http://www.w3.org/2000/svg" viewBox="0 0 24 24"><path class="fn-svg-icon" fill-rule="evenodd" d="M1 4C1 3.44772 1.44772 3 2 3H4C4.37882 3 4.72511 3.21405 4.89448 3.5529L5.61781 5H18.1306C19.7277 5 20.6805 6.7796 19.7952 8.10876L16.8323 12.5568C16.6468 12.8352 16.3345 13.0024 16 13.0024H8C7.62118 13.0024 7.27489 12.7884 7.10552 12.4495L3.38188 5H2C1.44772 5 1 4.55228 1 4ZM6.61751 7L8.61812 11.0024H15.4646L18.1306 7H6.61751Z" clip-rule="evenodd"/><path class="fn-svg-icon" fill-rule="evenodd" d="M8.44721 11.1056C8.94119 11.3526 9.14142 11.9532 8.89443 12.4472L7.61803 15H18C18.5523 15 19 15.4477 19 16 19 16.5523 18.5523 17 18 17H6C5.65342 17 5.33156 16.8205 5.14935 16.5257 4.96714 16.2309 4.95058 15.8628 5.10557 15.5528L7.10557 11.5528C7.35256 11.0588 7.95324 10.8586 8.44721 11.1056ZM17 22C18.1046 22 19 21.1046 19 20 19 18.8954 18.1046 18 17 18 15.8954 18 15 18.8954 15 20 15 21.1046 15.8954 22 17 22ZM7 22C8.10457 22 9 21.1046 9 20 9 18.8954 8.10457 18 7 18 5.89543 18 5 18.8954 5 20 5 21.1046 5.89543 22 7 22Z" clip-rule="evenodd"/></svg>
