<svg xmlns="http://www.w3.org/2000/svg" viewBox="0 0 24 24"><path class="fn-svg-icon" fill-rule="evenodd" d="M4 9C4 8.44772 4.44772 8 5 8H19C19.5523 8 20 8.44772 20 9 20 9.55228 19.5523 10 19 10H5C4.44772 10 4 9.55228 4 9ZM12 16C13.1046 16 14 15.1046 14 14 14 12.8954 13.1046 12 12 12 10.8954 12 10 12.8954 10 14 10 15.1046 10.8954 16 12 16Z" clip-rule="evenodd"/><path class="fn-svg-icon" fill-rule="evenodd" d="M3 7C3 4.23858 5.23858 2 8 2H16C18.7614 2 21 4.23858 21 7V15C21 17.7614 18.7614 20 16 20H8C5.23858 20 3 17.7614 3 15V7ZM8 4C6.34315 4 5 5.34315 5 7V15C5 16.6569 6.34315 18 8 18H16C17.6569 18 19 16.6569 19 15V7C19 5.34315 17.6569 4 16 4H8Z" clip-rule="evenodd"/><path class="fn-svg-icon" fill-rule="evenodd" d="M15.2929 18.2929C15.6834 17.9024 16.3166 17.9024 16.7071 18.2929L20.7071 22.2929C21.0976 22.6834 21.0976 23.3166 20.7071 23.7071 20.3166 24.0976 19.6834 24.0976 19.2929 23.7071L15.2929 19.7071C14.9024 19.3166 14.9024 18.6834 15.2929 18.2929ZM8.70711 18.2929C9.09763 18.6834 9.09763 19.3166 8.70711 19.7071L4.70711 23.7071C4.31658 24.0976 3.68342 24.0976 3.29289 23.7071 2.90237 23.3166 2.90237 22.6834 3.29289 22.2929L7.29289 18.2929C7.68342 17.9024 8.31658 17.9024 8.70711 18.2929Z" clip-rule="evenodd"/></svg>
