<svg xmlns="http://www.w3.org/2000/svg" viewBox="0 0 24 24"><path class="fn-svg-icon" fill-rule="evenodd" d="M5 5C4.44772 5 4 5.44772 4 6V18C4 18.5523 4.44772 19 5 19H7C7.55228 19 8 19.4477 8 20C8 20.5523 7.55228 21 7 21H5C3.34315 21 2 19.6569 2 18V6C2 4.34315 3.34315 3 5 3H9.99805C10.2634 3 10.518 3.1055 10.7055 3.29326L12.4105 5H19C20.6569 5 22 6.34315 22 8C22 8.55228 21.5523 9 21 9C20.4477 9 20 8.55228 20 8C20 7.44772 19.5523 7 19 7H11.996C11.7306 7 11.4761 6.8945 11.2885 6.70674L9.58353 5H5Z" clip-rule="evenodd"/><path class="fn-svg-icon" fill-rule="evenodd" d="M14.5528 9.10557C14.79 8.98696 15.0646 8.96745 15.3162 9.05132L21.3162 11.0513C21.7246 11.1874 22 11.5696 22 12V20C22 20.5523 21.5523 21 21 21C20.4477 21 20 20.5523 20 20V12.7208L15.0767 11.0797L11.4472 12.8944C10.9532 13.1414 10.3526 12.9412 10.1056 12.4472C9.85858 11.9532 10.0588 11.3526 10.5528 11.1056L14.5528 9.10557Z" clip-rule="evenodd"/><path class="fn-svg-icon" fill-rule="evenodd" d="M10.4153 11.1888C10.6761 11.0008 11.0113 10.9497 11.3162 11.0513L17.3162 13.0513C17.7246 13.1874 18 13.5696 18 14V22C18 22.3214 17.8455 22.6233 17.5847 22.8112C17.3239 22.9992 16.9887 23.0503 16.6838 22.9487L10.6838 20.9487C10.2754 20.8126 10 20.4304 10 20V12C10 11.6786 10.1545 11.3767 10.4153 11.1888ZM12 13.3874V19.2792L16 20.6126V14.7208L12 13.3874Z" clip-rule="evenodd"/></svg>
