<svg xmlns="http://www.w3.org/2000/svg" viewBox="0 0 24 24"><path class="fn-svg-icon" fill-rule="evenodd" d="M6 5C5.44772 5 5 5.44772 5 6V8C5 8.55228 4.55228 9 4 9C3.44772 9 3 8.55228 3 8V6C3 4.34315 4.34315 3 6 3H18C19.6569 3 21 4.34315 21 6V18C21 19.6569 19.6569 21 18 21H6C4.34315 21 3 19.6569 3 18V16C3 15.4477 3.44772 15 4 15C4.55228 15 5 15.4477 5 16V18C5 18.5523 5.44772 19 6 19H18C18.5523 19 19 18.5523 19 18V6C19 5.44772 18.5523 5 18 5H6Z" clip-rule="evenodd"/><path class="fn-svg-icon" fill-rule="evenodd" d="M1 12C1 11.4477 1.44772 11 2 11H14C14.5523 11 15 11.4477 15 12C15 12.5523 14.5523 13 14 13H2C1.44772 13 1 12.5523 1 12Z" clip-rule="evenodd"/><path class="fn-svg-icon" fill-rule="evenodd" d="M11.2929 8.29289C11.6834 7.90237 12.3166 7.90237 12.7071 8.29289L15.7071 11.2929C16.0976 11.6834 16.0976 12.3166 15.7071 12.7071L12.7071 15.7071C12.3166 16.0976 11.6834 16.0976 11.2929 15.7071C10.9024 15.3166 10.9024 14.6834 11.2929 14.2929L13.5858 12L11.2929 9.70711C10.9024 9.31658 10.9024 8.68342 11.2929 8.29289Z" clip-rule="evenodd"/></svg>
