<svg xmlns="http://www.w3.org/2000/svg" viewBox="0 0 24 24"><path class="fn-svg-icon" fill-rule="evenodd" d="M10.2929 2.29289C10.4804 2.10536 10.7348 2 11 2H19C19.2652 2 19.5196 2.10536 19.7071 2.29289C19.8946 2.48043 20 2.73478 20 3V21C20 21.5523 19.5523 22 19 22H5C4.44772 22 4 21.5523 4 21V9C4 8.73478 4.10536 8.48043 4.29289 8.29289L10.2929 2.29289ZM11.4142 4L6 9.41421V20H18V4H11.4142Z" clip-rule="evenodd"/><path class="fn-svg-icon" fill-rule="evenodd" d="M6 9H9C10.1046 9 11 8.10457 11 7V4M11 12C11 10.8954 11.8954 10 13 10H15C15.5523 10 16 10.4477 16 11 16 11.5523 15.5523 12 15 12H13V16C13 16.5523 12.5523 17 12 17 11.4477 17 11 16.5523 11 16V12Z" clip-rule="evenodd"/><path class="fn-svg-icon" fill-rule="evenodd" d="M10.5 18C11.8807 18 13 17.1046 13 16C13 14.8954 11.8807 14 10.5 14C9.11929 14 8 14.8954 8 16C8 17.1046 9.11929 18 10.5 18Z" clip-rule="evenodd"/></svg>
