<svg xmlns="http://www.w3.org/2000/svg" viewBox="0 0 24 24"><path class="fn-svg-icon" fill-rule="evenodd" d="M5 4C4.44772 4 4 4.44772 4 5V15C4 15.5523 4.44772 16 5 16H17C17.2652 16 17.5196 16.1054 17.7071 16.2929L20 18.5858V5C20 4.44772 19.5523 4 19 4H5ZM2 5C2 3.34315 3.34315 2 5 2H19C20.6569 2 22 3.34315 22 5V21C22 21.4045 21.7564 21.7691 21.3827 21.9239C21.009 22.0787 20.5789 21.9931 20.2929 21.7071L16.5858 18H5C3.34315 18 2 16.6569 2 15V5Z" clip-rule="evenodd"/><path class="fn-svg-icon" fill-rule="evenodd" d="M8.5 8C8.22386 8 8 8.22386 8 8.5C8 8.77614 8.22386 9 8.5 9H9.5C10.8807 9 12 10.1193 12 11.5C12 12.8807 10.8807 14 9.5 14H7C6.44772 14 6 13.5523 6 13C6 12.4477 6.44772 12 7 12H9.5C9.77614 12 10 11.7761 10 11.5C10 11.2239 9.77614 11 9.5 11H8.5C7.11929 11 6 9.88071 6 8.5C6 7.11929 7.11929 6 8.5 6H11C11.5523 6 12 6.44772 12 7C12 7.55228 11.5523 8 11 8H8.5Z" clip-rule="evenodd"/><path class="fn-svg-icon" fill-rule="evenodd" d="M9 2C9.55228 2 10 2.44772 10 3V7C10 7.55228 9.55228 8 9 8 8.44772 8 8 7.55228 8 7V3C8 2.44772 8.44772 2 9 2ZM14 7C14 6.44772 14.4477 6 15 6H17C17.5523 6 18 6.44772 18 7 18 7.55228 17.5523 8 17 8H15C14.4477 8 14 7.55228 14 7ZM14 10C14 9.44772 14.4477 9 15 9H17C17.5523 9 18 9.44772 18 10 18 10.5523 17.5523 11 17 11H15C14.4477 11 14 10.5523 14 10ZM14 13C14 12.4477 14.4477 12 15 12H17C17.5523 12 18 12.4477 18 13 18 13.5523 17.5523 14 17 14H15C14.4477 14 14 13.5523 14 13ZM9 12C9.55228 12 10 12.4477 10 13V17C10 17.5523 9.55228 18 9 18 8.44772 18 8 17.5523 8 17V13C8 12.4477 8.44772 12 9 12Z" clip-rule="evenodd"/></svg>
