<svg xmlns="http://www.w3.org/2000/svg" viewBox="0 0 24 24"><path class="fn-svg-icon" fill-rule="evenodd" d="M2 5C2 3.34315 3.34315 2 5 2H9C9.55228 2 10 2.44772 10 3V21C10 21.5523 9.55228 22 9 22H5C3.34315 22 2 20.6569 2 19V5Z" clip-rule="evenodd"/><path class="fn-svg-icon" fill-rule="evenodd" d="M8 9C8 8.44772 8.44772 8 9 8H20C20.5523 8 21 8.44772 21 9C21 9.55228 20.5523 10 20 10H9C8.44772 10 8 9.55228 8 9Z" clip-rule="evenodd"/><path class="fn-svg-icon" fill-rule="evenodd" d="M8 3C8 2.44772 8.44772 2 9 2H19C20.6569 2 22 3.34315 22 5V19C22 20.6569 20.6569 22 19 22H9C8.44772 22 8 21.5523 8 21C8 20.4477 8.44772 20 9 20H19C19.5523 20 20 19.5523 20 19V5C20 4.44772 19.5523 4 19 4H9C8.44772 4 8 3.55228 8 3Z" clip-rule="evenodd"/><path class="fn-svg-icon" fill-rule="evenodd" d="M15 2C15.5523 2 16 2.44772 16 3V21C16 21.5523 15.5523 22 15 22C14.4477 22 14 21.5523 14 21V3C14 2.44772 14.4477 2 15 2Z" clip-rule="evenodd"/><path class="fn-svg-icon" fill-rule="evenodd" d="M8 15C8 14.4477 8.44772 14 9 14H20C20.5523 14 21 14.4477 21 15C21 15.5523 20.5523 16 20 16H9C8.44772 16 8 15.5523 8 15Z" clip-rule="evenodd"/></svg>
