<svg xmlns="http://www.w3.org/2000/svg" viewBox="0 0 24 24"><path class="fn-svg-icon" fill-rule="evenodd" d="M8 7C8 6.44772 8.44772 6 9 6H15C15.5523 6 16 6.44772 16 7V8C16 8.55228 15.5523 9 15 9H9C8.44772 9 8 8.55228 8 8V7ZM9 15C9.55228 15 10 14.5523 10 14 10 13.4477 9.55228 13 9 13 8.44772 13 8 13.4477 8 14 8 14.5523 8.44772 15 9 15ZM12 15C12.5523 15 13 14.5523 13 14 13 13.4477 12.5523 13 12 13 11.4477 13 11 13.4477 11 14 11 14.5523 11.4477 15 12 15ZM9 12C9.55228 12 10 11.5523 10 11 10 10.4477 9.55228 10 9 10 8.44772 10 8 10.4477 8 11 8 11.5523 8.44772 12 9 12ZM12 12C12.5523 12 13 11.5523 13 11 13 10.4477 12.5523 10 12 10 11.4477 10 11 10.4477 11 11 11 11.5523 11.4477 12 12 12ZM15 12C15.5523 12 16 11.5523 16 11 16 10.4477 15.5523 10 15 10 14.4477 10 14 10.4477 14 11 14 11.5523 14.4477 12 15 12ZM15 15C15.5523 15 16 14.5523 16 14 16 13.4477 15.5523 13 15 13 14.4477 13 14 13.4477 14 14 14 14.5523 14.4477 15 15 15ZM15 18C15.5523 18 16 17.5523 16 17 16 16.4477 15.5523 16 15 16 14.4477 16 14 16.4477 14 17 14 17.5523 14.4477 18 15 18ZM12 18C12.5523 18 13 17.5523 13 17 13 16.4477 12.5523 16 12 16 11.4477 16 11 16.4477 11 17 11 17.5523 11.4477 18 12 18ZM9 18C9.55228 18 10 17.5523 10 17 10 16.4477 9.55228 16 9 16 8.44772 16 8 16.4477 8 17 8 17.5523 8.44772 18 9 18Z" clip-rule="evenodd"/><path class="fn-svg-icon" fill-rule="evenodd" d="M5 6C5 4.34315 6.34315 3 8 3H16C17.6569 3 19 4.34315 19 6V18C19 19.6569 17.6569 21 16 21H8C6.34315 21 5 19.6569 5 18V6ZM8 5C7.44772 5 7 5.44772 7 6V18C7 18.5523 7.44772 19 8 19H16C16.5523 19 17 18.5523 17 18V6C17 5.44772 16.5523 5 16 5H8Z" clip-rule="evenodd"/></svg>
