<svg xmlns="http://www.w3.org/2000/svg" viewBox="0 0 24 24"><path class="fn-svg-icon" fill-rule="evenodd" d="M4 6C4 5.44772 4.44772 5 5 5H13.5935C16.3787 5 17.6606 8.46517 15.5459 10.2778L9.75572 15.2407C9.05082 15.8449 9.47811 17 10.4065 17H19C19.5523 17 20 17.4477 20 18C20 18.5523 19.5523 19 19 19H10.4065C7.6213 19 6.33945 15.5348 8.45414 13.7222L14.2443 8.75926C14.9492 8.15506 14.5219 7 13.5935 7H5C4.44772 7 4 6.55228 4 6Z" clip-rule="evenodd"/><path class="fn-svg-icon" fill-rule="evenodd" d="M16.2929 14.2929C16.6834 13.9024 17.3166 13.9024 17.7071 14.2929L20.7071 17.2929C21.0976 17.6834 21.0976 18.3166 20.7071 18.7071L17.7071 21.7071C17.3166 22.0976 16.6834 22.0976 16.2929 21.7071 15.9024 21.3166 15.9024 20.6834 16.2929 20.2929L18.5858 18 16.2929 15.7071C15.9024 15.3166 15.9024 14.6834 16.2929 14.2929ZM7.70711 2.29289C8.09763 2.68342 8.09763 3.31658 7.70711 3.70711L5.41421 6 7.70711 8.29289C8.09763 8.68342 8.09763 9.31658 7.70711 9.70711 7.31658 10.0976 6.68342 10.0976 6.29289 9.70711L3.29289 6.70711C2.90237 6.31658 2.90237 5.68342 3.29289 5.29289L6.29289 2.29289C6.68342 1.90237 7.31658 1.90237 7.70711 2.29289Z" clip-rule="evenodd"/></svg>
