<svg xmlns="http://www.w3.org/2000/svg" viewBox="0 0 24 24"><path class="fn-svg-icon" fill-rule="evenodd" d="M13.6174 5.0727C13.9911 4.91794 14.4212 5.00355 14.7072 5.28961L20.7072 11.2913C21.0976 11.6818 21.0976 12.3148 20.7072 12.7053L14.7072 18.707C14.4212 18.9931 13.9911 19.0787 13.6174 18.9239C13.2437 18.7692 13 18.4045 13 18V15H4C3.44772 15 3 14.5523 3 14V10C3 9.44774 3.44772 9.00003 4 9.00003H13V5.99661C13 5.59212 13.2437 5.22747 13.6174 5.0727ZM15 8.41131V10C15 10.5523 14.5523 11 14 11H5V13H14C14.5523 13 15 13.4477 15 14V15.5853L18.586 11.9983L15 8.41131Z" clip-rule="evenodd"/></svg>
