<svg xmlns="http://www.w3.org/2000/svg" viewBox="0 0 24 24"><path class="fn-svg-icon" fill-rule="evenodd" d="M20 10C20.5523 10 21 10.4477 21 11V16C21 16.5523 20.5523 17 20 17 19.4477 17 19 16.5523 19 16V11C19 10.4477 19.4477 10 20 10ZM12 12C12.5523 12 13 12.4477 13 13V16C13 16.5523 12.5523 17 12 17 11.4477 17 11 16.5523 11 16V13C11 12.4477 11.4477 12 12 12ZM16 3C16.5523 3 17 3.44772 17 4V16C17 16.5523 16.5523 17 16 17 15.4477 17 15 16.5523 15 16V4C15 3.44772 15.4477 3 16 3ZM8 7C8.55228 7 9 7.44772 9 8V16C9 16.5523 8.55228 17 8 17 7.44772 17 7 16.5523 7 16V8C7 7.44772 7.44772 7 8 7ZM4 14C4.55228 14 5 14.4477 5 15V16C5 16.5523 4.55228 17 4 17 3.44772 17 3 16.5523 3 16V15C3 14.4477 3.44772 14 4 14ZM3 20C3 19.4477 3.44772 19 4 19H20C20.5523 19 21 19.4477 21 20 21 20.5523 20.5523 21 20 21H4C3.44772 21 3 20.5523 3 20Z" clip-rule="evenodd"/></svg>
