<svg xmlns="http://www.w3.org/2000/svg" viewBox="0 0 24 24"><path class="fn-svg-icon" fill-rule="evenodd" d="M3 6C3 4.34315 4.34315 3 6 3H18C19.6569 3 21 4.34315 21 6V18C21 19.6569 19.6569 21 18 21H6C4.34315 21 3 19.6569 3 18V6ZM6 5C5.44772 5 5 5.44772 5 6V18C5 18.5523 5.44772 19 6 19H18C18.5523 19 19 18.5523 19 18V6C19 5.44772 18.5523 5 18 5H6Z" clip-rule="evenodd"/><path class="fn-svg-icon" fill-rule="evenodd" d="M12 6.5C12.5523 6.5 13 6.94772 13 7.5V11.5C13 12.0523 12.5523 12.5 12 12.5 11.4477 12.5 11 12.0523 11 11.5V7.5C11 6.94772 11.4477 6.5 12 6.5ZM12 17.5C12.8284 17.5 13.5 16.8284 13.5 16 13.5 15.1716 12.8284 14.5 12 14.5 11.1716 14.5 10.5 15.1716 10.5 16 10.5 16.8284 11.1716 17.5 12 17.5Z" clip-rule="evenodd"/></svg>
