<svg xmlns="http://www.w3.org/2000/svg" viewBox="0 0 24 24"><path class="fn-svg-icon" fill-rule="evenodd" d="M2 12C2 6.47715 6.47715 2 12 2C17.5228 2 22 6.47715 22 12C22 17.5228 17.5228 22 12 22C6.47715 22 2 17.5228 2 12ZM12 4C7.58172 4 4 7.58172 4 12C4 16.4183 7.58172 20 12 20C16.4183 20 20 16.4183 20 12C20 7.58172 16.4183 4 12 4Z" clip-rule="evenodd"/><path class="fn-svg-icon" fill-rule="evenodd" d="M2.71761 8.27373C4.19438 4.59809 7.79258 2 12 2C12.762 2 13.5052 2.0854 14.2202 2.24756C14.6757 2.35087 14.999 2.75573 14.999 3.2228V5.99597C14.999 6.54826 14.5513 6.99597 13.999 6.99597H11.0004V9.00012C11.0004 9.55241 10.5527 10.0001 10.0004 10.0001H8.41464L10.4146 12.0001H13.999C14.5511 12.0001 14.9988 12.4475 14.999 12.9996L15.0005 15.9987L15.0024 15.9987C15.6768 15.9988 16.2494 16.1701 16.7123 16.4784C17.1691 16.7826 17.4612 17.181 17.6455 17.5492C17.8278 17.9135 17.914 18.2657 17.9562 18.5184C17.9777 18.6471 17.9888 18.7565 17.9946 18.8377C17.9975 18.8785 17.9991 18.9126 18 18.939C18.0003 18.9488 18.0006 18.9575 18.0007 18.9652C18.0008 18.9679 18.0008 18.9705 18.0009 18.9729L18.001 18.9854L18.0011 18.9905L18.0011 18.9928L18.0011 18.9938C18.0011 18.9938 18.0011 18.9948 17.0011 18.9948H18.0011V19.4837C18.0011 19.8168 17.8352 20.128 17.5588 20.3138C15.9684 21.3823 14.0537 22 12 22C11.4477 22 11 21.5523 11 21V17.855C10.7406 17.7746 10.5038 17.6616 10.2902 17.5195C9.83321 17.2156 9.54085 16.8173 9.35635 16.4491C9.17382 16.0849 9.08755 15.7327 9.04534 15.48C9.04416 15.473 9.04302 15.4661 9.04191 15.4592L2.9383 9.35352C2.65513 9.07026 2.5683 8.64537 2.71761 8.27373Z" clip-rule="evenodd"/></svg>
