<svg xmlns="http://www.w3.org/2000/svg" viewBox="0 0 24 24"><path class="fn-svg-icon" fill-rule="evenodd" d="M12.6585 4.90502C12.2815 4.57512 11.7185 4.57512 11.3415 4.90502L5.34152 10.155C5.1245 10.3449 5.00002 10.6192 5.00002 10.9076C5.00002 11.4599 4.5523 11.9076 4.00002 11.9076C3.44774 11.9076 3.00002 11.4599 3.00002 10.9076C3.00002 10.0425 3.37347 9.21953 4.02451 8.64986L10.0245 3.39986C11.1556 2.41017 12.8445 2.41017 13.9755 3.39986L19.9755 8.64986C20.6266 9.21953 21 10.0425 21 10.9076V19.0001C21 20.657 19.6569 22.0001 18 22.0001L6 22.0001C4.34315 22.0001 3 20.657 3 19.0001L3 18C3.00002 15.2386 5.23859 13.0001 8 13.0001H12C12.5523 13.0001 13 13.4478 13 14.0001C13 14.5523 12.5523 15.0001 12 15.0001H8C6.34316 15.0001 5.00001 16.3432 5 18L5 19.0001C5 19.5524 5.44772 20.0001 6 20.0001L18 20.0001C18.5523 20.0001 19 19.5524 19 19.0001V10.9076C19 10.6192 18.8755 10.3449 18.6585 10.155L12.6585 4.90502Z" clip-rule="evenodd"/><path class="fn-svg-icon" fill-rule="evenodd" d="M11.6173 10.0762C11.991 9.9214 12.4211 10.007 12.7071 10.2929L15.7071 13.2929C16.0977 13.6835 16.0977 14.3166 15.7071 14.7072L12.7071 17.7072C12.4211 17.9932 11.991 18.0787 11.6173 17.9239C11.2437 17.7692 11 17.4045 11 17.0001V11.0001C11 10.5956 11.2437 10.231 11.6173 10.0762Z" clip-rule="evenodd"/></svg>
