<svg xmlns="http://www.w3.org/2000/svg" viewBox="0 0 24 24"><path class="fn-svg-icon" fill-rule="evenodd" d="M4 3C4 2.44772 4.44772 2 5 2H13C13.2652 2 13.5196 2.10536 13.7071 2.29289L15.7071 4.29289C16.0976 4.68342 16.0976 5.31658 15.7071 5.70711 15.3166 6.09763 14.6834 6.09763 14.2929 5.70711L12.5858 4H6V5C6 5.55228 5.55228 6 5 6 4.44772 6 4 5.55228 4 5V3ZM5 18C5.55228 18 6 18.4477 6 19V20H18V19C18 18.4477 18.4477 18 19 18 19.5523 18 20 18.4477 20 19V21C20 21.5523 19.5523 22 19 22H5C4.44772 22 4 21.5523 4 21V19C4 18.4477 4.44772 18 5 18ZM9 9C9 8.44772 9.44772 8 10 8H12C13.6569 8 15 9.34315 15 11 15 12.6569 13.6569 14 12 14H10C9.44772 14 9 13.5523 9 13V9ZM11 10V12H12C12.5523 12 13 11.5523 13 11 13 10.4477 12.5523 10 12 10H11Z" clip-rule="evenodd"/><path class="fn-svg-icon" fill-rule="evenodd" d="M10 8C10.5523 8 11 8.44772 11 9V15C11 15.5523 10.5523 16 10 16 9.44772 16 9 15.5523 9 15V9C9 8.44772 9.44772 8 10 8ZM19 8C19.5523 8 20 8.44772 20 9V15C20 15.5523 19.5523 16 19 16 18.4477 16 18 15.5523 18 15V9C18 8.44772 18.4477 8 19 8Z" clip-rule="evenodd"/><path class="fn-svg-icon" fill-rule="evenodd" d="M16 9C16 8.44772 16.4477 8 17 8H21C21.5523 8 22 8.44772 22 9 22 9.55228 21.5523 10 21 10H17C16.4477 10 16 9.55228 16 9ZM2 9C2 8.44772 2.44772 8 3 8H5C6.65685 8 8 9.34315 8 11 8 12.6569 6.65685 14 5 14H3C2.44772 14 2 13.5523 2 13V9ZM4 10V12H5C5.55228 12 6 11.5523 6 11 6 10.4477 5.55228 10 5 10H4Z" clip-rule="evenodd"/><path class="fn-svg-icon" fill-rule="evenodd" d="M3 8C3.55228 8 4 8.44772 4 9V15C4 15.5523 3.55228 16 3 16C2.44772 16 2 15.5523 2 15V9C2 8.44772 2.44772 8 3 8Z" clip-rule="evenodd"/></svg>
