<svg xmlns="http://www.w3.org/2000/svg" viewBox="0 0 24 24"><path class="fn-svg-icon" fill-rule="evenodd" d="M3 6C3 4.34315 4.34315 3 6 3H18C19.6569 3 21 4.34315 21 6V18C21 19.6569 19.6569 21 18 21H6C4.34315 21 3 19.6569 3 18V6ZM6 5C5.44772 5 5 5.44772 5 6V18C5 18.5523 5.44772 19 6 19H18C18.5523 19 19 18.5523 19 18V6C19 5.44772 18.5523 5 18 5H6Z" clip-rule="evenodd"/><path class="fn-svg-icon" fill-rule="evenodd" d="M11 16C11 15.4477 11.4477 15 12 15H16C16.5523 15 17 15.4477 17 16 17 16.5523 16.5523 17 16 17H12C11.4477 17 11 16.5523 11 16ZM11 12C11 11.4477 11.4477 11 12 11H16C16.5523 11 17 11.4477 17 12 17 12.5523 16.5523 13 16 13H12C11.4477 13 11 12.5523 11 12ZM3 8C3 7.44772 3.44772 7 4 7H20C20.5523 7 21 7.44772 21 8 21 8.55228 20.5523 9 20 9H4C3.44772 9 3 8.55228 3 8ZM8 13.5C8.82843 13.5 9.5 12.8284 9.5 12 9.5 11.1716 8.82843 10.5 8 10.5 7.17157 10.5 6.5 11.1716 6.5 12 6.5 12.8284 7.17157 13.5 8 13.5ZM8 17.5C8.82843 17.5 9.5 16.8284 9.5 16 9.5 15.1716 8.82843 14.5 8 14.5 7.17157 14.5 6.5 15.1716 6.5 16 6.5 16.8284 7.17157 17.5 8 17.5Z" clip-rule="evenodd"/></svg>
