<svg xmlns="http://www.w3.org/2000/svg" viewBox="0 0 24 24"><path class="fn-svg-icon" fill-rule="evenodd" d="M1 4C1 3.44772 1.44772 3 2 3H4C4.37882 3 4.72511 3.21405 4.89448 3.5529L8.61812 11.0024H15.4195L19.1299 4.50415C19.4037 4.02454 20.0145 3.85774 20.4941 4.13159C20.9737 4.40544 21.1405 5.01624 20.8667 5.49585L16.8684 12.4983C16.6904 12.81 16.359 13.0024 16 13.0024H8C7.62118 13.0024 7.27489 12.7884 7.10552 12.4495L3.38188 5H2C1.44772 5 1 4.55228 1 4Z" clip-rule="evenodd"/><path class="fn-svg-icon" fill-rule="evenodd" d="M8.44721 11.1056C8.94119 11.3526 9.14142 11.9532 8.89443 12.4472L7.61803 15H18C18.5523 15 19 15.4477 19 16 19 16.5523 18.5523 17 18 17H6C5.65342 17 5.33156 16.8205 5.14935 16.5257 4.96714 16.2309 4.95058 15.8628 5.10557 15.5528L7.10557 11.5528C7.35256 11.0588 7.95324 10.8586 8.44721 11.1056ZM17 22C18.1046 22 19 21.1046 19 20 19 18.8954 18.1046 18 17 18 15.8954 18 15 18.8954 15 20 15 21.1046 15.8954 22 17 22ZM7 22C8.10457 22 9 21.1046 9 20 9 18.8954 8.10457 18 7 18 5.89543 18 5 18.8954 5 20 5 21.1046 5.89543 22 7 22ZM12 1C12.5523 1 13 1.44772 13 2V8C13 8.55228 12.5523 9 12 9 11.4477 9 11 8.55228 11 8V2C11 1.44772 11.4477 1 12 1Z" clip-rule="evenodd"/><path class="fn-svg-icon" fill-rule="evenodd" d="M8.29289 5.29289C8.68342 4.90237 9.31658 4.90237 9.70711 5.29289L12 7.58579L14.2929 5.29289C14.6834 4.90237 15.3166 4.90237 15.7071 5.29289C16.0976 5.68342 16.0976 6.31658 15.7071 6.70711L12.7071 9.70711C12.3166 10.0976 11.6834 10.0976 11.2929 9.70711L8.29289 6.70711C7.90237 6.31658 7.90237 5.68342 8.29289 5.29289Z" clip-rule="evenodd"/></svg>
