<svg xmlns="http://www.w3.org/2000/svg" viewBox="0 0 24 24"><path class="fn-svg-icon" fill-rule="evenodd" d="M12 2C12.5523 2 13 2.44772 13 3V21C13 21.5523 12.5523 22 12 22C11.4477 22 11 21.5523 11 21V3C11 2.44772 11.4477 2 12 2Z" clip-rule="evenodd"/><path class="fn-svg-icon" fill-rule="evenodd" d="M20.94 8.64902C21.1339 9.16617 20.8718 9.74254 20.3546 9.93638L12.351 12.9364C11.8338 13.1302 11.2575 12.8681 11.0636 12.351C10.8698 11.8338 11.1319 11.2575 11.649 11.0636L19.6527 8.06362C20.1698 7.86978 20.7462 8.13187 20.94 8.64902Z" clip-rule="evenodd"/><path class="fn-svg-icon" fill-rule="evenodd" d="M2 12C2 6.47715 6.47715 2 12 2C17.5228 2 22 6.47715 22 12C22 17.5228 17.5228 22 12 22C6.47715 22 2 17.5228 2 12ZM12 4C7.58172 4 4 7.58172 4 12C4 16.4183 7.58172 20 12 20C16.4183 20 20 16.4183 20 12C20 7.58172 16.4183 4 12 4Z" clip-rule="evenodd"/></svg>
