<svg xmlns="http://www.w3.org/2000/svg" viewBox="0 0 24 24"><path class="fn-svg-icon" fill-rule="evenodd" d="M11.2929 4.29289C11.6834 3.90237 12.3166 3.90237 12.7071 4.29289L16.7071 8.29289C17.0976 8.68342 17.0976 9.31658 16.7071 9.70711C16.3166 10.0976 15.6834 10.0976 15.2929 9.70711L12 6.41421L8.70711 9.70711C8.31658 10.0976 7.68342 10.0976 7.29289 9.70711C6.90237 9.31658 6.90237 8.68342 7.29289 8.29289L11.2929 4.29289Z" clip-rule="evenodd"/><path class="fn-svg-icon" fill-rule="evenodd" d="M11.2929 9.29289C11.6834 8.90237 12.3166 8.90237 12.7071 9.29289L16.7071 13.2929C17.0976 13.6834 17.0976 14.3166 16.7071 14.7071C16.3166 15.0976 15.6834 15.0976 15.2929 14.7071L12 11.4142L8.70711 14.7071C8.31658 15.0976 7.68342 15.0976 7.29289 14.7071C6.90237 14.3166 6.90237 13.6834 7.29289 13.2929L11.2929 9.29289Z" clip-rule="evenodd"/><path class="fn-svg-icon" fill-rule="evenodd" d="M11.2929 14.2929C11.6834 13.9024 12.3166 13.9024 12.7071 14.2929L16.7071 18.2929C17.0976 18.6834 17.0976 19.3166 16.7071 19.7071C16.3166 20.0976 15.6834 20.0976 15.2929 19.7071L12 16.4142L8.70711 19.7071C8.31658 20.0976 7.68342 20.0976 7.29289 19.7071C6.90237 19.3166 6.90237 18.6834 7.29289 18.2929L11.2929 14.2929Z" clip-rule="evenodd"/></svg>
