<svg xmlns="http://www.w3.org/2000/svg" viewBox="0 0 24 24"><path class="fn-svg-icon" fill-rule="evenodd" d="M11.5528 4.10557C11.8343 3.96481 12.1657 3.96481 12.4472 4.10557L22.4472 9.10557C22.786 9.27496 23 9.62123 23 10C23 10.3788 22.786 10.725 22.4472 10.8944L12.4472 15.8944C12.1657 16.0352 11.8343 16.0352 11.5528 15.8944L1.55279 10.8944C1.214 10.725 1 10.3788 1 10C1 9.62123 1.214 9.27496 1.55279 9.10557L11.5528 4.10557ZM4.23607 10L12 13.882L19.7639 10L12 6.11803L4.23607 10Z" clip-rule="evenodd"/><path class="fn-svg-icon" fill-rule="evenodd" d="M17.9994 11.0023C18.5517 11.0023 18.9994 11.45 18.9994 12.0023V16.0003C18.9994 16.3791 18.7854 16.7253 18.4466 16.8947L12.4472 19.8944C12.1657 20.0352 11.8343 20.0352 11.5528 19.8944L5.55762 16.8968C5.21884 16.7275 5.00483 16.3812 5.00483 16.0024V12.0023H7.00483V15.3844L12 17.882 16.9994 15.3823V12.0023C16.9994 11.45 17.4471 11.0023 17.9994 11.0023ZM22 9C22.5523 9 23 9.44772 23 10V15C23 15.5523 22.5523 16 22 16 21.4477 16 21 15.5523 21 15V10C21 9.44772 21.4477 9 22 9Z" clip-rule="evenodd"/></svg>
