<svg xmlns="http://www.w3.org/2000/svg" viewBox="0 0 24 24"><path class="fn-svg-icon" fill-rule="evenodd" d="M11 13C8.23858 13 6 15.2386 6 18V19H7C7.55228 19 8 19.4477 8 20 8 20.5523 7.55228 21 7 21H5C4.44772 21 4 20.5523 4 20V18C4 14.134 7.13401 11 11 11H12C12.5523 11 13 11.4477 13 12 13 12.5523 12.5523 13 12 13H11ZM18 13C18.2652 13 18.5196 13.1054 18.7071 13.2929L20.7071 15.2929C21.0976 15.6834 21.0976 16.3166 20.7071 16.7071L13.7071 23.7071C13.5196 23.8946 13.2652 24 13 24H11C10.4477 24 10 23.5523 10 23V21C10 20.7348 10.1054 20.4804 10.2929 20.2929L17.2929 13.2929C17.4804 13.1054 17.7348 13 18 13ZM12 21.4142V22H12.5858L18.5858 16 18 15.4142 12 21.4142ZM20.2929 10.2929C20.6834 9.90237 21.3166 9.90237 21.7071 10.2929L23.7071 12.2929C24.0976 12.6834 24.0976 13.3166 23.7071 13.7071L22.7071 14.7071C22.3166 15.0976 21.6834 15.0976 21.2929 14.7071L19.2929 12.7071C18.9024 12.3166 18.9024 11.6834 19.2929 11.2929L20.2929 10.2929Z" clip-rule="evenodd"/><path class="fn-svg-icon" fill-rule="evenodd" d="M7 8C7 5.23858 9.23858 3 12 3C14.7614 3 17 5.23858 17 8C17 10.7614 14.7614 13 12 13C9.23858 13 7 10.7614 7 8ZM12 5C10.3431 5 9 6.34315 9 8C9 9.65685 10.3431 11 12 11C13.6569 11 15 9.65685 15 8C15 6.34315 13.6569 5 12 5Z" clip-rule="evenodd"/></svg>
