<svg xmlns="http://www.w3.org/2000/svg" viewBox="0 0 24 24"><path class="fn-svg-icon" fill-rule="evenodd" d="M13.0287 3.0022C13.1512 2.46366 13.687 2.12635 14.2255 2.2488 18.6769 3.2609 22 7.24119 22 12 22 16.7604 18.6747 20.7418 14.2211 21.7523 13.6825 21.8745 13.1468 21.5369 13.0246 20.9983 12.9024 20.4597 13.24 19.924 13.7786 19.8018 17.3411 18.9935 20 15.8061 20 12 20 8.19523 17.3429 5.00865 13.7821 4.19902 13.2436 4.07658 12.9063 3.54074 13.0287 3.0022ZM4.93082 6.34051C5.39716 6.63639 5.53534 7.2543 5.23945 7.72063 4.75908 8.47774 4.40277 9.32042 4.19843 10.2205 4.07616 10.7591 3.54043 11.0966 3.00185 10.9743 2.46327 10.852 2.12579 10.3163 2.24806 9.77771 2.504 8.6503 2.95023 7.59552 3.55069 6.64914 3.84658 6.1828 4.46448 6.04462 4.93082 6.34051ZM3.00185 13.0248C3.54043 12.9026 4.07616 13.2401 4.19843 13.7786 4.40277 14.6787 4.75908 15.5214 5.23945 16.2785 5.53534 16.7448 5.39716 17.3627 4.93082 17.6586 4.46448 17.9545 3.84658 17.8163 3.55069 17.35 2.95023 16.4036 2.504 15.3488 2.24806 14.2214 2.12579 13.6828 2.46327 13.1471 3.00185 13.0248ZM10.9771 3.00155C11.0992 3.54017 10.7615 4.07579 10.2229 4.19789 9.32861 4.40062 8.49093 4.75338 7.7375 5.22879 7.27042 5.52351 6.65287 5.38379 6.35815 4.91671 6.06343 4.44964 6.20315 3.83208 6.67022 3.53736 7.61203 2.94309 8.66058 2.50131 9.78077 2.24737 10.3194 2.12527 10.855 2.46293 10.9771 3.00155ZM10.9771 21.0016C11.0992 20.4629 10.7615 19.9273 10.2229 19.8052 9.32861 19.6025 8.49093 19.2497 7.7375 18.7743 7.27042 18.4796 6.65287 18.6193 6.35815 19.0864 6.06343 19.5535 6.20315 20.171 6.67022 20.4657 7.61203 21.06 8.66058 21.5018 9.78077 21.7557 10.3194 21.8778 10.855 21.5402 10.9771 21.0016Z" clip-rule="evenodd"/><path class="fn-svg-icon" fill-rule="evenodd" d="M12 6.00003C12.5523 6.00003 13 6.44774 13 7.00003V11.5858L15.7071 14.2929C16.0976 14.6834 16.0976 15.3166 15.7071 15.7071C15.3166 16.0977 14.6834 16.0977 14.2929 15.7071L11.2929 12.7071C11.1054 12.5196 11 12.2652 11 12V7.00003C11 6.44774 11.4477 6.00003 12 6.00003Z" clip-rule="evenodd"/></svg>
