<svg xmlns="http://www.w3.org/2000/svg" viewBox="0 0 24 24"><path class="fn-svg-icon" fill-rule="evenodd" d="M14 11.5C14.8284 11.5 15.5 10.8284 15.5 10 15.5 9.17157 14.8284 8.5 14 8.5 13.1716 8.5 12.5 9.17157 12.5 10 12.5 10.8284 13.1716 11.5 14 11.5ZM14 15.5C14.8284 15.5 15.5 14.8284 15.5 14 15.5 13.1716 14.8284 12.5 14 12.5 13.1716 12.5 12.5 13.1716 12.5 14 12.5 14.8284 13.1716 15.5 14 15.5ZM10 11.5C10.8284 11.5 11.5 10.8284 11.5 10 11.5 9.17157 10.8284 8.5 10 8.5 9.17157 8.5 8.5 9.17157 8.5 10 8.5 10.8284 9.17157 11.5 10 11.5ZM18 11.5C18.8284 11.5 19.5 10.8284 19.5 10 19.5 9.17157 18.8284 8.5 18 8.5 17.1716 8.5 16.5 9.17157 16.5 10 16.5 10.8284 17.1716 11.5 18 11.5ZM18 15.5C18.8284 15.5 19.5 14.8284 19.5 14 19.5 13.1716 18.8284 12.5 18 12.5 17.1716 12.5 16.5 13.1716 16.5 14 16.5 14.8284 17.1716 15.5 18 15.5ZM14 7.5C14.8284 7.5 15.5 6.82843 15.5 6 15.5 5.17157 14.8284 4.5 14 4.5 13.1716 4.5 12.5 5.17157 12.5 6 12.5 6.82843 13.1716 7.5 14 7.5ZM10 7.5C10.8284 7.5 11.5 6.82843 11.5 6 11.5 5.17157 10.8284 4.5 10 4.5 9.17157 4.5 8.5 5.17157 8.5 6 8.5 6.82843 9.17157 7.5 10 7.5ZM10 15.5C10.8284 15.5 11.5 14.8284 11.5 14 11.5 13.1716 10.8284 12.5 10 12.5 9.17157 12.5 8.5 13.1716 8.5 14 8.5 14.8284 9.17157 15.5 10 15.5ZM6 11.5C6.82843 11.5 7.5 10.8284 7.5 10 7.5 9.17157 6.82843 8.5 6 8.5 5.17157 8.5 4.5 9.17157 4.5 10 4.5 10.8284 5.17157 11.5 6 11.5ZM6 15.5C6.82843 15.5 7.5 14.8284 7.5 14 7.5 13.1716 6.82843 12.5 6 12.5 5.17157 12.5 4.5 13.1716 4.5 14 4.5 14.8284 5.17157 15.5 6 15.5ZM10 19.5C10.8284 19.5 11.5 18.8284 11.5 18 11.5 17.1716 10.8284 16.5 10 16.5 9.17157 16.5 8.5 17.1716 8.5 18 8.5 18.8284 9.17157 19.5 10 19.5ZM14 19.5C14.8284 19.5 15.5 18.8284 15.5 18 15.5 17.1716 14.8284 16.5 14 16.5 13.1716 16.5 12.5 17.1716 12.5 18 12.5 18.8284 13.1716 19.5 14 19.5ZM18 7C18.5523 7 19 6.55228 19 6 19 5.44772 18.5523 5 18 5 17.4477 5 17 5.44772 17 6 17 6.55228 17.4477 7 18 7ZM18 19C18.5523 19 19 18.5523 19 18 19 17.4477 18.5523 17 18 17 17.4477 17 17 17.4477 17 18 17 18.5523 17.4477 19 18 19ZM6 7C6.55228 7 7 6.55228 7 6 7 5.44772 6.55228 5 6 5 5.44772 5 5 5.44772 5 6 5 6.55228 5.44772 7 6 7ZM6 19C6.55228 19 7 18.5523 7 18 7 17.4477 6.55228 17 6 17 5.44772 17 5 17.4477 5 18 5 18.5523 5.44772 19 6 19ZM2 11C2.55228 11 3 10.5523 3 10 3 9.44772 2.55228 9 2 9 1.44772 9 1 9.44772 1 10 1 10.5523 1.44772 11 2 11ZM2 15C2.55228 15 3 14.5523 3 14 3 13.4477 2.55228 13 2 13 1.44772 13 1 13.4477 1 14 1 14.5523 1.44772 15 2 15ZM10 23C10.5523 23 11 22.5523 11 22 11 21.4477 10.5523 21 10 21 9.44772 21 9 21.4477 9 22 9 22.5523 9.44772 23 10 23ZM14 23C14.5523 23 15 22.5523 15 22 15 21.4477 14.5523 21 14 21 13.4477 21 13 21.4477 13 22 13 22.5523 13.4477 23 14 23ZM22 15C22.5523 15 23 14.5523 23 14 23 13.4477 22.5523 13 22 13 21.4477 13 21 13.4477 21 14 21 14.5523 21.4477 15 22 15ZM22 11C22.5523 11 23 10.5523 23 10 23 9.44772 22.5523 9 22 9 21.4477 9 21 9.44772 21 10 21 10.5523 21.4477 11 22 11ZM14 3C14.5523 3 15 2.55228 15 2 15 1.44772 14.5523 1 14 1 13.4477 1 13 1.44772 13 2 13 2.55228 13.4477 3 14 3ZM10 3C10.5523 3 11 2.55228 11 2 11 1.44772 10.5523 1 10 1 9.44772 1 9 1.44772 9 2 9 2.55228 9.44772 3 10 3Z" clip-rule="evenodd"/></svg>
