<svg xmlns="http://www.w3.org/2000/svg" viewBox="0 0 24 24"><path class="fn-svg-icon" fill-rule="evenodd" d="M14.6173 2.07615C14.991 1.92137 15.4211 2.00692 15.7071 2.29292L21.7071 8.29292C21.9931 8.57892 22.0787 9.00904 21.9239 9.38271 21.7691 9.75639 21.4045 10 21 10H19.4142L16.903 12.5113 14.9701 20.2426C14.8828 20.5921 14.6141 20.8676 14.2669 20.9637 13.9197 21.0599 13.5476 20.9619 13.2929 20.7071L3.29289 10.7071C3.03814 10.4524 2.94012 10.0803 3.03628 9.7331 3.13245 9.3859 3.40795 9.11727 3.75746 9.02989L11.4888 7.09706 14 4.58582V3.00003C14 2.59557 14.2436 2.23093 14.6173 2.07615ZM15.9365 5.35073C15.8868 5.4833 15.8091 5.60511 15.7071 5.70714L12.7071 8.70714C12.5789 8.83529 12.4184 8.92621 12.2425 8.97017L5.95599 10.5418 13.4582 18.044 15.0299 11.7575C15.0738 11.5817 15.1647 11.4211 15.2929 11.2929L18.2929 8.29292C18.3949 8.19089 18.5167 8.11319 18.6493 8.06354L15.9365 5.35073ZM23.7071 15.2929C24.0976 15.6834 24.0976 16.3166 23.7071 16.7071L19.7071 20.7071C19.3166 21.0977 18.6834 21.0977 18.2929 20.7071 17.9024 20.3166 17.9024 19.6834 18.2929 19.2929L22.2929 15.2929C22.6834 14.9024 23.3166 14.9024 23.7071 15.2929Z" clip-rule="evenodd"/><path class="fn-svg-icon" fill-rule="evenodd" d="M18.2929 15.2929C18.6834 14.9024 19.3166 14.9024 19.7071 15.2929L23.7071 19.2929C24.0976 19.6834 24.0976 20.3166 23.7071 20.7071 23.3166 21.0977 22.6834 21.0977 22.2929 20.7071L18.2929 16.7071C17.9024 16.3166 17.9024 15.6834 18.2929 15.2929ZM9.70711 14.2929C10.0976 14.6834 10.0976 15.3166 9.70711 15.7071L3.70711 21.7071C3.31658 22.0977 2.68342 22.0977 2.29289 21.7071 1.90237 21.3166 1.90237 20.6834 2.29289 20.2929L8.29289 14.2929C8.68342 13.9024 9.31658 13.9024 9.70711 14.2929Z" clip-rule="evenodd"/></svg>
