<svg xmlns="http://www.w3.org/2000/svg" viewBox="0 0 24 24"><path class="fn-svg-icon" fill-rule="evenodd" d="M12.2929 2.29289C12.4804 2.10536 12.7348 2 13 2H21C21.2652 2 21.5196 2.10536 21.7071 2.29289C21.8946 2.48043 22 2.73478 22 3V21C22 21.5523 21.5523 22 21 22H7C6.44772 22 6 21.5523 6 21V9C6 8.73478 6.10536 8.48043 6.29289 8.29289L12.2929 2.29289ZM13.4142 4L8 9.41421V20H20V4H13.4142Z" clip-rule="evenodd"/><path class="fn-svg-icon" fill-rule="evenodd" d="M10 13C10 12.4477 10.4477 12 11 12H17C17.5523 12 18 12.4477 18 13 18 13.5523 17.5523 14 17 14H11C10.4477 14 10 13.5523 10 13ZM10 17C10 16.4477 10.4477 16 11 16H17C17.5523 16 18 16.4477 18 17 18 17.5523 17.5523 18 17 18H11C10.4477 18 10 17.5523 10 17ZM8 9H11C12.1046 9 13 8.10457 13 7V4M8.70711 2.29289C9.09763 2.68342 9.09763 3.31658 8.70711 3.70711L4 8.41421V21C4 21.5523 3.55228 22 3 22 2.44772 22 2 21.5523 2 21V8C2 7.73478 2.10536 7.48043 2.29289 7.29289L7.29289 2.29289C7.68342 1.90237 8.31658 1.90237 8.70711 2.29289Z" clip-rule="evenodd"/></svg>
