<svg xmlns="http://www.w3.org/2000/svg" viewBox="0 0 24 24"><path class="fn-svg-icon" fill-rule="evenodd" d="M2 5C2 3.34315 3.34315 2 5 2H19C20.6569 2 22 3.34315 22 5V15C22 16.6569 20.6569 18 19 18H5C3.34315 18 2 16.6569 2 15V5ZM5 4C4.44772 4 4 4.44772 4 5V15C4 15.5523 4.44772 16 5 16H19C19.5523 16 20 15.5523 20 15V5C20 4.44772 19.5523 4 19 4H5Z" clip-rule="evenodd"/><path class="fn-svg-icon" fill-rule="evenodd" d="M10 16C10.5523 16 11 16.4477 11 17V21C11 21.5523 10.5523 22 10 22 9.44772 22 9 21.5523 9 21V17C9 16.4477 9.44772 16 10 16ZM14 16C14.5523 16 15 16.4477 15 17V21C15 21.5523 14.5523 22 14 22 13.4477 22 13 21.5523 13 21V17C13 16.4477 13.4477 16 14 16Z" clip-rule="evenodd"/><path class="fn-svg-icon" fill-rule="evenodd" d="M6 21C6 20.4477 6.44772 20 7 20H17C17.5523 20 18 20.4477 18 21C18 21.5523 17.5523 22 17 22H7C6.44772 22 6 21.5523 6 21Z" clip-rule="evenodd"/></svg>
