<svg xmlns="http://www.w3.org/2000/svg" viewBox="0 0 24 24"><path class="fn-svg-icon" fill-rule="evenodd" d="M11 13C8.23858 13 6 15.2386 6 18V19H8C8.55228 19 9 19.4477 9 20C9 20.5523 8.55228 21 8 21H5C4.44772 21 4 20.5523 4 20V18C4 14.134 7.13401 11 11 11H13C16.866 11 20 14.134 20 18V20C20 20.5523 19.5523 21 19 21H16C15.4477 21 15 20.5523 15 20C15 19.4477 15.4477 19 16 19H18V18C18 15.2386 15.7614 13 13 13H11Z" clip-rule="evenodd"/><path class="fn-svg-icon" fill-rule="evenodd" d="M7 17C7 15.8954 7.89543 15 9 15H15C16.1046 15 17 15.8954 17 17V20C17 21.1046 16.1046 22 15 22H9C7.89543 22 7 21.1046 7 20V17ZM15 17H9V20H15V17ZM7 8C7 5.23858 9.23858 3 12 3 14.7614 3 17 5.23858 17 8 17 10.7614 14.7614 13 12 13 9.23858 13 7 10.7614 7 8ZM12 5C10.3431 5 9 6.34315 9 8 9 9.65685 10.3431 11 12 11 13.6569 11 15 9.65685 15 8 15 6.34315 13.6569 5 12 5Z" clip-rule="evenodd"/></svg>
