<svg xmlns="http://www.w3.org/2000/svg" viewBox="0 0 24 24"><path class="fn-svg-icon" fill-rule="evenodd" d="M10 5C10 4.44772 10.4477 4 11 4H20C20.5523 4 21 4.44772 21 5 21 5.55228 20.5523 6 20 6H11C10.4477 6 10 5.55228 10 5ZM10 9C10 8.44772 10.4477 8 11 8H17C17.5523 8 18 8.44772 18 9 18 9.55228 17.5523 10 17 10H11C10.4477 10 10 9.55228 10 9ZM10 13C10 12.4477 10.4477 12 11 12H14C14.5523 12 15 12.4477 15 13 15 13.5523 14.5523 14 14 14H11C10.4477 14 10 13.5523 10 13ZM7.00003 4C7.55231 4 8.00003 4.44772 8.00003 5V17C8.00003 17.5523 7.55231 18 7.00003 18 6.44774 18 6.00003 17.5523 6.00003 17V5C6.00003 4.44772 6.44774 4 7.00003 4Z" clip-rule="evenodd"/><path class="fn-svg-icon" fill-rule="evenodd" d="M10 17L7.00003 20L4.00003 17H10Z" clip-rule="evenodd"/><path class="fn-svg-icon" fill-rule="evenodd" d="M3.07615 16.6173C3.23093 16.2436 3.59557 16 4.00003 16H10C10.4045 16 10.7691 16.2436 10.9239 16.6173C11.0787 16.991 10.9931 17.4211 10.7071 17.7071L7.70714 20.7071C7.31661 21.0976 6.68345 21.0976 6.29292 20.7071L3.29292 17.7071C3.00692 17.4211 2.92137 16.991 3.07615 16.6173Z" clip-rule="evenodd"/></svg>
