<svg xmlns="http://www.w3.org/2000/svg" viewBox="0 0 24 24"><path class="fn-svg-icon" fill-rule="evenodd" d="M3 6C3 4.34315 4.34315 3 6 3H18C19.6569 3 21 4.34315 21 6V18C21 19.6569 19.6569 21 18 21H6C4.34315 21 3 19.6569 3 18V6ZM6 5C5.44772 5 5 5.44772 5 6V18C5 18.5523 5.44772 19 6 19H18C18.5523 19 19 18.5523 19 18V6C19 5.44772 18.5523 5 18 5H6Z" clip-rule="evenodd"/><path class="fn-svg-icon" fill-rule="evenodd" d="M9 1C9.55228 1 10 1.44772 10 2V6C10 6.55228 9.55228 7 9 7 8.44772 7 8 6.55228 8 6V2C8 1.44772 8.44772 1 9 1ZM3 10C3 9.44772 3.44772 9 4 9H20C20.5523 9 21 9.44772 21 10 21 10.5523 20.5523 11 20 11H4C3.44772 11 3 10.5523 3 10ZM12 15.5C12.8284 15.5 13.5 14.8284 13.5 14 13.5 13.1716 12.8284 12.5 12 12.5 11.1716 12.5 10.5 13.1716 10.5 14 10.5 14.8284 11.1716 15.5 12 15.5ZM16 15.5C16.8284 15.5 17.5 14.8284 17.5 14 17.5 13.1716 16.8284 12.5 16 12.5 15.1716 12.5 14.5 13.1716 14.5 14 14.5 14.8284 15.1716 15.5 16 15.5ZM8 15.5C8.82843 15.5 9.5 14.8284 9.5 14 9.5 13.1716 8.82843 12.5 8 12.5 7.17157 12.5 6.5 13.1716 6.5 14 6.5 14.8284 7.17157 15.5 8 15.5ZM15 1C15.5523 1 16 1.44772 16 2V6C16 6.55228 15.5523 7 15 7 14.4477 7 14 6.55228 14 6V2C14 1.44772 14.4477 1 15 1Z" clip-rule="evenodd"/></svg>
