<svg xmlns="http://www.w3.org/2000/svg" viewBox="0 0 24 24"><path class="fn-svg-icon" fill-rule="evenodd" d="M2 6C2 4.34315 3.34315 3 5 3H19C20.6569 3 22 4.34315 22 6V18C22 19.6569 20.6569 21 19 21H5C3.34315 21 2 19.6569 2 18V6ZM5 5C4.44772 5 4 5.44772 4 6V18C4 18.5523 4.44772 19 5 19H19C19.5523 19 20 18.5523 20 18V6C20 5.44772 19.5523 5 19 5H5Z" clip-rule="evenodd"/><path class="fn-svg-icon" fill-rule="evenodd" d="M9 3C9.55228 3 10 3.44772 10 4V20C10 20.5523 9.55228 21 9 21 8.44772 21 8 20.5523 8 20V4C8 3.44772 8.44772 3 9 3ZM15 3C15.5523 3 16 3.44772 16 4V20C16 20.5523 15.5523 21 15 21 14.4477 21 14 20.5523 14 20V4C14 3.44772 14.4477 3 15 3Z" clip-rule="evenodd"/></svg>
