<svg xmlns="http://www.w3.org/2000/svg" viewBox="0 0 24 24"><path class="fn-svg-icon" fill-rule="evenodd" d="M10.2929 2.29289C10.4804 2.10536 10.7348 2 11 2H19C19.5523 2 20 2.44772 20 3V9C20 9.55228 19.5523 10 19 10C18.4477 10 18 9.55228 18 9V4H11.4142L6 9.41421V20H9C9.55228 20 10 20.4477 10 21C10 21.5523 9.55228 22 9 22H5C4.44772 22 4 21.5523 4 21V9C4 8.73478 4.10536 8.48043 4.29289 8.29289L10.2929 2.29289Z" clip-rule="evenodd"/><path class="fn-svg-icon" fill-rule="evenodd" d="M12 17C12 15.8954 12.8954 15 14 15H18C19.1046 15 20 15.8954 20 17V20C20 21.1046 19.1046 22 18 22H14C12.8954 22 12 21.1046 12 20V17ZM18 17H14V20H18V17Z" clip-rule="evenodd"/><path class="fn-svg-icon" fill-rule="evenodd" d="M13 14C13 12.3431 14.3431 11 16 11 17.6569 11 19 12.3431 19 14V16C19 16.5523 18.5523 17 18 17H14C13.4477 17 13 16.5523 13 16V14ZM16 13C15.4477 13 15 13.4477 15 14V15H17V14C17 13.4477 16.5523 13 16 13ZM6 9H9C10.1046 9 11 8.10457 11 7V4" clip-rule="evenodd"/></svg>
