<svg xmlns="http://www.w3.org/2000/svg" viewBox="0 0 24 24"><path class="fn-svg-icon" fill-rule="evenodd" d="M12 2C12.3544 2 12.6823 2.18754 12.8619 2.49298L22.8619 19.493C23.0438 19.8022 23.0461 20.1851 22.868 20.4965C22.69 20.8079 22.3587 21 22 21H2C1.64128 21 1.31005 20.8079 1.13195 20.4965C0.953855 20.1851 0.956189 19.8022 1.13807 19.493L11.1381 2.49298C11.3177 2.18754 11.6456 2 12 2ZM3.74842 19H20.2516L12 4.97231L3.74842 19Z" clip-rule="evenodd"/><path class="fn-svg-icon" fill-rule="evenodd" d="M12 9C12.5523 9 13 9.44772 13 10V13C13 13.5523 12.5523 14 12 14 11.4477 14 11 13.5523 11 13V10C11 9.44772 11.4477 9 12 9ZM12 18C12.8284 18 13.5 17.3284 13.5 16.5 13.5 15.6716 12.8284 15 12 15 11.1716 15 10.5 15.6716 10.5 16.5 10.5 17.3284 11.1716 18 12 18Z" clip-rule="evenodd"/></svg>
