<svg xmlns="http://www.w3.org/2000/svg" viewBox="0 0 24 24"><path class="fn-svg-icon" fill-rule="evenodd" d="M6 5C6 3.34315 7.34315 2 9 2H19C20.6569 2 22 3.34315 22 5V15C22 16.6569 20.6569 18 19 18H9C7.34315 18 6 16.6569 6 15V5ZM9 4C8.44772 4 8 4.44772 8 5V15C8 15.5523 8.44772 16 9 16H19C19.5523 16 20 15.5523 20 15V5C20 4.44772 19.5523 4 19 4H9Z" clip-rule="evenodd"/><path class="fn-svg-icon" fill-rule="evenodd" d="M11.5 9C12.3284 9 13 8.32843 13 7.5 13 6.67157 12.3284 6 11.5 6 10.6716 6 10 6.67157 10 7.5 10 8.32843 10.6716 9 11.5 9ZM16.2925 9.29294C16.5968 8.98855 17.0618 8.91307 17.4468 9.10556L21.4472 11.1056C21.9412 11.3525 22.1414 11.9532 21.8944 12.4472 21.6475 12.9412 21.0468 13.1414 20.5528 12.8944L17.1971 11.2168 14.7071 13.7071C14.3166 14.0976 13.6835 14.0977 13.2929 13.7071 12.9024 13.3166 12.9024 12.6835 13.2929 12.2929L16.2925 9.29294Z" clip-rule="evenodd"/><path class="fn-svg-icon" fill-rule="evenodd" d="M11.2929 11.2929C11.5973 10.9885 12.0622 10.9131 12.4472 11.1056L16.4472 13.1056C16.9412 13.3526 17.1414 13.9532 16.8944 14.4472C16.6474 14.9412 16.0468 15.1414 15.5528 14.8944L12.1975 13.2168L8.70711 16.7071C8.31658 17.0976 7.68342 17.0976 7.29289 16.7071C6.90237 16.3166 6.90237 15.6834 7.29289 15.2929L11.2929 11.2929Z" clip-rule="evenodd"/><path class="fn-svg-icon" fill-rule="evenodd" d="M3 8C3.55228 8 4 8.44772 4 9V19.0012C4 19.5535 4.44772 20.0012 5 20.0012H16C16.5523 20.0012 17 20.4489 17 21.0012C17 21.5535 16.5523 22.0012 16 22.0012H5C3.34315 22.0012 2 20.6581 2 19.0012V9C2 8.44772 2.44772 8 3 8Z" clip-rule="evenodd"/></svg>
