<svg xmlns="http://www.w3.org/2000/svg" viewBox="0 0 24 24"><path class="fn-svg-icon" fill-rule="evenodd" d="M11.2929 14.2929C11.6834 13.9024 12.3166 13.9024 12.7071 14.2929L15.7071 17.2929C16.0976 17.6834 16.0976 18.3166 15.7071 18.7071C15.3166 19.0976 14.6834 19.0976 14.2929 18.7071L12 16.4142L9.70711 18.7071C9.31658 19.0976 8.68342 19.0976 8.29289 18.7071C7.90237 18.3166 7.90237 17.6834 8.29289 17.2929L11.2929 14.2929Z" clip-rule="evenodd"/><path class="fn-svg-icon" fill-rule="evenodd" d="M11.2929 18.2929C11.6834 17.9024 12.3166 17.9024 12.7071 18.2929L15.7071 21.2929C16.0976 21.6834 16.0976 22.3166 15.7071 22.7071 15.3166 23.0976 14.6834 23.0976 14.2929 22.7071L12 20.4142 9.70711 22.7071C9.31658 23.0976 8.68342 23.0976 8.29289 22.7071 7.90237 22.3166 7.90237 21.6834 8.29289 21.2929L11.2929 18.2929ZM8.29289 5.29289C8.68342 4.90237 9.31658 4.90237 9.70711 5.29289L12 7.58579 14.2929 5.29289C14.6834 4.90237 15.3166 4.90237 15.7071 5.29289 16.0976 5.68342 16.0976 6.31658 15.7071 6.70711L12.7071 9.70711C12.3166 10.0976 11.6834 10.0976 11.2929 9.70711L8.29289 6.70711C7.90237 6.31658 7.90237 5.68342 8.29289 5.29289Z" clip-rule="evenodd"/><path class="fn-svg-icon" fill-rule="evenodd" d="M8.29289 1.29289C8.68342 0.902369 9.31658 0.902369 9.70711 1.29289L12 3.58579L14.2929 1.29289C14.6834 0.902369 15.3166 0.902369 15.7071 1.29289C16.0976 1.68342 16.0976 2.31658 15.7071 2.70711L12.7071 5.70711C12.3166 6.09763 11.6834 6.09763 11.2929 5.70711L8.29289 2.70711C7.90237 2.31658 7.90237 1.68342 8.29289 1.29289Z" clip-rule="evenodd"/></svg>
