<svg xmlns="http://www.w3.org/2000/svg" viewBox="0 0 24 24"><path class="fn-svg-icon" fill-rule="evenodd" d="M8 13C6.34315 13 5 14.3431 5 16V17H8.00002C8.5523 17 9.00002 17.4477 9.00002 18C9.00002 18.5523 8.5523 19 8.00002 19H4C3.44772 19 3 18.5523 3 18V16C3 13.2386 5.23858 11 8 11H12C12.5523 11 13 11.4477 13 12C13 12.5523 12.5523 13 12 13H8Z" clip-rule="evenodd"/><path class="fn-svg-icon" fill-rule="evenodd" d="M5.00002 9C5.00002 6.79086 6.79088 5 9.00002 5C9.46512 5 9.91374 5.0798 10.3316 5.22727C10.8524 5.41109 11.1256 5.98229 10.9418 6.50309C10.7579 7.02389 10.1867 7.29707 9.66594 7.11325C9.45894 7.04019 9.23525 7 9.00002 7C7.89545 7 7.00002 7.89543 7.00002 9C7.00002 10.1046 7.89545 11 9.00002 11C9.5523 11 10 11.4477 10 12C10 12.5523 9.5523 13 9.00002 13C6.79088 13 5.00002 11.2091 5.00002 9Z" clip-rule="evenodd"/><path class="fn-svg-icon" fill-rule="evenodd" d="M14 13C11.2386 13 9.00002 15.2386 9.00002 18L9.00002 19H13C13.5523 19 14 19.4477 14 20 14 20.5523 13.5523 21 13 21H8.00002C7.44773 21 7.00002 20.5523 7.00002 20V18C7.00002 14.134 10.134 11 14 11 14.5523 11 15 11.4477 15 12 15 12.5523 14.5523 13 14 13ZM18.5 16C18.2239 16 18 16.2239 18 16.5 18 16.7761 18.2239 17 18.5 17H19.5C20.8807 17 22 18.1193 22 19.5 22 20.8807 20.8807 22 19.5 22H17C16.4477 22 16 21.5523 16 21 16 20.4477 16.4477 20 17 20H19.5C19.7762 20 20 19.7761 20 19.5 20 19.2239 19.7762 19 19.5 19H18.5C17.1193 19 16 17.8807 16 16.5 16 15.1193 17.1193 14 18.5 14H21C21.5523 14 22 14.4477 22 15 22 15.5523 21.5523 16 21 16H18.5Z" clip-rule="evenodd"/><path class="fn-svg-icon" fill-rule="evenodd" d="M19 12C19.5523 12 20 12.4477 20 13V14C20 14.5523 19.5523 15 19 15 18.4477 15 18 14.5523 18 14V13C18 12.4477 18.4477 12 19 12ZM19 21C19.5523 21 20 21.4477 20 22V23C20 23.5523 19.5523 24 19 24 18.4477 24 18 23.5523 18 23V22C18 21.4477 18.4477 21 19 21ZM9.00002 8C9.00002 5.23858 11.2386 3 14 3 16.7614 3 19 5.23858 19 8 19 10.7614 16.7614 13 14 13 11.2386 13 9.00002 10.7614 9.00002 8ZM14 5C12.3432 5 11 6.34315 11 8 11 9.65685 12.3432 11 14 11 15.6569 11 17 9.65685 17 8 17 6.34315 15.6569 5 14 5Z" clip-rule="evenodd"/></svg>
