<svg xmlns="http://www.w3.org/2000/svg" viewBox="0 0 24 24"><path class="fn-svg-icon" fill-rule="evenodd" d="M4 4C4 2.89543 4.89543 2 6 2H18C19.1046 2 20 2.89543 20 4V20C20 21.1046 19.1046 22 18 22H6C4.89543 22 4 21.1046 4 20V4ZM18 4L6 4V20H18V4Z" clip-rule="evenodd"/><path class="fn-svg-icon" fill-rule="evenodd" d="M12 7C12 6.44772 12.4477 6 13 6H15C15.5523 6 16 6.44772 16 7 16 7.55228 15.5523 8 15 8H13C12.4477 8 12 7.55228 12 7ZM12 11C12 10.4477 12.4477 10 13 10H15C15.5523 10 16 10.4477 16 11 16 11.5523 15.5523 12 15 12H13C12.4477 12 12 11.5523 12 11ZM12 15C12 14.4477 12.4477 14 13 14H15C15.5523 14 16 14.4477 16 15 16 15.5523 15.5523 16 15 16H13C12.4477 16 12 15.5523 12 15ZM9 8.5C9.82843 8.5 10.5 7.82843 10.5 7 10.5 6.17157 9.82843 5.5 9 5.5 8.17157 5.5 7.5 6.17157 7.5 7 7.5 7.82843 8.17157 8.5 9 8.5ZM9 12.5C9.82843 12.5 10.5 11.8284 10.5 11 10.5 10.1716 9.82843 9.5 9 9.5 8.17157 9.5 7.5 10.1716 7.5 11 7.5 11.8284 8.17157 12.5 9 12.5ZM9 16.5C9.82843 16.5 10.5 15.8284 10.5 15 10.5 14.1716 9.82843 13.5 9 13.5 8.17157 13.5 7.5 14.1716 7.5 15 7.5 15.8284 8.17157 16.5 9 16.5Z" clip-rule="evenodd"/></svg>
