<svg xmlns="http://www.w3.org/2000/svg" viewBox="0 0 24 24"><path class="fn-svg-icon" fill-rule="evenodd" d="M8.5 10C9.32843 10 10 9.32843 10 8.5C10 7.67157 9.32843 7 8.5 7C7.67157 7 7 7.67157 7 8.5C7 9.32843 7.67157 10 8.5 10Z" clip-rule="evenodd"/><path class="fn-svg-icon" fill-rule="evenodd" d="M3 6C3 4.34315 4.34315 3 6 3H18C19.6569 3 21 4.34315 21 6V18C21 19.6569 19.6569 21 18 21H6C4.34315 21 3 19.6569 3 18V6ZM6 5C5.44772 5 5 5.44772 5 6V18C5 18.5523 5.44772 19 6 19H18C18.5523 19 19 18.5523 19 18V6C19 5.44772 18.5523 5 18 5H6Z" clip-rule="evenodd"/><path class="fn-svg-icon" fill-rule="evenodd" d="M15.2925 10.2929C15.5968 9.98855 16.0618 9.91307 16.4468 10.1056L20.4472 12.1056C20.9412 12.3525 21.1414 12.9532 20.8944 13.4472C20.6475 13.9412 20.0468 14.1414 19.5528 13.8944L16.1971 12.2168L12.7071 15.7071C12.3166 16.0976 11.6835 16.0976 11.2929 15.7071C10.9024 15.3166 10.9024 14.6835 11.2929 14.2929L15.2925 10.2929Z" clip-rule="evenodd"/><path class="fn-svg-icon" fill-rule="evenodd" d="M9.29289 13.2929C9.59725 12.9885 10.0622 12.9131 10.4472 13.1056L14.4472 15.1056C14.9412 15.3526 15.1414 15.9532 14.8944 16.4472C14.6474 16.9412 14.0468 17.1414 13.5528 16.8944L10.1975 15.2168L5.70711 19.7071C5.31658 20.0976 4.68342 20.0976 4.29289 19.7071C3.90237 19.3166 3.90237 18.6834 4.29289 18.2929L9.29289 13.2929Z" clip-rule="evenodd"/></svg>
