<svg xmlns="http://www.w3.org/2000/svg" viewBox="0 0 24 24"><path class="fn-svg-icon" fill-rule="evenodd" d="M11.5 10C11.2239 10 11 10.2239 11 10.5C11 10.7761 11.2239 11 11.5 11H12.5C13.8807 11 15 12.1193 15 13.5C15 14.8807 13.8807 16 12.5 16H10C9.44772 16 9 15.5523 9 15C9 14.4477 9.44772 14 10 14H12.5C12.7761 14 13 13.7761 13 13.5C13 13.2239 12.7761 13 12.5 13H11.5C10.1193 13 9 11.8807 9 10.5C9 9.11929 10.1193 8 11.5 8H14C14.5523 8 15 8.44772 15 9C15 9.55228 14.5523 10 14 10H11.5Z" clip-rule="evenodd"/><path class="fn-svg-icon" fill-rule="evenodd" d="M12 6C12.5523 6 13 6.44772 13 7V8C13 8.55228 12.5523 9 12 9 11.4477 9 11 8.55228 11 8V7C11 6.44772 11.4477 6 12 6ZM12 15C12.5523 15 13 15.4477 13 16V17C13 17.5523 12.5523 18 12 18 11.4477 18 11 17.5523 11 17V16C11 15.4477 11.4477 15 12 15ZM15 4C15 3.44772 15.4477 3 16 3H18C19.6569 3 21 4.34315 21 6V8C21 8.55228 20.5523 9 20 9 19.4477 9 19 8.55228 19 8V6C19 5.44772 18.5523 5 18 5H16C15.4477 5 15 4.55228 15 4ZM20 15C20.5523 15 21 15.4477 21 16V18C21 19.6569 19.6569 21 18 21H16C15.4477 21 15 20.5523 15 20 15 19.4477 15.4477 19 16 19H18C18.5523 19 19 18.5523 19 18V16C19 15.4477 19.4477 15 20 15ZM4 15C4.55228 15 5 15.4477 5 16V18C5 18.5523 5.44772 19 6 19H8C8.55228 19 9 19.4477 9 20 9 20.5523 8.55228 21 8 21H6C4.34315 21 3 19.6569 3 18V16C3 15.4477 3.44772 15 4 15ZM6 5C5.44772 5 5 5.44772 5 6V8C5 8.55228 4.55228 9 4 9 3.44772 9 3 8.55228 3 8V6C3 4.34315 4.34315 3 6 3H8C8.55228 3 9 3.44772 9 4 9 4.55228 8.55228 5 8 5H6Z" clip-rule="evenodd"/></svg>
