<svg xmlns="http://www.w3.org/2000/svg" viewBox="0 0 24 24"><path class="fn-svg-icon" fill-rule="evenodd" d="M15.3827 4.07615C15.7564 4.23093 16 4.59557 16 5.00003V11C16 11.4045 15.7564 11.7691 15.3827 11.9239C15.009 12.0787 14.5789 11.9931 14.2929 11.7071L11.2929 8.70714C10.9024 8.31661 10.9024 7.68345 11.2929 7.29292L14.2929 4.29292C14.5789 4.00692 15.009 3.92137 15.3827 4.07615Z" clip-rule="evenodd"/><path class="fn-svg-icon" fill-rule="evenodd" d="M13 8.00003C13 7.44774 13.4477 7.00003 14 7.00003H20C20.5523 7.00003 21 7.44774 21 8.00003 21 8.55231 20.5523 9.00003 20 9.00003H14C13.4477 9.00003 13 8.55231 13 8.00003ZM8.61732 12.0761C8.99099 11.9214 9.42111 12.0069 9.70711 12.2929L12.7071 15.2929C13.0976 15.6834 13.0976 16.3166 12.7071 16.7071L9.70711 19.7071C9.42111 19.9931 8.99099 20.0787 8.61732 19.9239 8.24364 19.7691 8 19.4045 8 19V13C8 12.5956 8.24364 12.2309 8.61732 12.0761Z" clip-rule="evenodd"/><path class="fn-svg-icon" fill-rule="evenodd" d="M3 16C3 15.4477 3.44772 15 4 15H10C10.5523 15 11 15.4477 11 16C11 16.5523 10.5523 17 10 17H4C3.44772 17 3 16.5523 3 16Z" clip-rule="evenodd"/></svg>
