<svg xmlns="http://www.w3.org/2000/svg" viewBox="0 0 24 24"><path class="fn-svg-icon" fill-rule="evenodd" d="M7.17055 2.41445C8.7325 0.85228 11.2651 0.852056 12.8273 2.41395L14.5853 4.17161C16.1477 5.73366 16.1478 8.26655 14.5856 9.82876L14.4143 10.0001L21.7072 17.293C21.8947 17.4805 22.0001 17.7349 22.0001 18.0001V21.0001C22.0001 21.5524 21.5523 22.0001 21.0001 22.0001H18.0001C17.7348 22.0001 17.4805 21.8948 17.293 21.7072L16.5858 21.0001H15.0001C14.4478 21.0001 14.0001 20.5524 14.0001 20.0001V19.0001H13.0001C12.4478 19.0001 12.0001 18.5524 12.0001 18.0001V17.0001H11.0001C10.4478 17.0001 10.0001 16.5524 10.0001 16.0001V14.4143L9.82849 14.5859C8.26639 16.148 5.73373 16.148 4.17163 14.5859L2.41413 12.8284C0.852104 11.2664 0.85202 8.73386 2.41393 7.17173L7.17055 2.41445ZM16.0001 19.0001H17.0001C17.2653 19.0001 17.5196 19.1055 17.7072 19.293L18.4143 20.0001H20.0001V18.4143L12.293 10.7072C11.9024 10.3167 11.9024 9.68353 12.293 9.293L13.1714 8.41455C13.9525 7.63344 13.9525 6.36699 13.1713 5.58597L11.4132 3.82831C10.6321 3.04737 9.36584 3.04748 8.58486 3.82856L3.82824 8.58585C3.04729 9.36691 3.04733 10.6332 3.82834 11.4142L5.58585 13.1717C6.36689 13.9527 7.63323 13.9527 8.41427 13.1717L9.29295 12.293C9.68348 11.9025 10.3166 11.9025 10.7072 12.293L11.7072 13.293C11.8947 13.4805 12.0001 13.7349 12.0001 14.0001V15.0001H13.0001C13.5523 15.0001 14.0001 15.4478 14.0001 16.0001V17.0001H15.0001C15.5523 17.0001 16.0001 17.4478 16.0001 18.0001V19.0001Z" clip-rule="evenodd"/><path class="fn-svg-icon" fill-rule="evenodd" d="M10.7072 6.293C11.0977 6.68353 11.0977 7.31669 10.7072 7.70722L7.70717 10.7072C7.31664 11.0977 6.68348 11.0977 6.29295 10.7072C5.90243 10.3167 5.90243 9.68353 6.29295 9.293L9.29295 6.293C9.68348 5.90248 10.3166 5.90248 10.7072 6.293Z" clip-rule="evenodd"/></svg>
