<svg xmlns="http://www.w3.org/2000/svg" viewBox="0 0 24 24"><path class="fn-svg-icon" fill-rule="evenodd" d="M13 5.00003C13 4.44774 12.5523 4.00003 12 4.00003C7.02944 4.00003 3 8.02947 3 13C3 17.1962 5.87072 20.7193 9.75384 21.7172C10.2887 21.8547 10.8338 21.5325 10.9713 20.9976C11.1087 20.4627 10.7866 19.9176 10.2517 19.7802C7.23108 19.0039 5 16.2612 5 13C5 9.13404 8.13401 6.00003 12 6.00003C12.5523 6.00003 13 5.55231 13 5.00003Z" clip-rule="evenodd"/><path class="fn-svg-icon" fill-rule="evenodd" d="M12.6173 1.07615C12.2436 1.23093 12 1.59557 12 2.00003V8.00003C12 8.40449 12.2436 8.76913 12.6173 8.92391 12.991 9.07869 13.4211 8.99313 13.7071 8.70714L16.7071 5.70714C17.0976 5.31661 17.0976 4.68345 16.7071 4.29292L13.7071 1.29292C13.4211 1.00692 12.991.921369 12.6173 1.07615ZM18.0303 7.67766C18.4966 7.38177 19.1145 7.51995 19.4104 7.98629 19.9508 8.83803 20.3525 9.7874 20.5828 10.8022 20.7051 11.3407 20.3676 11.8765 19.829 11.9987 19.2905 12.121 18.7547 11.7835 18.6325 11.2449 18.4537 10.4575 18.142 9.72025 17.7216 9.05778 17.4258 8.59144 17.5639 7.97354 18.0303 7.67766ZM19.829 13.6048C20.3676 13.727 20.7051 14.2628 20.5828 14.8013 20.3525 15.8161 19.9508 16.7655 19.4104 17.6172 19.1145 18.0835 18.4966 18.2217 18.0303 17.9258 17.5639 17.63 17.4258 17.0121 17.7216 16.5457 18.142 15.8832 18.4537 15.146 18.6325 14.3585 18.7547 13.82 19.2905 13.4825 19.829 13.6048ZM16.9122 19.0419C17.2069 19.5089 17.0672 20.1265 16.6001 20.4212 15.7525 20.9561 14.8087 21.3537 13.8004 21.5823 13.2618 21.7044 12.7262 21.3667 12.6041 20.8281 12.482 20.2895 12.8197 19.7538 13.3583 19.6317 14.1407 19.4544 14.8736 19.1458 15.5328 18.7298 15.9999 18.4351 16.6174 18.5748 16.9122 19.0419ZM11.2929 12.2929C11.4804 12.1054 11.7348 12 12 12H15C15.5523 12 16 12.4477 16 13 16 13.5523 15.5523 14 15 14H12.4142L9.70711 16.7071C9.31658 17.0977 8.68342 17.0977 8.29289 16.7071 7.90237 16.3166 7.90237 15.6834 8.29289 15.2929L11.2929 12.2929Z" clip-rule="evenodd"/></svg>
