<svg xmlns="http://www.w3.org/2000/svg" viewBox="0 0 24 24"><path class="fn-svg-icon" fill-rule="evenodd" d="M12 6C9.23858 6 7 8.23858 7 11C7 11.5523 6.55228 12 6 12H5C3.34315 12 2 13.3431 2 15C2 16.6569 3.34315 18 5 18H18C20.2091 18 22 16.2091 22 14C22 13.4477 22.4477 13 23 13C23.5523 13 24 13.4477 24 14C24 17.3137 21.3137 20 18 20H5C2.23858 20 0 17.7614 0 15C0 12.2386 2.23858 10 5 10H5.07089C5.55612 6.60771 8.47353 4 12 4C12.5523 4 13 4.44772 13 5C13 5.55228 12.5523 6 12 6Z" clip-rule="evenodd"/><path class="fn-svg-icon" fill-rule="evenodd" d="M19 2C19.5523 2 20 2.44772 20 3V13C20 13.5523 19.5523 14 19 14C18.4477 14 18 13.5523 18 13V3C18 2.44772 18.4477 2 19 2Z" clip-rule="evenodd"/><path class="fn-svg-icon" fill-rule="evenodd" d="M18.2929 2.29289C18.6834 1.90237 19.3166 1.90237 19.7071 2.29289L22.7071 5.29289C23.0976 5.68342 23.0976 6.31658 22.7071 6.70711C22.3166 7.09763 21.6834 7.09763 21.2929 6.70711L19 4.41421L16.7071 6.70711C16.3166 7.09763 15.6834 7.09763 15.2929 6.70711C14.9024 6.31658 14.9024 5.68342 15.2929 5.29289L18.2929 2.29289Z" clip-rule="evenodd"/></svg>
