<svg xmlns="http://www.w3.org/2000/svg" viewBox="0 0 24 24"><path class="fn-svg-icon" fill-rule="evenodd" d="M9.35814 3.60574C9.54592 2.67185 10.3663 2 11.3189 2H12.6802C13.6335 2 14.4543 2.67292 14.6413 3.60777L14.8949 4.87593L16.5886 5.91521L17.7574 5.43177C18.7269 5.03076 19.8415 5.44708 20.3107 6.38548L21.0213 7.80667C21.4534 8.67089 21.2059 9.72045 20.4332 10.3005L19.5019 10.9997V13.0003L20.4332 13.6995C21.2059 14.2796 21.4534 15.3291 21.0213 16.1933L20.3059 17.6242C19.8407 18.5546 18.74 18.9731 17.7742 18.5867L16.5891 18.1127L14.8939 19.1298L14.6412 20.3949C14.4544 21.33 13.6335 22.0032 12.6799 22.0032H11.3191C10.3663 22.0032 9.54584 21.3311 9.35825 20.397L9.10379 19.1299L7.41052 18.1128L6.22567 18.5867C5.25989 18.9731 4.15921 18.5546 3.69403 17.6242L2.97876 16.1937C2.5465 15.3292 2.79436 14.2792 3.56762 13.6993L4.49995 13V11L3.56762 10.3007C2.79436 9.7208 2.5465 8.67085 2.97876 7.80632L3.68918 6.38548C4.15838 5.44708 5.27296 5.03076 6.24247 5.43177L7.411 5.9151L9.10275 4.87589L9.35814 3.60574ZM12.6802 4L11.3189 4L11.0635 5.27014C10.954 5.81475 10.6229 6.28928 10.1496 6.58004L8.45783 7.61925C7.91198 7.95456 7.23854 8.0081 6.64657 7.76324L5.47803 7.27991L4.76762 8.70075L5.69995 9.4C6.20357 9.77771 6.49995 10.3705 6.49995 11V13C6.49995 13.6295 6.20357 14.2223 5.69995 14.6L4.76762 15.2993L5.48289 16.7298L6.66774 16.2559C7.24838 16.0236 7.90423 16.0763 8.44033 16.3983L10.1336 17.4154C10.6159 17.7051 10.9539 18.1845 11.0646 18.7361L11.3191 20.0032H12.6799L12.9326 18.7381C13.0431 18.1853 13.3816 17.7048 13.8649 17.4148L15.5601 16.3977C16.0961 16.0761 16.7516 16.0236 17.3319 16.2557L18.517 16.7298L19.2325 15.2989L18.3012 14.5997C17.798 14.222 17.5019 13.6295 17.5019 13.0003V10.9997C17.5019 10.3705 17.798 9.77802 18.3012 9.40027L19.2325 8.7011L18.5219 7.27991L17.3531 7.76336C16.7614 8.00808 16.0883 7.95474 15.5426 7.61987L13.8489 6.58058C13.3746 6.2895 13.0429 5.81391 12.9338 5.26816L12.6802 4Z" clip-rule="evenodd"/><path class="fn-svg-icon" fill-rule="evenodd" d="M7.99995 12C7.99995 9.79086 9.79082 8 12 8C14.2091 8 16 9.79086 16 12C16 14.2091 14.2091 16 12 16C9.79082 16 7.99995 14.2091 7.99995 12ZM12 10C10.8954 10 9.99995 10.8954 9.99995 12C9.99995 13.1046 10.8954 14 12 14C13.1045 14 14 13.1046 14 12C14 10.8954 13.1045 10 12 10Z" clip-rule="evenodd"/></svg>
