<svg xmlns="http://www.w3.org/2000/svg" viewBox="0 0 24 24"><path class="fn-svg-icon" fill-rule="evenodd" d="M13 5C13 4.44772 13.4477 4 14 4H16C17.6569 4 19 5.34315 19 7 19 7.55228 18.5523 8 18 8 17.4477 8 17 7.55228 17 7 17 6.44772 16.5523 6 16 6H14C13.4477 6 13 5.55228 13 5ZM6 6C5.44772 6 5 6.44772 5 7V19C5 19.5523 5.44772 20 6 20H7C7.55228 20 8 20.4477 8 21 8 21.5523 7.55228 22 7 22H6C4.34315 22 3 20.6569 3 19V7C3 5.34315 4.34315 4 6 4H8C8.55228 4 9 4.44772 9 5 9 5.55228 8.55228 6 8 6H6ZM17 11C17.2652 11 17.5196 11.1054 17.7071 11.2929L19.7071 13.2929C20.0976 13.6834 20.0976 14.3166 19.7071 14.7071L12.7071 21.7071C12.5196 21.8946 12.2652 22 12 22H10C9.44772 22 9 21.5523 9 21V19C9 18.7348 9.10536 18.4804 9.29289 18.2929L16.2929 11.2929C16.4804 11.1054 16.7348 11 17 11ZM11 19.4142V20H11.5858L17.5858 14 17 13.4142 11 19.4142ZM19.2929 8.29289C19.6834 7.90237 20.3166 7.90237 20.7071 8.29289L22.7071 10.2929C23.0976 10.6834 23.0976 11.3166 22.7071 11.7071L21.7071 12.7071C21.3166 13.0976 20.6834 13.0976 20.2929 12.7071L18.2929 10.7071C17.9024 10.3166 17.9024 9.68342 18.2929 9.29289L19.2929 8.29289Z" clip-rule="evenodd"/><path class="fn-svg-icon" fill-rule="evenodd" d="M7 4C7 2.89543 7.89543 2 9 2H13C14.1046 2 15 2.89543 15 4V6C15 7.10457 14.1046 8 13 8H9C7.89543 8 7 7.10457 7 6V4ZM13 4H9V6H13V4ZM7 11C7 10.4477 7.44772 10 8 10H13C13.5523 10 14 10.4477 14 11 14 11.5523 13.5523 12 13 12H8C7.44772 12 7 11.5523 7 11ZM7 14C7 13.4477 7.44772 13 8 13H10C10.5523 13 11 13.4477 11 14 11 14.5523 10.5523 15 10 15H8C7.44772 15 7 14.5523 7 14Z" clip-rule="evenodd"/></svg>
