<svg xmlns="http://www.w3.org/2000/svg" viewBox="0 0 24 24"><path class="fn-svg-icon" fill-rule="evenodd" d="M8.00003 4C8.55231 4 9.00003 4.44772 9.00003 5V17C9.00003 17.5523 8.55231 18 8.00003 18C7.44774 18 7.00003 17.5523 7.00003 17V5C7.00003 4.44772 7.44774 4 8.00003 4Z" clip-rule="evenodd"/><path class="fn-svg-icon" fill-rule="evenodd" d="M11 16L8.00003 19L5.00003 16H11Z" clip-rule="evenodd"/><path class="fn-svg-icon" fill-rule="evenodd" d="M4.07615 15.6173C4.23093 15.2436 4.59557 15 5.00003 15H11C11.4045 15 11.7691 15.2436 11.9239 15.6173 12.0787 15.991 11.9931 16.4211 11.7071 16.7071L8.70714 19.7071C8.31661 20.0976 7.68345 20.0976 7.29292 19.7071L4.29292 16.7071C4.00692 16.4211 3.92137 15.991 4.07615 15.6173ZM16 6C16.5523 6 17 6.44772 17 7V19C17 19.5523 16.5523 20 16 20 15.4477 20 15 19.5523 15 19V7C15 6.44772 15.4477 6 16 6Z" clip-rule="evenodd"/><path class="fn-svg-icon" fill-rule="evenodd" d="M19 8L16 5L13 8H19Z" clip-rule="evenodd"/><path class="fn-svg-icon" fill-rule="evenodd" d="M15.2929 4.29289C15.6834 3.90237 16.3166 3.90237 16.7071 4.29289L19.7071 7.29289C19.9931 7.57889 20.0787 8.00901 19.9239 8.38268C19.7691 8.75636 19.4045 9 19 9H13C12.5956 9 12.2309 8.75636 12.0761 8.38268C11.9214 8.00901 12.0069 7.57889 12.2929 7.29289L15.2929 4.29289Z" clip-rule="evenodd"/></svg>
