<svg xmlns="http://www.w3.org/2000/svg" viewBox="0 0 24 24"><path class="fn-svg-icon" fill-rule="evenodd" d="M9.35814 3.60574C9.54592 2.67185 10.3663 2 11.3189 2H12.6802C13.6335 2 14.4543 2.67292 14.6413 3.60777L14.8949 4.87593 16.5886 5.91521 17.7574 5.43177C18.7269 5.03076 19.8415 5.44708 20.3107 6.38548L21.0213 7.80667C21.4534 8.67089 21.2059 9.72045 20.4332 10.3005L19.5019 10.9997V13.0003C19.5019 13.5526 19.0542 14.0003 18.5019 14.0003 17.9496 14.0003 17.5019 13.5526 17.5019 13.0003V10.9997C17.5019 10.3705 17.798 9.77802 18.3012 9.40027L19.2325 8.7011 18.5219 7.27991 17.3531 7.76336C16.7614 8.00808 16.0883 7.95474 15.5426 7.61987L13.8489 6.58058C13.3746 6.2895 13.0429 5.81391 12.9338 5.26816L12.6802 4H11.3189L11.0635 5.27014C10.954 5.81475 10.6229 6.28928 10.1496 6.58004L8.45783 7.61925C7.91198 7.95456 7.23854 8.0081 6.64657 7.76324L5.47803 7.27991 4.76762 8.70075 5.69995 9.4C6.20357 9.77771 6.49995 10.3705 6.49995 11V13C6.49995 13.6295 6.20357 14.2223 5.69995 14.6L4.76762 15.2993 5.48289 16.7298 6.66774 16.2559C7.18053 16.0507 7.7625 16.3002 7.96761 16.8129 8.17272 17.3257 7.92331 17.9077 7.41052 18.1128L6.22567 18.5867C5.25989 18.9731 4.15921 18.5546 3.69403 17.6242L2.97876 16.1937C2.5465 15.3292 2.79436 14.2792 3.56762 13.6993L4.49995 13 4.49995 11 3.56762 10.3007C2.79436 9.7208 2.5465 8.67085 2.97876 7.80632L3.68918 6.38548C4.15838 5.44708 5.27296 5.03076 6.24247 5.43177L7.411 5.9151 9.10275 4.87589 9.35814 3.60574ZM18.2928 15.2929C18.6834 14.9024 19.3165 14.9024 19.7071 15.2929L22.7071 18.2929C23.0976 18.6834 23.0976 19.3166 22.7071 19.7071L19.7071 22.7071C19.3165 23.0976 18.6834 23.0976 18.2928 22.7071 17.9023 22.3166 17.9023 21.6834 18.2928 21.2929L20.5857 19 18.2928 16.7071C17.9023 16.3166 17.9023 15.6834 18.2928 15.2929Z" clip-rule="evenodd"/><path class="fn-svg-icon" fill-rule="evenodd" d="M12.7071 15.2929C13.0976 15.6834 13.0976 16.3166 12.7071 16.7071L10.4142 19 12.7071 21.2929C13.0976 21.6834 13.0976 22.3166 12.7071 22.7071 12.3165 23.0976 11.6834 23.0976 11.2928 22.7071L8.29285 19.7071C7.90232 19.3166 7.90232 18.6834 8.29285 18.2929L11.2928 15.2929C11.6834 14.9024 12.3165 14.9024 12.7071 15.2929ZM16.1644 15.0136C16.7091 15.1044 17.0771 15.6196 16.9863 16.1644L15.9863 22.1644C15.8956 22.7092 15.3803 23.0772 14.8356 22.9864 14.2908 22.8956 13.9228 22.3804 14.0136 21.8356L15.0136 15.8356C15.1044 15.2908 15.6196 14.9228 16.1644 15.0136ZM7.99995 12C7.99995 9.79086 9.79082 8 12 8 14.2091 8 16 9.79086 16 12 16 12.4665 15.9197 12.9165 15.7713 13.3354 15.587 13.856 15.0155 14.1286 14.4949 13.9443 13.9743 13.7599 13.7017 13.1884 13.886 12.6678 13.9595 12.4603 14 12.236 14 12 14 10.8954 13.1045 10 12 10 10.8954 10 9.99995 10.8954 9.99995 12 9.99995 12.5113 10.1905 12.9757 10.506 13.3297 10.8734 13.7421 10.837 14.3742 10.4246 14.7416 10.0123 15.109 9.38019 15.0726 9.01278 14.6603 8.3835 13.954 7.99995 13.0206 7.99995 12Z" clip-rule="evenodd"/></svg>
