<svg xmlns="http://www.w3.org/2000/svg" viewBox="0 0 24 24"><path class="fn-svg-icon" fill-rule="evenodd" d="M8 11C8.55228 11 9 11.4477 9 12V16C9 16.5523 8.55228 17 8 17 7.44772 17 7 16.5523 7 16V12C7 11.4477 7.44772 11 8 11ZM12 7C12.5523 7 13 7.44772 13 8V16C13 16.5523 12.5523 17 12 17 11.4477 17 11 16.5523 11 16V8C11 7.44772 11.4477 7 12 7Z" clip-rule="evenodd"/><path class="fn-svg-icon" fill-rule="evenodd" d="M4 3C4.55228 3 5 3.44772 5 4V18C5 18.5523 5.44772 19 6 19H18C18.5523 19 19 18.5523 19 18V4C19 3.44772 19.4477 3 20 3C20.5523 3 21 3.44772 21 4V18C21 19.6569 19.6569 21 18 21H6C4.34315 21 3 19.6569 3 18V4C3 3.44772 3.44772 3 4 3Z" clip-rule="evenodd"/><path class="fn-svg-icon" fill-rule="evenodd" d="M16 9C16.5523 9 17 9.44772 17 10V16C17 16.5523 16.5523 17 16 17C15.4477 17 15 16.5523 15 16V10C15 9.44772 15.4477 9 16 9Z" clip-rule="evenodd"/></svg>
