<svg xmlns="http://www.w3.org/2000/svg" viewBox="0 0 24 24"><path class="fn-svg-icon" fill-rule="evenodd" d="M4.89345 15.1042C4.99663 16.0309 5.48771 16.8014 5.88907 17.2028C6.28995 17.6037 7.06096 18.0944 7.9884 18.1974C8.86053 18.2943 9.97915 18.0625 11.1924 16.8493L16.8492 11.1924C17.2397 10.8019 17.8729 10.8019 18.2634 11.1924C18.654 11.5829 18.654 12.2161 18.2634 12.6066L12.6066 18.2635C10.992 19.8781 9.28218 20.3534 7.76767 20.1852C6.30847 20.0232 5.13464 19.2768 4.47486 18.617C3.81555 17.9577 3.06821 16.7847 2.90573 15.3255C2.73709 13.8108 3.21271 12.101 4.82841 10.4853L5.53552 11.1924L6.24262 11.8995C5.02791 13.1142 4.79643 14.2328 4.89345 15.1042ZM8.7175 14.3744C8.01039 15.0815 8.00993 15.081 8.00946 15.0806L8.0085 15.0796L8.0065 15.0776L8.00218 15.0732L7.99235 15.063C7.98528 15.0556 7.97716 15.047 7.96813 15.0371C7.95009 15.0174 7.92826 14.9926 7.90372 14.9629C7.85487 14.9038 7.79391 14.8235 7.73021 14.7234C7.60422 14.5255 7.45747 14.2339 7.38336 13.8634C7.22139 13.0535 7.45085 12.1055 8.36394 11.1924L12.6066 6.94976C12.9971 6.55923 13.6303 6.55923 14.0208 6.94976C14.4113 7.34028 14.4113 7.97345 14.0208 8.36397L9.77816 12.6066C9.27704 13.1077 9.32972 13.3972 9.34452 13.4712C9.3588 13.5426 9.38883 13.6046 9.41753 13.6497C9.42101 13.6551 9.4243 13.6601 9.42734 13.6645C9.43177 13.6676 9.43673 13.6709 9.4422 13.6743C9.48729 13.703 9.54932 13.7331 9.62072 13.7474C9.69472 13.7622 9.98414 13.8148 10.4853 13.3137L16.1421 7.65687C16.4425 7.35651 16.6447 6.83967 16.6447 6.24265C16.6447 5.64564 16.4425 5.1288 16.1421 4.82844C15.8418 4.52808 15.3249 4.32584 14.7279 4.32584C14.1309 4.32584 13.614 4.52808 13.3137 4.82844L6.24262 11.8995C6.24258 11.8996 6.24262 11.8995 5.53552 11.1924C4.82841 10.4853 4.82836 10.4853 4.82841 10.4853L11.8995 3.41423C12.6598 2.65392 13.7339 2.32584 14.7279 2.32584C15.7219 2.32584 16.796 2.65392 17.5563 3.41423C18.3166 4.17453 18.6447 5.24868 18.6447 6.24265C18.6447 7.23663 18.3166 8.31078 17.5563 9.07108L11.8995 14.7279C10.9864 15.641 10.0384 15.8705 9.22849 15.7085C8.85795 15.6344 8.56642 15.4877 8.36845 15.3617C8.26835 15.298 8.18809 15.237 8.12895 15.1882C8.09925 15.1636 8.07446 15.1418 8.05474 15.1238C8.04487 15.1147 8.03623 15.1066 8.02884 15.0995L8.01869 15.0897L8.01431 15.0854L8.01229 15.0834L8.01133 15.0824C8.01086 15.082 8.01039 15.0815 8.7175 14.3744Z" clip-rule="evenodd"/></svg>
