<svg xmlns="http://www.w3.org/2000/svg" viewBox="0 0 24 24"><path class="fn-svg-icon" fill-rule="evenodd" d="M4 5C4 3.34315 5.34315 2 7 2H17C18.6569 2 20 3.34315 20 5V19C20 20.6569 18.6569 22 17 22H7C5.34315 22 4 20.6569 4 19V5ZM7 4C6.44772 4 6 4.44772 6 5V19C6 19.5523 6.44772 20 7 20H17C17.5523 20 18 19.5523 18 19V5C18 4.44772 17.5523 4 17 4H7Z" clip-rule="evenodd"/><path class="fn-svg-icon" fill-rule="evenodd" d="M8 7C8 6.44772 8.44772 6 9 6H15C15.5523 6 16 6.44772 16 7 16 7.55228 15.5523 8 15 8H9C8.44772 8 8 7.55228 8 7ZM8 14C8 11.7909 9.79086 10 12 10 14.2091 10 16 11.7909 16 14 16 16.2091 14.2091 18 12 18 9.79086 18 8 16.2091 8 14ZM12 12C10.8954 12 10 12.8954 10 14 10 15.1046 10.8954 16 12 16 13.1046 16 14 15.1046 14 14 14 12.8954 13.1046 12 12 12Z" clip-rule="evenodd"/><path class="fn-svg-icon" fill-rule="evenodd" d="M9.87868 16.1213C11.0503 17.2929 12.9497 17.2929 14.1213 16.1213C15.2929 14.9497 15.2929 13.0503 14.1213 11.8787L9.87868 16.1213Z" clip-rule="evenodd"/></svg>
