<svg xmlns="http://www.w3.org/2000/svg" viewBox="0 0 24 24"><path class="fn-svg-icon" fill-rule="evenodd" d="M10.2929 2.29289C10.4804 2.10536 10.7348 2 11 2H19C19.2652 2 19.5196 2.10536 19.7071 2.29289C19.8946 2.48043 20 2.73478 20 3V21C20 21.5523 19.5523 22 19 22H5C4.44772 22 4 21.5523 4 21V9C4 8.73478 4.10536 8.48043 4.29289 8.29289L10.2929 2.29289ZM11.4142 4L6 9.41421V20H18V4H11.4142Z" clip-rule="evenodd"/><path class="fn-svg-icon" fill-rule="evenodd" d="M13.5 15C14.3284 15 15 14.3284 15 13.5 15 12.6716 14.3284 12 13.5 12 12.6716 12 12 12.6716 12 13.5 12 14.3284 12.6716 15 13.5 15ZM8.4453 15.1679C8.8869 14.8736 9.48156 14.9754 9.8 15.4L12.2324 18.6432 14.4453 17.1679C14.8419 16.9035 15.37 16.9558 15.7071 17.2929L18.7071 20.2929C18.9931 20.5789 19.0787 21.009 18.9239 21.3827 18.7691 21.7564 18.4045 22 18 22H6C5.44772 22 5 21.5523 5 21V18C5 17.6656 5.1671 17.3534 5.4453 17.1679L8.4453 15.1679ZM6 9H9C10.1046 9 11 8.10457 11 7V4" clip-rule="evenodd"/></svg>
