<svg xmlns="http://www.w3.org/2000/svg" viewBox="0 0 24 24"><path class="fn-svg-icon" fill-rule="evenodd" d="M17.2929 17.2929C17.6834 16.9024 18.3166 16.9024 18.7071 17.2929L21.7071 20.2929C22.0976 20.6834 22.0976 21.3166 21.7071 21.7071 21.3166 22.0976 20.6834 22.0976 20.2929 21.7071L17.2929 18.7071C16.9024 18.3166 16.9024 17.6834 17.2929 17.2929ZM2.29289 2.29289C2.68342 1.90237 3.31658 1.90237 3.70711 2.29289L6.70711 5.29289C7.09763 5.68342 7.09763 6.31658 6.70711 6.70711 6.31658 7.09763 5.68342 7.09763 5.29289 6.70711L2.29289 3.70711C1.90237 3.31658 1.90237 2.68342 2.29289 2.29289ZM8.29289 10.2929C8.68342 9.90237 9.31658 9.90237 9.70711 10.2929L11.7071 12.2929C12.0976 12.6834 12.0976 13.3166 11.7071 13.7071 11.3166 14.0976 10.6834 14.0976 10.2929 13.7071L8.29289 11.7071C7.90237 11.3166 7.90237 10.6834 8.29289 10.2929ZM10.2929 8.29289C10.6834 7.90237 11.3166 7.90237 11.7071 8.29289L13.7071 10.2929C14.0976 10.6834 14.0976 11.3166 13.7071 11.7071 13.3166 12.0976 12.6834 12.0976 12.2929 11.7071L10.2929 9.70711C9.90237 9.31658 9.90237 8.68342 10.2929 8.29289Z" clip-rule="evenodd"/><path class="fn-svg-icon" fill-rule="evenodd" d="M6.17157 5.41421C7.73367 3.85212 10.2663 3.85212 11.8284 5.41421L12.7071 6.29289C12.8946 6.48043 13 6.73478 13 7 13 7.26522 12.8946 7.51957 12.7071 7.70711L7.70711 12.7071C7.51957 12.8946 7.26522 13 7 13 6.73478 13 6.48043 12.8946 6.29289 12.7071L5.41421 11.8284C3.85212 10.2663 3.85211 7.73367 5.41421 6.17158L6.17157 5.41421ZM10.4142 6.82843C9.63317 6.04738 8.36683 6.04738 7.58579 6.82843L6.82842 7.58579C6.04738 8.36684 6.04738 9.63316 6.82843 10.4142L7 10.5858 10.5858 7 10.4142 6.82843ZM16.2929 11.2929C16.6834 10.9024 17.3166 10.9024 17.7071 11.2929L18.5858 12.1716C20.1479 13.7337 20.1479 16.2663 18.5858 17.8284L17.8284 18.5858C16.2663 20.1479 13.7337 20.1479 12.1716 18.5858L11.2929 17.7071C10.9024 17.3166 10.9024 16.6834 11.2929 16.2929L16.2929 11.2929ZM13.4142 17 13.5858 17.1716C14.3668 17.9526 15.6332 17.9526 16.4142 17.1716L17.1716 16.4142C17.9526 15.6332 17.9526 14.3668 17.1716 13.5858L17 13.4142 13.4142 17Z" clip-rule="evenodd"/></svg>
