<svg xmlns="http://www.w3.org/2000/svg" viewBox="0 0 24 24"><path class="fn-svg-icon" fill-rule="evenodd" d="M9.00002 18C9.00002 17.4477 9.44773 17 10 17H14C14.5523 17 15 17.4477 15 18C15 19.6569 13.6569 21 12 21C10.3432 21 9.00002 19.6569 9.00002 18Z" clip-rule="evenodd"/><path class="fn-svg-icon" fill-rule="evenodd" d="M7.96719 6.91183C7.24126 8.05337 7.00002 9.57952 7.00002 11V13C7.00002 14.6535 6.47147 16.029 5.93601 17H18.0633C17.5279 16.0292 17 14.6542 17 13V11C17 9.57202 16.7586 8.04644 16.0331 6.90713C15.3553 5.84249 14.1853 5 12 5C9.81615 5 8.64576 5.84479 7.96719 6.91183ZM20 18C20.7067 17.2925 20.707 17.2928 20.7072 17.293L20.7085 17.2942L20.7013 17.2868C20.6925 17.2776 20.6771 17.2611 20.6559 17.2377C20.6134 17.1907 20.5484 17.1162 20.4682 17.016C20.3072 16.8149 20.0881 16.5143 19.8682 16.1296C19.4261 15.3561 19 14.2774 19 13V11C19 9.41473 18.7437 7.44031 17.7202 5.83294C16.6492 4.15089 14.8191 3 12 3C9.17948 3 7.34987 4.1555 6.27954 5.8386C5.25658 7.44721 5.00002 9.42106 5.00002 11V13C5.00002 14.2756 4.57405 15.3543 4.13173 16.1285C3.91177 16.5135 3.69257 16.8145 3.53152 17.0159C3.45124 17.1163 3.38615 17.191 3.34368 17.2381C3.32247 17.2616 3.30698 17.2781 3.29814 17.2873L3.29004 17.2958M3.29004 17.2958C3.28962 17.2962 3.28962 17.2962 3.29004 17.2958L3.29175 17.2941C3.29199 17.2938 3.29269 17.2931 4.00002 18L3.29269 17.2931M3.29004 17.2958C3.00634 17.5818 2.92187 18.0104 3.07619 18.3828C3.23101 18.7564 3.59561 19 4.00002 19H20C20.4046 19 20.7693 18.7562 20.924 18.3824C21.0782 18.0098 20.9935 17.5811 20.7094 17.2951C20.7085 17.2943 20.7081 17.2939 20.7072 17.293L20 18" clip-rule="evenodd"/></svg>
