<svg xmlns="http://www.w3.org/2000/svg" viewBox="0 0 24 24"><path class="fn-svg-icon" fill-rule="evenodd" d="M5 5C5 4.44772 5.44772 4 6 4H12C16.9706 4 21 8.02944 21 13C21 17.9706 16.9706 22 12 22C7.02944 22 3 17.9706 3 13C3 12.4477 3.44772 12 4 12C4.55228 12 5 12.4477 5 13C5 16.866 8.13401 20 12 20C15.866 20 19 16.866 19 13C19 9.13401 15.866 6 12 6H6C5.44772 6 5 5.55228 5 5Z" clip-rule="evenodd"/><path class="fn-svg-icon" fill-rule="evenodd" d="M7.70711 1.29289C8.09763 1.68342 8.09763 2.31658 7.70711 2.70711L5.41421 5 7.70711 7.29289C8.09763 7.68342 8.09763 8.31658 7.70711 8.70711 7.31658 9.09763 6.68342 9.09763 6.29289 8.70711L3.29289 5.70711C2.90237 5.31658 2.90237 4.68342 3.29289 4.29289L6.29289 1.29289C6.68342.902369 7.31658.902369 7.70711 1.29289ZM10.5528 9.10557C10.8916 8.93618 11.297 8.97274 11.6 9.2L15.6 12.2C15.8518 12.3889 16 12.6852 16 13 16 13.3148 15.8518 13.6111 15.6 13.8L11.6 16.8C11.297 17.0273 10.8916 17.0638 10.5528 16.8944 10.214 16.725 10 16.3788 10 16V10C10 9.62123 10.214 9.27496 10.5528 9.10557Z" clip-rule="evenodd"/></svg>
