<svg xmlns="http://www.w3.org/2000/svg" viewBox="0 0 24 24"><path class="fn-svg-icon" fill-rule="evenodd" d="M3 6C3 4.34315 4.34315 3 6 3H11.1716C11.9672 3 12.7303 3.31607 13.2929 3.87868L20.2929 10.8787C21.4645 12.0503 21.4645 13.9497 20.2929 15.1213L15.1213 20.2929C13.9497 21.4645 12.0503 21.4645 10.8787 20.2929L3.87868 13.2929C3.31607 12.7303 3 11.9672 3 11.1716V6ZM6 5C5.44772 5 5 5.44772 5 6V11.1716C5 11.4368 5.10536 11.6911 5.29289 11.8787L12.2929 18.8787C12.6834 19.2692 13.3166 19.2692 13.7071 18.8787L18.8787 13.7071C19.2692 13.3166 19.2692 12.6834 18.8787 12.2929L11.8787 5.29289C11.6911 5.10536 11.4368 5 11.1716 5H6Z" clip-rule="evenodd"/><path class="fn-svg-icon" fill-rule="evenodd" d="M8.5 10C9.32843 10 10 9.32843 10 8.5C10 7.67157 9.32843 7 8.5 7C7.67157 7 7 7.67157 7 8.5C7 9.32843 7.67157 10 8.5 10Z" clip-rule="evenodd"/></svg>
