<svg xmlns="http://www.w3.org/2000/svg" viewBox="0 0 24 24"><path class="fn-svg-icon" fill-rule="evenodd" d="M17 4C17 3.44772 17.4477 3 18 3 19.6569 3 21 4.34315 21 6 21 6.55228 20.5523 7 20 7 19.4477 7 19 6.55228 19 6 19 5.44772 18.5523 5 18 5 17.4477 5 17 4.55228 17 4ZM20 17C20.5523 17 21 17.4477 21 18 21 19.6569 19.6569 21 18 21 17.4477 21 17 20.5523 17 20 17 19.4477 17.4477 19 18 19 18.5523 19 19 18.5523 19 18 19 17.4477 19.4477 17 20 17ZM4 17C4.55228 17 5 17.4477 5 18 5 18.5523 5.44772 19 6 19 6.55228 19 7 19.4477 7 20 7 20.5523 6.55228 21 6 21 4.34315 21 3 19.6569 3 18 3 17.4477 3.44772 17 4 17ZM6 5C5.44772 5 5 5.44772 5 6 5 6.55228 4.55228 7 4 7 3.44772 7 3 6.55228 3 6 3 4.34315 4.34315 3 6 3 6.55228 3 7 3.44772 7 4 7 4.55228 6.55228 5 6 5ZM9 4C9 3.44772 9.44772 3 10 3H14C14.5523 3 15 3.44772 15 4 15 4.55228 14.5523 5 14 5H10C9.44772 5 9 4.55228 9 4ZM9 20C9 19.4477 9.44772 19 10 19H14C14.5523 19 15 19.4477 15 20 15 20.5523 14.5523 21 14 21H10C9.44772 21 9 20.5523 9 20ZM4 9C4.55228 9 5 9.44772 5 10V14C5 14.5523 4.55228 15 4 15 3.44772 15 3 14.5523 3 14V10C3 9.44772 3.44772 9 4 9ZM20 9C20.5523 9 21 9.44772 21 10V14C21 14.5523 20.5523 15 20 15 19.4477 15 19 14.5523 19 14V10C19 9.44772 19.4477 9 20 9Z" clip-rule="evenodd"/></svg>
