<svg xmlns="http://www.w3.org/2000/svg" viewBox="0 0 24 24"><path class="fn-svg-icon" fill-rule="evenodd" d="M10.2929 2.29289C10.4804 2.10536 10.7348 2 11 2H19C19.5523 2 20 2.44772 20 3V6C20 6.55228 19.5523 7 19 7C18.4477 7 18 6.55228 18 6V4H11.4142L6 9.41421V21C6 21.5523 5.55228 22 5 22C4.44772 22 4 21.5523 4 21V9C4 8.73478 4.10536 8.48043 4.29289 8.29289L10.2929 2.29289Z" clip-rule="evenodd"/><path class="fn-svg-icon" fill-rule="evenodd" d="M15.7071 9.29289C16.0976 9.68342 16.0976 10.3166 15.7071 10.7071L11.7071 14.7071C11.3166 15.0976 10.6834 15.0976 10.2929 14.7071L8.29289 12.7071C7.90237 12.3166 7.90237 11.6834 8.29289 11.2929 8.68342 10.9024 9.31658 10.9024 9.70711 11.2929L11 12.5858 14.2929 9.29289C14.6834 8.90237 15.3166 8.90237 15.7071 9.29289ZM16 13C16 12.4477 16.4477 12 17 12H20C20.5523 12 21 12.4477 21 13 21 13.5523 20.5523 14 20 14H17C16.4477 14 16 13.5523 16 13ZM16 19C16 18.4477 16.4477 18 17 18H20C20.5523 18 21 18.4477 21 19 21 19.5523 20.5523 20 20 20H17C16.4477 20 16 19.5523 16 19ZM8.29289 16.2929C8.68342 15.9024 9.31658 15.9024 9.70711 16.2929L13.7071 20.2929C14.0976 20.6834 14.0976 21.3166 13.7071 21.7071 13.3166 22.0976 12.6834 22.0976 12.2929 21.7071L8.29289 17.7071C7.90237 17.3166 7.90237 16.6834 8.29289 16.2929Z" clip-rule="evenodd"/><path class="fn-svg-icon" fill-rule="evenodd" d="M13.7071 16.2929C14.0976 16.6834 14.0976 17.3166 13.7071 17.7071L9.70711 21.7071C9.31658 22.0976 8.68342 22.0976 8.29289 21.7071 7.90237 21.3166 7.90237 20.6834 8.29289 20.2929L12.2929 16.2929C12.6834 15.9024 13.3166 15.9024 13.7071 16.2929ZM6 9H9C10.1046 9 11 8.10457 11 7V4" clip-rule="evenodd"/></svg>
