<svg xmlns="http://www.w3.org/2000/svg" viewBox="0 0 24 24"><path class="fn-svg-icon" fill-rule="evenodd" d="M10.3826 5.07612C10.7563 5.23089 11 5.59554 11 6.00003V9.00345H12.2C17.0601 9.00345 21 12.9433 21 17.8034V18.0034C21 18.3879 20.7796 18.7384 20.433 18.9048C20.0864 19.0713 19.6751 19.0244 19.375 18.7841L16.5694 16.5377C15.3266 15.5426 13.7816 15.0009 12.1895 15.002L11 15.0028V18.0034C11 18.4079 10.7563 18.7726 10.3826 18.9274C10.0089 19.0821 9.57877 18.9965 9.29279 18.7105L3.29279 12.7087C2.9024 12.3182 2.9024 11.6852 3.29279 11.2947L9.29279 5.29302C9.57877 5.00697 10.0089 4.92136 10.3826 5.07612ZM5.41401 12.0017L9 15.5887V14.0034C9 13.4514 9.4473 13.0038 9.99932 13.0034L12.1881 13.002C14.2352 13.0006 16.2215 13.697 17.8195 14.9765L18.6488 15.6405C17.7452 12.9454 15.1994 11.0034 12.2 11.0034H10C9.44772 11.0034 9 10.5557 9 10.0034V8.41473L5.41401 12.0017Z" clip-rule="evenodd"/></svg>
