<svg xmlns="http://www.w3.org/2000/svg" viewBox="0 0 24 24"><path class="fn-svg-icon" fill-rule="evenodd" d="M12.8944 7.55279L11.9999 8C12.8944 7.55279 12.8945 7.55311 12.8944 7.55279L12.9057 7.57433C12.917 7.59551 12.9358 7.62994 12.9619 7.67574C13.0144 7.76747 13.0961 7.90397 13.207 8.0703C13.4299 8.40465 13.7643 8.8501 14.2071 9.29289C15.0981 10.1839 16.3587 11 17.9999 11C18.5522 11 18.9999 11.4477 18.9999 12C18.9999 12.5523 18.5522 13 17.9999 13C15.6412 13 13.9018 11.8161 12.7928 10.7071C12.7023 10.6166 12.6155 10.5261 12.5325 10.4363M12.0855 12.6712L14.7069 15.2915C14.8945 15.4791 14.9999 15.7335 14.9999 15.9988V22C14.9999 22.5523 14.5522 23 13.9999 23C13.4477 23 12.9999 22.5523 12.9999 22V16.4131L10.293 13.7073C10.0565 13.4708 9.95378 13.1318 10.0194 12.8039L11.0194 7.80388C11.1031 7.38498 11.4438 7.06555 11.8672 7.00885C12.2897 6.95227 12.7015 7.16971 12.8931 7.55022C12.8935 7.55108 12.8939 7.55193 12.8944 7.55279" clip-rule="evenodd"/><path class="fn-svg-icon" fill-rule="evenodd" d="M12.7071 7.29289C12.9435 7.52932 13.0461 7.86826 12.9805 8.19612L11.9805 13.1961C11.9685 13.256 11.9511 13.3147 11.9284 13.3715L9.92839 18.3702C9.74937 18.8177 9.27666 19.0738 8.80406 18.9794L3.80406 17.9806C3.26248 17.8724 2.91114 17.3457 3.01932 16.8041 3.12751 16.2625 3.65425 15.9112 4.19583 16.0194L8.3804 16.8553 10.0374 12.7138 10.7252 9.27476 7.99995 9.8198V12C7.99995 12.5523 7.55223 13 6.99995 13 6.44766 13 5.99995 12.5523 5.99995 12V9C5.99995 8.52332 6.33641 8.1129 6.80383 8.01942L11.8038 7.01942C12.1317 6.95385 12.4706 7.05647 12.7071 7.29289ZM13.4999 5.5C14.6045 5.5 15.4999 4.60457 15.4999 3.5 15.4999 2.39543 14.6045 1.5 13.4999 1.5 12.3954 1.5 11.4999 2.39543 11.4999 3.5 11.4999 4.60457 12.3954 5.5 13.4999 5.5Z" clip-rule="evenodd"/></svg>
