<svg xmlns="http://www.w3.org/2000/svg" viewBox="0 0 24 24"><path class="fn-svg-icon" fill-rule="evenodd" d="M10.4719 7.11833C10.797 7.29235 11 7.63121 11 8V16C11 16.3688 10.797 16.7077 10.4719 16.8817 10.1467 17.0557 9.75216 17.0366 9.4453 16.8321L3.4453 12.8321C3.1671 12.6466 3 12.3344 3 12 3 11.6656 3.1671 11.3534 3.4453 11.168L9.4453 7.16795C9.75216 6.96338 10.1467 6.94431 10.4719 7.11833ZM5.80278 12 9 14.1315V9.86852L5.80278 12ZM19.4719 7.11833C19.797 7.29235 20 7.63121 20 8V16C20 16.3688 19.797 16.7077 19.4719 16.8817 19.1467 17.0557 18.7522 17.0366 18.4453 16.8321L12.4453 12.8321C12.1671 12.6466 12 12.3344 12 12 12 11.6656 12.1671 11.3534 12.4453 11.168L18.4453 7.16795C18.7522 6.96338 19.1467 6.94431 19.4719 7.11833ZM14.8028 12 18 14.1315V9.86852L14.8028 12Z" clip-rule="evenodd"/></svg>
