<svg xmlns="http://www.w3.org/2000/svg" viewBox="0 0 24 24"><path class="fn-svg-icon" fill-rule="evenodd" d="M20.7071 3.29292C20.988 3.57385 21.076 3.99445 20.9312 4.36443L14.6704 20.3644C14.5209 20.7465 14.1532 20.9985 13.7429 21C13.3326 21.0016 12.963 20.7524 12.8107 20.3714L10.1872 13.8128L3.62861 11.1894C3.24768 11.037 2.99846 10.6674 3.00001 10.2571C3.00155 9.84687 3.25353 9.47916 3.6356 9.32966L19.6356 3.06879C20.0056 2.92401 20.4262 3.01199 20.7071 3.29292ZM6.71813 10.2711L11.3279 12.115C11.582 12.2167 11.7834 12.418 11.885 12.6721L13.7289 17.2819L18.2358 5.76418L6.71813 10.2711Z" clip-rule="evenodd"/></svg>
