<svg xmlns="http://www.w3.org/2000/svg" viewBox="0 0 24 24"><path class="fn-svg-icon" fill-rule="evenodd" d="M2.56791 8.67062C3.93914 4.78597 7.64293 2 12 2C17.5228 2 22 6.47715 22 12C22 17.5228 17.5228 22 12 22C9.03944 22 6.37834 20.7122 4.54876 18.6694C4.1803 18.258 4.21511 17.6258 4.62652 17.2573C5.03792 16.8889 5.67013 16.9237 6.03859 17.3351C7.50482 18.9722 9.63172 20 12 20C16.4183 20 20 16.4183 20 12C20 7.58172 16.4183 4 12 4C8.51716 4 5.5517 6.2262 4.45387 9.33633C4.27004 9.85712 3.69882 10.1303 3.17803 9.94645C2.65724 9.76262 2.38408 9.19141 2.56791 8.67062Z" clip-rule="evenodd"/><path class="fn-svg-icon" fill-rule="evenodd" d="M5.93947 8.49516C7.14887 6.40773 9.40945 5 12 5C15.866 5 19 8.13401 19 12C19 15.866 15.866 19 12 19C11.4477 19 11 18.5523 11 18C11 17.4477 11.4477 17 12 17C14.7614 17 17 14.7614 17 12C17 9.23858 14.7614 7 12 7C10.1518 7 8.53645 8.0023 7.67 9.49779C7.39313 9.97566 6.78129 10.1386 6.30342 9.86174C5.82555 9.58487 5.6626 8.97303 5.93947 8.49516Z" clip-rule="evenodd"/><path class="fn-svg-icon" fill-rule="evenodd" d="M12 13.5C12.8284 13.5 13.5 12.8284 13.5 12 13.5 11.1716 12.8284 10.5 12 10.5 11.1716 10.5 10.5 11.1716 10.5 12 10.5 12.8284 11.1716 13.5 12 13.5ZM2 15C2 14.4477 2.44772 14 3 14H12C12.5523 14 13 14.4477 13 15 13 15.5523 12.5523 16 12 16H3C2.44772 16 2 15.5523 2 15ZM2 12C2 11.4477 2.44772 11 3 11H9C9.55228 11 10 11.4477 10 12 10 12.5523 9.55228 13 9 13H3C2.44772 13 2 12.5523 2 12Z" clip-rule="evenodd"/></svg>
