<svg xmlns="http://www.w3.org/2000/svg" viewBox="0 0 24 24"><path class="fn-svg-icon" fill-rule="evenodd" d="M1 6C1 4.34315 2.34315 3 4 3H20C21.6569 3 23 4.34315 23 6V18C23 19.6569 21.6569 21 20 21H4C2.34315 21 1 19.6569 1 18V6ZM4 5C3.44772 5 3 5.44772 3 6V18C3 18.5523 3.44772 19 4 19H20C20.5523 19 21 18.5523 21 18V6C21 5.44772 20.5523 5 20 5H4Z" clip-rule="evenodd"/><path class="fn-svg-icon" fill-rule="evenodd" d="M7.52573 6.14935C7.82055 6.33156 8 6.65342 8 7V13C8 13.5523 7.55228 14 7 14 6.44772 14 6 13.5523 6 13V8.61803L5.44721 8.89443C4.95324 9.14142 4.35256 8.94119 4.10557 8.44721 3.85858 7.95324 4.05881 7.35256 4.55279 7.10557L6.55279 6.10557C6.86277 5.95058 7.23091 5.96714 7.52573 6.14935ZM1 16C1 15.4477 1.44772 15 2 15H22C22.5523 15 23 15.4477 23 16 23 16.5523 22.5523 17 22 17H2C1.44772 17 1 16.5523 1 16ZM13 19C13 18.4477 13.4477 18 14 18H18C18.5523 18 19 18.4477 19 19 19 19.5523 18.5523 20 18 20H14C13.4477 20 13 19.5523 13 19ZM14.7071 9.29289C15.0976 9.68342 15.0976 10.3166 14.7071 10.7071L11.7071 13.7071C11.3166 14.0976 10.6834 14.0976 10.2929 13.7071 9.90237 13.3166 9.90237 12.6834 10.2929 12.2929L13.2929 9.29289C13.6834 8.90237 14.3166 8.90237 14.7071 9.29289Z" clip-rule="evenodd"/><path class="fn-svg-icon" fill-rule="evenodd" d="M10.2929 9.29289C10.6834 8.90237 11.3166 8.90237 11.7071 9.29289L14.7071 12.2929C15.0976 12.6834 15.0976 13.3166 14.7071 13.7071 14.3166 14.0976 13.6834 14.0976 13.2929 13.7071L10.2929 10.7071C9.90237 10.3166 9.90237 9.68342 10.2929 9.29289ZM18.5257 6.14935C18.8205 6.33156 19 6.65342 19 7V13C19 13.5523 18.5523 14 18 14 17.4477 14 17 13.5523 17 13V8.61803L16.4472 8.89443C15.9532 9.14142 15.3526 8.94119 15.1056 8.44721 14.8586 7.95324 15.0588 7.35256 15.5528 7.10557L17.5528 6.10557C17.8628 5.95058 18.2309 5.96714 18.5257 6.14935Z" clip-rule="evenodd"/></svg>
