<svg xmlns="http://www.w3.org/2000/svg" viewBox="0 0 24 24"><path class="fn-svg-icon" fill-rule="evenodd" d="M2 8C2 4.68629 4.68629 2 8 2C11.3137 2 14 4.68629 14 8V9.58579L21.7071 17.2929C21.8946 17.4804 22 17.7348 22 18V21C22 21.5523 21.5523 22 21 22H18C17.7348 22 17.4804 21.8946 17.2929 21.7071L16.5858 21H15C14.4477 21 14 20.5523 14 20V19H13C12.4477 19 12 18.5523 12 18V17H11C10.4477 17 10 16.5523 10 16V14.4142L9.58579 14H8C4.68629 14 2 11.3137 2 8ZM16 19H17C17.2652 19 17.5196 19.1054 17.7071 19.2929L18.4142 20H20V18.4142L12.2929 10.7071C12.1054 10.5196 12 10.2652 12 10V8C12 5.79086 10.2091 4 8 4C5.79086 4 4 5.79086 4 8C4 10.2091 5.79086 12 8 12H10C10.2652 12 10.5196 12.1054 10.7071 12.2929L11.7071 13.2929C11.8946 13.4804 12 13.7348 12 14V15H13C13.5523 15 14 15.4477 14 16V17H15C15.5523 17 16 17.4477 16 18V19Z" clip-rule="evenodd"/><path class="fn-svg-icon" fill-rule="evenodd" d="M8 10C9.10457 10 10 9.10457 10 8C10 6.89543 9.10457 6 8 6C6.89543 6 6 6.89543 6 8C6 9.10457 6.89543 10 8 10Z" clip-rule="evenodd"/></svg>
