<svg xmlns="http://www.w3.org/2000/svg" viewBox="0 0 24 24"><path class="fn-svg-icon" fill-rule="evenodd" d="M2 13C2 11.8954 2.89543 11 4 11H20C21.1046 11 22 11.8954 22 13V19C22 20.1046 21.1046 21 20 21H4C2.89543 21 2 20.1046 2 19V13ZM20 13H4V19H20V13Z" clip-rule="evenodd"/><path class="fn-svg-icon" fill-rule="evenodd" d="M2 16C2 15.4477 2.44772 15 3 15H21C21.5523 15 22 15.4477 22 16C22 16.5523 21.5523 17 21 17H3C2.44772 17 2 16.5523 2 16Z" clip-rule="evenodd"/><path class="fn-svg-icon" fill-rule="evenodd" d="M9 11C9.55228 11 10 11.4477 10 12V20C10 20.5523 9.55228 21 9 21 8.44772 21 8 20.5523 8 20V12C8 11.4477 8.44772 11 9 11ZM15 11C15.5523 11 16 11.4477 16 12V20C16 20.5523 15.5523 21 15 21 14.4477 21 14 20.5523 14 20V12C14 11.4477 14.4477 11 15 11ZM6 4C6 3.44772 6.44772 3 7 3H21C21.5523 3 22 3.44772 22 4 22 4.55228 21.5523 5 21 5H7C6.44772 5 6 4.55228 6 4ZM6 8C6 7.44772 6.44772 7 7 7H15C15.5523 7 16 7.44772 16 8 16 8.55228 15.5523 9 15 9H7C6.44772 9 6 8.55228 6 8ZM3 3C3.55228 3 4 3.44772 4 4V8C4 8.55228 3.55228 9 3 9 2.44772 9 2 8.55228 2 8V4C2 3.44772 2.44772 3 3 3Z" clip-rule="evenodd"/></svg>
