<svg xmlns="http://www.w3.org/2000/svg" viewBox="0 0 24 24"><path class="fn-svg-icon" fill-rule="evenodd" d="M8 4C8 2.89543 8.89543 2 10 2H14C15.1046 2 16 2.89543 16 4V6C16 7.10457 15.1046 8 14 8H10C8.89543 8 8 7.10457 8 6V4ZM14 4H10V6H14V4ZM8 11C8 10.4477 8.44772 10 9 10H15C15.5523 10 16 10.4477 16 11 16 11.5523 15.5523 12 15 12H9C8.44772 12 8 11.5523 8 11Z" clip-rule="evenodd"/><path class="fn-svg-icon" fill-rule="evenodd" d="M14 5C14 4.44772 14.4477 4 15 4H17C18.6569 4 20 5.34315 20 7V19.2C20 20.7464 18.7464 22 17.2 22H17C16.4477 22 16 21.5523 16 21 16 20.4477 16.4477 20 17 20H17.2C17.6418 20 18 19.6418 18 19.2V7C18 6.44772 17.5523 6 17 6H15C14.4477 6 14 5.55228 14 5ZM4 7C4 5.34315 5.34315 4 7 4H9C9.55228 4 10 4.44772 10 5 10 5.55228 9.55228 6 9 6H7C6.44772 6 6 6.44772 6 7V19.2C6 19.6418 6.35817 20 6.8 20H7C7.55228 20 8 20.4477 8 21 8 21.5523 7.55228 22 7 22H6.8C5.2536 22 4 20.7464 4 19.2V7Z" clip-rule="evenodd"/><path class="fn-svg-icon" fill-rule="evenodd" d="M8 14C8 13.4477 8.44772 13 9 13H15C15.5523 13 16 13.4477 16 14 16 14.5523 15.5523 15 15 15H9C8.44772 15 8 14.5523 8 14ZM8.29289 17.2929C8.68342 16.9024 9.31658 16.9024 9.70711 17.2929L12 19.5858 14.2929 17.2929C14.6834 16.9024 15.3166 16.9024 15.7071 17.2929 16.0976 17.6834 16.0976 18.3166 15.7071 18.7071L12.7071 21.7071C12.3166 22.0976 11.6834 22.0976 11.2929 21.7071L8.29289 18.7071C7.90237 18.3166 7.90237 17.6834 8.29289 17.2929Z" clip-rule="evenodd"/></svg>
