<svg xmlns="http://www.w3.org/2000/svg" viewBox="0 0 24 24"><path class="fn-svg-icon" fill-rule="evenodd" d="M20.7071 3.29289C21.0976 3.68342 21.0976 4.31658 20.7071 4.70711L9.70711 15.7071C9.31658 16.0976 8.68342 16.0976 8.29289 15.7071C7.90237 15.3166 7.90237 14.6834 8.29289 14.2929L19.2929 3.29289C19.6834 2.90237 20.3166 2.90237 20.7071 3.29289Z" clip-rule="evenodd"/><path class="fn-svg-icon" fill-rule="evenodd" d="M6 5C5.44772 5 5 5.44772 5 6V18C5 18.5523 5.44772 19 6 19H18.0037C18.5559 19 19.0037 18.5523 19.0037 18V14C19.0037 13.4477 19.4514 13 20.0037 13 20.5559 13 21.0037 13.4477 21.0037 14V18C21.0037 19.6569 19.6605 21 18.0037 21H6C4.34315 21 3 19.6569 3 18V6C3 4.34315 4.34315 3 6 3H10.0037C10.5559 3 11.0037 3.44772 11.0037 4 11.0037 4.55228 10.5559 5 10.0037 5H6ZM14 4C14 3.44772 14.4477 3 15 3H20C20.5523 3 21 3.44772 21 4V9C21 9.55228 20.5523 10 20 10 19.4477 10 19 9.55228 19 9V5H15C14.4477 5 14 4.55228 14 4Z" clip-rule="evenodd"/></svg>
