<svg xmlns="http://www.w3.org/2000/svg" viewBox="0 0 24 24"><path class="fn-svg-icon" fill-rule="evenodd" d="M19.7071 4.29289C20.0976 4.68342 20.0976 5.31658 19.7071 5.70711L9.70711 15.7071C9.31658 16.0976 8.68342 16.0976 8.29289 15.7071C7.90237 15.3166 7.90237 14.6834 8.29289 14.2929L18.2929 4.29289C18.6834 3.90237 19.3166 3.90237 19.7071 4.29289Z" clip-rule="evenodd"/><path class="fn-svg-icon" fill-rule="evenodd" d="M6 5C5.44772 5 5 5.44772 5 6V18C5 18.5523 5.44772 19 6 19H18.0037C18.5559 19 19.0037 18.5523 19.0037 18V10C19.0037 9.44772 19.4514 9 20.0037 9C20.5559 9 21.0037 9.44772 21.0037 10V18C21.0037 19.6569 19.6605 21 18.0037 21H6C4.34315 21 3 19.6569 3 18V6C3 4.34315 4.34315 3 6 3H14.0037C14.5559 3 15.0037 3.44772 15.0037 4C15.0037 4.55228 14.5559 5 14.0037 5H6Z" clip-rule="evenodd"/><path class="fn-svg-icon" fill-rule="evenodd" d="M8 10C8.55228 10 9 10.4477 9 11V15H13C13.5523 15 14 15.4477 14 16C14 16.5523 13.5523 17 13 17H8C7.73478 17 7.48043 16.8946 7.29289 16.7071C7.10536 16.5196 7 16.2652 7 16V11C7 10.4477 7.44772 10 8 10Z" clip-rule="evenodd"/></svg>
