<svg xmlns="http://www.w3.org/2000/svg" viewBox="0 0 24 24"><path class="fn-svg-icon" fill-rule="evenodd" d="M15.7071 4.29289C16.0977 4.68342 16.0977 5.31658 15.7071 5.70711L11.4376 9.9766C8.4768 12.9374 10.5738 18 14.761 18H15C15.5523 18 16 18.4477 16 19C16 19.5523 15.5523 20 15 20H14.761C8.79198 20 5.80266 12.7831 10.0234 8.56239L14.2929 4.29289C14.6834 3.90237 15.3166 3.90237 15.7071 4.29289Z" clip-rule="evenodd"/><path class="fn-svg-icon" fill-rule="evenodd" d="M9.00002 5C9.00002 4.44772 9.44774 4 10 4H15C15.5523 4 16 4.44772 16 5V10C16 10.5523 15.5523 11 15 11C14.4477 11 14 10.5523 14 10V6H10C9.44774 6 9.00002 5.55228 9.00002 5Z" clip-rule="evenodd"/></svg>
