<svg xmlns="http://www.w3.org/2000/svg" viewBox="0 0 24 24"><path class="fn-svg-icon" fill-rule="evenodd" d="M8 14C8 11.7909 9.79086 10 12 10C14.2091 10 16 11.7909 16 14C16 16.2091 14.2091 18 12 18C9.79086 18 8 16.2091 8 14ZM12 12C10.8954 12 10 12.8954 10 14C10 15.1046 10.8954 16 12 16C13.1046 16 14 15.1046 14 14C14 12.8954 13.1046 12 12 12Z" clip-rule="evenodd"/><path class="fn-svg-icon" fill-rule="evenodd" d="M14.2929 16.2929C14.6834 15.9024 15.3166 15.9024 15.7071 16.2929L18.7071 19.2929C19.0976 19.6834 19.0976 20.3166 18.7071 20.7071C18.3166 21.0976 17.6834 21.0976 17.2929 20.7071L14.2929 17.7071C13.9024 17.3166 13.9024 16.6834 14.2929 16.2929Z" clip-rule="evenodd"/><path class="fn-svg-icon" fill-rule="evenodd" d="M10.2929 2.29289C10.4804 2.10536 10.7348 2 11 2H19C19.5523 2 20 2.44772 20 3V15C20 15.5523 19.5523 16 19 16C18.4477 16 18 15.5523 18 15V4H11.4142L6 9.41421V20H13C13.5523 20 14 20.4477 14 21C14 21.5523 13.5523 22 13 22H5C4.44772 22 4 21.5523 4 21V9C4 8.73478 4.10536 8.48043 4.29289 8.29289L10.2929 2.29289Z" clip-rule="evenodd"/><path class="fn-svg-icon" fill-rule="evenodd" d="M6 9H9C10.1046 9 11 8.10457 11 7V4" clip-rule="evenodd"/></svg>
