<svg xmlns="http://www.w3.org/2000/svg" viewBox="0 0 24 24"><path class="fn-svg-icon" fill-rule="evenodd" d="M4.99998 5C4.44769 5 3.99998 5.44772 3.99998 6V11C3.99998 11.5523 3.55226 12 2.99998 12 2.44769 12 1.99998 11.5523 1.99998 11V6C1.99998 4.34315 3.34312 3 4.99998 3H19C20.6568 3 22 4.34315 22 6V11C22 11.5523 21.5523 12 21 12 20.4477 12 20 11.5523 20 11V6C20 5.44772 19.5523 5 19 5H4.99998ZM4.13047 18.3167C4.54704 18.1084 5.00638 18 5.47211 18H6.52784C6.99358 18 7.45291 18.1084 7.86948 18.3167L9.44719 19.1056C9.862 19.313 10.0798 19.7784 9.97322 20.2298 9.86667 20.6811 9.46375 21 8.99998 21H2.99998C2.5362 21 2.13328 20.6811 2.02673 20.2298 1.92017 19.7784 2.13795 19.313 2.55276 19.1056L4.13047 18.3167ZM5.99998 17C7.10455 17 7.99998 16.1046 7.99998 15 7.99998 13.8954 7.10455 13 5.99998 13 4.89541 13 3.99998 13.8954 3.99998 15 3.99998 16.1046 4.89541 17 5.99998 17ZM16.1305 18.3167C16.547 18.1084 17.0064 18 17.4721 18H18.5278C18.9936 18 19.4529 18.1084 19.8695 18.3167L21.4472 19.1056C21.862 19.313 22.0798 19.7784 21.9732 20.2298 21.8667 20.6811 21.4638 21 21 21H15C14.5362 21 14.1333 20.6811 14.0267 20.2298 13.9202 19.7784 14.1379 19.313 14.5528 19.1056L16.1305 18.3167ZM18 17C19.1045 17 20 16.1046 20 15 20 13.8954 19.1045 13 18 13 16.8954 13 16 13.8954 16 15 16 16.1046 16.8954 17 18 17Z" clip-rule="evenodd"/><path class="fn-svg-icon" fill-rule="evenodd" d="M6.99998 8C7.55226 8 7.99998 7.55228 7.99998 7 7.99998 6.44772 7.55226 6 6.99998 6 6.44769 6 5.99998 6.44772 5.99998 7 5.99998 7.55228 6.44769 8 6.99998 8ZM5.99998 11C6.55226 11 6.99998 10.5523 6.99998 10 6.99998 9.44772 6.55226 9 5.99998 9 5.44769 9 4.99998 9.44772 4.99998 10 4.99998 10.5523 5.44769 11 5.99998 11ZM18 11C18.5523 11 19 10.5523 19 10 19 9.44772 18.5523 9 18 9 17.4477 9 17 9.44772 17 10 17 10.5523 17.4477 11 18 11ZM17 8C17.5523 8 18 7.55228 18 7 18 6.44772 17.5523 6 17 6 16.4477 6 16 6.44772 16 7 16 7.55228 16.4477 8 17 8ZM7.99998 10C7.99998 7.79086 9.79084 6 12 6 14.2091 6 16 7.79086 16 10 16 11.0487 15.6363 11.7448 15.2046 12.3863 15.0975 12.5455 14.9901 12.6971 14.8821 12.8498 14.5637 13.2995 14.239 13.7579 13.8944 14.4472 13.725 14.786 13.3787 15 13 15H11C10.6212 15 10.2749 14.786 10.1055 14.4472 9.76453 13.7652 9.44623 13.3296 9.12898 12.8955 9.02022 12.7467 8.91157 12.598 8.80218 12.4397 8.35579 11.7934 7.99998 11.0971 7.99998 10ZM12 8C10.8954 8 9.99998 8.89543 9.99998 10 9.99998 10.5597 10.1442 10.8634 10.4478 11.303 10.5177 11.4042 10.6 11.5166 10.6916 11.6416 10.9446 11.987 11.2685 12.429 11.5973 13H12.4011C12.7257 12.4304 13.0448 11.9808 13.2974 11.6247 13.3899 11.4942 13.4736 11.3764 13.5453 11.2698 13.8637 10.7966 14 10.4927 14 10 14 8.89543 13.1045 8 12 8ZM9.99998 17C9.99998 16.4477 10.4477 16 11 16H13C13.5523 16 14 16.4477 14 17 14 17.5523 13.5523 18 13 18H11C10.4477 18 9.99998 17.5523 9.99998 17Z" clip-rule="evenodd"/></svg>
