<svg xmlns="http://www.w3.org/2000/svg" viewBox="0 0 24 24"><path class="fn-svg-icon" fill-rule="evenodd" d="M7.47487 4.64895C7.79942 4.44611 8.21129 4.4463 8.53565 4.64944L16.5315 9.65706C16.8234 9.8399 17.0007 10.1601 17.0007 10.5046V13.9981C17.0007 14.5504 16.553 14.9981 16.0007 14.9981 15.4484 14.9981 15.0007 14.5504 15.0007 13.9981V11.0582L8.00433 6.67654 5 8.55424V15.4457L12 19.8207 13.0635 19.1561C13.5318 18.8634 14.1488 19.0057 14.4415 19.4741 14.7342 19.9424 14.5918 20.5594 14.1235 20.8521L12.53 21.848C12.2057 22.0507 11.7943 22.0507 11.47 21.848L3.47 16.848C3.17762 16.6653 3 16.3448 3 16V8C3 7.65521 3.17762 7.33474 3.47 7.152L7.47487 4.64895ZM16 18C16 17.4477 16.4477 17 17 17H23C23.5523 17 24 17.4477 24 18 24 18.5523 23.5523 19 23 19H17C16.4477 19 16 18.5523 16 18Z" clip-rule="evenodd"/><path class="fn-svg-icon" fill-rule="evenodd" d="M20 14C20.5523 14 21 14.4477 21 15V21C21 21.5523 20.5523 22 20 22 19.4477 22 19 21.5523 19 21V15C19 14.4477 19.4477 14 20 14ZM11.152 2.47C11.4447 2.00166 12.0617 1.85929 12.53 2.152L20.53 7.152C20.8224 7.33474 21 7.65521 21 8V11C21 11.5523 20.5523 12 20 12 19.4477 12 19 11.5523 19 11V8.55424L11.47 3.84799C11.0017 3.55528 10.8593 2.93833 11.152 2.47ZM7.14796 13.9675C7.44067 13.4991 8.05762 13.3568 8.52596 13.6495L10.5347 14.9049C11.003 15.1976 11.1454 15.8146 10.8527 16.2829 10.56 16.7513 9.94302 16.8936 9.47469 16.6009L7.46596 15.3455C6.99763 15.0528 6.85525 14.4358 7.14796 13.9675Z" clip-rule="evenodd"/></svg>
