<svg xmlns="http://www.w3.org/2000/svg" viewBox="0 0 24 24"><path class="fn-svg-icon" fill-rule="evenodd" d="M2 12C2 6.47715 6.47715 2 12 2C17.5228 2 22 6.47715 22 12C22 17.5228 17.5228 22 12 22C6.47715 22 2 17.5228 2 12ZM12 4C7.58172 4 4 7.58172 4 12C4 16.4183 7.58172 20 12 20C16.4183 20 20 16.4183 20 12C20 7.58172 16.4183 4 12 4Z" clip-rule="evenodd"/><path class="fn-svg-icon" fill-rule="evenodd" d="M12 18C12.8284 18 13.5 17.3284 13.5 16.5 13.5 15.6716 12.8284 15 12 15 11.1716 15 10.5 15.6716 10.5 16.5 10.5 17.3284 11.1716 18 12 18ZM8 9.5C8 7.40403 9.96932 6 12 6 14.0307 6 16 7.40403 16 9.5 16 10.3462 15.7392 11.0284 15.3253 11.5691 14.9281 12.0878 14.4236 12.4321 14.0041 12.6769 13.815 12.7873 13.6265 12.8866 13.4679 12.9702 13.4503 12.9795 13.4329 12.9886 13.4161 12.9976 13.2361 13.0926 13.1076 13.1623 13.0069 13.2265 12.9924 13.2358 12.9795 13.2443 12.9679 13.2521 12.8562 13.6824 12.4652 14 12 14 11.4477 14 11 13.5523 11 13 11 12.1783 11.6348 11.7297 11.9306 11.5409 12.1112 11.4255 12.3108 11.3194 12.4824 11.2289 12.4994 11.2199 12.5162 11.211 12.533 11.2022 12.6963 11.1161 12.8464 11.0369 12.9959 10.9496 13.3264 10.7567 13.5719 10.5693 13.7372 10.3533 13.8858 10.1593 14 9.90378 14 9.5 14 8.83454 13.283 8 12 8 10.717 8 10 8.83454 10 9.5 10 10.0523 9.55228 10.5 9 10.5 8.44772 10.5 8 10.0523 8 9.5ZM12.8866 13.3154C12.8866 13.3154 12.8896 13.3114 12.8987 13.3036 12.8917 13.3115 12.8866 13.3154 12.8866 13.3154Z" clip-rule="evenodd"/></svg>
