<svg xmlns="http://www.w3.org/2000/svg" viewBox="0 0 24 24"><path class="fn-svg-icon" fill-rule="evenodd" d="M6 5C5.44772 5 5 5.44772 5 6V18C5 18.5523 5.44772 19 6 19H18C18.5523 19 19 18.5523 19 18V11C19 10.4477 19.4477 10 20 10 20.5523 10 21 10.4477 21 11V18C21 19.6569 19.6569 21 18 21H6C4.34315 21 3 19.6569 3 18V6C3 4.34315 4.34315 3 6 3H13C13.5523 3 14 3.44772 14 4 14 4.55228 13.5523 5 13 5H6ZM16 4C16 3.44772 16.4477 3 17 3H23C23.5523 3 24 3.44772 24 4 24 4.55228 23.5523 5 23 5H17C16.4477 5 16 4.55228 16 4Z" clip-rule="evenodd"/><path class="fn-svg-icon" fill-rule="evenodd" d="M20 0C20.5523 0 21 .447715 21 1V7C21 7.55228 20.5523 8 20 8 19.4477 8 19 7.55228 19 7V1C19 .447715 19.4477 0 20 0ZM7 15.8C7 14.2536 8.2536 13 9.8 13H14.2C15.7464 13 17 14.2536 17 15.8V16C17 16.5523 16.5523 17 16 17H8C7.44772 17 7 16.5523 7 16V15.8ZM12 11C13.1046 11 14 10.1046 14 9 14 7.89543 13.1046 7 12 7 10.8954 7 10 7.89543 10 9 10 10.1046 10.8954 11 12 11Z" clip-rule="evenodd"/></svg>
