<svg xmlns="http://www.w3.org/2000/svg" viewBox="0 0 24 24"><path class="fn-svg-icon" fill-rule="evenodd" d="M14 7.5C14.8284 7.5 15.5 6.82843 15.5 6 15.5 5.17157 14.8284 4.5 14 4.5 13.1716 4.5 12.5 5.17157 12.5 6 12.5 6.82843 13.1716 7.5 14 7.5ZM14 11.5C14.8284 11.5 15.5 10.8284 15.5 10 15.5 9.17157 14.8284 8.5 14 8.5 13.1716 8.5 12.5 9.17157 12.5 10 12.5 10.8284 13.1716 11.5 14 11.5ZM10 11.5C10.8284 11.5 11.5 10.8284 11.5 10 11.5 9.17157 10.8284 8.5 10 8.5 9.17157 8.5 8.5 9.17157 8.5 10 8.5 10.8284 9.17157 11.5 10 11.5ZM10 7.5C10.8284 7.5 11.5 6.82843 11.5 6 11.5 5.17157 10.8284 4.5 10 4.5 9.17157 4.5 8.5 5.17157 8.5 6 8.5 6.82843 9.17157 7.5 10 7.5ZM14 19.5C14.8284 19.5 15.5 18.8284 15.5 18 15.5 17.1716 14.8284 16.5 14 16.5 13.1716 16.5 12.5 17.1716 12.5 18 12.5 18.8284 13.1716 19.5 14 19.5ZM14 15.5C14.8284 15.5 15.5 14.8284 15.5 14 15.5 13.1716 14.8284 12.5 14 12.5 13.1716 12.5 12.5 13.1716 12.5 14 12.5 14.8284 13.1716 15.5 14 15.5ZM10 15.5C10.8284 15.5 11.5 14.8284 11.5 14 11.5 13.1716 10.8284 12.5 10 12.5 9.17157 12.5 8.5 13.1716 8.5 14 8.5 14.8284 9.17157 15.5 10 15.5ZM10 19.5C10.8284 19.5 11.5 18.8284 11.5 18 11.5 17.1716 10.8284 16.5 10 16.5 9.17157 16.5 8.5 17.1716 8.5 18 8.5 18.8284 9.17157 19.5 10 19.5Z" clip-rule="evenodd"/></svg>
