<svg xmlns="http://www.w3.org/2000/svg" viewBox="0 0 24 24"><path class="fn-svg-icon" fill-rule="evenodd" d="M5.29289 10.2929C5.68342 9.90237 6.31658 9.90237 6.70711 10.2929L9.70711 13.2929C10.0976 13.6834 10.0976 14.3166 9.70711 14.7071L6.70711 17.7071C6.31658 18.0976 5.68342 18.0976 5.29289 17.7071C4.90237 17.3166 4.90237 16.6834 5.29289 16.2929L7.58579 14L5.29289 11.7071C4.90237 11.3166 4.90237 10.6834 5.29289 10.2929Z" clip-rule="evenodd"/><path class="fn-svg-icon" fill-rule="evenodd" d="M10.2929 10.2929C10.6834 9.90237 11.3166 9.90237 11.7071 10.2929L14.7071 13.2929C15.0976 13.6834 15.0976 14.3166 14.7071 14.7071L11.7071 17.7071C11.3166 18.0976 10.6834 18.0976 10.2929 17.7071 9.90237 17.3166 9.90237 16.6834 10.2929 16.2929L12.5858 14 10.2929 11.7071C9.90237 11.3166 9.90237 10.6834 10.2929 10.2929ZM19.7071 13.2929C20.0976 13.6834 20.0976 14.3166 19.7071 14.7071L16.7071 17.7071C16.3166 18.0976 15.6834 18.0976 15.2929 17.7071 14.9024 17.3166 14.9024 16.6834 15.2929 16.2929L18.2929 13.2929C18.6834 12.9024 19.3166 12.9024 19.7071 13.2929Z" clip-rule="evenodd"/><path class="fn-svg-icon" fill-rule="evenodd" d="M4 8C3.44772 8 3 8.44772 3 9V19C3 19.5523 3.44772 20 4 20H20C20.5523 20 21 19.5523 21 19V14C21 13.4477 21.4477 13 22 13C22.5523 13 23 13.4477 23 14V19C23 20.6569 21.6569 22 20 22H4C2.34315 22 1 20.6569 1 19V9C1 7.34315 2.34315 6 4 6H9C9.55228 6 10 6.44772 10 7C10 7.55228 9.55228 8 9 8H4Z" clip-rule="evenodd"/><path class="fn-svg-icon" fill-rule="evenodd" d="M12 6C12 2.68629 14.6863 0 18 0C21.3137 0 24 2.68629 24 6C24 9.31371 21.3137 12 18 12C14.6863 12 12 9.31371 12 6ZM18 2C15.7909 2 14 3.79086 14 6C14 8.20914 15.7909 10 18 10C20.2091 10 22 8.20914 22 6C22 3.79086 20.2091 2 18 2Z" clip-rule="evenodd"/><path class="fn-svg-icon" fill-rule="evenodd" d="M18 3C18.5523 3 19 3.44772 19 4V5.58579L19.7071 6.29289C20.0976 6.68342 20.0976 7.31658 19.7071 7.70711C19.3166 8.09763 18.6834 8.09763 18.2929 7.70711L17.2929 6.70711C17.1054 6.51957 17 6.26522 17 6V4C17 3.44772 17.4477 3 18 3Z" clip-rule="evenodd"/></svg>
