<svg xmlns="http://www.w3.org/2000/svg" viewBox="0 0 24 24"><path class="fn-svg-icon" fill-rule="evenodd" d="M3 4C2.44772 4 2 4.44772 2 5V15C2 15.5523 2.44772 16 3 16H13C13.5523 16 14 16.4477 14 17C14 17.5523 13.5523 18 13 18H3C1.34315 18 0 16.6569 0 15V5C0 3.34315 1.34315 2 3 2H19C20.6569 2 22 3.34315 22 5V7C22 7.55228 21.5523 8 21 8C20.4477 8 20 7.55228 20 7V5C20 4.44772 19.5523 4 19 4H3Z" clip-rule="evenodd"/><path class="fn-svg-icon" fill-rule="evenodd" d="M16 11C16 10.4477 16.4477 10 17 10H23C23.5523 10 24 10.4477 24 11V21C24 21.5523 23.5523 22 23 22H17C16.4477 22 16 21.5523 16 21V11ZM18 12V20H22V12H18Z" clip-rule="evenodd"/><path class="fn-svg-icon" fill-rule="evenodd" d="M16 20C16 19.4477 16.4477 19 17 19H23C23.5523 19 24 19.4477 24 20 24 20.5523 23.5523 21 23 21H17C16.4477 21 16 20.5523 16 20ZM11 16C11.5523 16 12 16.4477 12 17V21C12 21.5523 11.5523 22 11 22 10.4477 22 10 21.5523 10 21V17C10 16.4477 10.4477 16 11 16Z" clip-rule="evenodd"/><path class="fn-svg-icon" fill-rule="evenodd" d="M6 21C6 20.4477 6.44772 20 7 20H13C13.5523 20 14 20.4477 14 21C14 21.5523 13.5523 22 13 22H7C6.44772 22 6 21.5523 6 21Z" clip-rule="evenodd"/></svg>
