<svg xmlns="http://www.w3.org/2000/svg" viewBox="0 0 24 24"><path class="fn-svg-icon" fill-rule="evenodd" d="M11.5 12C11.2239 12 11 12.2239 11 12.5C11 12.7762 11.2239 13 11.5 13H12.5C13.8807 13 15 14.1193 15 15.5C15 16.8807 13.8807 18 12.5 18H10C9.44772 18 9 17.5523 9 17C9 16.4477 9.44772 16 10 16H12.5C12.7761 16 13 15.7762 13 15.5C13 15.2239 12.7761 15 12.5 15H11.5C10.1193 15 9 13.8807 9 12.5C9 11.1193 10.1193 10 11.5 10H14C14.5523 10 15 10.4477 15 11C15 11.5523 14.5523 12 14 12H11.5Z" clip-rule="evenodd"/><path class="fn-svg-icon" fill-rule="evenodd" d="M12 7.00002C12.5523 7.00002 13 7.44774 13 8.00002V10C13 10.5523 12.5523 11 12 11C11.4477 11 11 10.5523 11 10V8.00002C11 7.44774 11.4477 7.00002 12 7.00002Z" clip-rule="evenodd"/><path class="fn-svg-icon" fill-rule="evenodd" d="M8.32055 2.2663C8.58835 2.01831 8.96998 1.93592 9.31623 2.05134L12 2.94593 14.6838 2.05134C15.03 1.93592 15.4117 2.01831 15.6794 2.2663 15.9472 2.51428 16.0587 2.88847 15.9701 3.24256L14.9701 7.24256C14.8589 7.68772 14.4589 8.00002 14 8.00002H10C9.54113 8.00002 9.14115 7.68772 9.02986 7.24256L8.02986 3.24256C7.94134 2.88847 8.05276 2.51428 8.32055 2.2663ZM10.412 4.52477 10.7808 6.00002H13.2192L13.588 4.52477 12.3162 4.9487C12.111 5.01713 11.889 5.01713 11.6838 4.9487L10.412 4.52477ZM12 17C12.5523 17 13 17.4477 13 18V20C13 20.5523 12.5523 21 12 21 11.4477 21 11 20.5523 11 20V18C11 17.4477 11.4477 17 12 17Z" clip-rule="evenodd"/><path class="fn-svg-icon" fill-rule="evenodd" d="M10.6569 8.00002C9.8612 8.00002 9.09814 8.31609 8.53554 8.8787L6.87868 10.5356C6.31607 11.0982 6 11.8612 6 12.6569V17C6 18.6569 7.34315 20 9 20H15C16.6569 20 18 18.6569 18 17V12.6581C18 11.8619 17.6835 11.0984 17.1203 10.5357L15.4605 8.87763C14.898 8.31568 14.1354 8.00002 13.3403 8.00002H10.6569ZM7.12132 7.46449C8.059 6.5268 9.33077 6.00002 10.6569 6.00002H13.3403C14.6655 6.00002 15.9365 6.52611 16.874 7.4627L18.5338 9.12074C19.4725 10.0586 20 11.3311 20 12.6581V17C20 19.7614 17.7614 22 15 22H9C6.23858 22 4 19.7614 4 17V12.6569C4 11.3308 4.52678 10.059 5.46447 9.12134L7.12132 7.46449Z" clip-rule="evenodd"/></svg>
