<svg xmlns="http://www.w3.org/2000/svg" viewBox="0 0 24 24"><path class="fn-svg-icon" fill-rule="evenodd" d="M3 4C3 3.44772 3.44772 3 4 3H12C12.2652 3 12.5196 3.10536 12.7071 3.29289L20.2929 10.8787C21.4645 12.0503 21.4645 13.9497 20.2929 15.1213L15.1213 20.2929C13.9497 21.4645 12.0503 21.4645 10.8787 20.2929L3.29289 12.7071C3.10536 12.5196 3 12.2652 3 12V4ZM5 5V11.5858L12.2929 18.8787C12.6834 19.2692 13.3166 19.2692 13.7071 18.8787L18.8787 13.7071C19.2692 13.3166 19.2692 12.6834 18.8787 12.2929L11.5858 5H5Z" clip-rule="evenodd"/><path class="fn-svg-icon" fill-rule="evenodd" d="M8 9.5C8.82843 9.5 9.5 8.82843 9.5 8C9.5 7.17157 8.82843 6.5 8 6.5C7.17157 6.5 6.5 7.17157 6.5 8C6.5 8.82843 7.17157 9.5 8 9.5Z" clip-rule="evenodd"/></svg>
