<svg xmlns="http://www.w3.org/2000/svg" viewBox="0 0 24 24"><path class="fn-svg-icon" fill-rule="evenodd" d="M8 17C8.55228 17 9 16.5523 9 16 9 15.4477 8.55228 15 8 15 7.44772 15 7 15.4477 7 16 7 16.5523 7.44772 17 8 17ZM8 9C8.55228 9 9 8.55228 9 8 9 7.44772 8.55228 7 8 7 7.44772 7 7 7.44772 7 8 7 8.55228 7.44772 9 8 9ZM16 9C16.5523 9 17 8.55228 17 8 17 7.44772 16.5523 7 16 7 15.4477 7 15 7.44772 15 8 15 8.55228 15.4477 9 16 9ZM18 13C18.5523 13 19 12.5523 19 12 19 11.4477 18.5523 11 18 11 17.4477 11 17 11.4477 17 12 17 12.5523 17.4477 13 18 13ZM12 19C12.5523 19 13 18.5523 13 18 13 17.4477 12.5523 17 12 17 11.4477 17 11 17.4477 11 18 11 18.5523 11.4477 19 12 19ZM12 7C12.5523 7 13 6.55228 13 6 13 5.44772 12.5523 5 12 5 11.4477 5 11 5.44772 11 6 11 6.55228 11.4477 7 12 7ZM6 13C6.55228 13 7 12.5523 7 12 7 11.4477 6.55228 11 6 11 5.44772 11 5 11.4477 5 12 5 12.5523 5.44772 13 6 13ZM16 17C16.5523 17 17 16.5523 17 16 17 15.4477 16.5523 15 16 15 15.4477 15 15 15.4477 15 16 15 16.5523 15.4477 17 16 17Z" clip-rule="evenodd"/><path class="fn-svg-icon" fill-rule="evenodd" d="M2 12C2 6.47715 6.47715 2 12 2C17.5228 2 22 6.47715 22 12C22 17.5228 17.5228 22 12 22C6.47715 22 2 17.5228 2 12ZM12 4C7.58172 4 4 7.58172 4 12C4 16.4183 7.58172 20 12 20C16.4183 20 20 16.4183 20 12C20 7.58172 16.4183 4 12 4Z" clip-rule="evenodd"/><path class="fn-svg-icon" fill-rule="evenodd" d="M16.7071 7.29289C17.059 7.64479 17.0986 8.20188 16.8 8.6L13.9636 12.3819C13.7853 13.3038 12.974 14 12 14C10.8954 14 10 13.1046 10 12C10 11.026 10.6962 10.2147 11.6181 10.0364L15.4 7.2C15.7981 6.90141 16.3552 6.941 16.7071 7.29289Z" clip-rule="evenodd"/></svg>
