<svg xmlns="http://www.w3.org/2000/svg" viewBox="0 0 24 24"><path class="fn-svg-icon" fill-rule="evenodd" d="M2 12C2 6.47715 6.47715 2 12 2C17.5228 2 22 6.47715 22 12C22 13.5763 21.7434 14.8242 21.1309 15.6987C20.467 16.6466 19.5008 17 18.5 17C17.5002 17 16.5336 16.6482 15.8693 15.7002C15.8004 15.6019 15.736 15.4988 15.6759 15.3911C14.7619 16.3812 13.4527 17 12 17C9.24126 17 6.99945 14.7673 6.99945 12C6.99945 9.23394 9.2326 7 12 7C13.1272 7 14.1653 7.37161 15 7.99834C15.0009 7.44682 15.4483 7 16 7C16.5523 7 17 7.44772 17 8V12C17 13.4257 17.2444 14.1776 17.5071 14.5524C17.7182 14.8536 18.0016 15 18.5 15C18.9974 15 19.2812 14.8535 19.4927 14.5514C19.7557 14.1759 20 13.4238 20 12C20 7.58172 16.4183 4 12 4C7.58172 4 4 7.58172 4 12C4 16.4183 7.58172 20 12 20C13.6467 20 15.1744 19.5036 16.4454 18.6524C16.9042 18.345 17.5254 18.4679 17.8327 18.9268C18.14 19.3856 18.0172 20.0068 17.5583 20.3141C15.9683 21.3789 14.0552 22 12 22C6.47715 22 2 17.5228 2 12ZM15 12C15 10.344 13.6615 9 12 9C10.3372 9 8.99945 10.3384 8.99945 12C8.99945 13.6603 10.3435 15 12 15C13.6566 15 15 13.6615 15 12Z" clip-rule="evenodd"/></svg>
