<svg xmlns="http://www.w3.org/2000/svg" viewBox="0 0 24 24"><path class="fn-svg-icon" fill-rule="evenodd" d="M12 4C7.58172 4 4 7.58172 4 12C4 16.4183 7.58172 20 12 20H19.2341L18.1396 18.1752C17.9235 17.8148 17.9557 17.3579 18.2201 17.0314C19.3336 15.6567 20 13.9075 20 12C20 7.58172 16.4183 4 12 4ZM2 12C2 6.47715 6.47715 2 12 2C17.5228 2 22 6.47715 22 12C22 14.1277 21.3345 16.1021 20.201 17.7236L21.8576 20.4856C22.0429 20.7946 22.0477 21.1793 21.8702 21.4928C21.6926 21.8062 21.3602 22 21 22H12C6.47715 22 2 17.5228 2 12Z" clip-rule="evenodd"/><path class="fn-svg-icon" fill-rule="evenodd" d="M7 10C7 9.44772 7.44772 9 8 9H16C16.5523 9 17 9.44772 17 10 17 10.5523 16.5523 11 16 11H8C7.44772 11 7 10.5523 7 10ZM7 14C7 13.4477 7.44772 13 8 13H12C12.5523 13 13 13.4477 13 14 13 14.5523 12.5523 15 12 15H8C7.44772 15 7 14.5523 7 14Z" clip-rule="evenodd"/></svg>
