<svg xmlns="http://www.w3.org/2000/svg" viewBox="0 0 24 24"><path class="fn-svg-icon" fill-rule="evenodd" d="M16 5C16 4.44772 16.4477 4 17 4H20C20.5523 4 21 4.44772 21 5 21 5.55228 20.5523 6 20 6H17C16.4477 6 16 5.55228 16 5ZM16.5 15C16.2239 15 16 15.2239 16 15.5 16 15.7761 16.2239 16 16.5 16H18.5C19.8807 16 21 17.1193 21 18.5 21 19.8807 19.8807 21 18.5 21H15C14.4477 21 14 20.5523 14 20 14 19.4477 14.4477 19 15 19H18.5C18.7761 19 19 18.7761 19 18.5 19 18.2239 18.7761 18 18.5 18H16.5C15.1193 18 14 16.8807 14 15.5 14 14.1193 15.1193 13 16.5 13H20C20.5523 13 21 13.4477 21 14 21 14.5523 20.5523 15 20 15H16.5ZM10.7071 3.29289C11.0976 3.68342 11.0976 4.31658 10.7071 4.70711L6.70711 8.70711C6.31658 9.09763 5.68342 9.09763 5.29289 8.70711 4.90237 8.31658 4.90237 7.68342 5.29289 7.29289L9.29289 3.29289C9.68342 2.90237 10.3166 2.90237 10.7071 3.29289ZM14 6C14.5523 6 15 5.55228 15 5 15 4.44772 14.5523 4 14 4 13.4477 4 13 4.44772 13 5 13 5.55228 13.4477 6 14 6ZM16 8C16 7.44772 16.4477 7 17 7H20C20.5523 7 21 7.44772 21 8 21 8.55228 20.5523 9 20 9H17C16.4477 9 16 8.55228 16 8ZM14 9C14.5523 9 15 8.55228 15 8 15 7.44772 14.5523 7 14 7 13.4477 7 13 7.44772 13 8 13 8.55228 13.4477 9 14 9ZM4 17C4.55228 17 5 17.4477 5 18V20C5 20.5523 4.55228 21 4 21 3.44772 21 3 20.5523 3 20V18C3 17.4477 3.44772 17 4 17ZM7 13C7.55228 13 8 13.4477 8 14V20C8 20.5523 7.55228 21 7 21 6.44772 21 6 20.5523 6 20V14C6 13.4477 6.44772 13 7 13ZM10 15C10.5523 15 11 15.4477 11 16V20C11 20.5523 10.5523 21 10 21 9.44772 21 9 20.5523 9 20V16C9 15.4477 9.44772 15 10 15Z" clip-rule="evenodd"/><path class="fn-svg-icon" fill-rule="evenodd" d="M17.5 22C18.3284 22 19 21.3284 19 20.5 19 19.6716 18.3284 19 17.5 19 16.6716 19 16 19.6716 16 20.5 16 21.3284 16.6716 22 17.5 22ZM17.5 15C18.3284 15 19 14.3284 19 13.5 19 12.6716 18.3284 12 17.5 12 16.6716 12 16 12.6716 16 13.5 16 14.3284 16.6716 15 17.5 15Z" clip-rule="evenodd"/><path class="fn-svg-icon" d="M3 10C3 9.44772 3.44772 9 4 9C4.55228 9 5 9.44772 5 10C5 10.5523 4.55228 11 4 11H3V10Z"/></svg>
