<svg xmlns="http://www.w3.org/2000/svg" viewBox="0 0 24 24"><path class="fn-svg-icon" fill-rule="evenodd" d="M12 3C12.5523 3 13 3.44772 13 4V16C13 16.5523 12.5523 17 12 17 11.4477 17 11 16.5523 11 16V4C11 3.44772 11.4477 3 12 3ZM3 21C3 20.4477 3.44772 20 4 20H20C20.5523 20 21 20.4477 21 21 21 21.5523 20.5523 22 20 22H4C3.44772 22 3 21.5523 3 21Z" clip-rule="evenodd"/><path class="fn-svg-icon" fill-rule="evenodd" d="M11.2929 3.29289C11.6834 2.90237 12.3166 2.90237 12.7071 3.29289L16.7071 7.29289C17.0976 7.68342 17.0976 8.31658 16.7071 8.70711C16.3166 9.09763 15.6834 9.09763 15.2929 8.70711L12 5.41421L8.70711 8.70711C8.31658 9.09763 7.68342 9.09763 7.29289 8.70711C6.90237 8.31658 6.90237 7.68342 7.29289 7.29289L11.2929 3.29289Z" clip-rule="evenodd"/></svg>
