<svg xmlns="http://www.w3.org/2000/svg" viewBox="0 0 24 24"><path class="fn-svg-icon" fill-rule="evenodd" d="M5 4C4.44772 4 4 4.44772 4 5V15C4 15.5523 4.44772 16 5 16H17C17.2652 16 17.5196 16.1054 17.7071 16.2929L20 18.5858V5C20 4.44772 19.5523 4 19 4H5ZM2 5C2 3.34315 3.34315 2 5 2H19C20.6569 2 22 3.34315 22 5V21C22 21.4045 21.7564 21.7691 21.3827 21.9239C21.009 22.0787 20.5789 21.9931 20.2929 21.7071L16.5858 18H5C3.34315 18 2 16.6569 2 15V5Z" clip-rule="evenodd"/><path class="fn-svg-icon" fill-rule="evenodd" d="M15.7071 7.29289C16.0976 7.68342 16.0976 8.31658 15.7071 8.70711L11.7071 12.7071C11.3166 13.0976 10.6834 13.0976 10.2929 12.7071L8.29289 10.7071C7.90237 10.3166 7.90237 9.68342 8.29289 9.29289C8.68342 8.90237 9.31658 8.90237 9.70711 9.29289L11 10.5858L14.2929 7.29289C14.6834 6.90237 15.3166 6.90237 15.7071 7.29289Z" clip-rule="evenodd"/></svg>
