<svg xmlns="http://www.w3.org/2000/svg" viewBox="0 0 24 24"><path class="fn-svg-icon" fill-rule="evenodd" d="M5.67068 6.00889C6.7928 3.64089 9.20556 2 11.9986 2C15.5188 2 18.4427 4.60691 18.929 8H19C21.761 8 23.9972 10.2331 23.9972 13C23.9972 15.7672 21.759 18 19 18H12.3015L6.55479 21.832C6.24794 22.0366 5.85337 22.0557 5.52819 21.8817C5.20301 21.7077 5 21.3688 5 21V17.917C2.16229 17.441 0 14.973 0 12C0 8.79679 2.51013 6.17985 5.67068 6.00889ZM5.99792 8C3.78974 8.00112 2 9.79155 2 12C2 14.2091 3.79086 16 6 16C6.55228 16 7 16.4477 7 17V19.1312L11.4438 16.168C11.6081 16.0585 11.8011 16 11.9986 16H19C20.6551 16 21.9972 14.662 21.9972 13C21.9972 11.3377 20.6565 10 19 10H18C17.4477 10 17 9.55228 17 9C17 6.23942 14.755 4 11.9986 4C10.2469 4 8.70025 4.90561 7.80701 6.27689C10.2377 7.04361 12 9.31599 12 12C12 12.5523 11.5523 13 11 13C10.4477 13 10 12.5523 10 12C10 9.79116 8.20963 8.00049 6.0009 8C5.99991 8 5.99892 8 5.99792 8Z" clip-rule="evenodd"/></svg>
