<svg xmlns="http://www.w3.org/2000/svg" viewBox="0 0 24 24"><path class="fn-svg-icon" fill-rule="evenodd" d="M10.0809 3.60608C10.2384 3.2384 10.6 3 11 3H11.2C12.7464 3 14 4.2536 14 5.8V8H17.6036C19.4753 8 20.89 9.69514 20.5552 11.5367L19.2825 18.5367C19.0231 19.9631 17.7807 21 16.3308 21H6C4.34315 21 3 19.6569 3 18V13C3 11.3431 4.34315 10 6 10H7.3406L10.0809 3.60608ZM11.6108 5.11339L8.91915 11.3939C8.76157 11.7616 8.40003 12 8 12H6C5.44772 12 5 12.4477 5 13V18C5 18.5523 5.44772 19 6 19H16.3308C16.8141 19 17.2283 18.6544 17.3147 18.1789L18.5874 11.1789C18.6991 10.565 18.2275 10 17.6036 10H13C12.4477 10 12 9.55228 12 9V5.8C12 5.50837 11.844 5.25318 11.6108 5.11339Z" clip-rule="evenodd"/><path class="fn-svg-icon" fill-rule="evenodd" d="M8 10C8.55228 10 9 10.4477 9 11V20C9 20.5523 8.55228 21 8 21C7.44772 21 7 20.5523 7 20V11C7 10.4477 7.44772 10 8 10Z" clip-rule="evenodd"/></svg>
