<svg xmlns="http://www.w3.org/2000/svg" viewBox="0 0 24 24"><path class="fn-svg-icon" fill-rule="evenodd" d="M10 16C10 15.4477 10.4477 15 11 15H19C19.5523 15 20 15.4477 20 16 20 16.5523 19.5523 17 19 17H11C10.4477 17 10 16.5523 10 16ZM10 8C10 7.44772 10.4477 7 11 7H19C19.5523 7 20 7.44772 20 8 20 8.55228 19.5523 9 19 9H11C10.4477 9 10 8.55228 10 8ZM4 14C4 13.4477 4.44772 13 5 13H6.29289C7.2357 13 8 13.7643 8 14.7071 8 15.1599 7.82014 15.5941 7.5 15.9142L6.41189 17.0023H7C7.55228 17.0023 8 17.45 8 18.0023 8 18.5546 7.55228 19.0023 7 19.0023H5C4.44772 19.0023 4 18.5546 4 18.0023V17.8284C4 17.0328 4.31607 16.2697 4.87868 15.7071L5.58579 15H5C4.44772 15 4 14.5523 4 14ZM4 10C4 9.44772 4.44772 9 5 9H7C7.55228 9 8 9.44772 8 10 8 10.5523 7.55228 11 7 11H5C4.44772 11 4 10.5523 4 10Z" clip-rule="evenodd"/><path class="fn-svg-icon" fill-rule="evenodd" d="M4 6C4 5.44772 4.44772 5 5 5H6C6.55228 5 7 5.44772 7 6V10.0023C7 10.5546 6.55228 11.0023 6 11.0023C5.44772 11.0023 5 10.5546 5 10.0023V7C4.44772 7 4 6.55228 4 6Z" clip-rule="evenodd"/></svg>
