<svg xmlns="http://www.w3.org/2000/svg" viewBox="0 0 24 24"><path class="fn-svg-icon" fill-rule="evenodd" d="M10 3C10 2.44772 10.4477 2 11 2H19C19.5523 2 20 2.44772 20 3V6.17071C21.1652 6.58254 22 7.69378 22 9V19C22 20.6569 20.6569 22 19 22H5C3.34315 22 2 20.6569 2 19V18C2 17.4477 2.44772 17 3 17C3.55228 17 4 17.4477 4 18V19C4 19.5523 4.44772 20 5 20H19C19.5523 20 20 19.5523 20 19V9C20 8.44772 19.5523 8 19 8H11C10.4477 8 10 7.55228 10 7V3ZM18 6V4H12V6H18Z" clip-rule="evenodd"/><path class="fn-svg-icon" fill-rule="evenodd" d="M2 4C2 2.89543 2.89543 2 4 2H6C7.10457 2 8 2.89543 8 4V13C8 14.1046 7.10457 15 6 15H4C2.89543 15 2 14.1046 2 13V4ZM6 4 4 4V13H6V4ZM11 12C11.5523 12 12 11.5523 12 11 12 10.4477 11.5523 10 11 10 10.4477 10 10 10.4477 10 11 10 11.5523 10.4477 12 11 12ZM11 15C11.5523 15 12 14.5523 12 14 12 13.4477 11.5523 13 11 13 10.4477 13 10 13.4477 10 14 10 14.5523 10.4477 15 11 15ZM14 15C14.5523 15 15 14.5523 15 14 15 13.4477 14.5523 13 14 13 13.4477 13 13 13.4477 13 14 13 14.5523 13.4477 15 14 15ZM14 12C14.5523 12 15 11.5523 15 11 15 10.4477 14.5523 10 14 10 13.4477 10 13 10.4477 13 11 13 11.5523 13.4477 12 14 12ZM17 12C17.5523 12 18 11.5523 18 11 18 10.4477 17.5523 10 17 10 16.4477 10 16 10.4477 16 11 16 11.5523 16.4477 12 17 12ZM17 15C17.5523 15 18 14.5523 18 14 18 13.4477 17.5523 13 17 13 16.4477 13 16 13.4477 16 14 16 14.5523 16.4477 15 17 15ZM11 18C11.5523 18 12 17.5523 12 17 12 16.4477 11.5523 16 11 16 10.4477 16 10 16.4477 10 17 10 17.5523 10.4477 18 11 18ZM14 18C14.5523 18 15 17.5523 15 17 15 16.4477 14.5523 16 14 16 13.4477 16 13 16.4477 13 17 13 17.5523 13.4477 18 14 18ZM17 18C17.5523 18 18 17.5523 18 17 18 16.4477 17.5523 16 17 16 16.4477 16 16 16.4477 16 17 16 17.5523 16.4477 18 17 18Z" clip-rule="evenodd"/></svg>
