<svg xmlns="http://www.w3.org/2000/svg" viewBox="0 0 24 24"><path class="fn-svg-icon" fill-rule="evenodd" d="M10 18C11.1046 18 12 17.1046 12 16C12 14.8954 11.1046 14 10 14C8.89543 14 8 14.8954 8 16C8 17.1046 8.89543 18 10 18Z" clip-rule="evenodd"/><path class="fn-svg-icon" fill-rule="evenodd" d="M10 7C10.5523 7 11 7.44772 11 8V16C11 16.5523 10.5523 17 10 17C9.44772 17 9 16.5523 9 16V8C9 7.44772 9.44772 7 10 7Z" clip-rule="evenodd"/><path class="fn-svg-icon" fill-rule="evenodd" d="M6.00037 6.0004C6.0001 3.79112 7.791 2 10.0003 2 12.2093 2 14.0001 3.79067 14.0002 5.99966L14.0005 11.5283C15.2263 12.6258 16 14.2227 16 16 16 19.3137 13.3137 22 10 22 6.68629 22 4 19.3137 4 16 4 14.2219 4.77433 12.6244 6.00104 11.5269L6.00037 6.0004ZM10.0003 4C8.89566 4 8.00023 4.89554 8.00037 6.00016L8.0011 11.9987C8.00114 12.3133 7.85309 12.6096 7.60146 12.7985 6.62714 13.53 6 14.6916 6 16 6 18.2091 7.79086 20 10 20 12.2091 20 14 18.2091 14 16 14 14.6922 13.3734 13.531 12.3999 12.7995 12.1485 12.6107 12.0006 12.3146 12.0006 12.0001L12.0002 5.99979C12.0001 4.89531 11.1047 4 10.0003 4ZM16 4C16 3.44772 16.4477 3 17 3H20C20.5523 3 21 3.44772 21 4 21 4.55228 20.5523 5 20 5H17C16.4477 5 16 4.55228 16 4ZM16 10C16 9.44772 16.4477 9 17 9H20C20.5523 9 21 9.44772 21 10 21 10.5523 20.5523 11 20 11H17C16.4477 11 16 10.5523 16 10ZM16 7C16 6.44772 16.4477 6 17 6H18C18.5523 6 19 6.44772 19 7 19 7.55228 18.5523 8 18 8H17C16.4477 8 16 7.55228 16 7Z" clip-rule="evenodd"/></svg>
