<svg xmlns="http://www.w3.org/2000/svg" viewBox="0 0 24 24"><path class="fn-svg-icon" fill-rule="evenodd" d="M4 3C4 2.44772 4.44772 2 5 2H13C13.2652 2 13.5196 2.10536 13.7071 2.29289L15.7071 4.29289C16.0976 4.68342 16.0976 5.31658 15.7071 5.70711 15.3166 6.09763 14.6834 6.09763 14.2929 5.70711L12.5858 4H6V5C6 5.55228 5.55228 6 5 6 4.44772 6 4 5.55228 4 5V3ZM5 18C5.55228 18 6 18.4477 6 19V20H18V19C18 18.4477 18.4477 18 19 18 19.5523 18 20 18.4477 20 19V21C20 21.5523 19.5523 22 19 22H5C4.44772 22 4 21.5523 4 21V19C4 18.4477 4.44772 18 5 18ZM16 11C16 9.34315 17.3431 8 19 8H21C21.5523 8 22 8.44772 22 9 22 9.55228 21.5523 10 21 10H19C18.4477 10 18 10.4477 18 11V13C18 13.5523 18.4477 14 19 14H21C21.5523 14 22 14.4477 22 15 22 15.5523 21.5523 16 21 16H19C17.3431 16 16 14.6569 16 13V11ZM9 11C9 9.34315 10.3431 8 12 8 13.6569 8 15 9.34315 15 11V13C15 14.6569 13.6569 16 12 16 10.3431 16 9 14.6569 9 13V11ZM12 10C11.4477 10 11 10.4477 11 11V13C11 13.5523 11.4477 14 12 14 12.5523 14 13 13.5523 13 13V11C13 10.4477 12.5523 10 12 10ZM2 9C2 8.44772 2.44772 8 3 8H5C6.65685 8 8 9.34315 8 11V13C8 14.6569 6.65685 16 5 16H3C2.73478 16 2.48043 15.8946 2.29289 15.7071 2.10536 15.5196 2 15.2652 2 15V9ZM4 10V14H5C5.55228 14 6 13.5523 6 13V11C6 10.4477 5.55228 10 5 10H4Z" clip-rule="evenodd"/></svg>
