<svg xmlns="http://www.w3.org/2000/svg" viewBox="0 0 24 24"><path class="fn-svg-icon" fill-rule="evenodd" d="M12 6C12.5523 6 13 6.44772 13 7V12C13 12.2164 12.9298 12.4269 12.8 12.6L9.8 16.6C9.46863 17.0418 8.84183 17.1314 8.4 16.8 7.95817 16.4686 7.86863 15.8418 8.2 15.4L11 11.6667V7C11 6.44772 11.4477 6 12 6ZM18 15C19.1046 15 20 14.1046 20 13 20 11.8954 19.1046 11 18 11 16.8954 11 16 11.8954 16 13 16 14.1046 16.8954 15 18 15ZM14 18.8C14 17.2536 15.2536 16 16.8 16H19.2C20.7464 16 22 17.2536 22 18.8V19C22 19.5523 21.5523 20 21 20H15C14.4477 20 14 19.5523 14 19V18.8Z" clip-rule="evenodd"/><path class="fn-svg-icon" fill-rule="evenodd" d="M2 12C2 6.47715 6.47715 2 12 2C16.3549 2 20.0572 4.78321 21.43 8.66483C21.6142 9.18551 21.3414 9.75689 20.8207 9.94105C20.3 10.1252 19.7287 9.85239 19.5445 9.33171C18.4454 6.22398 15.4811 4 12 4C7.58172 4 4 7.58172 4 12C4 16.4183 7.58172 20 12 20C12.5523 20 13 20.4477 13 21C13 21.5523 12.5523 22 12 22C6.47715 22 2 17.5228 2 12Z" clip-rule="evenodd"/></svg>
