<svg xmlns="http://www.w3.org/2000/svg" viewBox="0 0 24 24"><path class="fn-svg-icon" fill-rule="evenodd" d="M3 12C3 6.47715 7.47715 2 13 2C15.5616 2 17.9003 2.96447 19.6691 4.54851C20.0805 4.91695 20.1154 5.54916 19.7469 5.96058C19.3785 6.372 18.7463 6.40683 18.3348 6.03839C16.9186 4.77008 15.0504 4 13 4C8.58172 4 5 7.58172 5 12C5 16.4183 8.58172 20 13 20C15.0477 20 16.9136 19.232 18.3291 17.9668C18.7409 17.5987 19.373 17.6341 19.7411 18.0459C20.1091 18.4577 20.0737 19.0899 19.6619 19.4579C17.894 21.0381 15.5581 22 13 22C7.47715 22 3 17.5228 3 12Z" clip-rule="evenodd"/><path class="fn-svg-icon" fill-rule="evenodd" d="M7 12C7 8.68629 9.68629 6 13 6C16.3137 6 19 8.68629 19 12C19 15.3137 16.3137 18 13 18C9.68629 18 7 15.3137 7 12ZM13 8C10.7909 8 9 9.79086 9 12C9 14.2091 10.7909 16 13 16C15.2091 16 17 14.2091 17 12C17 9.79086 15.2091 8 13 8Z" clip-rule="evenodd"/></svg>
