<svg xmlns="http://www.w3.org/2000/svg" viewBox="0 0 24 24"><path class="fn-svg-icon" fill-rule="evenodd" d="M3 6C3 4.34315 4.34315 3 6 3H18C19.6569 3 21 4.34315 21 6V18C21 19.6569 19.6569 21 18 21H6C4.34315 21 3 19.6569 3 18V6ZM6 5C5.44772 5 5 5.44772 5 6V18C5 18.5523 5.44772 19 6 19H18C18.5523 19 19 18.5523 19 18V6C19 5.44772 18.5523 5 18 5H6Z" clip-rule="evenodd"/><path class="fn-svg-icon" fill-rule="evenodd" d="M6 9C6.55228 9 7 8.55228 7 8 7 7.44772 6.55228 7 6 7 5.44772 7 5 7.44772 5 8 5 8.55228 5.44772 9 6 9ZM10 9C10.5523 9 11 8.55228 11 8 11 7.44772 10.5523 7 10 7 9.44772 7 9 7.44772 9 8 9 8.55228 9.44772 9 10 9ZM14 9C14.5523 9 15 8.55228 15 8 15 7.44772 14.5523 7 14 7 13.4477 7 13 7.44772 13 8 13 8.55228 13.4477 9 14 9ZM18 9C18.5523 9 19 8.55228 19 8 19 7.44772 18.5523 7 18 7 17.4477 7 17 7.44772 17 8 17 8.55228 17.4477 9 18 9ZM16 11C16.5523 11 17 10.5523 17 10 17 9.44772 16.5523 9 16 9 15.4477 9 15 9.44772 15 10 15 10.5523 15.4477 11 16 11ZM12 11C12.5523 11 13 10.5523 13 10 13 9.44772 12.5523 9 12 9 11.4477 9 11 9.44772 11 10 11 10.5523 11.4477 11 12 11ZM8 11C8.55228 11 9 10.5523 9 10 9 9.44772 8.55228 9 8 9 7.44772 9 7 9.44772 7 10 7 10.5523 7.44772 11 8 11ZM6 13C6.55228 13 7 12.5523 7 12 7 11.4477 6.55228 11 6 11 5.44772 11 5 11.4477 5 12 5 12.5523 5.44772 13 6 13ZM10 13C10.5523 13 11 12.5523 11 12 11 11.4477 10.5523 11 10 11 9.44772 11 9 11.4477 9 12 9 12.5523 9.44772 13 10 13ZM14 13C14.5523 13 15 12.5523 15 12 15 11.4477 14.5523 11 14 11 13.4477 11 13 11.4477 13 12 13 12.5523 13.4477 13 14 13ZM18 13C18.5523 13 19 12.5523 19 12 19 11.4477 18.5523 11 18 11 17.4477 11 17 11.4477 17 12 17 12.5523 17.4477 13 18 13ZM16 15C16.5523 15 17 14.5523 17 14 17 13.4477 16.5523 13 16 13 15.4477 13 15 13.4477 15 14 15 14.5523 15.4477 15 16 15ZM12 15C12.5523 15 13 14.5523 13 14 13 13.4477 12.5523 13 12 13 11.4477 13 11 13.4477 11 14 11 14.5523 11.4477 15 12 15ZM8 15C8.55228 15 9 14.5523 9 14 9 13.4477 8.55228 13 8 13 7.44772 13 7 13.4477 7 14 7 14.5523 7.44772 15 8 15ZM6 17C6.55228 17 7 16.5523 7 16 7 15.4477 6.55228 15 6 15 5.44772 15 5 15.4477 5 16 5 16.5523 5.44772 17 6 17ZM10 17C10.5523 17 11 16.5523 11 16 11 15.4477 10.5523 15 10 15 9.44772 15 9 15.4477 9 16 9 16.5523 9.44772 17 10 17ZM14 17C14.5523 17 15 16.5523 15 16 15 15.4477 14.5523 15 14 15 13.4477 15 13 15.4477 13 16 13 16.5523 13.4477 17 14 17ZM18 17C18.5523 17 19 16.5523 19 16 19 15.4477 18.5523 15 18 15 17.4477 15 17 15.4477 17 16 17 16.5523 17.4477 17 18 17ZM16 19C16.5523 19 17 18.5523 17 18 17 17.4477 16.5523 17 16 17 15.4477 17 15 17.4477 15 18 15 18.5523 15.4477 19 16 19ZM12 19C12.5523 19 13 18.5523 13 18 13 17.4477 12.5523 17 12 17 11.4477 17 11 17.4477 11 18 11 18.5523 11.4477 19 12 19ZM8 19C8.55228 19 9 18.5523 9 18 9 17.4477 8.55228 17 8 17 7.44772 17 7 17.4477 7 18 7 18.5523 7.44772 19 8 19ZM4 5C4 4.44772 4.44772 4 5 4H19C19.5523 4 20 4.44772 20 5V6C20 6.55228 19.5523 7 19 7H5C4.44772 7 4 6.55228 4 6V5Z" clip-rule="evenodd"/></svg>
