<svg xmlns="http://www.w3.org/2000/svg" viewBox="0 0 24 24"><path class="fn-svg-icon" fill-rule="evenodd" d="M2 8C2 6.34315 3.34315 5 5 5H19C20.6569 5 22 6.34315 22 8V16C22 17.6569 20.6569 19 19 19H5C3.34315 19 2 17.6569 2 16V8ZM5 7C4.44772 7 4 7.44772 4 8V16C4 16.5523 4.44772 17 5 17H19C19.5523 17 20 16.5523 20 16V8C20 7.44772 19.5523 7 19 7H5Z" clip-rule="evenodd"/><path class="fn-svg-icon" fill-rule="evenodd" d="M21.002 7C21.5543 7.00112 22.0011 7.44974 22 8.00202L21.9984 8.76986C21.9962 9.90312 21.3555 10.9384 20.3423 11.446L20 11.6175L20 12.382L20.3417 12.5528C21.358 13.061 22 14.0997 22 15.236L22 16C22 16.5523 21.5523 17 21 17C20.4477 17 20 16.5523 20 16L20 15.2361C20 14.8573 19.786 14.511 19.4472 14.3416L18.5528 13.8944C18.214 13.725 18 13.3788 18 13L18 11C18 10.6215 18.2137 10.2755 18.5521 10.1059L19.4464 9.65787C19.7841 9.48866 19.9977 9.14357 19.9985 8.76582L20 7.99798C20.0011 7.4457 20.4497 6.99889 21.002 7Z" clip-rule="evenodd"/></svg>
