<svg xmlns="http://www.w3.org/2000/svg" viewBox="0 0 24 24"><path class="fn-svg-icon" fill-rule="evenodd" d="M21.634 9.22667C21.8657 9.41661 22 9.70042 22 10V18C22 18.4767 21.6635 18.8871 21.1961 18.9806L11.1961 20.9806C10.9023 21.0393 10.5977 20.9633 10.366 20.7734C10.1343 20.5834 10 20.2996 10 20V12C10 11.5233 10.3365 11.1129 10.8039 11.0194L20.8039 9.01943C21.0977 8.96067 21.4023 9.03673 21.634 9.22667ZM12 12.8198V18.7802L20 17.1802V11.2198L12 12.8198Z" clip-rule="evenodd"/><path class="fn-svg-icon" fill-rule="evenodd" d="M17.9806 6.80389C18.0889 7.34545 17.7377 7.87228 17.1961 7.98059L8 9.81981V17C8 17.5523 7.55228 18 7 18C6.44772 18 6 17.5523 6 17V9.00001C6 8.52333 6.33646 8.11291 6.80388 8.01943L16.8039 6.01943C17.3454 5.91112 17.8723 6.26233 17.9806 6.80389Z" clip-rule="evenodd"/><path class="fn-svg-icon" fill-rule="evenodd" d="M13.9806 3.80389C14.0889 4.34545 13.7377 4.87228 13.1961 4.98059L4 6.81981V14C4 14.5523 3.55228 15 3 15C2.44772 15 2 14.5523 2 14V6.00001C2 5.52333 2.33646 5.11291 2.80388 5.01943L12.8039 3.01943C13.3454 2.91112 13.8723 3.26233 13.9806 3.80389Z" clip-rule="evenodd"/></svg>
