<svg xmlns="http://www.w3.org/2000/svg" viewBox="0 0 24 24"><path class="fn-svg-icon" fill-rule="evenodd" d="M7.22183 17.1213C6.05025 15.9497 6.05025 14.0503 7.22183 12.8787L12.8787 7.22183C14.0503 6.05025 15.9497 6.05025 17.1213 7.22183L22.7782 12.8787C23.9497 14.0503 23.9497 15.9497 22.7782 17.1213L17.1213 22.7782C15.9497 23.9497 14.0503 23.9497 12.8787 22.7782L7.22183 17.1213ZM8.63604 14.2929C8.24551 14.6834 8.24551 15.3166 8.63604 15.7071L14.2929 21.364C14.6834 21.7545 15.3166 21.7545 15.7071 21.364L21.364 15.7071C21.7545 15.3166 21.7545 14.6834 21.364 14.2929L15.7071 8.63604C15.3166 8.24551 14.6834 8.24552 14.2929 8.63604L8.63604 14.2929Z" clip-rule="evenodd"/><path class="fn-svg-icon" fill-rule="evenodd" d="M15 17C16.1046 17 17 16.1046 17 15 17 13.8954 16.1046 13 15 13 13.8954 13 13 13.8954 13 15 13 16.1046 13.8954 17 15 17ZM11.2929 6.29289C11.6834 5.90237 12.3166 5.90237 12.7071 6.29289L13.7071 7.29289C14.0976 7.68342 14.0976 8.31658 13.7071 8.70711 13.3166 9.09763 12.6834 9.09763 12.2929 8.70711L11.2929 7.70711C10.9024 7.31658 10.9024 6.68342 11.2929 6.29289ZM2 8C2 7.44772 2.44772 7 3 7H4C4.55228 7 5 7.44772 5 8 5 8.55228 4.55228 9 4 9H3C2.44772 9 2 8.55228 2 8ZM2 16C2 15.4477 2.44772 15 3 15H4C4.55228 15 5 15.4477 5 16 5 16.5523 4.55228 17 4 17H3C2.44772 17 2 16.5523 2 16ZM6.29289 11.2929C6.68342 10.9024 7.31658 10.9024 7.70711 11.2929L8.70711 12.2929C9.09763 12.6834 9.09763 13.3166 8.70711 13.7071 8.31658 14.0976 7.68342 14.0976 7.29289 13.7071L6.29289 12.7071C5.90237 12.3166 5.90237 11.6834 6.29289 11.2929Z" clip-rule="evenodd"/><path class="fn-svg-icon" fill-rule="evenodd" d="M6 5C5.44772 5 5 5.44772 5 6V18C5 18.5523 5.44772 19 6 19H11C11.5523 19 12 19.4477 12 20C12 20.5523 11.5523 21 11 21H6C4.34315 21 3 19.6569 3 18V6C3 4.34315 4.34315 3 6 3H18C19.6569 3 21 4.34315 21 6V11C21 11.5523 20.5523 12 20 12C19.4477 12 19 11.5523 19 11V6C19 5.44772 18.5523 5 18 5H6Z" clip-rule="evenodd"/></svg>
