<svg xmlns="http://www.w3.org/2000/svg" viewBox="0 0 24 24"><path class="fn-svg-icon" fill-rule="evenodd" d="M16 12C16 11.4477 16.4477 11 17 11H20C20.5523 11 21 11.4477 21 12 21 12.5523 20.5523 13 20 13H17C16.4477 13 16 12.5523 16 12ZM16 9C16 8.44772 16.4477 8 17 8H21C21.5523 8 22 8.44772 22 9 22 9.55228 21.5523 10 21 10H17C16.4477 10 16 9.55228 16 9ZM2 9C2 8.44772 2.44772 8 3 8H5C6.65685 8 8 9.34315 8 11 8 12.6569 6.65685 14 5 14H3C2.44772 14 2 13.5523 2 13V9ZM4 10V12H5C5.55228 12 6 11.5523 6 11 6 10.4477 5.55228 10 5 10H4Z" clip-rule="evenodd"/><path class="fn-svg-icon" fill-rule="evenodd" d="M17 8C17.5523 8 18 8.44772 18 9V15C18 15.5523 17.5523 16 17 16 16.4477 16 16 15.5523 16 15V9C16 8.44772 16.4477 8 17 8ZM9 9C9 8.44772 9.44772 8 10 8H12C13.6569 8 15 9.34315 15 11V13C15 14.6569 13.6569 16 12 16H10C9.73478 16 9.48043 15.8946 9.29289 15.7071 9.10536 15.5196 9 15.2652 9 15V9ZM11 10V14H12C12.5523 14 13 13.5523 13 13V11C13 10.4477 12.5523 10 12 10H11ZM3 8C3.55228 8 4 8.44772 4 9V15C4 15.5523 3.55228 16 3 16 2.44772 16 2 15.5523 2 15V9C2 8.44772 2.44772 8 3 8ZM17 3C17 2.44772 17.4477 2 18 2H19C20.6569 2 22 3.34315 22 5V6C22 6.55228 21.5523 7 21 7 20.4477 7 20 6.55228 20 6V5C20 4.44772 19.5523 4 19 4H18C17.4477 4 17 3.55228 17 3ZM21 17C21.5523 17 22 17.4477 22 18V19C22 20.6569 20.6569 22 19 22H18C17.4477 22 17 21.5523 17 21 17 20.4477 17.4477 20 18 20H19C19.5523 20 20 19.5523 20 19V18C20 17.4477 20.4477 17 21 17ZM3 17C3.55228 17 4 17.4477 4 18V19C4 19.5523 4.44772 20 5 20H6C6.55228 20 7 20.4477 7 21 7 21.5523 6.55228 22 6 22H5C3.34315 22 2 20.6569 2 19V18C2 17.4477 2.44772 17 3 17ZM5 4C4.44772 4 4 4.44772 4 5V6C4 6.55228 3.55228 7 3 7 2.44772 7 2 6.55228 2 6V5C2 3.34315 3.34315 2 5 2H6C6.55228 2 7 2.44772 7 3 7 3.55228 6.55228 4 6 4H5Z" clip-rule="evenodd"/></svg>
