<svg xmlns="http://www.w3.org/2000/svg" viewBox="0 0 24 24"><path class="fn-svg-icon" fill-rule="evenodd" d="M11.5 10C11.2239 10 11 10.2239 11 10.5 11 10.7762 11.2239 11 11.5 11H12.5C13.8807 11 15 12.1193 15 13.5 15 14.8807 13.8807 16 12.5 16H10C9.44773 16 9.00001 15.5523 9.00001 15 9.00001 14.4477 9.44773 14 10 14H12.5C12.7762 14 13 13.7762 13 13.5 13 13.2239 12.7762 13 12.5 13H11.5C10.1193 13 9.00001 11.8807 9.00001 10.5 9.00001 9.11932 10.1193 8.00003 11.5 8.00003H14C14.5523 8.00003 15 8.44774 15 9.00003 15 9.55231 14.5523 10 14 10H11.5ZM4.93082 6.34051C5.39716 6.63639 5.53534 7.2543 5.23945 7.72063 4.75908 8.47774 4.40277 9.32042 4.19843 10.2205 4.07616 10.7591 3.54043 11.0966 3.00185 10.9743 2.46327 10.852 2.12579 10.3163 2.24806 9.77771 2.504 8.6503 2.95023 7.59552 3.55069 6.64914 3.84658 6.1828 4.46448 6.04462 4.93082 6.34051ZM19.0743 6.34051C19.5406 6.04462 20.1585 6.1828 20.4544 6.64914 21.0549 7.59552 21.5011 8.6503 21.757 9.77771 21.8793 10.3163 21.5418 10.852 21.0032 10.9743 20.4647 11.0966 19.9289 10.7591 19.8067 10.2205 19.6023 9.32042 19.246 8.47774 18.7656 7.72063 18.4697 7.2543 18.6079 6.63639 19.0743 6.34051ZM3.00185 13.0248C3.54043 12.9026 4.07616 13.2401 4.19843 13.7786 4.40277 14.6787 4.75908 15.5214 5.23945 16.2785 5.53534 16.7448 5.39716 17.3627 4.93082 17.6586 4.46448 17.9545 3.84658 17.8163 3.55069 17.35 2.95023 16.4036 2.504 15.3488 2.24806 14.2214 2.12579 13.6828 2.46327 13.1471 3.00185 13.0248ZM21.0032 13.0248C21.5418 13.1471 21.8793 13.6828 21.757 14.2214 21.5011 15.3488 21.0549 16.4036 20.4544 17.35 20.1585 17.8163 19.5406 17.9545 19.0743 17.6586 18.6079 17.3627 18.4697 16.7448 18.7656 16.2785 19.246 15.5214 19.6023 14.6787 19.8067 13.7786 19.9289 13.2401 20.4647 12.9026 21.0032 13.0248ZM10.9771 3.00155C11.0992 3.54017 10.7615 4.07579 10.2229 4.19789 9.32861 4.40062 8.49093 4.75338 7.7375 5.22879 7.27042 5.52351 6.65287 5.38379 6.35815 4.91671 6.06343 4.44964 6.20315 3.83208 6.67022 3.53736 7.61203 2.94309 8.66058 2.50131 9.78077 2.24737 10.3194 2.12527 10.855 2.46293 10.9771 3.00155ZM10.9771 21.0016C11.0992 20.4629 10.7615 19.9273 10.2229 19.8052 9.32861 19.6025 8.49093 19.2497 7.7375 18.7743 7.27042 18.4796 6.65287 18.6193 6.35815 19.0864 6.06343 19.5535 6.20315 20.171 6.67022 20.4657 7.61203 21.06 8.66058 21.5018 9.78077 21.7557 10.3194 21.8778 10.855 21.5402 10.9771 21.0016ZM13.0248 3.00155C13.1469 2.46293 13.6825 2.12527 14.2211 2.24737 15.3413 2.50131 16.3898 2.94309 17.3316 3.53736 17.7987 3.83208 17.9384 4.44964 17.6437 4.91671 17.349 5.38379 16.7314 5.52351 16.2644 5.22879 15.5109 4.75338 14.6732 4.40062 13.7789 4.19789 13.2403 4.07579 12.9027 3.54017 13.0248 3.00155ZM17.6437 19.0864C17.9384 19.5535 17.7987 20.171 17.3316 20.4657 16.3898 21.06 15.3413 21.5018 14.2211 21.7557 13.6825 21.8778 13.1469 21.5402 13.0248 21.0016 12.9027 20.4629 13.2403 19.9273 13.7789 19.8052 14.6732 19.6025 15.5109 19.2497 16.2644 18.7743 16.7314 18.4796 17.349 18.6193 17.6437 19.0864Z" clip-rule="evenodd"/><path class="fn-svg-icon" fill-rule="evenodd" d="M12 6.00003C12.5523 6.00003 13 6.44774 13 7.00003V8.00003C13 8.55231 12.5523 9.00003 12 9.00003 11.4477 9.00003 11 8.55231 11 8.00003V7.00003C11 6.44774 11.4477 6.00003 12 6.00003ZM12 15C12.5523 15 13 15.4477 13 16V17C13 17.5523 12.5523 18 12 18 11.4477 18 11 17.5523 11 17V16C11 15.4477 11.4477 15 12 15Z" clip-rule="evenodd"/></svg>
