<svg xmlns="http://www.w3.org/2000/svg" viewBox="0 0 24 24"><path class="fn-svg-icon" fill-rule="evenodd" d="M9 19C9 18.4477 9.44772 18 10 18H14C14.5523 18 15 18.4477 15 19C15 19.5523 14.5523 20 14 20H10C9.44772 20 9 19.5523 9 19Z" clip-rule="evenodd"/><path class="fn-svg-icon" fill-rule="evenodd" d="M12 16C12.5523 16 13 16.4477 13 17V21C13 21.5523 12.5523 22 12 22C11.4477 22 11 21.5523 11 21V17C11 16.4477 11.4477 16 12 16Z" clip-rule="evenodd"/><path class="fn-svg-icon" fill-rule="evenodd" d="M11 14C8.23858 14 6 16.2386 6 19V20H7C7.55228 20 8 20.4477 8 21C8 21.5523 7.55228 22 7 22H5C4.44772 22 4 21.5523 4 21V19C4 15.134 7.13401 12 11 12H13C16.866 12 20 15.134 20 19V21C20 21.5523 19.5523 22 19 22H17C16.4477 22 16 21.5523 16 21C16 20.4477 16.4477 20 17 20H18V19C18 16.2386 15.7614 14 13 14H11Z" clip-rule="evenodd"/><path class="fn-svg-icon" fill-rule="evenodd" d="M9.35816 4.99646L14.6417 4.99635C14.8849 4.99634 15.1198 5.08499 15.3024 5.2457C16.3417 6.16052 17 7.504 17 9C17 11.7614 14.7614 14 12 14C9.23858 14 7 11.7614 7 9C7 7.50408 7.65819 6.16066 8.69745 5.24585C8.88003 5.08513 9.11493 4.99647 9.35816 4.99646ZM9.76701 6.99646C9.2892 7.52837 9 8.22996 9 9C9 10.6569 10.3431 12 12 12C13.6569 12 15 10.6569 15 9C15 8.22991 14.7108 7.52828 14.2329 6.99636L9.76701 6.99646Z" clip-rule="evenodd"/><path class="fn-svg-icon" fill-rule="evenodd" d="M7 5.41421C5.74007 4.15428 6.6324 2 8.41421 2H15.5858C17.3676 2 18.2599 4.15429 17 5.41421L16 6.41421C15.6249 6.78929 15.1162 7 14.5858 7H9.41421C8.88378 7 8.37507 6.78929 8 6.41421L7 5.41421ZM15.5858 4H8.41421L9.41421 5H14.5858L15.5858 4Z" clip-rule="evenodd"/></svg>
