<svg xmlns="http://www.w3.org/2000/svg" viewBox="0 0 24 24"><path class="fn-svg-icon" fill-rule="evenodd" d="M12 20C12.5523 20 13 20.4477 13 21V22C13 22.5523 12.5523 23 12 23 11.4477 23 11 22.5523 11 22V21C11 20.4477 11.4477 20 12 20ZM12 1C12.5523 1 13 1.44772 13 2V3C13 3.55228 12.5523 4 12 4 11.4477 4 11 3.55228 11 3V2C11 1.44772 11.4477 1 12 1ZM20 12C20 11.4477 20.4477 11 21 11H22C22.5523 11 23 11.4477 23 12 23 12.5523 22.5523 13 22 13H21C20.4477 13 20 12.5523 20 12ZM1 12C1 11.4477 1.44772 11 2 11H3C3.55228 11 4 11.4477 4 12 4 12.5523 3.55228 13 3 13H2C1.44772 13 1 12.5523 1 12ZM4 9C4 8.44772 4.44772 8 5 8H19C19.5523 8 20 8.44772 20 9 20 9.55228 19.5523 10 19 10H5C4.44772 10 4 9.55228 4 9ZM17.7929 17.7929C18.1834 17.4024 18.8166 17.4024 19.2071 17.7929L20.2071 18.7929C20.5976 19.1834 20.5976 19.8166 20.2071 20.2071 19.8166 20.5976 19.1834 20.5976 18.7929 20.2071L17.7929 19.2071C17.4024 18.8166 17.4024 18.1834 17.7929 17.7929ZM20.2071 3.79289C20.5976 4.18342 20.5976 4.81658 20.2071 5.20711L19.2071 6.20711C18.8166 6.59763 18.1834 6.59763 17.7929 6.20711 17.4024 5.81658 17.4024 5.18342 17.7929 4.79289L18.7929 3.79289C19.1834 3.40237 19.8166 3.40237 20.2071 3.79289ZM6.20711 17.7929C6.59763 18.1834 6.59763 18.8166 6.20711 19.2071L5.20711 20.2071C4.81658 20.5976 4.18342 20.5976 3.79289 20.2071 3.40237 19.8166 3.40237 19.1834 3.79289 18.7929L4.79289 17.7929C5.18342 17.4024 5.81658 17.4024 6.20711 17.7929ZM3.79289 3.79289C4.18342 3.40237 4.81658 3.40237 5.20711 3.79289L6.20711 4.79289C6.59763 5.18342 6.59763 5.81658 6.20711 6.20711 5.81658 6.59763 5.18342 6.59763 4.79289 6.20711L3.79289 5.20711C3.40237 4.81658 3.40237 4.18342 3.79289 3.79289Z" clip-rule="evenodd"/><path class="fn-svg-icon" fill-rule="evenodd" d="M3 12C3 7.02944 7.02944 3 12 3C16.9706 3 21 7.02944 21 12C21 16.9706 16.9706 21 12 21C7.02944 21 3 16.9706 3 12ZM12 5C8.13401 5 5 8.13401 5 12C5 15.866 8.13401 19 12 19C15.866 19 19 15.866 19 12C19 8.13401 15.866 5 12 5Z" clip-rule="evenodd"/><path class="fn-svg-icon" fill-rule="evenodd" d="M8.03437 13.1343C8.51244 12.8578 9.12416 13.0211 9.40069 13.4992 9.92091 14.3986 10.8908 15 12 15 13.1088 15 14.0783 14.399 14.5987 13.5003 14.8754 13.0223 15.4872 12.8592 15.9652 13.1359 16.4431 13.4126 16.6062 14.0244 16.3295 14.5024 15.4663 15.9934 13.8513 17 12 17 10.148 17 8.53245 15.9926 7.66946 14.5006 7.39292 14.0225 7.5563 13.4108 8.03437 13.1343ZM6.55279 8.10557C7.04677 7.85858 7.64744 8.05881 7.89443 8.55279L8.61803 10H9.38197L10.1056 8.55279C10.275 8.214 10.6212 8 11 8H13C13.3788 8 13.725 8.214 13.8944 8.55279L14.618 10H15.382L16.1056 8.55279C16.3526 8.05881 16.9532 7.85858 17.4472 8.10557 17.9412 8.35256 18.1414 8.95324 17.8944 9.44721L16.8944 11.4472C16.725 11.786 16.3788 12 16 12H14C13.6212 12 13.275 11.786 13.1056 11.4472L12.382 10H11.618L10.8944 11.4472C10.725 11.786 10.3788 12 10 12H8C7.62123 12 7.27496 11.786 7.10557 11.4472L6.10557 9.44721C5.85858 8.95324 6.05881 8.35256 6.55279 8.10557Z" clip-rule="evenodd"/></svg>
