<svg xmlns="http://www.w3.org/2000/svg" viewBox="0 0 24 24"><path class="fn-svg-icon" fill-rule="evenodd" d="M4 13C4 10.2386 6.23858 8 9 8H19C19.5523 8 20 8.44772 20 9C20 9.55228 19.5523 10 19 10H9C7.34315 10 6 11.3431 6 13C6 14.6569 7.34315 16 9 16H15C15.5523 16 16 16.4477 16 17C16 17.5523 15.5523 18 15 18H9C6.23858 18 4 15.7614 4 13Z" clip-rule="evenodd"/><path class="fn-svg-icon" fill-rule="evenodd" d="M14.2929 4.29289C14.6834 3.90237 15.3166 3.90237 15.7071 4.29289L19.7071 8.29289C20.0976 8.68342 20.0976 9.31658 19.7071 9.70711L15.7071 13.7071C15.3166 14.0976 14.6834 14.0976 14.2929 13.7071C13.9024 13.3166 13.9024 12.6834 14.2929 12.2929L17.5858 9L14.2929 5.70711C13.9024 5.31658 13.9024 4.68342 14.2929 4.29289Z" clip-rule="evenodd"/></svg>
