<svg xmlns="http://www.w3.org/2000/svg" viewBox="0 0 24 24"><path class="fn-svg-icon" fill-rule="evenodd" d="M7.10555 6.55276C7.35254 6.05878 7.95321 5.85856 8.44719 6.10555L16.4472 10.1055C16.9412 10.3525 17.1414 10.9532 16.8944 11.4472 16.6474 11.9412 16.0467 12.1414 15.5528 11.8944L7.55276 7.8944C7.05878 7.64741 6.85856 7.04674 7.10555 6.55276ZM7.10555 2.55276C7.35254 2.05878 7.95321 1.85856 8.44719 2.10555L16.4472 6.10555C16.9412 6.35254 17.1414 6.95321 16.8944 7.44719 16.6474 7.94117 16.0467 8.14139 15.5528 7.8944L7.55276 3.8944C7.05878 3.64741 6.85856 3.04674 7.10555 2.55276ZM7.10555 10.5528C7.35254 10.0588 7.95321 9.85856 8.44719 10.1055L16.4472 14.1055C16.786 14.2749 17 14.6212 17 15 17 15.3787 16.786 15.725 16.4472 15.8944L15 16.618V20C15 21.1045 14.1045 22 13 22H11C9.89541 22 8.99997 21.1045 8.99997 20V16.618L7.55276 15.8944C7.05878 15.6474 6.85856 15.0467 7.10555 14.5528 7.35254 14.0588 7.95321 13.8586 8.44719 14.1055L10.4472 15.1055C10.786 15.2749 11 15.6212 11 16V20H13V16C13 15.6212 13.214 15.2749 13.5528 15.1055L13.7639 15 7.55276 11.8944C7.05878 11.6474 6.85856 11.0467 7.10555 10.5528Z" clip-rule="evenodd"/><path class="fn-svg-icon" fill-rule="evenodd" d="M8.99997 18C8.99997 17.4477 9.44769 17 9.99997 17H14C14.5523 17 15 17.4477 15 18C15 18.5523 14.5523 19 14 19H9.99997C9.44769 19 8.99997 18.5523 8.99997 18Z" clip-rule="evenodd"/></svg>
