<svg xmlns="http://www.w3.org/2000/svg" viewBox="0 0 24 24"><path class="fn-svg-icon" fill-rule="evenodd" d="M2 6C2 4.34315 3.34315 3 5 3H19C20.6569 3 22 4.34315 22 6V18C22 19.6569 20.6569 21 19 21H5C3.34315 21 2 19.6569 2 18V6ZM5 5C4.44772 5 4 5.44772 4 6V18C4 18.5523 4.44772 19 5 19H19C19.5523 19 20 18.5523 20 18V6C20 5.44772 19.5523 5 19 5H5Z" clip-rule="evenodd"/><path class="fn-svg-icon" fill-rule="evenodd" d="M9 3C9.55228 3 10 3.44772 10 4V20C10 20.5523 9.55228 21 9 21 8.44772 21 8 20.5523 8 20V4C8 3.44772 8.44772 3 9 3ZM15 11C15.5523 11 16 11.4477 16 12V20C16 20.5523 15.5523 21 15 21 14.4477 21 14 20.5523 14 20V12C14 11.4477 14.4477 11 15 11Z" clip-rule="evenodd"/><path class="fn-svg-icon" fill-rule="evenodd" d="M8 12C8 11.4477 8.44772 11 9 11H21C21.5523 11 22 11.4477 22 12 22 12.5523 21.5523 13 21 13H9C8.44772 13 8 12.5523 8 12ZM14 16C14 15.4477 14.4477 15 15 15H21C21.5523 15 22 15.4477 22 16 22 16.5523 21.5523 17 21 17H15C14.4477 17 14 16.5523 14 16Z" clip-rule="evenodd"/></svg>
