<svg xmlns="http://www.w3.org/2000/svg" viewBox="0 0 24 24"><path class="fn-svg-icon" fill-rule="evenodd" d="M12 3C8.05228 3 5 6.05228 5 10C5 12.8627 6.78212 15.6235 8.73803 17.7627C9.69815 18.8129 10.6614 19.6711 11.3854 20.2669C11.6187 20.4588 11.8263 20.6229 12 20.7567C12.1737 20.6229 12.3813 20.4588 12.6146 20.2669C13.3386 19.6711 14.3019 18.8129 15.262 17.7627C17.2179 15.6235 19 12.8627 19 10C19 6.05228 15.9477 3 12 3ZM12 22C11.4335 22.824 11.4332 22.8239 11.4329 22.8237L11.4302 22.8218L11.4241 22.8175L11.4033 22.803C11.3856 22.7907 11.3606 22.7731 11.3288 22.7503C11.265 22.7047 11.1736 22.6385 11.0585 22.5527C10.8285 22.3812 10.5033 22.1311 10.1146 21.8112C9.33862 21.1727 8.30185 20.2496 7.26197 19.1123C5.21788 16.8765 3 13.6373 3 10C3 4.94772 6.94772 1 12 1C17.0523 1 21 4.94772 21 10C21 13.6373 18.7821 16.8765 16.738 19.1123C15.6981 20.2496 14.6614 21.1727 13.8854 21.8112C13.4967 22.1311 13.1715 22.3812 12.9415 22.5527C12.8264 22.6385 12.735 22.7047 12.6712 22.7503C12.6394 22.7731 12.6144 22.7907 12.5967 22.803L12.5759 22.8175L12.5698 22.8218L12.5678 22.8232C12.5675 22.8234 12.5665 22.824 12 22ZM12 22L12.5665 22.824C12.2253 23.0587 11.7742 23.0583 11.4329 22.8237L12 22Z" clip-rule="evenodd"/><path class="fn-svg-icon" fill-rule="evenodd" d="M8 10C8 7.79086 9.79086 6 12 6C14.2091 6 16 7.79086 16 10C16 12.2091 14.2091 14 12 14C9.79086 14 8 12.2091 8 10ZM12 8C10.8954 8 10 8.89543 10 10C10 11.1046 10.8954 12 12 12C13.1046 12 14 11.1046 14 10C14 8.89543 13.1046 8 12 8Z" clip-rule="evenodd"/></svg>
