<svg xmlns="http://www.w3.org/2000/svg" viewBox="0 0 24 24"><path class="fn-svg-icon" fill-rule="evenodd" d="M5 6C5.55228 6 6 6.44772 6 7V17C6 17.5523 5.55228 18 5 18 4.44772 18 4 17.5523 4 17V7C4 6.44772 4.44772 6 5 6ZM11 6C11.5523 6 12 6.44772 12 7V17C12 17.5523 11.5523 18 11 18 10.4477 18 10 17.5523 10 17V7C10 6.44772 10.4477 6 11 6ZM18.5847 8.18876C18.8455 8.37671 19 8.67856 19 9V17C19 17.5523 18.5523 18 18 18 17.4477 18 17 17.5523 17 17V10.3874L15.3162 10.9487C14.7923 11.1233 14.226 10.8402 14.0513 10.3162 13.8767 9.79228 14.1598 9.22596 14.6838 9.05132L17.6838 8.05132C17.9887 7.94967 18.3239 8.00081 18.5847 8.18876Z" clip-rule="evenodd"/><path class="fn-svg-icon" fill-rule="evenodd" d="M4 12C4 11.4477 4.44772 11 5 11H11C11.5523 11 12 11.4477 12 12C12 12.5523 11.5523 13 11 13H5C4.44772 13 4 12.5523 4 12Z" clip-rule="evenodd"/></svg>
