<svg xmlns="http://www.w3.org/2000/svg" viewBox="0 0 24 24"><path class="fn-svg-icon" fill-rule="evenodd" d="M2.11833 5.52814C2.29235 5.20298 2.63121 5 3 5H15.9296C16.9327 5 17.8694 5.5013 18.4258 6.3359L21.8321 11.4453C22.056 11.7812 22.056 12.2188 21.8321 12.5547L18.4258 17.6641C17.8694 18.4987 16.9327 19 15.9296 19H3C2.63121 19 2.29235 18.797 2.11833 18.4719C1.94431 18.1467 1.96338 17.7522 2.16795 17.4453L5.79815 12L2.16795 6.5547C1.96338 6.24784 1.94431 5.8533 2.11833 5.52814ZM4.86852 7L7.83205 11.4453C8.05598 11.7812 8.05598 12.2188 7.83205 12.5547L4.86852 17H15.9296C16.264 17 16.5762 16.8329 16.7617 16.5547L19.7982 12L16.7617 7.4453C16.5762 7.1671 16.264 7 15.9296 7H4.86852Z" clip-rule="evenodd"/></svg>
