<svg xmlns="http://www.w3.org/2000/svg" viewBox="0 0 24 24"><path class="fn-svg-icon" fill-rule="evenodd" d="M15.8814 3.70739C17.0535 2.53566 18.9537 2.53634 20.1249 3.70893L20.2949 3.87911C21.4653 5.05088 21.4648 6.94944 20.2937 8.12054L10.7071 17.7071C10.3166 18.0977 9.68342 18.0977 9.29289 17.7071 8.90237 17.3166 8.90237 16.6834 9.29289 16.2929L18.8795 6.70633C19.2699 6.31596 19.27 5.68311 18.8799 5.29252L18.7099 5.12234C18.3195 4.73148 17.6861 4.73125 17.2954 5.12182L7.707 14.7072C7.31641 15.0977 6.68325 15.0976 6.29278 14.707 5.90232 14.3164 5.90242 13.6833 6.293 13.2928L15.8814 3.70739ZM6.29289 3.29292C6.68342 2.9024 7.31658 2.9024 7.70711 3.29292L9.70711 5.29292C10.0976 5.68344 10.0976 6.31661 9.70711 6.70713 9.31658 7.09766 8.68342 7.09766 8.29289 6.70713L7 5.41424 5.41421 7.00003 6.70711 8.29292C7.09763 8.68344 7.09763 9.31661 6.70711 9.70713 6.31658 10.0977 5.68342 10.0977 5.29289 9.70713L3.29289 7.70713C2.90237 7.31661 2.90237 6.68344 3.29289 6.29292L6.29289 3.29292ZM17.2929 14.2929C17.6834 13.9024 18.3166 13.9024 18.7071 14.2929L20.7071 16.2929C21.0976 16.6834 21.0976 17.3166 20.7071 17.7071L17.7071 20.7071C17.3166 21.0977 16.6834 21.0977 16.2929 20.7071L14.2929 18.7071C13.9024 18.3166 13.9024 17.6834 14.2929 17.2929 14.6834 16.9024 15.3166 16.9024 15.7071 17.2929L17 18.5858 18.5858 17 17.2929 15.7071C16.9024 15.3166 16.9024 14.6834 17.2929 14.2929Z" clip-rule="evenodd"/><path class="fn-svg-icon" fill-rule="evenodd" d="M7 15C5.89543 15 5 15.8955 5 17V19H7C8.10457 19 9 18.1046 9 17C9 15.8955 8.10457 15 7 15ZM3 17C3 14.7909 4.79086 13 7 13C9.20914 13 11 14.7909 11 17C11 19.2092 9.20914 21 7 21H4C3.44772 21 3 20.5523 3 20V17Z" clip-rule="evenodd"/></svg>
