<svg xmlns="http://www.w3.org/2000/svg" viewBox="0 0 24 24"><path class="fn-svg-icon" fill-rule="evenodd" d="M2 12C2 6.47715 6.47715 2 12 2C17.5228 2 22 6.47715 22 12C22 17.5228 17.5228 22 12 22C6.47715 22 2 17.5228 2 12ZM12 4C7.58172 4 4 7.58172 4 12C4 16.4183 7.58172 20 12 20C16.4183 20 20 16.4183 20 12C20 7.58172 16.4183 4 12 4Z" clip-rule="evenodd"/><path class="fn-svg-icon" fill-rule="evenodd" d="M12 7C12.5523 7 13 6.55228 13 6 13 5.44772 12.5523 5 12 5 11.4477 5 11 5.44772 11 6 11 6.55228 11.4477 7 12 7ZM16.7071 7.29289C17.0316 7.61736 17.0936 8.12102 16.8575 8.5145L13.8575 13.5145C13.773 13.6552 13.6552 13.773 13.5145 13.8575L8.5145 16.8575C8.12102 17.0936 7.61736 17.0316 7.29289 16.7071 6.96842 16.3826 6.90642 15.879 7.14251 15.4855L10.1425 10.4855C10.227 10.3448 10.3448 10.227 10.4855 10.1425L15.4855 7.14251C15.879 6.90642 16.3826 6.96842 16.7071 7.29289Z" clip-rule="evenodd"/></svg>
