<svg xmlns="http://www.w3.org/2000/svg" viewBox="0 0 24 24"><path class="fn-svg-icon" fill-rule="evenodd" d="M2 12C2 6.47715 6.47715 2 12 2C17.5228 2 22 6.47715 22 12C22 14.2162 20.2123 16.0036 18 16.0036V14.0036C19.1068 14.0036 20 13.1126 20 12C20 7.58172 16.4183 4 12 4C7.58172 4 4 7.58172 4 12C4 16.4183 7.58172 20 12 20C12.3928 20 12.7039 19.9165 12.9387 19.8052C11.8077 19.3764 11 18.283 11 17.002C11 15.349 12.3425 14.0036 14 14.0036H18V16.0036H14C13.4475 16.0036 13 16.453 13 17.002C13 17.5488 13.4491 17.9989 14 17.9989C14.2835 17.9989 14.6092 18.0632 14.8992 18.2678C15.2027 18.4819 15.3806 18.7896 15.4468 19.1081C15.5668 19.6858 15.3222 20.2236 15.0656 20.5818C14.507 21.3617 13.4188 22 12 22C6.47715 22 2 17.5228 2 12ZM13.4888 19.3319C13.4892 19.3319 13.4881 19.3358 13.4845 19.3437C13.4866 19.3359 13.4884 19.3319 13.4888 19.3319Z" clip-rule="evenodd"/><path class="fn-svg-icon" fill-rule="evenodd" d="M17 12.5C17.8284 12.5 18.5 11.8284 18.5 11 18.5 10.1716 17.8284 9.5 17 9.5 16.1716 9.5 15.5 10.1716 15.5 11 15.5 11.8284 16.1716 12.5 17 12.5ZM14.5 9C15.3284 9 16 8.32843 16 7.5 16 6.67157 15.3284 6 14.5 6 13.6716 6 13 6.67157 13 7.5 13 8.32843 13.6716 9 14.5 9ZM9.5 9C10.3284 9 11 8.32843 11 7.5 11 6.67157 10.3284 6 9.5 6 8.67157 6 8 6.67157 8 7.5 8 8.32843 8.67157 9 9.5 9ZM7 12.5C7.82843 12.5 8.5 11.8284 8.5 11 8.5 10.1716 7.82843 9.5 7 9.5 6.17157 9.5 5.5 10.1716 5.5 11 5.5 11.8284 6.17157 12.5 7 12.5Z" clip-rule="evenodd"/></svg>
