<svg xmlns="http://www.w3.org/2000/svg" viewBox="0 0 24 24"><path class="fn-svg-icon" fill-rule="evenodd" d="M4.93082 6.34048C5.39716 6.63636 5.53534 7.25426 5.23945 7.7206 4.75908 8.47771 4.40277 9.32038 4.19843 10.2205 4.07616 10.759 3.54043 11.0965 3.00185 10.9743 2.46327 10.852 2.12579 10.3163 2.24806 9.77768 2.504 8.65027 2.95023 7.59549 3.55069 6.64911 3.84658 6.18277 4.46448 6.04459 4.93082 6.34048ZM3.00185 13.0248C3.54043 12.9025 4.07616 13.24 4.19843 13.7786 4.40277 14.6787 4.75908 15.5214 5.23945 16.2785 5.53534 16.7448 5.39716 17.3627 4.93082 17.6586 4.46448 17.9545 3.84658 17.8163 3.55069 17.35 2.95023 16.4036 2.504 15.3488 2.24806 14.2214 2.12579 13.6828 2.46327 13.1471 3.00185 13.0248ZM10.9771 3.00152C11.0992 3.54014 10.7615 4.07576 10.2229 4.19785 9.32861 4.40059 8.49093 4.75335 7.7375 5.22876 7.27042 5.52348 6.65287 5.38376 6.35815 4.91668 6.06343 4.44961 6.20315 3.83205 6.67022 3.53733 7.61203 2.94305 8.66058 2.50128 9.78077 2.24734 10.3194 2.12524 10.855 2.4629 10.9771 3.00152ZM10.9771 21.0015C11.0992 20.4629 10.7615 19.9273 10.2229 19.8052 9.32861 19.6024 8.49093 19.2497 7.7375 18.7743 7.27042 18.4796 6.65287 18.6193 6.35815 19.0864 6.06343 19.5534 6.20315 20.171 6.67022 20.4657 7.61203 21.06 8.66058 21.5018 9.78077 21.7557 10.3194 21.8778 10.855 21.5401 10.9771 21.0015ZM19.1483 6.29785C19.6088 6.0581 20.1762 6.21069 20.4544 6.64911 21.0549 7.59549 21.5011 8.65027 21.757 9.77768 21.872 10.2839 21.5804 10.7939 21.0859 10.9517 20.5913 11.1096 20.0582 10.8627 19.8587 10.3835L18.6868 7.56926C18.4873 7.08994 18.6877 6.5376 19.1483 6.29785ZM21.0859 13.0473C21.5804 13.2051 21.872 13.7152 21.757 14.2214 21.5011 15.3488 21.0549 16.4036 20.4544 17.35 20.1762 17.7884 19.6088 17.941 19.1483 17.7012 18.6877 17.4615 18.4873 16.9091 18.6868 16.4298L19.8587 13.6156C20.0582 13.1364 20.5913 12.8895 21.0859 13.0473ZM13.0471 2.91941C13.2045 2.42452 13.7146 2.13253 14.2211 2.24734 15.3413 2.50128 16.3898 2.94305 17.3316 3.53733 17.7709 3.81452 17.9249 4.38187 17.6859 4.84307 17.447 5.30427 16.8947 5.50574 16.4149 5.30675L13.6169 4.14631C13.1372 3.94735 12.8896 3.4143 13.0471 2.91941ZM17.6859 19.16C17.9249 19.6212 17.7709 20.1885 17.3316 20.4657 16.3898 21.06 15.3413 21.5018 14.2211 21.7557 13.7146 21.8705 13.2045 21.5785 13.0471 21.0836 12.8896 20.5887 13.1372 20.0557 13.6169 19.8567L16.4149 18.6963C16.8947 18.4973 17.447 18.6988 17.6859 19.16ZM12 6C12.5523 6 13 6.44771 13 7V11.6667L15.8 15.4C16.1314 15.8418 16.0418 16.4686 15.6 16.8 15.1582 17.1314 14.5314 17.0418 14.2 16.6L11.2 12.6C11.0702 12.4269 11 12.2164 11 12V7C11 6.44771 11.4477 6 12 6Z" clip-rule="evenodd"/></svg>
