<svg xmlns="http://www.w3.org/2000/svg" viewBox="0 0 24 24"><path class="fn-svg-icon" fill-rule="evenodd" d="M2 6C2 4.34315 3.34315 3 5 3H9.99805C10.2634 3 10.518 3.1055 10.7055 3.29326L12.4105 5H19C20.6569 5 22 6.34315 22 8V18C22 19.6569 20.6569 21 19 21H5C3.34315 21 2 19.6569 2 18V6ZM5 5C4.44772 5 4 5.44772 4 6V18C4 18.5523 4.44772 19 5 19H19C19.5523 19 20 18.5523 20 18V8C20 7.44772 19.5523 7 19 7H11.996C11.7306 7 11.4761 6.8945 11.2885 6.70674L9.58353 5H5Z" clip-rule="evenodd"/><path class="fn-svg-icon" fill-rule="evenodd" d="M5 9C5 8.44772 5.44772 8 6 8H18C18.2652 8 18.5196 8.10536 18.7071 8.29289C18.8946 8.48043 19 8.73478 19 9V11C19 11.5523 18.5523 12 18 12C17.4477 12 17 11.5523 17 11V10H7V11C7 11.5523 6.55228 12 6 12C5.44772 12 5 11.5523 5 11V9Z" clip-rule="evenodd"/><path class="fn-svg-icon" fill-rule="evenodd" d="M2 14C2 12.3431 3.34315 11 5 11H19C20.6569 11 22 12.3431 22 14V18C22 19.6569 20.6569 21 19 21H5C3.34315 21 2 19.6569 2 18V14ZM5 13C4.44772 13 4 13.4477 4 14V18C4 18.5523 4.44772 19 5 19H19C19.5523 19 20 18.5523 20 18V14C20 13.4477 19.5523 13 19 13H5Z" clip-rule="evenodd"/></svg>
