<svg xmlns="http://www.w3.org/2000/svg" viewBox="0 0 24 24"><path class="fn-svg-icon" fill-rule="evenodd" d="M13.5281 7.11833C13.8533 6.94431 14.2478 6.96338 14.5547 7.16795L20.5547 11.168C20.8329 11.3534 21 11.6656 21 12 21 12.3344 20.8329 12.6466 20.5547 12.8321L14.5547 16.8321C14.2478 17.0366 13.8533 17.0557 13.5281 16.8817 13.203 16.7077 13 16.3688 13 16V8C13 7.63121 13.203 7.29235 13.5281 7.11833ZM15 9.86852V14.1315L18.1972 12 15 9.86852ZM4.52814 7.11833C4.8533 6.94431 5.24784 6.96338 5.5547 7.16795L11.5547 11.168C11.8329 11.3534 12 11.6656 12 12 12 12.3344 11.8329 12.6466 11.5547 12.8321L5.5547 16.8321C5.24784 17.0366 4.8533 17.0557 4.52814 16.8817 4.20298 16.7077 4 16.3688 4 16V8C4 7.63121 4.20298 7.29235 4.52814 7.11833ZM6 9.86852V14.1315L9.19722 12 6 9.86852Z" clip-rule="evenodd"/></svg>
