<svg xmlns="http://www.w3.org/2000/svg" viewBox="0 0 24 24"><path class="fn-svg-icon" fill-rule="evenodd" d="M10.2929 2.29289C10.4804 2.10536 10.7348 2 11 2H19C19.2652 2 19.5196 2.10536 19.7071 2.29289C19.8946 2.48043 20 2.73478 20 3V21C20 21.5523 19.5523 22 19 22H5C4.44772 22 4 21.5523 4 21V9C4 8.73478 4.10536 8.48043 4.29289 8.29289L10.2929 2.29289ZM11.4142 4L6 9.41421V20H18V4H11.4142Z" clip-rule="evenodd"/><path class="fn-svg-icon" fill-rule="evenodd" d="M13.2929 12.2929C13.6834 11.9024 14.3166 11.9024 14.7071 12.2929L16.7071 14.2929C17.0976 14.6834 17.0976 15.3166 16.7071 15.7071L14.7071 17.7071C14.3166 18.0976 13.6834 18.0976 13.2929 17.7071 12.9024 17.3166 12.9024 16.6834 13.2929 16.2929L14.5858 15 13.2929 13.7071C12.9024 13.3166 12.9024 12.6834 13.2929 12.2929ZM10.7071 12.2929C11.0976 12.6834 11.0976 13.3166 10.7071 13.7071L9.41421 15 10.7071 16.2929C11.0976 16.6834 11.0976 17.3166 10.7071 17.7071 10.3166 18.0976 9.68342 18.0976 9.29289 17.7071L7.29289 15.7071C6.90237 15.3166 6.90237 14.6834 7.29289 14.2929L9.29289 12.2929C9.68342 11.9024 10.3166 11.9024 10.7071 12.2929ZM6 9H9C10.1046 9 11 8.10457 11 7V4" clip-rule="evenodd"/></svg>
