<svg xmlns="http://www.w3.org/2000/svg" viewBox="0 0 24 24"><path class="fn-svg-icon" fill-rule="evenodd" d="M21.9285 10.6286C22.1336 11.1414 21.8842 11.7234 21.3714 11.9285L16.3714 13.9285C16.3047 13.9552 16.2353 13.9746 16.1644 13.9864L10.4805 14.9337L3.70711 21.7071C3.31659 22.0976 2.68342 22.0976 2.2929 21.7071C1.90237 21.3166 1.90237 20.6834 2.2929 20.2929L9.2929 13.2929C9.44028 13.1455 9.63002 13.0479 9.83561 13.0136L15.729 12.0314L20.6286 10.0715C21.1414 9.86641 21.7234 10.1158 21.9285 10.6286Z" clip-rule="evenodd"/><path class="fn-svg-icon" fill-rule="evenodd" d="M21.3827 2.07612C21.7564 2.2309 22 2.59554 22 3V21C22 21.5523 21.5523 22 21 22C20.4477 22 20 21.5523 20 21V5.41421L15.7071 9.70711C15.4788 9.93547 15.1542 10.0395 14.8356 9.98639L9.58822 9.11183L3.90796 21.4191C3.67653 21.9205 3.0824 22.1394 2.58095 21.908C2.0795 21.6765 1.86061 21.0824 2.09205 20.5809L8.09205 7.58094C8.28086 7.17183 8.71996 6.93953 9.1644 7.0136L14.6568 7.929L20.2929 2.29289C20.5789 2.00689 21.009 1.92134 21.3827 2.07612Z" clip-rule="evenodd"/><path class="fn-svg-icon" fill-rule="evenodd" d="M21.8575 14.4855C22.1416 14.9591 21.9881 15.5733 21.5145 15.8575L16.5145 18.8575C16.2871 18.9939 16.0148 19.0345 15.7575 18.9701L12.0915 18.0536L3.40614 21.9138C2.90146 22.1381 2.3105 21.9108 2.08619 21.4061C1.86189 20.9015 2.08918 20.3105 2.59387 20.0862L11.5939 16.0862C11.7978 15.9956 12.0261 15.9757 12.2425 16.0299L15.8407 16.9294L20.4855 14.1425C20.9591 13.8584 21.5734 14.0119 21.8575 14.4855Z" clip-rule="evenodd"/><path class="fn-svg-icon" fill-rule="evenodd" d="M3.00001 2C3.55229 2 4.00001 2.44771 4.00001 3V20H21C21.5523 20 22 20.4477 22 21C22 21.5523 21.5523 22 21 22H3.00001C2.44772 22 2.00001 21.5523 2.00001 21V3C2.00001 2.44771 2.44772 2 3.00001 2Z" clip-rule="evenodd"/></svg>
