<svg xmlns="http://www.w3.org/2000/svg" viewBox="0 0 24 24"><path class="fn-svg-icon" fill-rule="evenodd" d="M15 16C15.5523 16 16 16.4477 16 17V21C16 21.5523 15.5523 22 15 22 14.4477 22 14 21.5523 14 21V17C14 16.4477 14.4477 16 15 16ZM18 14C18.5523 14 19 14.4477 19 15V21C19 21.5523 18.5523 22 18 22 17.4477 22 17 21.5523 17 21V15C17 14.4477 17.4477 14 18 14ZM21 18C21.5523 18 22 18.4477 22 19V21C22 21.5523 21.5523 22 21 22 20.4477 22 20 21.5523 20 21V19C20 18.4477 20.4477 18 21 18ZM3 14C3.55228 14 4 14.4477 4 15V21C4 21.5523 3.55228 22 3 22 2.44772 22 2 21.5523 2 21V15C2 14.4477 2.44772 14 3 14ZM6 18C6.55228 18 7 18.4477 7 19V21C7 21.5523 6.55228 22 6 22 5.44772 22 5 21.5523 5 21V19C5 18.4477 5.44772 18 6 18ZM9 16C9.55228 16 10 16.4477 10 17V21C10 21.5523 9.55228 22 9 22 8.44772 22 8 21.5523 8 21V17C8 16.4477 8.44772 16 9 16ZM3 6C3.55228 6 4 6.44772 4 7V9C4 9.55228 3.55228 10 3 10 2.44772 10 2 9.55228 2 9V7C2 6.44772 2.44772 6 3 6ZM6 2C6.55228 2 7 2.44772 7 3V9C7 9.55228 6.55228 10 6 10 5.44772 10 5 9.55228 5 9V3C5 2.44772 5.44772 2 6 2ZM9 4C9.55228 4 10 4.44772 10 5V9C10 9.55228 9.55228 10 9 10 8.44772 10 8 9.55228 8 9V5C8 4.44772 8.44772 4 9 4ZM15 4C15.5523 4 16 4.44772 16 5V9C16 9.55228 15.5523 10 15 10 14.4477 10 14 9.55228 14 9V5C14 4.44772 14.4477 4 15 4ZM18 6C18.5523 6 19 6.44772 19 7V9C19 9.55228 18.5523 10 18 10 17.4477 10 17 9.55228 17 9V7C17 6.44772 17.4477 6 18 6ZM21 2C21.5523 2 22 2.44772 22 3V9C22 9.55228 21.5523 10 21 10 20.4477 10 20 9.55228 20 9V3C20 2.44772 20.4477 2 21 2Z" clip-rule="evenodd"/></svg>
