<svg xmlns="http://www.w3.org/2000/svg" viewBox="0 0 24 24"><path class="fn-svg-icon" fill-rule="evenodd" d="M9.29289 7.29289C9.68342 6.90237 10.3166 6.90237 10.7071 7.29289L14.7071 11.2929C15.0976 11.6834 15.0976 12.3166 14.7071 12.7071L10.7071 16.7071C10.3166 17.0976 9.68342 17.0976 9.29289 16.7071C8.90237 16.3166 8.90237 15.6834 9.29289 15.2929L12.5858 12L9.29289 8.70711C8.90237 8.31658 8.90237 7.68342 9.29289 7.29289Z" clip-rule="evenodd"/><path class="fn-svg-icon" fill-rule="evenodd" d="M14.2929 7.29289C14.6834 6.90237 15.3166 6.90237 15.7071 7.29289L19.7071 11.2929C20.0976 11.6834 20.0976 12.3166 19.7071 12.7071L15.7071 16.7071C15.3166 17.0976 14.6834 17.0976 14.2929 16.7071 13.9024 16.3166 13.9024 15.6834 14.2929 15.2929L17.5858 12 14.2929 8.70711C13.9024 8.31658 13.9024 7.68342 14.2929 7.29289ZM16 4C16 3.44772 16.4477 3 17 3H23C23.5523 3 24 3.44772 24 4 24 4.55228 23.5523 5 23 5H17C16.4477 5 16 4.55228 16 4Z" clip-rule="evenodd"/><path class="fn-svg-icon" fill-rule="evenodd" d="M20 0C20.5523 0 21 .447715 21 1V7C21 7.55228 20.5523 8 20 8 19.4477 8 19 7.55228 19 7V1C19 .447715 19.4477 0 20 0ZM4.29289 7.29289C4.68342 6.90237 5.31658 6.90237 5.70711 7.29289L9.70711 11.2929C10.0976 11.6834 10.0976 12.3166 9.70711 12.7071L5.70711 16.7071C5.31658 17.0976 4.68342 17.0976 4.29289 16.7071 3.90237 16.3166 3.90237 15.6834 4.29289 15.2929L7.58579 12 4.29289 8.70711C3.90237 8.31658 3.90237 7.68342 4.29289 7.29289Z" clip-rule="evenodd"/></svg>
