<svg xmlns="http://www.w3.org/2000/svg" viewBox="0 0 24 24"><path class="fn-svg-icon" fill-rule="evenodd" d="M6 3C6.55228 3 7 3.44772 7 4V17H20C20.5523 17 21 17.4477 21 18C21 18.5523 20.5523 19 20 19H6C5.44772 19 5 18.5523 5 18V4C5 3.44772 5.44772 3 6 3Z" clip-rule="evenodd"/><path class="fn-svg-icon" fill-rule="evenodd" d="M17.7071 6.29289C18.0976 6.68342 18.0976 7.31658 17.7071 7.70711L6.70711 18.7071C6.31658 19.0976 5.68342 19.0976 5.29289 18.7071 4.90237 18.3166 4.90237 17.6834 5.29289 17.2929L16.2929 6.29289C16.6834 5.90237 17.3166 5.90237 17.7071 6.29289ZM5.29289 2.29289C5.68342 1.90237 6.31658 1.90237 6.70711 2.29289L9.70711 5.29289C10.0976 5.68342 10.0976 6.31658 9.70711 6.70711 9.31658 7.09763 8.68342 7.09763 8.29289 6.70711L6 4.41421 3.70711 6.70711C3.31658 7.09763 2.68342 7.09763 2.29289 6.70711 1.90237 6.31658 1.90237 5.68342 2.29289 5.29289L5.29289 2.29289Z" clip-rule="evenodd"/><path class="fn-svg-icon" fill-rule="evenodd" d="M13 6C13 5.44772 13.4477 5 14 5H18C18.2652 5 18.5196 5.10536 18.7071 5.29289 18.8946 5.48043 19 5.73478 19 6V10C19 10.5523 18.5523 11 18 11 17.4477 11 17 10.5523 17 10V7H14C13.4477 7 13 6.55228 13 6ZM17.2929 14.2929C17.6834 13.9024 18.3166 13.9024 18.7071 14.2929L21.7071 17.2929C21.8946 17.4804 22 17.7348 22 18 22 18.2652 21.8946 18.5196 21.7071 18.7071L18.7071 21.7071C18.3166 22.0976 17.6834 22.0976 17.2929 21.7071 16.9024 21.3166 16.9024 20.6834 17.2929 20.2929L19.5858 18 17.2929 15.7071C16.9024 15.3166 16.9024 14.6834 17.2929 14.2929Z" clip-rule="evenodd"/></svg>
