<svg xmlns="http://www.w3.org/2000/svg" viewBox="0 0 24 24"><path class="fn-svg-icon" fill-rule="evenodd" d="M14 4C14 3.44772 14.4477 3 15 3H19C19.5523 3 20 3.44772 20 4V6C20 6.55228 19.5523 7 19 7 18.4477 7 18 6.55228 18 6V5H15C14.4477 5 14 4.55228 14 4ZM3.99997 4C3.99997 3.44772 4.44769 3 4.99997 3H8.99998C9.55226 3 9.99998 3.44772 9.99998 4 9.99998 4.55228 9.55226 5 8.99998 5H5.99997V6C5.99997 6.55228 5.55226 7 4.99997 7 4.44769 7 3.99997 6.55228 3.99997 6V4Z" clip-rule="evenodd"/><path class="fn-svg-icon" fill-rule="evenodd" d="M7.99997 2C7.99997 1.44772 8.44769 1 8.99998 1H15C15.5523 1 16 1.44772 16 2V6C16 6.55228 15.5523 7 15 7H8.99998C8.44769 7 7.99997 6.55228 7.99997 6V2ZM9.99998 3V5H14V3H9.99998ZM11.5 11C11.2238 11 11 11.2239 11 11.5 11 11.7761 11.2238 12 11.5 12H12.5C13.8807 12 15 13.1193 15 14.5 15 15.8807 13.8807 17 12.5 17H9.99998C9.44769 17 8.99998 16.5523 8.99998 16 8.99998 15.4477 9.44769 15 9.99998 15H12.5C12.7761 15 13 14.7761 13 14.5 13 14.2239 12.7761 14 12.5 14H11.5C10.1193 14 8.99998 12.8807 8.99998 11.5 8.99998 10.1193 10.1193 9 11.5 9H14C14.5523 9 15 9.44772 15 10 15 10.5523 14.5523 11 14 11H11.5Z" clip-rule="evenodd"/><path class="fn-svg-icon" fill-rule="evenodd" d="M12 5C12.5523 5 13 5.44772 13 6V10C13 10.5523 12.5523 11 12 11 11.4477 11 11 10.5523 11 10V6C11 5.44772 11.4477 5 12 5ZM19.4472 9.10557C19.9412 9.35256 20.1414 9.95323 19.8944 10.4472L18.8944 12.4472C18.6474 12.9412 18.0467 13.1414 17.5528 12.8944 17.0588 12.6474 16.8586 12.0468 17.1055 11.5528L18.1055 9.55279C18.3525 9.05881 18.9532 8.85858 19.4472 9.10557ZM22.4472 9.10557C22.9412 9.35256 23.1414 9.95323 22.8944 10.4472L21.8944 12.4472C21.6474 12.9412 21.0467 13.1414 20.5528 12.8944 20.0588 12.6474 19.8586 12.0468 20.1055 11.5528L21.1055 9.55279C21.3525 9.05881 21.9532 8.85858 22.4472 9.10557ZM1.55276 9.10557C2.04674 8.85858 2.64741 9.05881 2.8944 9.55279L3.8944 11.5528C4.14139 12.0468 3.94117 12.6474 3.44719 12.8944 2.95321 13.1414 2.35254 12.9412 2.10555 12.4472L1.10555 10.4472C.858558 9.95323 1.05878 9.35256 1.55276 9.10557ZM4.99997 15C5.55226 15 5.99997 15.4477 5.99997 16V19H18V16C18 15.4477 18.4477 15 19 15 19.5523 15 20 15.4477 20 16V20C20 20.5523 19.5523 21 19 21H4.99997C4.44769 21 3.99997 20.5523 3.99997 20V16C3.99997 15.4477 4.44769 15 4.99997 15ZM4.55276 9.10557C5.04674 8.85858 5.64741 9.05881 5.8944 9.55279L6.8944 11.5528C7.14139 12.0468 6.94117 12.6474 6.44719 12.8944 5.95321 13.1414 5.35254 12.9412 5.10555 12.4472L4.10555 10.4472C3.85856 9.95323 4.05878 9.35256 4.55276 9.10557Z" clip-rule="evenodd"/><path class="fn-svg-icon" fill-rule="evenodd" d="M12 15C12.5523 15 13 15.4477 13 16V20C13 20.5523 12.5523 21 12 21C11.4477 21 11 20.5523 11 20V16C11 15.4477 11.4477 15 12 15Z" clip-rule="evenodd"/></svg>
