<svg xmlns="http://www.w3.org/2000/svg" viewBox="0 0 24 24"><path class="fn-svg-icon" fill-rule="evenodd" d="M12 7C12.5523 7 13 7.44772 13 8V14C13 14.5523 12.5523 15 12 15C11.4477 15 11 14.5523 11 14V8C11 7.44772 11.4477 7 12 7Z" clip-rule="evenodd"/><path class="fn-svg-icon" fill-rule="evenodd" d="M15 13H9L12 16L15 13Z" clip-rule="evenodd"/><path class="fn-svg-icon" fill-rule="evenodd" d="M8.07612 12.6173C8.2309 12.2436 8.59554 12 9 12H15C15.4045 12 15.7691 12.2436 15.9239 12.6173C16.0787 12.991 15.9931 13.4211 15.7071 13.7071L12.7071 16.7071C12.3166 17.0976 11.6834 17.0976 11.2929 16.7071L8.29289 13.7071C8.0069 13.4211 7.92134 12.991 8.07612 12.6173Z" clip-rule="evenodd"/><path class="fn-svg-icon" fill-rule="evenodd" d="M3 6C3 4.34315 4.34315 3 6 3H18C19.6569 3 21 4.34315 21 6V18C21 19.6569 19.6569 21 18 21H6C4.34315 21 3 19.6569 3 18V6ZM6 5C5.44772 5 5 5.44772 5 6V18C5 18.5523 5.44772 19 6 19H18C18.5523 19 19 18.5523 19 18V6C19 5.44772 18.5523 5 18 5H6Z" clip-rule="evenodd"/></svg>
