<svg xmlns="http://www.w3.org/2000/svg" viewBox="0 0 24 24"><path class="fn-svg-icon" fill-rule="evenodd" d="M3 6C3 5.44772 3.44772 5 4 5H20C20.5523 5 21 5.44772 21 6 21 6.55228 20.5523 7 20 7H4C3.44772 7 3 6.55228 3 6ZM3 14C3 13.4477 3.44772 13 4 13H20C20.5523 13 21 13.4477 21 14 21 14.5523 20.5523 15 20 15H4C3.44772 15 3 14.5523 3 14ZM7 10C7 9.44772 7.44772 9 8 9H16C16.5523 9 17 9.44772 17 10 17 10.5523 16.5523 11 16 11H8C7.44772 11 7 10.5523 7 10ZM7 18C7 17.4477 7.44772 17 8 17H16C16.5523 17 17 17.4477 17 18 17 18.5523 16.5523 19 16 19H8C7.44772 19 7 18.5523 7 18Z" clip-rule="evenodd"/></svg>
