<svg xmlns="http://www.w3.org/2000/svg" viewBox="0 0 24 24"><path class="fn-svg-icon" fill-rule="evenodd" d="M16.5 5C16.2238 5 16 5.22386 16 5.5 16 5.77614 16.2238 6 16.5 6H18.5C19.8807 6 21 7.11929 21 8.5 21 9.88071 19.8807 11 18.5 11H15C14.4477 11 14 10.5523 14 10 14 9.44772 14.4477 9 15 9H18.5C18.7761 9 19 8.77614 19 8.5 19 8.22386 18.7761 8 18.5 8H16.5C15.1193 8 14 6.88071 14 5.5 14 4.11929 15.1193 3 16.5 3H20C20.5523 3 21 3.44772 21 4 21 4.55228 20.5523 5 20 5H16.5ZM11.7071 13.2929C12.0976 13.6834 12.0976 14.3166 11.7071 14.7071L6.70708 19.7071C6.31656 20.0976 5.68339 20.0976 5.29287 19.7071 4.90234 19.3166 4.90234 18.6834 5.29287 18.2929L10.2929 13.2929C10.6834 12.9024 11.3166 12.9024 11.7071 13.2929Z" clip-rule="evenodd"/><path class="fn-svg-icon" fill-rule="evenodd" d="M17.5 12C18.3284 12 19 11.3284 19 10.5 19 9.67157 18.3284 9 17.5 9 16.6715 9 16 9.67157 16 10.5 16 11.3284 16.6715 12 17.5 12ZM17.5 5C18.3284 5 19 4.32843 19 3.5 19 2.67157 18.3284 2 17.5 2 16.6715 2 16 2.67157 16 3.5 16 4.32843 16.6715 5 17.5 5ZM5.13047 8.31672C5.54704 8.10844 6.00638 8 6.47211 8H7.52784C7.99358 8 8.45291 8.10844 8.86948 8.31672L10.4472 9.10557C10.862 9.31298 11.0798 9.77838 10.9732 10.2298 10.8667 10.6811 10.4638 11 9.99998 11H3.99998C3.5362 11 3.13328 10.6811 3.02673 10.2298 2.92017 9.77838 3.13795 9.31298 3.55276 9.10557L5.13047 8.31672ZM6.99998 7C8.10455 7 8.99998 6.10457 8.99998 5 8.99998 3.89543 8.10455 3 6.99998 3 5.89541 3 4.99998 3.89543 4.99998 5 4.99998 6.10457 5.89541 7 6.99998 7ZM10.7071 14.2929C10.9435 14.5293 11.0461 14.8683 10.9806 15.1961L9.98056 20.1961C9.87973 20.7003 9.41306 21.0458 8.90144 20.9951 8.38982 20.9445 7.99998 20.5141 7.99998 20V17H4.99998C4.48585 17 4.0555 16.6102 4.00484 16.0985 3.95418 15.5869 4.29972 15.1202 4.80386 15.0194L9.80386 14.0194C10.1317 13.9538 10.4707 14.0565 10.7071 14.2929Z" clip-rule="evenodd"/><path class="fn-svg-icon" fill-rule="evenodd" d="M2.99998 19C2.99998 18.4477 3.44769 18 3.99998 18H5.99998C6.26519 18 6.51955 18.1054 6.70708 18.2929 6.89462 18.4804 6.99998 18.7348 6.99998 19V21C6.99998 21.5523 6.55226 22 5.99998 22 5.44769 22 4.99998 21.5523 4.99998 21V20H3.99998C3.44769 20 2.99998 19.5523 2.99998 19ZM14 17C14.5523 17 15 17.4477 15 18V20C15 20.5523 14.5523 21 14 21 13.4477 21 13 20.5523 13 20V18C13 17.4477 13.4477 17 14 17ZM17 15C17.5523 15 18 15.4477 18 16V20C18 20.5523 17.5523 21 17 21 16.4477 21 16 20.5523 16 20V16C16 15.4477 16.4477 15 17 15ZM20 13C20.5523 13 21 13.4477 21 14V20C21 20.5523 20.5523 21 20 21 19.4477 21 19 20.5523 19 20V14C19 13.4477 19.4477 13 20 13Z" clip-rule="evenodd"/></svg>
