<svg xmlns="http://www.w3.org/2000/svg" viewBox="0 0 24 24"><path class="fn-svg-icon" fill-rule="evenodd" d="M4 9C4 8.44772 4.44772 8 5 8H15C17.7614 8 20 10.2386 20 13C20 15.7614 17.7614 18 15 18H9C8.44772 18 8 17.5523 8 17C8 16.4477 8.44772 16 9 16H15C16.6569 16 18 14.6569 18 13C18 11.3431 16.6569 10 15 10H5C4.44772 10 4 9.55228 4 9Z" clip-rule="evenodd"/><path class="fn-svg-icon" fill-rule="evenodd" d="M9.70711 4.29289C10.0976 4.68342 10.0976 5.31658 9.70711 5.70711L6.41421 9L9.70711 12.2929C10.0976 12.6834 10.0976 13.3166 9.70711 13.7071C9.31658 14.0976 8.68342 14.0976 8.29289 13.7071L4.29289 9.70711C3.90237 9.31658 3.90237 8.68342 4.29289 8.29289L8.29289 4.29289C8.68342 3.90237 9.31658 3.90237 9.70711 4.29289Z" clip-rule="evenodd"/></svg>
