<svg xmlns="http://www.w3.org/2000/svg" viewBox="0 0 24 24"><path class="fn-svg-icon" fill-rule="evenodd" d="M2 12C2 6.47715 6.47715 2 12 2C17.5228 2 22 6.47715 22 12C22 17.5228 17.5228 22 12 22C6.47715 22 2 17.5228 2 12ZM12 4C7.58172 4 4 7.58172 4 12C4 16.4183 7.58172 20 12 20C16.4183 20 20 16.4183 20 12C20 7.58172 16.4183 4 12 4Z" clip-rule="evenodd"/><path class="fn-svg-icon" fill-rule="evenodd" d="M11 16C11.5523 16 12 16.4477 12 17V21C12 21.5523 11.5523 22 11 22 10.4477 22 10 21.5523 10 21V17C10 16.4477 10.4477 16 11 16ZM14.7071 6.29289C15.0976 6.68342 15.0976 7.31658 14.7071 7.70711L10.8787 11.5355C9.941 12.4732 8.66923 13 7.34315 13H3C2.44772 13 2 12.5523 2 12 2 11.4477 2.44772 11 3 11H7.34315C8.1388 11 8.90186 10.6839 9.46447 10.1213L13.2929 6.29289C13.6834 5.90237 14.3166 5.90237 14.7071 6.29289ZM14 14C14.5523 14 15 14.4477 15 15V20C15 20.5523 14.5523 21 14 21 13.4477 21 13 20.5523 13 20V15C13 14.4477 13.4477 14 14 14Z" clip-rule="evenodd"/><path class="fn-svg-icon" fill-rule="evenodd" d="M9 7C9 6.44772 9.44772 6 10 6H14C14.5523 6 15 6.44772 15 7V11C15 11.5523 14.5523 12 14 12 13.4477 12 13 11.5523 13 11V8H10C9.44772 8 9 7.55228 9 7ZM17 11C17.5523 11 18 11.4477 18 12V19C18 19.5523 17.5523 20 17 20 16.4477 20 16 19.5523 16 19V12C16 11.4477 16.4477 11 17 11Z" clip-rule="evenodd"/></svg>
