<svg xmlns="http://www.w3.org/2000/svg" viewBox="0 0 24 24"><path class="fn-svg-icon" fill-rule="evenodd" d="M2 9C2 6.79086 3.79086 5 6 5H18C20.2091 5 22 6.79086 22 9V13C22 15.2091 20.2091 17 18 17H6C3.79086 17 2 15.2091 2 13V9ZM6 7C4.89543 7 4 7.89543 4 9V13C4 14.1046 4.89543 15 6 15H18C19.1046 15 20 14.1046 20 13V9C20 7.89543 19.1046 7 18 7H6Z" clip-rule="evenodd"/><path class="fn-svg-icon" fill-rule="evenodd" d="M6 9C6.55228 9 7 9.44772 7 10V12C7 12.5523 6.55228 13 6 13 5.44772 13 5 12.5523 5 12V10C5 9.44772 5.44772 9 6 9ZM9 9C9.55228 9 10 9.44772 10 10V12C10 12.5523 9.55228 13 9 13 8.44772 13 8 12.5523 8 12V10C8 9.44772 8.44772 9 9 9ZM6 19C6 18.4477 6.44772 18 7 18H9C9.55228 18 10 18.4477 10 19 10 19.5523 9.55228 20 9 20H7C6.44772 20 6 19.5523 6 19ZM14 19C14 18.4477 14.4477 18 15 18H17C17.5523 18 18 18.4477 18 19 18 19.5523 17.5523 20 17 20H15C14.4477 20 14 19.5523 14 19ZM13 11C13 12.6569 14.3431 14 16 14 17.6569 14 19 12.6569 19 11 19 9.34315 17.6569 8 16 8 14.3431 8 13 9.34315 13 11ZM16 12C15.4477 12 15 11.5523 15 11 15 10.4477 15.4477 10 16 10 16.5523 10 17 10.4477 17 11 17 11.5523 16.5523 12 16 12Z" clip-rule="evenodd"/></svg>
