<svg xmlns="http://www.w3.org/2000/svg" viewBox="0 0 24 24"><path class="fn-svg-icon" fill-rule="evenodd" d="M5 5C4.44772 5 4 5.44772 4 6V18C4 18.5523 4.44772 19 5 19H8C8.55228 19 9 19.4477 9 20C9 20.5523 8.55228 21 8 21H5C3.34315 21 2 19.6569 2 18V6C2 4.34315 3.34315 3 5 3H19C20.6569 3 22 4.34315 22 6V18C22 19.6569 20.6569 21 19 21H16C15.4477 21 15 20.5523 15 20C15 19.4477 15.4477 19 16 19H19C19.5523 19 20 18.5523 20 18V6C20 5.44772 19.5523 5 19 5H5Z" clip-rule="evenodd"/><path class="fn-svg-icon" fill-rule="evenodd" d="M3 8C3 7.44772 3.44772 7 4 7H20C20.5523 7 21 7.44772 21 8 21 8.55228 20.5523 9 20 9H4C3.44772 9 3 8.55228 3 8ZM12 12C12.5523 12 13 12.4477 13 13V20C13 20.5523 12.5523 21 12 21 11.4477 21 11 20.5523 11 20V13C11 12.4477 11.4477 12 12 12Z" clip-rule="evenodd"/><path class="fn-svg-icon" fill-rule="evenodd" d="M11.2929 11.2929C11.6834 10.9024 12.3166 10.9024 12.7071 11.2929L15.7071 14.2929C15.9931 14.5789 16.0787 15.009 15.9239 15.3827C15.7691 15.7564 15.4045 16 15 16H9C8.59554 16 8.2309 15.7564 8.07612 15.3827C7.92134 15.009 8.0069 14.5789 8.29289 14.2929L11.2929 11.2929Z" clip-rule="evenodd"/></svg>
