<svg xmlns="http://www.w3.org/2000/svg" viewBox="0 0 24 24"><path class="fn-svg-icon" fill-rule="evenodd" d="M8.07051 6.99854C7.73612 6.99854 7.42386 7.16568 7.2384 7.44393L4.20181 11.9999L7.23832 16.5547C7.42378 16.8329 7.73601 17 8.07037 17H18C18.5523 17 19 16.5523 19 16V7.99854C19 7.44625 18.5523 6.99854 18 6.99854H8.07051ZM5.57417 6.33472C6.13054 5.49996 7.06733 4.99854 8.07051 4.99854H18C19.6569 4.99854 21 6.34168 21 7.99854V16C21 17.6569 19.6569 19 18 19H8.07037C7.06731 19 6.13061 18.4987 5.57422 17.6641L2.16795 12.5547C1.94404 12.2188 1.94401 11.7813 2.16789 11.4454L5.57417 6.33472Z" clip-rule="evenodd"/><path class="fn-svg-icon" fill-rule="evenodd" d="M8.5 13.5C9.32843 13.5 10 12.8284 10 12C10 11.1716 9.32843 10.5 8.5 10.5C7.67157 10.5 7 11.1716 7 12C7 12.8284 7.67157 13.5 8.5 13.5Z" clip-rule="evenodd"/></svg>
