<svg xmlns="http://www.w3.org/2000/svg" viewBox="0 0 24 24"><path class="fn-svg-icon" fill-rule="evenodd" d="M15 4C15 3.44772 15.4477 3 16 3H18C19.6569 3 21 4.34315 21 6V8C21 8.55228 20.5523 9 20 9 19.4477 9 19 8.55228 19 8V6C19 5.44772 18.5523 5 18 5H16C15.4477 5 15 4.55228 15 4ZM20 15C20.5523 15 21 15.4477 21 16V18C21 19.6569 19.6569 21 18 21H16C15.4477 21 15 20.5523 15 20 15 19.4477 15.4477 19 16 19H18C18.5523 19 19 18.5523 19 18V16C19 15.4477 19.4477 15 20 15ZM4 15C4.55228 15 5 15.4477 5 16V18C5 18.5523 5.44772 19 6 19H8C8.55228 19 9 19.4477 9 20 9 20.5523 8.55228 21 8 21H6C4.34315 21 3 19.6569 3 18V16C3 15.4477 3.44772 15 4 15ZM6 5C5.44772 5 5 5.44772 5 6V8C5 8.55228 4.55228 9 4 9 3.44772 9 3 8.55228 3 8V6C3 4.34315 4.34315 3 6 3H8C8.55228 3 9 3.44772 9 4 9 4.55228 8.55228 5 8 5H6ZM12 7C12.3877 7 12.7405 7.2241 12.9052 7.57507L13.9147 9.72559 16.1519 10.0694C16.5223 10.1264 16.8297 10.3856 16.9485 10.741 17.0672 11.0964 16.9773 11.4883 16.7155 11.7564L15.0682 13.4435 15.459 15.839C15.5206 16.217 15.361 16.597 15.0479 16.8175 14.7348 17.0381 14.3232 17.0604 13.9881 16.8751L12 15.7757 10.0119 16.8751C9.67678 17.0604 9.26522 17.0381 8.95213 16.8175 8.63903 16.597 8.47939 16.217 8.54104 15.839L8.93176 13.4435 7.2845 11.7564C7.02272 11.4883 6.9328 11.0964 7.05153 10.741 7.17026 10.3856 7.47772 10.1264 7.84809 10.0694L10.0853 9.72559 11.0948 7.57507C11.2595 7.2241 11.6123 7 12 7Z" clip-rule="evenodd"/></svg>
