<svg xmlns="http://www.w3.org/2000/svg" viewBox="0 0 24 24"><path class="fn-svg-icon" fill-rule="evenodd" d="M19.7929 4.20709C19.355 3.76919 18.645 3.76919 18.2071 4.20709L14.7071 7.70709C14.4392 7.97492 14.0431 8.06844 13.6837 7.94867L5.50654 5.22293L5.31746 5.60108L11.4961 9.13174C11.7667 9.28637 11.9498 9.55833 11.9911 9.86725C12.0325 10.1762 11.9275 10.4867 11.7071 10.7071L8.70708 13.7071C8.51955 13.8946 8.26519 14 7.99997 14H4.61801L4.34162 14.5528L7.44719 16.1056C7.64072 16.2023 7.79764 16.3592 7.8944 16.5528L9.44719 19.6583L9.99998 19.382V16C9.99998 15.7348 10.1053 15.4804 10.2929 15.2929L12.2929 13.2929C12.6834 12.9024 13.3166 12.9024 13.7071 13.2929C14.0976 13.6834 14.0976 14.3166 13.7071 14.7071L12 16.4142V20C12 20.3788 11.786 20.725 11.4472 20.8944L9.44719 21.8944C8.95321 22.1414 8.35254 21.9412 8.10555 21.4472L6.25462 17.7453L2.55276 15.8944C2.05878 15.6474 1.85856 15.0467 2.10555 14.5528L3.10555 12.5528C3.27494 12.214 3.6212 12 3.99997 12H7.58576L9.36709 10.2187L3.50384 6.86823C3.04303 6.60491 2.8682 6.02747 3.10555 5.55277L4.10555 3.55277C4.3281 3.10766 4.84409 2.89393 5.3162 3.0513L13.7299 5.85586L16.7929 2.79288C18.0118 1.57392 19.9881 1.57392 21.2071 2.79288C22.426 4.01183 22.426 5.98814 21.2071 7.20709L20.7071 7.70709C20.3166 8.09761 19.6834 8.09761 19.2929 7.70709C18.9023 7.31657 18.9023 6.6834 19.2929 6.29288L19.7929 5.79288C20.2308 5.35497 20.2308 4.64499 19.7929 4.20709Z" clip-rule="evenodd"/><path class="fn-svg-icon" fill-rule="evenodd" d="M9.70708 3.29288C10.0976 3.6834 10.0976 4.31656 9.70708 4.70709L8.70708 5.70709C8.31656 6.09761 7.68339 6.09761 7.29287 5.70709 6.90234 5.31656 6.90234 4.6834 7.29287 4.29288L8.29287 3.29288C8.68339 2.90235 9.31656 2.90235 9.70708 3.29288ZM8.70708 15.2929C9.09761 15.6834 9.09761 16.3166 8.70708 16.7071L7.70708 17.7071C7.31656 18.0976 6.68339 18.0976 6.29287 17.7071 5.90234 17.3166 5.90234 16.6834 6.29287 16.2929L7.29287 15.2929C7.68339 14.9024 8.31656 14.9024 8.70708 15.2929ZM12.7071 4.29288C13.0976 4.6834 13.0976 5.31656 12.7071 5.70709L11.7071 6.70709C11.3166 7.09761 10.6834 7.09761 10.2929 6.70709 9.90234 6.31656 9.90234 5.6834 10.2929 5.29288L11.2929 4.29288C11.6834 3.90235 12.3166 3.90235 12.7071 4.29288ZM17.5 13C17.2238 13 17 13.2238 17 13.5 17 13.7761 17.2238 14 17.5 14H18.5C19.8807 14 21 15.1193 21 16.5 21 17.8807 19.8807 19 18.5 19H16C15.4477 19 15 18.5523 15 18 15 17.4477 15.4477 17 16 17H18.5C18.7761 17 19 16.7761 19 16.5 19 16.2238 18.7761 16 18.5 16H17.5C16.1193 16 15 14.8807 15 13.5 15 12.1193 16.1193 11 17.5 11H20C20.5523 11 21 11.4477 21 12 21 12.5523 20.5523 13 20 13H17.5Z" clip-rule="evenodd"/><path class="fn-svg-icon" fill-rule="evenodd" d="M18 8.99998C18.5523 8.99998 19 9.4477 19 9.99998V11C19 11.5523 18.5523 12 18 12 17.4477 12 17 11.5523 17 11V9.99998C17 9.4477 17.4477 8.99998 18 8.99998ZM18 18C18.5523 18 19 18.4477 19 19V20C19 20.5523 18.5523 21 18 21 17.4477 21 17 20.5523 17 20V19C17 18.4477 17.4477 18 18 18Z" clip-rule="evenodd"/></svg>
