<svg xmlns="http://www.w3.org/2000/svg" viewBox="0 0 24 24"><path class="fn-svg-icon" fill-rule="evenodd" d="M11.2929 1.29289C11.6834 0.902369 12.3166 0.902369 12.7071 1.29289L15.7071 4.29289C16.0976 4.68342 16.0976 5.31658 15.7071 5.70711C15.3166 6.09763 14.6834 6.09763 14.2929 5.70711L12 3.41421L9.70711 5.70711C9.31658 6.09763 8.68342 6.09763 8.29289 5.70711C7.90237 5.31658 7.90237 4.68342 8.29289 4.29289L11.2929 1.29289Z" clip-rule="evenodd"/><path class="fn-svg-icon" fill-rule="evenodd" d="M11.2929 5.29289C11.6834 4.90237 12.3166 4.90237 12.7071 5.29289L15.7071 8.29289C16.0976 8.68342 16.0976 9.31658 15.7071 9.70711 15.3166 10.0976 14.6834 10.0976 14.2929 9.70711L12 7.41421 9.70711 9.70711C9.31658 10.0976 8.68342 10.0976 8.29289 9.70711 7.90237 9.31658 7.90237 8.68342 8.29289 8.29289L11.2929 5.29289ZM8.29289 14.2929C8.68342 13.9024 9.31658 13.9024 9.70711 14.2929L12 16.5858 14.2929 14.2929C14.6834 13.9024 15.3166 13.9024 15.7071 14.2929 16.0976 14.6834 16.0976 15.3166 15.7071 15.7071L12.7071 18.7071C12.3166 19.0976 11.6834 19.0976 11.2929 18.7071L8.29289 15.7071C7.90237 15.3166 7.90237 14.6834 8.29289 14.2929Z" clip-rule="evenodd"/><path class="fn-svg-icon" fill-rule="evenodd" d="M8.29289 18.2929C8.68342 17.9024 9.31658 17.9024 9.70711 18.2929L12 20.5858L14.2929 18.2929C14.6834 17.9024 15.3166 17.9024 15.7071 18.2929C16.0976 18.6834 16.0976 19.3166 15.7071 19.7071L12.7071 22.7071C12.3166 23.0976 11.6834 23.0976 11.2929 22.7071L8.29289 19.7071C7.90237 19.3166 7.90237 18.6834 8.29289 18.2929Z" clip-rule="evenodd"/></svg>
