<svg xmlns="http://www.w3.org/2000/svg" viewBox="0 0 24 24"><path class="fn-svg-icon" fill-rule="evenodd" d="M1 6C1 5.44772 1.44772 5 2 5H6C6.55228 5 7 5.44772 7 6 7 6.55228 6.55228 7 6 7H2C1.44772 7 1 6.55228 1 6ZM9 6C9 5.44772 9.44772 5 10 5H16C17.6569 5 19 6.34315 19 8V14C19 14.5523 18.5523 15 18 15 17.4477 15 17 14.5523 17 14V8C17 7.44772 16.5523 7 16 7H10C9.44772 7 9 6.55228 9 6ZM18 17C18.5523 17 19 17.4477 19 18V22C19 22.5523 18.5523 23 18 23 17.4477 23 17 22.5523 17 22V18C17 17.4477 17.4477 17 18 17Z" clip-rule="evenodd"/><path class="fn-svg-icon" fill-rule="evenodd" d="M6 1C6.55228 1 7 1.44772 7 2V16C7 16.5523 7.44772 17 8 17H22C22.5523 17 23 17.4477 23 18C23 18.5523 22.5523 19 22 19H8C6.34315 19 5 17.6569 5 16V2C5 1.44772 5.44772 1 6 1Z" clip-rule="evenodd"/></svg>
