<svg xmlns="http://www.w3.org/2000/svg" viewBox="0 0 24 24"><path class="fn-svg-icon" fill-rule="evenodd" d="M7 6C6.44772 6 6 6.44772 6 7V19C6 19.5523 6.44772 20 7 20H17C17.5523 20 18 19.5523 18 19V7C18 6.44772 17.5523 6 17 6H15C14.4477 6 14 5.55228 14 5C14 4.44772 14.4477 4 15 4H17C18.6569 4 20 5.34315 20 7V19C20 20.6569 18.6569 22 17 22H7C5.34315 22 4 20.6569 4 19V7C4 5.34315 5.34315 4 7 4H9C9.55228 4 10 4.44772 10 5C10 5.55228 9.55228 6 9 6H7Z" clip-rule="evenodd"/><path class="fn-svg-icon" fill-rule="evenodd" d="M8 4C8 2.89543 8.89543 2 10 2H14C15.1046 2 16 2.89543 16 4V6C16 7.10457 15.1046 8 14 8H10C8.89543 8 8 7.10457 8 6V4ZM14 4H10V6H14V4ZM8 16.8C8 15.2536 9.2536 14 10.8 14H13.2C14.7464 14 16 15.2536 16 16.8V17C16 17.5523 15.5523 18 15 18H9C8.44772 18 8 17.5523 8 17V16.8ZM12 13C13.1046 13 14 12.1046 14 11 14 9.89543 13.1046 9 12 9 10.8954 9 10 9.89543 10 11 10 12.1046 10.8954 13 12 13Z" clip-rule="evenodd"/></svg>
