<svg xmlns="http://www.w3.org/2000/svg" viewBox="0 0 24 24"><path class="fn-svg-icon" fill-rule="evenodd" d="M5 4C4.44772 4 4 4.44772 4 5V15C4 15.5523 4.44772 16 5 16H17C17.2652 16 17.5196 16.1054 17.7071 16.2929L20 18.5858V5C20 4.44772 19.5523 4 19 4H5ZM2 5C2 3.34315 3.34315 2 5 2H19C20.6569 2 22 3.34315 22 5V21C22 21.4045 21.7564 21.7691 21.3827 21.9239C21.009 22.0787 20.5789 21.9931 20.2929 21.7071L16.5858 18H5C3.34315 18 2 16.6569 2 15V5Z" clip-rule="evenodd"/><path class="fn-svg-icon" fill-rule="evenodd" d="M12 6C12.5523 6 13 6.44772 13 7V9C13 9.55228 12.5523 10 12 10 11.4477 10 11 9.55228 11 9V7C11 6.44772 11.4477 6 12 6ZM12 14.5C12.8284 14.5 13.5 13.8284 13.5 13 13.5 12.1716 12.8284 11.5 12 11.5 11.1716 11.5 10.5 12.1716 10.5 13 10.5 13.8284 11.1716 14.5 12 14.5Z" clip-rule="evenodd"/></svg>
