<svg xmlns="http://www.w3.org/2000/svg" viewBox="0 0 24 24"><path class="fn-svg-icon" fill-rule="evenodd" d="M10 9C10.5523 9 11 9.44772 11 10V11C11 11.5523 10.5523 12 10 12 9.44772 12 9 11.5523 9 11V10C9 9.44772 9.44772 9 10 9ZM10 16C10.5523 16 11 16.4477 11 17V20C11 20.5523 10.5523 21 10 21 9.44772 21 9 20.5523 9 20V17C9 16.4477 9.44772 16 10 16ZM10 15C10.5523 15 11 14.5523 11 14 11 13.4477 10.5523 13 10 13 9.44772 13 9 13.4477 9 14 9 14.5523 9.44772 15 10 15ZM14 12C14.5523 12 15 12.4477 15 13V14C15 14.5523 14.5523 15 14 15 13.4477 15 13 14.5523 13 14V13C13 12.4477 13.4477 12 14 12ZM18 4C18.5523 4 19 4.44772 19 5V6C19 6.55228 18.5523 7 18 7 17.4477 7 17 6.55228 17 6V5C17 4.44772 17.4477 4 18 4ZM14 16C14.5523 16 15 16.4477 15 17V20C15 20.5523 14.5523 21 14 21 13.4477 21 13 20.5523 13 20V17C13 16.4477 13.4477 16 14 16ZM14 6C14.5523 6 15 6.44772 15 7V10C15 10.5523 14.5523 11 14 11 13.4477 11 13 10.5523 13 10V7C13 6.44772 13.4477 6 14 6ZM18 14C18.5523 14 19 14.4477 19 15V20C19 20.5523 18.5523 21 18 21 17.4477 21 17 20.5523 17 20V15C17 14.4477 17.4477 14 18 14ZM18 8C18.5523 8 19 8.44772 19 9V12C19 12.5523 18.5523 13 18 13 17.4477 13 17 12.5523 17 12V9C17 8.44772 17.4477 8 18 8ZM6 18C6.55228 18 7 18.4477 7 19V20C7 20.5523 6.55228 21 6 21 5.44772 21 5 20.5523 5 20V19C5 18.4477 5.44772 18 6 18ZM6 17C6.55228 17 7 16.5523 7 16 7 15.4477 6.55228 15 6 15 5.44772 15 5 15.4477 5 16 5 16.5523 5.44772 17 6 17ZM6 14C6.55228 14 7 13.5523 7 13 7 12.4477 6.55228 12 6 12 5.44772 12 5 12.4477 5 13 5 13.5523 5.44772 14 6 14Z" clip-rule="evenodd"/></svg>
