<svg xmlns="http://www.w3.org/2000/svg" viewBox="0 0 24 24"><path class="fn-svg-icon" fill-rule="evenodd" d="M2.29289 6.29289C2.48043 6.10536 2.73478 6 3 6H4C4.55228 6 5 6.44772 5 7V13C5 13.5523 4.55228 14 4 14H3C2.44772 14 2 13.5523 2 13V7C2 6.73478 2.10536 6.48043 2.29289 6.29289ZM2 16C2 15.4477 2.44772 15 3 15H4C4.55228 15 5 15.4477 5 16V17C5 17.5523 4.55228 18 4 18H3C2.44772 18 2 17.5523 2 17V16ZM9.29289 6.29289C9.48043 6.10536 9.73478 6 10 6H11C11.5523 6 12 6.44772 12 7V13C12 13.5523 11.5523 14 11 14H10C9.44772 14 9 13.5523 9 13V7C9 6.73478 9.10536 6.48043 9.29289 6.29289ZM7 6C7.55228 6 8 6.44772 8 7V13C8 13.5523 7.55228 14 7 14 6.44772 14 6 13.5523 6 13V7C6 6.44772 6.44772 6 7 6ZM7 15C7.55228 15 8 15.4477 8 16V17C8 17.5523 7.55228 18 7 18 6.44772 18 6 17.5523 6 17V16C6 15.4477 6.44772 15 7 15ZM9 16C9 15.4477 9.44772 15 10 15H11C11.5523 15 12 15.4477 12 16V17C12 17.5523 11.5523 18 11 18H10C9.44772 18 9 17.5523 9 17V16ZM19 16C19 15.4477 19.4477 15 20 15H21C21.5523 15 22 15.4477 22 16V17C22 17.5523 21.5523 18 21 18H20C19.4477 18 19 17.5523 19 17V16ZM14 15C14.5523 15 15 15.4477 15 16V17C15 17.5523 14.5523 18 14 18 13.4477 18 13 17.5523 13 17V16C13 15.4477 13.4477 15 14 15ZM17 15C17.5523 15 18 15.4477 18 16V17C18 17.5523 17.5523 18 17 18 16.4477 18 16 17.5523 16 17V16C16 15.4477 16.4477 15 17 15ZM14 6C14.5523 6 15 6.44772 15 7V13C15 13.5523 14.5523 14 14 14 13.4477 14 13 13.5523 13 13V7C13 6.44772 13.4477 6 14 6ZM17 6C17.5523 6 18 6.44772 18 7V13C18 13.5523 17.5523 14 17 14 16.4477 14 16 13.5523 16 13V7C16 6.44772 16.4477 6 17 6ZM19.2929 6.29289C19.4804 6.10536 19.7348 6 20 6H21C21.5523 6 22 6.44772 22 7V13C22 13.5523 21.5523 14 21 14H20C19.4477 14 19 13.5523 19 13V7C19 6.73478 19.1054 6.48043 19.2929 6.29289Z" clip-rule="evenodd"/></svg>
