<svg xmlns="http://www.w3.org/2000/svg" viewBox="0 0 24 24"><path class="fn-svg-icon" fill-rule="evenodd" d="M7.26186 6.03489C6.77989 6.04683 6.50359 6.1827 6.34315 6.34315 6.1827 6.50359 6.04683 6.77989 6.03489 7.26186 6.02278 7.75093 6.14345 8.38728 6.43335 9.14102 7.01215 10.6459 8.19657 12.4392 9.87868 14.1213 10.0402 14.2829 10.2031 14.4401 10.3668 14.5928 10.7707 14.9694 10.7927 15.6022 10.416 16.0061 10.0393 16.41 9.40656 16.4321 9.00267 16.0554 8.82195 15.8868 8.64243 15.7135 8.46447 15.5355 6.63185 13.7029 5.26746 11.6811 4.56665 9.85898 4.21675 8.94922 4.01491 8.04411 4.03551 7.21235 4.05628 6.37347 4.30833 5.54954 4.92893 4.92893 5.54954 4.30833 6.37347 4.05628 7.21235 4.03551 8.04411 4.01491 8.94922 4.21675 9.85898 4.56665 11.6811 5.26746 13.7029 6.63185 15.5355 8.46447 15.7109 8.63987 15.8818 8.81679 16.0481 8.99488 16.425 9.39858 16.4033 10.0314 15.9996 10.4083 15.5959 10.7851 14.9631 10.7634 14.5862 10.3597 14.4356 10.1984 14.2806 10.0379 14.1213 9.87868 12.4392 8.19657 10.6459 7.01215 9.14102 6.43335 8.38728 6.14345 7.75093 6.02278 7.26186 6.03489ZM14.2929 14.2929C14.6834 13.9024 15.3166 13.9024 15.7071 14.2929L20.7071 19.2929C21.0976 19.6834 21.0976 20.3166 20.7071 20.7071 20.3166 21.0976 19.6834 21.0976 19.2929 20.7071L14.2929 15.7071C13.9024 15.3166 13.9024 14.6834 14.2929 14.2929Z" clip-rule="evenodd"/><path class="fn-svg-icon" fill-rule="evenodd" d="M3.29289 3.29289C3.68342 2.90237 4.31658 2.90237 4.70711 3.29289L5.70711 4.29289C6.09763 4.68342 6.09763 5.31658 5.70711 5.70711C5.31658 6.09763 4.68342 6.09763 4.29289 5.70711L3.29289 4.70711C2.90237 4.31658 2.90237 3.68342 3.29289 3.29289Z" clip-rule="evenodd"/><path class="fn-svg-icon" fill-rule="evenodd" d="M2 12C2 6.47715 6.47715 2 12 2C15.0443 2 17.7716 3.36154 19.6042 5.50537C19.9433 5.90215 19.9203 6.49307 19.5512 6.8622L6.86325 19.5519C6.49417 19.921 5.90325 19.9442 5.50642 19.6051C3.36198 17.7725 2 15.0448 2 12ZM12 4C7.58172 4 4 7.58172 4 12C4 14.1039 4.81121 16.0175 6.14018 17.4464L17.4456 6.13943C16.0168 4.81091 14.1035 4 12 4Z" clip-rule="evenodd"/></svg>
