<svg xmlns="http://www.w3.org/2000/svg" viewBox="0 0 24 24"><path class="fn-svg-icon" fill-rule="evenodd" d="M12 4C12.5523 4 13 4.44772 13 5V19C13 19.5523 12.5523 20 12 20C11.4477 20 11 19.5523 11 19V5C11 4.44772 11.4477 4 12 4Z" clip-rule="evenodd"/><path class="fn-svg-icon" fill-rule="evenodd" d="M9 19C9 18.4477 9.44772 18 10 18H14C14.5523 18 15 18.4477 15 19 15 19.5523 14.5523 20 14 20H10C9.44772 20 9 19.5523 9 19ZM4 5C4 4.44772 4.44772 4 5 4H19C19.5523 4 20 4.44772 20 5V7C20 7.55228 19.5523 8 19 8 18.4477 8 18 7.55228 18 7V6H6V7C6 7.55228 5.55228 8 5 8 4.44772 8 4 7.55228 4 7V5Z" clip-rule="evenodd"/></svg>
