<svg xmlns="http://www.w3.org/2000/svg" viewBox="0 0 24 24"><path class="fn-svg-icon" fill-rule="evenodd" d="M3 6C3 5.44772 3.44772 5 4 5H10C10.5523 5 11 5.44772 11 6 11 6.55228 10.5523 7 10 7H4C3.44772 7 3 6.55228 3 6ZM13 12C13 11.4477 13.4477 11 14 11H20C20.5523 11 21 11.4477 21 12 21 12.5523 20.5523 13 20 13H14C13.4477 13 13 12.5523 13 12ZM15 18C15 17.4477 15.4477 17 16 17H20C20.5523 17 21 17.4477 21 18 21 18.5523 20.5523 19 20 19H16C15.4477 19 15 18.5523 15 18ZM17 6C17 5.44772 17.4477 5 18 5H20C20.5523 5 21 5.44772 21 6 21 6.55228 20.5523 7 20 7H18C17.4477 7 17 6.55228 17 6Z" clip-rule="evenodd"/><path class="fn-svg-icon" fill-rule="evenodd" d="M13 6C13 4.34315 14.3431 3 16 3 17.6569 3 19 4.34315 19 6 19 7.65685 17.6569 9 16 9 14.3431 9 13 7.65685 13 6ZM16 5C15.4477 5 15 5.44772 15 6 15 6.55228 15.4477 7 16 7 16.5523 7 17 6.55228 17 6 17 5.44772 16.5523 5 16 5ZM5 12C5 10.3431 6.34315 9 8 9 9.65685 9 11 10.3431 11 12 11 13.6569 9.65685 15 8 15 6.34315 15 5 13.6569 5 12ZM8 11C7.44772 11 7 11.4477 7 12 7 12.5523 7.44772 13 8 13 8.55228 13 9 12.5523 9 12 9 11.4477 8.55228 11 8 11ZM11 18C11 16.3431 12.3431 15 14 15 15.6569 15 17 16.3431 17 18 17 19.6569 15.6569 21 14 21 12.3431 21 11 19.6569 11 18ZM14 17C13.4477 17 13 17.4477 13 18 13 18.5523 13.4477 19 14 19 14.5523 19 15 18.5523 15 18 15 17.4477 14.5523 17 14 17Z" clip-rule="evenodd"/><path class="fn-svg-icon" fill-rule="evenodd" d="M3 12C3 11.4477 3.44772 11 4 11H6C6.55228 11 7 11.4477 7 12 7 12.5523 6.55228 13 6 13H4C3.44772 13 3 12.5523 3 12ZM3 18C3 17.4477 3.44772 17 4 17H8C8.55228 17 9 17.4477 9 18 9 18.5523 8.55228 19 8 19H4C3.44772 19 3 18.5523 3 18Z" clip-rule="evenodd"/></svg>
