<svg xmlns="http://www.w3.org/2000/svg" viewBox="0 0 24 24"><path class="fn-svg-icon" fill-rule="evenodd" d="M4 7C3.44772 7 3 7.44772 3 8V16C3 16.5523 3.44772 17 4 17H20C20.5523 17 21 16.5523 21 16V10C21 9.44772 21.4477 9 22 9C22.5523 9 23 9.44772 23 10V16C23 17.6569 21.6569 19 20 19H4C2.34315 19 1 17.6569 1 16V8C1 6.34315 2.34315 5 4 5H12C12.5523 5 13 5.44772 13 6C13 6.55228 12.5523 7 12 7H4Z" clip-rule="evenodd"/><path class="fn-svg-icon" fill-rule="evenodd" d="M5 10C5 9.44772 5.44772 9 6 9H8C8.55228 9 9 9.44772 9 10 9 10.5523 8.55228 11 8 11H6C5.44772 11 5 10.5523 5 10ZM5.13148 13.501C5.91594 11.932 8.00694 11.5927 9.24729 12.8331 9.35417 12.94 9.49913 13 9.65028 13H11C11.5523 13 12 13.4477 12 14 12 14.5523 11.5523 15 11 15H9.65028C8.9687 15 8.31503 14.7292 7.83307 14.2473 7.55801 13.9722 7.0943 14.0475 6.92033 14.3954L6.89443 14.4472C6.64744 14.9412 6.04677 15.1414 5.55279 14.8944 5.05881 14.6474 4.85858 14.0468 5.10557 13.5528L5.13148 13.501Z" clip-rule="evenodd"/><path class="fn-svg-icon" fill-rule="evenodd" d="M18 4C18.2652 4 18.5196 4.10536 18.7071 4.29289L20.7071 6.29289C21.0976 6.68342 21.0976 7.31658 20.7071 7.70711L13.7071 14.7071C13.5196 14.8946 13.2652 15 13 15L11 15C10.4477 15 10 14.5523 10 14V12C10 11.7348 10.1054 11.4804 10.2929 11.2929L17.2929 4.29289C17.4804 4.10536 17.7348 4 18 4ZM12 12.4142V13H12.5858L18.5858 7 18 6.41421 12 12.4142ZM20.2929 1.29289C20.6834.902369 21.3166.902369 21.7071 1.29289L23.7071 3.29289C24.0976 3.68342 24.0976 4.31658 23.7071 4.70711L22.7071 5.70711C22.3166 6.09763 21.6834 6.09763 21.2929 5.70711L19.2929 3.70711C18.9024 3.31658 18.9024 2.68342 19.2929 2.29289L20.2929 1.29289ZM18 15C18.5523 15 19 14.5523 19 14 19 13.4477 18.5523 13 18 13 17.4477 13 17 13.4477 17 14 17 14.5523 17.4477 15 18 15Z" clip-rule="evenodd"/></svg>
