<svg xmlns="http://www.w3.org/2000/svg" viewBox="0 0 24 24"><path class="fn-svg-icon" fill-rule="evenodd" d="M5.21992 3.68061C5.94057 3.23878 6.86135 3 7.99998 3H8.76391C9.90023 3 10.939 3.64201 11.4472 4.65836L11.9991 5.7621C12.6618 7.08762 12.2512 8.66903 11.097 9.51834C11.1573 9.702 11.2478 9.90946 11.3742 10.1371C11.6348 10.6064 12.0123 11.0963 12.4573 11.5416C12.9024 11.987 13.3919 12.3647 13.861 12.6255C14.0884 12.752 14.2957 12.8426 14.4792 12.9029C15.3285 11.748 16.9103 11.3371 18.236 12L19.3416 12.5528C20.358 13.061 21 14.0998 21 15.2361V16C21 17.139 20.7613 18.06 20.3197 18.7808C19.874 19.508 19.2636 19.9626 18.6408 20.2305C17.4497 20.743 16.206 20.5815 15.7539 20.4652C9.77638 18.9279 5.07267 14.2244 3.53505 8.24707C3.41862 7.79446 3.25787 6.55069 3.77038 5.3596C4.03831 4.73693 4.49285 4.12638 5.21992 3.68061ZM5.60753 6.1501C5.32994 6.79523 5.42096 7.55044 5.47199 7.74882C6.82801 13.0202 10.9805 17.1725 16.252 18.5282C16.4511 18.5794 17.2059 18.6706 17.8505 18.3933C18.1456 18.2664 18.4123 18.0655 18.6144 17.7358C18.8204 17.3996 19 16.862 19 16V15.2361C19 14.8573 18.786 14.511 18.4472 14.3416L17.3416 13.7889C16.8476 13.5419 16.247 13.7421 16 14.2361L15.8944 14.4472C15.725 14.786 15.3788 15 15 15C14.2665 15 13.5327 14.7314 12.889 14.3735C12.233 14.0087 11.5976 13.5107 11.0426 12.9553C10.4877 12.4 9.99012 11.7642 9.62575 11.1081C9.26822 10.4643 8.99998 9.73049 8.99998 8.99744C8.99998 8.61829 9.2144 8.27176 9.55368 8.10255L9.76208 7.99862C10.2567 7.75196 10.4574 7.15086 10.2102 6.65652L9.65834 5.55279C9.48895 5.214 9.14268 5 8.76391 5H7.99998C7.13861 5 6.6014 5.17959 6.2653 5.38566C5.93562 5.58779 5.73465 5.85466 5.60753 6.1501Z" clip-rule="evenodd"/></svg>
