<svg xmlns="http://www.w3.org/2000/svg" viewBox="0 0 19 25">
<path d="M11.8,7.2V1.3c0-0.5-0.4-0.8-0.8-0.8h-3c-0.4,0-0.7,0.3-0.7,0.7v6c-3.8,1-6.5,4.4-6.5,8.5
	c0,4.9,3.9,8.8,8.8,8.8s8.8-3.9,8.8-8.8C18.3,11.6,15.5,8.2,11.8,7.2z M13.9,14.7c0.5,0,0.8,0.4,0.8,0.8s-0.4,0.8-0.8,0.8
	s-0.8-0.4-0.8-0.8S13.5,14.7,13.9,14.7z M11.3,17.6c-0.5,0-0.8-0.4-0.8-0.8c0-0.5,0.4-0.8,0.8-0.8c0.5,0,0.8,0.4,0.8,0.8
	C12.2,17.2,11.8,17.6,11.3,17.6z M13.7,20.3c-0.7,0-1.3-0.6-1.3-1.3c0-0.7,0.6-1.3,1.3-1.3c0.7,0,1.3,0.6,1.3,1.3
	C15,19.7,14.4,20.3,13.7,20.3z"/>
</svg>
