<svg xmlns="http://www.w3.org/2000/svg" viewBox="0 0 20 25">
<path d="M19.1,14.9c-0.2-2.2-1.4-3.8-2.5-4.8c-1.3-1.2-3.4-1-3.4-1S12.6,9.1,12,9.3c0-0.3-0.1-0.9,0-1.9
	c0.3-2.7,3.5-3.1,3.5-3.1s0.4-1.6-0.5-2.1c-3.6-0.6-5.6,2.9-5.6,2.9S8.5,6.5,7.9,7.5c0,0-1.3-0.6-1.4-0.8c0,0,0.1-5.3,0-5.8
	c-0.1-0.5-3.2-0.4-3.2,0s0,6.4,0,6.4c-0.7,0.5-1.2,1-1.2,1c-1.7,1.9-1.3,4.7-1,5.8c0.2,0.8,0.9,2.3,2.2,3.9c0,0-0.1,3.4,0,3.9
	c0.1,0.5,3.2,0.4,3.2,0c0-0.4,0-1.6,0-1.6c1.7,1.3,2.8,2,3.5,2.4c1.3,0.6,5.3,2.2,6.3,1.7C19.5,22.6,19.3,16.8,19.1,14.9z"/>
</svg>
