<svg xmlns="http://www.w3.org/2000/svg" viewBox="0 0 24 24"><path class="fn-svg-icon" fill-rule="evenodd" d="M11.7773 4C8.29471 4 5.32942 6.22588 4.2314 9.33567C4.04753 9.85644 3.47629 10.1296 2.95552 9.94567C2.43474 9.7618 2.16163 9.19056 2.34551 8.66979C3.71697 4.78557 7.42055 2 11.7773 2C17.3002 2 21.7773 6.47715 21.7773 12C21.7773 17.5228 17.3002 22 11.7773 22C7.01636 22 3.03465 18.6739 2.02473 14.2196C1.90261 13.681 2.24024 13.1454 2.77886 13.0232C3.31747 12.9011 3.8531 13.2388 3.97522 13.7774C4.7831 17.3405 7.97082 20 11.7773 20C16.1956 20 19.7773 16.4183 19.7773 12C19.7773 7.58172 16.1956 4 11.7773 4Z" clip-rule="evenodd"/><path class="fn-svg-icon" fill-rule="evenodd" d="M2.99997 3C3.55226 3 3.99997 3.44772 3.99997 4V8H7.99997C8.55226 8 8.99997 8.44772 8.99997 9 8.99997 9.55228 8.55226 10 7.99997 10H2.99997C2.73476 10 2.4804 9.89464 2.29287 9.70711 2.10533 9.51957 1.99997 9.26522 1.99997 9V4C1.99997 3.44772 2.44769 3 2.99997 3ZM12 6C12.5523 6 13 6.44772 13 7V11.5858L15.7071 14.2929C16.0976 14.6834 16.0976 15.3166 15.7071 15.7071 15.3166 16.0976 14.6834 16.0976 14.2929 15.7071L11.2929 12.7071C11.1053 12.5196 11 12.2652 11 12V7C11 6.44772 11.4477 6 12 6Z" clip-rule="evenodd"/></svg>
