<svg xmlns="http://www.w3.org/2000/svg" viewBox="0 0 24 24"><path class="fn-svg-icon" fill-rule="evenodd" d="M13.9191 20.3939C13.7615 20.7616 13.4 21 12.9999 21H12.7999C11.2535 21 9.99995 19.7464 9.99995 18.2V16H6.39637C4.52466 16 3.10994 14.3049 3.44476 12.4633L4.71749 5.46335C4.97685 4.03688 6.21924 3 7.6691 3H17.9999C19.6568 3 20.9999 4.34315 20.9999 6V11C20.9999 12.6569 19.6568 14 17.9999 14H16.6593L13.9191 20.3939ZM12.3891 18.8866L15.0808 12.6061C15.2384 12.2384 15.5999 12 15.9999 12H17.9999C18.5522 12 18.9999 11.5523 18.9999 11V6C18.9999 5.44771 18.5522 5 17.9999 5H7.6691C7.18581 5 6.77168 5.34562 6.68523 5.82112L5.4125 12.8211C5.30089 13.435 5.77247 14 6.39637 14H10.9999C11.5522 14 11.9999 14.4477 11.9999 15V18.2C11.9999 18.4916 12.156 18.7468 12.3891 18.8866Z" clip-rule="evenodd"/><path class="fn-svg-icon" fill-rule="evenodd" d="M15.9999 3C16.5522 3 16.9999 3.44772 16.9999 4V13C16.9999 13.5523 16.5522 14 15.9999 14C15.4477 14 14.9999 13.5523 14.9999 13V4C14.9999 3.44772 15.4477 3 15.9999 3Z" clip-rule="evenodd"/></svg>
