<svg xmlns="http://www.w3.org/2000/svg" viewBox="0 0 24 24"><path class="fn-svg-icon" fill-rule="evenodd" d="M8 13C6.34315 13 5 14.3431 5 16V17H8.00002C8.5523 17 9.00002 17.4477 9.00002 18C9.00002 18.5523 8.5523 19 8.00002 19H4C3.44772 19 3 18.5523 3 18V16C3 13.2386 5.23858 11 8 11H12C12.5523 11 13 11.4477 13 12C13 12.5523 12.5523 13 12 13H8Z" clip-rule="evenodd"/><path class="fn-svg-icon" fill-rule="evenodd" d="M5.00002 9C5.00002 6.79086 6.79088 5 9.00002 5C9.46512 5 9.91374 5.0798 10.3316 5.22727C10.8524 5.41109 11.1256 5.98229 10.9418 6.50309C10.7579 7.02389 10.1867 7.29707 9.66594 7.11325C9.45894 7.04019 9.23525 7 9.00002 7C7.89545 7 7.00002 7.89543 7.00002 9C7.00002 10.1046 7.89545 11 9.00002 11C9.5523 11 10 11.4477 10 12C10 12.5523 9.5523 13 9.00002 13C6.79088 13 5.00002 11.2091 5.00002 9Z" clip-rule="evenodd"/><path class="fn-svg-icon" fill-rule="evenodd" d="M14 13C11.2386 13 9.00002 15.2386 9.00002 18L9.00002 19H19V18C19 15.2386 16.7614 13 14 13ZM7.00002 18C7.00002 14.134 10.134 11 14 11C17.866 11 21 14.134 21 18V20C21 20.5523 20.5523 21 20 21H8.00002C7.44773 21 7.00002 20.5523 7.00002 20V18Z" clip-rule="evenodd"/><path class="fn-svg-icon" fill-rule="evenodd" d="M9.00002 8C9.00002 5.23858 11.2386 3 14 3C16.7614 3 19 5.23858 19 8C19 10.7614 16.7614 13 14 13C11.2386 13 9.00002 10.7614 9.00002 8ZM14 5C12.3432 5 11 6.34315 11 8C11 9.65685 12.3432 11 14 11C15.6569 11 17 9.65685 17 8C17 6.34315 15.6569 5 14 5Z" clip-rule="evenodd"/></svg>
