<svg xmlns="http://www.w3.org/2000/svg" viewBox="0 0 24 24"><path class="fn-svg-icon" fill-rule="evenodd" d="M10.2929 2.29289C10.4804 2.10536 10.7348 2 11 2H19C19.2652 2 19.5196 2.10536 19.7071 2.29289C19.8946 2.48043 20 2.73478 20 3V21C20 21.5523 19.5523 22 19 22H5C4.44772 22 4 21.5523 4 21V9C4 8.73478 4.10536 8.48043 4.29289 8.29289L10.2929 2.29289ZM11.4142 4L6 9.41421V20H18V4H11.4142Z" clip-rule="evenodd"/><path class="fn-svg-icon" fill-rule="evenodd" d="M8 13C8 12.4477 8.44772 12 9 12H15C15.5523 12 16 12.4477 16 13 16 13.5523 15.5523 14 15 14H9C8.44772 14 8 13.5523 8 13ZM8 17C8 16.4477 8.44772 16 9 16H15C15.5523 16 16 16.4477 16 17 16 17.5523 15.5523 18 15 18H9C8.44772 18 8 17.5523 8 17ZM6 9H9C10.1046 9 11 8.10457 11 7V4" clip-rule="evenodd"/></svg>
