<svg xmlns="http://www.w3.org/2000/svg" viewBox="0 0 24 24"><path class="fn-svg-icon" fill-rule="evenodd" d="M18 7C18.5523 7 19 7.44772 19 8V16C19 16.5523 18.5523 17 18 17 17.4477 17 17 16.5523 17 16V8C17 7.44772 17.4477 7 18 7ZM12 10C12.5523 10 13 10.4477 13 11V16C13 16.5523 12.5523 17 12 17 11.4477 17 11 16.5523 11 16V11C11 10.4477 11.4477 10 12 10ZM6 13C6.55228 13 7 13.4477 7 14V16C7 16.5523 6.55228 17 6 17 5.44772 17 5 16.5523 5 16V14C5 13.4477 5.44772 13 6 13ZM3 10C3 9.44772 3.44772 9 4 9H8C8.55228 9 9 9.44772 9 10 9 10.5523 8.55228 11 8 11H4C3.44772 11 3 10.5523 3 10ZM9 7C9 6.44772 9.44772 6 10 6H14C14.5523 6 15 6.44772 15 7 15 7.55228 14.5523 8 14 8H10C9.44772 8 9 7.55228 9 7ZM15 4C15 3.44772 15.4477 3 16 3H20C20.5523 3 21 3.44772 21 4 21 4.55228 20.5523 5 20 5H16C15.4477 5 15 4.55228 15 4ZM3 20C3 19.4477 3.44772 19 4 19H20C20.5523 19 21 19.4477 21 20 21 20.5523 20.5523 21 20 21H4C3.44772 21 3 20.5523 3 20Z" clip-rule="evenodd"/></svg>
