<svg xmlns="http://www.w3.org/2000/svg" viewBox="0 0 24 24"><path class="fn-svg-icon" fill-rule="evenodd" d="M12 3C12.2968 3 12.5782 3.13182 12.7682 3.35982L17.7682 9.35982C18.0166 9.6579 18.0702 10.0728 17.9056 10.4242 17.741 10.7755 17.388 11 17 11H7.00001C6.61199 11 6.259 10.7755 6.09442 10.4242 5.92984 10.0728 5.98339 9.6579 6.23179 9.35982L11.2318 3.35982C11.4218 3.13182 11.7032 3 12 3ZM9.13505 9H14.865L12 5.56205 9.13505 9ZM6.09442 13.5758C6.259 13.2245 6.61199 13 7.00001 13H17C17.388 13 17.741 13.2245 17.9056 13.5758 18.0702 13.9272 18.0166 14.3421 17.7682 14.6402L12.7682 20.6402C12.5782 20.8682 12.2968 21 12 21 11.7032 21 11.4218 20.8682 11.2318 20.6402L6.23179 14.6402C5.98339 14.3421 5.92984 13.9272 6.09442 13.5758ZM9.13505 15 12 18.438 14.865 15H9.13505Z" clip-rule="evenodd"/></svg>
