<svg xmlns="http://www.w3.org/2000/svg" viewBox="0 0 24 24"><path class="fn-svg-icon" fill-rule="evenodd" d="M5 8C4.44772 8 4 8.44772 4 9V18C4 18.5523 4.44772 19 5 19H19C19.5523 19 20 18.5523 20 18V9C20 8.44772 19.5523 8 19 8H5ZM2 9C2 7.34315 3.34315 6 5 6H19C20.6569 6 22 7.34315 22 9V18C22 19.6569 20.6569 21 19 21H5C3.34315 21 2 19.6569 2 18V9Z" clip-rule="evenodd"/><path class="fn-svg-icon" fill-rule="evenodd" d="M17 6C17.5523 6 18 6.44772 18 7V20C18 20.5523 17.5523 21 17 21 16.4477 21 16 20.5523 16 20V7C16 6.44772 16.4477 6 17 6ZM7 6C7.55228 6 8 6.44772 8 7V20C8 20.5523 7.55228 21 7 21 6.44772 21 6 20.5523 6 20V7C6 6.44772 6.44772 6 7 6Z" clip-rule="evenodd"/><path class="fn-svg-icon" fill-rule="evenodd" d="M7 5C7 3.34315 8.34315 2 10 2H14C15.6569 2 17 3.34315 17 5V7C17 7.55228 16.5523 8 16 8C15.4477 8 15 7.55228 15 7V5C15 4.44772 14.5523 4 14 4H10C9.44772 4 9 4.44772 9 5V7C9 7.55228 8.55228 8 8 8C7.44772 8 7 7.55228 7 7V5Z" clip-rule="evenodd"/></svg>
