<svg xmlns="http://www.w3.org/2000/svg" viewBox="0 0 24 24"><path class="fn-svg-icon" fill-rule="evenodd" d="M6 5C5.44772 5 5 5.44772 5 6 5 6.55228 4.55228 7 4 7 3.44772 7 3 6.55228 3 6 3 4.34315 4.34315 3 6 3H18C19.6569 3 21 4.34315 21 6V10C21 10.5523 20.5523 11 20 11 19.4477 11 19 10.5523 19 10V6C19 5.44772 18.5523 5 18 5H6ZM4 13C4.55228 13 5 13.4477 5 14V18C5 18.5523 5.44772 19 6 19H18C18.5523 19 19 18.5523 19 18 19 17.4477 19.4477 17 20 17 20.5523 17 21 17.4477 21 18 21 19.6569 19.6569 21 18 21H6C4.34315 21 3 19.6569 3 18V14C3 13.4477 3.44772 13 4 13Z" clip-rule="evenodd"/><path class="fn-svg-icon" fill-rule="evenodd" d="M9 1C9.55228 1 10 1.44772 10 2V6C10 6.55228 9.55228 7 9 7 8.44772 7 8 6.55228 8 6V2C8 1.44772 8.44772 1 9 1ZM3 10C3 9.44772 3.44772 9 4 9H11C11.5523 9 12 9.44772 12 10V11C12 11.5523 11.5523 12 11 12 10.4477 12 10 11.5523 10 11H4C3.44772 11 3 10.5523 3 10ZM10 14C10 13.4477 10.4477 13 11 13H20C20.5523 13 21 13.4477 21 14 21 14.5523 20.5523 15 20 15H12C12 15.5523 11.5523 16 11 16 10.4477 16 10 15.5523 10 15V14ZM15 1C15.5523 1 16 1.44772 16 2V6C16 6.55228 15.5523 7 15 7 14.4477 7 14 6.55228 14 6V2C14 1.44772 14.4477 1 15 1Z" clip-rule="evenodd"/><path class="fn-svg-icon" fill-rule="evenodd" d="M15 13C15.5523 13 16 13.4477 16 14V15C16 15.5523 15.5523 16 15 16C14.4477 16 14 15.5523 14 15V14C14 13.4477 14.4477 13 15 13Z" clip-rule="evenodd"/></svg>
