<svg xmlns="http://www.w3.org/2000/svg" viewBox="0 0 24 24">
    <path class="fn-svg-icon" fill-rule="evenodd"
          d="M3 6C3 4.34315 4.34315 3 6 3H18C19.6569 3 21 4.34315 21 6V18C21 19.6569 19.6569 21 18 21H6C4.34315 21 3 19.6569 3 18V6ZM6 5C5.44772 5 5 5.44772 5 6V18C5 18.5523 5.44772 19 6 19H18C18.5523 19 19 18.5523 19 18V6C19 5.44772 18.5523 5 18 5H6Z"
          clip-rule="evenodd"/>
    <path class="fn-svg-icon" fill-rule="evenodd"
          d="M9 1C9.55228 1 10 1.44772 10 2V6C10 6.55228 9.55228 7 9 7 8.44772 7 8 6.55228 8 6V2C8 1.44772 8.44772 1 9 1ZM7 11C7 10.4477 7.44772 10 8 10H16C16.5523 10 17 10.4477 17 11 17 11.5523 16.5523 12 16 12H8C7.44772 12 7 11.5523 7 11ZM7 15C7 14.4477 7.44772 14 8 14H12C12.5523 14 13 14.4477 13 15 13 15.5523 12.5523 16 12 16H8C7.44772 16 7 15.5523 7 15ZM15 1C15.5523 1 16 1.44772 16 2V6C16 6.55228 15.5523 7 15 7 14.4477 7 14 6.55228 14 6V2C14 1.44772 14.4477 1 15 1Z"
          clip-rule="evenodd"/>
</svg>
