<svg xmlns="http://www.w3.org/2000/svg" viewBox="0 0 24 24"><path class="fn-svg-icon" fill-rule="evenodd" d="M2 6C2 4.34315 3.34315 3 5 3H9.99805C10.2634 3 10.518 3.1055 10.7055 3.29326L12.4105 5H19C20.6569 5 22 6.34315 22 8V18C22 19.6569 20.6569 21 19 21H5C3.34315 21 2 19.6569 2 18V6ZM5 5C4.44772 5 4 5.44772 4 6V18C4 18.5523 4.44772 19 5 19H19C19.5523 19 20 18.5523 20 18V8C20 7.44772 19.5523 7 19 7H11.996C11.7306 7 11.4761 6.8945 11.2885 6.70674L9.58353 5H5Z" clip-rule="evenodd"/><path class="fn-svg-icon" fill-rule="evenodd" d="M10 13C10 12.4477 10.4477 12 11 12H17C17.5523 12 18 12.4477 18 13C18 13.5523 17.5523 14 17 14H11C10.4477 14 10 13.5523 10 13Z" clip-rule="evenodd"/><path class="fn-svg-icon" fill-rule="evenodd" d="M14 9C14.5523 9 15 9.44772 15 10V16C15 16.5523 14.5523 17 14 17C13.4477 17 13 16.5523 13 16V10C13 9.44772 13.4477 9 14 9Z" clip-rule="evenodd"/></svg>
