<svg xmlns="http://www.w3.org/2000/svg" viewBox="0 0 24 24"><path class="fn-svg-icon" fill-rule="evenodd" d="M10.8 3C9.80589 3 9 3.80589 9 4.8V5C9 5.55228 8.55228 6 8 6H5C4.44772 6 4 6.44772 4 7V9.08607C5.71444 9.45343 7 10.9774 7 12.8017V13.2C7 15.0242 5.71453 16.5483 4 16.9156V19C4 19.5523 4.44772 20 5 20H7.08436C7.45174 18.2855 8.97575 17 10.8 17H11.2C13.0242 17 14.5483 18.2855 14.9156 20H17C17.5523 20 18 19.5523 18 19V16C18 15.4477 18.4477 15 19 15H19.2017C20.1958 15 21.0017 14.1941 21.0017 13.2V12.8001C21.0017 11.8064 20.1965 11.0007 19.2028 11.0001L18.9994 11C18.4473 10.9997 18 10.552 18 10V7C18 6.44772 17.5523 6 17 6H14C13.4477 6 13 5.55228 13 5V4.8C13 3.80589 12.1941 3 11.2 3H10.8ZM7.08436 4C7.45174 2.28547 8.97575 1 10.8 1H11.2C13.0242 1 14.5483 2.28547 14.9156 4H17C18.6569 4 20 5.34315 20 7V9.08412C21.7155 9.45087 23.0017 10.9754 23.0017 12.8001V13.2C23.0017 15.0249 21.7154 16.5493 20 16.916V19C20 20.6569 18.6569 22 17 22H14C13.4477 22 13 21.5523 13 21V20.8C13 19.8059 12.1941 19 11.2 19H10.8C9.80589 19 9 19.8059 9 20.8V21C9 21.5523 8.55228 22 8 22H5C3.34315 22 2 20.6569 2 19V16C2 15.4477 2.44772 15 3 15H3.2C4.19411 15 5 14.1941 5 13.2V12.8017C5 11.8072 4.19344 11.0011 3.1989 11.0017L3.00061 11.0018C2.73529 11.002 2.48078 10.8967 2.29311 10.7092C2.10544 10.5216 2 10.2672 2 10.0018V7C2 5.34315 3.34315 4 5 4H7.08436Z" clip-rule="evenodd"/></svg>
