<svg xmlns="http://www.w3.org/2000/svg" viewBox="0 0 24 24"><path class="fn-svg-icon" fill-rule="evenodd" d="M13 16C13 15.4477 13.4477 15 14 15H20C20.5523 15 21 15.4477 21 16V20C21 20.5523 20.5523 21 20 21H14C13.4477 21 13 20.5523 13 20V16ZM15 17V19H19V17H15ZM7 4C7 3.44772 7.44772 3 8 3H16C16.5523 3 17 3.44772 17 4V8C17 8.55228 16.5523 9 16 9H8C7.44772 9 7 8.55228 7 8V4ZM9 5V7H15V5H9ZM3 16C3 15.4477 3.44772 15 4 15H10C10.5523 15 11 15.4477 11 16V20C11 20.5523 10.5523 21 10 21H4C3.44772 21 3 20.5523 3 20V16ZM5 17V19H9V17H5Z" clip-rule="evenodd"/><path class="fn-svg-icon" fill-rule="evenodd" d="M12 7C12.5523 7 13 7.44772 13 8V12C13 12.5523 12.5523 13 12 13C11.4477 13 11 12.5523 11 12V8C11 7.44772 11.4477 7 12 7Z" clip-rule="evenodd"/><path class="fn-svg-icon" fill-rule="evenodd" d="M6 12C6 11.4477 6.44772 11 7 11H17C17.5523 11 18 11.4477 18 12V16C18 16.5523 17.5523 17 17 17C16.4477 17 16 16.5523 16 16V13H8V16C8 16.5523 7.55228 17 7 17C6.44772 17 6 16.5523 6 16V12Z" clip-rule="evenodd"/></svg>
