<svg xmlns="http://www.w3.org/2000/svg" viewBox="0 0 24 24"><path class="fn-svg-icon" fill-rule="evenodd" d="M7 6C6.44772 6 6 6.44772 6 7V19C6 19.5523 6.44772 20 7 20H17C17.5523 20 18 19.5523 18 19V7C18 6.44772 17.5523 6 17 6H15C14.4477 6 14 5.55228 14 5C14 4.44772 14.4477 4 15 4H17C18.6569 4 20 5.34315 20 7V19C20 20.6569 18.6569 22 17 22H7C5.34315 22 4 20.6569 4 19V7C4 5.34315 5.34315 4 7 4H9C9.55228 4 10 4.44772 10 5C10 5.55228 9.55228 6 9 6H7Z" clip-rule="evenodd"/><path class="fn-svg-icon" fill-rule="evenodd" d="M8 4C8 2.89543 8.89543 2 10 2H14C15.1046 2 16 2.89543 16 4V6C16 7.10457 15.1046 8 14 8H10C8.89543 8 8 7.10457 8 6V4ZM14 4H10V6H14V4ZM9 12C9.55228 12 10 11.5523 10 11 10 10.4477 9.55228 10 9 10 8.44772 10 8 10.4477 8 11 8 11.5523 8.44772 12 9 12ZM11 11C11 10.4477 11.4477 10 12 10H15C15.5523 10 16 10.4477 16 11 16 11.5523 15.5523 12 15 12H12C11.4477 12 11 11.5523 11 11ZM9 15C9.55228 15 10 14.5523 10 14 10 13.4477 9.55228 13 9 13 8.44772 13 8 13.4477 8 14 8 14.5523 8.44772 15 9 15ZM11 14C11 13.4477 11.4477 13 12 13H15C15.5523 13 16 13.4477 16 14 16 14.5523 15.5523 15 15 15H12C11.4477 15 11 14.5523 11 14ZM9 18C9.55228 18 10 17.5523 10 17 10 16.4477 9.55228 16 9 16 8.44772 16 8 16.4477 8 17 8 17.5523 8.44772 18 9 18ZM11 17C11 16.4477 11.4477 16 12 16H15C15.5523 16 16 16.4477 16 17 16 17.5523 15.5523 18 15 18H12C11.4477 18 11 17.5523 11 17Z" clip-rule="evenodd"/></svg>
