<svg xmlns="http://www.w3.org/2000/svg" viewBox="0 0 24 24"><path class="fn-svg-icon" fill-rule="evenodd" d="M2 12C2 6.47715 6.47715 2 12 2C17.5228 2 22 6.47715 22 12C22 17.5228 17.5228 22 12 22C6.47715 22 2 17.5228 2 12ZM12 4C7.58172 4 4 7.58172 4 12C4 16.4183 7.58172 20 12 20C16.4183 20 20 16.4183 20 12C20 7.58172 16.4183 4 12 4Z" clip-rule="evenodd"/><path class="fn-svg-icon" fill-rule="evenodd" d="M9 7C9 6.44772 9.44772 6 10 6H14C14.5523 6 15 6.44772 15 7V9H17C17.5523 9 18 9.44772 18 10V14C18 14.5523 17.5523 15 17 15H15V17C15 17.5523 14.5523 18 14 18H10C9.44772 18 9 17.5523 9 17V15H7C6.44772 15 6 14.5523 6 14V10C6 9.44772 6.44772 9 7 9H9V7ZM11 8V10C11 10.5523 10.5523 11 10 11H8V13H10C10.5523 13 11 13.4477 11 14V16H13V14C13 13.4477 13.4477 13 14 13H16V11H14C13.4477 11 13 10.5523 13 10V8H11Z" clip-rule="evenodd"/></svg>
