<svg xmlns="http://www.w3.org/2000/svg" viewBox="0 0 24 24"><path class="fn-svg-icon" fill-rule="evenodd" d="M12 6C12.5523 6 13 6.44772 13 7V11.6667L15.8 15.4C16.1314 15.8418 16.0418 16.4686 15.6 16.8C15.1582 17.1314 14.5314 17.0418 14.2 16.6L11.2 12.6C11.0702 12.4269 11 12.2164 11 12V7C11 6.44772 11.4477 6 12 6Z" clip-rule="evenodd"/><path class="fn-svg-icon" fill-rule="evenodd" d="M2 12C2 6.47715 6.47715 2 12 2C12.5523 2 13 2.44772 13 3C13 3.55228 12.5523 4 12 4C7.58172 4 4 7.58172 4 12C4 16.4183 7.58172 20 12 20C16.4183 20 20 16.4183 20 12C20 11.4477 20.4477 11 21 11C21.5523 11 22 11.4477 22 12C22 17.5228 17.5228 22 12 22C6.47715 22 2 17.5228 2 12Z" clip-rule="evenodd"/><path class="fn-svg-icon" fill-rule="evenodd" d="M15 5C15 4.44772 15.4477 4 16 4H22C22.5523 4 23 4.44772 23 5C23 5.55228 22.5523 6 22 6H16C15.4477 6 15 5.55228 15 5Z" clip-rule="evenodd"/><path class="fn-svg-icon" fill-rule="evenodd" d="M19 1C19.5523 1 20 1.44772 20 2V8C20 8.55228 19.5523 9 19 9C18.4477 9 18 8.55228 18 8V2C18 1.44772 18.4477 1 19 1Z" clip-rule="evenodd"/></svg>
