<svg xmlns="http://www.w3.org/2000/svg" viewBox="0 0 24 24"><path class="fn-svg-icon" fill-rule="evenodd" d="M13 12.5C13.8284 12.5 14.5 11.8284 14.5 11 14.5 10.1716 13.8284 9.5 13 9.5 12.1716 9.5 11.5 10.1716 11.5 11 11.5 11.8284 12.1716 12.5 13 12.5ZM11 6.5C11.8284 6.5 12.5 5.82843 12.5 5 12.5 4.17157 11.8284 3.5 11 3.5 10.1716 3.5 9.5 4.17157 9.5 5 9.5 5.82843 10.1716 6.5 11 6.5ZM19 14.5C19.8284 14.5 20.5 13.8284 20.5 13 20.5 12.1716 19.8284 11.5 19 11.5 18.1716 11.5 17.5 12.1716 17.5 13 17.5 13.8284 18.1716 14.5 19 14.5ZM8 17C8.55228 17 9 16.5523 9 16 9 15.4477 8.55228 15 8 15 7.44772 15 7 15.4477 7 16 7 16.5523 7.44772 17 8 17ZM8 11C8.55228 11 9 10.5523 9 10 9 9.44772 8.55228 9 8 9 7.44772 9 7 9.44772 7 10 7 10.5523 7.44772 11 8 11ZM14 17C14.5523 17 15 16.5523 15 16 15 15.4477 14.5523 15 14 15 13.4477 15 13 15.4477 13 16 13 16.5523 13.4477 17 14 17ZM18 8C19.1046 8 20 7.10457 20 6 20 4.89543 19.1046 4 18 4 16.8954 4 16 4.89543 16 6 16 7.10457 16.8954 8 18 8Z" clip-rule="evenodd"/><path class="fn-svg-icon" fill-rule="evenodd" d="M3 2C3.55228 2 4 2.44772 4 3V20H21C21.5523 20 22 20.4477 22 21C22 21.5523 21.5523 22 21 22H3C2.44772 22 2 21.5523 2 21V3C2 2.44772 2.44772 2 3 2Z" clip-rule="evenodd"/></svg>
