<svg xmlns="http://www.w3.org/2000/svg" viewBox="0 0 24 24"><path class="fn-svg-icon" fill-rule="evenodd" d="M4 13C4 12.4477 4.44772 12 5 12H19C19.5523 12 20 12.4477 20 13 20 13.5523 19.5523 14 19 14H5C4.44772 14 4 13.5523 4 13ZM4 9C4 8.44772 4.44772 8 5 8H19C19.5523 8 20 8.44772 20 9 20 9.55228 19.5523 10 19 10H5C4.44772 10 4 9.55228 4 9ZM4 5C4 4.44772 4.44772 4 5 4H19C19.5523 4 20 4.44772 20 5 20 5.55228 19.5523 6 19 6H5C4.44772 6 4 5.55228 4 5ZM8.07612 16.6173C8.2309 16.2436 8.59554 16 9 16H15C15.4045 16 15.7691 16.2436 15.9239 16.6173 16.0787 16.991 15.9931 17.4211 15.7071 17.7071L12.7071 20.7071C12.3166 21.0976 11.6834 21.0976 11.2929 20.7071L8.29289 17.7071C8.0069 17.4211 7.92134 16.991 8.07612 16.6173Z" clip-rule="evenodd"/></svg>
