<svg xmlns="http://www.w3.org/2000/svg" viewBox="0 0 24 24"><path class="fn-svg-icon" fill-rule="evenodd" d="M16.5001 2.77012C17.0971 2.27568 17.8487 2 18.6311 2 19.5309 2 20.3898 2.36454 21.02 3.00705 21.6496 3.64859 22 4.51481 22 5.41416 22 6.31359 21.6495 7.17989 21.0198 7.82145 21.0198 7.82139 21.0197 7.8215 21.0198 7.82145L17.2137 11.7004C17.0256 11.892 16.7684 12 16.4999 12 16.2314 12 15.9742 11.892 15.7861 11.7004L11.98 7.82145C10.6733 6.48981 10.6733 4.33851 11.98 3.00688 13.2144 1.74889 15.1746 1.66997 16.5001 2.77012ZM18.6311 4C18.2744 4 17.9283 4.1443 17.6702 4.40747L17.2137 4.87276C17.0256 5.0644 16.7684 5.17238 16.4999 5.17238 16.2314 5.17238 15.9742 5.0644 15.7861 4.87276L15.3297 4.40763C14.7967 3.86443 13.9405 3.86443 13.4075 4.40763 12.8642 4.9614 12.8642 5.86693 13.4075 6.42069L16.4999 9.5722 19.5922 6.42069C19.8511 6.15701 20 5.79518 20 5.41416 20 5.03315 19.8513 4.67148 19.5924 4.4078 19.3343 4.14464 18.9879 4 18.6311 4ZM7.01163 6.00007C7.50483 6.0058 7.92019 6.3703 7.98995 6.85858L9.268 15.8049 10.0299 12.7575C10.1411 12.3123 10.5411 12 11 12 11.4589 12 11.8589 12.3123 11.9701 12.7575L13.3145 18.1349 14.1056 16.5528C14.275 16.214 14.6212 16 15 16 15.3788 16 15.725 16.214 15.8944 16.5528L17.274 19.3118 18.2929 18.2929C18.4804 18.1054 18.7348 18 19 18H21C21.5523 18 22 18.4477 22 19 22 19.5523 21.5523 20 21 20H19.4142L17.7071 21.7071C17.4798 21.9344 17.1571 22.0386 16.8398 21.9871 16.5225 21.9356 16.2493 21.7347 16.1056 21.4472L15 19.2361 13.8944 21.4472C13.7073 21.8215 13.3069 22.0397 12.8909 21.994 12.4749 21.9484 12.1314 21.6485 12.0299 21.2425L11 17.1231 9.97014 21.2425C9.85417 21.7064 9.42602 22.0233 8.94848 21.9987 8.47095 21.974 8.07767 21.6148 8.01005 21.1414L6.92398 13.5389 5.98639 19.1644C5.90603 19.6466 5.48884 20 5 20H3C2.44772 20 2 19.5523 2 19 2 18.4477 2.44772 18 3 18H4.15287L6.01361 6.8356C6.09469 6.34907 6.51842 5.99433 7.01163 6.00007Z" clip-rule="evenodd"/></svg>
