<svg xmlns="http://www.w3.org/2000/svg" viewBox="0 0 24 24"><path class="fn-svg-icon" fill-rule="evenodd" d="M2 12C2 6.47715 6.47715 2 12 2C17.5228 2 22 6.47715 22 12C22 12.5523 21.5523 13 21 13C20.4477 13 20 12.5523 20 12C20 7.58172 16.4183 4 12 4C7.58172 4 4 7.58172 4 12C4 16.4183 7.58172 20 12 20C12.5523 20 13 20.4477 13 21C13 21.5523 12.5523 22 12 22C6.47715 22 2 17.5228 2 12Z" clip-rule="evenodd"/><path class="fn-svg-icon" fill-rule="evenodd" d="M22.7071 15.2929C23.0976 15.6834 23.0976 16.3166 22.7071 16.7071L18.7071 20.7071C18.3166 21.0976 17.6834 21.0976 17.2929 20.7071L15.2929 18.7071C14.9024 18.3166 14.9024 17.6834 15.2929 17.2929 15.6834 16.9024 16.3166 16.9024 16.7071 17.2929L18 18.5858 21.2929 15.2929C21.6834 14.9024 22.3166 14.9024 22.7071 15.2929ZM11.5 10C11.2239 10 11 10.2239 11 10.5 11 10.7761 11.2239 11 11.5 11H12.5C13.8807 11 15 12.1193 15 13.5 15 14.8807 13.8807 16 12.5 16H10C9.44772 16 9 15.5523 9 15 9 14.4477 9.44772 14 10 14H12.5C12.7761 14 13 13.7761 13 13.5 13 13.2239 12.7761 13 12.5 13H11.5C10.1193 13 9 11.8807 9 10.5 9 9.11929 10.1193 8 11.5 8H14C14.5523 8 15 8.44772 15 9 15 9.55228 14.5523 10 14 10H11.5Z" clip-rule="evenodd"/><path class="fn-svg-icon" fill-rule="evenodd" d="M12 6C12.5523 6 13 6.44772 13 7V8C13 8.55228 12.5523 9 12 9 11.4477 9 11 8.55228 11 8V7C11 6.44772 11.4477 6 12 6ZM12 15C12.5523 15 13 15.4477 13 16V17C13 17.5523 12.5523 18 12 18 11.4477 18 11 17.5523 11 17V16C11 15.4477 11.4477 15 12 15Z" clip-rule="evenodd"/></svg>
