<svg xmlns="http://www.w3.org/2000/svg" viewBox="0 0 24 24"><path class="fn-svg-icon" fill-rule="evenodd" d="M3.99996 11C3.99996 8.79089 5.79082 7.00003 7.99996 7.00003C10.2091 7.00003 12 8.79089 12 11C12 13.2092 10.2091 15 7.99996 15C5.79082 15 3.99996 13.2092 3.99996 11ZM7.99996 9.00003C6.89539 9.00003 5.99996 9.89546 5.99996 11C5.99996 12.1046 6.89539 13 7.99996 13C9.10453 13 9.99996 12.1046 9.99996 11C9.99996 9.89546 9.10453 9.00003 7.99996 9.00003Z" clip-rule="evenodd"/><path class="fn-svg-icon" fill-rule="evenodd" d="M12.8575 7.37283C12.4691 6.72549 11.5309 6.72549 11.1425 7.37283L10.2522 8.85665C9.96803 9.33023 9.35377 9.4838 8.88019 9.19965C8.40661 8.9155 8.25304 8.30124 8.53719 7.82766L9.42748 6.34384C10.5927 4.40182 13.4072 4.40182 14.5724 6.34384L20.0401 15.4565C21.2398 17.4561 19.7995 20 17.4676 20H6.53234C4.20046 20 2.76012 17.4561 3.95986 15.4565L5.4553 12.9642C5.73945 12.4906 6.35371 12.337 6.82729 12.6212C7.30087 12.9053 7.45443 13.5196 7.17028 13.9931L5.67485 16.4855C5.27494 17.1521 5.75505 18 6.53234 18H17.4676C18.2449 18 18.725 17.1521 18.3251 16.4855L12.8575 7.37283Z" clip-rule="evenodd"/></svg>
