<svg xmlns="http://www.w3.org/2000/svg" viewBox="0 0 24 24"><path class="fn-svg-icon" fill-rule="evenodd" d="M15.2929 3.29289C15.6834 2.90237 16.3166 2.90237 16.7071 3.29289L20.7071 7.29289C20.8946 7.48043 21 7.73478 21 8V18C21 18.9197 20.6198 19.6707 20.0152 20.1745C19.4336 20.6592 18.6963 20.875 18 20.875C17.3037 20.875 16.5664 20.6592 15.9848 20.1745C15.3802 19.6707 15 18.9197 15 18V15H12C11.4477 15 11 14.5523 11 14C11 13.4477 11.4477 13 12 13H16C16.5523 13 17 13.4477 17 14V18C17 18.3303 17.1198 18.5168 17.2652 18.638C17.4336 18.7783 17.6963 18.875 18 18.875C18.3037 18.875 18.5664 18.7783 18.7348 18.638C18.8802 18.5168 19 18.3303 19 18V8.41421L15.2929 4.70711C14.9024 4.31658 14.9024 3.68342 15.2929 3.29289Z" clip-rule="evenodd"/><path class="fn-svg-icon" fill-rule="evenodd" d="M15 9C15 7.34315 16.3431 6 18 6 19.6569 6 21 7.34315 21 9 21 10.6569 19.6569 12 18 12 16.3431 12 15 10.6569 15 9ZM18 8C17.4477 8 17 8.44772 17 9 17 9.55228 17.4477 10 18 10 18.5523 10 19 9.55228 19 9 19 8.44772 18.5523 8 18 8ZM3 6C3 4.34315 4.34315 3 6 3H10C11.6569 3 13 4.34315 13 6V18C13 19.6569 11.6569 21 10 21H6C4.34315 21 3 19.6569 3 18V6ZM6 5C5.44772 5 5 5.44772 5 6V18C5 18.5523 5.44772 19 6 19H10C10.5523 19 11 18.5523 11 18V6C11 5.44772 10.5523 5 10 5H6Z" clip-rule="evenodd"/><path class="fn-svg-icon" fill-rule="evenodd" d="M3 10C3 9.44772 3.44772 9 4 9H12C12.5523 9 13 9.44772 13 10C13 10.5523 12.5523 11 12 11H4C3.44772 11 3 10.5523 3 10Z" clip-rule="evenodd"/></svg>
