<svg xmlns="http://www.w3.org/2000/svg" viewBox="0 0 24 24"><path class="fn-svg-icon" fill-rule="evenodd" d="M3 6C3 4.34315 4.34315 3 6 3H18C19.6569 3 21 4.34315 21 6V18C21 19.6569 19.6569 21 18 21H6C4.34315 21 3 19.6569 3 18V6ZM6 5C5.44772 5 5 5.44772 5 6V18C5 18.5523 5.44772 19 6 19H18C18.5523 19 19 18.5523 19 18V6C19 5.44772 18.5523 5 18 5H6Z" clip-rule="evenodd"/><path class="fn-svg-icon" fill-rule="evenodd" d="M12 7C12.5523 7 13 7.44772 13 8V12.5858L15.7071 15.2929C16.0976 15.6834 16.0976 16.3166 15.7071 16.7071C15.3166 17.0976 14.6834 17.0976 14.2929 16.7071L11.2929 13.7071C11.1054 13.5196 11 13.2652 11 13V8C11 7.44772 11.4477 7 12 7Z" clip-rule="evenodd"/></svg>
