<svg xmlns="http://www.w3.org/2000/svg" viewBox="0 0 24 24"><path class="fn-svg-icon" fill-rule="evenodd" d="M2.99997 2C3.55226 2 3.99997 2.44772 3.99997 3V8H8.99998C9.55226 8 9.99998 8.44772 9.99998 9C9.99998 9.55228 9.55226 10 8.99998 10H2.99997C2.73476 10 2.4804 9.89464 2.29287 9.70711C2.10533 9.51957 1.99997 9.26522 1.99997 9V3C1.99997 2.44772 2.44769 2 2.99997 2Z" clip-rule="evenodd"/><path class="fn-svg-icon" fill-rule="evenodd" d="M9.70708 3.29289C10.0976 3.68342 10.0976 4.31658 9.70708 4.70711L7.70708 6.70711C7.40272 7.01147 6.93775 7.08692 6.55276 6.89443L5.19743 6.21676 3.70708 7.70711C3.31656 8.09763 2.68339 8.09763 2.29287 7.70711 1.90234 7.31658 1.90234 6.68342 2.29287 6.29289L4.29287 4.29289C4.59723 3.98853 5.0622 3.91308 5.44719 4.10557L6.80252 4.78324 8.29287 3.29289C8.68339 2.90237 9.31656 2.90237 9.70708 3.29289ZM2.99997 14C3.55226 14 3.99997 14.4477 3.99997 15V20H8.99998C9.55226 20 9.99998 20.4477 9.99998 21 9.99998 21.5523 9.55226 22 8.99998 22H2.99997C2.73476 22 2.4804 21.8946 2.29287 21.7071 2.10533 21.5196 1.99997 21.2652 1.99997 21V15C1.99997 14.4477 2.44769 14 2.99997 14Z" clip-rule="evenodd"/><path class="fn-svg-icon" fill-rule="evenodd" d="M9.70708 15.2929C10.0976 15.6834 10.0976 16.3166 9.70708 16.7071L7.70708 18.7071C7.51955 18.8946 7.26519 19 6.99997 19H5.23604L3.44719 19.8944C2.95321 20.1414 2.35254 19.9412 2.10555 19.4472 1.85856 18.9532 2.05878 18.3526 2.55276 18.1056L4.55276 17.1056C4.69162 17.0361 4.84473 17 4.99997 17H6.58576L8.29287 15.2929C8.68339 14.9024 9.31656 14.9024 9.70708 15.2929ZM15 14C15.5523 14 16 14.4477 16 15V20H21C21.5523 20 22 20.4477 22 21 22 21.5523 21.5523 22 21 22H15C14.7348 22 14.4804 21.8946 14.2929 21.7071 14.1053 21.5196 14 21.2652 14 21V15C14 14.4477 14.4477 14 15 14Z" clip-rule="evenodd"/><path class="fn-svg-icon" fill-rule="evenodd" d="M18.2929 15.2929C18.6834 14.9024 19.3166 14.9024 19.7071 15.2929L21.7071 17.2929C22.0976 17.6834 22.0976 18.3166 21.7071 18.7071 21.3166 19.0976 20.6834 19.0976 20.2929 18.7071L19 17.4142 17.7071 18.7071C17.5195 18.8946 17.2652 19 17 19H15C14.4477 19 14 18.5523 14 18 14 17.4477 14.4477 17 15 17H16.5858L18.2929 15.2929ZM15 2C15.5523 2 16 2.44772 16 3V8H21C21.5523 8 22 8.44772 22 9 22 9.55228 21.5523 10 21 10H15C14.7348 10 14.4804 9.89464 14.2929 9.70711 14.1053 9.51957 14 9.26522 14 9V3C14 2.44772 14.4477 2 15 2Z" clip-rule="evenodd"/><path class="fn-svg-icon" fill-rule="evenodd" d="M14 4C14 3.44772 14.4477 3 15 3H17C17.2652 3 17.5195 3.10536 17.7071 3.29289L19.4142 5H21C21.5523 5 22 5.44772 22 6C22 6.55228 21.5523 7 21 7H19C18.7348 7 18.4804 6.89464 18.2929 6.70711L16.5858 5H15C14.4477 5 14 4.55228 14 4Z" clip-rule="evenodd"/></svg>
