<svg xmlns="http://www.w3.org/2000/svg" viewBox="0 0 24 24"><path class="fn-svg-icon" fill-rule="evenodd" d="M7.99994 12C7.99994 9.79086 9.7908 8 11.9999 8C14.2091 8 15.9999 9.79086 15.9999 12C15.9999 14.2091 14.2091 16 11.9999 16C9.7908 16 7.99994 14.2091 7.99994 12ZM11.9999 10C10.8954 10 9.99994 10.8954 9.99994 12C9.99994 13.1046 10.8954 14 11.9999 14C13.1045 14 13.9999 13.1046 13.9999 12C13.9999 10.8954 13.1045 10 11.9999 10Z" clip-rule="evenodd"/><path class="fn-svg-icon" fill-rule="evenodd" d="M4.04303 7.79288C5.86485 5.97113 8.60694 4 11.9999 4C15.3929 4 18.135 5.97113 19.9569 7.79288C20.8805 8.71646 21.6031 9.63657 22.0948 10.325C22.3413 10.6701 22.5315 10.9592 22.6614 11.1645C22.7264 11.2673 22.7764 11.3492 22.811 11.4068C22.8283 11.4357 22.8418 11.4585 22.8513 11.4748L22.8627 11.4943L22.8662 11.5003L22.8673 11.5024C22.8675 11.5027 22.8682 11.5038 21.9999 12C22.8682 12.4962 22.868 12.4965 22.8678 12.4968L22.8662 12.4996L22.8627 12.5057L22.8513 12.5252C22.8418 12.5415 22.8283 12.5643 22.811 12.5931C22.7764 12.6508 22.7264 12.7327 22.6614 12.8354C22.5315 13.0408 22.3414 13.3299 22.0949 13.675C21.6032 14.3634 20.8806 15.2835 19.957 16.2071C18.1352 18.0289 15.3931 20 11.9999 20C8.60676 20 5.86467 18.0289 4.04288 16.2071C3.1193 15.2835 2.39672 14.3634 1.90498 13.675C1.65849 13.3299 1.46838 13.0408 1.33847 12.8354C1.27348 12.7327 1.22344 12.6508 1.18884 12.5931C1.17154 12.5643 1.15809 12.5415 1.14855 12.5252L1.13718 12.5057L1.1337 12.4996L1.13252 12.4976C1.13233 12.4972 1.13171 12.4962 1.99994 12C1.13173 11.5038 1.1319 11.5035 1.13208 11.5032L1.13372 11.5003L1.1372 11.4943L1.14857 11.4748C1.15811 11.4585 1.17156 11.4357 1.18887 11.4068C1.22347 11.3492 1.27351 11.2673 1.3385 11.1645C1.46842 10.9592 1.65855 10.6701 1.90505 10.325C2.39681 9.63657 3.11942 8.71646 4.04303 7.79288ZM1.99994 12L1.13208 11.5032C0.956381 11.8106 0.956014 12.1887 1.13171 12.4962L1.99994 12ZM3.17995 12C3.27627 12.1458 3.39409 12.3188 3.53244 12.5125C3.97822 13.1366 4.63067 13.9665 5.45709 14.7929C7.13533 16.4711 9.39324 18 11.9999 18C14.6066 18 16.8646 16.4711 18.5428 14.7929C19.3692 13.9665 20.0217 13.1366 20.4674 12.5125C20.6058 12.3188 20.7236 12.1458 20.8199 12C20.7236 11.8542 20.6058 11.6812 20.4674 11.4875C20.0216 10.8634 19.3691 10.0335 18.5427 9.20712C16.8644 7.52887 14.6065 6 11.9999 6C9.39344 6 7.13552 7.52887 5.45722 9.20712C4.63077 10.0335 3.97828 10.8634 3.53247 11.4875C3.39411 11.6812 3.27628 11.8542 3.17995 12ZM21.9999 12L22.8678 12.4968C23.0435 12.1893 23.0439 11.8113 22.8682 11.5038L21.9999 12Z" clip-rule="evenodd"/></svg>
