<svg xmlns="http://www.w3.org/2000/svg" viewBox="0 0 24 24"><path class="fn-svg-icon" fill-rule="evenodd" d="M6 12C6.55228 12 7 12.4477 7 13V19H17V17C17 16.4477 17.4477 16 18 16C18.5523 16 19 16.4477 19 17V20C19 20.5523 18.5523 21 18 21H6C5.44772 21 5 20.5523 5 20V13C5 12.4477 5.44772 12 6 12Z" clip-rule="evenodd"/><path class="fn-svg-icon" fill-rule="evenodd" d="M5.29289 11.2929C5.68342 10.9024 6.31658 10.9024 6.70711 11.2929L9.70711 14.2929C10.0976 14.6834 10.0976 15.3166 9.70711 15.7071 9.31658 16.0976 8.68342 16.0976 8.29289 15.7071L6 13.4142 3.70711 15.7071C3.31658 16.0976 2.68342 16.0976 2.29289 15.7071 1.90237 15.3166 1.90237 14.6834 2.29289 14.2929L5.29289 11.2929ZM14.2929 8.29289C14.6834 7.90237 15.3166 7.90237 15.7071 8.29289L18 10.5858 20.2929 8.29289C20.6834 7.90237 21.3166 7.90237 21.7071 8.29289 22.0976 8.68342 22.0976 9.31658 21.7071 9.70711L18.7071 12.7071C18.3166 13.0976 17.6834 13.0976 17.2929 12.7071L14.2929 9.70711C13.9024 9.31658 13.9024 8.68342 14.2929 8.29289Z" clip-rule="evenodd"/><path class="fn-svg-icon" fill-rule="evenodd" d="M5.29289 3.29289C5.48043 3.10536 5.73478 3 6 3H18C18.5523 3 19 3.44772 19 4V11C19 11.5523 18.5523 12 18 12C17.4477 12 17 11.5523 17 11V5H7V7C7 7.55228 6.55228 8 6 8C5.44772 8 5 7.55228 5 7V4C5 3.73478 5.10536 3.48043 5.29289 3.29289Z" clip-rule="evenodd"/></svg>
