<svg xmlns="http://www.w3.org/2000/svg" viewBox="0 0 24 24"><path class="fn-svg-icon" fill-rule="evenodd" d="M4 6C4 4.34315 5.34315 3 7 3H17C18.6569 3 20 4.34315 20 6V18C20 19.6569 18.6569 21 17 21H7C5.34315 21 4 19.6569 4 18V6ZM7 5C6.44772 5 6 5.44772 6 6V18C6 18.5523 6.44772 19 7 19H17C17.5523 19 18 18.5523 18 18V6C18 5.44772 17.5523 5 17 5H7Z" clip-rule="evenodd"/><path class="fn-svg-icon" fill-rule="evenodd" d="M12 8C12 7.44772 12.4477 7 13 7H15C15.5523 7 16 7.44772 16 8 16 8.55228 15.5523 9 15 9H13C12.4477 9 12 8.55228 12 8ZM12 12C12 11.4477 12.4477 11 13 11H15C15.5523 11 16 11.4477 16 12 16 12.5523 15.5523 13 15 13H13C12.4477 13 12 12.5523 12 12ZM12 16C12 15.4477 12.4477 15 13 15H15C15.5523 15 16 15.4477 16 16 16 16.5523 15.5523 17 15 17H13C12.4477 17 12 16.5523 12 16ZM9 9.5C9.82843 9.5 10.5 8.82843 10.5 8 10.5 7.17157 9.82843 6.5 9 6.5 8.17157 6.5 7.5 7.17157 7.5 8 7.5 8.82843 8.17157 9.5 9 9.5ZM9 13.5C9.82843 13.5 10.5 12.8284 10.5 12 10.5 11.1716 9.82843 10.5 9 10.5 8.17157 10.5 7.5 11.1716 7.5 12 7.5 12.8284 8.17157 13.5 9 13.5ZM9 17.5C9.82843 17.5 10.5 16.8284 10.5 16 10.5 15.1716 9.82843 14.5 9 14.5 8.17157 14.5 7.5 15.1716 7.5 16 7.5 16.8284 8.17157 17.5 9 17.5Z" clip-rule="evenodd"/></svg>
