<svg xmlns="http://www.w3.org/2000/svg" viewBox="0 0 24 24"><path class="fn-svg-icon" fill-rule="evenodd" d="M16.2929 3.29289C16.4804 3.10536 16.7348 3 17 3H19.9983C20.5504 3 20.998 3.44737 20.9983 3.99943L21 6.99943C21.0002 7.26484 20.8948 7.51943 20.7071 7.70711L7.70711 20.7071C7.31658 21.0976 6.68342 21.0976 6.29289 20.7071L3.29289 17.7071C2.90237 17.3166 2.90237 16.6834 3.29289 16.2929L16.2929 3.29289ZM17.4142 5L5.41421 17L7 18.5858L18.9998 6.58602L18.9989 5H17.4142Z" clip-rule="evenodd"/><path class="fn-svg-icon" fill-rule="evenodd" d="M6.29289 13.2929C6.68342 12.9024 7.31658 12.9024 7.70711 13.2929L10.7071 16.2929C11.0976 16.6834 11.0976 17.3166 10.7071 17.7071 10.3166 18.0976 9.68342 18.0976 9.29289 17.7071L6.29289 14.7071C5.90237 14.3166 5.90237 13.6834 6.29289 13.2929ZM12 20C12 19.4477 12.4477 19 13 19H20C20.5523 19 21 19.4477 21 20 21 20.5523 20.5523 21 20 21H13C12.4477 21 12 20.5523 12 20ZM16.2929 3.29289C16.6834 2.90237 17.3166 2.90237 17.7071 3.29289L20.7071 6.29289C21.0976 6.68342 21.0976 7.31658 20.7071 7.70711 20.3166 8.09763 19.6834 8.09763 19.2929 7.70711L16.2929 4.70711C15.9024 4.31658 15.9024 3.68342 16.2929 3.29289Z" clip-rule="evenodd"/></svg>
