<svg xmlns="http://www.w3.org/2000/svg" viewBox="0 0 24 24"><path class="fn-svg-icon" fill-rule="evenodd" d="M3 11C3.55228 11 4 11.4477 4 12V17C4 17.5523 4.44772 18 5 18 5.55228 18 6 18.4477 6 19 6 19.5523 5.55228 20 5 20 3.34315 20 2 18.6569 2 17V12C2 11.4477 2.44772 11 3 11ZM10 5C10 4.44772 10.4477 4 11 4H15C15.2652 4 15.5196 4.10536 15.7071 4.29289L17.4142 6H19C20.6569 6 22 7.34315 22 9V17C22 18.6569 20.6569 20 19 20 18.4477 20 18 19.5523 18 19 18 18.4477 18.4477 18 19 18 19.5523 18 20 17.5523 20 17V9C20 8.44772 19.5523 8 19 8H17C16.7348 8 16.4804 7.89464 16.2929 7.70711L14.5858 6H11C10.4477 6 10 5.55228 10 5Z" clip-rule="evenodd"/><path class="fn-svg-icon" fill-rule="evenodd" d="M18 11C18.5523 11 19 10.5523 19 10 19 9.44772 18.5523 9 18 9 17.4477 9 17 9.44772 17 10 17 10.5523 17.4477 11 18 11ZM7 15C7 12.2386 9.23858 10 12 10 14.7614 10 17 12.2386 17 15 17 17.7614 14.7614 20 12 20 9.23858 20 7 17.7614 7 15ZM12 12C10.3431 12 9 13.3431 9 15 9 16.6569 10.3431 18 12 18 13.6569 18 15 16.6569 15 15 15 13.3431 13.6569 12 12 12ZM0 5C0 4.44772.447715 4 1 4H7C7.55228 4 8 4.44772 8 5 8 5.55228 7.55228 6 7 6H1C.447715 6 0 5.55228 0 5Z" clip-rule="evenodd"/><path class="fn-svg-icon" fill-rule="evenodd" d="M4 1C4.55228 1 5 1.44772 5 2V8C5 8.55228 4.55228 9 4 9C3.44772 9 3 8.55228 3 8V2C3 1.44772 3.44772 1 4 1Z" clip-rule="evenodd"/></svg>
