<svg xmlns="http://www.w3.org/2000/svg" viewBox="0 0 24 24"><path class="fn-svg-icon" fill-rule="evenodd" d="M19.7929 4.20709C19.355 3.76919 18.645 3.76919 18.2071 4.20709L14.7071 7.70709C14.4392 7.97492 14.0431 8.06844 13.6837 7.94867L5.50654 5.22293L5.31746 5.60108L11.4961 9.13174C11.7667 9.28637 11.9498 9.55833 11.9911 9.86725C12.0325 10.1762 11.9275 10.4867 11.7071 10.7071L8.70708 13.7071C8.51955 13.8946 8.26519 14 7.99997 14H4.61801L4.34162 14.5528L7.44719 16.1056C7.64072 16.2023 7.79764 16.3592 7.8944 16.5528L9.44719 19.6583L9.99998 19.382V16C9.99998 15.4477 10.4477 15 11 15C11.5523 15 12 15.4477 12 16V20C12 20.3788 11.786 20.725 11.4472 20.8944L9.44719 21.8944C8.95321 22.1414 8.35254 21.9412 8.10555 21.4472L6.25462 17.7453L2.55276 15.8944C2.05878 15.6474 1.85856 15.0467 2.10555 14.5528L3.10555 12.5528C3.27494 12.214 3.6212 12 3.99997 12H7.58576L9.36709 10.2187L3.50384 6.86823C3.04303 6.60491 2.8682 6.02747 3.10555 5.55277L4.10555 3.55277C4.3281 3.10766 4.84409 2.89393 5.3162 3.0513L13.7299 5.85586L16.7929 2.79288C18.0118 1.57392 19.9881 1.57392 21.2071 2.79288C22.426 4.01183 22.426 5.98814 21.2071 7.20709L18.7071 9.70709C18.3166 10.0976 17.6834 10.0976 17.2929 9.70709C16.9023 9.31657 16.9023 8.6834 17.2929 8.29288L19.7929 5.79288C20.2308 5.35497 20.2308 4.64499 19.7929 4.20709Z" clip-rule="evenodd"/><path class="fn-svg-icon" fill-rule="evenodd" d="M9.70708 3.29288C10.0976 3.6834 10.0976 4.31656 9.70708 4.70709L8.70708 5.70709C8.31656 6.09761 7.68339 6.09761 7.29287 5.70709 6.90234 5.31656 6.90234 4.6834 7.29287 4.29288L8.29287 3.29288C8.68339 2.90235 9.31656 2.90235 9.70708 3.29288ZM8.70708 15.2929C9.09761 15.6834 9.09761 16.3166 8.70708 16.7071L7.70708 17.7071C7.31656 18.0976 6.68339 18.0976 6.29287 17.7071 5.90234 17.3166 5.90234 16.6834 6.29287 16.2929L7.29287 15.2929C7.68339 14.9024 8.31656 14.9024 8.70708 15.2929ZM12.7071 4.29288C13.0976 4.6834 13.0976 5.31656 12.7071 5.70709L11.7071 6.70709C11.3166 7.09761 10.6834 7.09761 10.2929 6.70709 9.90234 6.31656 9.90234 5.6834 10.2929 5.29288L11.2929 4.29288C11.6834 3.90235 12.3166 3.90235 12.7071 4.29288ZM17 13C17 12.4477 17.4477 12 18 12H21C21.5523 12 22 12.4477 22 13 22 13.5523 21.5523 14 21 14H18C17.4477 14 17 13.5523 17 13ZM15 14C15.5523 14 16 13.5523 16 13 16 12.4477 15.5523 12 15 12 14.4477 12 14 12.4477 14 13 14 13.5523 14.4477 14 15 14ZM15 17C15.5523 17 16 16.5523 16 16 16 15.4477 15.5523 15 15 15 14.4477 15 14 15.4477 14 16 14 16.5523 14.4477 17 15 17ZM15 20C15.5523 20 16 19.5523 16 19 16 18.4477 15.5523 18 15 18 14.4477 18 14 18.4477 14 19 14 19.5523 14.4477 20 15 20ZM17 16C17 15.4477 17.4477 15 18 15H21C21.5523 15 22 15.4477 22 16 22 16.5523 21.5523 17 21 17H18C17.4477 17 17 16.5523 17 16ZM17 19C17 18.4477 17.4477 18 18 18H21C21.5523 18 22 18.4477 22 19 22 19.5523 21.5523 20 21 20H18C17.4477 20 17 19.5523 17 19Z" clip-rule="evenodd"/></svg>
