<svg xmlns="http://www.w3.org/2000/svg" viewBox="0 0 24 24"><path class="fn-svg-icon" fill-rule="evenodd" d="M16 4C16 3.44772 16.4477 3 17 3H19C20.6569 3 22 4.34315 22 6V18C22 19.6569 20.6569 21 19 21H17C16.4477 21 16 20.5523 16 20 16 19.4477 16.4477 19 17 19H19C19.5523 19 20 18.5523 20 18V6C20 5.44772 19.5523 5 19 5H17C16.4477 5 16 4.55228 16 4ZM5 5C4.44772 5 4 5.44772 4 6V18C4 18.5523 4.44772 19 5 19H7C7.55228 19 8 19.4477 8 20 8 20.5523 7.55228 21 7 21H5C3.34315 21 2 19.6569 2 18V6C2 4.34315 3.34315 3 5 3H7C7.55228 3 8 3.44772 8 4 8 4.55228 7.55228 5 7 5H5Z" clip-rule="evenodd"/><path class="fn-svg-icon" fill-rule="evenodd" d="M7 8C7 7.44772 7.44772 7 8 7H16C16.5523 7 17 7.44772 17 8 17 8.55228 16.5523 9 16 9H8C7.44772 9 7 8.55228 7 8ZM7 16C7 15.4477 7.44772 15 8 15H12C12.5523 15 13 15.4477 13 16 13 16.5523 12.5523 17 12 17H8C7.44772 17 7 16.5523 7 16ZM7 12C7 11.4477 7.44772 11 8 11H16C16.5523 11 17 11.4477 17 12 17 12.5523 16.5523 13 16 13H8C7.44772 13 7 12.5523 7 12Z" clip-rule="evenodd"/></svg>
