<svg xmlns="http://www.w3.org/2000/svg" viewBox="0 0 24 24"><path class="fn-svg-icon" fill-rule="evenodd" d="M15.7071 5.29289C16.0976 5.68342 16.0976 6.31658 15.7071 6.70711L11.7071 10.7071C11.3166 11.0976 10.6834 11.0976 10.2929 10.7071L8.29289 8.70711C7.90237 8.31658 7.90237 7.68342 8.29289 7.29289 8.68342 6.90237 9.31658 6.90237 9.70711 7.29289L11 8.58579 14.2929 5.29289C14.6834 4.90237 15.3166 4.90237 15.7071 5.29289ZM8 13C8 12.4477 8.44772 12 9 12H15C15.5523 12 16 12.4477 16 13 16 13.5523 15.5523 14 15 14H9C8.44772 14 8 13.5523 8 13ZM8 17C8 16.4477 8.44772 16 9 16H15C15.5523 16 16 16.4477 16 17 16 17.5523 15.5523 18 15 18H9C8.44772 18 8 17.5523 8 17Z" clip-rule="evenodd"/><path class="fn-svg-icon" fill-rule="evenodd" d="M4 4C4 2.89543 4.89543 2 6 2H18C19.1046 2 20 2.89543 20 4V20C20 21.1046 19.1046 22 18 22H6C4.89543 22 4 21.1046 4 20V4ZM18 4L6 4V20H18V4Z" clip-rule="evenodd"/></svg>
