<svg xmlns="http://www.w3.org/2000/svg" viewBox="0 0 24 24"><path class="fn-svg-icon" fill-rule="evenodd" d="M8.61732 8.07612C8.99099 7.92134 9.42111 8.0069 9.70711 8.29289L12.7071 11.2929C13.0976 11.6834 13.0976 12.3166 12.7071 12.7071L9.70711 15.7071C9.42111 15.9931 8.99099 16.0787 8.61732 15.9239C8.24364 15.7691 8 15.4045 8 15V9C8 8.59554 8.24364 8.2309 8.61732 8.07612Z" clip-rule="evenodd"/><path class="fn-svg-icon" fill-rule="evenodd" d="M12.2929 8.29289C12.6834 7.90237 13.3166 7.90237 13.7071 8.29289L16.7071 11.2929C17.0976 11.6834 17.0976 12.3166 16.7071 12.7071L13.7071 15.7071C13.3166 16.0976 12.6834 16.0976 12.2929 15.7071 11.9024 15.3166 11.9024 14.6834 12.2929 14.2929L14.5858 12 12.2929 9.70711C11.9024 9.31658 11.9024 8.68342 12.2929 8.29289ZM8 13C6.34315 13 5 14.3431 5 16 5 17.6569 6.34315 19 8 19 8.55228 19 9 19.4477 9 20 9 20.5523 8.55228 21 8 21 5.23858 21 3 18.7614 3 16 3 13.2386 5.23858 11 8 11H10C10.5523 11 11 11.4477 11 12 11 12.5523 10.5523 13 10 13H8Z" clip-rule="evenodd"/><path class="fn-svg-icon" fill-rule="evenodd" d="M6 5C5.44772 5 5 5.44772 5 6V8C5 8.55228 4.55228 9 4 9C3.44772 9 3 8.55228 3 8V6C3 4.34315 4.34315 3 6 3H18C19.6569 3 21 4.34315 21 6V18C21 19.6569 19.6569 21 18 21H8C7.44772 21 7 20.5523 7 20C7 19.4477 7.44772 19 8 19H18C18.5523 19 19 18.5523 19 18V6C19 5.44772 18.5523 5 18 5H6Z" clip-rule="evenodd"/></svg>
