<svg xmlns="http://www.w3.org/2000/svg" viewBox="0 0 24 24"><path class="fn-svg-icon" fill-rule="evenodd" d="M12 6C12.5523 6 13 6.44772 13 7V11.6667L15.8 15.4C16.1314 15.8418 16.0419 16.4686 15.6 16.8C15.1582 17.1314 14.5314 17.0418 14.2 16.6L11.2 12.6C11.0702 12.4269 11 12.2164 11 12V7C11 6.44772 11.4478 6 12 6Z" clip-rule="evenodd"/><path class="fn-svg-icon" fill-rule="evenodd" d="M2.56805 8.67036C3.93934 4.78585 7.64307 2 12 2C17.5229 2 22 6.47715 22 12C22 17.5228 17.5229 22 12 22C11.4478 22 11 21.5523 11 21C11 20.4477 11.4478 20 12 20C16.4183 20 20 16.4183 20 12C20 7.58172 16.4183 4 12 4C8.51728 4 5.55187 6.2261 4.45398 9.33613C4.27014 9.85691 3.69892 10.1301 3.17813 9.94621C2.65734 9.76237 2.3842 9.19115 2.56805 8.67036Z" clip-rule="evenodd"/><path class="fn-svg-icon" fill-rule="evenodd" d="M5.50004 15C5.2239 15 5.00004 15.2239 5.00004 15.5C5.00004 15.7761 5.2239 16 5.50004 16H6.50004C7.88075 16 9.00004 17.1193 9.00004 18.5C9.00004 19.8807 7.88075 21 6.50004 21H4.00004C3.44776 21 3.00004 20.5523 3.00004 20C3.00004 19.4477 3.44776 19 4.00004 19H6.50004C6.77619 19 7.00004 18.7761 7.00004 18.5C7.00004 18.2239 6.77619 18 6.50004 18H5.50004C4.11933 18 3.00004 16.8807 3.00004 15.5C3.00004 14.1193 4.11933 13 5.50004 13H8.00004C8.55233 13 9.00004 13.4477 9.00004 14C9.00004 14.5523 8.55233 15 8.00004 15H5.50004Z" clip-rule="evenodd"/><path class="fn-svg-icon" fill-rule="evenodd" d="M6.00004 19C6.55233 19 7.00004 19.4477 7.00004 20V22C7.00004 22.5523 6.55233 23 6.00004 23 5.44776 23 5.00004 22.5523 5.00004 22V20C5.00004 19.4477 5.44776 19 6.00004 19ZM6.00004 11C6.55233 11 7.00004 11.4477 7.00004 12V14C7.00004 14.5523 6.55233 15 6.00004 15 5.44776 15 5.00004 14.5523 5.00004 14V12C5.00004 11.4477 5.44776 11 6.00004 11Z" clip-rule="evenodd"/></svg>
