<svg xmlns="http://www.w3.org/2000/svg" viewBox="0 0 24 24"><path class="fn-svg-icon" fill-rule="evenodd" d="M10.2929 2.29289C10.4804 2.10536 10.7348 2 11 2H19C19.2652 2 19.5196 2.10536 19.7071 2.29289C19.8946 2.48043 20 2.73478 20 3V21C20 21.5523 19.5523 22 19 22H5C4.44772 22 4 21.5523 4 21V9C4 8.73478 4.10536 8.48043 4.29289 8.29289L10.2929 2.29289ZM11.4142 4L6 9.41421V20H18V4H11.4142Z" clip-rule="evenodd"/><path class="fn-svg-icon" fill-rule="evenodd" d="M11.2929 9.29289C11.6834 8.90237 12.3166 8.90237 12.7071 9.29289L14.7071 11.2929C15.0976 11.6834 15.0976 12.3166 14.7071 12.7071L12.7071 14.7071C12.3166 15.0976 11.6834 15.0976 11.2929 14.7071 10.9024 14.3166 10.9024 13.6834 11.2929 13.2929L12.5858 12 12 11.4142 9.41421 14 12 16.5858 15.2929 13.2929C15.6834 12.9024 16.3166 12.9024 16.7071 13.2929 17.0976 13.6834 17.0976 14.3166 16.7071 14.7071L12.7071 18.7071C12.3166 19.0976 11.6834 19.0976 11.2929 18.7071L7.29289 14.7071C6.90237 14.3166 6.90237 13.6834 7.29289 13.2929L11.2929 9.29289ZM6 9H9C10.1046 9 11 8.10457 11 7V4" clip-rule="evenodd"/></svg>
