<svg xmlns="http://www.w3.org/2000/svg" viewBox="0 0 24 24"><path class="fn-svg-icon" fill-rule="evenodd" d="M8.29289 4.29289C8.48043 4.10536 8.73478 4 9 4H15C15.2652 4 15.5196 4.10536 15.7071 4.29289L17.4142 6H19C20.6569 6 22 7.34315 22 9V17C22 18.6569 20.6569 20 19 20C18.4477 20 18 19.5523 18 19C18 18.4477 18.4477 18 19 18C19.5523 18 20 17.5523 20 17V9C20 8.44772 19.5523 8 19 8H17C16.7348 8 16.4804 7.89464 16.2929 7.70711L14.5858 6H9.41421L7.70711 7.70711C7.51957 7.89464 7.26522 8 7 8H5C4.44772 8 4 8.44772 4 9V17C4 17.5523 4.44772 18 5 18C5.55228 18 6 18.4477 6 19C6 19.5523 5.55228 20 5 20C3.34315 20 2 18.6569 2 17V9C2 7.34315 3.34315 6 5 6H6.58579L8.29289 4.29289Z" clip-rule="evenodd"/><path class="fn-svg-icon" fill-rule="evenodd" d="M18 11C18.5523 11 19 10.5523 19 10 19 9.44772 18.5523 9 18 9 17.4477 9 17 9.44772 17 10 17 10.5523 17.4477 11 18 11ZM7 15C7 12.2386 9.23858 10 12 10 14.7614 10 17 12.2386 17 15 17 17.7614 14.7614 20 12 20 9.23858 20 7 17.7614 7 15ZM12 12C10.3431 12 9 13.3431 9 15 9 16.6569 10.3431 18 12 18 13.6569 18 15 16.6569 15 15 15 13.3431 13.6569 12 12 12Z" clip-rule="evenodd"/></svg>
